<svg xmlns="http://www.w3.org/2000/svg" xmlns:xlink="http://www.w3.org/1999/xlink" viewBox="0 0 837.33 1537"><defs><style>.cls-1{fill:none;}.cls-2,.cls-3,.cls-4{fill-rule:evenodd;}.cls-2{fill:url(#linear-gradient);}.cls-3{fill:url(#linear-gradient-2);}.cls-4{fill:#b57c47;}</style><linearGradient id="linear-gradient" x1="451.64" y1="430.33" x2="449.76" y2="297.12" gradientUnits="userSpaceOnUse"><stop offset="0" stop-color="#e2a352"/><stop offset="1" stop-color="#e0a251"/></linearGradient><linearGradient id="linear-gradient-2" x1="406.24" y1="139.89" x2="504.24" y2="744.89" xlink:href="#linear-gradient"/></defs><g id="Layer_2" data-name="Layer 2"><g id="base"><rect class="cls-1" width="837.33" height="1537"/></g><g id="chest_01"><path class="cls-2" d="M499.36,296.42s1.06,56,12,83.89c0,0-39.22,53-84.43,50.21s-35.1-39.08-35.1-39.08,12.55-17.35,14.69-44.91S499.36,296.42,499.36,296.42Z"/><path class="cls-3" d="M658.77,474.9c6.2,9.72,18.39,32.51,4.3,54.4-11.58,18-57.41,33.17-71.72,53.78-4.47,6.43-9,12.85-13.41,19.18-15.89,22.61-26.32,53.61-45.09,75.4-24.2,28.1-19.43,67.31-19.43,67.31s1.2,80.22-93.75,83.7c-86.57,3.17-84.22-74.54-84.22-74.54-3.19-9.41-12.31-52.84-12.31-52.84l-3.9-31.47-4.1-6.51-7.56-74.47-13.18-5.53c-6.71-28.76-1.81-82.65-1.81-82.65-56.5-10-31.21-49-31.21-49,19-22.69,42.23-28.81,73.48-39.83,19.94-7.06,38.85-18.18,49.87-25.28l2.35-1.57c3.38-2.2,11.24-3.43,11.24-3.43s-7.22,9.31-5.36,18.28,14.11,33.85,56.19,23,57.76-57.32,57.76-57.32,8.81,5.15,13,8.72C533,385.69,558.25,403.08,589,418,629.38,437.57,658.77,474.9,658.77,474.9Z"/><path class="cls-4" d="M387.52,585.09c-11.52,2.18-79.94,3.75-79.94,3.75l-13.18-5.53c-6.71-28.76-1.81-82.65-1.81-82.65-.42,44.09,5.1,76.45,6.35,78.88S327.82,585.09,387.52,585.09Z"/><path class="cls-4" d="M450.86,585.09c11.52,2.18,79.95,3.75,79.95,3.75L544,583.31c4.08-11.29,2.59-25.3,4.24-38.56,2.89-23.19,13.71-44.09,13.71-44.09-21.54,34.61-21.24,76.45-22.49,78.88S510.56,585.09,450.86,585.09Z"/><path class="cls-4" d="M422.46,662.29c4.86.59,33.69,1,33.69,1l5.56-1.5c15.25-4.18,18.15-22.45,18.15-22.45-6.91,17.37-19.54,20.76-20.07,21.42S447.62,662.29,422.46,662.29Z"/><path class="cls-4" d="M396.59,662.29c-5.37.59-37.27,1-37.27,1l-6.14-1.5c-16.87-4.18-20.08-22.45-20.08-22.45,7.65,17.37,21.61,20.76,22.2,21.42S368.76,662.29,396.59,662.29Z"/><path class="cls-4" d="M416.73,707.35c3.67.29,25.44.49,25.44.49l4.2-.72c11.51-2,13.7-10.82,13.7-10.82-5.22,8.37-14.75,10-15.15,10.32S435.73,707.35,416.73,707.35Z"/><path class="cls-4" d="M397.19,707.35c-4.05.29-28.14.49-28.14.49l-4.64-.72c-12.74-2-15.16-10.82-15.16-10.82,5.77,8.37,16.32,10,16.76,10.32S376.18,707.35,397.19,707.35Z"/><path class="cls-4" d="M422.29,484.62a460.53,460.53,0,0,0-2.19,46.51c.07,15.42.91,29.76,2.19,42.84-1.8-13.9-5.25-35.55-5.25-43.18S422.29,484.62,422.29,484.62Z"/><path class="cls-4" d="M415.16,622.87c-2.45,19.51-4.49,41.11-5.7,64.52-1.1,21.44-1.35,41.4-1,59.66-.75-19.42-2.56-49.7-2-60.3S415.16,622.87,415.16,622.87Z"/><path class="cls-4" d="M423.58,433.38A91.84,91.84,0,0,0,387,417.56c6.4.8,16.63,1.47,19.75,2.83S423.58,433.38,423.58,433.38Z"/><path class="cls-4" d="M450.52,432.88a91.82,91.82,0,0,1,35.69-17.7c-6.35,1.13-16.53,2.34-19.58,3.85S450.52,432.88,450.52,432.88Z"/></g></g></svg>