<svg xmlns="http://www.w3.org/2000/svg" xmlns:xlink="http://www.w3.org/1999/xlink" viewBox="0 0 837.33 1537"><defs><style>.cls-1{fill:none;}.cls-2,.cls-3,.cls-4,.cls-5,.cls-6,.cls-7,.cls-8,.cls-9{fill-rule:evenodd;}.cls-2{fill:url(#linear-gradient);}.cls-3{fill:url(#linear-gradient-2);}.cls-4{fill:#b57c47;}.cls-5{fill:url(#linear-gradient-3);}.cls-6{fill:url(#linear-gradient-4);}.cls-7{fill:url(#linear-gradient-5);}.cls-8{fill:url(#linear-gradient-6);}.cls-9{fill:url(#linear-gradient-7);}</style><linearGradient id="linear-gradient" x1="371" y1="499.23" x2="272.43" y2="571.67" gradientUnits="userSpaceOnUse"><stop offset="0" stop-color="#e2a352"/><stop offset="1" stop-color="#e0a251"/></linearGradient><linearGradient id="linear-gradient-2" x1="189.01" y1="980.2" x2="189.01" y2="685.19" gradientTransform="translate(611.99 -31.78) rotate(41.33)" xlink:href="#linear-gradient"/><linearGradient id="linear-gradient-3" x1="118.98" y1="828.25" x2="147.26" y2="809.63" gradientUnits="userSpaceOnUse"><stop offset="0" stop-color="#e2a352"/><stop offset="1" stop-color="#d0974a"/></linearGradient><linearGradient id="linear-gradient-4" x1="130.47" y1="845.71" x2="158.75" y2="827.09" xlink:href="#linear-gradient-3"/><linearGradient id="linear-gradient-5" x1="141.5" y1="862.47" x2="169.79" y2="843.85" xlink:href="#linear-gradient-3"/><linearGradient id="linear-gradient-6" x1="102.46" y1="803.17" x2="130.75" y2="784.55" xlink:href="#linear-gradient-3"/><linearGradient id="linear-gradient-7" x1="191.59" y1="961.05" x2="191.59" y2="701.73" gradientTransform="translate(611.99 -31.78) rotate(41.33)" xlink:href="#linear-gradient"/></defs><g id="Layer_2" data-name="Layer 2"><g id="base"><rect class="cls-1" width="837.33" height="1537"/></g><g id="R_arm_01"><path class="cls-2" d="M317.08,644.54a234.51,234.51,0,0,0-8.7,23.8s-11.7,29.08-48.64,16.62-27.16-56.34-27.16-56.34l7.74-19.4c0-.05,10-19,7.61-28.88-4.9-20.8-8.45-46.31-7.61-58.5s8.92-27.5,11-33.47c-1.06-29.38,10.09-36.69,10.09-36.69,70.9-59,93.8,51.17,93.8,51.17S355.18,559.77,317.08,644.54Z"/><path class="cls-3" d="M215.15,729.49c-17-13.58-39.53,2.88-40.06,3.16,0,0-17.51-8.88-27.48-9.55s-28.56,15.71-28.56,15.71v0c-.49.39-23.5,18.91-36.78,26.06,0,0,6.07,10.2,22.21,12.46s28.41-19.87,28.41-19.87l0-.07,0,.06,7.65,8.36c-13.49,5.89-20.6,8.15-35.72,17.28-7.21,4.36-14,8.78-20.28,13.18,0,0-1.08,3.16-.09,8.93s11,12.55,11,12.55l7.28,1.51s-2.16,1,.33,5.57,16.55,14.56,16.55,14.56a37.13,37.13,0,0,0,7.06,7.32c5,4,8.44,4.28,14.18,9.33s8.47,6.6,12,7.25c.88.19,3.46-1.33,7.31-4.53,12-10,28.34-31,48.29-73.92,5.71-7.53,4.43-6.2,10.1-12.82C217.85,768,232.14,743.07,215.15,729.49Z"/><path class="cls-4" d="M119.64,839.42s20.19-11.84,29.52-19.67c0,0-15.14,17.21-26.3,23.44C122.86,843.19,120.71,842.62,119.64,839.42Z"/><path class="cls-4" d="M137,853.08s10.21-4.3,22-15.94c0,0-13.89,16.7-18.09,18.92Z"/><path class="cls-5" d="M103.09,824.85s27.85-15.21,38.52-26.55c1.77-1.88,11.37,5.86,11.37,5.86,2,2.32,5.38,7.42,3,9.32-7.92,6.32-22.2,24-35.54,26.64"/><path class="cls-6" d="M123.58,842.87s16.24-11.75,26.91-23.09c1.76-1.87,11.37,5.87,11.37,5.87a6.8,6.8,0,0,1-.11,8.5c-8.06,9.16-16.23,13.86-23.78,19.39"/><path class="cls-7" d="M140.14,855.83a178,178,0,0,0,22.67-20c1.76-1.88,7.91,2.83,7.91,2.83,2,2.32,3.86,8.08,1.84,10.37-8.06,9.17-10.49,11.89-18,17.42"/><path class="cls-4" d="M102.77,819.27s19.06-9.57,29-16.72c0,0-16.2,17.83-28.7,22.31A4.52,4.52,0,0,1,102.77,819.27Z"/><path class="cls-4" d="M100.56,785.74s1.15,5,14.73,2.15c0,0-4.1,5.16-17.69,6C97.6,793.93,92.47,790.93,100.56,785.74Z"/><path class="cls-8" d="M95.07,789.23S109.6,793,120.52,785a4.86,4.86,0,0,1,6.62.67l5.71,7.59c2,2.32,2.83,7.19.15,8.65-8.79,4.8-18.52,12.56-30.23,17.4l-7.29-1.5s-15.62-7.72-10.92-21.48"/><path class="cls-4" d="M278.43,547c-1,11.82,2,10.92-11.58,34.38,0,0,14-33.28,1.75-69.51C268.6,511.91,279.47,535.23,278.43,547Z"/><path class="cls-9" d="M236.26,617.61S213.17,636.45,208,649.8c-2,5.2-5.42,17.74-9.53,31.61-6.58,21.87-15.1,47-23.33,51.24,0,0-10.1,26.45,1.68,37.62,17.54,16.63,37.5,6.89,41.76,1.77,33.68-40.42,68.8-68.67,83.69-92.12A59.18,59.18,0,0,0,309,665.67S322.83,602,236.26,617.61Z"/><path class="cls-4" d="M228.57,663.16c-6.56,10.25-3.82,9.44-25.51,29.9,0,0,26.82-29,35.26-60.27C238.32,632.79,235.12,652.9,228.57,663.16Z"/></g></g></svg>