<svg xmlns="http://www.w3.org/2000/svg" xmlns:xlink="http://www.w3.org/1999/xlink" viewBox="0 0 837.33 1537"><defs><style>.cls-1{fill:none;}.cls-2,.cls-3,.cls-4{fill-rule:evenodd;}.cls-2{fill:url(#Áåçûìÿííûé_ãðàäèåíò_104);}.cls-3{fill:url(#Áåçûìÿííûé_ãðàäèåíò_23);}.cls-4{fill:#b85652;}</style><linearGradient id="Áåçûìÿííûé_ãðàäèåíò_104" x1="304.8" y1="536.14" x2="304.31" y2="500.99" gradientTransform="matrix(-0.95, 0.31, 0.31, 0.95, 519.64, -311.79)" gradientUnits="userSpaceOnUse"><stop offset="0" stop-color="#ff7f66"/><stop offset="1" stop-color="#ec887e"/></linearGradient><linearGradient id="Áåçûìÿííûé_ãðàäèåíò_23" x1="278.39" y1="549.6" x2="278.39" y2="537.1" gradientTransform="translate(343.33 -320.13) rotate(22.18)" gradientUnits="userSpaceOnUse"><stop offset="0" stop-color="#ce595b"/><stop offset="1" stop-color="#d67261"/></linearGradient></defs><g id="Layer_2" data-name="Layer 2"><g id="base"><rect class="cls-1" width="837.33" height="1537"/></g><g id="nose_05"><path class="cls-2" d="M396.05,255.33c-3.61,6.89-18,23-14.52,30.8l13.55,6.31s-8.72-4.65-10.79-8.07C382.5,281.4,392.44,264.14,396.05,255.33Z"/><path class="cls-3" d="M381.56,286.21s6.7,3.25,19.55,1.24c0,0,2.35-1.52,10.2.2,0,0-3.08-.53-10.81,5.42,0,0-3.63,2.13-9,0C391.5,293.07,387.81,290.55,381.56,286.21Z"/><path class="cls-4" d="M401,292.58s3.71-6,9.7-4.75C410.7,287.83,407.57,291,401,292.58Z"/></g></g></svg>