<?xml version="1.0" encoding="utf-8"?>
<!-- Generator: Adobe Illustrator 25.4.1, SVG Export Plug-In . SVG Version: 6.00 Build 0)  -->
<svg version="1.1" id="Layer_1" xmlns="http://www.w3.org/2000/svg" xmlns:xlink="http://www.w3.org/1999/xlink" x="0px" y="0px"
	 viewBox="0 0 837.3 1537" style="enable-background:new 0 0 837.3 1537;" xml:space="preserve">
<style type="text/css">
	.st0{fill:none;}
	.st1{fill:#292F3A;}
	.st2{opacity:0.66;fill:#74CBE2;enable-background:new    ;}
	.st3{fill:#74CBE2;}
	.st4{fill:#050505;}
</style>
<g id="Layer_2_00000028322013381753242450000007032418076091606694_">
	<g id="base">
		<rect class="st0" width="837.3" height="1537"/>
	</g>
	<g id="mouth_09">
		<path class="st1" d="M357.5,306.4c0,0,18.3-31.8,38.9-36.7s91.4,31.1,100.9,27.2s-10.6,66.5-96.3,81.5
			c-15.4-2-23.3-14.2-30.8-24.3C361.4,342.4,360.6,329.2,357.5,306.4z"/>
		<path class="st2" d="M361.2,293.2c0,0,15-26.1,32-30.1s75.1,25.5,82.9,22.3s-31.6,66.7-69.5,65.1S363.5,314,361.2,293.2z"/>
		<path class="st3" d="M476,285.5c7.8-3.2-31.6,66.7-69.5,65.1c-1.3,0-3.9-0.3-3.9-0.3c49.9,3.8,78.2-64.2,78.2-64.2
			S475.5,285.7,476,285.5z"/>
		<path class="st4" d="M482.6,309c1,1.1,2.2,2.2,3.5,3.1c1.3,0.9,2.6,1.6,4,2.2c0.7,0.3,1.4,0.6,2.1,0.9c0.5,0.2,1,0.3,1.5,0.4
			l-0.9,1.2l-0.8,1.4l-0.1,0.3c-0.3-0.2-0.6-0.3-0.9-0.5c-0.7-0.4-1.4-0.9-2-1.3c-1.3-0.9-2.6-2-3.7-3.1c-1.2-1.2-2.2-2.5-3.1-3.9
			c-0.9-1.5-1.6-3.1-2.1-4.8C480.6,306.3,481.5,307.7,482.6,309z"/>
		<path class="st4" d="M480,317.8c0.9,1.1,2,2.1,3.2,3c1.2,0.8,2.4,1.6,3.7,2.1c0.7,0.3,1.3,0.6,2,0.8c-0.6,1-1.1,1.8-1.5,2.6
			c-0.6-0.4-1.1-0.7-1.7-1.1c-1.2-0.9-2.4-1.9-3.4-3c-1.1-1.2-2-2.4-2.8-3.8c-0.8-1.4-1.4-3-1.9-4.5
			C478.2,315.3,479,316.6,480,317.8z"/>
		<path class="st4" d="M478.2,326.8c0.9,1.1,2,2.1,3.2,3c1,0.7,2,1.3,3,1.8c-0.4,0.7-0.8,1.3-1.2,2.1c-1-0.8-1.9-1.6-2.8-2.5
			c-1.1-1.1-2-2.4-2.8-3.8c-0.8-1.4-1.5-3-1.9-4.5C476.4,324.3,477.2,325.6,478.2,326.8z"/>
	</g>
</g>
</svg>
