<?xml version="1.0" encoding="utf-8"?>
<!-- Generator: Adobe Illustrator 25.4.1, SVG Export Plug-In . SVG Version: 6.00 Build 0)  -->
<svg version="1.1" id="Layer_1" xmlns="http://www.w3.org/2000/svg" xmlns:xlink="http://www.w3.org/1999/xlink" x="0px" y="0px"
	 viewBox="0 0 837.3 1537" style="enable-background:new 0 0 837.3 1537;" xml:space="preserve">
<style type="text/css">
	.st0{fill:none;}
	.st1{opacity:0.2;fill-rule:evenodd;clip-rule:evenodd;fill:#72433B;}
	.st2{fill-rule:evenodd;clip-rule:evenodd;fill:#9B5C4E;}
	.st3{fill-rule:evenodd;clip-rule:evenodd;fill:#72433B;}
</style>
<g>
	<g id="Layer_2_00000072247875146731573650000015704937684767183287_">
		<g id="base">
			<rect class="st0" width="837.3" height="1537"/>
		</g>
		<g id="headnNeck_02">
			<path class="st1" d="M399.9,376.9c0,0,11.8,21.6,50.7,5.5s48.6-70.8,48.6-70.8l-0.6-14.1l-4-4.5l-90.4,70.7L399.9,376.9z"/>
			<path class="st2" d="M493.7,308.3c-7.5,30-42.6,55.2-54,55.2c-6.4,0-20.3-2.8-20.3-2.8c-16.3,4.8-20.5,4.9-24.1,2.8
				s-6.6-7.1-18.6-26.9c-12.7-20.9-17.6-38-19.7-59.4c-0.7-7.2,2.3-17.3,4.2-20.1c0.8-1.4,1.8-2.6,3-3.8c1.8-12-2.6-25.8-2.6-25.8
				s-6.3-6.4-6.6-14.4s4-12,6.4-17.5s4.3-19.1,6.8-23.2c13.5-22.1,60-32.8,82.5-29.6c36.1,5.1,61,37.9,62.3,54.6
				C515.8,232.4,499.3,285.9,493.7,308.3z"/>
			<path class="st3" d="M418.4,353.1c0,0-1.1,1.7,1.3,7.7l2.1,0.4C421.8,361.2,418.4,356.8,418.4,353.1z"/>
		</g>
		<g id="ear">
			<path class="st2" d="M489.9,265c0,0,7.9-17,25.5-21.5c0,0,11.6,3.5,10,20.3c0,0-3.1,29.4-24.5,33.1c-6.7,0.7-12.8-3.6-14.5-10.1
				C486.4,286.7,485.3,270.4,489.9,265z"/>
			<path class="st3" d="M492.5,278.3c0,0,10.5-19.8,23.3-22.2c0,0,6.8,3,5.4,14.2c0,0-2.3-8.1-4.9-10
				C516.3,260.4,501.4,267.4,492.5,278.3z"/>
			<path class="st3" d="M495.5,276.4c0,0-0.2,7.2,5.4,7.4s11-7.4,12-17.3c0,0-4.7,10.3-10.6,12.3c-0.1-3.9,0.4-7.8,1.5-11.5
				C503.8,267.2,497.7,267.8,495.5,276.4z"/>
		</g>
	</g>
</g>
</svg>
