<svg xmlns="http://www.w3.org/2000/svg" xmlns:xlink="http://www.w3.org/1999/xlink" viewBox="0 0 837.33 1537"><defs><style>.cls-1{isolation:isolate;}.cls-2{fill:none;}.cls-3{fill:url(#Áåçûìÿííûé_ãðàäèåíò_300);}.cls-4{fill:#dd4c6a;}.cls-5{fill:url(#Áåçûìÿííûé_ãðàäèåíò_40);}.cls-6{fill:url(#Áåçûìÿííûé_ãðàäèåíò_40-2);}.cls-16,.cls-19,.cls-21,.cls-7,.cls-9{mix-blend-mode:multiply;}.cls-7{fill:url(#Áåçûìÿííûé_ãðàäèåíò_191);}.cls-8{fill:#fff;}.cls-9{fill:#b42f97;}.cls-19,.cls-21,.cls-9{opacity:0.6;}.cls-10{fill:url(#Áåçûìÿííûé_ãðàäèåíò_111);}.cls-11{fill:#ff9d8a;}.cls-12{fill:#270039;}.cls-13{fill:url(#Áåçûìÿííûé_ãðàäèåíò_300-2);}.cls-14{fill:url(#Áåçûìÿííûé_ãðàäèåíò_40-3);}.cls-15{fill:url(#Áåçûìÿííûé_ãðàäèåíò_40-4);}.cls-16{fill:url(#Áåçûìÿííûé_ãðàäèåíò_191-2);}.cls-17{fill:url(#Áåçûìÿííûé_ãðàäèåíò_111-2);}.cls-18{fill:url(#Áåçûìÿííûé_ãðàäèåíò_35);}.cls-19{fill:url(#Áåçûìÿííûé_ãðàäèåíò_123);}.cls-20{fill:url(#Áåçûìÿííûé_ãðàäèåíò_35-2);}.cls-21{fill:url(#Áåçûìÿííûé_ãðàäèåíò_123-2);}</style><linearGradient id="Áåçûìÿííûé_ãðàäèåíò_300" x1="442.67" y1="255.19" x2="442.67" y2="237.6" gradientUnits="userSpaceOnUse"><stop offset="0" stop-color="#eee2ff"/><stop offset="1" stop-color="#bdc9fb"/></linearGradient><linearGradient id="Áåçûìÿííûé_ãðàäèåíò_40" x1="440.92" y1="255.8" x2="440.92" y2="238.2" gradientUnits="userSpaceOnUse"><stop offset="0" stop-color="#4d0e2e"/><stop offset="1" stop-color="#36063b"/></linearGradient><linearGradient id="Áåçûìÿííûé_ãðàäèåíò_40-2" x1="440.92" y1="255.29" x2="440.92" y2="238.71" xlink:href="#Áåçûìÿííûé_ãðàäèåíò_40"/><linearGradient id="Áåçûìÿííûé_ãðàäèåíò_191" x1="440.92" y1="252.38" x2="440.92" y2="241.62" gradientUnits="userSpaceOnUse"><stop offset="0" stop-color="#a79abd"/><stop offset="0.99" stop-color="#724a60"/></linearGradient><linearGradient id="Áåçûìÿííûé_ãðàäèåíò_111" x1="427.48" y1="253.17" x2="458.64" y2="253.17" gradientUnits="userSpaceOnUse"><stop offset="0" stop-color="#592c27"/><stop offset="0.98" stop-color="#814227"/></linearGradient><linearGradient id="Áåçûìÿííûé_ãðàäèåíò_300-2" x1="217.23" y1="256.01" x2="217.23" y2="238.43" gradientTransform="matrix(-1, 0, 0, 1, 595.93, 0)" xlink:href="#Áåçûìÿííûé_ãðàäèåíò_300"/><linearGradient id="Áåçûìÿííûé_ãðàäèåíò_40-3" x1="215.9" y1="256.63" x2="215.9" y2="239.02" gradientTransform="matrix(-1, 0, 0, 1, 595.93, 0)" xlink:href="#Áåçûìÿííûé_ãðàäèåíò_40"/><linearGradient id="Áåçûìÿííûé_ãðàäèåíò_40-4" x1="215.9" y1="256.11" x2="215.9" y2="239.54" gradientTransform="matrix(-1, 0, 0, 1, 595.93, 0)" xlink:href="#Áåçûìÿííûé_ãðàäèåíò_40"/><linearGradient id="Áåçûìÿííûé_ãðàäèåíò_191-2" x1="215.9" y1="253.2" x2="215.9" y2="242.45" gradientTransform="matrix(-1, 0, 0, 1, 595.93, 0)" xlink:href="#Áåçûìÿííûé_ãðàäèåíò_191"/><linearGradient id="Áåçûìÿííûé_ãðàäèåíò_111-2" x1="366.53" y1="253.99" x2="390.28" y2="253.99" xlink:href="#Áåçûìÿííûé_ãðàäèåíò_111"/><linearGradient id="Áåçûìÿííûé_ãðàäèåíò_35" x1="421.8" y1="229.92" x2="466.61" y2="229.92" gradientTransform="matrix(1.04, -0.15, 0.16, 1.08, -54.11, 48.4)" gradientUnits="userSpaceOnUse"><stop offset="0" stop-color="#36063b"/><stop offset="1" stop-color="#4d0e2e"/></linearGradient><linearGradient id="Áåçûìÿííûé_ãðàäèåíò_123" x1="453.44" y1="229.92" x2="466.61" y2="229.92" gradientTransform="matrix(1.04, -0.15, 0.16, 1.08, -54.11, 48.4)" gradientUnits="userSpaceOnUse"><stop offset="0" stop-color="#ffeadb"/><stop offset="0.99" stop-color="#d177f4"/></linearGradient><linearGradient id="Áåçûìÿííûé_ãðàäèåíò_35-2" x1="353.16" y1="219.58" x2="397.97" y2="219.58" gradientTransform="matrix(-0.81, -0.12, -0.16, 1.08, 714.59, 36.2)" xlink:href="#Áåçûìÿííûé_ãðàäèåíò_35"/><linearGradient id="Áåçûìÿííûé_ãðàäèåíò_123-2" x1="384.8" y1="219.58" x2="397.97" y2="219.58" gradientTransform="matrix(-0.81, -0.12, -0.16, 1.08, 714.59, 36.2)" xlink:href="#Áåçûìÿííûé_ãðàäèåíò_123"/></defs><g class="cls-1"><g id="Layer_2" data-name="Layer 2"><g id="base"><rect class="cls-2" width="837.33" height="1537"/></g><g id="eyes"><path class="cls-3" d="M424.84,251.73c.13,2.5,11.75,4.14,21.62,3.18,9.53-.94,14.6-5.09,14-10.24s-7.43-8.16-17.79-6.7C431.33,239.57,424.52,245.8,424.84,251.73Z"/><path class="cls-4" d="M425.16,249.08a5.21,5.21,0,0,0,2.32,4.55s-3-.42-3.27-1.65S425.16,249.08,425.16,249.08Z"/><circle class="cls-5" cx="440.92" cy="247" r="8.8"/><circle class="cls-6" cx="440.92" cy="247" r="8.29"/><circle class="cls-7" cx="440.92" cy="247" r="5.38"/><path class="cls-8" d="M448.19,245.88c-.65.37,2.37.46,4.63-.11,2-.51,3-1.34,2.8-1.49A16.76,16.76,0,0,0,448.19,245.88Z"/><path class="cls-8" d="M446.47,246.24c-.86-.18-1.86.1-1.9.39s1,.66,1.52.54S447,246.35,446.47,246.24Z"/><path class="cls-9" d="M425.7,247.7s13.87-10.29,34.64-3.72l-.28-.88s-1.07-3.86-15.61-3.86S425.7,247.7,425.7,247.7Z"/><path class="cls-10" d="M427.48,253.63s8,3.45,19.71,2.38c8.65-.79,11.45-5.89,11.45-5.89S448.1,255.8,427.48,253.63Z"/><path class="cls-11" d="M427.48,245.05s4.5-9.9,15.19-10.9,15.14,6.11,15.14,6.11S438.42,235.48,427.48,245.05Z"/><path class="cls-12" d="M426.46,246.37s4.36-4.72,16.21-5.28,17.39,2,17.39,2,.13-1.79-.36-2.29S435.29,233.63,426.46,246.37Z"/><path class="cls-13" d="M392.29,252.55c-.1,2.51-9,4.14-16.48,3.18-7.27-.93-11.13-5.09-10.67-10.23s5.66-8.17,13.55-6.7C387.34,240.4,392.53,246.62,392.29,252.55Z"/><path class="cls-4" d="M392,249.9a6,6,0,0,1-1.76,4.55s2.28-.41,2.49-1.64A5.69,5.69,0,0,0,392,249.9Z"/><ellipse class="cls-14" cx="380.03" cy="247.82" rx="6.71" ry="8.8"/><ellipse class="cls-15" cx="380.03" cy="247.82" rx="6.32" ry="8.29"/><path class="cls-16" d="M375.93,247.82c0,3,1.84,5.38,4.1,5.38s4.1-2.41,4.1-5.38-1.83-5.37-4.1-5.37S375.93,244.85,375.93,247.82Z"/><path class="cls-8" d="M374.49,246.7c.5.37-1.8.46-3.52-.11-1.54-.51-2.29-1.34-2.14-1.49A10.39,10.39,0,0,1,374.49,246.7Z"/><path class="cls-8" d="M375.8,247.07c.66-.19,1.42.1,1.45.39s-.78.66-1.16.54S375.44,247.18,375.8,247.07Z"/><path class="cls-9" d="M391.64,248.52s-10.58-10.28-26.41-3.72l.22-.88s.81-3.86,11.9-3.86S391.64,248.52,391.64,248.52Z"/><path class="cls-17" d="M390.28,254.45a26.41,26.41,0,0,1-15,2.39,10.81,10.81,0,0,1-8.73-5.9S374.56,256.63,390.28,254.45Z"/><path class="cls-11" d="M390.28,245.87S386.85,236,378.7,235s-11.54,6.11-11.54,6.11S381.94,236.31,390.28,245.87Z"/><path class="cls-12" d="M391.06,247.2s-3.33-4.72-12.36-5.29-13.25,2-13.25,2a5.41,5.41,0,0,1,.27-2.28C366.09,241.13,384.32,234.46,391.06,247.2Z"/><path class="cls-18" d="M469.79,233.66s-6.33-4.71-9.78-5.37h0c-7.47-1.39-36.87,10.4-36.87,10.4s-2.25-8.72-1.34-14.26l.72-.1s-.31,4.9.25,6.75c0,0,.19-5.76,1.31-7,0,0,20-2.14,26.31-3.2l3.45-.58,1.27-.22c2.37-.41,3-.53,3-.53l-.07-.47S464.05,223.28,469.79,233.66Z"/><path class="cls-19" d="M469.79,233.66s-6.33-4.71-9.78-5.37h0a36.11,36.11,0,0,0-6.17-8l1.27-.22c3.17,2.16,9.16,8.32,9.16,8.32-1.84-4.23-6.24-9.32-6.24-9.32S464.05,223.28,469.79,233.66Z"/><path class="cls-20" d="M357.55,234.59s5.08-4.89,7.79-5.67h0c5.86-1.63,28.37,9.15,28.37,9.15s2-8.76,1.51-14.24l-.56-.08a37.89,37.89,0,0,1-.42,6.73s.05-5.73-.79-6.91c0,0-15.47-1.47-20.38-2.33l-2.67-.46-1-.18c-1.83-.33-2.31-.43-2.31-.43l.07-.47S362.36,224.07,357.55,234.59Z"/><path class="cls-21" d="M357.55,234.59s5.08-4.89,7.79-5.67h0a39.33,39.33,0,0,1,5.06-8.14l-1-.18c-2.54,2.26-7.41,8.58-7.41,8.58a53.2,53.2,0,0,1,5.17-9.48S362.36,224.07,357.55,234.59Z"/></g></g></g></svg>