<svg xmlns="http://www.w3.org/2000/svg" xmlns:xlink="http://www.w3.org/1999/xlink" viewBox="0 0 837.33 1537"><defs><style>.cls-1{fill:none;}.cls-2{fill:#ff9d8a;}.cls-2,.cls-3,.cls-4,.cls-5{fill-rule:evenodd;}.cls-3{fill:url(#Áåçûìÿííûé_ãðàäèåíò_104);}.cls-4{fill:url(#Áåçûìÿííûé_ãðàäèåíò_23);}.cls-5{fill:#b85652;}</style><linearGradient id="Áåçûìÿííûé_ãðàäèåíò_104" x1="288.91" y1="538" x2="288.62" y2="517.25" gradientTransform="translate(343.33 -320.13) rotate(22.18)" gradientUnits="userSpaceOnUse"><stop offset="0" stop-color="#ff7f66"/><stop offset="1" stop-color="#ec887e"/></linearGradient><linearGradient id="Áåçûìÿííûé_ãðàäèåíò_23" x1="275.75" y1="548.26" x2="275.75" y2="527.9" gradientTransform="translate(343.33 -320.13) rotate(22.18)" gradientUnits="userSpaceOnUse"><stop offset="0" stop-color="#ce595b"/><stop offset="1" stop-color="#d67261"/></linearGradient></defs><g id="Layer_2" data-name="Layer 2"><g id="base"><rect class="cls-1" width="837.33" height="1537"/></g><g id="nose_02"><path class="cls-2" d="M378.56,282.21s-2.48-7.53,6.32-15.95c0,0,8.94-7.19,19.05-3s10.81,5.4,10.81,5.4-.62,7.9-.87,10.09c0,0-13.48,4.5-18.74,6.93S378.56,282.21,378.56,282.21Z"/><path class="cls-3" d="M413.29,267.05s4.9,3.64,3.24,12.79l-14,5.3,10.26-6.57A11.09,11.09,0,0,0,413.29,267.05Z"/><path class="cls-4" d="M378.56,282.21s6.7,3.25,19.55,1.24c0,0,9.26-4,15.76-4.69,0,0-6.29,4.47-14,10.41,0,0-2.05,3-11.64,1.11C388.21,290.28,383.55,288.38,378.56,282.21Z"/><path class="cls-5" d="M403.93,285.7s3.7-6,9.69-4.76C413.62,280.94,410.49,284.1,403.93,285.7Z"/></g></g></svg>