<svg xmlns="http://www.w3.org/2000/svg" xmlns:xlink="http://www.w3.org/1999/xlink" viewBox="0 0 837.33 1537"><defs><style>.cls-1{fill:none;}.cls-2,.cls-3,.cls-4{fill-rule:evenodd;}.cls-2{fill:url(#Áåçûìÿííûé_ãðàäèåíò_104);}.cls-3{fill:url(#Áåçûìÿííûé_ãðàäèåíò_23);}.cls-4{fill:#b85652;}</style><linearGradient id="Áåçûìÿííûé_ãðàäèåíò_104" x1="310.6" y1="535.17" x2="310.24" y2="509.86" gradientTransform="matrix(-0.95, 0.31, 0.31, 0.95, 519.64, -311.79)" gradientUnits="userSpaceOnUse"><stop offset="0" stop-color="#ff7f66"/><stop offset="1" stop-color="#ec887e"/></linearGradient><linearGradient id="Áåçûìÿííûé_ãðàäèåíò_23" x1="276.89" y1="551.97" x2="276.89" y2="536.74" gradientTransform="translate(343.33 -320.13) rotate(22.18)" gradientUnits="userSpaceOnUse"><stop offset="0" stop-color="#ce595b"/><stop offset="1" stop-color="#d67261"/></linearGradient></defs><g id="Layer_2" data-name="Layer 2"><g id="base"><rect class="cls-1" width="837.33" height="1537"/></g><g id="nose_02"><path class="cls-2" d="M390.29,266.49s-12.76,10.39-11.76,19.64l13.55,6.31s-10.82-4.08-10.79-8.07S386.47,272.69,390.29,266.49Z"/><path class="cls-3" d="M378.56,286.21s6.7,3.25,19.55,1.24c0,0,5.29-1.94,13.14-.22,0,0-3.67,0-11.4,5.94,0,0-2.05,3-11.64,1.11C388.21,294.28,383.55,292.38,378.56,286.21Z"/><path class="cls-4" d="M400.34,292.16s3.7-6,9.69-4.75C410,287.41,406.9,290.57,400.34,292.16Z"/></g></g></svg>