<?xml version="1.0" encoding="utf-8"?>
<!-- Generator: Adobe Illustrator 25.4.1, SVG Export Plug-In . SVG Version: 6.00 Build 0)  -->
<svg version="1.1" id="Layer_1" xmlns="http://www.w3.org/2000/svg" xmlns:xlink="http://www.w3.org/1999/xlink" x="0px" y="0px"
	 viewBox="0 0 837.3 1537" style="enable-background:new 0 0 837.3 1537;" xml:space="preserve">
<style type="text/css">
	.st0{fill:none;}
	.st1{fill-rule:evenodd;clip-rule:evenodd;fill:#815E43;}
	.st2{fill-rule:evenodd;clip-rule:evenodd;fill:#4C2C20;}
	.st3{fill-rule:evenodd;clip-rule:evenodd;fill:url(#SVGID_1_);}
	.st4{fill-rule:evenodd;clip-rule:evenodd;fill:url(#SVGID_00000070116303714058750850000002068106876557060263_);}
	.st5{fill-rule:evenodd;clip-rule:evenodd;fill:url(#SVGID_00000026148990365048238450000005128857915054094209_);}
	.st6{fill-rule:evenodd;clip-rule:evenodd;fill:url(#SVGID_00000046329367140876505320000008728862103028473252_);}
</style>
<g id="Layer_2_00000178182688410927195140000003259018428078806428_">
	<g id="base">
		<rect class="st0" width="837.3" height="1537"/>
	</g>
	<g id="R_arm_01">
		<path class="st1" d="M317.1,644.5c-3.3,7.8-6.2,15.7-8.7,23.8c0,0-11.7,29.1-48.6,16.6s-27.2-56.3-27.2-56.3l7.7-19.4
			c0,0,10-19,7.6-28.9c-4.9-20.8-8.4-46.3-7.6-58.5s8.9-27.5,11-33.5c-1.1-29.4,10.1-36.7,10.1-36.7c70.9-59,93.8,51.2,93.8,51.2
			S355.2,559.8,317.1,644.5z"/>
		<path class="st1" d="M215.1,729.5c-17-13.6-39.5,2.9-40.1,3.2c0,0-17.5-8.9-27.5-9.5s-28.6,15.7-28.6,15.7l0,0
			c-0.5,0.4-23.5,18.9-36.8,26.1c0,0,6.1,10.2,22.2,12.5s28.4-19.9,28.4-19.9v-0.1v0.1l7.6,8.4c-13.5,5.9-20.6,8.2-35.7,17.3
			c-7.2,4.4-14,8.8-20.3,13.2c0,0-1.1,3.2-0.1,8.9s11,12.5,11,12.5l7.3,1.5c0,0-2.2,1,0.3,5.6s16.6,14.6,16.6,14.6
			c2,2.8,4.4,5.2,7.1,7.3c5,4,8.4,4.3,14.2,9.3s8.5,6.6,12,7.2c0.9,0.2,3.5-1.3,7.3-4.5c12-10,28.3-31,48.3-73.9
			c5.7-7.5,4.4-6.2,10.1-12.8C217.9,768,232.1,743.1,215.1,729.5z"/>
		<path class="st2" d="M119.6,839.4c0,0,20.2-11.8,29.5-19.7c0,0-15.1,17.2-26.3,23.4C122.9,843.2,120.7,842.6,119.6,839.4z"/>
		<path class="st2" d="M137,853.1c0,0,10.2-4.3,22-15.9c0,0-13.9,16.7-18.1,18.9L137,853.1z"/>
		
			<linearGradient id="SVGID_1_" gradientUnits="userSpaceOnUse" x1="-84.5527" y1="1236.2629" x2="-84.5527" y2="1284.7552" gradientTransform="matrix(0.7509 0.6604 0.6604 -0.7509 -637.7529 1819.6594)">
			<stop  offset="0" style="stop-color:#583521"/>
			<stop  offset="1" style="stop-color:#815E43"/>
		</linearGradient>
		<path class="st3" d="M103.1,824.8c0,0,27.9-15.2,38.5-26.5c1.8-1.9,11.4,5.9,11.4,5.9c2,2.3,5.4,7.4,3,9.3
			c-7.9,6.3-22.2,24-35.5,26.6"/>
		
			<linearGradient id="SVGID_00000099629459729470884320000015450208421760637846_" gradientUnits="userSpaceOnUse" x1="-61.8839" y1="1236.2721" x2="-61.8839" y2="1274.4817" gradientTransform="matrix(0.7509 0.6604 0.6604 -0.7509 -637.7529 1819.6594)">
			<stop  offset="0" style="stop-color:#583521"/>
			<stop  offset="1" style="stop-color:#815E43"/>
		</linearGradient>
		<path style="fill-rule:evenodd;clip-rule:evenodd;fill:url(#SVGID_00000099629459729470884320000015450208421760637846_);" d="
			M123.6,842.9c0,0,16.2-11.8,26.9-23.1c1.8-1.9,11.4,5.9,11.4,5.9c2,2.5,1.9,6-0.1,8.5c-8.1,9.2-16.2,13.9-23.8,19.4"/>
		
			<linearGradient id="SVGID_00000128481436785034452030000010670196216492386949_" gradientUnits="userSpaceOnUse" x1="-42.5245" y1="1237.4822" x2="-42.5245" y2="1270.5322" gradientTransform="matrix(0.7509 0.6604 0.6604 -0.7509 -637.7529 1819.6594)">
			<stop  offset="0" style="stop-color:#583521"/>
			<stop  offset="1" style="stop-color:#815E43"/>
		</linearGradient>
		<path style="fill-rule:evenodd;clip-rule:evenodd;fill:url(#SVGID_00000128481436785034452030000010670196216492386949_);" d="
			M140.1,855.8c8.1-6,15.7-12.7,22.7-20c1.8-1.9,7.9,2.8,7.9,2.8c2,2.3,3.9,8.1,1.8,10.4c-8.1,9.2-10.5,11.9-18,17.4"/>
		<path class="st2" d="M102.8,819.3c0,0,19.1-9.6,29-16.7c0,0-16.2,17.8-28.7,22.3C101.7,823.3,101.6,821,102.8,819.3z"/>
		<path class="st2" d="M100.6,785.7c0,0,1.2,5,14.7,2.2c0,0-4.1,5.2-17.7,6C97.6,793.9,92.5,790.9,100.6,785.7z"/>
		
			<linearGradient id="SVGID_00000076583458741419378650000012866361624175174838_" gradientUnits="userSpaceOnUse" x1="-113.3158" y1="1235.8018" x2="-113.3158" y2="1281.6188" gradientTransform="matrix(0.7509 0.6604 0.6604 -0.7509 -637.7529 1819.6594)">
			<stop  offset="0" style="stop-color:#583521"/>
			<stop  offset="1" style="stop-color:#815E43"/>
		</linearGradient>
		<path style="fill-rule:evenodd;clip-rule:evenodd;fill:url(#SVGID_00000076583458741419378650000012866361624175174838_);" d="
			M95.1,789.2c0,0,14.5,3.8,25.4-4.2c2-1.6,4.9-1.3,6.6,0.7l5.7,7.6c2,2.3,2.8,7.2,0.1,8.7c-8.8,4.8-18.5,12.6-30.2,17.4l-7.3-1.5
			c0,0-15.6-7.7-10.9-21.5"/>
		<path class="st2" d="M278.4,547c-1,11.8,2,10.9-11.6,34.4c0,0,14-33.3,1.8-69.5C268.6,511.9,279.5,535.2,278.4,547z"/>
		<path class="st1" d="M236.3,617.6c0,0-23.1,18.8-28.3,32.2c-2,5.2-5.4,17.7-9.5,31.6c-6.6,21.9-15.1,47-23.3,51.2
			c0,0-10.1,26.5,1.7,37.6c17.5,16.6,37.5,6.9,41.8,1.8c33.7-40.4,68.8-68.7,83.7-92.1c2.9-4.4,5.1-9.2,6.7-14.2
			C309,665.7,322.8,602,236.3,617.6z"/>
		<path class="st2" d="M228.6,663.2c-6.6,10.2-3.8,9.4-25.5,29.9c0,0,26.8-29,35.3-60.3C238.3,632.8,235.1,652.9,228.6,663.2z"/>
	</g>
</g>
</svg>
