<svg xmlns="http://www.w3.org/2000/svg" xmlns:xlink="http://www.w3.org/1999/xlink" viewBox="0 0 837.33 1537"><defs><style>.cls-1{fill:none;}.cls-10,.cls-2,.cls-3,.cls-4,.cls-5,.cls-6,.cls-7,.cls-8,.cls-9{fill-rule:evenodd;}.cls-2{fill:url(#Áåçûìÿííûé_ãðàäèåíò_100);}.cls-3{fill:url(#Áåçûìÿííûé_ãðàäèåíò_100-2);}.cls-4{fill:url(#Áåçûìÿííûé_ãðàäèåíò_100-3);}.cls-5{fill:url(#Áåçûìÿííûé_ãðàäèåíò_100-4);}.cls-6{fill:url(#Áåçûìÿííûé_ãðàäèåíò_100-5);}.cls-7{fill:url(#Áåçûìÿííûé_ãðàäèåíò_100-6);}.cls-8{fill:url(#Áåçûìÿííûé_ãðàäèåíò_100-7);}.cls-9{fill:url(#Áåçûìÿííûé_ãðàäèåíò_100-8);}.cls-10{fill:url(#Áåçûìÿííûé_ãðàäèåíò_100-9);}</style><linearGradient id="Áåçûìÿííûé_ãðàäèåíò_100" x1="455.32" y1="1462.34" x2="470.4" y2="1337.65" gradientUnits="userSpaceOnUse"><stop offset="0" stop-color="#ffa486"/><stop offset="1" stop-color="#ffb886"/></linearGradient><linearGradient id="Áåçûìÿííûé_ãðàäèåíò_100-2" x1="273.22" y1="1483.82" x2="289.62" y2="1348.25" xlink:href="#Áåçûìÿííûé_ãðàäèåíò_100"/><linearGradient id="Áåçûìÿííûé_ãðàäèåíò_100-3" x1="277.83" y1="1406.13" x2="291.74" y2="1291.2" xlink:href="#Áåçûìÿííûé_ãðàäèåíò_100"/><linearGradient id="Áåçûìÿííûé_ãðàäèåíò_100-4" x1="519.62" y1="1492.94" x2="535.46" y2="1362.02" xlink:href="#Áåçûìÿííûé_ãðàäèåíò_100"/><linearGradient id="Áåçûìÿííûé_ãðàäèåíò_100-5" x1="928.84" y1="1319.8" x2="928.51" y2="1296.28" gradientTransform="matrix(8.52, 4.98, 2.75, -4.71, -11183.47, 2521.47)" xlink:href="#Áåçûìÿííûé_ãðàäèåíò_100"/><linearGradient id="Áåçûìÿííûé_ãðàäèåíò_100-6" x1="929.59" y1="1283.76" x2="929.26" y2="1260.24" gradientTransform="matrix(-4.65, -1.15, -1.01, 4.06, 5929.49, -2865.6)" xlink:href="#Áåçûìÿííûé_ãðàäèåíò_100"/><linearGradient id="Áåçûìÿííûé_ãðàäèåíò_100-7" x1="932.81" y1="1327.62" x2="932.48" y2="1304.11" gradientTransform="matrix(-8.52, 4.98, -2.75, -4.71, 12079.41, 2521.47)" xlink:href="#Áåçûìÿííûé_ãðàäèåíò_100"/><linearGradient id="Áåçûìÿííûé_ãðàäèåíò_100-8" x1="918.83" y1="1259.34" x2="918.5" y2="1235.83" gradientTransform="matrix(6.99, 2.12, 1.37, -4.51, -7611, 4913.12)" xlink:href="#Áåçûìÿííûé_ãðàäèåíò_100"/><linearGradient id="Áåçûìÿííûé_ãðàäèåíò_100-9" x1="351.45" y1="1440.53" x2="366.97" y2="1312.2" xlink:href="#Áåçûìÿííûé_ãðàäèåíò_100"/></defs><g id="Layer_2" data-name="Layer 2"><g id="base"><rect class="cls-1" width="837.33" height="1537"/></g><g id="Legs_01"><path class="cls-2" d="M508.89,1158.43c4.11,7,18.53,31.63,49.28,22.84s29.76-32.5,30.75-34.84c-4.06-16-7.76-30.38-9.36-40.28-4.07-25.28-.79-123.35-19.8-180.57,0-.19-.14-.39-.19-.59-7.74-23-15.48-51.71-21.5-77.85-9.67-42-44.94-29.62-66-23.94-21.94,5.9-32.6,27.65-37.13,38-5.89,13.41-4.5,28-4.5,28s5.86,32,7.86,39.69c8.72,33.27,32.24,123.26,37.19,141.48,6.12,22.44,35.12,76.72,34.73,80.83C510.1,1152,509.62,1154.56,508.89,1158.43Z"/><path class="cls-3" d="M351.56,1128.63c.06-7.1-25.66-11.84-48.66-8-25.79,4.26-34.28,29.33-34.28,29.33-13.72,67.8-14.15,92.22-21.1,120-2.16,8.62-3.53,13.47-3.53,13.47l-12.56,80.83c9.42,65.44,58.23,30.4,70.79-6.24,2.83-4.43,26.12-67.28,26.17-67.38,2.89-6,18.25-40.15,20.6-46.76,14.16-39.64,16.81-50.75,16.46-63.68C365.06,1163.06,351.56,1128.63,351.56,1128.63Z"/><path class="cls-4" d="M404.78,863.7c-1.64-26.77-1.92-26.75-6.3-38.47-9.25-24.76-47.62-34.73-65.38-26.86-22.4,9.94-25.09,34.13-36.45,65.78-7.79,21.8-15.14,51-21,78.82-7.3,34.78-12.35,67.46-13.28,80.83-.29,4.31-2.89,43.81-2.6,49.79,1.47,27.48,8.86,76.33,8.86,76.33,1.3,10,8.59,30.23,19.34,36.43s31.24,4.53,37.51,4c14.11-1.26,25.75-17,29.71-28.4s-3.62-33.29-3.62-33.29c.29-37.28,22.53-117.16,32.18-151.21,14.06-49.77,17.84-88.33,17.84-88.33S405.26,871.59,404.78,863.7Z"/><path class="cls-5" d="M542.61,1119.24c-17.89,3.11-31.61,25.43-32.44,31.58a1.5,1.5,0,0,1,0,.35c-.44,4.07-11.86,58.35-11.86,80.83s17.15,82.45,17.15,82.45l5.35,51.75s-.54,32.62,23.23,32.8c32.85.24,36.6-52.1,36.6-52.1s13.55-58.62,14.58-65.24c2.25-14.15,10.47-32.22,8.81-57.84-1.86-28.53-8.41-50.1-15.3-78.06C583.31,1124,564.66,1115.41,542.61,1119.24Z"/><path class="cls-6" d="M339.63,979.09c-6.34,22.54-1.68,19.59-30.46,69.08,0,0,33.45-68,31.11-130.75C340.28,917.42,346,956.56,339.63,979.09Z"/><path class="cls-7" d="M319.43,1238.16c1.41-17.57-.69-14.22,9.86-56.89,0,0-11.44,57-5.39,100.39C323.9,1281.66,318,1255.74,319.43,1238.16Z"/><path class="cls-8" d="M501,962c6.34,22.54,1.68,19.59,30.46,69.08,0,0-33.46-68-31.11-130.75C500.3,900.36,494.62,939.49,501,962Z"/><path class="cls-9" d="M530.42,1223.39c-1.5,20,1.52,16.51-12.77,63.91,0,0,15.13-63.76,4.57-114.82C522.22,1172.48,531.92,1203.37,530.42,1223.39Z"/><path class="cls-10" d="M430.69,890.7l.26-.12c12.62-4.8,26-6.21,39.17-8.52,0,0,89.68,10.75,64.79-44.55l-12.47-61.93-3.09-10.43L513.42,745c-29.78,12.24-179.54,4.35-179.54,4.35s-4.14,13.9-10.33,33.67c-4,12.18-9.51,28.88-14.33,45.27-5.29,18-.7,25.93,10,38.61s37.25,4.6,48.91,14.86c9.89,8.72,33.46,7.36,33.46,7.36l28.83.08S430.51,889.73,430.69,890.7Z"/></g></g></svg>