<svg xmlns="http://www.w3.org/2000/svg" xmlns:xlink="http://www.w3.org/1999/xlink" viewBox="0 0 837.97 1536.05"><defs><style>.cls-1{fill:none;}.cls-2{fill:url(#linear-gradient);}.cls-3{fill:#c6c2c2;opacity:0.61;}.cls-4,.cls-5{fill:#231f20;}.cls-5{opacity:0.73;}</style><linearGradient id="linear-gradient" x1="355.85" y1="318.64" x2="499.47" y2="318.64" gradientUnits="userSpaceOnUse"><stop offset="0" stop-color="#8fa0a1"/><stop offset="1" stop-color="#94a0a1"/></linearGradient></defs><g id="Layer_2" data-name="Layer 2"><g id="base"><rect class="cls-1" x="0.32" width="837.33" height="1536.05"/></g><g id="Layer_40" data-name="Layer 40"><path class="cls-2" d="M357.55,306.42s-5-39.09,2.13-47.61c13.35,7.53,30.05,18.79,37.52,22.1,10.94-2.61,71.74-13.43,71.74-13.43l.46,2.31,5.59,28s19.87.21,22.34-.8c9.46-3.9-10.58,66.57-96.38,81.52-15.39-2-23.32-14.19-30.79-24.28C361.41,342.35,360.65,329.16,357.55,306.42Z"/><path class="cls-3" d="M401.38,377.15s-17.52-15.74-8.55-55.61c0,0-1.49,41.84,17.3,53.08Z"/><polygon class="cls-4" points="359.68 258.81 364.78 258.49 394.64 278.02 471.27 266.72 474.99 297.75 469.43 272.09 393.3 285.21 359.68 258.81"/><polygon class="cls-5" points="489.59 297.51 469.96 321.48 445.4 340.17 471.55 323.41 471.65 323.35 471.79 323.2 494.87 297.24 489.59 297.51"/><polygon class="cls-5" points="463.13 321.65 463.27 321.49 485.06 297.65 479.17 297.71 461.44 319.78 436.88 338.46 463.04 321.71 463.13 321.65"/><polygon class="cls-5" points="453.97 320.13 454.07 320.07 454.21 319.91 474.97 297.44 473.68 290.4 452.37 318.2 427.82 336.88 453.97 320.13"/><path class="cls-5" d="M360.36,326.91l.18,1.16,7.53,5.13Z"/><path class="cls-5" d="M359.17,318.69c.1.74.2,1.46.3,2.18l14.45,9.85Z"/><path class="cls-5" d="M359.29,314.07l.07.05,20.82,14.19-19.92-16.24-2.39-3.26c.19,1.47.38,2.89.56,4.28l.73.84Z"/></g></g></svg>