<?xml version="1.0" encoding="utf-8"?>
<!-- Generator: Adobe Illustrator 25.4.1, SVG Export Plug-In . SVG Version: 6.00 Build 0)  -->
<svg version="1.1" id="Layer_1" xmlns="http://www.w3.org/2000/svg" xmlns:xlink="http://www.w3.org/1999/xlink" x="0px" y="0px"
	 viewBox="0 0 837.3 1537" style="enable-background:new 0 0 837.3 1537;" xml:space="preserve">
<style type="text/css">
	.st0{fill:none;}
	.st1{opacity:0.51;fill:#685A59;enable-background:new    ;}
	.st2{opacity:0.63;}
	.st3{fill:#685A59;}
	.st4{fill:url(#SVGID_1_);}
	.st5{opacity:0.6;fill:#D177B8;enable-background:new    ;}
	.st6{fill:#0D0E11;}
	.st7{opacity:0.46;fill:#AA9996;enable-background:new    ;}
	.st8{opacity:0.62;fill:#685A59;enable-background:new    ;}
	.st9{opacity:0.33;fill:#AA9996;enable-background:new    ;}
	.st10{clip-path:url(#SVGID_00000171689956763358869180000013774066873327384995_);}
	.st11{fill:url(#SVGID_00000013911959416954253490000009872257192135921543_);}
	.st12{fill:url(#SVGID_00000121254206246383237740000007361450189938085762_);}
	.st13{fill:url(#SVGID_00000114039204815616079280000017772081408983792047_);}
	.st14{fill:url(#SVGID_00000006703088581498218660000015414525231568600225_);}
	.st15{fill:#FFFFFF;}
	.st16{opacity:0.6;fill:#B42F97;enable-background:new    ;}
	.st17{fill:#270039;}
</style>
<g>
	<g id="Layer_2_00000122713375953607793030000013575967401290002363_">
		<g id="base">
			<rect class="st0" width="837.3" height="1537"/>
		</g>
		<g id="Eyes_04">
			<path class="st1" d="M438.9,201.3c-2.8,24.2-1.9,48.7,2.6,72.6C442.1,266.4,444.9,253,438.9,201.3z"/>
			<g class="st2">
				<path class="st3" d="M438.9,201.3l1,9l0.8,9.1c0.5,6,0.9,12.1,1.2,18.1c0.3,6.1,0.5,12.1,0.5,18.2c0,3-0.1,6.1-0.2,9.1l-0.3,4.5
					c-0.1,1.5-0.3,3-0.5,4.5c0.1-1.5,0.2-3,0.3-4.5l0.1-4.5c0-3,0-6.1-0.1-9.1c-0.1-6.1-0.3-12.1-0.7-18.2
					c-0.3-6.1-0.7-12.1-1.1-18.1L438.9,201.3z"/>
			</g>
			
				<linearGradient id="SVGID_1_" gradientUnits="userSpaceOnUse" x1="-291.62" y1="1311.7162" x2="-254.3899" y2="1311.7162" gradientTransform="matrix(-1 0 0 -1 108.26 1538)">
				<stop  offset="0" style="stop-color:#430027"/>
				<stop  offset="1" style="stop-color:#560029"/>
			</linearGradient>
			<path class="st4" d="M396.7,234.2c1.6-3.3,2.7-6.7,3.1-10.1l-2.2-0.9c0,0-0.3,5-3.2,8.3c1-2.7,1.7-5.5,2.1-8.3c0,0-8.9-3-15.8-4
				c-2.7-0.3-5.4,0-7.9,0.7c-1,0.3-2,0.7-2.8,1.2l0.9-2.7c0,0-11.4,4.4-7.4,14.6c0,0,6.8-2.9,10-3.3
				C378.7,229.2,389.6,231.8,396.7,234.2z"/>
			<path class="st5" d="M392.7,232.9c0,0,0.8-7.3-1-10.4c0.4,2.4,0.4,4.9,0,7.3c0,0-4.3-7.2-9.3-8.7l14.1,2.1c0,0-0.8,5.6-2.1,8.3
				c0,0,2.4-1.7,3.2-8.3l2.2,0.9c-0.3,3.5-1.4,6.9-3.1,10.1L392.7,232.9z"/>
			<path class="st6" d="M513.2,219.4l-20.9,2.1l-26.5,0.7c-0.4-2.3-7-3.4-7-3.4l-40.3,2.1l-27.2-7.1L359,202.7l-1.1,3.3
				c-0.2,1.2-0.3,2.4-0.3,3.6l31.6,10.8l27.4,7.2c-0.8,11.1,0.4,32.4,20.3,32.5c26.6,0.1,30.2-18.6,29.7-30.9l26.1-0.7l20.5-2.1
				c0.1-1.8,0.2-3.6,0.2-5.4L513.2,219.4z"/>
			<path class="st7" d="M392.7,253c-0.2,1.2-2.5,1.6-2.5,1.6c1.2-1,1.8-2.7,1.8-4.6C392,250.1,392.9,251.7,392.7,253z"/>
			<path class="st8" d="M366.2,251.1c0,0,2.2,5.1,8.8,5.9c9,1.1,15.1-2.4,15.1-2.4C374.3,256.8,366.2,251.1,366.2,251.1z"/>
			<path class="st9" d="M366.9,241.3c0,0,3.4-7.1,11.6-6.1s11.7,10.9,11.7,10.9C381.8,236.5,366.9,241.3,366.9,241.3z"/>
			<g>
				<g>
					<defs>
						<path id="SVGID_00000060003139108834376080000010306392544722970022_" d="M390.2,254.6c0,0-8.2,1-12.1,0.5
							c-4.2-0.5-10.4-2.8-11.8-4s-1.7-5.9-1.1-7c0,0,6.2-2.9,14.5-1.9s11.3,5.2,11.3,5.2s1,2.2,1,2.7
							C391.9,250.6,391.9,253.4,390.2,254.6z"/>
					</defs>
					<clipPath id="SVGID_00000154403583740035392970000006539075114092564626_">
						<use xlink:href="#SVGID_00000060003139108834376080000010306392544722970022_"  style="overflow:visible;"/>
					</clipPath>
					<g style="clip-path:url(#SVGID_00000154403583740035392970000006539075114092564626_);">
						
							<linearGradient id="SVGID_00000176729890390955811360000013138081759066676108_" gradientUnits="userSpaceOnUse" x1="-214.2868" y1="218.1912" x2="-214.2868" y2="200.6136" gradientTransform="matrix(-1 0 0 1 164.1946 38)">
							<stop  offset="0" style="stop-color:#EEE2FF"/>
							<stop  offset="1" style="stop-color:#BDC9FB"/>
						</linearGradient>
						<path style="fill:url(#SVGID_00000176729890390955811360000013138081759066676108_);" d="M378.5,239c-8-1.5-13.2,1.5-13.7,6.7
							s3.4,9.3,10.8,10.2c7.6,1,16.5-0.7,16.6-3.2C392.4,246.8,387.2,240.6,378.5,239z"/>
						
							<linearGradient id="SVGID_00000070835028621087715560000006041827181754559369_" gradientUnits="userSpaceOnUse" x1="-215.6054" y1="218.8" x2="-215.6054" y2="201.2" gradientTransform="matrix(-1 0 0 1 164.1946 38)">
							<stop  offset="0" style="stop-color:#4D0E2E"/>
							<stop  offset="1" style="stop-color:#36063B"/>
						</linearGradient>
						
							<ellipse style="fill:url(#SVGID_00000070835028621087715560000006041827181754559369_);" cx="379.8" cy="248" rx="6.8" ry="8.8"/>
						
							<linearGradient id="SVGID_00000074407731960376231690000014664233385152320426_" gradientUnits="userSpaceOnUse" x1="-215.6054" y1="218.3" x2="-215.6054" y2="201.72" gradientTransform="matrix(-1 0 0 1 164.1946 38)">
							<stop  offset="0" style="stop-color:#4D0E2E"/>
							<stop  offset="1" style="stop-color:#36063B"/>
						</linearGradient>
						
							<ellipse style="fill:url(#SVGID_00000074407731960376231690000014664233385152320426_);" cx="379.8" cy="248" rx="6.4" ry="8.3"/>
						
							<linearGradient id="SVGID_00000018211100957425120890000016200889261726576062_" gradientUnits="userSpaceOnUse" x1="-215.6054" y1="215.38" x2="-215.6054" y2="204.62" gradientTransform="matrix(-1 0 0 1 164.1946 38)">
							<stop  offset="0" style="stop-color:#A79ABD"/>
							<stop  offset="0.99" style="stop-color:#724A60"/>
						</linearGradient>
						
							<ellipse style="fill:url(#SVGID_00000018211100957425120890000016200889261726576062_);" cx="379.8" cy="248" rx="4.1" ry="5.4"/>
						<path class="st15" d="M368.5,245.3c-0.2,0.2,0.6,1,2.2,1.5c1.7,0.6,4.1,0.5,3.6,0.1C372.5,245.8,370.5,245.2,368.5,245.3z"/>
						<path class="st15" d="M375.9,248.2c0.4,0.1,1.2-0.2,1.2-0.5s-0.8-0.6-1.5-0.4C375.2,247.3,375.5,248,375.9,248.2z"/>
						<path class="st16" d="M377.1,240.2c-11.2,0-12,3.9-12,3.9l-0.2,0.9c16-6.6,26.6,3.7,26.6,3.7S388.3,240.2,377.1,240.2z"/>
					</g>
				</g>
			</g>
			<path class="st17" d="M365.4,241.8c-0.4,0.5-0.3,2.3-0.3,2.3s4.3-2.6,13.4-2s12.5,5.3,12.5,5.3
				C384.2,234.6,365.8,241.3,365.4,241.8z"/>
		</g>
	</g>
</g>
</svg>
