<svg xmlns="http://www.w3.org/2000/svg" xmlns:xlink="http://www.w3.org/1999/xlink" viewBox="0 0 837.97 1536.05"><defs><style>.cls-1{fill:none;}.cls-2,.cls-3{isolation:isolate;}.cls-3{fill:#605b55;opacity:0.63;}.cls-10,.cls-3,.cls-5,.cls-6,.cls-7,.cls-8{fill-rule:evenodd;}.cls-4{clip-path:url(#clip-path);}.cls-5{fill:#fff4c9;}.cls-6{fill:url(#linear-gradient);}.cls-7{fill:#030f3a;}.cls-8{fill:#fff;}.cls-9{clip-path:url(#clip-path-2);}.cls-10{fill:url(#linear-gradient-2);}.cls-11{fill:url(#linear-gradient-3);}.cls-12,.cls-13{mix-blend-mode:multiply;opacity:0.6;}.cls-12{fill:url(#Áåçûìÿííûé_ãðàäèåíò_123);}.cls-13{fill:url(#Áåçûìÿííûé_ãðàäèåíò_123-2);}.cls-14{fill:url(#linear-gradient-4);}.cls-15{fill:#0d0e11;}.cls-16,.cls-17{opacity:0.95;}.cls-16{fill:url(#linear-gradient-5);}.cls-17{fill:url(#linear-gradient-6);}</style><clipPath id="clip-path"><path class="cls-1" d="M365.36,244.21s7.76-7.32,17.95-5.13c9,2,8.49,11.09,8.49,11.09l-.85,7.22s-22.31-3.45-25.71-10.35C365.24,247,364.51,244.84,365.36,244.21Z"/></clipPath><linearGradient id="linear-gradient" x1="382.78" y1="3863.56" x2="382.78" y2="3843.87" gradientTransform="translate(0 -3608)" gradientUnits="userSpaceOnUse"><stop offset="0.04" stop-color="#0086aa"/><stop offset="1" stop-color="#003794"/></linearGradient><clipPath id="clip-path-2"><path class="cls-1" d="M429.65,254.88l-1.36-7.32s1-7,4.92-8.69,7.32-3.34,13.91-2.72,16.22,3.46,18,5.55,0,3,0,3a44.39,44.39,0,0,1-17.58,7.54C437.6,253.94,429.65,254.88,429.65,254.88Z"/></clipPath><linearGradient id="linear-gradient-2" x1="447.54" y1="3859.38" x2="447.54" y2="3841.7" xlink:href="#linear-gradient"/><linearGradient id="linear-gradient-3" x1="353.16" y1="219.58" x2="397.97" y2="219.58" gradientTransform="matrix(-0.81, -0.12, -0.16, 1.08, 714.59, 36.2)" gradientUnits="userSpaceOnUse"><stop offset="0" stop-color="#0f0011"/><stop offset="1" stop-color="#38302e"/></linearGradient><linearGradient id="Áåçûìÿííûé_ãðàäèåíò_123" x1="384.8" y1="219.58" x2="397.97" y2="219.58" gradientTransform="matrix(-0.81, -0.12, -0.16, 1.08, 714.59, 36.2)" gradientUnits="userSpaceOnUse"><stop offset="0" stop-color="#ffeadb"/><stop offset="0.99" stop-color="#d177f4"/></linearGradient><linearGradient id="Áåçûìÿííûé_ãðàäèåíò_123-2" x1="453.44" y1="229.92" x2="466.61" y2="229.92" gradientTransform="matrix(1.04, -0.15, 0.16, 1.08, -54.11, 48.4)" xlink:href="#Áåçûìÿííûé_ãðàäèåíò_123"/><linearGradient id="linear-gradient-4" x1="421.8" y1="229.92" x2="466.61" y2="229.92" gradientTransform="matrix(1.04, -0.15, 0.16, 1.08, -54.11, 48.4)" xlink:href="#linear-gradient-3"/><linearGradient id="linear-gradient-5" x1="370.33" y1="239.5" x2="392.77" y2="252.63" gradientUnits="userSpaceOnUse"><stop offset="0" stop-color="#024e6a" stop-opacity="0.74"/><stop offset="0.51" stop-color="#fff" stop-opacity="0.74"/><stop offset="0.99" stop-color="#105872" stop-opacity="0.74"/></linearGradient><linearGradient id="linear-gradient-6" x1="427.85" y1="233.92" x2="456.89" y2="253.28" xlink:href="#linear-gradient-5"/></defs><g class="cls-2"><g id="Layer_2" data-name="Layer 2"><g id="base"><rect class="cls-1" x="0.32" width="837.33" height="1536.05"/></g><g id="eyes_08"><path class="cls-3" d="M391.8,250.17s1.7-5.65.73-8.47-3.52-6.28-10.92-6.59c-7-.21-13.58,3.35-16.25,9.1,0,0,9.22-7.85,18.68-4.92C391.68,241.59,391.07,247.35,391.8,250.17Z"/><path class="cls-3" d="M428.29,247.56s-2.41-5.65-.94-8.48,4.92-6.27,15.17-6.59,19.25,3.66,22.6,9.1c0,0-12.87-7.84-26.16-4.91C428.5,239,429.23,244.73,428.29,247.56Z"/><g class="cls-4"><path class="cls-5" d="M365.24,247c7.15,8.57,20.74,9.31,25.71,10.35,1.58-6,2.3-18-6.55-20.92a14.61,14.61,0,0,0-3.64-.73h0a16.58,16.58,0,0,0-13.22,5.44C365.6,243.16,364.15,245.88,365.24,247Z"/><path class="cls-6" d="M391.68,250.17a9.32,9.32,0,0,1-8.25,5.44c-5.34,0-9.7-5-9.7-11.3,0-4.6,2.3-6.38,5.7-8.16h0c3,.21,5.94-.94,8.25.53v.1a22.12,22.12,0,0,1,1.69,2.72s.13.11,0,.11a7.33,7.33,0,0,1,1.46,3.66A12.34,12.34,0,0,1,391.68,250.17Z"/><path class="cls-7" d="M391.19,244.31c0,4.19-2.91,7.43-6.42,7.43s-6.43-3.34-6.43-7.43,2.91-7.42,6.43-7.42a6.1,6.1,0,0,1,4.85,2.51s.12.1,0,.1a7.35,7.35,0,0,1,1.45,3.66A3.72,3.72,0,0,0,391.19,244.31Z"/><path class="cls-8" d="M376,244.73a2.33,2.33,0,1,1-2.3-2,2.16,2.16,0,0,1,2.3,2Z"/></g><g class="cls-9"><path class="cls-5" d="M465.43,244.42c-10,8.58-29.08,9.31-35.78,10.46-2.2-6-3.14-18,9.21-20.92a28,28,0,0,1,5-.74h.1a27.83,27.83,0,0,1,18.42,5.44C464.8,240.55,466.79,243.27,465.43,244.42Z"/><path class="cls-10" d="M458.84,240.13a11.3,11.3,0,1,1-22.6,0c0-4.6,1.57-4.6,5.65-6.38,0,0,4.19.52,4.19.42,6.59.41,9.2-.53,12.24,3A6.9,6.9,0,0,1,458.84,240.13Z"/><path class="cls-7" d="M455.81,240.13a7.43,7.43,0,0,1-14.86,0h0c0-4.08,2.72-6.38,6.8-6.38S455.81,235.94,455.81,240.13Z"/><path class="cls-8" d="M438.54,242.12a2,2,0,1,1-2-2,1.92,1.92,0,0,1,2,2Z"/></g><path class="cls-11" d="M357.55,234.59s5.08-4.89,7.79-5.67h0c5.86-1.63,28.37,9.15,28.37,9.15s2-8.76,1.51-14.24l-.56-.08a37.89,37.89,0,0,1-.42,6.73s.05-5.73-.79-6.91c0,0-15.47-1.47-20.38-2.33l-2.67-.46-1-.18c-1.83-.33-2.31-.43-2.31-.43l.07-.47S362.36,224.07,357.55,234.59Z"/><path class="cls-12" d="M357.55,234.59s5.08-4.89,7.79-5.67h0a39.33,39.33,0,0,1,5.06-8.14l-1-.18c-2.54,2.26-7.41,8.58-7.41,8.58a53.2,53.2,0,0,1,5.17-9.48S362.36,224.07,357.55,234.59Z"/><path class="cls-13" d="M469.79,233.66s-6.33-4.71-9.78-5.37h0a36.11,36.11,0,0,0-6.17-8l1.27-.22c3.17,2.16,9.16,8.32,9.16,8.32-1.84-4.23-6.24-9.32-6.24-9.32S464.05,223.28,469.79,233.66Z"/><path class="cls-14" d="M469.79,233.66s-6.33-4.71-9.78-5.37h0c-7.47-1.39-36.87,10.4-36.87,10.4s-2.25-8.72-1.34-14.26l.72-.1s-.31,4.9.25,6.75c0,0,.19-5.76,1.31-7,0,0,20-2.14,26.31-3.2l3.45-.58,1.27-.22c2.37-.41,3-.53,3-.53l-.07-.47S464.05,223.28,469.79,233.66Z"/><path class="cls-15" d="M515.37,243.5l-47.29-11.93c-.38-2.28-7.05-3.36-7.05-3.36l-43.21,3.13L414,229.88a13.87,13.87,0,0,0-11.89.3l-2.45,1.06-37.28.53s-2.07,33.75,14.71,34.8c10.45.66,16.88-4.48,19-7.6,4-5.8,4-23.23,4-23.23l2-.81c4.35-1.76,6.93-1.48,11.28.26l3.71,1.48c-.77,11.16,7.32,32.35,22.8,32.35,26.58,0,29.23-21.22,28.73-33.58l42.93,9.32A35.1,35.1,0,0,1,515.37,243.5ZM394.89,258.44c-1.95,2.85-7.82,7.54-17.35,6.94-15.31-1-13.4-31.92-13.4-31.92l34.22-.5.43,4.1S398.52,253.15,394.89,258.44Zm45.41,9.17c-14.68,0-22.34-20.09-21.61-30.67l.71-5.06,41-3s6.32,1,6.69,3.19l.49,3.66C468,247.49,465.5,267.61,440.3,267.61Z"/><path class="cls-16" d="M398.36,233l-34.22.5s-1.91,31,13.4,31.92c9.53.6,15.4-4.09,17.35-6.94,3.63-5.29,3.9-21.38,3.9-21.38"/><path class="cls-17" d="M418.69,236.94c-.73,10.58,6.93,30.67,21.61,30.67,25.2,0,27.71-20.12,27.24-31.84l-.49-3.66c-.37-2.17-6.69-3.19-6.69-3.19l-41,3Z"/></g></g></g></svg>