<?xml version="1.0" encoding="utf-8"?>
<!-- Generator: Adobe Illustrator 25.4.1, SVG Export Plug-In . SVG Version: 6.00 Build 0)  -->
<svg version="1.1" id="Layer_1" xmlns="http://www.w3.org/2000/svg" xmlns:xlink="http://www.w3.org/1999/xlink" x="0px" y="0px"
	 viewBox="0 0 837.3 1537" style="enable-background:new 0 0 837.3 1537;" xml:space="preserve">
<style type="text/css">
	.st0{fill:none;}
	.st1{fill-rule:evenodd;clip-rule:evenodd;fill:#E2C7A1;}
	.st2{fill-rule:evenodd;clip-rule:evenodd;fill:#C69A6D;}
</style>
<g id="Layer_2_00000117643170482437440300000001918966316072033448_">
	<g id="base">
		<rect class="st0" width="837.3" height="1537"/>
	</g>
	<g id="feet_01">
		<path class="st1" d="M303.9,1410c0.9,14.1-11.4,25.6-11.4,25.6s-42.2,0.9-68.1,4c-1.7,0.2-3.3,0.4-4.7,0.6
			c-22.4,3.7-41.1,7.9-57,8.9s-50.5-1.2-70.4-21.8c0.7-3.9,1.8-7.7,3.2-11.3c2.3-6.3,6.3-11.8,11.6-16l31.1,3.2
			c0,0,16.6-6.6,26.5-11.8c4.1-2.2,18.3-10.8,22.3-12.7c26.4-12.5,44.3-14.4,44.3-14.4s9.6-18.2,35.9-15.2c23.6,2.7,27,27.9,27,27.9
			S303.2,1398.5,303.9,1410z"/>
		<path class="st1" d="M677.4,1454.9c-20.2,8.1-37.6,18.5-60,17.7c-19-0.7-38.2-16.7-44.8-19.1c0,0-35.5-6.5-38.8-8.4
			c-12-6.8-16.6-10.1-19.5-13.1s-6.5-14-5.9-18.2c1.3-8.9,13.6-36.5,13.6-36.5s7.9-14.6,25.2-17.6c24-4.1,29.5,12.1,29.5,12.1
			s10.4,9.9,21.5,14.4c10.7,4.3,39.5,29.4,50.3,35.4l29,14.2C678.3,1438.8,677.4,1454.9,677.4,1454.9z"/>
		<path class="st2" d="M96.8,1413c0,0,13.2-1.8,25.2,0.7c0,0-13.6-4.5-22.9-4.9C99.1,1408.9,97.8,1409.8,96.8,1413z"/>
		<path class="st2" d="M620,1440.4l9.9,3.8c0,0,0.6,19.3-3.7,28.1l0.5-25.5C626.8,1446.8,621.7,1442.1,620,1440.4z"/>
		<path class="st2" d="M634.9,1442l9.9,3.3c0,0,0.8,16.7-3.5,24.2l0.4-22C641.6,1447.5,636.6,1443.5,634.9,1442z"/>
		<path class="st2" d="M650.1,1441.2l8.2,2.8c0,0,0.5,13.9-3,20.3l1.4-18.4C656.8,1445.9,651.6,1442.5,650.1,1441.2z"/>
		<path class="st2" d="M661.7,1438.1l8.2,2.6c0,0,0.5,12.8-3,18.7l1.4-16.9C668.3,1442.4,663.1,1439.3,661.7,1438.1z"/>
	</g>
</g>
</svg>
