<svg xmlns="http://www.w3.org/2000/svg" xmlns:xlink="http://www.w3.org/1999/xlink" viewBox="0 0 837.33 1537"><defs><style>.cls-1{fill:none;}.cls-2,.cls-3,.cls-4{fill-rule:evenodd;}.cls-2{fill:url(#Áåçûìÿííûé_ãðàäèåíò_104);}.cls-3{fill:url(#Áåçûìÿííûé_ãðàäèåíò_23);}.cls-4{fill:#b85652;}</style><linearGradient id="Áåçûìÿííûé_ãðàäèåíò_104" x1="307.49" y1="536.1" x2="306.95" y2="497.42" gradientTransform="matrix(-0.95, 0.31, 0.31, 0.95, 519.64, -311.79)" gradientUnits="userSpaceOnUse"><stop offset="0" stop-color="#ff7f66"/><stop offset="1" stop-color="#ec887e"/></linearGradient><linearGradient id="Áåçûìÿííûé_ãðàäèåíò_23" x1="279.39" y1="551.03" x2="279.39" y2="535.74" gradientTransform="matrix(1.08, 0.44, -0.43, 1.05, 328.65, -406.8)" gradientUnits="userSpaceOnUse"><stop offset="0" stop-color="#ce595b"/><stop offset="1" stop-color="#d67261"/></linearGradient></defs><g id="Layer_2" data-name="Layer 2"><g id="base"><rect class="cls-1" width="837.33" height="1537"/></g><g id="nose_03"><path class="cls-2" d="M392.33,252.79a22.39,22.39,0,0,0-9,10.21c0,2.5-4.92,18.77-4.4,23.61l16.15,5.83s-13.41-3.61-13.38-7.6c0-6.08,3.45-12.23,4.05-21.34C387,258.76,391.55,255,392.33,252.79Z"/><path class="cls-3" d="M378.93,286.61s7.88,2.89,22.81.74c0,0,6.13-2.17,15.28-.12,0,0-4.27,0-13.2,6.67,0,0-2.35,3.35-13.53,1.14C390.29,295,384.79,293.7,378.93,286.61Z"/><path class="cls-4" d="M405,293.07S411,286,417,287.23A36.75,36.75,0,0,1,405,293.07Z"/></g></g></svg>