<?xml version="1.0" encoding="utf-8"?>
<!-- Generator: Adobe Illustrator 25.4.1, SVG Export Plug-In . SVG Version: 6.00 Build 0)  -->
<svg version="1.1" id="Layer_1" xmlns="http://www.w3.org/2000/svg" xmlns:xlink="http://www.w3.org/1999/xlink" x="0px" y="0px"
	 viewBox="0 0 837.3 1537" style="enable-background:new 0 0 837.3 1537;" xml:space="preserve">
<style type="text/css">
	.st0{fill:none;}
	.st1{fill:url(#SVGID_1_);}
	.st2{fill:#FFF4C9;}
</style>
<g id="Layer_2_00000150783929065688988080000008377359133097979810_">
	<g id="base">
		<rect class="st0" width="837.3" height="1537"/>
	</g>
	<g id="mouth_03">
		
			<linearGradient id="SVGID_1_" gradientUnits="userSpaceOnUse" x1="384.81" y1="1217.1769" x2="438.4942" y2="1217.1769" gradientTransform="matrix(1 0 0 -1 0 1538)">
			<stop  offset="0" style="stop-color:#CE595B"/>
			<stop  offset="1" style="stop-color:#D67261"/>
		</linearGradient>
		<path class="st1" d="M384.8,317.4c0.2,0.2,0.4,0.4,0.6,0.6c0.8,0.9,1.5,1.8,2.3,2.7l0.1,0.1l0.1-0.1c0.7-0.8,1.4-1.6,2.1-2.4
			c1.2-1.3,2.4-2.5,3.7-3.6c1.7-1.5,3.6-2.9,5.6-4.1c0.8-0.5,1.6-1,2.5-1.4s1.5-0.8,2.3-1.2s1.3-0.6,2-0.9l0.1-0.1l3.8-1.4
			c0,0,0.1,0,0.1,0l0.8-0.2c0.8-0.2,1.5-0.4,2.3-0.6c1.1-0.2,2.1-0.4,3.2-0.5c1.9-0.2,3.8-0.1,5.7,0.2c2.1,0.4,4.1,1.2,5.9,2.4
			c1,0.7,2,1.5,2.8,2.3c1.7,1.7,8.2,9.4,7.7,14.5s-2.8,8.9-3.4,11.4c0,0,0,0.1,0,0.1l-40.5,2.3l0,0l1.7-0.6c0-0.1-0.1-0.2-0.1-0.3
			c-0.3-0.7-0.5-1.3-0.8-2l-0.8-2l-0.8-2l-0.8-2c-0.3-0.7-0.5-1.3-0.8-2c-0.1-0.4-0.3-0.7-0.5-1.1c-0.1-0.2-0.1-0.4-0.2-0.6l1.4-0.2
			c0.5-0.1,0.9-0.1,1.4-0.2l-3.1-5.1c-1.2,1.3-2.2,2.6-3.3,4l-0.4-0.8c-0.2-0.5-0.5-1-0.8-1.5l-0.8-1.5l-0.9-1.8c0,0,0,0-0.1,0
			L384.8,317.4z M433.8,318.4c-0.2-0.5-0.3-1-0.5-1.5c-0.3-0.7-0.6-1.5-1-2.2c-0.7-1.4-1.5-2.7-2.5-3.9c-1-1.3-2.2-2.4-3.6-3.2
			c-1.2-0.7-2.5-1.3-3.9-1.6c-1.7-0.4-3.5-0.5-5.2-0.4c-1,0.1-2,0.2-3,0.4c-0.7,0.1-1.4,0.3-2.1,0.5s-1.3,0.3-2,0.5
			c-0.4,0.1-0.8,0.3-1.1,0.4c-1,0.4-1.9,0.7-2.9,1.1c-0.5,0.2-1,0.5-1.5,0.7l-0.9,0.4c-0.4,0.2-0.8,0.4-1.2,0.6
			c-0.6,0.4-1.3,0.7-1.9,1.1c-1.4,0.9-2.8,1.8-4.1,2.9c-0.8,0.7-1.6,1.3-2.4,2l-1,0.9l2.5,6.9l38.4-5.1
			C433.9,318.8,433.8,318.6,433.8,318.4L433.8,318.4z M393.8,325.8l0.9,2.6l0.4,1.2l1.1,3.2l1.1,3.2c0.1,0.2,0.1,0.4,0.2,0.6
			l35.8-2.8c0.1-0.4,0.2-0.8,0.2-1.2c0.3-1.6,0.5-3.3,0.7-4.9c0.1-1.4,0.2-2.8,0.1-4.1c-0.1-0.8-0.2-1.5-0.4-2.3c0,0,0,0,0-0.1
			l-40.2,4.4L393.8,325.8z"/>
		<path class="st2" d="M433.9,319c-0.1-0.2-0.1-0.4-0.2-0.6c-0.2-0.5-0.3-1-0.5-1.5c-0.3-0.7-0.6-1.5-1-2.2
			c-0.7-1.4-1.5-2.7-2.5-3.9c-1-1.3-2.2-2.4-3.6-3.2c-1.2-0.7-2.5-1.3-3.9-1.6c-1.7-0.4-3.5-0.5-5.2-0.4c-1,0.1-2,0.2-3,0.4
			c-0.7,0.1-1.4,0.3-2.1,0.5s-1.3,0.3-2,0.5c-0.4,0.1-0.8,0.3-1.1,0.4c-1,0.4-1.9,0.7-2.9,1.1c-0.5,0.2-1,0.5-1.5,0.7l-0.9,0.4
			c-0.4,0.2-0.8,0.4-1.2,0.6c-0.6,0.4-1.3,0.7-1.9,1.1c-1.4,0.9-2.8,1.8-4.1,2.9c-0.8,0.7-1.6,1.3-2.4,2l-1,0.9l2.5,6.9L433.9,319z"
			/>
		<path class="st2" d="M393.6,325.4l0.1,0.4l0.9,2.6l0.4,1.2l1.1,3.2l1.1,3.2c0.1,0.2,0.1,0.4,0.2,0.6l35.8-2.8
			c0.1-0.4,0.2-0.8,0.2-1.2c0.3-1.6,0.5-3.3,0.7-4.9c0.1-1.4,0.2-2.8,0.1-4.1c-0.1-0.8-0.2-1.5-0.4-2.3c0,0,0,0,0-0.1L393.6,325.4z"
			/>
	</g>
</g>
</svg>
