<svg xmlns="http://www.w3.org/2000/svg" xmlns:xlink="http://www.w3.org/1999/xlink" viewBox="0 0 837.33 1537"><defs><style>.cls-1{isolation:isolate;}.cls-2{fill:none;}.cls-3{fill:url(#Áåçûìÿííûé_ãðàäèåíò_300);}.cls-4{fill:#dd4c6a;}.cls-5{fill:url(#Áåçûìÿííûé_ãðàäèåíò_40);}.cls-6{fill:url(#Áåçûìÿííûé_ãðàäèåíò_40-2);}.cls-16,.cls-22,.cls-23,.cls-29,.cls-7,.cls-9{mix-blend-mode:multiply;}.cls-7{fill:url(#Áåçûìÿííûé_ãðàäèåíò_191);}.cls-8{fill:#fff;}.cls-9{fill:#b42f97;}.cls-23,.cls-9{opacity:0.6;}.cls-10{fill:url(#Áåçûìÿííûé_ãðàäèåíò_111);}.cls-11{fill:#ff9d8a;}.cls-12{fill:#270039;}.cls-13{fill:url(#Áåçûìÿííûé_ãðàäèåíò_300-2);}.cls-14{fill:url(#Áåçûìÿííûé_ãðàäèåíò_40-3);}.cls-15{fill:url(#Áåçûìÿííûé_ãðàäèåíò_40-4);}.cls-16{fill:url(#Áåçûìÿííûé_ãðàäèåíò_191-2);}.cls-17{fill:url(#Áåçûìÿííûé_ãðàäèåíò_111-2);}.cls-18{fill:url(#Áåçûìÿííûé_ãðàäèåíò_300-3);}.cls-19{fill:#880a2c;}.cls-20{fill:url(#Áåçûìÿííûé_ãðàäèåíò_182);}.cls-21{fill:url(#Áåçûìÿííûé_ãðàäèåíò_205);}.cls-22{fill:url(#Áåçûìÿííûé_ãðàäèåíò_191-3);}.cls-23{fill:#d177b8;}.cls-24{fill:#dd6668;}.cls-25{fill:#42003d;}.cls-26{fill:url(#Áåçûìÿííûé_ãðàäèåíò_300-4);}.cls-27{fill:url(#Áåçûìÿííûé_ãðàäèåíò_182-2);}.cls-28{fill:url(#Áåçûìÿííûé_ãðàäèåíò_205-2);}.cls-29{fill:url(#Áåçûìÿííûé_ãðàäèåíò_191-4);}.cls-30{fill:url(#Áåçûìÿííûé_ãðàäèåíò_505);}.cls-31{fill:url(#Áåçûìÿííûé_ãðàäèåíò_505-2);}</style><linearGradient id="Áåçûìÿííûé_ãðàäèåíò_300" x1="442.67" y1="255.19" x2="442.67" y2="237.6" gradientUnits="userSpaceOnUse"><stop offset="0" stop-color="#eee2ff"/><stop offset="1" stop-color="#bdc9fb"/></linearGradient><linearGradient id="Áåçûìÿííûé_ãðàäèåíò_40" x1="440.92" y1="255.8" x2="440.92" y2="238.2" gradientUnits="userSpaceOnUse"><stop offset="0" stop-color="#4d0e2e"/><stop offset="1" stop-color="#36063b"/></linearGradient><linearGradient id="Áåçûìÿííûé_ãðàäèåíò_40-2" x1="440.92" y1="255.29" x2="440.92" y2="238.71" xlink:href="#Áåçûìÿííûé_ãðàäèåíò_40"/><linearGradient id="Áåçûìÿííûé_ãðàäèåíò_191" x1="440.92" y1="252.38" x2="440.92" y2="241.62" gradientUnits="userSpaceOnUse"><stop offset="0" stop-color="#a79abd"/><stop offset="0.99" stop-color="#724a60"/></linearGradient><linearGradient id="Áåçûìÿííûé_ãðàäèåíò_111" x1="427.48" y1="253.17" x2="458.64" y2="253.17" gradientUnits="userSpaceOnUse"><stop offset="0" stop-color="#592c27"/><stop offset="0.98" stop-color="#814227"/></linearGradient><linearGradient id="Áåçûìÿííûé_ãðàäèåíò_300-2" x1="217.23" y1="256.01" x2="217.23" y2="238.43" gradientTransform="matrix(-1, 0, 0, 1, 595.93, 0)" xlink:href="#Áåçûìÿííûé_ãðàäèåíò_300"/><linearGradient id="Áåçûìÿííûé_ãðàäèåíò_40-3" x1="215.9" y1="256.63" x2="215.9" y2="239.02" gradientTransform="matrix(-1, 0, 0, 1, 595.93, 0)" xlink:href="#Áåçûìÿííûé_ãðàäèåíò_40"/><linearGradient id="Áåçûìÿííûé_ãðàäèåíò_40-4" x1="215.9" y1="256.11" x2="215.9" y2="239.54" gradientTransform="matrix(-1, 0, 0, 1, 595.93, 0)" xlink:href="#Áåçûìÿííûé_ãðàäèåíò_40"/><linearGradient id="Áåçûìÿííûé_ãðàäèåíò_191-2" x1="215.9" y1="253.2" x2="215.9" y2="242.45" gradientTransform="matrix(-1, 0, 0, 1, 595.93, 0)" xlink:href="#Áåçûìÿííûé_ãðàäèåíò_191"/><linearGradient id="Áåçûìÿííûé_ãðàäèåíò_111-2" x1="366.53" y1="253.99" x2="390.28" y2="253.99" xlink:href="#Áåçûìÿííûé_ãðàäèåíò_111"/><linearGradient id="Áåçûìÿííûé_ãðàäèåíò_300-3" x1="442.6" y1="256.51" x2="442.6" y2="234.95" xlink:href="#Áåçûìÿííûé_ãðàäèåíò_300"/><linearGradient id="Áåçûìÿííûé_ãðàäèåíò_182" x1="440.53" y1="257.26" x2="440.53" y2="235.68" gradientUnits="userSpaceOnUse"><stop offset="0" stop-color="#aca1db"/><stop offset="1" stop-color="#6a518a"/></linearGradient><linearGradient id="Áåçûìÿííûé_ãðàäèåíò_205" x1="440.53" y1="256.63" x2="440.53" y2="236.31" gradientUnits="userSpaceOnUse"><stop offset="0" stop-color="#baa9cc"/><stop offset="0.96" stop-color="#404577"/></linearGradient><linearGradient id="Áåçûìÿííûé_ãðàäèåíò_191-3" x1="440.53" y1="253.07" x2="440.53" y2="239.88" xlink:href="#Áåçûìÿííûé_ãðàäèåíò_191"/><linearGradient id="Áåçûìÿííûé_ãðàäèåíò_300-4" x1="140.07" y1="256.96" x2="140.07" y2="235.4" gradientTransform="matrix(-1, 0, 0, 1, 520.26, 0)" xlink:href="#Áåçûìÿííûé_ãðàäèåíò_300"/><linearGradient id="Áåçûìÿííûé_ãðàäèåíò_182-2" x1="138.35" y1="257.71" x2="138.35" y2="236.13" gradientTransform="matrix(-1, 0, 0, 1, 520.26, 0)" xlink:href="#Áåçûìÿííûé_ãðàäèåíò_182"/><linearGradient id="Áåçûìÿííûé_ãðàäèåíò_205-2" x1="138.35" y1="257.08" x2="138.35" y2="236.76" gradientTransform="matrix(-1, 0, 0, 1, 520.26, 0)" xlink:href="#Áåçûìÿííûé_ãðàäèåíò_205"/><linearGradient id="Áåçûìÿííûé_ãðàäèåíò_191-4" x1="138.35" y1="253.51" x2="138.35" y2="240.33" gradientTransform="matrix(-1, 0, 0, 1, 520.26, 0)" xlink:href="#Áåçûìÿííûé_ãðàäèåíò_191"/><linearGradient id="Áåçûìÿííûé_ãðàäèåíò_505" x1="419.49" y1="222.89" x2="467.99" y2="222.89" gradientUnits="userSpaceOnUse"><stop offset="0" stop-color="#430027"/><stop offset="1" stop-color="#560029"/></linearGradient><linearGradient id="Áåçûìÿííûé_ãðàäèåíò_505-2" x1="368.38" y1="222.89" x2="405.61" y2="222.89" gradientTransform="matrix(-1, 0, 0, 1, 768.26, 0)" xlink:href="#Áåçûìÿííûé_ãðàäèåíò_505"/></defs><g class="cls-1"><g id="Layer_2" data-name="Layer 2"><g id="base"><rect class="cls-2" width="837.33" height="1537"/></g><g id="eyes"><path class="cls-3" d="M424.84,251.73c.13,2.5,11.75,4.14,21.62,3.18,9.53-.94,14.6-5.09,14-10.24s-7.43-8.16-17.79-6.7C431.33,239.57,424.52,245.8,424.84,251.73Z"/><path class="cls-4" d="M425.16,249.08a5.21,5.21,0,0,0,2.32,4.55s-3-.42-3.27-1.65S425.16,249.08,425.16,249.08Z"/><circle class="cls-5" cx="440.92" cy="247" r="8.8"/><circle class="cls-6" cx="440.92" cy="247" r="8.29"/><circle class="cls-7" cx="440.92" cy="247" r="5.38"/><path class="cls-8" d="M448.19,245.88c-.65.37,2.37.46,4.63-.11,2-.51,3-1.34,2.8-1.49A16.76,16.76,0,0,0,448.19,245.88Z"/><path class="cls-8" d="M446.47,246.24c-.86-.18-1.86.1-1.9.39s1,.66,1.52.54S447,246.35,446.47,246.24Z"/><path class="cls-9" d="M425.7,247.7s13.87-10.29,34.64-3.72l-.28-.88s-1.07-3.86-15.61-3.86S425.7,247.7,425.7,247.7Z"/><path class="cls-10" d="M427.48,253.63s8,3.45,19.71,2.38c8.65-.79,11.45-5.89,11.45-5.89S448.1,255.8,427.48,253.63Z"/><path class="cls-11" d="M427.48,245.05s4.5-9.9,15.19-10.9,15.14,6.11,15.14,6.11S438.42,235.48,427.48,245.05Z"/><path class="cls-12" d="M426.46,246.37s4.36-4.72,16.21-5.28,17.39,2,17.39,2,.13-1.79-.36-2.29S435.29,233.63,426.46,246.37Z"/><path class="cls-13" d="M392.29,252.55c-.1,2.51-9,4.14-16.48,3.18-7.27-.93-11.13-5.09-10.67-10.23s5.66-8.17,13.55-6.7C387.34,240.4,392.53,246.62,392.29,252.55Z"/><path class="cls-4" d="M392,249.9a6,6,0,0,1-1.76,4.55s2.28-.41,2.49-1.64A5.69,5.69,0,0,0,392,249.9Z"/><ellipse class="cls-14" cx="380.03" cy="247.82" rx="6.71" ry="8.8"/><ellipse class="cls-15" cx="380.03" cy="247.82" rx="6.32" ry="8.29"/><path class="cls-16" d="M375.93,247.82c0,3,1.84,5.38,4.1,5.38s4.1-2.41,4.1-5.38-1.83-5.37-4.1-5.37S375.93,244.85,375.93,247.82Z"/><path class="cls-8" d="M374.49,246.7c.5.37-1.8.46-3.52-.11-1.54-.51-2.29-1.34-2.14-1.49A10.39,10.39,0,0,1,374.49,246.7Z"/><path class="cls-8" d="M375.8,247.07c.66-.19,1.42.1,1.45.39s-.78.66-1.16.54S375.44,247.18,375.8,247.07Z"/><path class="cls-9" d="M391.64,248.52s-10.58-10.28-26.41-3.72l.22-.88s.81-3.86,11.9-3.86S391.64,248.52,391.64,248.52Z"/><path class="cls-17" d="M390.28,254.45a26.41,26.41,0,0,1-15,2.39,10.81,10.81,0,0,1-8.73-5.9S374.56,256.63,390.28,254.45Z"/><path class="cls-11" d="M390.28,245.87S386.85,236,378.7,235s-11.54,6.11-11.54,6.11S381.94,236.31,390.28,245.87Z"/><path class="cls-12" d="M391.06,247.2s-3.33-4.72-12.36-5.29-13.25,2-13.25,2a5.41,5.41,0,0,1,.27-2.28C366.09,241.13,384.32,234.46,391.06,247.2Z"/><path class="cls-18" d="M424.75,252.27c.14,3.07,11.77,5.08,21.64,3.9,9.54-1.15,14.61-6.24,14-12.55s-7.44-10-17.81-8.22C431.26,237.37,424.43,245,424.75,252.27Z"/><path class="cls-19" d="M425.08,249a7.08,7.08,0,0,0,2.32,5.58s-3-.51-3.27-2S425.08,249,425.08,249Z"/><circle class="cls-20" cx="440.53" cy="246.47" r="10.79"/><circle class="cls-21" cx="440.53" cy="246.47" r="10.16"/><circle class="cls-22" cx="440.53" cy="246.47" r="6.59"/><path class="cls-8" d="M448.12,245.1c-.65.45,2.37.56,4.63-.14,2-.62,3-1.64,2.81-1.82A14.22,14.22,0,0,0,448.12,245.1Z"/><path class="cls-8" d="M446.4,245.55c-.86-.23-1.86.12-1.9.48s1,.8,1.52.65S446.88,245.68,446.4,245.55Z"/><path class="cls-23" d="M425.61,247.33s13.89-12.61,34.67-4.56l-.28-1.08S458.94,237,444.38,237,425.61,247.33,425.61,247.33Z"/><path class="cls-19" d="M427.4,254.6s8,4.24,19.72,2.93c8.66-1,11.46-7.23,11.46-7.23S448,257.26,427.4,254.6Z"/><path class="cls-24" d="M427.4,244.08s4.5-12.14,15.2-13.35a15.16,15.16,0,0,1,15.15,7.48S438.35,232.36,427.4,244.08Z"/><path class="cls-25" d="M426.37,245.71s4.37-5.79,16.23-6.48,17.4,2.46,17.4,2.46.13-2.19-.35-2.8S435.21,230.08,426.37,245.71Z"/><path class="cls-26" d="M395,252.72c-.11,3.07-9.72,5.08-17.89,3.89-7.89-1.14-12.08-6.23-11.59-12.54s6.15-10,14.72-8.22C389.58,237.82,395.22,245.44,395,252.72Z"/><path class="cls-19" d="M394.68,249.47s.23,3.44-1.91,5.58c0,0,2.48-.51,2.7-2A7.6,7.6,0,0,0,394.68,249.47Z"/><ellipse class="cls-27" cx="381.91" cy="246.92" rx="8.92" ry="10.79"/><ellipse class="cls-28" cx="381.91" cy="246.92" rx="8.4" ry="10.16"/><ellipse class="cls-29" cx="381.91" cy="246.92" rx="5.45" ry="6.59"/><path class="cls-8" d="M375.63,245.54c.54.46-2,.57-3.83-.13-1.67-.62-2.48-1.64-2.32-1.82A10.21,10.21,0,0,1,375.63,245.54Z"/><path class="cls-8" d="M377.05,246c.71-.23,1.54.11,1.57.47s-.84.81-1.25.66S376.66,246.12,377.05,246Z"/><path class="cls-23" d="M394.24,247.78s-11.48-12.61-28.67-4.56l.24-1.08s.88-4.74,12.92-4.74A16.23,16.23,0,0,1,394.24,247.78Z"/><path class="cls-19" d="M392.77,255.05A26,26,0,0,1,376.46,258a12.07,12.07,0,0,1-9.47-7.23S375.71,257.71,392.77,255.05Z"/><path class="cls-24" d="M392.77,244.53S389,232.39,380.2,231.17s-12.53,7.49-12.53,7.49S383.71,232.8,392.77,244.53Z"/><path class="cls-25" d="M393.61,246.15s-3.61-5.79-13.41-6.48-14.39,2.47-14.39,2.47a7.78,7.78,0,0,1,.29-2.81C366.51,238.72,386.3,230.53,393.61,246.15Z"/><path class="cls-30" d="M423.59,234.19s-3.49-7.59-4.1-14.45l2.89-1.29s.45,7.13,4.25,11.91a59.78,59.78,0,0,1-2.71-11.91s11.59-4.36,20.58-5.75a22.91,22.91,0,0,1,10.3,1.05,13.27,13.27,0,0,1,3.61,1.72l-1.17-3.89s14.83,6.36,9.66,20.92c0,0-8.85-4.08-13.09-4.65C447,227,432.83,230.79,423.59,234.19Z"/><path class="cls-23" d="M428.83,232.35s-1.09-10.45,1.33-14.94a36.59,36.59,0,0,0,0,10.49s5.62-10.27,12.1-12.45l-18.34,3s1.08,8.06,2.71,11.91c0,0-3.07-2.4-4.25-11.91l-2.89,1.29a41.61,41.61,0,0,0,4.1,14.45Z"/><path class="cls-31" d="M396.74,234.19a64,64,0,0,0,3.14-14.45l-2.22-1.29s-.34,7.13-3.25,11.91a75.92,75.92,0,0,0,2.08-11.91s-8.9-4.36-15.8-5.75a13.83,13.83,0,0,0-7.91,1.05,9.41,9.41,0,0,0-2.77,1.72l.9-3.89s-11.39,6.36-7.42,20.92c0,0,6.79-4.08,10.05-4.65C378.74,227,389.65,230.79,396.74,234.19Z"/><path class="cls-23" d="M392.71,232.35s.84-10.45-1-14.94a47.09,47.09,0,0,1,0,10.49s-4.31-10.27-9.29-12.45l14.09,3s-.84,8.06-2.08,11.91c0,0,2.35-2.4,3.25-11.91l2.22,1.29a51.71,51.71,0,0,1-3.14,14.45Z"/></g></g></g></svg>