<svg xmlns="http://www.w3.org/2000/svg" xmlns:xlink="http://www.w3.org/1999/xlink" viewBox="0 0 837.33 1537"><defs><style>.cls-1{fill:none;}.cls-2,.cls-3,.cls-4,.cls-5,.cls-6,.cls-7,.cls-8{fill-rule:evenodd;}.cls-2{fill:url(#Áåçûìÿííûé_ãðàäèåíò_100);}.cls-3{fill:url(#Áåçûìÿííûé_ãðàäèåíò_100-2);}.cls-4{fill:url(#Áåçûìÿííûé_ãðàäèåíò_104);}.cls-5{fill:url(#Áåçûìÿííûé_ãðàäèåíò_104-2);}.cls-6{fill:url(#Áåçûìÿííûé_ãðàäèåíò_104-3);}.cls-7{fill:url(#Áåçûìÿííûé_ãðàäèåíò_104-4);}.cls-8{fill:url(#Áåçûìÿííûé_ãðàäèåíò_104-5);}</style><linearGradient id="Áåçûìÿííûé_ãðàäèåíò_100" x1="198.17" y1="1449.34" x2="198.17" y2="1348.66" gradientUnits="userSpaceOnUse"><stop offset="0" stop-color="#ffa486"/><stop offset="1" stop-color="#ffb886"/></linearGradient><linearGradient id="Áåçûìÿííûé_ãðàäèåíò_100-2" x1="593.12" y1="1472.59" x2="593.12" y2="1359.06" xlink:href="#Áåçûìÿííûé_ãðàäèåíò_100"/><linearGradient id="Áåçûìÿííûé_ãðàäèåíò_104" x1="608.91" y1="1449.87" x2="608.59" y2="1426.69" gradientTransform="matrix(0.42, -0.91, -0.91, -0.42, 1156.57, 2572.06)" gradientUnits="userSpaceOnUse"><stop offset="0" stop-color="#ff7f66"/><stop offset="1" stop-color="#ec887e"/></linearGradient><linearGradient id="Áåçûìÿííûé_ãðàäèåíò_104-2" x1="624.93" y1="1472.3" x2="624.93" y2="1440.38" gradientTransform="matrix(1, 0, 0, 1, 0, 0)" xlink:href="#Áåçûìÿííûé_ãðàäèåíò_104"/><linearGradient id="Áåçûìÿííûé_ãðàäèåíò_104-3" x1="639.87" y1="1469.45" x2="639.87" y2="1441.99" gradientTransform="matrix(1, 0, 0, 1, 0, 0)" xlink:href="#Áåçûìÿííûé_ãðàäèåíò_104"/><linearGradient id="Áåçûìÿííûé_ãðàäèåíò_104-4" x1="654.26" y1="1464.29" x2="654.26" y2="1441.23" gradientTransform="matrix(1, 0, 0, 1, 0, 0)" xlink:href="#Áåçûìÿííûé_ãðàäèåíò_104"/><linearGradient id="Áåçûìÿííûé_ãðàäèåíò_104-5" x1="665.79" y1="1459.37" x2="665.79" y2="1438.13" gradientTransform="matrix(1, 0, 0, 1, 0, 0)" xlink:href="#Áåçûìÿííûé_ãðàäèåíò_104"/></defs><g id="Layer_2" data-name="Layer 2"><g id="base"><rect class="cls-1" width="837.33" height="1537"/></g><g id="feet_01"><path class="cls-2" d="M303.93,1410c.86,14.08-11.41,25.63-11.41,25.63s-42.16.86-68.08,4c-1.71.2-3.33.39-4.7.64-22.39,3.67-41.05,7.93-57,8.86s-50.51-1.22-70.4-21.75a54.94,54.94,0,0,1,3.24-11.31,37.3,37.3,0,0,1,11.57-16l31.12,3.18s16.65-6.55,26.46-11.84c4.12-2.2,18.3-10.83,22.33-12.74,26.36-12.5,44.34-14.43,44.34-14.43S241,1346,267.33,1349c23.56,2.73,27,27.94,27,27.94S303.23,1398.53,303.93,1410Z"/><path class="cls-3" d="M677.42,1454.86c-20.21,8.1-37.62,18.5-60,17.69-19-.7-38.21-16.68-44.83-19.14,0,0-35.48-6.5-38.76-8.36-12-6.81-16.56-10.13-19.47-13.11s-6.47-14-5.88-18.19c1.26-8.94,13.58-36.47,13.58-36.47s7.86-14.55,25.24-17.55c24-4.14,29.46,12.12,29.46,12.12s10.36,9.89,21.55,14.41c10.72,4.34,39.54,29.38,50.32,35.4,0,0,29,14.23,29,14.23C678.26,1438.83,677.42,1454.86,677.42,1454.86Z"/><path class="cls-4" d="M96.81,1413s13.25-1.84,25.24.7c0,0-13.56-4.47-22.93-4.87C99.12,1408.87,97.85,1409.84,96.81,1413Z"/><path class="cls-5" d="M620,1440.38l9.92,3.85s.58,19.35-3.72,28.07l.55-25.52S621.71,1442.12,620,1440.38Z"/><path class="cls-6" d="M634.89,1442l9.92,3.29s.75,16.74-3.55,24.17l.38-22S636.64,1443.48,634.89,1442Z"/><path class="cls-7" d="M650.13,1441.23l8.23,2.8s.53,13.92-3,20.26l1.41-18.41S651.58,1442.5,650.13,1441.23Z"/><path class="cls-8" d="M661.66,1438.13l8.24,2.58s.53,12.83-3,18.66l1.41-16.95S663.11,1439.3,661.66,1438.13Z"/></g></g></svg>