<svg xmlns="http://www.w3.org/2000/svg" viewBox="0 0 837.33 1537"><defs><style>.cls-1{fill:none;}.cls-2{fill:#292f3a;}.cls-3,.cls-4{fill:#74cbe2;}.cls-3{opacity:0.66;}.cls-5{fill:#050505;}</style></defs><g id="Layer_2" data-name="Layer 2"><g id="base"><rect class="cls-1" width="837.33" height="1537"/></g><g id="mouth_09"><path class="cls-2" d="M357.55,306.42s18.31-31.75,38.92-36.66S487.88,300.84,497.33,297,486.75,363.52,401,378.47c-15.39-2-23.32-14.19-30.79-24.28C361.41,342.35,360.65,329.16,357.55,306.42Z"/><path class="cls-3" d="M361.22,293.25s15-26.09,32-30.12,75.08,25.53,82.85,22.33-31.57,66.72-69.51,65.12S363.55,314,361.22,293.25Z"/><path class="cls-4" d="M476,285.46c7.76-3.2-31.57,66.72-69.51,65.12-1.32-.05-3.88-.29-3.88-.29,49.94,3.78,78.17-64.19,78.17-64.19S475.45,285.7,476,285.46Z"/><path class="cls-5" d="M482.58,309a21.46,21.46,0,0,0,3.48,3.08,26.44,26.44,0,0,0,4,2.25,22.37,22.37,0,0,0,2.09.86c.5.19,1,.29,1.47.43l-.88,1.17-.84,1.42-.11.27c-.31-.17-.62-.34-.93-.53-.69-.41-1.37-.85-2-1.31a30.58,30.58,0,0,1-3.71-3.13,24.58,24.58,0,0,1-3.09-3.89,19.67,19.67,0,0,1-2.09-4.77A17.55,17.55,0,0,0,482.58,309Z"/><path class="cls-5" d="M480,317.76a18.35,18.35,0,0,0,3.21,3,22.36,22.36,0,0,0,3.68,2.15,20.83,20.83,0,0,0,2,.8c-.65,1-1.07,1.76-1.53,2.62-.57-.35-1.12-.73-1.66-1.12a24.63,24.63,0,0,1-3.44-3,21.21,21.21,0,0,1-2.81-3.78,19.72,19.72,0,0,1-1.88-4.55A17.16,17.16,0,0,0,480,317.76Z"/><path class="cls-5" d="M478.18,326.82a18.38,18.38,0,0,0,3.21,3,23.16,23.16,0,0,0,3,1.82c-.41.74-.76,1.31-1.19,2.14a24,24,0,0,1-2.8-2.55,20.35,20.35,0,0,1-2.8-3.78,19.66,19.66,0,0,1-1.89-4.54A17.31,17.31,0,0,0,478.18,326.82Z"/></g></g></svg>