<svg xmlns="http://www.w3.org/2000/svg" xmlns:xlink="http://www.w3.org/1999/xlink" viewBox="0 0 837.33 1537"><defs><style>.cls-1{fill:none;}.cls-2{fill:#dd6668;}.cls-10,.cls-11,.cls-2,.cls-3,.cls-4,.cls-5,.cls-6,.cls-7,.cls-8,.cls-9{fill-rule:evenodd;}.cls-3{fill:#fff4c9;}.cls-4{fill:url(#Áåçûìÿííûé_ãðàäèåíò_5);}.cls-5{fill:#562c27;}.cls-6{fill:url(#Áåçûìÿííûé_ãðàäèåíò_111);}.cls-7{fill:#fff;}.cls-8{fill:url(#Áåçûìÿííûé_ãðàäèåíò_5-2);}.cls-9{fill:url(#Áåçûìÿííûé_ãðàäèåíò_67);}.cls-10{fill:url(#Áåçûìÿííûé_ãðàäèåíò_135);}.cls-11{fill:url(#Áåçûìÿííûé_ãðàäèåíò_135-2);}</style><linearGradient id="Áåçûìÿííûé_ãðàäèåíò_5" x1="442.94" y1="253.62" x2="442.94" y2="232.9" gradientUnits="userSpaceOnUse"><stop offset="0.03" stop-color="#815447"/><stop offset="1" stop-color="#592c27"/></linearGradient><linearGradient id="Áåçûìÿííûé_ãðàäèåíò_111" x1="424.01" y1="237.67" x2="455.37" y2="237.67" gradientUnits="userSpaceOnUse"><stop offset="0" stop-color="#592c27"/><stop offset="0.98" stop-color="#814227"/></linearGradient><linearGradient id="Áåçûìÿííûé_ãðàäèåíò_5-2" x1="378.03" y1="256.41" x2="378.03" y2="235.69" xlink:href="#Áåçûìÿííûé_ãðàäèåíò_5"/><linearGradient id="Áåçûìÿííûé_ãðàäèåíò_67" x1="366.7" y1="240.19" x2="385.46" y2="240.19" gradientUnits="userSpaceOnUse"><stop offset="0.02" stop-color="#814227"/><stop offset="1" stop-color="#592c27"/></linearGradient><linearGradient id="Áåçûìÿííûé_ãðàäèåíò_135" x1="441.28" y1="228.21" x2="441.28" y2="209.01" gradientUnits="userSpaceOnUse"><stop offset="0.01" stop-color="#792727"/><stop offset="0.99" stop-color="#8d4347"/></linearGradient><linearGradient id="Áåçûìÿííûé_ãðàäèåíò_135-2" x1="368.41" y1="229.09" x2="368.41" y2="202.32" xlink:href="#Áåçûìÿííûé_ãðàäèåíò_135"/></defs><g id="Layer_2" data-name="Layer 2"><g id="base"><rect class="cls-1" width="837.33" height="1537"/></g><g id="eyes"><path class="cls-2" d="M424.86,239.61s1.9-8.05,8.64-11.6,19.21,6.48,21,14.18Z"/><path class="cls-3" d="M455.36,245.93c-5.05,11.07-29.2,11.46-30.28,6.07-1.22-5.88-.93-17.39,9.41-18.91a25,25,0,0,1,4.21-.19s.05,0,.05,0A21.61,21.61,0,0,1,453.3,240C455.21,242.2,456,244.41,455.36,245.93Z"/><path class="cls-4" d="M453.69,242.84a10.75,10.75,0,1,1-21.5,0,10.94,10.94,0,0,1,6.51-9.94s.05,0,.05,0A21.61,21.61,0,0,1,453.3,240,10.94,10.94,0,0,1,453.69,242.84Z"/><path class="cls-5" d="M450.71,242.85a7.14,7.14,0,1,1-7.14-7.14A7.14,7.14,0,0,1,450.71,242.85Z"/><path class="cls-6" d="M424.65,243.26s-1.44-3.88,0-6.43,4.57-5.45,13-4.6,15.42,5.53,17.68,11c0,0-9.79-8.79-20.91-7.45C425.62,236.86,425.72,240.68,424.65,243.26Z"/><path class="cls-7" d="M434.23,244.73a1.88,1.88,0,1,1-1.88-1.88A1.88,1.88,0,0,1,434.23,244.73Z"/><path class="cls-2" d="M366.39,243.81s1.56-12,8.35-13.93,10.93,13.66,10.72,18.26Z"/><path class="cls-3" d="M385.37,251.22a11.28,11.28,0,0,1-.59,3.18c-1.62,4.66-16.36,2.16-18.52-.19-1.52-1.67-.09-19.84,6.32-21.17,3.73-.73,7.11,1.62,9.51,5.29l.05,0c.48.84,1,1.67,1.42,2.6,0,.05.09.1,0,.15a20.94,20.94,0,0,1,1.23,3.52A16.75,16.75,0,0,1,385.37,251.22Z"/><path class="cls-8" d="M385.37,251.22c-1.32,3.13-3.87,5.19-6.81,5.19-4.41,0-8-4.8-8-10.78,0-4.41,2-8.23,4.85-9.94h.05a12.86,12.86,0,0,1,6.62,2.64l.05,0c.48.84,1,1.67,1.42,2.6,0,.05.09.1,0,.15a7.56,7.56,0,0,1,1.23,3.52A16.75,16.75,0,0,1,385.37,251.22Z"/><path class="cls-5" d="M384.88,245.63c0,4-2.4,7.16-5.34,7.16s-5.29-3.19-5.29-7.16,2.35-7.1,5.29-7.1a4.83,4.83,0,0,1,4,2.45c0,.05.09.1,0,.15a7.56,7.56,0,0,1,1.23,3.52A6.18,6.18,0,0,1,384.88,245.63Z"/><path class="cls-9" d="M366.78,240.9a8.72,8.72,0,0,1,.82-5.09c1.48-2.9,5.13-4.88,10.43-2.55,6.62,2.9,7.43,14.88,7.43,14.88s-2.27-10.47-9.4-12.33c-4.27-1.12-6.94.67-7.65,1.86S366.78,240.9,366.78,240.9Z"/><path class="cls-7" d="M372.46,246.05a1.89,1.89,0,1,1-1.89-1.88A1.89,1.89,0,0,1,372.46,246.05Z"/><path class="cls-10" d="M417.67,209s-2.76,12.09,2,18.67a69.44,69.44,0,0,0,24.64-1.37c12.71-3.22,21.38-1.73,21.38-1.73s-4.28-9.19-13-11.94-26.43.81-31-.26C420.16,212,417.67,209,417.67,209Z"/><path class="cls-11" d="M357.4,221.46s11.27-1.28,17.09,1.79,8.26,5.84,8.26,5.84-2.91-17.82-8.88-23.54-16.62-2.1-16.62-2.1S350,211.18,357.4,221.46Z"/></g></g></svg>