<svg xmlns="http://www.w3.org/2000/svg" xmlns:xlink="http://www.w3.org/1999/xlink" viewBox="0 0 837.33 1537"><defs><style>.cls-1{fill:none;}.cls-2,.cls-3,.cls-4,.cls-5,.cls-6{fill-rule:evenodd;}.cls-2{fill:url(#linear-gradient);}.cls-3{fill:url(#linear-gradient-2);}.cls-4{fill:url(#linear-gradient-3);}.cls-5{fill:url(#Áåçûìÿííûé_ãðàäèåíò_23);}.cls-6{fill:url(#Áåçûìÿííûé_ãðàäèåíò_23-2);}</style><linearGradient id="linear-gradient" x1="402.55" y1="321.11" x2="456.14" y2="321.11" gradientUnits="userSpaceOnUse"><stop offset="0" stop-color="#322000"/><stop offset="1" stop-color="#502900"/></linearGradient><linearGradient id="linear-gradient-2" x1="405.33" y1="318.42" x2="437.89" y2="318.42" gradientTransform="matrix(-1, 0, 0, 1, 810.59, 0)" xlink:href="#linear-gradient"/><linearGradient id="linear-gradient-3" x1="372.59" y1="347.14" x2="456.6" y2="347.14" xlink:href="#linear-gradient"/><linearGradient id="Áåçûìÿííûé_ãðàäèåíò_23" x1="407.05" y1="325.55" x2="416" y2="303.6" gradientUnits="userSpaceOnUse"><stop offset="0" stop-color="#ce595b"/><stop offset="1" stop-color="#d67261"/></linearGradient><linearGradient id="Áåçûìÿííûé_ãðàäèåíò_23-2" x1="396.47" y1="323.19" x2="411.04" y2="323.19" xlink:href="#Áåçûìÿííûé_ãðàäèåíò_23"/></defs><g id="Layer_2" data-name="Layer 2"><g id="base"><rect class="cls-1" width="837.33" height="1537"/></g><g id="Mouth_06"><path class="cls-2" d="M402.55,305.31l5.76-3.51s27.23-8.73,42.85-.18c4.48,12.93,5.55,31.23,4.72,36.78,0,0-24.63,9.1-18,4.79,11.34-7.38,11.44-38.93-1.22-37.88s-31.39,3.36-31.39,3.36Z"/><path class="cls-3" d="M405.26,303.73l-4.88-2.11s-19.91-6.28-24.53,0-2.79,22.37-2.79,28.09c0,0,4.12,7.43,9.09,8.3-6.71-11.58-6-32.47,2-31.42s21.13,2.08,21.13,2.08Z"/><path class="cls-4" d="M455.64,331c-7.54-4.64-25.46,10.38-38.22,11.47-4.25.36,1.92-11.95-10.89-12.17s-6.29,12.14-10.06,11.11c-8.59-2.36-17.91-7.36-23.88-14.94,1.23,5.8-.43,4.84,11.54,25.84,10.22,12.3,30,17.07,36.15,15.19,15.65-4.75,28.42-8.27,35.36-20.41C455.64,339.3,457.81,335.81,455.64,331Z"/><path class="cls-5" d="M382.15,312.53s5.51,3.14,17.45,2.22,36.13,1.43,40.18-1.45l1.79,1.7s-25.15,2.55-34.83,3.26c-9.09.66-12.44,2.47-20.46-1.22l-3.06-2.85Z"/><path class="cls-6" d="M396.47,321.76a27,27,0,0,0,14.57.63s-1.36.82-6.35,2.09C401.07,325.4,396.47,321.76,396.47,321.76Z"/></g></g></svg>