<?xml version="1.0" encoding="utf-8"?>
<!-- Generator: Adobe Illustrator 25.4.1, SVG Export Plug-In . SVG Version: 6.00 Build 0)  -->
<svg version="1.1" id="Layer_1" xmlns="http://www.w3.org/2000/svg" xmlns:xlink="http://www.w3.org/1999/xlink" x="0px" y="0px"
	 viewBox="0 0 837.3 1537" style="enable-background:new 0 0 837.3 1537;" xml:space="preserve">
<style type="text/css">
	.st0{fill:none;}
	.st1{fill:url(#SVGID_1_);}
	.st2{opacity:0.6;fill:url(#SVGID_00000147217964094924185240000017698884857980510907_);enable-background:new    ;}
	.st3{fill:#0046B7;}
	.st4{opacity:0.9;fill:#0046B7;}
	.st5{fill:url(#SVGID_00000026850564364918815610000014815375040380928674_);}
	.st6{fill:#DD4C6A;}
	.st7{fill:url(#SVGID_00000042700262161119087750000005961949086088757669_);}
	.st8{fill:url(#SVGID_00000159428659258659675580000007465584985750590362_);}
	.st9{fill:url(#SVGID_00000158742855194918641380000006627906408835766457_);}
	.st10{fill:#FFFFFF;}
	.st11{opacity:0.6;fill:#B42F97;enable-background:new    ;}
	.st12{fill:url(#SVGID_00000181792657500551018450000016337711099000485564_);}
	.st13{fill:#270039;}
	.st14{fill:url(#SVGID_00000037651098307199320510000005338419976893126073_);}
	.st15{fill:url(#SVGID_00000094576823270720417940000012523017179321362870_);}
	.st16{fill:url(#SVGID_00000125562452794787620990000012406036876995625867_);}
	.st17{fill:url(#SVGID_00000114786822242011157170000013399082898452948153_);}
	.st18{fill:url(#SVGID_00000078729576338839876450000015371193996813425304_);}
	.st19{fill:#FF9D8A;}
	.st20{fill:url(#SVGID_00000006696334971316944020000003214200920698000276_);}
	.st21{opacity:0.6;fill:url(#SVGID_00000109011732539158181520000000168933155043552140_);enable-background:new    ;}
</style>
<g>
	<g id="Layer_2_00000133497394575189217180000004906588621974778043_">
		<g id="base">
			<rect class="st0" width="837.3" height="1537"/>
		</g>
		<g id="Layer_29">
			
				<linearGradient id="SVGID_1_" gradientUnits="userSpaceOnUse" x1="-372.0973" y1="1360.2386" x2="-327.2873" y2="1360.2386" gradientTransform="matrix(-0.81 -0.12 0.16 -1.08 -125.75 1656.1201)">
				<stop  offset="0" style="stop-color:#36063B"/>
				<stop  offset="1" style="stop-color:#4D0E2E"/>
			</linearGradient>
			<path class="st1" d="M357.5,234.6c0,0,5.1-4.9,7.8-5.7l0,0c5.9-1.6,28.4,9.1,28.4,9.1s2-8.8,1.5-14.2l-0.6-0.1
				c0.1,2.3-0.1,4.5-0.4,6.7c0,0,0-5.7-0.8-6.9c0,0-15.5-1.5-20.4-2.3l-2.7-0.5l-1-0.2c-1.8-0.3-2.3-0.4-2.3-0.4l0.1-0.5
				C367.2,219.7,362.4,224.1,357.5,234.6z"/>
			
				<linearGradient id="SVGID_00000042721161182688260880000007005459492710379673_" gradientUnits="userSpaceOnUse" x1="-340.4573" y1="1360.2263" x2="-327.2873" y2="1360.2263" gradientTransform="matrix(-0.81 -0.12 0.16 -1.08 -125.75 1656.1201)">
				<stop  offset="0" style="stop-color:#FFEADB"/>
				<stop  offset="0.99" style="stop-color:#D177F4"/>
			</linearGradient>
			<path style="opacity:0.6;fill:url(#SVGID_00000042721161182688260880000007005459492710379673_);enable-background:new    ;" d="
				M357.5,234.6c0,0,5.1-4.9,7.8-5.7l0,0c1.3-2.9,3-5.6,5.1-8.1l-1-0.2c-2.5,2.3-7.4,8.6-7.4,8.6c1.4-3.3,3.1-6.5,5.2-9.5
				C367.2,219.7,362.4,224.1,357.5,234.6z"/>
			<path class="st3" d="M439.9,277.7l6.1,3.3l5.4-5.2l0.1-5.8l-6.9-2.9l-5.1,4.4L439.9,277.7z M445,270l4,1.7l0,3.3l-3.1,3.3
				l-3.6-2.2l-0.2-3.6L445,270z"/>
			<path class="st4" d="M488.7,160c-2.1-1.8-4.4-3.4-6.8-4.8c0,0-34.9-4-51.8,26.8c-3.4,6.1-5.7,10.3-7.1,12.8c-1,1.8-1.5,3.9-1.3,6
				c0,0-2,3.6-1.4,10.2c0.2,2.5,1.9,5.4,3.2,16.2c0.9,6.8,1.6,12.1,2.1,20.6c0.2,3.9,2,9.2,2.5,12.9c0.7,5,1.1,10,1.1,15.1l17,12.9
				l12.6-15.6c0,0,1-12.3-0.3-19.8c-0.8-4.9-4.3-4.7-3.9-8.1c1-8.7,1.4-10.6,0.9-20c-0.3-5.2-0.3-10.4,0-15.6l2.2-7.9
				C453.8,188.9,465.2,171.7,488.7,160z M453.5,276.5l-7.2,7.2l-8.4-4.6l-0.4-8.3l6.9-6l9.3,4L453.5,276.5z"/>
			
				<linearGradient id="SVGID_00000176757316579363358080000003398313652327537336_" gradientUnits="userSpaceOnUse" x1="442.6685" y1="1282.812" x2="442.6685" y2="1300.3986" gradientTransform="matrix(1 0 0 -1 0 1538)">
				<stop  offset="0" style="stop-color:#EEE2FF"/>
				<stop  offset="1" style="stop-color:#BDC9FB"/>
			</linearGradient>
			<path style="fill:url(#SVGID_00000176757316579363358080000003398313652327537336_);" d="M424.8,251.7c0.1,2.5,11.8,4.1,21.6,3.2
				c9.5-0.9,14.6-5.1,14-10.2s-7.4-8.2-17.8-6.7C431.3,239.6,424.5,245.8,424.8,251.7z"/>
			<path class="st6" d="M425.2,249.1c-0.1,1.8,0.8,3.5,2.3,4.6c0,0-3-0.4-3.3-1.6S425.2,249.1,425.2,249.1z"/>
			
				<linearGradient id="SVGID_00000084493743417653026600000002504189501319632781_" gradientUnits="userSpaceOnUse" x1="440.92" y1="1282.2" x2="440.92" y2="1299.8" gradientTransform="matrix(1 0 0 -1 0 1538)">
				<stop  offset="0" style="stop-color:#4D0E2E"/>
				<stop  offset="1" style="stop-color:#36063B"/>
			</linearGradient>
			<circle style="fill:url(#SVGID_00000084493743417653026600000002504189501319632781_);" cx="440.9" cy="247" r="8.8"/>
			
				<linearGradient id="SVGID_00000081611856160884371000000001321368803224724097_" gradientUnits="userSpaceOnUse" x1="440.92" y1="1282.71" x2="440.92" y2="1299.29" gradientTransform="matrix(1 0 0 -1 0 1538)">
				<stop  offset="0" style="stop-color:#4D0E2E"/>
				<stop  offset="1" style="stop-color:#36063B"/>
			</linearGradient>
			<circle style="fill:url(#SVGID_00000081611856160884371000000001321368803224724097_);" cx="440.9" cy="247" r="8.3"/>
			
				<linearGradient id="SVGID_00000145749544170500215530000017644208793767607690_" gradientUnits="userSpaceOnUse" x1="440.92" y1="1285.62" x2="440.92" y2="1296.38" gradientTransform="matrix(1 0 0 -1 0 1538)">
				<stop  offset="0" style="stop-color:#A79ABD"/>
				<stop  offset="0.99" style="stop-color:#724A60"/>
			</linearGradient>
			<circle style="fill:url(#SVGID_00000145749544170500215530000017644208793767607690_);" cx="440.9" cy="247" r="5.4"/>
			<path class="st10" d="M448.2,245.9c-0.6,0.4,2.4,0.5,4.6-0.1c2-0.5,3-1.3,2.8-1.5C453.1,244.2,450.5,244.8,448.2,245.9z"/>
			<path class="st10" d="M446.5,246.2c-0.9-0.2-1.9,0.1-1.9,0.4s1,0.7,1.5,0.5S447,246.4,446.5,246.2z"/>
			<path class="st11" d="M425.7,247.7c0,0,13.9-10.3,34.6-3.7l-0.3-0.9c0,0-1.1-3.9-15.6-3.9S425.7,247.7,425.7,247.7z"/>
			
				<linearGradient id="SVGID_00000158010547775799473880000008923082939090857630_" gradientUnits="userSpaceOnUse" x1="427.48" y1="1284.832" x2="458.64" y2="1284.832" gradientTransform="matrix(1 0 0 -1 0 1538)">
				<stop  offset="0" style="stop-color:#592C27"/>
				<stop  offset="0.98" style="stop-color:#814227"/>
			</linearGradient>
			<path style="fill:url(#SVGID_00000158010547775799473880000008923082939090857630_);" d="M427.5,253.6c0,0,8,3.5,19.7,2.4
				c8.6-0.8,11.5-5.9,11.5-5.9S448.1,255.8,427.5,253.6z"/>
			<path class="st13" d="M426.5,246.4c0,0,4.4-4.7,16.2-5.3s17.4,2,17.4,2s0.1-1.8-0.4-2.3S435.3,233.6,426.5,246.4z"/>
			
				<linearGradient id="SVGID_00000162316505119579678050000016661935281435686293_" gradientUnits="userSpaceOnUse" x1="-442.7706" y1="1281.9911" x2="-442.7706" y2="1299.5713" gradientTransform="matrix(-1 0 0 -1 -64.07 1538)">
				<stop  offset="0" style="stop-color:#EEE2FF"/>
				<stop  offset="1" style="stop-color:#BDC9FB"/>
			</linearGradient>
			<path style="fill:url(#SVGID_00000162316505119579678050000016661935281435686293_);" d="M392.3,252.6c-0.1,2.5-9,4.1-16.5,3.2
				c-7.3-0.9-11.1-5.1-10.7-10.2s5.7-8.2,13.5-6.7C387.3,240.4,392.5,246.6,392.3,252.6z"/>
			<path class="st6" d="M392,249.9c0.1,1.7-0.6,3.4-1.8,4.6c0,0,2.3-0.4,2.5-1.6C392.8,251.8,392.5,250.8,392,249.9z"/>
			
				<linearGradient id="SVGID_00000129887207316527432030000017952384781841228679_" gradientUnits="userSpaceOnUse" x1="-444.1" y1="1281.38" x2="-444.1" y2="1298.98" gradientTransform="matrix(-1 0 0 -1 -64.07 1538)">
				<stop  offset="0" style="stop-color:#4D0E2E"/>
				<stop  offset="1" style="stop-color:#36063B"/>
			</linearGradient>
			
				<ellipse style="fill:url(#SVGID_00000129887207316527432030000017952384781841228679_);" cx="380" cy="247.8" rx="6.7" ry="8.8"/>
			
				<linearGradient id="SVGID_00000147908721969553667650000001948912521960591506_" gradientUnits="userSpaceOnUse" x1="-444.1" y1="1281.89" x2="-444.1" y2="1298.47" gradientTransform="matrix(-1 0 0 -1 -64.07 1538)">
				<stop  offset="0" style="stop-color:#4D0E2E"/>
				<stop  offset="1" style="stop-color:#36063B"/>
			</linearGradient>
			
				<ellipse style="fill:url(#SVGID_00000147908721969553667650000001948912521960591506_);" cx="380" cy="247.8" rx="6.3" ry="8.3"/>
			
				<linearGradient id="SVGID_00000039837139329695854840000008387642606668245156_" gradientUnits="userSpaceOnUse" x1="-444.1" y1="1284.8" x2="-444.1" y2="1295.55" gradientTransform="matrix(-1 0 0 -1 -64.07 1538)">
				<stop  offset="0" style="stop-color:#A79ABD"/>
				<stop  offset="0.99" style="stop-color:#724A60"/>
			</linearGradient>
			<path style="fill:url(#SVGID_00000039837139329695854840000008387642606668245156_);" d="M375.9,247.8c0,3,1.8,5.4,4.1,5.4
				s4.1-2.4,4.1-5.4s-1.8-5.4-4.1-5.4S375.9,244.9,375.9,247.8z"/>
			<path class="st10" d="M374.5,246.7c0.5,0.4-1.8,0.5-3.5-0.1c-1.5-0.5-2.3-1.3-2.1-1.5C370.8,245.1,372.8,245.6,374.5,246.7z"/>
			<path class="st10" d="M375.8,247.1c0.7-0.2,1.4,0.1,1.5,0.4s-0.8,0.7-1.2,0.5S375.4,247.2,375.8,247.1z"/>
			<path class="st11" d="M391.6,248.5c0,0-10.6-10.3-26.4-3.7l0.2-0.9c0,0,0.8-3.9,11.9-3.9S391.6,248.5,391.6,248.5z"/>
			
				<linearGradient id="SVGID_00000142873809465399210530000006523963165056874115_" gradientUnits="userSpaceOnUse" x1="366.55" y1="1283.9922" x2="390.28" y2="1283.9922" gradientTransform="matrix(1 0 0 -1 0 1538)">
				<stop  offset="0" style="stop-color:#592C27"/>
				<stop  offset="0.98" style="stop-color:#814227"/>
			</linearGradient>
			<path style="fill:url(#SVGID_00000142873809465399210530000006523963165056874115_);" d="M390.3,254.4c-4.7,2.2-9.9,3.1-15,2.4
				c-3.7-0.3-7-2.6-8.7-5.9C366.5,250.9,374.6,256.6,390.3,254.4z"/>
			<path class="st19" d="M390.3,245.9c0,0-3.4-9.9-11.6-10.9s-11.5,6.1-11.5,6.1S381.9,236.3,390.3,245.9z"/>
			<path class="st13" d="M391.1,247.2c0,0-3.3-4.7-12.4-5.3s-13.2,2-13.2,2c-0.1-0.8,0-1.5,0.3-2.3
				C366.1,241.1,384.3,234.5,391.1,247.2z"/>
			
				<linearGradient id="SVGID_00000132787338088471835400000003837652848468915587_" gradientUnits="userSpaceOnUse" x1="405.1194" y1="1264.0031" x2="449.9294" y2="1264.0031" gradientTransform="matrix(1.04 -0.15 -0.16 -1.08 202.13 1658.42)">
				<stop  offset="0" style="stop-color:#36063B"/>
				<stop  offset="1" style="stop-color:#4D0E2E"/>
			</linearGradient>
			<path style="fill:url(#SVGID_00000132787338088471835400000003837652848468915587_);" d="M469.8,233.7c0,0-6.3-4.7-9.8-5.4l0,0
				c-7.5-1.4-36.9,10.4-36.9,10.4s-2.2-8.7-1.3-14.3l0.7-0.1c0,0-0.3,4.9,0.2,6.8c0,0,0.2-5.8,1.3-7c0,0,20-2.1,26.3-3.2l3.5-0.6
				l1.3-0.2c2.4-0.4,3-0.5,3-0.5l-0.1-0.5C458,219.1,464,223.3,469.8,233.7z"/>
			
				<linearGradient id="SVGID_00000070827837717193099640000005193346575846085565_" gradientUnits="userSpaceOnUse" x1="436.7594" y1="1264.0082" x2="449.9294" y2="1264.0082" gradientTransform="matrix(1.04 -0.15 -0.16 -1.08 202.13 1658.42)">
				<stop  offset="0" style="stop-color:#FFEADB"/>
				<stop  offset="0.99" style="stop-color:#D177F4"/>
			</linearGradient>
			<path style="opacity:0.6;fill:url(#SVGID_00000070827837717193099640000005193346575846085565_);enable-background:new    ;" d="
				M469.8,233.7c0,0-6.3-4.7-9.8-5.4l0,0c-1.7-2.9-3.7-5.6-6.2-8l1.3-0.2c3.2,2.2,9.2,8.3,9.2,8.3c-1.8-4.2-6.2-9.3-6.2-9.3
				S464,223.3,469.8,233.7z"/>
		</g>
	</g>
</g>
</svg>
