<?xml version="1.0" encoding="utf-8"?>
<!-- Generator: Adobe Illustrator 25.4.1, SVG Export Plug-In . SVG Version: 6.00 Build 0)  -->
<svg version="1.1" id="Layer_1" xmlns="http://www.w3.org/2000/svg" xmlns:xlink="http://www.w3.org/1999/xlink" x="0px" y="0px"
	 viewBox="0 0 837.3 1537" style="enable-background:new 0 0 837.3 1537;" xml:space="preserve">
<style type="text/css">
	.st0{fill:none;}
	.st1{fill-rule:evenodd;clip-rule:evenodd;fill:url(#SVGID_1_);}
	.st2{fill-rule:evenodd;clip-rule:evenodd;fill:#824846;}
	.st3{fill-rule:evenodd;clip-rule:evenodd;fill:#72433B;}
</style>
<g id="Layer_2_00000181071151951524412770000001874451306316698525_">
	<g id="base">
		<rect class="st0" width="837.3" height="1537"/>
	</g>
	<g id="nose_02">
		
			<linearGradient id="SVGID_1_" gradientUnits="userSpaceOnUse" x1="378.4443" y1="1296.55" x2="392" y2="1296.55" gradientTransform="matrix(1 0 0 -1 0 1576)">
			<stop  offset="0" style="stop-color:#9B5C4E"/>
			<stop  offset="1" style="stop-color:#72433B"/>
		</linearGradient>
		<path class="st1" d="M390.3,266.5c0,0-12.8,10.4-11.8,19.6l13.5,6.3c0,0-10.8-4.1-10.8-8.1S386.5,272.7,390.3,266.5z"/>
		<path class="st2" d="M378.6,286.2c0,0,6.7,3.2,19.5,1.2c0,0,5.3-1.9,13.1-0.2c0,0-3.7,0-11.4,5.9c0,0-2,3-11.6,1.1
			C388.2,294.3,383.5,292.4,378.6,286.2z"/>
		<path class="st3" d="M400.3,292.2c0,0,3.7-6,9.7-4.8C410,287.4,406.9,290.6,400.3,292.2z"/>
	</g>
</g>
</svg>
