<?xml version="1.0" encoding="utf-8"?>
<!-- Generator: Adobe Illustrator 25.4.1, SVG Export Plug-In . SVG Version: 6.00 Build 0)  -->
<svg version="1.1" id="Layer_1" xmlns="http://www.w3.org/2000/svg" xmlns:xlink="http://www.w3.org/1999/xlink" x="0px" y="0px"
	 viewBox="0 0 837.3 1537" style="enable-background:new 0 0 837.3 1537;" xml:space="preserve">
<style type="text/css">
	.st0{fill:none;}
	.st1{fill-rule:evenodd;clip-rule:evenodd;fill:url(#SVGID_1_);}
	.st2{fill-rule:evenodd;clip-rule:evenodd;fill:#8C4F4B;}
	.st3{fill-rule:evenodd;clip-rule:evenodd;fill:#72433B;}
</style>
<g id="Layer_2_00000172410838980655633970000010922880962474595495_">
	<g id="base">
		<rect class="st0" width="837.3" height="1537"/>
	</g>
	<g id="nose_03">
		
			<linearGradient id="SVGID_1_" gradientUnits="userSpaceOnUse" x1="378.8642" y1="234.6" x2="395" y2="234.6" gradientTransform="matrix(1 0 0 1 0 38)">
			<stop  offset="0" style="stop-color:#9B5C4E"/>
			<stop  offset="1" style="stop-color:#72433B"/>
		</linearGradient>
		<path class="st1" d="M392.3,252.8c-4,2.4-7.1,6-9,10.2c0,2.5-4.9,18.8-4.4,23.6l16.1,5.8c0,0-13.4-3.6-13.4-7.6
			c0-6.1,3.5-12.2,4-21.3C387,258.8,391.5,255,392.3,252.8z"/>
		<path class="st2" d="M378.9,286.6c0,0,7.9,2.9,22.8,0.7c0,0,6.1-2.2,15.3-0.1c0,0-4.3,0-13.2,6.7c0,0-2.4,3.4-13.5,1.1
			C390.3,295,384.8,293.7,378.9,286.6z"/>
		<path class="st3" d="M405,293.1c0,0,6-7.1,12-5.8C413.4,289.9,409.3,291.9,405,293.1z"/>
	</g>
</g>
</svg>
