<?xml version="1.0" encoding="utf-8"?>
<!-- Generator: Adobe Illustrator 26.0.0, SVG Export Plug-In . SVG Version: 6.00 Build 0)  -->
<svg version="1.1" id="Layer_1" xmlns="http://www.w3.org/2000/svg" xmlns:xlink="http://www.w3.org/1999/xlink" x="0px" y="0px"
	 viewBox="0 0 837.3 1537" style="enable-background:new 0 0 837.3 1537;" xml:space="preserve">
<style type="text/css">
	.st0{fill:none;}
	.st1{fill-rule:evenodd;clip-rule:evenodd;fill:#B57C47;}
	.st2{fill-rule:evenodd;clip-rule:evenodd;fill:url(#SVGID_1_);}
	.st3{fill-rule:evenodd;clip-rule:evenodd;fill:url(#SVGID_00000018233460234564209580000008056460498972769718_);}
	.st4{fill-rule:evenodd;clip-rule:evenodd;fill:url(#SVGID_00000068660712764799528960000009629828161775700639_);}
	.st5{fill:#B57C47;}
</style>
<g id="Layer_2_00000023269868564779499630000007630071042637485496_">
	<g id="base">
		<rect class="st0" width="837.3" height="1537"/>
	</g>
	<g id="L_arm_01">
		<path class="st1" d="M630,930.5c0,0-6.7-15-5.2-25.7c0,0,8.6-5.1,23.6-4.4s33.1,16.6,33.1,16.6v17.5L630,930.5z"/>
		<path class="st1" d="M620.2,855.8c0,0-5.1,29.6-10.4,43.9c0,0,11.3,3.7,24.9-5.3s8.2-33.7,8.2-33.7S628.6,853.2,620.2,855.8z"/>
		
			<linearGradient id="SVGID_1_" gradientUnits="userSpaceOnUse" x1="798.2842" y1="1102.1451" x2="626.7042" y2="923.4651" gradientTransform="matrix(1 0 0 -1 -0.3 1538.39)">
			<stop  offset="0" style="stop-color:#E2A352"/>
			<stop  offset="1" style="stop-color:#E0A251"/>
		</linearGradient>
		<path class="st2" d="M717.2,682.4c0,0,12.3,50.2-46.9,38.2c-10.5-2.1-32.4-18.6-42-33.2c0,0-9.4-17.2-9.3-22.6
			c-23.9-13-34.3-60.5-25.6-79.3c-1.4-3.9-17.3-11.9-19.7-14.8c-24.8-30.1-11.2-71.9-3.5-81.5c12.1-15.3,24.2-33.2,45-36.2
			c27.2-3.9,36.6,16,43.6,21.9s22.9,47.5,24.2,76.9s28.8,87.3,29,88.1C713.3,645.4,717.2,682.4,717.2,682.4z"/>
		<path class="st1" d="M642.1,616.8c3,11.5,5.6,9.6,0.7,36.3c0,0,2-36.1-21.8-66C621,587.1,639.1,605.3,642.1,616.8z"/>
		
			<linearGradient id="SVGID_00000070827129176795415520000000174852498207068815_" gradientUnits="userSpaceOnUse" x1="674.7374" y1="597.422" x2="674.7374" y2="884.752" gradientTransform="matrix(1 0 0 -1 0 1538)">
			<stop  offset="0" style="stop-color:#E2A352"/>
			<stop  offset="1" style="stop-color:#E0A251"/>
		</linearGradient>
		<path style="fill-rule:evenodd;clip-rule:evenodd;fill:url(#SVGID_00000070827129176795415520000000174852498207068815_);" d="
			M681.4,799.5c-19.2,0.4-22.8,13.6-23.2,14.7c0,0-19,4.9-26.9,11s-11.1,30.7-11.1,30.7l22.7,4.8c0,0,5.1-3,11.3,1.2
			c0,0-5.3,34-10.7,47.8c-1,2.4-2.3,4.8-3.7,7c-3,4.8-6.3,9.3-9.8,13.7c0,0,1.3,3.1,5.8,6.8s16.6,2.2,16.6,2.2l6.5-3.7
			c0,0-1,2.2,3.9,4s22,0,22,0c3.3,0.7,6.7,1,10.1,0.8c6.4-0.2,9.2-2.3,16.8-2.3s10.7-0.6,13.8-2.5c0.8-0.4,1.7-3.3,2.5-8.2
			c2.4-15.4,3-50.8-10.3-96.1C717.4,826.8,715.6,798.8,681.4,799.5z"/>
		<path class="st1" d="M658.8,935.7c0,0,8.5-10.7,11.3-22.7c0,0-0.9,15-7.3,26.7C660.7,939.4,659,937.8,658.8,935.7z"/>
		<path class="st1" d="M684.8,939.7c0,0,5-4.9,6.8-17c0,0,0.8,7-1.9,17.7C689.7,940.4,687.7,941.4,684.8,939.7z"/>
		<path class="st1" d="M706.9,938.5c0,0,3.2-1.6,5.8-9c0.4,2.9,0.1,5.9-0.9,8.7L706.9,938.5z"/>
		
			<linearGradient id="SVGID_00000072964382110316883960000006293909371785826998_" gradientUnits="userSpaceOnUse" x1="673.0269" y1="615.99" x2="673.0269" y2="880.44" gradientTransform="matrix(1 0 0 -1 0 1538)">
			<stop  offset="0" style="stop-color:#E2A352"/>
			<stop  offset="1" style="stop-color:#E0A251"/>
		</linearGradient>
		<path style="fill-rule:evenodd;clip-rule:evenodd;fill:url(#SVGID_00000072964382110316883960000006293909371785826998_);" d="
			M641.9,760.3c9.5,20.8,19.7,45.3,16.3,53.9l-0.8,0.2c0.6,1.2,0.9,2.5,0.8,3.8c-0.1,3.2-0.9,32.1,30,33.1
			c13.5,0.4,25.6-11.3,29.4-19.9c-4.6-62.8,6-109.8,1.1-140.7c-0.8-5.2-2.2-10.3-4.3-15.2c0,0-15.8-20.2-39.8-17.7
			c-13.4,1.4-39.8,5.5-46.6,29.6c0,0-4.9,29.4,0,42.9C630.1,735.5,635.8,747.2,641.9,760.3z"/>
	</g>
</g>
<g>
	<polygon class="st5" points="602.2,519.8 638.8,507.4 630.2,493.5 600.6,503.5 	"/>
	<polygon class="st5" points="630.5,522 630.9,512.7 611.7,519.1 617.6,526.3 620,536.2 634.6,531.3 	"/>
	<polygon class="st5" points="633.7,521.1 637,531.1 632.7,539.7 633.7,542.8 641.9,546.4 647.5,544.5 652.8,516.6 640.5,512.5 	"/>
	<polygon class="st5" points="614.4,527.6 603.8,524.8 596.5,535.6 617.6,554.5 623.2,552.7 627.5,544.8 626.5,541.8 617.9,537.5 	
		"/>
	<path class="st5" d="M608.8,479.7l-30.5,34.6l14.7,43.7l45.2,9.1l30.5-34.6L654,488.8L608.8,479.7z M664.6,531.7l-27.7,31.4
		l-41.1-8.3l-13.4-39.7l27.7-31.4l41.1,8.3L664.6,531.7z"/>
</g>
</svg>
