<?xml version="1.0" encoding="utf-8"?>
<!-- Generator: Adobe Illustrator 25.4.1, SVG Export Plug-In . SVG Version: 6.00 Build 0)  -->
<svg version="1.1" id="Layer_1" xmlns="http://www.w3.org/2000/svg" xmlns:xlink="http://www.w3.org/1999/xlink" x="0px" y="0px"
	 viewBox="0 0 837.3 1537" style="enable-background:new 0 0 837.3 1537;" xml:space="preserve">
<style type="text/css">
	.st0{fill:none;}
	.st1{fill-rule:evenodd;clip-rule:evenodd;fill:url(#SVGID_1_);}
	.st2{fill-rule:evenodd;clip-rule:evenodd;fill:url(#SVGID_00000068643292121243522150000013486035586022117279_);}
	.st3{fill-rule:evenodd;clip-rule:evenodd;fill:url(#SVGID_00000178898313614274871430000016120998260540651162_);}
	.st4{fill-rule:evenodd;clip-rule:evenodd;fill:#C69A6D;}
</style>
<g id="Layer_2_00000065040333992320362610000000851879785897345166_">
	<g id="base">
		<rect class="st0" width="837.3" height="1537"/>
	</g>
	<g id="Mouth_02">
		
			<linearGradient id="SVGID_1_" gradientUnits="userSpaceOnUse" x1="358.5338" y1="262.2572" x2="495.9753" y2="262.2572" gradientTransform="matrix(1 0 0 1 0 76)">
			<stop  offset="0" style="stop-color:#430027"/>
			<stop  offset="1" style="stop-color:#560029"/>
		</linearGradient>
		<path class="st1" d="M478.2,285c-0.4,3-0.9,5.9-1,8.9c-0.1,3.4-3.2,19.4-21.5,37.1c-10.1,9.7-38.5,12-48.7,12s-25.9-5.6-34.4-16.5
			S359.7,299,359.7,299l-1-0.6c0,0-6.1,96.4,55.6,93.3c68.5-3.4,85.5-77,81-95.1C494.6,294.2,491.2,282.9,478.2,285z"/>
		
			<linearGradient id="SVGID_00000129177072166459896200000010612291611773710473_" gradientUnits="userSpaceOnUse" x1="404.7" y1="232.5557" x2="476.7" y2="232.5557" gradientTransform="matrix(1 0 0 1 0 76)">
			<stop  offset="0" style="stop-color:#430027"/>
			<stop  offset="1" style="stop-color:#560029"/>
		</linearGradient>
		<path style="fill-rule:evenodd;clip-rule:evenodd;fill:url(#SVGID_00000129177072166459896200000010612291611773710473_);" d="
			M404.7,307.6l3.6-5.8c0,0,27.2-8.7,42.9-0.2c8.5,4.6,20.8,6.6,25.5,2.8c0,0-4.5,14-12.4,14.8s-13.9-11.3-26.5-10.2
			s-33.1,1.7-33.1,1.7V307.6z"/>
		
			<linearGradient id="SVGID_00000175317188564445966590000014218392271612492479_" gradientUnits="userSpaceOnUse" x1="-2234.71" y1="233.019" x2="-2189.21" y2="233.019" gradientTransform="matrix(-1 0 0 1 -1829.41 76)">
			<stop  offset="0" style="stop-color:#430027"/>
			<stop  offset="1" style="stop-color:#560029"/>
		</linearGradient>
		<path style="fill-rule:evenodd;clip-rule:evenodd;fill:url(#SVGID_00000175317188564445966590000014218392271612492479_);" d="
			M405.3,307.6l-4.9-6c0,0-19.9-6.3-24.5,0s-13.1,6.6-16.1,2.8c0,0,2.9,14,7.8,14.8s8.8-11.3,16.8-10.2s20.9,1.7,20.9,1.7
			L405.3,307.6L405.3,307.6z"/>
	</g>
</g>
<path class="st4" d="M382.1,312.5c0,0,5.5,3.1,17.5,2.2s36.1,1.4,40.2-1.5l1.8,1.7c0,0-25.1,2.5-34.8,3.3
	c-9.1,0.7-12.4,2.5-20.5-1.2l-3.1-2.9L382.1,312.5z"/>
<path class="st4" d="M396.5,321.8c4.7,1.5,9.7,1.8,14.6,0.6c0,0-1.4,0.8-6.4,2.1C401.1,325.4,396.5,321.8,396.5,321.8z"/>
</svg>
