<?xml version="1.0" encoding="utf-8"?>
<!-- Generator: Adobe Illustrator 25.4.1, SVG Export Plug-In . SVG Version: 6.00 Build 0)  -->
<svg version="1.1" id="Layer_1" xmlns="http://www.w3.org/2000/svg" xmlns:xlink="http://www.w3.org/1999/xlink" x="0px" y="0px"
	 viewBox="0 0 837.3 1537" style="enable-background:new 0 0 837.3 1537;" xml:space="preserve">
<style type="text/css">
	.st0{fill:none;}
	.st1{fill-rule:evenodd;clip-rule:evenodd;fill:#7C5F47;}
	.st2{fill-rule:evenodd;clip-rule:evenodd;fill:#70503A;}
	.st3{fill-rule:evenodd;clip-rule:evenodd;fill:#77563F;}
	.st4{fill-rule:evenodd;clip-rule:evenodd;fill:#4C2C20;}
</style>
<g id="Layer_2_00000144316116511992635460000002956120186259969163_">
	<g id="base">
		<rect class="st0" width="837.3" height="1537"/>
	</g>
	<g id="nose_02">
		<path class="st1" d="M378.6,282.2c0,0-2.5-7.5,6.3-16c0,0,8.9-7.2,19-3s10.8,5.4,10.8,5.4s-0.6,7.9-0.9,10.1
			c0,0-13.5,4.5-18.7,6.9S378.6,282.2,378.6,282.2z"/>
		<path class="st2" d="M413.3,267c0,0,4.9,3.6,3.2,12.8l-14,5.3l10.3-6.6C415.1,275.1,415.3,270.7,413.3,267z"/>
		<path class="st3" d="M378.6,282.2c0,0,6.7,3.2,19.5,1.2c0,0,9.3-4,15.8-4.7c0,0-6.3,4.5-14,10.4c0,0-2,3-11.6,1.1
			C388.2,290.3,383.5,288.4,378.6,282.2z"/>
		<path class="st4" d="M403.9,285.7c0,0,3.7-6,9.7-4.8C413.6,280.9,410.5,284.1,403.9,285.7z"/>
	</g>
</g>
</svg>
