<svg xmlns="http://www.w3.org/2000/svg" xmlns:xlink="http://www.w3.org/1999/xlink" viewBox="0 0 837.33 1537"><defs><style>.cls-1{isolation:isolate;}.cls-2{fill:none;}.cls-3,.cls-4,.cls-5,.cls-6,.cls-7{fill-rule:evenodd;}.cls-3{mix-blend-mode:multiply;opacity:0.21;fill:url(#Áåçûìÿííûé_ãðàäèåíò_204);}.cls-4{fill:url(#Áåçûìÿííûé_ãðàäèåíò_100);}.cls-5{fill:url(#Áåçûìÿííûé_ãðàäèåíò_104);}.cls-6{fill:url(#Áåçûìÿííûé_ãðàäèåíò_100-2);}.cls-7{fill:#dd6668;}</style><linearGradient id="Áåçûìÿííûé_ãðàäèåíò_204" x1="449.54" y1="388.4" x2="449.54" y2="293.07" gradientUnits="userSpaceOnUse"><stop offset="0.01" stop-color="#d195ab"/><stop offset="0.99" stop-color="#985e40"/></linearGradient><linearGradient id="Áåçûìÿííûé_ãðàäèåíò_100" x1="434.18" y1="364.85" x2="434.18" y2="142.33" gradientUnits="userSpaceOnUse"><stop offset="0" stop-color="#ffa486"/><stop offset="1" stop-color="#ffb886"/></linearGradient><linearGradient id="Áåçûìÿííûé_ãðàäèåíò_104" x1="309.7" y1="598.49" x2="309.53" y2="586.06" gradientTransform="matrix(-0.26, 0.13, 0.31, 0.64, 316.17, -58.09)" gradientUnits="userSpaceOnUse"><stop offset="0" stop-color="#ff7f66"/><stop offset="1" stop-color="#ec887e"/></linearGradient><linearGradient id="Áåçûìÿííûé_ãðàäèåíò_100-2" x1="550.76" y1="255.19" x2="549.89" y2="193.47" gradientTransform="matrix(0.76, -0.06, 0.07, 0.84, 72.7, 117.5)" xlink:href="#Áåçûìÿííûé_ãðàäèåíò_100"/></defs><g class="cls-1"><g id="Layer_2" data-name="Layer 2"><g id="base"><rect class="cls-2" width="837.33" height="1537"/></g><g id="headnNeck_02"><path class="cls-3" d="M399.89,376.94s11.76,21.6,50.69,5.48,48.61-70.84,48.61-70.84l-.59-14.06-4.05-4.45-90.37,70.67Z"/><path class="cls-4" d="M493.73,308.34c-7.45,30-42.57,55.18-54,55.18-6.44,0-20.28-2.77-20.28-2.77-16.31,4.82-20.45,4.88-24.12,2.77s-6.58-7.09-18.59-26.88c-12.69-20.89-17.64-38-19.69-59.44-.68-7.23,2.28-17.26,4.19-20.15a19.82,19.82,0,0,1,3-3.78c1.82-12-2.64-25.76-2.64-25.76s-6.27-6.42-6.57-14.36,4-12,6.42-17.48,4.26-19.12,6.76-23.22c13.45-22.08,60-32.75,82.49-29.56,36.06,5.09,61,37.93,62.32,54.64C515.77,232.41,499.3,285.9,493.73,308.34Z"/><path class="cls-5" d="M418.41,353.1s-1.07,1.71,1.26,7.74l2.14.35S418.43,356.8,418.41,353.1Z"/></g><g id="ear"><path class="cls-6" d="M489.91,265s7.93-17,25.46-21.54c0,0,11.63,3.51,10,20.29,0,0-3.12,29.39-24.5,33.1A13.5,13.5,0,0,1,486.4,286.7S485.29,270.41,489.91,265Z"/><path class="cls-7" d="M492.51,278.29s10.55-19.84,23.27-22.16c0,0,6.75,3,5.4,14.24,0,0-2.26-8.1-4.89-10C516.29,260.41,501.42,267.43,492.51,278.29Z"/><path class="cls-7" d="M495.52,276.4s-.2,7.22,5.36,7.38,11-7.38,12-17.3c0,0-4.68,10.32-10.61,12.27a35.2,35.2,0,0,1,1.54-11.52S497.72,267.79,495.52,276.4Z"/></g></g></g></svg>