<svg xmlns="http://www.w3.org/2000/svg" xmlns:xlink="http://www.w3.org/1999/xlink" viewBox="0 0 837.33 1537"><defs><style>.cls-1{fill:none;}.cls-2,.cls-3,.cls-4{fill-rule:evenodd;}.cls-2{fill:url(#Áåçûìÿííûé_ãðàäèåíò_47);}.cls-3{fill:url(#Áåçûìÿííûé_ãðàäèåíò_23);}.cls-4{fill:url(#Áåçûìÿííûé_ãðàäèåíò_23-2);}</style><linearGradient id="Áåçûìÿííûé_ãðàäèåíò_47" x1="387.02" y1="366.62" x2="438.96" y2="366.62" gradientUnits="userSpaceOnUse"><stop offset="0" stop-color="#36062c"/><stop offset="1" stop-color="#441b3e"/></linearGradient><linearGradient id="Áåçûìÿííûé_ãðàäèåíò_23" x1="407.05" y1="325.55" x2="416" y2="303.6" gradientUnits="userSpaceOnUse"><stop offset="0" stop-color="#ce595b"/><stop offset="1" stop-color="#d67261"/></linearGradient><linearGradient id="Áåçûìÿííûé_ãðàäèåíò_23-2" x1="396.47" y1="323.19" x2="411.04" y2="323.19" xlink:href="#Áåçûìÿííûé_ãðàäèåíò_23"/></defs><g id="Layer_2" data-name="Layer 2"><g id="base"><rect class="cls-1" width="837.33" height="1537"/></g><g id="mouth_08"><path class="cls-2" d="M438.05,365.83a62.83,62.83,0,0,0,.44-18.58c-4.56,2.23-8.2,4.19-21.07,1.18-5.56-1.31,0-17.5,0-17.5s-10.71,1.36-13.37,1.31a103.38,103.38,0,0,1-10.88-1.55s11.49,17,3.3,16.68c-3.67-.15-4.83,1.32-9.45-1.67.89,4.17-.08,15,1.7,25.52,0-.31,0-.62,0-.93,0-.79,1.42,5.07,1.6,7.61h0a33.52,33.52,0,0,0,2,5c.18.37.39.77.61,1.19-.52-3-1-6.13-.1-9.14.21-.76,1.05,7.28,1.61,10.7.08.49.14,1,.2,1.46.84,1.39,4.1,3.1,4.05,6,.95,1.25,2,2.47,3,3.59a25.7,25.7,0,0,1,0-3c.06-.79,1.16,2.95,1.34,4.41,2.68,2.56,5.57,4.37,8.39,4.46a10.85,10.85,0,0,1,1.77-3.55c.21-.26-.14,2.49-.46,3.41a16.29,16.29,0,0,0,4.76-2.59c0-.38,0-.75,0-1.13a.61.61,0,0,1,.61-.61c.33,0,.61.75.62.82a47.6,47.6,0,0,0,10.38-13.2,31.91,31.91,0,0,1-4.56,8.74c6.38-4.75,6.31-8.53,7-9.63.07-2.06,1.7-6.95,1.63-6.16-.12,1.29-.22,2.58-.29,3.87a15.49,15.49,0,0,0,1.05-2.41c.5-1.53,1-3,1.46-4.44-.05-2.28,1.12-7.65,1.12-6.86,0,1.06,0,2.11,0,3.16.1-.33.19-.66.28-1C436.77,368.2,438.07,364.78,438.05,365.83Z"/><path class="cls-3" d="M382.15,312.53s5.51,3.14,17.45,2.22,36.13,1.43,40.18-1.45l1.79,1.7s-25.15,2.55-34.83,3.26c-9.09.66-12.44,2.47-20.46-1.22l-3.06-2.85Z"/><path class="cls-4" d="M396.47,321.76a27,27,0,0,0,14.57.63s-1.36.82-6.35,2.09C401.07,325.4,396.47,321.76,396.47,321.76Z"/></g></g></svg>