<?xml version="1.0" encoding="utf-8"?>
<!-- Generator: Adobe Illustrator 25.4.1, SVG Export Plug-In . SVG Version: 6.00 Build 0)  -->
<svg version="1.1" id="Layer_1" xmlns="http://www.w3.org/2000/svg" xmlns:xlink="http://www.w3.org/1999/xlink" x="0px" y="0px"
	 viewBox="0 0 837.3 1537" style="enable-background:new 0 0 837.3 1537;" xml:space="preserve">
<style type="text/css">
	.st0{fill:none;}
	.st1{fill-rule:evenodd;clip-rule:evenodd;fill:url(#SVGID_1_);}
	.st2{fill-rule:evenodd;clip-rule:evenodd;fill:#CCB293;}
	.st3{fill-rule:evenodd;clip-rule:evenodd;fill:#C69A6D;}
</style>
<g id="Layer_2_00000130646592106418716830000002972368868097267103_">
	<g id="base">
		<rect class="st0" width="837.3" height="1537"/>
	</g>
	<g id="nose_05">
		<linearGradient id="SVGID_1_" gradientUnits="userSpaceOnUse" x1="380.9561" y1="273.85" x2="396" y2="273.85">
			<stop  offset="0" style="stop-color:#E2C7A1"/>
			<stop  offset="1" style="stop-color:#C69A6D"/>
		</linearGradient>
		<path class="st1" d="M396,255.3c-3.6,6.9-18,23-14.5,30.8l13.5,6.3c0,0-8.7-4.6-10.8-8.1C382.5,281.4,392.4,264.1,396,255.3z"/>
		<path class="st2" d="M381.6,286.2c0,0,6.7,3.2,19.5,1.2c0,0,2.4-1.5,10.2,0.2c0,0-3.1-0.5-10.8,5.4c0,0-3.6,2.1-9,0
			C391.5,293.1,387.8,290.5,381.6,286.2z"/>
		<path class="st3" d="M401,292.6c0,0,3.7-6,9.7-4.8C410.7,287.8,407.6,291,401,292.6z"/>
	</g>
</g>
</svg>
