<svg xmlns="http://www.w3.org/2000/svg" xmlns:xlink="http://www.w3.org/1999/xlink" viewBox="0 0 837.33 1537"><defs><style>.cls-1{fill:none;}.cls-2,.cls-3,.cls-4{fill-rule:evenodd;}.cls-2{fill:url(#Áåçûìÿííûé_ãðàäèåíò_23);}.cls-3{fill:#fff4c9;}.cls-4{fill:url(#Áåçûìÿííûé_ãðàäèåíò_104);}</style><linearGradient id="Áåçûìÿííûé_ãðàäèåíò_23" x1="400.14" y1="329.04" x2="413.84" y2="295.43" gradientUnits="userSpaceOnUse"><stop offset="0" stop-color="#ce595b"/><stop offset="1" stop-color="#d67261"/></linearGradient><linearGradient id="Áåçûìÿííûé_ãðàäèåíò_104" x1="431.66" y1="307.37" x2="435.16" y2="298.78" gradientUnits="userSpaceOnUse"><stop offset="0" stop-color="#ff7f66"/><stop offset="1" stop-color="#ec887e"/></linearGradient></defs><g id="Layer_2" data-name="Layer 2"><g id="base"><rect class="cls-1" width="837.33" height="1537"/></g><g id="mouth"><path class="cls-2" d="M382.75,313.25s5.51,3.13,17.46,2.21,27.87-9.68,31.92-12.57l1.8,1.7s-19.19,20.67-28.52,23.34c-7.94,2.27-13.62-1.9-18.52-10.17l-3.06-2.85Z"/><path class="cls-3" d="M390.82,317.45a115.18,115.18,0,0,0,33.42-7.91s-12.5,14.19-21.69,15.26S390.82,317.45,390.82,317.45Z"/><path class="cls-4" d="M427.89,301.38a14.24,14.24,0,0,1,9.09,8.16s2.08-7.39-3.05-11.27C433.93,298.27,429.29,300,427.89,301.38Z"/></g></g></svg>