<?xml version="1.0" encoding="utf-8"?>
<!-- Generator: Adobe Illustrator 25.4.1, SVG Export Plug-In . SVG Version: 6.00 Build 0)  -->
<svg version="1.1" id="Layer_1" xmlns="http://www.w3.org/2000/svg" xmlns:xlink="http://www.w3.org/1999/xlink" x="0px" y="0px"
	 viewBox="0 0 837.3 1537" style="enable-background:new 0 0 837.3 1537;" xml:space="preserve">
<style type="text/css">
	.st0{fill:none;}
	.st1{fill-rule:evenodd;clip-rule:evenodd;fill:url(#SVGID_1_);}
	.st2{fill-rule:evenodd;clip-rule:evenodd;fill:#AFAFAF;}
	.st3{fill:url(#SVGID_00000038413722196611220350000000569863483028631481_);}
	.st4{fill-rule:evenodd;clip-rule:evenodd;fill:url(#SVGID_00000176014109282417633660000001306602646040164998_);}
	.st5{fill-rule:evenodd;clip-rule:evenodd;fill:url(#SVGID_00000121979699626080604380000009433173832620381335_);}
	.st6{fill-rule:evenodd;clip-rule:evenodd;fill:#CC0000;}
	.st7{fill-rule:evenodd;clip-rule:evenodd;fill:#FFFFFF;}
	.st8{fill:none;stroke:url(#SVGID_00000059288731775357858880000008735808160581538703_);stroke-miterlimit:10;}
	.st9{fill:url(#SVGID_00000069387157520651370580000010207673550458450564_);}
	.st10{opacity:0.63;fill-rule:evenodd;clip-rule:evenodd;fill:#605B55;}
	.st11{fill:url(#SVGID_00000081615410009527517870000011654254003450717092_);}
	.st12{opacity:0.6;fill:url(#SVGID_00000074410521826281700880000013912824998757247667_);enable-background:new    ;}
	.st13{clip-path:url(#SVGID_00000072982785879999428060000011736088284231887747_);}
	.st14{fill-rule:evenodd;clip-rule:evenodd;fill:#FFF4C9;}
	.st15{fill-rule:evenodd;clip-rule:evenodd;fill:url(#SVGID_00000128486967830828452230000005558198533470155934_);}
	.st16{fill-rule:evenodd;clip-rule:evenodd;fill:#030F3A;}
</style>
<g>
	<g id="Layer_2_00000011728396269908368410000017639886653599842461_">
		<g id="base">
			<rect class="st0" width="837.3" height="1537"/>
		</g>
		<g id="eyes_07">
			
				<linearGradient id="SVGID_1_" gradientUnits="userSpaceOnUse" x1="443.5329" y1="1241.7994" x2="443.5329" y2="1336.1968" gradientTransform="matrix(1 0 0 -1 0 1538)">
				<stop  offset="0" style="stop-color:#A8A8A8"/>
				<stop  offset="1" style="stop-color:#919191"/>
			</linearGradient>
			<path class="st1" d="M445.7,279.3c0,0-13-16.7-27-19.9s-21-42.6,3.6-52.5s50.4-4.2,54.1,7.1s6.3,48,3.5,56.3s-6.7,32.5-19.8,24.1
				S445.7,279.3,445.7,279.3z"/>
			<path class="st2" d="M434.7,225.1c0,0-4.6-11.1,0-11.6s31.1,0.5,32.1,2.5s6.2,26.5,4.8,30.9s-1.6,19.6-1.8,20.4
				s-13.2,1.3-13.2,1.3l-5.5-5.8h-13L434.7,225.1z"/>
			
				<radialGradient id="SVGID_00000104666273818330392470000009612229654875763074_" cx="442.22" cy="1295.7" r="21.9819" gradientTransform="matrix(1 0 0 -1 0 1538)" gradientUnits="userSpaceOnUse">
				<stop  offset="0" style="stop-color:#565656"/>
				<stop  offset="1" style="stop-color:#474747"/>
			</radialGradient>
			
				<ellipse style="fill:url(#SVGID_00000104666273818330392470000009612229654875763074_);" cx="442.2" cy="242.3" rx="25.4" ry="18"/>
			
				<linearGradient id="SVGID_00000101097755034423575570000012462907575251057826_" gradientUnits="userSpaceOnUse" x1="445.5622" y1="1241.9299" x2="445.5622" y2="1336.2112" gradientTransform="matrix(1 0 0 -1 0 1538)">
				<stop  offset="0" style="stop-color:#666666"/>
				<stop  offset="1" style="stop-color:#454545"/>
			</linearGradient>
			<path style="fill-rule:evenodd;clip-rule:evenodd;fill:url(#SVGID_00000101097755034423575570000012462907575251057826_);" d="
				M422.3,206.9c-5.2,2.1-9.5,5.8-12.2,10.7c0.6-0.4,10.1-12.1,31.5-13.1c12-0.6,24.8,2.8,27.9,5.9s5.5,9.8,5.7,13.6
				s3.5,24,3.1,29.9c-0.2,2.5-0.2,10.8-0.5,13.4s-2.2,21-11.4,28.7c8.1-1.6,11.1-18.9,13.4-25.7c2.9-8.3,0.2-45-3.5-56.3
				S446.9,197,422.3,206.9z"/>
			
				<linearGradient id="SVGID_00000147219317811480693980000010144923996605892030_" gradientUnits="userSpaceOnUse" x1="432.25" y1="1297.7032" x2="456.61" y2="1297.7032" gradientTransform="matrix(1 0 0 -1 0 1538)">
				<stop  offset="0" style="stop-color:#231F20"/>
				<stop  offset="1" style="stop-color:#0D0B0C"/>
			</linearGradient>
			<path style="fill-rule:evenodd;clip-rule:evenodd;fill:url(#SVGID_00000147219317811480693980000010144923996605892030_);" d="
				M456.6,239.4c0,6.7-5.4,12.2-12.2,12.2c-6.7,0-12.2-5.4-12.2-12.2c0,0,0,0,0,0c0-6.7,4.4-10.4,11.1-10.4S456.6,232.7,456.6,239.4
				z"/>
			<path class="st6" d="M451.6,239.8c0,3.9-3.2,7.1-7.1,7.1c-3.9,0-7.1-3.2-7.1-7.1c0,0,0,0,0,0c0-3.9,2.6-6.1,6.5-6.1
				S451.6,235.8,451.6,239.8z"/>
			<path class="st7" d="M435.1,241.7c0,1-0.8,1.9-1.9,1.9c-1,0-1.9-0.8-1.9-1.9c0-1,0.8-1.9,1.9-1.9S435.1,240.6,435.1,241.7
				C435.1,241.7,435.1,241.7,435.1,241.7z"/>
			
				<linearGradient id="SVGID_00000127001774958854750170000014440268373869877913_" gradientUnits="userSpaceOnUse" x1="453.9746" y1="1268.8082" x2="453.9746" y2="1275.67" gradientTransform="matrix(1 0 0 -1 0 1538)">
				<stop  offset="0" style="stop-color:#231F20"/>
				<stop  offset="1" style="stop-color:#0D0B0C"/>
			</linearGradient>
			
				<polyline style="fill:none;stroke:url(#SVGID_00000127001774958854750170000014440268373869877913_);stroke-miterlimit:10;" points="
				438.1,262.8 451.1,262.8 456.6,268.7 469.8,267.4 			"/>
			
				<linearGradient id="SVGID_00000116205646457875913510000006151925168743891382_" gradientUnits="userSpaceOnUse" x1="449.1997" y1="1321.3201" x2="449.1997" y2="1325.6899" gradientTransform="matrix(1 0 0 -1 0 1538)">
				<stop  offset="0" style="stop-color:#231F20"/>
				<stop  offset="1" style="stop-color:#0D0B0C"/>
			</linearGradient>
			<path style="fill:url(#SVGID_00000116205646457875913510000006151925168743891382_);" d="M431.8,216.4c-0.1-0.3-0.2-0.7-0.2-1
				c0-0.3,0.1-0.6,0.2-0.9c0.2-0.5,0.6-1,1.1-1.3c0.8-0.4,1.7-0.7,2.5-0.7c1.7-0.1,3.1,0,4.6,0c3,0,6,0.1,9.1,0.2s6,0.3,9.1,0.6
				c1.5,0.2,3,0.4,4.5,0.7c1.5,0.2,2.9,0.8,4.1,1.8c-1.2-0.9-2.7-1.4-4.2-1.6c-1.5-0.2-3-0.4-4.5-0.5c-3-0.2-6-0.2-9-0.1
				s-6,0.2-9,0.3c-1.5,0.1-3.1,0-4.4,0.2c-0.6,0.1-1.2,0.3-1.8,0.6c-0.3,0.1-0.4,0.4-0.3,0.7L431.8,216.4z"/>
		</g>
	</g>
</g>
<path class="st10" d="M386.9,249.4c0,0,1.4-5.4,0.6-8.1s-2.9-6-9-6.3c-5.8-0.2-11.2,3.2-13.4,8.7c0,0,7.6-7.5,15.4-4.7
	C386.8,241.2,386.3,246.7,386.9,249.4z"/>
<linearGradient id="SVGID_00000168838125206059607810000010954809605888207514_" gradientUnits="userSpaceOnUse" x1="-1097.3546" y1="97.2302" x2="-1052.5446" y2="97.2302" gradientTransform="matrix(-0.81 -0.12 -0.16 1.08 -480.01 -4.9999)">
	<stop  offset="0" style="stop-color:#1B0618"/>
	<stop  offset="1" style="stop-color:#1B0E1A"/>
</linearGradient>
<path style="fill:url(#SVGID_00000168838125206059607810000010954809605888207514_);" d="M357.5,234.6c0,0,5.1-4.9,7.8-5.7l0,0
	c5.9-1.6,28.4,9.1,28.4,9.1s2-8.8,1.5-14.2l-0.6-0.1c0.1,2.3-0.1,4.5-0.4,6.7c0,0,0-5.7-0.8-6.9c0,0-15.5-1.5-20.4-2.3l-2.7-0.5
	l-1-0.2c-1.8-0.3-2.3-0.4-2.3-0.4l0.1-0.5C367.2,219.7,362.4,224.1,357.5,234.6z"/>
<linearGradient id="SVGID_00000010297110561516361660000016056343735373815739_" gradientUnits="userSpaceOnUse" x1="-1065.7146" y1="97.2688" x2="-1052.5446" y2="97.2688" gradientTransform="matrix(-0.81 -0.12 -0.16 1.08 -480.01 -4.9999)">
	<stop  offset="0" style="stop-color:#FFEADB"/>
	<stop  offset="0.99" style="stop-color:#6A3B00"/>
</linearGradient>
<path style="opacity:0.6;fill:url(#SVGID_00000010297110561516361660000016056343735373815739_);enable-background:new    ;" d="
	M357.5,234.6c0,0,5.1-4.9,7.8-5.7l0,0c1.3-2.9,3-5.6,5.1-8.1l-1-0.2c-2.5,2.3-7.4,8.6-7.4,8.6c1.4-3.3,3.1-6.5,5.2-9.5
	C367.2,219.7,362.4,224.1,357.5,234.6z"/>
<g>
	<defs>
		<path id="SVGID_00000155852309083159865310000009399900068589325994_" d="M365.1,243.7c0,0,6.4-7,14.8-4.9c7.4,1.9,7,10.6,7,10.6
			l-0.7,6.9c0,0-18.4-3.3-21.2-9.9C365,246.4,364.4,244.3,365.1,243.7z"/>
	</defs>
	<clipPath id="SVGID_00000013902324354670640420000000703698822309315002_">
		<use xlink:href="#SVGID_00000155852309083159865310000009399900068589325994_"  style="overflow:visible;"/>
	</clipPath>
	<g style="clip-path:url(#SVGID_00000013902324354670640420000000703698822309315002_);">
		<path class="st14" d="M365,246.4c5.9,8.2,17.1,8.9,21.2,9.9c1.3-5.7,1.9-17.2-5.4-20c-1-0.4-2-0.6-3-0.7l0,0
			c-4.5-0.4-8.6,2.2-10.9,5.2C365.3,242.7,364.1,245.3,365,246.4z"/>
		
			<linearGradient id="SVGID_00000067222450464870673560000000118805645152920971_" gradientUnits="userSpaceOnUse" x1="379.4662" y1="216.55" x2="379.4662" y2="197.7268" gradientTransform="matrix(1 0 0 1 0 38)">
			<stop  offset="3.790556e-02" style="stop-color:#7F6300"/>
			<stop  offset="1" style="stop-color:#422800"/>
		</linearGradient>
		<path style="fill-rule:evenodd;clip-rule:evenodd;fill:url(#SVGID_00000067222450464870673560000000118805645152920971_);" d="
			M386.8,249.4c-1.3,3.1-3.9,5.2-6.8,5.2c-4.4,0-8-4.8-8-10.8c0-4.4,1.9-6.1,4.7-7.8l0,0c2.5,0.2,4.9-0.9,6.8,0.5v0.1
			c0.5,0.8,1,1.7,1.4,2.6c0,0,0.1,0.1,0,0.1c0.7,1.1,1.1,2.3,1.2,3.5C386.9,244.9,387.1,247.2,386.8,249.4z"/>
		<path class="st16" d="M386.4,243.8c0,4-2.4,7.1-5.3,7.1s-5.3-3.2-5.3-7.1s2.4-7.1,5.3-7.1c1.7,0.1,3.2,1,4,2.4c0,0,0.1,0.1,0,0.1
			c0.7,1.1,1.1,2.3,1.2,3.5C386.3,243.1,386.3,243.4,386.4,243.8z"/>
		<path class="st7" d="M373.9,244.2c0,1-0.8,1.9-1.9,1.9c-1,0-1.9-0.8-1.9-1.9c0-1,0.8-1.9,1.9-1.9
			C373,242.3,373.9,243.1,373.9,244.2L373.9,244.2z"/>
	</g>
</g>
</svg>
