<svg xmlns="http://www.w3.org/2000/svg" xmlns:xlink="http://www.w3.org/1999/xlink" viewBox="0 0 837.33 1537"><defs><style>.cls-1{fill:none;}.cls-10,.cls-2,.cls-3,.cls-4,.cls-5,.cls-6,.cls-7,.cls-8,.cls-9{fill-rule:evenodd;}.cls-2{fill:url(#Áåçûìÿííûé_ãðàäèåíò_104);}.cls-3{fill:url(#Áåçûìÿííûé_ãðàäèåíò_104-2);}.cls-4{fill:url(#Áåçûìÿííûé_ãðàäèåíò_100);}.cls-5{fill:url(#Áåçûìÿííûé_ãðàäèåíò_100-2);}.cls-6{fill:url(#Áåçûìÿííûé_ãðàäèåíò_100-3);}.cls-7{fill:url(#Áåçûìÿííûé_ãðàäèåíò_104-3);}.cls-8{fill:url(#Áåçûìÿííûé_ãðàäèåíò_104-4);}.cls-9{fill:url(#Áåçûìÿííûé_ãðàäèåíò_104-5);}.cls-10{fill:url(#Áåçûìÿííûé_ãðàäèåíò_100-4);}</style><linearGradient id="Áåçûìÿííûé_ãðàäèåíò_104" x1="653.3" y1="934.88" x2="652.82" y2="900.25" gradientUnits="userSpaceOnUse"><stop offset="0" stop-color="#ff7f66"/><stop offset="1" stop-color="#ec887e"/></linearGradient><linearGradient id="Áåçûìÿííûé_ãðàäèåíò_104-2" x1="627.08" y1="900.26" x2="626.44" y2="855.2" xlink:href="#Áåçûìÿííûé_ãðàäèåíò_104"/><linearGradient id="Áåçûìÿííûé_ãðàäèåíò_100" x1="798.3" y1="435.87" x2="626.72" y2="614.55" gradientTransform="matrix(1, 0, 0, 1, -0.3, 0.39)" gradientUnits="userSpaceOnUse"><stop offset="0" stop-color="#ffa486"/><stop offset="1" stop-color="#ffb886"/></linearGradient><linearGradient id="Áåçûìÿííûé_ãðàäèåíò_100-2" x1="623.34" y1="602.98" x2="599.79" y2="564.81" gradientTransform="matrix(1, 0, 0, 1, 0, 0)" xlink:href="#Áåçûìÿííûé_ãðàäèåíò_100"/><linearGradient id="Áåçûìÿííûé_ãðàäèåíò_100-3" x1="674.76" y1="940.55" x2="674.76" y2="653.22" gradientTransform="matrix(1, 0, 0, 1, 0, 0)" xlink:href="#Áåçûìÿííûé_ãðàäèåíò_100"/><linearGradient id="Áåçûìÿííûé_ãðàäèåíò_104-3" x1="664.67" y1="939.67" x2="664.3" y2="913.14" xlink:href="#Áåçûìÿííûé_ãðàäèåíò_104"/><linearGradient id="Áåçûìÿííûé_ãðàäèåíò_104-4" x1="688.39" y1="940.69" x2="688.13" y2="922.8" xlink:href="#Áåçûìÿííûé_ãðàäèåíò_104"/><linearGradient id="Áåçûìÿííûé_ãðàäèåíò_104-5" x1="709.89" y1="938.45" x2="709.77" y2="929.53" xlink:href="#Áåçûìÿííûé_ãðàäèåíò_104"/><linearGradient id="Áåçûìÿííûé_ãðàäèåíò_100-4" x1="673.05" y1="922.01" x2="673.05" y2="657.56" gradientTransform="matrix(1, 0, 0, 1, 0, 0)" xlink:href="#Áåçûìÿííûé_ãðàäèåíò_100"/></defs><g id="Layer_2" data-name="Layer 2"><g id="base"><rect class="cls-1" width="837.33" height="1537"/></g><g id="L_arm_01"><path class="cls-2" d="M630,930.51s-6.74-15-5.21-25.72c0,0,8.58-5.06,23.58-4.37S681.43,917,681.43,917v17.46Z"/><path class="cls-3" d="M620.19,855.8s-5.1,29.6-10.41,43.88c0,0,11.29,3.66,24.9-5.3s8.22-33.68,8.22-33.68S628.56,853.15,620.19,855.8Z"/><path class="cls-4" d="M717.17,682.43s12.33,50.19-46.94,38.22c-10.52-2.12-32.44-18.57-42-33.23,0,0-9.4-17.17-9.35-22.64-23.9-13-34.27-60.49-25.6-79.28-1.44-3.93-17.34-11.9-19.7-14.76-24.76-30.1-11.16-71.85-3.46-81.55,12.11-15.28,24.23-33.18,45-36.17,27.16-3.89,36.6,16,43.56,21.87s22.9,47.55,24.15,76.94,28.85,87.28,29,88.07C713.29,645.38,717.17,682.43,717.17,682.43Z"/><path class="cls-5" d="M642.07,616.82c3,11.47,5.57,9.59.69,36.26,0,0,2-36.06-21.79-66C621,587.06,639.07,605.34,642.07,616.82Z"/><path class="cls-6" d="M681.43,799.48c-19.2.4-22.83,13.63-23.25,14.7,0,0-19,4.9-26.94,11s-11.07,30.66-11.07,30.66l22.73,4.85s5.14-3,11.26,1.23c0,0-5.34,34-10.68,47.81a44.3,44.3,0,0,1-3.72,7,144.76,144.76,0,0,1-9.8,13.72s1.28,3.09,5.83,6.76,16.56,2.16,16.56,2.16l6.47-3.68s-1,2.16,3.92,4,22,0,22,0a37.07,37.07,0,0,0,10.14.83c6.42-.24,9.16-2.35,16.8-2.35s10.73-.63,13.77-2.45c.78-.44,1.71-3.28,2.5-8.23,2.4-15.38,3-50.75-10.29-96.11C717.36,826.77,715.64,798.77,681.43,799.48Z"/><path class="cls-7" d="M658.82,935.71s8.52-10.72,11.28-22.66c0,0-.92,15-7.35,26.65A4.52,4.52,0,0,1,658.82,935.71Z"/><path class="cls-8" d="M684.79,939.7s5-4.91,6.84-17c0,0,.82,7-1.93,17.66C689.7,940.41,687.7,941.4,684.79,939.7Z"/><path class="cls-9" d="M706.86,938.49s3.19-1.59,5.8-9a18.1,18.1,0,0,1-.92,8.67Z"/><path class="cls-10" d="M641.87,760.3c9.5,20.77,19.69,45.26,16.31,53.88l-.77.21a7.29,7.29,0,0,1,.83,3.83c-.11,3.24-.86,32.13,30,33.1,13.54.42,25.64-11.3,29.43-19.94-4.6-62.8,6-109.83,1.13-140.74a59.28,59.28,0,0,0-4.31-15.19s-15.83-20.21-39.76-17.67c-13.44,1.42-39.76,5.53-46.61,29.62,0,0-4.9,29.4,0,42.87C630.06,735.51,635.79,747.17,641.87,760.3Z"/></g></g></svg>