<svg xmlns="http://www.w3.org/2000/svg" xmlns:xlink="http://www.w3.org/1999/xlink" viewBox="0 0 837.33 1537"><defs><style>.cls-1{fill:none;}.cls-2{fill:url(#Áåçûìÿííûé_ãðàäèåíò_23);}.cls-3{fill:#fff4c9;}</style><linearGradient id="Áåçûìÿííûé_ãðàäèåíò_23" x1="384.81" y1="320.83" x2="438.49" y2="320.83" gradientUnits="userSpaceOnUse"><stop offset="0" stop-color="#ce595b"/><stop offset="1" stop-color="#d67261"/></linearGradient></defs><g id="Layer_2" data-name="Layer 2"><g id="base"><rect class="cls-1" width="837.33" height="1537"/></g><g id="mouth_03"><path class="cls-2" d="M384.81,317.44c.2.22.41.42.6.64.78.9,1.55,1.8,2.33,2.69l.08.09.11-.12c.7-.81,1.37-1.64,2.08-2.44a43.7,43.7,0,0,1,3.69-3.64,44.35,44.35,0,0,1,5.58-4.15c.81-.51,1.65-1,2.49-1.43s1.49-.8,2.26-1.16,1.32-.57,2-.86l.13-.09,3.76-1.37a.17.17,0,0,0,.1,0l.77-.23a23,23,0,0,1,2.31-.59,26.77,26.77,0,0,1,3.21-.5,20.42,20.42,0,0,1,5.68.22,16.34,16.34,0,0,1,5.92,2.37,17.77,17.77,0,0,1,2.84,2.34c1.7,1.67,8.19,9.41,7.72,14.49s-2.79,8.91-3.35,11.37a.69.69,0,0,1-.05.13l-40.47,2.27v0l1.74-.63c0-.11-.08-.2-.12-.29-.28-.66-.55-1.33-.83-2l-.83-2-.84-2-.84-2c-.27-.67-.55-1.33-.83-2-.15-.37-.31-.74-.46-1.12-.08-.19-.15-.39-.23-.61l1.41-.2c.45-.07.91-.12,1.4-.23l-3.07-5.07c-1.17,1.29-2.22,2.62-3.26,4l-.42-.8c-.25-.5-.51-1-.77-1.5l-.78-1.52-.93-1.82s0,0-.06,0Zm49,1c-.17-.5-.34-1-.55-1.5-.31-.74-.63-1.47-1-2.19a19.23,19.23,0,0,0-2.45-3.86,13.91,13.91,0,0,0-3.64-3.2,12.82,12.82,0,0,0-3.9-1.61,17.08,17.08,0,0,0-5.19-.37,24.15,24.15,0,0,0-3,.42c-.69.14-1.39.31-2.08.49s-1.31.34-2,.53c-.39.11-.77.26-1.15.39-.95.35-1.91.69-2.85,1.06-.53.21-1,.46-1.54.7l-.92.44c-.39.2-.78.39-1.16.6-.63.35-1.26.7-1.88,1.08a36.82,36.82,0,0,0-4.08,2.85c-.8.66-1.61,1.31-2.36,2l-1,.94,2.52,6.89L433.94,319C433.88,318.78,433.84,318.59,433.77,318.41Zm-40,7.39.9,2.58.42,1.19,1.11,3.19,1.11,3.17c.06.17.11.36.17.56l35.82-2.84c.08-.43.16-.84.23-1.24.27-1.63.53-3.26.67-4.9a25.88,25.88,0,0,0,.08-4.13,11,11,0,0,0-.41-2.28s0,0,0-.09l-40.21,4.37Z"/><path class="cls-3" d="M433.94,319c-.06-.21-.1-.4-.17-.58-.17-.5-.34-1-.55-1.5-.31-.74-.63-1.47-1-2.19a19.23,19.23,0,0,0-2.45-3.86,13.91,13.91,0,0,0-3.64-3.2,12.82,12.82,0,0,0-3.9-1.61,17.08,17.08,0,0,0-5.19-.37,24.15,24.15,0,0,0-3,.42c-.69.14-1.39.31-2.08.49s-1.31.34-2,.53c-.39.11-.77.26-1.15.39-.95.35-1.91.69-2.85,1.06-.53.21-1,.46-1.54.7l-.92.44c-.39.2-.78.39-1.16.6-.63.35-1.26.7-1.88,1.08a36.82,36.82,0,0,0-4.08,2.85c-.8.66-1.61,1.31-2.36,2l-1,.94,2.52,6.89Z"/><path class="cls-3" d="M393.59,325.38l.15.42.9,2.58.42,1.19,1.11,3.19,1.11,3.17c.06.17.11.36.17.56l35.82-2.84c.08-.43.16-.84.23-1.24.27-1.63.53-3.26.67-4.9a25.88,25.88,0,0,0,.08-4.13,11,11,0,0,0-.41-2.28s0,0,0-.09Z"/></g></g></svg>