<?xml version="1.0" encoding="utf-8"?>
<!-- Generator: Adobe Illustrator 25.4.1, SVG Export Plug-In . SVG Version: 6.00 Build 0)  -->
<svg version="1.1" id="Layer_1" xmlns="http://www.w3.org/2000/svg" xmlns:xlink="http://www.w3.org/1999/xlink" x="0px" y="0px"
	 viewBox="0 0 837.3 1537" style="enable-background:new 0 0 837.3 1537;" xml:space="preserve">
<style type="text/css">
	.st0{fill:none;}
	.st1{opacity:0.46;fill:#AA9996;}
	.st2{opacity:0.62;fill:#685A59;}
	.st3{opacity:0.33;fill:#AA9996;}
	.st4{fill:url(#SVGID_1_);}
	.st5{opacity:0.6;fill:url(#SVGID_00000114074757434234102340000010614253182253038736_);enable-background:new    ;}
	.st6{fill:url(#SVGID_00000029033651572312581180000010830007289799698319_);}
	.st7{opacity:0.6;fill:url(#SVGID_00000053507476374623888770000013379716188975337373_);enable-background:new    ;}
	.st8{clip-path:url(#SVGID_00000067921933587317575780000003580722765484138155_);}
	.st9{fill:url(#SVGID_00000060026251237919996350000008505318973021566382_);}
	.st10{fill:url(#SVGID_00000063591699830372348330000005862876534318338706_);}
	.st11{fill:url(#SVGID_00000145759486864145775400000008970014172636265906_);}
	.st12{fill:url(#SVGID_00000158744531967752915660000005344753810483987385_);}
	.st13{fill:#FFFFFF;}
	.st14{opacity:0.6;fill:#B42F97;enable-background:new    ;}
	.st15{fill:#270039;}
	.st16{clip-path:url(#SVGID_00000036958498765225536100000007144627418733853070_);}
	.st17{fill:url(#SVGID_00000026852079565583711760000002307398631933835653_);}
	.st18{fill:url(#SVGID_00000138534150073936006630000011126168486044702900_);}
	.st19{fill:url(#SVGID_00000153691143464482358510000007243252053021311383_);}
	.st20{fill:url(#SVGID_00000144326438960071118530000004983535566632105615_);}
</style>
<g>
	<g id="Layer_2_00000181046928855949752840000010230556504832913294_">
		<g id="base">
			<rect class="st0" width="837.3" height="1537"/>
		</g>
		<g id="eyes">
			<path class="st1" d="M425.2,249.1c-0.1,1.8,0.8,3.5,2.3,4.6c0,0-3-0.4-3.3-1.6S425.2,249.1,425.2,249.1z"/>
			<path class="st2" d="M427.5,253.6c0,0,8,3.5,19.7,2.4c8.6-0.8,11.5-5.9,11.5-5.9S448.1,255.8,427.5,253.6z"/>
			<path class="st3" d="M427.5,245.1c0,0,4.5-9.9,15.2-10.9s15.1,6.1,15.1,6.1S438.4,235.5,427.5,245.1z"/>
			
				<linearGradient id="SVGID_1_" gradientUnits="userSpaceOnUse" x1="405.1194" y1="1264.0031" x2="449.9294" y2="1264.0031" gradientTransform="matrix(1.04 -0.15 -0.16 -1.08 202.13 1658.42)">
				<stop  offset="0" style="stop-color:#36063B"/>
				<stop  offset="1" style="stop-color:#4D0E2E"/>
			</linearGradient>
			<path class="st4" d="M469.8,233.7c0,0-6.3-4.7-9.8-5.4l0,0c-7.5-1.4-36.9,10.4-36.9,10.4s-2.2-8.7-1.3-14.3l0.7-0.1
				c0,0-0.3,4.9,0.2,6.8c0,0,0.2-5.8,1.3-7c0,0,20-2.1,26.3-3.2l3.5-0.6l1.3-0.2c2.4-0.4,3-0.5,3-0.5l-0.1-0.5
				C458,219.1,464,223.3,469.8,233.7z"/>
			
				<linearGradient id="SVGID_00000038373297239370062020000008991512803978058406_" gradientUnits="userSpaceOnUse" x1="436.7594" y1="1264.0082" x2="449.9294" y2="1264.0082" gradientTransform="matrix(1.04 -0.15 -0.16 -1.08 202.13 1658.42)">
				<stop  offset="0" style="stop-color:#FFEADB"/>
				<stop  offset="0.99" style="stop-color:#D177F4"/>
			</linearGradient>
			<path style="opacity:0.6;fill:url(#SVGID_00000038373297239370062020000008991512803978058406_);enable-background:new    ;" d="
				M469.8,233.7c0,0-6.3-4.7-9.8-5.4l0,0c-1.7-2.9-3.7-5.6-6.2-8l1.3-0.2c3.2,2.2,9.2,8.3,9.2,8.3c-1.8-4.2-6.2-9.3-6.2-9.3
				S464,223.3,469.8,233.7z"/>
			
				<linearGradient id="SVGID_00000157989419411527484360000018081804346861927320_" gradientUnits="userSpaceOnUse" x1="-372.0973" y1="1360.2386" x2="-327.2873" y2="1360.2386" gradientTransform="matrix(-0.81 -0.12 0.16 -1.08 -125.75 1656.1201)">
				<stop  offset="0" style="stop-color:#36063B"/>
				<stop  offset="1" style="stop-color:#4D0E2E"/>
			</linearGradient>
			<path style="fill:url(#SVGID_00000157989419411527484360000018081804346861927320_);" d="M357.5,234.6c0,0,5.1-4.9,7.8-5.7l0,0
				c5.9-1.6,28.4,9.1,28.4,9.1s2-8.8,1.5-14.2l-0.6-0.1c0.1,2.3-0.1,4.5-0.4,6.7c0,0,0-5.7-0.8-6.9c0,0-15.5-1.5-20.4-2.3l-2.7-0.5
				l-1-0.2c-1.8-0.3-2.3-0.4-2.3-0.4l0.1-0.5C367.2,219.7,362.4,224.1,357.5,234.6z"/>
			
				<linearGradient id="SVGID_00000176764535403757057450000001229398823688047514_" gradientUnits="userSpaceOnUse" x1="-340.4573" y1="1360.2263" x2="-327.2873" y2="1360.2263" gradientTransform="matrix(-0.81 -0.12 0.16 -1.08 -125.75 1656.1201)">
				<stop  offset="0" style="stop-color:#FFEADB"/>
				<stop  offset="0.99" style="stop-color:#D177F4"/>
			</linearGradient>
			<path style="opacity:0.6;fill:url(#SVGID_00000176764535403757057450000001229398823688047514_);enable-background:new    ;" d="
				M357.5,234.6c0,0,5.1-4.9,7.8-5.7l0,0c1.3-2.9,3-5.6,5.1-8.1l-1-0.2c-2.5,2.3-7.4,8.6-7.4,8.6c1.4-3.3,3.1-6.5,5.2-9.5
				C367.2,219.7,362.4,224.1,357.5,234.6z"/>
			<g>
				<defs>
					<path id="SVGID_00000146470144625404893340000003623938889353159358_" d="M427.5,253.6c0,0,10.7,1,15.8,0.5
						c5.5-0.5,13.6-2.8,15.4-4c1.8-1.2,2.3-5.9,1.4-7c0,0-8-2.9-18.9-1.9c-10.8,1-14.7,5.2-14.7,5.2s-1.3,2.2-1.3,2.7
						S425.3,252.4,427.5,253.6z"/>
				</defs>
				<clipPath id="SVGID_00000107558912429905598780000008769646451625911207_">
					<use xlink:href="#SVGID_00000146470144625404893340000003623938889353159358_"  style="overflow:visible;"/>
				</clipPath>
				<g style="clip-path:url(#SVGID_00000107558912429905598780000008769646451625911207_);">
					
						<linearGradient id="SVGID_00000127030561619459739540000010647503816474475447_" gradientUnits="userSpaceOnUse" x1="442.6685" y1="1282.812" x2="442.6685" y2="1300.3986" gradientTransform="matrix(1 0 0 -1 0 1538)">
						<stop  offset="0" style="stop-color:#EEE2FF"/>
						<stop  offset="1" style="stop-color:#BDC9FB"/>
					</linearGradient>
					<path style="fill:url(#SVGID_00000127030561619459739540000010647503816474475447_);" d="M424.8,251.7
						c0.1,2.5,11.8,4.1,21.6,3.2c9.5-0.9,14.6-5.1,14-10.2s-7.4-8.2-17.8-6.7C431.3,239.6,424.5,245.8,424.8,251.7z"/>
					
						<linearGradient id="SVGID_00000001654790584158350370000011136387259639628678_" gradientUnits="userSpaceOnUse" x1="440.92" y1="1282.2" x2="440.92" y2="1299.8" gradientTransform="matrix(1 0 0 -1 0 1538)">
						<stop  offset="0" style="stop-color:#4D0E2E"/>
						<stop  offset="1" style="stop-color:#36063B"/>
					</linearGradient>
					<circle style="fill:url(#SVGID_00000001654790584158350370000011136387259639628678_);" cx="440.9" cy="247" r="8.8"/>
					
						<linearGradient id="SVGID_00000102537691275786536390000016337969335882152369_" gradientUnits="userSpaceOnUse" x1="440.92" y1="1282.71" x2="440.92" y2="1299.29" gradientTransform="matrix(1 0 0 -1 0 1538)">
						<stop  offset="0" style="stop-color:#4D0E2E"/>
						<stop  offset="1" style="stop-color:#36063B"/>
					</linearGradient>
					<circle style="fill:url(#SVGID_00000102537691275786536390000016337969335882152369_);" cx="440.9" cy="247" r="8.3"/>
					
						<linearGradient id="SVGID_00000013898757740452434900000002919003256208149931_" gradientUnits="userSpaceOnUse" x1="440.92" y1="1285.62" x2="440.92" y2="1296.38" gradientTransform="matrix(1 0 0 -1 0 1538)">
						<stop  offset="0" style="stop-color:#A79ABD"/>
						<stop  offset="0.99" style="stop-color:#724A60"/>
					</linearGradient>
					<circle style="fill:url(#SVGID_00000013898757740452434900000002919003256208149931_);" cx="440.9" cy="247" r="5.4"/>
					<path class="st13" d="M448.2,245.9c-0.6,0.4,2.4,0.5,4.6-0.1c2-0.5,3-1.3,2.8-1.5C453.1,244.2,450.5,244.8,448.2,245.9z"/>
					<path class="st13" d="M446.5,246.2c-0.9-0.2-1.9,0.1-1.9,0.4s1,0.7,1.5,0.5S447,246.4,446.5,246.2z"/>
					<path class="st14" d="M425.7,247.7c0,0,13.9-10.3,34.6-3.7l-0.3-0.9c0,0-1.1-3.9-15.6-3.9S425.7,247.7,425.7,247.7z"/>
				</g>
			</g>
			<path class="st15" d="M426.5,246.4c0,0,4.4-4.7,16.2-5.3s17.4,2,17.4,2s0.1-1.8-0.4-2.3S435.3,233.6,426.5,246.4z"/>
			<path class="st1" d="M392.7,253c-0.2,1.2-2.5,1.6-2.5,1.6c1.2-1,1.8-2.7,1.8-4.6C392,250.1,392.9,251.7,392.7,253z"/>
			<path class="st2" d="M366.2,251.1c0,0,2.2,5.1,8.8,5.9c9,1.1,15.1-2.4,15.1-2.4C374.3,256.8,366.2,251.1,366.2,251.1z"/>
			<path class="st3" d="M366.9,241.3c0,0,3.4-7.1,11.6-6.1c8.2,1,11.7,10.9,11.7,10.9C381.8,236.5,366.9,241.3,366.9,241.3z"/>
			<g>
				<defs>
					<path id="SVGID_00000141414712959087104550000017201706673874045060_" d="M390.2,254.6c0,0-8.2,1-12.1,0.5
						c-4.2-0.5-10.4-2.8-11.8-4c-1.4-1.2-1.7-5.9-1.1-7c0,0,6.2-2.9,14.5-1.9s11.3,5.2,11.3,5.2s1,2.2,1,2.7
						C391.9,250.6,391.9,253.4,390.2,254.6z"/>
				</defs>
				<clipPath id="SVGID_00000166668587401835675530000008625624221393201819_">
					<use xlink:href="#SVGID_00000141414712959087104550000017201706673874045060_"  style="overflow:visible;"/>
				</clipPath>
				<g style="clip-path:url(#SVGID_00000166668587401835675530000008625624221393201819_);">
					
						<linearGradient id="SVGID_00000183934939739445664170000014616733137007596718_" gradientUnits="userSpaceOnUse" x1="445.6949" y1="1281.8121" x2="445.6949" y2="1299.3986" gradientTransform="matrix(-1 0 0 -1 824.1946 1538)">
						<stop  offset="0" style="stop-color:#EEE2FF"/>
						<stop  offset="1" style="stop-color:#BDC9FB"/>
					</linearGradient>
					<path style="fill:url(#SVGID_00000183934939739445664170000014616733137007596718_);" d="M378.5,239c-8-1.5-13.2,1.5-13.7,6.7
						s3.4,9.3,10.8,10.2c7.6,1,16.5-0.7,16.6-3.2C392.4,246.8,387.2,240.6,378.5,239z"/>
					
						<linearGradient id="SVGID_00000150064741403908178940000012620000263209046205_" gradientUnits="userSpaceOnUse" x1="444.3513" y1="1281.2001" x2="444.3513" y2="1298.8" gradientTransform="matrix(-1 0 0 -1 824.1946 1538)">
						<stop  offset="0" style="stop-color:#4D0E2E"/>
						<stop  offset="1" style="stop-color:#36063B"/>
					</linearGradient>
					
						<ellipse style="fill:url(#SVGID_00000150064741403908178940000012620000263209046205_);" cx="379.8" cy="248" rx="6.8" ry="8.8"/>
					
						<linearGradient id="SVGID_00000080901969779967690710000000034022058796896166_" gradientUnits="userSpaceOnUse" x1="444.3513" y1="1281.7101" x2="444.3513" y2="1298.29" gradientTransform="matrix(-1 0 0 -1 824.1946 1538)">
						<stop  offset="0" style="stop-color:#4D0E2E"/>
						<stop  offset="1" style="stop-color:#36063B"/>
					</linearGradient>
					
						<ellipse style="fill:url(#SVGID_00000080901969779967690710000000034022058796896166_);" cx="379.8" cy="248" rx="6.4" ry="8.3"/>
					
						<linearGradient id="SVGID_00000039107696991859880380000015689355614244290433_" gradientUnits="userSpaceOnUse" x1="444.3513" y1="1284.62" x2="444.3513" y2="1295.38" gradientTransform="matrix(-1 0 0 -1 824.1946 1538)">
						<stop  offset="0" style="stop-color:#A79ABD"/>
						<stop  offset="0.99" style="stop-color:#724A60"/>
					</linearGradient>
					
						<ellipse style="fill:url(#SVGID_00000039107696991859880380000015689355614244290433_);" cx="379.8" cy="248" rx="4.1" ry="5.4"/>
					<path class="st13" d="M368.5,245.3c-0.2,0.2,0.6,1,2.2,1.5c1.7,0.6,4.1,0.5,3.6,0.1C372.5,245.8,370.5,245.2,368.5,245.3z"/>
					<path class="st13" d="M375.9,248.2c0.4,0.1,1.2-0.2,1.2-0.5c0-0.3-0.8-0.6-1.5-0.4C375.2,247.3,375.5,248,375.9,248.2z"/>
					<path class="st14" d="M377.1,240.2c-11.2,0-12,3.9-12,3.9l-0.2,0.9c16-6.6,26.6,3.7,26.6,3.7S388.3,240.2,377.1,240.2z"/>
				</g>
			</g>
			<path class="st15" d="M365.4,241.8c-0.4,0.5-0.3,2.3-0.3,2.3s4.3-2.6,13.4-2c9.1,0.6,12.5,5.3,12.5,5.3
				C384.2,234.6,365.8,241.3,365.4,241.8z"/>
		</g>
	</g>
</g>
</svg>
