<svg xmlns="http://www.w3.org/2000/svg" xmlns:xlink="http://www.w3.org/1999/xlink" viewBox="0 0 837.33 1537"><defs><style>.cls-1{fill:none;}.cls-2{fill:#ff9d8a;}.cls-2,.cls-3,.cls-4,.cls-5{fill-rule:evenodd;}.cls-3{fill:url(#Áåçûìÿííûé_ãðàäèåíò_104);}.cls-4{fill:url(#Áåçûìÿííûé_ãðàäèåíò_23);}.cls-5{fill:#b85652;}</style><linearGradient id="Áåçûìÿííûé_ãðàäèåíò_104" x1="290.81" y1="543.61" x2="290.52" y2="522.85" gradientTransform="matrix(1.06, 0.41, -0.36, 0.93, 298.71, -331.3)" gradientUnits="userSpaceOnUse"><stop offset="0" stop-color="#ff7f66"/><stop offset="1" stop-color="#ec887e"/></linearGradient><linearGradient id="Áåçûìÿííûé_ãðàäèåíò_23" x1="277.64" y1="553.87" x2="277.64" y2="533.5" gradientTransform="matrix(1.06, 0.41, -0.36, 0.93, 298.71, -331.3)" gradientUnits="userSpaceOnUse"><stop offset="0" stop-color="#ce595b"/><stop offset="1" stop-color="#d67261"/></linearGradient></defs><g id="Layer_2" data-name="Layer 2"><g id="base"><rect class="cls-1" width="837.33" height="1537"/></g><g id="nose_06"><path class="cls-2" d="M379.21,288.85s-6.49-11.19,3.49-13.52c1.76-.41,4,1.3,4.92.44,0,0,6.47-10.85,18-6.32,1.42.55.37,3.89,4.1,4.82,5.13-3.76,8.95,1.68,8.95,1.68s.79,7.59.66,9.81c0,0-15.71,4.69-21.41,7S379.21,288.85,379.21,288.85Z"/><path class="cls-3" d="M417,274.26s5.72,3.83,4.49,13.11l-15.25,5.05,11-6.44S421.16,280.93,417,274.26Z"/><path class="cls-4" d="M379.21,288.85s7.71,3.47,21.92,1.74c0,0,10.08-3.82,17.29-4.39,0,0-6.72,4.4-14.95,10.26,0,0-2.08,3-12.93.85C390.54,297.31,385.2,295.26,379.21,288.85Z"/><path class="cls-5" d="M407.78,293s3.73-6,10.51-4.6C418.29,288.42,415,291.56,407.78,293Z"/></g></g></svg>