<?xml version="1.0" encoding="utf-8"?>
<!-- Generator: Adobe Illustrator 25.4.1, SVG Export Plug-In . SVG Version: 6.00 Build 0)  -->
<svg version="1.1" id="Layer_1" xmlns="http://www.w3.org/2000/svg" xmlns:xlink="http://www.w3.org/1999/xlink" x="0px" y="0px"
	 viewBox="0 0 837.3 1537" style="enable-background:new 0 0 837.3 1537;" xml:space="preserve">
<style type="text/css">
	.st0{fill:none;}
	.st1{fill-rule:evenodd;clip-rule:evenodd;fill:#FFF4C9;}
	.st2{fill-rule:evenodd;clip-rule:evenodd;fill:url(#SVGID_1_);}
	.st3{fill-rule:evenodd;clip-rule:evenodd;fill:#030F3A;}
	.st4{fill-rule:evenodd;clip-rule:evenodd;fill:#FFFFFF;}
	.st5{fill-rule:evenodd;clip-rule:evenodd;fill:url(#SVGID_00000164500026366338170760000002085525816909717914_);}
	.st6{fill:url(#SVGID_00000047745220263790661520000003582629722413626759_);}
	.st7{opacity:0.6;fill:url(#SVGID_00000177458094849429737050000007002279853375779477_);enable-background:new    ;}
	.st8{fill:url(#SVGID_00000027569588649596970360000000745804897860175295_);}
	.st9{opacity:0.6;fill:url(#SVGID_00000124138859374049738500000012178357300819946381_);enable-background:new    ;}
	.st10{fill:url(#SVGID_00000134241977793316492670000002252248430920637848_);}
	.st11{fill-rule:evenodd;clip-rule:evenodd;fill:url(#SVGID_00000042725928101667704910000016408373123105050019_);}
	.st12{fill-rule:evenodd;clip-rule:evenodd;fill:url(#SVGID_00000158739267436304387330000014540775135077349004_);}
</style>
<g>
	<g id="Layer_2_00000050640110808828178660000009485416937188961716_">
		<g id="base">
			<rect class="st0" width="837.3" height="1537"/>
		</g>
		<g id="eyes_06">
			<path class="st1" d="M365,246.4c5.9,8.2,17.1,8.9,21.2,9.9c1.3-5.7,1.9-17.2-5.4-20c-1-0.4-2-0.6-3-0.7l0,0
				c-4.5-0.4-8.6,2.2-10.9,5.2C365.3,242.7,364.1,245.3,365,246.4z"/>
			
				<linearGradient id="SVGID_1_" gradientUnits="userSpaceOnUse" x1="379.4844" y1="1283.45" x2="379.4844" y2="1302.269" gradientTransform="matrix(1 0 0 -1 0 1538)">
				<stop  offset="4.000000e-02" style="stop-color:#0086AA"/>
				<stop  offset="1" style="stop-color:#003794"/>
			</linearGradient>
			<path class="st2" d="M386.8,249.4c-1.3,3.1-3.9,5.2-6.8,5.2c-4.4,0-8-4.8-8-10.8c0-4.4,1.9-6.1,4.7-7.8l0,0
				c2.5,0.2,4.9-0.9,6.8,0.5l0,0.1c0.5,0.8,1,1.7,1.4,2.6c0,0,0.1,0.1,0,0.1c0.7,1.1,1.1,2.3,1.2,3.5
				C386.9,244.9,387.1,247.2,386.8,249.4z"/>
			<path class="st3" d="M386.4,243.8c0,4-2.4,7.1-5.3,7.1s-5.3-3.2-5.3-7.1s2.4-7.1,5.3-7.1c1.7,0.1,3.2,1,4,2.4c0,0,0.1,0.1,0,0.1
				c0.7,1.1,1.1,2.3,1.2,3.5C386.3,243.1,386.3,243.4,386.4,243.8z"/>
			<path class="st4" d="M373.9,244.2c0,1-0.8,1.9-1.9,1.9c-1,0-1.9-0.8-1.9-1.9c0-1,0.8-1.9,1.9-1.9
				C373,242.3,373.9,243.1,373.9,244.2C373.9,244.2,373.9,244.2,373.9,244.2z"/>
			
				<linearGradient id="SVGID_00000019679932730833530740000004628423318929296818_" gradientUnits="userSpaceOnUse" x1="-243.4619" y1="1334.3065" x2="-220.9219" y2="1334.3065" gradientTransform="matrix(-0.99 -0.11 0.11 -0.99 1.91 1537.21)">
				<stop  offset="0" style="stop-color:#592C27"/>
				<stop  offset="0.98" style="stop-color:#814227"/>
			</linearGradient>
			<path style="fill-rule:evenodd;clip-rule:evenodd;fill:url(#SVGID_00000019679932730833530740000004628423318929296818_);" d="
				M386.9,249.4c0,0,1.4-5.4,0.6-8.1s-2.9-6-9-6.3c-5.8-0.2-11.2,3.2-13.4,8.7c0,0,7.6-7.5,15.4-4.7
				C386.8,241.2,386.3,246.7,386.9,249.4z"/>
			
				<linearGradient id="SVGID_00000047044897067793475020000000235796084266027180_" gradientUnits="userSpaceOnUse" x1="405.1194" y1="1264.0031" x2="449.9294" y2="1264.0031" gradientTransform="matrix(1.04 -0.15 -0.16 -1.08 202.13 1658.42)">
				<stop  offset="0" style="stop-color:#36063B"/>
				<stop  offset="1" style="stop-color:#4D0E2E"/>
			</linearGradient>
			<path style="fill:url(#SVGID_00000047044897067793475020000000235796084266027180_);" d="M469.8,233.7c0,0-6.3-4.7-9.8-5.4l0,0
				c-7.5-1.4-36.9,10.4-36.9,10.4s-2.2-8.7-1.3-14.3l0.7-0.1c0,0-0.3,4.9,0.2,6.8c0,0,0.2-5.8,1.3-7c0,0,20-2.1,26.3-3.2l3.5-0.6
				l1.3-0.2c2.4-0.4,3-0.5,3-0.5l-0.1-0.5C458,219.1,464,223.3,469.8,233.7z"/>
			
				<linearGradient id="SVGID_00000005241415633630227490000007738550722596205759_" gradientUnits="userSpaceOnUse" x1="436.7594" y1="1264.0082" x2="449.9294" y2="1264.0082" gradientTransform="matrix(1.04 -0.15 -0.16 -1.08 202.13 1658.42)">
				<stop  offset="0" style="stop-color:#FFEADB"/>
				<stop  offset="0.99" style="stop-color:#D177F4"/>
			</linearGradient>
			<path style="opacity:0.6;fill:url(#SVGID_00000005241415633630227490000007738550722596205759_);enable-background:new    ;" d="
				M469.8,233.7c0,0-6.3-4.7-9.8-5.4l0,0c-1.7-2.9-3.7-5.6-6.2-8l1.3-0.2c3.2,2.2,9.2,8.3,9.2,8.3c-1.8-4.2-6.2-9.3-6.2-9.3
				S464,223.3,469.8,233.7z"/>
			
				<linearGradient id="SVGID_00000134935053448704585550000004840869316494088074_" gradientUnits="userSpaceOnUse" x1="-372.0973" y1="1360.2386" x2="-327.2873" y2="1360.2386" gradientTransform="matrix(-0.81 -0.12 0.16 -1.08 -125.75 1656.1201)">
				<stop  offset="0" style="stop-color:#36063B"/>
				<stop  offset="1" style="stop-color:#4D0E2E"/>
			</linearGradient>
			<path style="fill:url(#SVGID_00000134935053448704585550000004840869316494088074_);" d="M357.5,234.6c0,0,5.1-4.9,7.8-5.7l0,0
				c5.9-1.6,28.4,9.1,28.4,9.1s2-8.8,1.5-14.2l-0.6-0.1c0.1,2.3-0.1,4.5-0.4,6.7c0,0,0-5.7-0.8-6.9c0,0-15.5-1.5-20.4-2.3l-2.7-0.5
				l-1-0.2c-1.8-0.3-2.3-0.4-2.3-0.4l0.1-0.5C367.2,219.7,362.4,224.1,357.5,234.6z"/>
			
				<linearGradient id="SVGID_00000076583958838701324930000001572883556856942015_" gradientUnits="userSpaceOnUse" x1="-340.4573" y1="1360.2263" x2="-327.2873" y2="1360.2263" gradientTransform="matrix(-0.81 -0.12 0.16 -1.08 -125.75 1656.1201)">
				<stop  offset="0" style="stop-color:#FFEADB"/>
				<stop  offset="0.99" style="stop-color:#D177F4"/>
			</linearGradient>
			<path style="opacity:0.6;fill:url(#SVGID_00000076583958838701324930000001572883556856942015_);enable-background:new    ;" d="
				M357.5,234.6c0,0,5.1-4.9,7.8-5.7l0,0c1.3-2.9,3-5.6,5.1-8.1l-1-0.2c-2.5,2.3-7.4,8.6-7.4,8.6c1.4-3.3,3.1-6.5,5.2-9.5
				C367.2,219.7,362.4,224.1,357.5,234.6z"/>
			
				<linearGradient id="SVGID_00000006704321010228969250000002696259746433515654_" gradientUnits="userSpaceOnUse" x1="419.66" y1="1298.4871" x2="466.44" y2="1298.4871" gradientTransform="matrix(1 0 0 -1 0 1538)">
				<stop  offset="0" style="stop-color:#FF7F66"/>
				<stop  offset="1" style="stop-color:#EC887E"/>
			</linearGradient>
			<path style="fill:url(#SVGID_00000006704321010228969250000002696259746433515654_);" d="M466.4,275.1c-3-6.5-6.5-12.7-10-18.9
				c-3.5-5.9-7.1-11.7-10.8-17.5c0.4-5.6,0.8-11.1,1-16.7c0.4-8.3,0.6-16.6,0.3-25c-1.8,8.2-3,16.4-4.2,24.7
				c-0.5,3.6-0.9,7.2-1.4,10.8c-2.7-4-5.5-8-8.4-11.9c-4.2-5.7-8.6-11.4-13.3-16.8c3,6.5,6.5,12.7,10,18.9c3.4,5.9,7,11.7,10.8,17.4
				c-0.2,2.1-0.4,4.2-0.6,6.3c-0.7,8.3-0.2,2.1-0.5,10.5c-0.4,8.3-0.6,16.6-0.3,25c1.8-8.2,3.1-16.4,4.2-24.7
				c1.1-8.3,0.8-2.1,1.6-10.4c0-0.1,0-0.1,0-0.2c2.7,3.9,5.4,7.8,8.2,11.6C457.3,264.1,461.7,269.8,466.4,275.1z"/>
			<path class="st1" d="M460.8,243.9c-9.6,8.2-27.8,8.9-34.2,10c-2.1-5.7-3-17.2,8.8-20c1.6-0.4,3.2-0.6,4.8-0.7c0,0,0.1,0,0.1,0
				c6.3-0.4,12.5,1.4,17.6,5.2C460.2,240.2,462.1,242.8,460.8,243.9z"/>
			
				<linearGradient id="SVGID_00000037661528488399377140000018382817193077306265_" gradientUnits="userSpaceOnUse" x1="443.8" y1="1287.45" x2="443.8" y2="1304.35" gradientTransform="matrix(1 0 0 -1 0 1538)">
				<stop  offset="4.000000e-02" style="stop-color:#0086AA"/>
				<stop  offset="1" style="stop-color:#003794"/>
			</linearGradient>
			<path style="fill-rule:evenodd;clip-rule:evenodd;fill:url(#SVGID_00000037661528488399377140000018382817193077306265_);" d="
				M454.5,239.8c0,5.9-4.8,10.8-10.8,10.8s-10.8-4.8-10.8-10.8c0-4.4,1.5-4.4,5.4-6.1c0,0,4,0.5,4,0.4c6.3,0.4,8.8-0.5,11.7,2.9
				C454.4,237.9,454.5,238.8,454.5,239.8z"/>
			<path class="st3" d="M451.6,239.8c0,3.9-3.2,7.1-7.1,7.1c-3.9,0-7.1-3.2-7.1-7.1c0,0,0,0,0,0c0-3.9,2.6-6.1,6.5-6.1
				S451.6,235.8,451.6,239.8z"/>
			
				<linearGradient id="SVGID_00000143585715295138153120000007796840062334865039_" gradientUnits="userSpaceOnUse" x1="424.0635" y1="1262.5957" x2="460.4575" y2="1262.5957" gradientTransform="matrix(0.9938 -0.1113 -0.1113 -0.9938 142.9077 1542.5355)">
				<stop  offset="0" style="stop-color:#592C27"/>
				<stop  offset="0.98" style="stop-color:#814227"/>
			</linearGradient>
			<path style="fill-rule:evenodd;clip-rule:evenodd;fill:url(#SVGID_00000143585715295138153120000007796840062334865039_);" d="
				M425.3,246.9c0,0-2.3-5.4-0.9-8.1s4.7-6,14.5-6.3s18.4,3.5,21.6,8.7c0,0-12.3-7.5-25-4.7C425.5,238.7,426.2,244.2,425.3,246.9z"
				/>
			<path class="st4" d="M435.1,241.7c0,1-0.8,1.9-1.9,1.9c-1,0-1.9-0.8-1.9-1.9c0-1,0.8-1.9,1.9-1.9S435.1,240.6,435.1,241.7
				C435.1,241.7,435.1,241.7,435.1,241.7z"/>
		</g>
	</g>
</g>
</svg>
