<?xml version="1.0" encoding="utf-8"?>
<!-- Generator: Adobe Illustrator 25.4.1, SVG Export Plug-In . SVG Version: 6.00 Build 0)  -->
<svg version="1.1" id="Layer_1" xmlns="http://www.w3.org/2000/svg" xmlns:xlink="http://www.w3.org/1999/xlink" x="0px" y="0px"
	 viewBox="0 0 837.3 1537" style="enable-background:new 0 0 837.3 1537;" xml:space="preserve">
<style type="text/css">
	.st0{fill:none;}
	.st1{opacity:0.68;fill:#A88E8A;enable-background:new    ;}
	.st2{opacity:0.63;}
	.st3{fill:#685A59;}
	.st4{opacity:0.63;fill-rule:evenodd;clip-rule:evenodd;fill:#605B55;enable-background:new    ;}
	.st5{opacity:0.6;fill:url(#SVGID_1_);enable-background:new    ;}
	.st6{fill:url(#SVGID_00000121281627832913512470000005217290345281826706_);}
	.st7{opacity:0.6;fill:url(#SVGID_00000145045944751892512650000015405672653219406782_);enable-background:new    ;}
	.st8{fill:url(#SVGID_00000149363869669472773700000002408422350770779319_);}
	.st9{fill:url(#SVGID_00000037651405730926473130000012844843703983626917_);}
	.st10{fill:url(#SVGID_00000107564894637311905710000004868933727535990152_);}
	.st11{clip-path:url(#SVGID_00000009565832897904939450000015396794755539723682_);}
	.st12{fill-rule:evenodd;clip-rule:evenodd;fill:#FFF4C9;}
	.st13{fill-rule:evenodd;clip-rule:evenodd;fill:url(#SVGID_00000084501259058301938850000001753130612138003330_);}
	.st14{fill-rule:evenodd;clip-rule:evenodd;fill:#030F3A;}
	.st15{fill-rule:evenodd;clip-rule:evenodd;fill:#FFFFFF;}
	.st16{clip-path:url(#SVGID_00000025412201264990702570000002709794420261867156_);}
	.st17{fill-rule:evenodd;clip-rule:evenodd;fill:url(#SVGID_00000119807027075154723270000015185492663348289933_);}
</style>
<g>
	<g id="Layer_2_00000050640110808828178660000009485416937188961716_">
		<g id="base">
			<rect class="st0" width="837.3" height="1537"/>
		</g>
		<g id="eyes_06">
			<path class="st1" d="M466.4,275.1c-3-6.5-6.5-12.7-10-18.9c-3.5-5.9-7.1-11.7-10.8-17.5c0.4-5.6,0.8-11.1,1-16.7
				c0.4-8.3,0.6-16.6,0.3-25c-1.8,8.2-3,16.4-4.2,24.7c-0.5,3.6-0.9,7.2-1.4,10.8c-2.7-4-5.5-8-8.4-11.9
				c-4.2-5.7-8.6-11.4-13.3-16.8c3,6.5,6.5,12.7,10,18.9c3.4,5.9,7,11.7,10.8,17.4c-0.2,2.1-0.4,4.2-0.6,6.3
				c-0.7,8.3-0.2,2.1-0.5,10.5c-0.4,8.3-0.6,16.6-0.3,25c1.8-8.2,3.1-16.4,4.2-24.7c1.1-8.3,0.8-2.1,1.6-10.4c0-0.1,0-0.1,0-0.2
				c2.7,3.9,5.4,7.8,8.2,11.6C457.3,264.1,461.7,269.8,466.4,275.1z"/>
			<g class="st2">
				<path class="st3" d="M446.9,197c0.1,3.6,0.2,7.1,0.2,10.7c0,3.6,0,7.1-0.1,10.7c-0.2,7.1-0.7,14.2-1.3,21.3
					c-0.7,7.1-1.5,14.2-2.7,21.2c-0.6,3.5-1.2,7-1.8,10.5c-0.7,3.5-1.4,7-2.2,10.5c0.7-3.5,1.3-7,1.8-10.5c0.6-3.5,1.1-7,1.6-10.5
					c1-7,1.9-14.1,2.5-21.2c0.7-7.1,1.1-14.2,1.5-21.3c0.2-3.6,0.3-7.1,0.3-10.7C446.9,204.1,446.9,200.6,446.9,197z"/>
			</g>
			<g class="st2">
				<path class="st3" d="M419.6,203.8c2.3,2.7,4.6,5.5,6.8,8.2c2.2,2.8,4.4,5.6,6.6,8.4c4.3,5.7,8.4,11.5,12.4,17.4
					c3.9,5.9,7.8,12,11.4,18.1c3.5,6.2,7.1,12.4,9.6,19.1c-1.4-3.3-3-6.4-4.8-9.6c-1.7-3.1-3.5-6.2-5.4-9.2
					c-3.7-6.1-7.5-12.1-11.5-18c-3.9-5.9-8.1-11.7-12.3-17.5c-2.1-2.9-4.2-5.7-6.4-8.6C424,209.4,421.8,206.6,419.6,203.8z"/>
			</g>
			<path class="st4" d="M386.9,249.4c0,0,1.4-5.4,0.6-8.1s-2.9-6-9-6.3c-5.8-0.2-11.2,3.2-13.4,8.7c0,0,7.6-7.5,15.4-4.7
				C386.8,241.2,386.3,246.7,386.9,249.4z"/>
			<path class="st4" d="M425.3,246.9c0,0-2.3-5.4-0.9-8.1s4.7-6,14.5-6.3s18.4,3.5,21.6,8.7c0,0-12.3-7.5-25-4.7
				C425.5,238.7,426.2,244.2,425.3,246.9z"/>
			
				<linearGradient id="SVGID_1_" gradientUnits="userSpaceOnUse" x1="403.3982" y1="1212.1233" x2="416.5682" y2="1212.1233" gradientTransform="matrix(1.04 -0.15 -0.16 -1.08 228.53 1597.42)">
				<stop  offset="0" style="stop-color:#FFEADB"/>
				<stop  offset="0.99" style="stop-color:#D177F4"/>
			</linearGradient>
			<path class="st5" d="M469.8,233.7c0,0-6.3-4.7-9.8-5.4l0,0c-1.7-2.9-3.7-5.6-6.2-8l1.3-0.2c3.2,2.2,9.2,8.3,9.2,8.3
				c-1.8-4.2-6.2-9.3-6.2-9.3S464,223.3,469.8,233.7z"/>
			
				<linearGradient id="SVGID_00000078044753112206391550000015629817632680236685_" gradientUnits="userSpaceOnUse" x1="-1822.6119" y1="1483.2799" x2="-1777.8019" y2="1483.2799" gradientTransform="matrix(-0.81 -0.12 0.16 -1.08 -1320.35 1614.9202)">
				<stop  offset="0" style="stop-color:#36063B"/>
				<stop  offset="1" style="stop-color:#4D0E2E"/>
			</linearGradient>
			<path style="fill:url(#SVGID_00000078044753112206391550000015629817632680236685_);" d="M357.5,234.6c0,0,5.1-4.9,7.8-5.7l0,0
				c5.9-1.6,28.4,9.1,28.4,9.1s2-8.8,1.5-14.2l-0.6-0.1c0.1,2.3-0.1,4.5-0.4,6.7c0,0,0-5.7-0.8-6.9c0,0-15.5-1.5-20.4-2.3l-2.7-0.5
				l-1-0.2c-1.8-0.3-2.3-0.4-2.3-0.4l0.1-0.5C367.2,219.7,362.4,224.1,357.5,234.6z"/>
			
				<linearGradient id="SVGID_00000036966440774095335090000015035599162818443186_" gradientUnits="userSpaceOnUse" x1="-1790.9719" y1="1483.2413" x2="-1777.8019" y2="1483.2413" gradientTransform="matrix(-0.81 -0.12 0.16 -1.08 -1320.35 1614.9202)">
				<stop  offset="0" style="stop-color:#FFEADB"/>
				<stop  offset="0.99" style="stop-color:#D177F4"/>
			</linearGradient>
			<path style="opacity:0.6;fill:url(#SVGID_00000036966440774095335090000015035599162818443186_);enable-background:new    ;" d="
				M357.5,234.6c0,0,5.1-4.9,7.8-5.7l0,0c1.3-2.9,3-5.6,5.1-8.1l-1-0.2c-2.5,2.3-7.4,8.6-7.4,8.6c1.4-3.3,3.1-6.5,5.2-9.5
				C367.2,219.7,362.4,224.1,357.5,234.6z"/>
			<g>
				
					<linearGradient id="SVGID_00000163042383223869869900000001611088720299551674_" gradientUnits="userSpaceOnUse" x1="445.7921" y1="1311.6" x2="469.3921" y2="1311.6" gradientTransform="matrix(1 0 0 -1 0 1538)">
					<stop  offset="0" style="stop-color:#36063B"/>
					<stop  offset="1" style="stop-color:#4D0E2E"/>
				</linearGradient>
				<path style="fill:url(#SVGID_00000163042383223869869900000001611088720299551674_);" d="M446.6,222c-0.1,2.9-0.3,5.8-0.4,8.6
					c5.8-1.7,11.2-2.8,13.8-2.3c3.5,0.7,9.8,5.4,9.8,5.4c-5.8-10.4-11.8-14.6-11.8-14.6l0.1,0.5c0,0-0.6,0.1-3,0.5l-1.3,0.2
					l-3.5,0.6c-1,0.2-2.2,0.4-3.7,0.6C446.6,221.6,446.6,221.8,446.6,222z"/>
				
					<linearGradient id="SVGID_00000068643717496563816110000017317786771444640955_" gradientUnits="userSpaceOnUse" x1="434.4644" y1="1310.9" x2="442.5266" y2="1310.9" gradientTransform="matrix(1 0 0 -1 0 1538)">
					<stop  offset="0" style="stop-color:#36063B"/>
					<stop  offset="1" style="stop-color:#4D0E2E"/>
				</linearGradient>
				<path style="fill:url(#SVGID_00000068643717496563816110000017317786771444640955_);" d="M434.6,222.9c2.2,3.1,4.4,6.2,6.5,9.3
					c0.1,0,0.2-0.1,0.3-0.1c0.5-3.4,0.9-6.8,1.3-10.1C440.1,222.3,437.2,222.6,434.6,222.9z"/>
				
					<linearGradient id="SVGID_00000088827061084428447200000007741279952681980815_" gradientUnits="userSpaceOnUse" x1="421.3575" y1="1306.95" x2="436.0738" y2="1306.95" gradientTransform="matrix(1 0 0 -1 0 1538)">
					<stop  offset="0" style="stop-color:#36063B"/>
					<stop  offset="1" style="stop-color:#4D0E2E"/>
				</linearGradient>
				<path style="fill:url(#SVGID_00000088827061084428447200000007741279952681980815_);" d="M430,223.4c-3.5,0.4-6,0.7-6,0.7
					c-1.1,1.2-1.3,7-1.3,7c-0.5-1.9-0.2-6.8-0.2-6.8l-0.7,0.1c-0.9,5.6,1.3,14.3,1.3,14.3s6-2.4,13.2-4.9
					C434.2,230.4,432.1,226.9,430,223.4z"/>
			</g>
			<g>
				<g>
					<defs>
						<path id="SVGID_00000130628295547826300770000015582033016843737747_" d="M365.1,243.7c0,0,6.4-7,14.8-4.9
							c7.4,1.9,7,10.6,7,10.6l-0.7,6.9c0,0-18.4-3.3-21.2-9.9C365,246.4,364.4,244.3,365.1,243.7z"/>
					</defs>
					<clipPath id="SVGID_00000004545887099169857850000001458524932520885183_">
						<use xlink:href="#SVGID_00000130628295547826300770000015582033016843737747_"  style="overflow:visible;"/>
					</clipPath>
					<g style="clip-path:url(#SVGID_00000004545887099169857850000001458524932520885183_);">
						<path class="st12" d="M365,246.4c5.9,8.2,17.1,8.9,21.2,9.9c1.3-5.7,1.9-17.2-5.4-20c-1-0.4-2-0.6-3-0.7l0,0
							c-4.5-0.4-8.6,2.2-10.9,5.2C365.3,242.7,364.1,245.3,365,246.4z"/>
						
							<linearGradient id="SVGID_00000055676592057912607360000013410815636263996325_" gradientUnits="userSpaceOnUse" x1="379.4662" y1="1321.45" x2="379.4662" y2="1340.2732" gradientTransform="matrix(1 0 0 -1 0 1576)">
							<stop  offset="4.000000e-02" style="stop-color:#0086AA"/>
							<stop  offset="1" style="stop-color:#003794"/>
						</linearGradient>
						
							<path style="fill-rule:evenodd;clip-rule:evenodd;fill:url(#SVGID_00000055676592057912607360000013410815636263996325_);" d="
							M386.8,249.4c-1.3,3.1-3.9,5.2-6.8,5.2c-4.4,0-8-4.8-8-10.8c0-4.4,1.9-6.1,4.7-7.8l0,0c2.5,0.2,4.9-0.9,6.8,0.5v0.1
							c0.5,0.8,1,1.7,1.4,2.6c0,0,0.1,0.1,0,0.1c0.7,1.1,1.1,2.3,1.2,3.5C386.9,244.9,387.1,247.2,386.8,249.4z"/>
						<path class="st14" d="M386.4,243.8c0,4-2.4,7.1-5.3,7.1s-5.3-3.2-5.3-7.1s2.4-7.1,5.3-7.1c1.7,0.1,3.2,1,4,2.4
							c0,0,0.1,0.1,0,0.1c0.7,1.1,1.1,2.3,1.2,3.5C386.3,243.1,386.3,243.4,386.4,243.8z"/>
						<path class="st15" d="M373.9,244.2c0,1-0.8,1.9-1.9,1.9c-1,0-1.9-0.8-1.9-1.9c0-1,0.8-1.9,1.9-1.9
							C373,242.3,373.9,243.1,373.9,244.2L373.9,244.2z"/>
					</g>
				</g>
			</g>
			<g>
				<g>
					<defs>
						<path id="SVGID_00000026885637014718618440000011642767313055088531_" d="M426.6,253.9l-1.3-7c0,0,1-6.7,4.7-8.3
							s7-3.2,13.3-2.6c6.3,0.6,15.5,3.3,17.2,5.3s0,2.9,0,2.9s-7.3,5.6-16.8,7.2S426.6,253.9,426.6,253.9z"/>
					</defs>
					<clipPath id="SVGID_00000081645683341293482770000016867452090360867484_">
						<use xlink:href="#SVGID_00000026885637014718618440000011642767313055088531_"  style="overflow:visible;"/>
					</clipPath>
					<g style="clip-path:url(#SVGID_00000081645683341293482770000016867452090360867484_);">
						<path class="st12" d="M460.8,243.9c-9.6,8.2-27.8,8.9-34.2,10c-2.1-5.7-3-17.2,8.8-20c1.6-0.4,3.2-0.6,4.8-0.7h0.1
							c6.3-0.4,12.5,1.4,17.6,5.2C460.2,240.2,462.1,242.8,460.8,243.9z"/>
						
							<linearGradient id="SVGID_00000051345768068371713330000000887006940065362584_" gradientUnits="userSpaceOnUse" x1="443.7" y1="1325.45" x2="443.7" y2="1342.35" gradientTransform="matrix(1 0 0 -1 0 1576)">
							<stop  offset="4.000000e-02" style="stop-color:#0086AA"/>
							<stop  offset="1" style="stop-color:#003794"/>
						</linearGradient>
						
							<path style="fill-rule:evenodd;clip-rule:evenodd;fill:url(#SVGID_00000051345768068371713330000000887006940065362584_);" d="
							M454.5,239.8c0,5.9-4.8,10.8-10.8,10.8s-10.8-4.8-10.8-10.8c0-4.4,1.5-4.4,5.4-6.1c0,0,4,0.5,4,0.4c6.3,0.4,8.8-0.5,11.7,2.9
							C454.4,237.9,454.5,238.8,454.5,239.8z"/>
						<path class="st14" d="M451.6,239.8c0,3.9-3.2,7.1-7.1,7.1s-7.1-3.2-7.1-7.1l0,0c0-3.9,2.6-6.1,6.5-6.1
							S451.6,235.8,451.6,239.8z"/>
						<path class="st15" d="M435.1,241.7c0,1-0.8,1.9-1.9,1.9c-1,0-1.9-0.8-1.9-1.9c0-1,0.8-1.9,1.9-1.9S435.1,240.6,435.1,241.7
							L435.1,241.7z"/>
					</g>
				</g>
			</g>
		</g>
	</g>
</g>
</svg>
