<svg xmlns="http://www.w3.org/2000/svg" xmlns:xlink="http://www.w3.org/1999/xlink" viewBox="0 0 837.33 1537"><defs><style>.cls-1{fill:none;}.cls-2,.cls-3,.cls-4,.cls-5,.cls-6{fill-rule:evenodd;}.cls-2{fill:url(#Áåçûìÿííûé_ãðàäèåíò_23);}.cls-3{fill:#fff4c9;}.cls-4{fill:url(#Áåçûìÿííûé_ãðàäèåíò_104);}.cls-5{fill:url(#linear-gradient);}.cls-6{fill:url(#linear-gradient-2);}</style><linearGradient id="Áåçûìÿííûé_ãðàäèåíò_23" x1="402.93" y1="330.18" x2="414.85" y2="300.95" gradientUnits="userSpaceOnUse"><stop offset="0" stop-color="#ce595b"/><stop offset="1" stop-color="#d67261"/></linearGradient><linearGradient id="Áåçûìÿííûé_ãðàäèåíò_104" x1="436.98" y1="313.54" x2="440.49" y2="304.95" gradientTransform="translate(133.31 -131.91) rotate(20.43)" gradientUnits="userSpaceOnUse"><stop offset="0" stop-color="#ff7f66"/><stop offset="1" stop-color="#ec887e"/></linearGradient><linearGradient id="linear-gradient" x1="398.44" y1="327.62" x2="456.23" y2="327.62" gradientUnits="userSpaceOnUse"><stop offset="0" stop-color="#322000"/><stop offset="1" stop-color="#502900"/></linearGradient><linearGradient id="linear-gradient-2" x1="412.15" y1="325.04" x2="437.26" y2="325.04" gradientTransform="matrix(-1, 0, 0, 1, 810.59, 0)" xlink:href="#linear-gradient"/></defs><g id="Layer_2" data-name="Layer 2"><g id="base"><rect class="cls-1" width="837.33" height="1537"/></g><g id="Mouth_07"><path class="cls-2" d="M382.75,313.25s5.51,3.13,17.46,2.21,31.67-3,35.72-5.92l1.8,1.71s-23,14-32.32,16.68c-7.94,2.27-13.62-1.9-18.52-10.17l-3.06-2.85Z"/><path class="cls-3" d="M390.82,317.45s19.26,3.37,35.64-3.52c0,0-.76.51-2,1.3-4.36,2.7-14.77,8.74-21.87,9.57C393.37,325.87,390.82,317.45,390.82,317.45Z"/><path class="cls-4" d="M431.91,307.52a14.28,14.28,0,0,1,5.67,10.82s4.53-6.2,1.07-11.62C438.65,306.72,433.72,306.67,431.91,307.52Z"/><path class="cls-5" d="M398.44,304.76l47.86-4.86c4.48,12.92,10.68,43.93,9.85,49.49,0,0-24.62,9.1-18,4.79,11.33-7.38,11.16-49.92-1.5-48.87S398.44,311,398.44,311Z"/><path class="cls-6" d="M398.44,304.76s-14.31-1.86-21.19-3.68c-2.69,8.05-3.92,33.89-3.92,39.62,0,0,4.12,7.42,9.09,8.3-6.7-11.58-6.3-42.37,1.71-41.32A77.64,77.64,0,0,1,398.44,311Z"/></g></g></svg>