<?xml version="1.0" encoding="utf-8"?>
<!-- Generator: Adobe Illustrator 25.4.1, SVG Export Plug-In . SVG Version: 6.00 Build 0)  -->
<svg version="1.1" id="Layer_1" xmlns="http://www.w3.org/2000/svg" xmlns:xlink="http://www.w3.org/1999/xlink" x="0px" y="0px"
	 viewBox="0 0 837.3 1537" style="enable-background:new 0 0 837.3 1537;" xml:space="preserve">
<style type="text/css">
	.st0{fill:none;}
	.st1{opacity:0.2;fill-rule:evenodd;clip-rule:evenodd;fill:#A37657;}
	.st2{fill-rule:evenodd;clip-rule:evenodd;fill:#CE996E;}
	.st3{fill-rule:evenodd;clip-rule:evenodd;fill:#A37657;}
</style>
<g>
	<g id="Layer_2_00000178898640417918581860000005513053179643006351_">
		<g id="base">
			<rect class="st0" width="837.3" height="1537"/>
		</g>
		<g id="head">
			<path class="st1" d="M399.9,376.9c0,0,11.8,21.6,50.7,5.5s48.6-70.8,48.6-70.8l-0.6-14.1l-4-4.5l-90.4,70.7L399.9,376.9z"/>
			<path class="st2" d="M493.7,308.3c-9.8,20.2-31.6,43.8-49.1,51.7l-1.6,0.6l0,0c-17.8,7-39.8,4.9-43.5,2.8s-4.6-7.4-19.6-26.6
				s-28.5-51.7-24.8-65.2c1.3-5.1,3.4-10.1,6.2-14.5c0.8-1.4,1.8-2.6,3-3.8c1.8-12-2.6-25.8-2.6-25.8s-6.3-6.4-6.6-14.4
				s4-12,6.4-17.5s4.3-19.1,6.8-23.2c13.5-22.1,60-32.8,82.5-29.6c36.1,5.1,61,37.9,62.3,54.6C515.8,232.4,503.9,287.6,493.7,308.3z
				"/>
		</g>
		<g id="ear">
			<path class="st2" d="M489.9,265c0,0,7.9-17,25.5-21.5c0,0,11.6,3.5,10,20.3c0,0-3.1,29.4-24.5,33.1c-6.7,0.7-12.8-3.6-14.5-10.1
				C486.4,286.7,485.3,270.4,489.9,265z"/>
			<path class="st3" d="M492.5,278.3c0,0,10.5-19.8,23.3-22.2c0,0,6.8,3,5.4,14.2c0,0-2.3-8.1-4.9-10
				C516.3,260.4,501.4,267.4,492.5,278.3z"/>
			<path class="st3" d="M495.5,276.4c0,0-0.2,7.2,5.4,7.4s11-7.4,12-17.3c0,0-4.7,10.3-10.6,12.3c-0.1-3.9,0.4-7.8,1.5-11.5
				C503.8,267.2,497.7,267.8,495.5,276.4z"/>
		</g>
	</g>
</g>
</svg>
