<?xml version="1.0" encoding="utf-8"?>
<!-- Generator: Adobe Illustrator 25.4.1, SVG Export Plug-In . SVG Version: 6.00 Build 0)  -->
<svg version="1.1" id="Layer_1" xmlns="http://www.w3.org/2000/svg" xmlns:xlink="http://www.w3.org/1999/xlink" x="0px" y="0px"
	 viewBox="0 0 837.3 1537" style="enable-background:new 0 0 837.3 1537;" xml:space="preserve">
<style type="text/css">
	.st0{fill:none;}
	.st1{fill:#A4222D;}
	.st2{opacity:0.51;fill:#CC1F29;enable-background:new    ;}
</style>
<g id="Layer_2_00000108276337063953477080000004819838378073181604_">
	<g id="base">
		<rect class="st0" width="837.3" height="1537"/>
	</g>
	<g id="mouth_10">
		<path class="st1" d="M515.3,292c5.1-9.2,8.2-15.5,8.2-15.5s-31.6-3.7-40.2-0.7c-8.6,3-17.6,5.4-34.1,4.3
			c-2.5-0.2-14.3-0.9-16.8-0.9c-9.8-1.5-20.4-12.1-43.8-6.9c-3.5,0.9-10.6,2-14.3,2.1c-1.5-0.5-3-0.9-4.6-1.1c-2-0.3-9.1-4.9-12-9.1
			c-0.1,0.8-0.5,6.8-0.6,7.6c-0.4,10.4-2.4,23.9-0.6,34.4c2.3,13.8,1.6,19.4,9,32.2l0.2,0.3c2.1,6.3,4.4,11.1,6.8,13.1
			c0.5,0.4,1,0.9,1.5,1.4c4.2,7.3,8.5,14.5,13.3,21.5c6.9,10.1,13.5,20.5,23.5,28.8c4.4,3.6,9.5,6.2,13.8,2.2
			c22.9-21.1,24.4-22.6,42.3-36.3c7.8-6,24.4-22.8,27.1-32c8.6-28.6,14.3-18.7,13.6-39.2C507.6,297.5,515.3,293,515.3,292z"/>
		<path class="st2" d="M429,383c2.3-1.8,4.4-3.5,7.3-2.1c2.6,1.3-0.7,9.4-3.6,9.2c-2.3-0.1-3.2,0.9-4.6,2.4
			c-5.8,6.5-18.5,4.3-23-3.6c-0.3-0.6-0.9-1.7-0.8-1.8c6.6-4.6-3.6-10.4,0.5-15.9c1.8-2.4-4.2-6.5-8.2-8.2
			c-5.1-2.1-8.6-5.5-11.6-9.3c-3.6-4.4-6.4-9.1-11.9-12.4c-2.8-1.7-4.4-4.8-4.1-8.1c0.4-3.2-0.4-5.8-4.6-7.2
			c-3.6-1.2-0.5-3.1-0.1-4.4c0.6-1.9,1.9-0.8,3.4,0.1c5,3.3,9.8,7,15.4,9.4c7.7,3.3,16.4,3.7,24.6,5.3c0.6,0.2,1.2-0.2,1.3-0.7
			c0-0.1,0.1-0.3,0-0.4c-0.1-1.5-1.2-2.7-2.7-3c-8.9-2.5-17.3-6.8-24.6-12.5c-3.7-2.8-5.8-6.4-8.9-9.4c-2.2-2.2-3.1-5.7-7.2-6.4
			c-1-0.2-1.3-0.9-1.5-1.9c-0.8-4.4-8.8-7.2-4.2-12.8c1.2-1.5,1.5-2.1,3.6-0.4c2.9,2.4,6.5,4.1,9.5,6.5c5.3,4.2,12.4,4,18.1,7.5
			c11.4,6.8,25,6.2,37.5,9.1c3.5,0.8,6.7-2.5,11.1-2.1c8.4,0.8,16.6-1.4,25.1-0.9c3.3,0.2,6.5-1.2,9.9,0c1.5,0.5,3.2,0.7,3,2.5
			c-0.1,1.6,0.1,3.4-2.6,3.7c-4.2,0.5-8.2,2.4-11.2,5.4c-1.6,1.7-4.2,2-6.5,2.5c-3.1,0.7-7.2,1.2-6.5,4.6c0.7,3.1,4.1,5.8,8,6.7
			c6.3,1.5,12.8,2.6,19.2,3.8c3,0.6,4.5,0.9,2,3.9c-3.1,3.8-6.8,6.1-11.6,8.2c-11.6,5-24,9.1-33.6,17c-3.3,2.9-7.6,4.5-12,4.6
			c-1.4,0-3.3,0.2-3.3,2s1.8,2.3,3.3,2.4C428.3,376.2,429.6,378.7,429,383z M410,375.2c0.2-0.2,0.5-0.5,0.5-0.7s-0.5-0.4-0.8-0.5
			c-0.2,0.2-0.5,0.5-0.5,0.7S409.7,375.1,410,375.2z"/>
		<path class="st1" d="M410.4,376.7c-0.3-0.1-0.9-0.3-1-0.5s0.3-0.5,0.5-0.8c0.3,0.1,0.9,0.3,1,0.5S410.5,376.4,410.4,376.7z"/>
		<path class="st1" d="M398.6,280.8l-2.8-0.7c0.3-0.4,0.5-0.9,0.9-1C398.5,278.7,398.5,279.8,398.6,280.8L398.6,280.8z"/>
		<path class="st1" d="M394,276.3l0.5,0.3L394,276.3L394,276.3z"/>
	</g>
</g>
</svg>
