<?xml version="1.0" encoding="utf-8"?>
<!-- Generator: Adobe Illustrator 25.4.1, SVG Export Plug-In . SVG Version: 6.00 Build 0)  -->
<svg version="1.1" id="Layer_1" xmlns="http://www.w3.org/2000/svg" xmlns:xlink="http://www.w3.org/1999/xlink" x="0px" y="0px"
	 viewBox="0 0 837.3 1537" style="enable-background:new 0 0 837.3 1537;" xml:space="preserve">
<style type="text/css">
	.st0{fill:none;}
	.st1{opacity:0.38;fill-rule:evenodd;clip-rule:evenodd;fill:#99928A;enable-background:new    ;}
	.st2{fill-rule:evenodd;clip-rule:evenodd;fill:#FFF4C9;}
	.st3{fill-rule:evenodd;clip-rule:evenodd;fill:url(#SVGID_1_);}
	.st4{fill-rule:evenodd;clip-rule:evenodd;fill:#562C27;}
	.st5{fill-rule:evenodd;clip-rule:evenodd;fill:url(#SVGID_00000018945536066471310700000003109931468913819286_);}
	.st6{fill-rule:evenodd;clip-rule:evenodd;fill:#FFFFFF;}
	.st7{fill-rule:evenodd;clip-rule:evenodd;fill:url(#SVGID_00000163039180678522079270000007663371166391659445_);}
	.st8{fill-rule:evenodd;clip-rule:evenodd;fill:url(#SVGID_00000018926376923603829030000007006138522655453090_);}
	.st9{fill-rule:evenodd;clip-rule:evenodd;fill:url(#SVGID_00000016044725062382119800000003003095698493923203_);}
	.st10{fill-rule:evenodd;clip-rule:evenodd;fill:url(#SVGID_00000028326749658414689350000000941185313352558979_);}
</style>
<g id="Layer_2_00000176008135633147664860000015833077111245783456_">
	<g id="base">
		<rect class="st0" width="837.3" height="1537"/>
	</g>
	<g id="eyes">
		<path class="st1" d="M424.9,239.6c0,0,1.9-8.1,8.6-11.6s19.2,6.5,21,14.2L424.9,239.6z"/>
		<path class="st2" d="M455.4,245.9c-5,11.1-29.2,11.5-30.3,6.1c-1.2-5.9-0.9-17.4,9.4-18.9c1.4-0.2,2.8-0.2,4.2-0.2l0,0
			c5.6,0.4,10.8,2.9,14.6,7.1C455.2,242.2,456,244.4,455.4,245.9z"/>
		
			<linearGradient id="SVGID_1_" gradientUnits="userSpaceOnUse" x1="442.9" y1="215.6" x2="442.9" y2="194.9" gradientTransform="matrix(1 0 0 1 0 38)">
			<stop  offset="3.000000e-02" style="stop-color:#815447"/>
			<stop  offset="1" style="stop-color:#592C27"/>
		</linearGradient>
		<path class="st3" d="M453.7,242.8c0,5.9-4.8,10.8-10.8,10.8s-10.8-4.8-10.8-10.8c0-4.3,2.6-8.2,6.5-9.9l0,0
			c5.6,0.4,10.8,2.9,14.5,7.1C453.6,240.9,453.7,241.9,453.7,242.8z"/>
		<path class="st4" d="M450.7,242.9c0,3.9-3.2,7.1-7.1,7.1s-7.1-3.2-7.1-7.1s3.2-7.1,7.1-7.1S450.7,238.9,450.7,242.9L450.7,242.9z"
			/>
		
			<linearGradient id="SVGID_00000030457457594372104250000009131334658360311681_" gradientUnits="userSpaceOnUse" x1="424.01" y1="199.7323" x2="455.37" y2="199.7323" gradientTransform="matrix(1 0 0 1 0 38)">
			<stop  offset="0" style="stop-color:#592C27"/>
			<stop  offset="0.98" style="stop-color:#814227"/>
		</linearGradient>
		<path style="fill-rule:evenodd;clip-rule:evenodd;fill:url(#SVGID_00000030457457594372104250000009131334658360311681_);" d="
			M424.6,243.3c0,0-1.4-3.9,0-6.4s4.6-5.4,13-4.6s15.4,5.5,17.7,11c0,0-9.8-8.8-20.9-7.4C425.6,236.9,425.7,240.7,424.6,243.3z"/>
		<path class="st6" d="M434.2,244.7c0,1-0.8,1.9-1.9,1.9c-1,0-1.9-0.8-1.9-1.9c0-1,0.8-1.9,1.9-1.9S434.2,243.7,434.2,244.7
			L434.2,244.7z"/>
		<path class="st1" d="M366.4,243.8c0,0,1.6-12,8.4-13.9s10.9,13.7,10.7,18.3L366.4,243.8z"/>
		<path class="st2" d="M385.4,251.2c0,1.1-0.2,2.2-0.6,3.2c-1.6,4.7-16.4,2.2-18.5-0.2c-1.5-1.7-0.1-19.8,6.3-21.2
			c3.7-0.7,7.1,1.6,9.5,5.3l0,0c0.5,0.8,1,1.7,1.4,2.6c0,0.1,0.1,0.1,0,0.1c0.5,1.1,0.9,2.3,1.2,3.5
			C385.4,246.7,385.6,249,385.4,251.2z"/>
		
			<linearGradient id="SVGID_00000136412992526212109600000016703922765538557595_" gradientUnits="userSpaceOnUse" x1="378.0367" y1="218.4" x2="378.0367" y2="197.7" gradientTransform="matrix(1 0 0 1 0 38)">
			<stop  offset="3.000000e-02" style="stop-color:#815447"/>
			<stop  offset="1" style="stop-color:#592C27"/>
		</linearGradient>
		<path style="fill-rule:evenodd;clip-rule:evenodd;fill:url(#SVGID_00000136412992526212109600000016703922765538557595_);" d="
			M385.4,251.2c-1.3,3.1-3.9,5.2-6.8,5.2c-4.4,0-8-4.8-8-10.8c0-4.4,2-8.2,4.9-9.9l0,0c2.4,0.2,4.7,1.2,6.6,2.6l0,0
			c0.5,0.8,1,1.7,1.4,2.6c0,0.1,0.1,0.1,0,0.1c0.7,1.1,1.1,2.3,1.2,3.5C385.4,246.7,385.6,249,385.4,251.2z"/>
		<path class="st4" d="M384.9,245.6c0,4-2.4,7.2-5.3,7.2s-5.3-3.2-5.3-7.2s2.4-7.1,5.3-7.1c1.7,0.1,3.2,1,4,2.4c0,0.1,0.1,0.1,0,0.1
			c0.7,1.1,1.1,2.3,1.2,3.5C384.8,245,384.9,245.3,384.9,245.6z"/>
		
			<linearGradient id="SVGID_00000181076141251589052080000014077555100065927085_" gradientUnits="userSpaceOnUse" x1="366.6942" y1="202.1495" x2="385.46" y2="202.1495" gradientTransform="matrix(1 0 0 1 0 38)">
			<stop  offset="2.000000e-02" style="stop-color:#814227"/>
			<stop  offset="1" style="stop-color:#592C27"/>
		</linearGradient>
		<path style="fill-rule:evenodd;clip-rule:evenodd;fill:url(#SVGID_00000181076141251589052080000014077555100065927085_);" d="
			M366.8,240.9c-0.2-1.7,0-3.5,0.8-5.1c1.5-2.9,5.1-4.9,10.4-2.6c6.6,2.9,7.4,14.9,7.4,14.9s-2.3-10.5-9.4-12.3
			c-4.3-1.1-6.9,0.7-7.6,1.9S366.8,240.9,366.8,240.9z"/>
		<path class="st6" d="M372.5,246.1c0,1-0.8,1.9-1.9,1.9c-1,0-1.9-0.8-1.9-1.9s0.8-1.9,1.9-1.9l0,0
			C371.6,244.2,372.5,245,372.5,246.1z"/>
		
			<linearGradient id="SVGID_00000083077314972177816730000008168678284134289836_" gradientUnits="userSpaceOnUse" x1="441.2941" y1="190.1954" x2="441.2941" y2="171" gradientTransform="matrix(1 0 0 1 0 38)">
			<stop  offset="1.000000e-02" style="stop-color:#792727"/>
			<stop  offset="0.99" style="stop-color:#8D4347"/>
		</linearGradient>
		<path style="fill-rule:evenodd;clip-rule:evenodd;fill:url(#SVGID_00000083077314972177816730000008168678284134289836_);" d="
			M417.7,209c0,0-2.8,12.1,2,18.7c8.2,1,16.6,0.6,24.6-1.4c12.7-3.2,21.4-1.7,21.4-1.7s-4.3-9.2-13-11.9s-26.4,0.8-31-0.3
			C420.2,212,417.7,209,417.7,209z"/>
		
			<linearGradient id="SVGID_00000034055231220593527540000016741537538338572458_" gradientUnits="userSpaceOnUse" x1="368.4425" y1="191.1" x2="368.4425" y2="164.3304" gradientTransform="matrix(1 0 0 1 0 38)">
			<stop  offset="1.000000e-02" style="stop-color:#792727"/>
			<stop  offset="0.99" style="stop-color:#8D4347"/>
		</linearGradient>
		<path style="fill-rule:evenodd;clip-rule:evenodd;fill:url(#SVGID_00000034055231220593527540000016741537538338572458_);" d="
			M357.4,221.5c0,0,11.3-1.3,17.1,1.8s8.3,5.8,8.3,5.8s-2.9-17.8-8.9-23.5s-16.6-2.1-16.6-2.1S350,211.2,357.4,221.5z"/>
	</g>
</g>
</svg>
