<?xml version="1.0" encoding="utf-8"?>
<!-- Generator: Adobe Illustrator 25.4.1, SVG Export Plug-In . SVG Version: 6.00 Build 0)  -->
<svg version="1.1" id="Layer_1" xmlns="http://www.w3.org/2000/svg" xmlns:xlink="http://www.w3.org/1999/xlink" x="0px" y="0px"
	 viewBox="0 0 837.3 1537" style="enable-background:new 0 0 837.3 1537;" xml:space="preserve">
<style type="text/css">
	.st0{fill:none;}
	.st1{fill-rule:evenodd;clip-rule:evenodd;fill:url(#SVGID_1_);}
	.st2{fill-rule:evenodd;clip-rule:evenodd;fill:url(#SVGID_00000077309914626434430560000005560207368347845253_);}
	.st3{fill-rule:evenodd;clip-rule:evenodd;fill:url(#SVGID_00000181768050123998983450000003420845683840886717_);}
	.st4{fill-rule:evenodd;clip-rule:evenodd;fill:#AA8724;}
	.st5{fill-rule:evenodd;clip-rule:evenodd;fill:url(#SVGID_00000003103899480570545590000003783238740045955228_);}
	.st6{fill-rule:evenodd;clip-rule:evenodd;fill:url(#SVGID_00000080885145035530297900000010586110267896976570_);}
	.st7{fill-rule:evenodd;clip-rule:evenodd;fill:url(#SVGID_00000158026434355327003950000012986088302369266585_);}
	.st8{fill-rule:evenodd;clip-rule:evenodd;fill:url(#SVGID_00000136387668357334491390000004727445940271606200_);}
</style>
<g id="Layer_2_00000100378563307515113560000011327189675546970243_">
	<g id="base">
		<rect class="st0" width="837.3" height="1537"/>
	</g>
	<g id="Mouth_04">
		
			<linearGradient id="SVGID_1_" gradientUnits="userSpaceOnUse" x1="395.7079" y1="410.15" x2="420.9073" y2="410.15" gradientTransform="matrix(1 0 0 1 0 38)">
			<stop  offset="0" style="stop-color:#322000"/>
			<stop  offset="1" style="stop-color:#502900"/>
		</linearGradient>
		<path class="st1" d="M399.4,424.6c-2.9,8.2-4.1,17-3.5,25.7c0.4,6.2,7.8,22.3,12.5,22.3s8.8-10.6,11.4-21.5
			c2.1-11.9,0.9-27.4,0.9-27.4L399.4,424.6z"/>
		
			<linearGradient id="SVGID_00000181796774634377407750000003156252983641667747_" gradientUnits="userSpaceOnUse" x1="404.66" y1="280.5959" x2="457.86" y2="280.5959" gradientTransform="matrix(1 0 0 1 0 38)">
			<stop  offset="0" style="stop-color:#322000"/>
			<stop  offset="1" style="stop-color:#502900"/>
		</linearGradient>
		<path style="fill-rule:evenodd;clip-rule:evenodd;fill:url(#SVGID_00000181796774634377407750000003156252983641667747_);" d="
			M404.7,307.6l3.6-5.8c0,0,27.2-8.7,42.9-0.2c8.5,4.6,1.9,35.1,6.6,31.4c0,0-1.9,5.4-9.8,6.3s2.4-31.3-10.3-30.2
			s-33.1,1.7-33.1,1.7L404.7,307.6z"/>
		
			<linearGradient id="SVGID_00000053532514637536623950000011718821945033183923_" gradientUnits="userSpaceOnUse" x1="-914.67" y1="279.3104" x2="-881.07" y2="279.3104" gradientTransform="matrix(-1 0 0 1 -509.41 38)">
			<stop  offset="0" style="stop-color:#322000"/>
			<stop  offset="1" style="stop-color:#502900"/>
		</linearGradient>
		<path style="fill-rule:evenodd;clip-rule:evenodd;fill:url(#SVGID_00000053532514637536623950000011718821945033183923_);" d="
			M405.3,307.6l-4.9-6c0,0-19.9-6.3-24.5,0s-1.2,34.2-4.2,30.5c0,0,1.8,2.8,6.7,3.7s-2.1-27.8,5.9-26.7s20.9,1.7,20.9,1.7v-3.2
			H405.3z"/>
		<path class="st4" d="M423,388.7c0,0,0.1,3.1-2.7,8.8c-3.4,2.4-17.9,1.1-22.1-0.8c-1.9-11.3,9.1-7.4,9.1-7.4L423,388.7z"/>
		<path class="st4" d="M395.8,415.7c0,0-0.1,3.1,2.7,8.8c3.4,2.4,17.9,1.1,22.1-0.8c1.9-11.3-9.1-7.4-9.1-7.4L395.8,415.7z"/>
		
			<linearGradient id="SVGID_00000166669514476785840540000017567887227414579083_" gradientUnits="userSpaceOnUse" x1="391.7112" y1="369.2954" x2="423.7086" y2="369.2954" gradientTransform="matrix(1 0 0 1 0 38)">
			<stop  offset="0" style="stop-color:#322000"/>
			<stop  offset="1" style="stop-color:#502900"/>
		</linearGradient>
		<path style="fill-rule:evenodd;clip-rule:evenodd;fill:url(#SVGID_00000166669514476785840540000017567887227414579083_);" d="
			M398.3,396.7c0,0-12,6-3.7,18c2.8,4,11.2,3.8,24,1.8c10.2-7.5,1.7-19,1.7-19L398.3,396.7z"/>
		
			<linearGradient id="SVGID_00000134959167522932618060000012533185448445057712_" gradientUnits="userSpaceOnUse" x1="358.7" y1="299.8865" x2="495.6365" y2="299.8865" gradientTransform="matrix(1 0 0 1 0 38)">
			<stop  offset="0" style="stop-color:#322000"/>
			<stop  offset="1" style="stop-color:#502900"/>
		</linearGradient>
		<path style="fill-rule:evenodd;clip-rule:evenodd;fill:url(#SVGID_00000134959167522932618060000012533185448445057712_);" d="
			M495.1,296.2c-3.2-1-7-3.6-8.7-9.5c0,0,0-0.4-0.1-1.1c-2.6-0.9-5.4-1.2-8.1-0.7c-0.4,3-0.9,5.9-1,8.9c-0.1,3.4-3.2,19.4-21.5,37.1
			c-7.6,7.3-25.5,10.4-38.2,11.5c-4.2,0.4,1.9-12-10.9-12.2s-6.3,12.1-10.1,11.1c-8.6-2.4-18-7.4-23.9-14.9
			c-8.5-10.9-12.9-27.4-12.9-27.4l-1-0.6c0,0,1.1,39.5,13,60.5c10.2,12.3,15.6,24.7,21.9,29.5c4.5,3.4,11.3,2.8,18.3,2.4
			c7.3-0.4,14.7,0,20.3-3.3c14.2-8.6,23.5-18.2,30.4-30.4c20.5-23.8,35.5-49.5,32.7-60.5C495.2,296.5,495.2,296.4,495.1,296.2z"/>
	</g>
</g>
<linearGradient id="SVGID_00000088827579159798225250000006090031844428440449_" gradientUnits="userSpaceOnUse" x1="407.0554" y1="1212.4517" x2="416.0027" y2="1234.3951" gradientTransform="matrix(1 0 0 -1 0 1538)">
	<stop  offset="0" style="stop-color:#CE595B"/>
	<stop  offset="1" style="stop-color:#D67261"/>
</linearGradient>
<path style="fill-rule:evenodd;clip-rule:evenodd;fill:url(#SVGID_00000088827579159798225250000006090031844428440449_);" d="
	M382.1,312.5c0,0,5.5,3.1,17.5,2.2s36.1,1.4,40.2-1.5l1.8,1.7c0,0-25.1,2.5-34.8,3.3c-9.1,0.7-12.4,2.5-20.5-1.2l-3.1-2.9
	L382.1,312.5z"/>
<linearGradient id="SVGID_00000048502782300964971700000013211197357834694839_" gradientUnits="userSpaceOnUse" x1="396.47" y1="1214.8054" x2="411.04" y2="1214.8054" gradientTransform="matrix(1 0 0 -1 0 1538)">
	<stop  offset="0" style="stop-color:#CE595B"/>
	<stop  offset="1" style="stop-color:#D67261"/>
</linearGradient>
<path style="fill-rule:evenodd;clip-rule:evenodd;fill:url(#SVGID_00000048502782300964971700000013211197357834694839_);" d="
	M396.5,321.8c4.7,1.5,9.7,1.8,14.6,0.6c0,0-1.4,0.8-6.4,2.1C401.1,325.4,396.5,321.8,396.5,321.8z"/>
</svg>
