<?xml version="1.0" encoding="utf-8"?>
<!-- Generator: Adobe Illustrator 25.4.1, SVG Export Plug-In . SVG Version: 6.00 Build 0)  -->
<svg version="1.1" id="Layer_1" xmlns="http://www.w3.org/2000/svg" xmlns:xlink="http://www.w3.org/1999/xlink" x="0px" y="0px"
	 viewBox="0 0 837.3 1537" style="enable-background:new 0 0 837.3 1537;" xml:space="preserve">
<style type="text/css">
	.st0{fill:none;}
	.st1{fill-rule:evenodd;clip-rule:evenodd;fill:#9B5C4E;}
	.st2{fill-rule:evenodd;clip-rule:evenodd;fill:#72433B;}
</style>
<g id="Layer_2_00000003809071674140057620000017037500499519708344_">
	<g id="base">
		<rect class="st0" width="837.3" height="1537"/>
	</g>
	<g id="chest_01">
		<path class="st1" d="M499.4,296.4c0,0,1.1,56,12,83.9c0,0-39.2,53-84.4,50.2s-35.1-39.1-35.1-39.1s12.5-17.4,14.7-44.9
			S499.4,296.4,499.4,296.4z"/>
		<path class="st1" d="M658.8,474.9c6.2,9.7,18.4,32.5,4.3,54.4c-11.6,18-57.4,33.2-71.7,53.8c-4.5,6.4-9,12.8-13.4,19.2
			c-15.9,22.6-26.3,53.6-45.1,75.4c-24.2,28.1-19.4,67.3-19.4,67.3s1.2,80.2-93.8,83.7c-86.6,3.2-84.2-74.5-84.2-74.5
			c-3.2-9.4-12.3-52.8-12.3-52.8l-3.9-31.5l-4.1-6.5l-7.6-74.5l-13.2-5.5c-6.7-28.8-15.1-79.6-15.1-79.6c-29.3-22-18-52-18-52
			c19-22.7,42.2-28.8,73.5-39.8c19.9-7.1,38.9-18.2,49.9-25.3l2.4-1.6c3.4-2.2,11.2-3.4,11.2-3.4s-7.2,9.3-5.4,18.3
			s14.1,33.9,56.2,23s57.8-57.3,57.8-57.3s8.8,5.1,13,8.7c13.1,11.5,38.3,28.9,69.1,43.8C629.4,437.6,658.8,474.9,658.8,474.9z"/>
		<path class="st2" d="M387.5,585.1c-11.5,2.2-79.9,3.8-79.9,3.8l-13.2-5.5c-6.7-28.8-1.8-82.6-1.8-82.6
			c-0.4,44.1,5.1,76.4,6.4,78.9S327.8,585.1,387.5,585.1z"/>
		<path class="st2" d="M450.9,585.1c11.5,2.2,80,3.8,80,3.8l13.2-5.5c4.1-11.3,2.6-25.3,4.2-38.6c2.9-23.2,13.7-44.1,13.7-44.1
			c-21.5,34.6-21.2,76.4-22.5,78.9S510.6,585.1,450.9,585.1z"/>
		<path class="st2" d="M422.5,662.3c4.9,0.6,33.7,1,33.7,1l5.6-1.5c15.2-4.2,18.1-22.5,18.1-22.5c-6.9,17.4-19.5,20.8-20.1,21.4
			S447.6,662.3,422.5,662.3z"/>
		<path class="st2" d="M396.6,662.3c-5.4,0.6-37.3,1-37.3,1l-6.1-1.5c-16.9-4.2-20.1-22.5-20.1-22.5c7.6,17.4,21.6,20.8,22.2,21.4
			S368.8,662.3,396.6,662.3z"/>
		<path class="st2" d="M416.7,707.3c3.7,0.3,25.4,0.5,25.4,0.5l4.2-0.7c11.5-2,13.7-10.8,13.7-10.8c-5.2,8.4-14.8,10-15.1,10.3
			S435.7,707.3,416.7,707.3z"/>
		<path class="st2" d="M397.2,707.3c-4,0.3-28.1,0.5-28.1,0.5l-4.6-0.7c-12.7-2-15.2-10.8-15.2-10.8c5.8,8.4,16.3,10,16.8,10.3
			S376.2,707.3,397.2,707.3z"/>
		<path class="st2" d="M422.3,484.6c-1.5,15.5-2.2,31-2.2,46.5c0.1,15.4,0.9,29.8,2.2,42.8c-1.8-13.9-5.2-35.5-5.2-43.2
			S422.3,484.6,422.3,484.6z"/>
		<path class="st2" d="M415.2,622.9c-2.5,19.5-4.5,41.1-5.7,64.5c-1.1,21.4-1.4,41.4-1,59.7c-0.8-19.4-2.6-49.7-2-60.3
			S415.2,622.9,415.2,622.9z"/>
		<path class="st2" d="M423.6,433.4c-10.9-7.9-23.4-13.3-36.6-15.8c6.4,0.8,16.6,1.5,19.8,2.8S423.6,433.4,423.6,433.4z"/>
		<path class="st2" d="M450.5,432.9c10.5-8.4,22.6-14.5,35.7-17.7c-6.4,1.1-16.5,2.3-19.6,3.9S450.5,432.9,450.5,432.9z"/>
	</g>
</g>
</svg>
