<svg xmlns="http://www.w3.org/2000/svg" xmlns:xlink="http://www.w3.org/1999/xlink" viewBox="0 0 837.33 1537"><defs><style>.cls-1{fill:none;}.cls-2,.cls-3,.cls-4{fill-rule:evenodd;}.cls-2{fill:url(#Áåçûìÿííûé_ãðàäèåíò_104);}.cls-3{fill:url(#Áåçûìÿííûé_ãðàäèåíò_23);}.cls-4{fill:#b85652;}</style><linearGradient id="Áåçûìÿííûé_ãðàäèåíò_104" x1="288.91" y1="538" x2="288.62" y2="517.25" gradientTransform="matrix(1.2, 0.49, -0.4, 0.99, 282.19, -381.43)" gradientUnits="userSpaceOnUse"><stop offset="0" stop-color="#ff7f66"/><stop offset="1" stop-color="#ec887e"/></linearGradient><linearGradient id="Áåçûìÿííûé_ãðàäèåíò_23" x1="275.75" y1="548.26" x2="275.75" y2="527.9" gradientTransform="matrix(1.2, 0.49, -0.4, 0.99, 282.19, -381.43)" gradientUnits="userSpaceOnUse"><stop offset="0" stop-color="#ce595b"/><stop offset="1" stop-color="#d67261"/></linearGradient></defs><g id="Layer_2" data-name="Layer 2"><g id="base"><rect class="cls-1" width="837.33" height="1537"/></g><g id="nose_03"><path class="cls-2" d="M418.65,269.76s6.5,4.4,5.14,14.32l-17.26,4.69L419,282.39S423.43,277.14,418.65,269.76Z"/><path class="cls-3" d="M375.92,283.6a29.48,29.48,0,0,0,7.88,2.58c3.55.59,3.93,2.38,12.88,2.38,8,0,15.49-5.63,23.66-5.88,0,0-7.6,4.4-16.91,10.31,0,0-2.34,3.08-14.64.27C388.79,293.26,382.73,290.79,375.92,283.6Z"/><path class="cls-4" d="M408.31,289.5s4.2-6.33,11.89-4.44C420.2,285.06,416.49,288.28,408.31,289.5Z"/></g></g></svg>