<?xml version="1.0" encoding="utf-8"?>
<!-- Generator: Adobe Illustrator 25.4.1, SVG Export Plug-In . SVG Version: 6.00 Build 0)  -->
<svg version="1.1" id="Layer_1" xmlns="http://www.w3.org/2000/svg" xmlns:xlink="http://www.w3.org/1999/xlink" x="0px" y="0px"
	 viewBox="0 0 837.3 1537" style="enable-background:new 0 0 837.3 1537;" xml:space="preserve">
<style type="text/css">
	.st0{fill:none;}
	.st1{fill:url(#SVGID_1_);}
	.st2{fill-rule:evenodd;clip-rule:evenodd;fill:url(#SVGID_00000000222509650373846030000005623539874052996482_);}
	.st3{fill-rule:evenodd;clip-rule:evenodd;fill:#CCB293;}
	.st4{fill-rule:evenodd;clip-rule:evenodd;fill:#C69A6D;}
</style>
<g id="Layer_2_00000039095422610089713490000003932375199820784307_">
	<g id="base">
		<rect class="st0" width="837.3" height="1537"/>
	</g>
	<g id="nose_07">
		<linearGradient id="SVGID_1_" gradientUnits="userSpaceOnUse" x1="383.5013" y1="272.95" x2="394.4" y2="272.95">
			<stop  offset="0" style="stop-color:#E2C7A1"/>
			<stop  offset="1" style="stop-color:#C69A6D"/>
		</linearGradient>
		<path class="st1" d="M391.4,289.6c-3.7-0.7-6.9-5.8-5.4-9.5c2.8-6.8,7-16.4,8.4-24c-3.6,7.5-8,19.3-8,19.3
			c-5.4,12.3-1.6,11.6-1.6,11.6s3.8,2.7,7.5,2.8L391.4,289.6z"/>
		
			<linearGradient id="SVGID_00000123411779694779528840000008671405723630059174_" gradientUnits="userSpaceOnUse" x1="400.9" y1="282.25" x2="412.4875" y2="282.25">
			<stop  offset="0" style="stop-color:#E2C7A1"/>
			<stop  offset="1" style="stop-color:#C69A6D"/>
		</linearGradient>
		<path style="fill-rule:evenodd;clip-rule:evenodd;fill:url(#SVGID_00000123411779694779528840000008671405723630059174_);" d="
			M409.3,275.4c0,0,4.1,2.9,3,10l-11.4,3.7l8.3-4.8C411,281.7,411.1,278.1,409.3,275.4z"/>
		<path class="st3" d="M384.8,287c2.2,1.6,4.8,2.5,7.5,2.7c0,0,12.5-4.8,17.8-5.2c0,0-5.1,3.3-11.3,7.7c0,0-1.6,2.2-9.6,0.5
			C389.2,292.7,389.1,291.9,384.8,287z"/>
		<path class="st4" d="M402,289.6c0,0,2.9-4.6,7.9-3.4C409.9,286.2,407.4,288.5,402,289.6z"/>
		<path class="st4" d="M398.8,269.3c0,0-4.8,12.7-3.3,16.9C395.5,279.5,398.8,269.3,398.8,269.3z"/>
	</g>
</g>
</svg>
