<?xml version="1.0" encoding="utf-8"?>
<!-- Generator: Adobe Illustrator 25.4.1, SVG Export Plug-In . SVG Version: 6.00 Build 0)  -->
<svg version="1.1" id="Layer_1" xmlns="http://www.w3.org/2000/svg" xmlns:xlink="http://www.w3.org/1999/xlink" x="0px" y="0px"
	 viewBox="0 0 837.3 1537" style="enable-background:new 0 0 837.3 1537;" xml:space="preserve">
<style type="text/css">
	.st0{fill:none;}
	.st1{fill-rule:evenodd;clip-rule:evenodd;fill:url(#SVGID_1_);}
	.st2{fill-rule:evenodd;clip-rule:evenodd;fill:#4C2C20;}
</style>
<g id="Layer_2_00000181805212407713700970000014573895738446449830_">
	<g id="base">
		<rect class="st0" width="837.3" height="1537"/>
	</g>
	<g id="mouth_08">
		
			<linearGradient id="SVGID_1_" gradientUnits="userSpaceOnUse" x1="387.02" y1="1171.37" x2="438.9784" y2="1171.37" gradientTransform="matrix(1 0 0 -1 0 1538)">
			<stop  offset="0" style="stop-color:#36062C"/>
			<stop  offset="1" style="stop-color:#441B3E"/>
		</linearGradient>
		<path class="st1" d="M438,365.8c1.1-6.1,1.2-12.4,0.4-18.6c-4.6,2.2-8.2,4.2-21.1,1.2c-5.6-1.3,0-17.5,0-17.5s-10.7,1.4-13.4,1.3
			c-3.7-0.3-7.3-0.8-10.9-1.5c0,0,11.5,17,3.3,16.7c-3.7-0.1-4.8,1.3-9.5-1.7c0.9,4.2-0.1,15,1.7,25.5c0-0.3,0-0.6,0-0.9
			c0-0.8,1.4,5.1,1.6,7.6l0,0c0.5,1.7,1.2,3.4,2,5c0.2,0.4,0.4,0.8,0.6,1.2c-0.5-3-1-6.1-0.1-9.1c0.2-0.8,1,7.3,1.6,10.7
			c0.1,0.5,0.1,1,0.2,1.5c0.8,1.4,4.1,3.1,4,6c1,1.2,2,2.5,3,3.6c-0.1-1-0.1-2,0-3c0.1-0.8,1.2,3,1.3,4.4c2.7,2.6,5.6,4.4,8.4,4.5
			c0.4-1.3,1-2.5,1.8-3.5c0.2-0.3-0.1,2.5-0.5,3.4c1.7-0.6,3.3-1.5,4.8-2.6c0-0.4,0-0.8,0-1.1c0-0.3,0.3-0.6,0.6-0.6
			c0.3,0,0.6,0.8,0.6,0.8c4.2-3.8,7.7-8.2,10.4-13.2c-1.1,3.1-2.6,6.1-4.6,8.7c6.4-4.8,6.3-8.5,7-9.6c0.1-2.1,1.7-7,1.6-6.2
			c-0.1,1.3-0.2,2.6-0.3,3.9c0.4-0.8,0.8-1.6,1-2.4c0.5-1.5,1-3,1.5-4.4c0-2.3,1.1-7.6,1.1-6.9c0,1.1,0,2.1,0,3.2
			c0.1-0.3,0.2-0.7,0.3-1C436.8,368.2,438.1,364.8,438,365.8z"/>
		<path class="st2" d="M382.1,312.5c0,0,5.5,3.1,17.5,2.2s36.1,1.4,40.2-1.5l1.8,1.7c0,0-25.1,2.5-34.8,3.3
			c-9.1,0.7-12.4,2.5-20.5-1.2l-3.1-2.9L382.1,312.5z"/>
		<path class="st2" d="M396.5,321.8c4.7,1.5,9.7,1.8,14.6,0.6c0,0-1.4,0.8-6.4,2.1C401.1,325.4,396.5,321.8,396.5,321.8z"/>
	</g>
</g>
</svg>
