<svg xmlns="http://www.w3.org/2000/svg" xmlns:xlink="http://www.w3.org/1999/xlink" viewBox="0 0 837.33 1537"><defs><style>.cls-1{isolation:isolate;}.cls-2{fill:none;}.cls-3{fill:url(#Áåçûìÿííûé_ãðàäèåíò_505);}.cls-4{fill:#d177b8;}.cls-10,.cls-12,.cls-20,.cls-4{mix-blend-mode:multiply;}.cls-12,.cls-4{opacity:0.6;}.cls-5{fill:url(#Áåçûìÿííûé_ãðàäèåíò_104);}.cls-6{fill:url(#Áåçûìÿííûé_ãðàäèåíò_300);}.cls-7{fill:#dd4c6a;}.cls-8{fill:url(#Áåçûìÿííûé_ãðàäèåíò_40);}.cls-9{fill:url(#Áåçûìÿííûé_ãðàäèåíò_40-2);}.cls-10{fill:url(#Áåçûìÿííûé_ãðàäèåíò_191);}.cls-11{fill:#fff;}.cls-12{fill:#b42f97;}.cls-13{fill:url(#Áåçûìÿííûé_ãðàäèåíò_111);}.cls-14{fill:#ff9d8a;}.cls-15{fill:#270039;}.cls-16{fill:url(#Áåçûìÿííûé_ãðàäèåíò_300-2);}.cls-17{fill:#880a2c;}.cls-18{fill:url(#Áåçûìÿííûé_ãðàäèåíò_182);}.cls-19{fill:url(#Áåçûìÿííûé_ãðàäèåíò_205);}.cls-20{fill:url(#Áåçûìÿííûé_ãðàäèåíò_191-2);}.cls-21{fill:#dd6668;}.cls-22{fill:#42003d;}.cls-23{fill:url(#Áåçûìÿííûé_ãðàäèåíò_505-2);}.cls-24{fill:#0d0e11;}</style><linearGradient id="Áåçûìÿííûé_ãðàäèåíò_505" x1="419.49" y1="222.89" x2="467.99" y2="222.89" gradientUnits="userSpaceOnUse"><stop offset="0" stop-color="#430027"/><stop offset="1" stop-color="#560029"/></linearGradient><linearGradient id="Áåçûìÿííûé_ãðàäèåíò_104" x1="437.45" y1="237.59" x2="442.26" y2="237.59" gradientTransform="translate(-8.54 16.53) rotate(-2.13)" gradientUnits="userSpaceOnUse"><stop offset="0" stop-color="#ff7f66"/><stop offset="1" stop-color="#ec887e"/></linearGradient><linearGradient id="Áåçûìÿííûé_ãðàäèåíò_300" x1="217.23" y1="256.01" x2="217.23" y2="238.43" gradientTransform="matrix(-1, 0, 0, 1, 595.93, 0)" gradientUnits="userSpaceOnUse"><stop offset="0" stop-color="#eee2ff"/><stop offset="1" stop-color="#bdc9fb"/></linearGradient><linearGradient id="Áåçûìÿííûé_ãðàäèåíò_40" x1="215.9" y1="256.63" x2="215.9" y2="239.02" gradientTransform="matrix(-1, 0, 0, 1, 595.93, 0)" gradientUnits="userSpaceOnUse"><stop offset="0" stop-color="#4d0e2e"/><stop offset="1" stop-color="#36063b"/></linearGradient><linearGradient id="Áåçûìÿííûé_ãðàäèåíò_40-2" x1="215.9" y1="256.11" x2="215.9" y2="239.54" xlink:href="#Áåçûìÿííûé_ãðàäèåíò_40"/><linearGradient id="Áåçûìÿííûé_ãðàäèåíò_191" x1="215.9" y1="253.2" x2="215.9" y2="242.45" gradientTransform="matrix(-1, 0, 0, 1, 595.93, 0)" gradientUnits="userSpaceOnUse"><stop offset="0" stop-color="#a79abd"/><stop offset="0.99" stop-color="#724a60"/></linearGradient><linearGradient id="Áåçûìÿííûé_ãðàäèåíò_111" x1="366.53" y1="253.99" x2="390.28" y2="253.99" gradientUnits="userSpaceOnUse"><stop offset="0" stop-color="#592c27"/><stop offset="0.98" stop-color="#814227"/></linearGradient><linearGradient id="Áåçûìÿííûé_ãðàäèåíò_300-2" x1="140.07" y1="256.96" x2="140.07" y2="235.4" gradientTransform="matrix(-1, 0, 0, 1, 520.26, 0)" xlink:href="#Áåçûìÿííûé_ãðàäèåíò_300"/><linearGradient id="Áåçûìÿííûé_ãðàäèåíò_182" x1="138.35" y1="257.71" x2="138.35" y2="236.13" gradientTransform="matrix(-1, 0, 0, 1, 520.26, 0)" gradientUnits="userSpaceOnUse"><stop offset="0" stop-color="#aca1db"/><stop offset="1" stop-color="#6a518a"/></linearGradient><linearGradient id="Áåçûìÿííûé_ãðàäèåíò_205" x1="138.35" y1="257.08" x2="138.35" y2="236.76" gradientTransform="matrix(-1, 0, 0, 1, 520.26, 0)" gradientUnits="userSpaceOnUse"><stop offset="0" stop-color="#baa9cc"/><stop offset="0.96" stop-color="#404577"/></linearGradient><linearGradient id="Áåçûìÿííûé_ãðàäèåíò_191-2" x1="138.35" y1="253.51" x2="138.35" y2="240.33" gradientTransform="matrix(-1, 0, 0, 1, 520.26, 0)" xlink:href="#Áåçûìÿííûé_ãðàäèåíò_191"/><linearGradient id="Áåçûìÿííûé_ãðàäèåíò_505-2" x1="368.38" y1="222.89" x2="405.61" y2="222.89" gradientTransform="matrix(-1, 0, 0, 1, 768.26, 0)" xlink:href="#Áåçûìÿííûé_ãðàäèåíò_505"/></defs><g class="cls-1"><g id="Layer_2" data-name="Layer 2"><g id="base"><rect class="cls-2" width="837.33" height="1537"/></g><g id="Eyes_04"><path class="cls-3" d="M423.59,234.19s-3.49-7.59-4.1-14.45l2.89-1.29s.45,7.13,4.25,11.91a59.78,59.78,0,0,1-2.71-11.91s11.59-4.36,20.58-5.75a22.91,22.91,0,0,1,10.3,1.05,13.27,13.27,0,0,1,3.61,1.72l-1.17-3.89s14.83,6.36,9.66,20.92c0,0-8.85-4.08-13.09-4.65C447,227,432.83,230.79,423.59,234.19Z"/><path class="cls-4" d="M428.83,232.35s-1.09-10.45,1.33-14.94a36.59,36.59,0,0,0,0,10.49s5.62-10.27,12.1-12.45l-18.34,3s1.08,8.06,2.71,11.91c0,0-3.07-2.4-4.25-11.91l-2.89,1.29a41.61,41.61,0,0,0,4.1,14.45Z"/><path class="cls-5" d="M438.9,201.28a239.83,239.83,0,0,0,2.63,72.59C442.12,266.37,444.94,253,438.9,201.28Z"/><path class="cls-6" d="M392.29,252.55c-.1,2.51-9,4.14-16.48,3.18-7.27-.93-11.13-5.09-10.67-10.23s5.66-8.17,13.55-6.7C387.34,240.4,392.53,246.62,392.29,252.55Z"/><path class="cls-7" d="M392,249.9a6,6,0,0,1-1.76,4.55s2.28-.41,2.49-1.64A5.69,5.69,0,0,0,392,249.9Z"/><ellipse class="cls-8" cx="380.03" cy="247.82" rx="6.71" ry="8.8"/><ellipse class="cls-9" cx="380.03" cy="247.82" rx="6.32" ry="8.29"/><path class="cls-10" d="M375.93,247.82c0,3,1.84,5.38,4.1,5.38s4.1-2.41,4.1-5.38-1.83-5.37-4.1-5.37S375.93,244.85,375.93,247.82Z"/><path class="cls-11" d="M374.49,246.7c.5.37-1.8.46-3.52-.11-1.54-.51-2.29-1.34-2.14-1.49A10.39,10.39,0,0,1,374.49,246.7Z"/><path class="cls-11" d="M375.8,247.07c.66-.19,1.42.1,1.45.39s-.78.66-1.16.54S375.44,247.18,375.8,247.07Z"/><path class="cls-12" d="M391.64,248.52s-10.58-10.28-26.41-3.72l.22-.88s.81-3.86,11.9-3.86S391.64,248.52,391.64,248.52Z"/><path class="cls-13" d="M390.28,254.45a26.41,26.41,0,0,1-15,2.39,10.81,10.81,0,0,1-8.73-5.9S374.56,256.63,390.28,254.45Z"/><path class="cls-14" d="M390.28,245.87S386.85,236,378.7,235s-11.54,6.11-11.54,6.11S381.94,236.31,390.28,245.87Z"/><path class="cls-15" d="M391.06,247.2s-3.33-4.72-12.36-5.29-13.25,2-13.25,2a5.41,5.41,0,0,1,.27-2.28C366.09,241.13,384.32,234.46,391.06,247.2Z"/><path class="cls-16" d="M395,252.72c-.11,3.07-9.72,5.08-17.89,3.89-7.89-1.14-12.08-6.23-11.59-12.54s6.15-10,14.72-8.22C389.58,237.82,395.22,245.44,395,252.72Z"/><path class="cls-17" d="M394.68,249.47s.23,3.44-1.91,5.58c0,0,2.48-.51,2.7-2A7.6,7.6,0,0,0,394.68,249.47Z"/><ellipse class="cls-18" cx="381.91" cy="246.92" rx="8.92" ry="10.79"/><ellipse class="cls-19" cx="381.91" cy="246.92" rx="8.4" ry="10.16"/><ellipse class="cls-20" cx="381.91" cy="246.92" rx="5.45" ry="6.59"/><path class="cls-11" d="M375.63,245.54c.54.46-2,.57-3.83-.13-1.67-.62-2.48-1.64-2.32-1.82A10.21,10.21,0,0,1,375.63,245.54Z"/><path class="cls-11" d="M377.05,246c.71-.23,1.54.11,1.57.47s-.84.81-1.25.66S376.66,246.12,377.05,246Z"/><path class="cls-4" d="M394.24,247.78s-11.48-12.61-28.67-4.56l.24-1.08s.88-4.74,12.92-4.74A16.23,16.23,0,0,1,394.24,247.78Z"/><path class="cls-17" d="M392.77,255.05A26,26,0,0,1,376.46,258a12.07,12.07,0,0,1-9.47-7.23S375.71,257.71,392.77,255.05Z"/><path class="cls-21" d="M392.77,244.53S389,232.39,380.2,231.17s-12.53,7.49-12.53,7.49S383.71,232.8,392.77,244.53Z"/><path class="cls-22" d="M393.61,246.15s-3.61-5.79-13.41-6.48-14.39,2.47-14.39,2.47a7.78,7.78,0,0,1,.29-2.81C366.51,238.72,386.3,230.53,393.61,246.15Z"/><path class="cls-23" d="M396.74,234.19a64,64,0,0,0,3.14-14.45l-2.22-1.29s-.34,7.13-3.25,11.91a75.92,75.92,0,0,0,2.08-11.91s-8.9-4.36-15.8-5.75a13.83,13.83,0,0,0-7.91,1.05,9.41,9.41,0,0,0-2.77,1.72l.9-3.89s-11.39,6.36-7.42,20.92c0,0,6.79-4.08,10.05-4.65C378.74,227,389.65,230.79,396.74,234.19Z"/><path class="cls-4" d="M392.71,232.35s.84-10.45-1-14.94a47.09,47.09,0,0,1,0,10.49s-4.31-10.27-9.29-12.45l14.09,3s-.84,8.06-2.08,11.91c0,0,2.35-2.4,3.25-11.91l2.22,1.29a51.71,51.71,0,0,1-3.14,14.45Z"/><path class="cls-24" d="M513.2,219.4l-20.91,2.11-26.48.69c-.39-2.29-7.05-3.37-7.05-3.37L418.5,220.9l-27.21-7.13L359,202.71,357.86,206a28.85,28.85,0,0,0-.32,3.59l31.6,10.83,27.37,7.18c-.77,11.15.37,32.43,20.33,32.5,26.58.1,30.21-18.58,29.7-30.94l26.06-.68,20.52-2.05c.1-1.81.18-3.6.25-5.37Z"/></g></g></g></svg>