<?xml version="1.0" encoding="utf-8"?>
<!-- Generator: Adobe Illustrator 25.4.1, SVG Export Plug-In . SVG Version: 6.00 Build 0)  -->
<svg version="1.1" id="Layer_1" xmlns="http://www.w3.org/2000/svg" xmlns:xlink="http://www.w3.org/1999/xlink" x="0px" y="0px"
	 viewBox="0 0 837.3 1537" style="enable-background:new 0 0 837.3 1537;" xml:space="preserve">
<style type="text/css">
	.st0{fill:none;}
	.st1{fill-rule:evenodd;clip-rule:evenodd;fill:#CE996E;}
	.st2{fill-rule:evenodd;clip-rule:evenodd;fill:#A37657;}
</style>
<g id="Layer_2_00000026150387500285607480000016954936751641315223_">
	<g id="base">
		<rect class="st0" width="837.3" height="1537"/>
	</g>
	<g id="Legs_01">
		<path class="st1" d="M508.9,1158.4c4.1,7,18.5,31.6,49.3,22.8s29.8-32.5,30.8-34.8c-4.1-16-7.8-30.4-9.4-40.3
			c-4.1-25.3-0.8-123.3-19.8-180.6c0-0.2-0.1-0.4-0.2-0.6c-7.7-23-15.5-51.7-21.5-77.8c-9.7-42-44.9-29.6-66-23.9
			c-21.9,5.9-32.6,27.7-37.1,38c-5.9,13.4-4.5,28-4.5,28s5.9,32,7.9,39.7c8.7,33.3,32.2,123.3,37.2,141.5
			c6.1,22.4,35.1,76.7,34.7,80.8C510.1,1152,509.6,1154.6,508.9,1158.4z"/>
		<path class="st1" d="M351.6,1128.6c0.1-7.1-25.7-11.8-48.7-8c-25.8,4.3-34.3,29.3-34.3,29.3c-13.7,67.8-14.1,92.2-21.1,120
			c-2.2,8.6-3.5,13.5-3.5,13.5l-12.6,80.8c9.4,65.4,58.2,30.4,70.8-6.2c2.8-4.4,26.1-67.3,26.2-67.4c2.9-6,18.2-40.2,20.6-46.8
			c14.2-39.6,16.8-50.8,16.5-63.7C365.1,1163.1,351.6,1128.6,351.6,1128.6z"/>
		<path class="st1" d="M404.8,863.7c-1.6-26.8-1.9-26.8-6.3-38.5c-9.2-24.8-47.6-34.7-65.4-26.9c-22.4,9.9-25.1,34.1-36.5,65.8
			c-7.8,21.8-15.1,51-21,78.8c-7.3,34.8-12.4,67.5-13.3,80.8c-0.3,4.3-2.9,43.8-2.6,49.8c1.5,27.5,8.9,76.3,8.9,76.3
			c1.3,10,8.6,30.2,19.3,36.4s31.2,4.5,37.5,4c14.1-1.3,25.8-17,29.7-28.4s-3.6-33.3-3.6-33.3c0.3-37.3,22.5-117.2,32.2-151.2
			c14.1-49.8,17.8-88.3,17.8-88.3S405.3,871.6,404.8,863.7z"/>
		<path class="st1" d="M542.6,1119.2c-17.9,3.1-31.6,25.4-32.4,31.6c0,0.1,0,0.2,0,0.3c-0.4,4.1-11.9,58.3-11.9,80.8
			s17.2,82.4,17.2,82.4l5.3,51.8c0,0-0.5,32.6,23.2,32.8c32.8,0.2,36.6-52.1,36.6-52.1s13.5-58.6,14.6-65.2
			c2.2-14.2,10.5-32.2,8.8-57.8c-1.9-28.5-8.4-50.1-15.3-78.1C583.3,1124,564.7,1115.4,542.6,1119.2z"/>
		<path class="st2" d="M339.6,979.1c-6.3,22.5-1.7,19.6-30.5,69.1c0,0,33.5-68,31.1-130.8C340.3,917.4,346,956.6,339.6,979.1z"/>
		<path class="st2" d="M319.4,1238.2c1.4-17.6-0.7-14.2,9.9-56.9c0,0-11.4,57-5.4,100.4C323.9,1281.7,318,1255.7,319.4,1238.2z"/>
		<path class="st2" d="M501,962c6.3,22.5,1.7,19.6,30.5,69.1c0,0-33.5-68-31.1-130.8C500.3,900.4,494.6,939.5,501,962z"/>
		<path class="st2" d="M530.4,1223.4c-1.5,20,1.5,16.5-12.8,63.9c0,0,15.1-63.8,4.6-114.8C522.2,1172.5,531.9,1203.4,530.4,1223.4z"
			/>
		<path class="st1" d="M430.7,890.7l0.3-0.1c12.6-4.8,26-6.2,39.2-8.5c0,0,89.7,10.8,64.8-44.5l-12.5-61.9l-3.1-10.4l-5.9-20.2
			c-29.8,12.2-179.5,4.3-179.5,4.3s-4.1,13.9-10.3,33.7c-4,12.2-9.5,28.9-14.3,45.3c-5.3,18-0.7,25.9,10,38.6s37.2,4.6,48.9,14.9
			c9.9,8.7,33.5,7.4,33.5,7.4l28.8,0.1C430.4,889.2,430.5,889.7,430.7,890.7z"/>
	</g>
</g>
</svg>
