<?xml version="1.0" encoding="utf-8"?>
<!-- Generator: Adobe Illustrator 26.0.0, SVG Export Plug-In . SVG Version: 6.00 Build 0)  -->
<svg version="1.1" id="Layer_1" xmlns="http://www.w3.org/2000/svg" xmlns:xlink="http://www.w3.org/1999/xlink" x="0px" y="0px"
	 viewBox="0 0 837.3 1537" style="enable-background:new 0 0 837.3 1537;" xml:space="preserve">
<style type="text/css">
	.st0{fill:none;}
	.st1{fill-rule:evenodd;clip-rule:evenodd;fill:url(#SVGID_1_);}
	.st2{fill-rule:evenodd;clip-rule:evenodd;fill:url(#SVGID_00000107580378332237409330000002125369807180158112_);}
	.st3{fill-rule:evenodd;clip-rule:evenodd;fill:url(#SVGID_00000119824878683450947240000009739831826958411666_);}
	.st4{fill-rule:evenodd;clip-rule:evenodd;fill:url(#SVGID_00000089562588975022407680000003326001856364490938_);}
	.st5{fill-rule:evenodd;clip-rule:evenodd;fill:#B57C47;}
	.st6{fill-rule:evenodd;clip-rule:evenodd;fill:url(#SVGID_00000125560983822469415450000016280292655514664876_);}
	.st7{fill:url(#SVGID_00000096738665294762606590000016193763926580990632_);}
	.st8{fill-rule:evenodd;clip-rule:evenodd;fill:url(#SVGID_00000090984612724416865120000012456713257976978353_);}
</style>
<g id="Layer_2_00000097476621736419980020000013897210306754579345_">
	<g id="base">
		<rect class="st0" width="837.3" height="1537"/>
	</g>
	<g id="Legs_01">
		
			<linearGradient id="SVGID_1_" gradientUnits="userSpaceOnUse" x1="455.3576" y1="75.6555" x2="470.4376" y2="200.3454" gradientTransform="matrix(1 0 0 -1 0 1538)">
			<stop  offset="0" style="stop-color:#E2A352"/>
			<stop  offset="1" style="stop-color:#E0A251"/>
		</linearGradient>
		<path class="st1" d="M508.9,1158.4c4.1,7,18.5,31.6,49.3,22.8s29.8-32.5,30.8-34.8c-4.1-16-7.8-30.4-9.4-40.3
			c-4.1-25.3-0.8-123.3-19.8-180.6c0-0.2-0.1-0.4-0.2-0.6c-7.7-23-15.5-51.7-21.5-77.8c-9.7-42-44.9-29.6-66-23.9
			c-21.9,5.9-32.6,27.7-37.1,38c-5.9,13.4-4.5,28-4.5,28s5.9,32,7.9,39.7c8.7,33.3,32.2,123.3,37.2,141.5
			c6.1,22.4,35.1,76.7,34.7,80.8C510.1,1152,509.6,1154.6,508.9,1158.4z"/>
		
			<linearGradient id="SVGID_00000147177963131819943420000001376401049557386379_" gradientUnits="userSpaceOnUse" x1="273.2219" y1="54.1798" x2="289.6219" y2="189.7498" gradientTransform="matrix(1 0 0 -1 0 1538)">
			<stop  offset="0" style="stop-color:#E2A352"/>
			<stop  offset="1" style="stop-color:#E0A251"/>
		</linearGradient>
		<path style="fill-rule:evenodd;clip-rule:evenodd;fill:url(#SVGID_00000147177963131819943420000001376401049557386379_);" d="
			M351.6,1128.6c0.1-7.1-25.7-11.8-48.7-8c-25.8,4.3-34.3,29.3-34.3,29.3c-13.7,67.8-14.1,92.2-21.1,120c-2.2,8.6-3.5,13.5-3.5,13.5
			l-12.6,80.8c9.4,65.4,58.2,30.4,70.8-6.2c2.8-4.4,26.1-67.3,26.2-67.4c2.9-6,18.2-40.2,20.6-46.8c14.2-39.6,16.8-50.8,16.5-63.7
			C365.1,1163.1,351.6,1128.6,351.6,1128.6z"/>
		
			<linearGradient id="SVGID_00000035502312097244226400000001908770537773444520_" gradientUnits="userSpaceOnUse" x1="277.8192" y1="131.8713" x2="291.7292" y2="246.8014" gradientTransform="matrix(1 0 0 -1 0 1538)">
			<stop  offset="0" style="stop-color:#E2A352"/>
			<stop  offset="1" style="stop-color:#E0A251"/>
		</linearGradient>
		<path style="fill-rule:evenodd;clip-rule:evenodd;fill:url(#SVGID_00000035502312097244226400000001908770537773444520_);" d="
			M404.8,863.7c-1.6-26.8-1.9-26.8-6.3-38.5c-9.2-24.8-47.6-34.7-65.4-26.9c-22.4,9.9-25.1,34.1-36.5,65.8
			c-7.8,21.8-15.1,51-21,78.8c-7.3,34.8-12.4,67.5-13.3,80.8c-0.3,4.3-2.9,43.8-2.6,49.8c1.5,27.5,8.9,76.3,8.9,76.3
			c1.3,10,8.6,30.2,19.3,36.4s31.2,4.5,37.5,4c14.1-1.3,25.8-17,29.7-28.4s-3.6-33.3-3.6-33.3c0.3-37.3,22.5-117.2,32.2-151.2
			c14.1-49.8,17.8-88.3,17.8-88.3S405.3,871.6,404.8,863.7z"/>
		
			<linearGradient id="SVGID_00000050649144497866770580000003000655622161504659_" gradientUnits="userSpaceOnUse" x1="519.5986" y1="45.0626" x2="535.4387" y2="175.9826" gradientTransform="matrix(1 0 0 -1 0 1538)">
			<stop  offset="0" style="stop-color:#E2A352"/>
			<stop  offset="1" style="stop-color:#E0A251"/>
		</linearGradient>
		<path style="fill-rule:evenodd;clip-rule:evenodd;fill:url(#SVGID_00000050649144497866770580000003000655622161504659_);" d="
			M542.6,1119.2c-17.9,3.1-31.6,25.4-32.4,31.6c0,0.1,0,0.2,0,0.3c-0.4,4.1-11.9,58.3-11.9,80.8s17.2,82.4,17.2,82.4l5.3,51.8
			c0,0-0.5,32.6,23.2,32.8c32.8,0.2,36.6-52.1,36.6-52.1s13.5-58.6,14.6-65.2c2.2-14.2,10.5-32.2,8.8-57.8
			c-1.9-28.5-8.4-50.1-15.3-78.1C583.3,1124,564.7,1115.4,542.6,1119.2z"/>
		<path class="st5" d="M339.6,979.1c-6.3,22.5-1.7,19.6-30.5,69.1c0,0,33.5-68,31.1-130.8C340.3,917.4,346,956.6,339.6,979.1z"/>
		<path class="st5" d="M319.4,1238.2c1.4-17.6-0.7-14.2,9.9-56.9c0,0-11.4,57-5.4,100.4C323.9,1281.7,318,1255.7,319.4,1238.2z"/>
		<path class="st5" d="M501,962c6.3,22.5,1.7,19.6,30.5,69.1c0,0-33.5-68-31.1-130.8C500.3,900.4,494.6,939.5,501,962z"/>
		<path class="st5" d="M530.4,1223.4c-1.5,20,1.5,16.5-12.8,63.9c0,0,15.1-63.8,4.6-114.8C522.2,1172.5,531.9,1203.4,530.4,1223.4z"
			/>
		
			<linearGradient id="SVGID_00000168807955419200877730000011362147642653849994_" gradientUnits="userSpaceOnUse" x1="351.4831" y1="97.466" x2="367.0031" y2="225.7961" gradientTransform="matrix(1 0 0 -1 0 1538)">
			<stop  offset="0" style="stop-color:#E2A352"/>
			<stop  offset="1" style="stop-color:#E0A251"/>
		</linearGradient>
		<path style="fill-rule:evenodd;clip-rule:evenodd;fill:url(#SVGID_00000168807955419200877730000011362147642653849994_);" d="
			M430.7,890.7l0.3-0.1c12.6-4.8,26-6.2,39.2-8.5c0,0,89.7,10.8,64.8-44.5l-12.5-61.9l-3.1-10.4l-5.9-20.2
			c-29.8,12.2-179.5,4.3-179.5,4.3s-4.1,13.9-10.3,33.7c-4,12.2-9.5,28.9-14.3,45.3c-5.3,18-0.7,25.9,10,38.6s37.2,4.6,48.9,14.9
			c9.9,8.7,33.5,7.4,33.5,7.4l28.8,0.1C430.4,889.2,430.5,889.7,430.7,890.7z"/>
	</g>
</g>
<linearGradient id="SVGID_00000151535575022634381520000013951085452227955627_" gradientUnits="userSpaceOnUse" x1="636.7975" y1="1320.9393" x2="495.3711" y2="835.3793">
	<stop  offset="0" style="stop-color:#E2A352"/>
	<stop  offset="1" style="stop-color:#E0A251"/>
</linearGradient>
<path style="fill:url(#SVGID_00000151535575022634381520000013951085452227955627_);" d="M726.3,1194.7c-1-0.2-1.9-0.5-2.9-0.8
	c-20,49.9-51.3,90-91.4,103c-73.8,28.6-125.6-46.8-153-134.4c-30.7-94.5-39.4-199.8-53.3-301.6l-19.1,3.4
	c2.2,144.5,55.6,441.8,186,457.2c59,7,114.2-50.6,140.9-125.6C731.1,1195.7,728.7,1195.2,726.3,1194.7z"/>
<linearGradient id="SVGID_00000026845847761880826650000005417433443230417300_" gradientUnits="userSpaceOnUse" x1="717.3655" y1="1154.882" x2="783.7504" y2="1154.882" gradientTransform="matrix(0.9998 -1.803776e-02 1.803776e-02 0.9998 -20.7094 13.7263)">
	<stop  offset="6.578947e-03" style="stop-color:#7E3A1F"/>
	<stop  offset="0.8684" style="stop-color:#723527"/>
</linearGradient>
<path style="fill-rule:evenodd;clip-rule:evenodd;fill:url(#SVGID_00000026845847761880826650000005417433443230417300_);" d="
	M720.1,1203.5c-1.8-13.3-4.5-39.8,0.1-55.8c0,0,0.8,10.6,3.4,14.6c0,0,9-39,32.2-52.7c0,0-4,2.6-3.9,10.3c0,0,7.8-20.1,30.8-18.4
	c0,0-17.9,29.4-25.4,63.8c0,0,7.6-5.8,12.1-10.9c0,0-11.5,37.5-40.3,53.6c-1.8,1-2.2-1-3.9-1.7
	C723.5,1205.4,720.4,1205.7,720.1,1203.5z"/>
</svg>
