<?xml version="1.0" encoding="utf-8"?>
<!-- Generator: Adobe Illustrator 25.4.1, SVG Export Plug-In . SVG Version: 6.00 Build 0)  -->
<svg version="1.1" id="Layer_1" xmlns="http://www.w3.org/2000/svg" xmlns:xlink="http://www.w3.org/1999/xlink" x="0px" y="0px"
	 viewBox="0 0 837.3 1537" style="enable-background:new 0 0 837.3 1537;" xml:space="preserve">
<style type="text/css">
	.st0{fill:none;}
	.st1{fill-rule:evenodd;clip-rule:evenodd;fill:url(#SVGID_1_);}
	.st2{fill-rule:evenodd;clip-rule:evenodd;fill:url(#SVGID_00000147915592638299774590000006066116397022397115_);}
	.st3{fill-rule:evenodd;clip-rule:evenodd;fill:url(#SVGID_00000140718971952839492370000005448757565588116108_);}
	.st4{fill-rule:evenodd;clip-rule:evenodd;fill:url(#SVGID_00000077300823124123784660000011951997955549278878_);}
	.st5{fill-rule:evenodd;clip-rule:evenodd;fill:#FF9D8A;}
	.st6{fill-rule:evenodd;clip-rule:evenodd;fill:url(#SVGID_00000106841401975415846630000013639754417728516497_);}
	.st7{fill-rule:evenodd;clip-rule:evenodd;fill:url(#SVGID_00000117655083230027366070000007639864197840154799_);}
	.st8{fill-rule:evenodd;clip-rule:evenodd;fill:url(#SVGID_00000070103639381852475260000005562429354856459408_);}
</style>
<g id="Layer_2_00000003809071674140057620000017037500499519708344_">
	<g id="base">
		<rect class="st0" width="837.3" height="1537"/>
	</g>
	<g id="chest_01">
		
			<linearGradient id="SVGID_1_" gradientUnits="userSpaceOnUse" x1="451.679" y1="1107.6683" x2="449.799" y2="1240.8805" gradientTransform="matrix(1 0 0 -1 0 1538)">
			<stop  offset="0" style="stop-color:#FFA486"/>
			<stop  offset="1" style="stop-color:#FFB886"/>
		</linearGradient>
		<path class="st1" d="M499.4,296.4c0,0,1.1,56,12,83.9c0,0-39.2,53-84.4,50.2s-35.1-39.1-35.1-39.1s12.5-17.4,14.7-44.9
			S499.4,296.4,499.4,296.4z"/>
		
			<linearGradient id="SVGID_00000091726793531391834630000003520140192569376167_" gradientUnits="userSpaceOnUse" x1="408.1934" y1="1398.4264" x2="506.1934" y2="793.4264" gradientTransform="matrix(1 0 0 -1 0 1538)">
			<stop  offset="0" style="stop-color:#FFA486"/>
			<stop  offset="1" style="stop-color:#FFB886"/>
		</linearGradient>
		<path style="fill-rule:evenodd;clip-rule:evenodd;fill:url(#SVGID_00000091726793531391834630000003520140192569376167_);" d="
			M658.8,474.9c6.2,9.7,18.4,32.5,4.3,54.4c-11.6,18-57.4,33.2-71.7,53.8c-4.5,6.4-9,12.8-13.4,19.2c-15.9,22.6-26.3,53.6-45.1,75.4
			c-24.2,28.1-19.4,67.3-19.4,67.3s1.2,80.2-93.8,83.7c-86.6,3.2-84.2-74.5-84.2-74.5c-3.2-9.4-12.3-52.8-12.3-52.8l-3.9-31.5
			l-4.1-6.5l-7.6-74.5l-13.2-5.5c-6.7-28.8-15.1-79.6-15.1-79.6c-29.3-22-18-52-18-52c19-22.7,42.2-28.8,73.5-39.8
			c19.9-7.1,38.9-18.2,49.9-25.3l2.4-1.6c3.4-2.2,11.2-3.4,11.2-3.4s-7.2,9.3-5.4,18.3s14.1,33.9,56.2,23s57.8-57.3,57.8-57.3
			s8.8,5.1,13,8.7c13.1,11.5,38.3,28.9,69.1,43.8C629.4,437.6,658.8,474.9,658.8,474.9z"/>
		
			<linearGradient id="SVGID_00000093170174091098127230000014617662509888588947_" gradientUnits="userSpaceOnUse" x1="343.0127" y1="1020.0397" x2="332.9827" y2="935.5497" gradientTransform="matrix(1 0 0 -1 0 1538)">
			<stop  offset="0" style="stop-color:#FF7F66"/>
			<stop  offset="1" style="stop-color:#EC887E"/>
		</linearGradient>
		<path style="fill-rule:evenodd;clip-rule:evenodd;fill:url(#SVGID_00000093170174091098127230000014617662509888588947_);" d="
			M387.5,585.1c-11.5,2.2-79.9,3.8-79.9,3.8l-13.2-5.5c-6.7-28.8-1.8-82.6-1.8-82.6c-0.4,44.1,5.1,76.4,6.4,78.9
			S327.8,585.1,387.5,585.1z"/>
		
			<linearGradient id="SVGID_00000035493008383849412680000016084157839224841606_" gradientUnits="userSpaceOnUse" x1="-281.9693" y1="1019.3411" x2="-291.7793" y2="936.7311" gradientTransform="matrix(-1 0 0 -1 221.56 1538)">
			<stop  offset="0" style="stop-color:#FF7F66"/>
			<stop  offset="1" style="stop-color:#EC887E"/>
		</linearGradient>
		<path style="fill-rule:evenodd;clip-rule:evenodd;fill:url(#SVGID_00000035493008383849412680000016084157839224841606_);" d="
			M450.9,585.1c11.5,2.2,80,3.8,80,3.8l13.2-5.5c4.1-11.3,2.6-25.3,4.2-38.6c2.9-23.2,13.7-44.1,13.7-44.1
			c-21.5,34.6-21.2,76.4-22.5,78.9S510.6,585.1,450.9,585.1z"/>
		<path class="st5" d="M422.5,662.3c4.9,0.6,33.7,1,33.7,1l5.6-1.5c15.2-4.2,18.1-22.5,18.1-22.5c-6.9,17.4-19.5,20.8-20.1,21.4
			S447.6,662.3,422.5,662.3z"/>
		<path class="st5" d="M396.6,662.3c-5.4,0.6-37.3,1-37.3,1l-6.1-1.5c-16.9-4.2-20.1-22.5-20.1-22.5c7.6,17.4,21.6,20.8,22.2,21.4
			S368.8,662.3,396.6,662.3z"/>
		<path class="st5" d="M416.7,707.3c3.7,0.3,25.4,0.5,25.4,0.5l4.2-0.7c11.5-2,13.7-10.8,13.7-10.8c-5.2,8.4-14.8,10-15.1,10.3
			S435.7,707.3,416.7,707.3z"/>
		<path class="st5" d="M397.2,707.3c-4,0.3-28.1,0.5-28.1,0.5l-4.6-0.7c-12.7-2-15.2-10.8-15.2-10.8c5.8,8.4,16.3,10,16.8,10.3
			S376.2,707.3,397.2,707.3z"/>
		
			<linearGradient id="SVGID_00000001637464117583091660000011693185770415896492_" gradientUnits="userSpaceOnUse" x1="426.0358" y1="1041.2405" x2="415.6558" y2="953.8705" gradientTransform="matrix(1 0 0 -1 0 1538)">
			<stop  offset="0" style="stop-color:#FF7F66"/>
			<stop  offset="1" style="stop-color:#EC887E"/>
		</linearGradient>
		<path style="fill-rule:evenodd;clip-rule:evenodd;fill:url(#SVGID_00000001637464117583091660000011693185770415896492_);" d="
			M422.3,484.6c-1.5,15.5-2.2,31-2.2,46.5c0.1,15.4,0.9,29.8,2.2,42.8c-1.8-13.9-5.2-35.5-5.2-43.2S422.3,484.6,422.3,484.6z"/>
		<path class="st5" d="M415.2,622.9c-2.5,19.5-4.5,41.1-5.7,64.5c-1.1,21.4-1.4,41.4-1,59.7c-0.8-19.4-2.6-49.7-2-60.3
			S415.2,622.9,415.2,622.9z"/>
		
			<linearGradient id="SVGID_00000030455129920500469030000009068209897315439538_" gradientUnits="userSpaceOnUse" x1="-104.1795" y1="1857.1079" x2="-114.5595" y2="1769.7279" gradientTransform="matrix(-0.4 0.92 0.41 0.18 -387.01 195.54)">
			<stop  offset="0" style="stop-color:#FF7F66"/>
			<stop  offset="1" style="stop-color:#EC887E"/>
		</linearGradient>
		<path style="fill-rule:evenodd;clip-rule:evenodd;fill:url(#SVGID_00000030455129920500469030000009068209897315439538_);" d="
			M423.6,433.4c-10.9-7.9-23.4-13.3-36.6-15.8c6.4,0.8,16.6,1.5,19.8,2.8S423.6,433.4,423.6,433.4z"/>
		
			<linearGradient id="SVGID_00000077303389835928299240000005709981356528899994_" gradientUnits="userSpaceOnUse" x1="181.272" y1="499.2755" x2="170.902" y2="411.8955" gradientTransform="matrix(0.44 0.9 -0.4 0.2 575.69 172.03)">
			<stop  offset="0" style="stop-color:#FF7F66"/>
			<stop  offset="1" style="stop-color:#EC887E"/>
		</linearGradient>
		<path style="fill-rule:evenodd;clip-rule:evenodd;fill:url(#SVGID_00000077303389835928299240000005709981356528899994_);" d="
			M450.5,432.9c10.5-8.4,22.6-14.5,35.7-17.7c-6.4,1.1-16.5,2.3-19.6,3.9S450.5,432.9,450.5,432.9z"/>
	</g>
</g>
</svg>
