<?xml version="1.0" encoding="utf-8"?>
<!-- Generator: Adobe Illustrator 25.4.1, SVG Export Plug-In . SVG Version: 6.00 Build 0)  -->
<svg version="1.1" id="Layer_1" xmlns="http://www.w3.org/2000/svg" xmlns:xlink="http://www.w3.org/1999/xlink" x="0px" y="0px"
	 viewBox="0 0 837.3 1537" style="enable-background:new 0 0 837.3 1537;" xml:space="preserve">
<style type="text/css">
	.st0{fill:none;}
	.st1{fill-rule:evenodd;clip-rule:evenodd;fill:url(#SVGID_1_);}
	.st2{fill-rule:evenodd;clip-rule:evenodd;fill:url(#SVGID_00000133500543332017504010000013066422488896264377_);}
	.st3{fill-rule:evenodd;clip-rule:evenodd;fill:#BC8862;}
	.st4{fill-rule:evenodd;clip-rule:evenodd;fill:#A37657;}
</style>
<g id="Layer_2_00000124869154560231984260000017002765616320896691_">
	<g id="base">
		<rect class="st0" width="837.3" height="1537"/>
	</g>
	<g id="nose_06">
		
			<linearGradient id="SVGID_1_" gradientUnits="userSpaceOnUse" x1="377.1234" y1="242.8396" x2="419.4087" y2="242.8396" gradientTransform="matrix(1 0 0 1 0 38)">
			<stop  offset="0" style="stop-color:#CE996E"/>
			<stop  offset="1" style="stop-color:#A37657"/>
		</linearGradient>
		<path class="st1" d="M379.2,288.9c0,0-6.5-11.2,3.5-13.5c1.8-0.4,4,1.3,4.9,0.4c0,0,6.5-10.9,18-6.3c1.4,0.5,0.4,3.9,4.1,4.8
			c5.1-3.8,9,1.7,9,1.7s0.8,7.6,0.7,9.8c0,0-15.7,4.7-21.4,7S379.2,288.9,379.2,288.9z"/>
		
			<linearGradient id="SVGID_00000018201930751073990470000008654545032776781204_" gradientUnits="userSpaceOnUse" x1="406.3" y1="283.35" x2="421.666" y2="283.35">
			<stop  offset="0" style="stop-color:#CE996E"/>
			<stop  offset="1" style="stop-color:#A37657"/>
		</linearGradient>
		<path style="fill-rule:evenodd;clip-rule:evenodd;fill:url(#SVGID_00000018201930751073990470000008654545032776781204_);" d="
			M417,274.3c0,0,5.7,3.8,4.5,13.1l-15.2,5l11-6.4C417.2,286,421.2,280.9,417,274.3z"/>
		<path class="st3" d="M379.2,288.9c0,0,7.7,3.5,21.9,1.7c0,0,10.1-3.8,17.3-4.4c0,0-6.7,4.4-15,10.3c0,0-2.1,3-12.9,0.9
			C390.5,297.3,385.2,295.3,379.2,288.9z"/>
		<path class="st4" d="M407.8,293c0,0,3.7-6,10.5-4.6C418.3,288.4,415,291.6,407.8,293z"/>
	</g>
</g>
</svg>
