<?xml version="1.0" encoding="utf-8"?>
<!-- Generator: Adobe Illustrator 25.4.1, SVG Export Plug-In . SVG Version: 6.00 Build 0)  -->
<svg version="1.1" id="Layer_1" xmlns="http://www.w3.org/2000/svg" xmlns:xlink="http://www.w3.org/1999/xlink" x="0px" y="0px"
	 viewBox="0 0 837.3 1537" style="enable-background:new 0 0 837.3 1537;" xml:space="preserve">
<style type="text/css">
	.st0{fill:none;}
	.st1{fill:url(#SVGID_1_);}
	.st2{opacity:0.6;fill:#D177B8;enable-background:new    ;}
	.st3{fill:url(#SVGID_00000110428949050564306680000016733112266245418381_);}
	.st4{opacity:0.46;fill:#AA9996;enable-background:new    ;}
	.st5{opacity:0.62;fill:#685A59;enable-background:new    ;}
	.st6{opacity:0.33;fill:#AA9996;enable-background:new    ;}
	.st7{clip-path:url(#SVGID_00000156559943895332333270000006137901817609906095_);}
	.st8{fill:url(#SVGID_00000078031637201998564250000003760166273253398718_);}
	.st9{fill:url(#SVGID_00000057119213916587963210000013153684245466327486_);}
	.st10{fill:url(#SVGID_00000135671210919413087090000013951437464427222666_);}
	.st11{fill:url(#SVGID_00000003096069496214195560000000918045975647263379_);}
	.st12{fill:#FFFFFF;}
	.st13{opacity:0.6;fill:#B42F97;enable-background:new    ;}
	.st14{fill:#270039;}
	.st15{clip-path:url(#SVGID_00000130639731630191919310000007228984165317168058_);}
	.st16{fill:url(#SVGID_00000093884503241866864800000007863681831758758018_);}
	.st17{fill:url(#SVGID_00000033367585638852704360000000186810639519941782_);}
	.st18{fill:url(#SVGID_00000176729861546091226250000001638971663886586540_);}
	.st19{fill:url(#SVGID_00000111172914581311189560000017936766170752195243_);}
</style>
<g>
	<g id="Layer_2_00000067929931279821499570000007225642378583756710_">
		<g id="base">
			<rect class="st0" width="837.3" height="1537"/>
		</g>
		<g id="eyes">
			
				<linearGradient id="SVGID_1_" gradientUnits="userSpaceOnUse" x1="419.5" y1="184.9" x2="467.9692" y2="184.9" gradientTransform="matrix(1 0 0 1 0 38)">
				<stop  offset="0" style="stop-color:#430027"/>
				<stop  offset="1" style="stop-color:#560029"/>
			</linearGradient>
			<path class="st1" d="M423.6,234.2c0,0-3.5-7.6-4.1-14.4l2.9-1.3c0,0,0.5,7.1,4.2,11.9c-1.3-3.9-2.2-7.9-2.7-11.9
				c0,0,11.6-4.4,20.6-5.8c3.5-0.4,7-0.1,10.3,1.1c1.3,0.4,2.5,1,3.6,1.7l-1.2-3.9c0,0,14.8,6.4,9.7,20.9c0,0-8.9-4.1-13.1-4.6
				C447,227,432.8,230.8,423.6,234.2z"/>
			<path class="st2" d="M428.8,232.4c0,0-1.1-10.4,1.3-14.9c-0.5,3.5-0.5,7,0,10.5c0,0,5.6-10.3,12.1-12.4l-18.3,3
				c0,0,1.1,8.1,2.7,11.9c0,0-3.1-2.4-4.2-11.9l-2.9,1.3c0.5,5,1.9,9.9,4.1,14.4L428.8,232.4z"/>
			
				<linearGradient id="SVGID_00000000183628140191015160000013900613410313025928_" gradientUnits="userSpaceOnUse" x1="-951.62" y1="184.9" x2="-914.3899" y2="184.9" gradientTransform="matrix(-1 0 0 1 -551.74 38)">
				<stop  offset="0" style="stop-color:#430027"/>
				<stop  offset="1" style="stop-color:#560029"/>
			</linearGradient>
			<path style="fill:url(#SVGID_00000000183628140191015160000013900613410313025928_);" d="M396.7,234.2c1.6-4.7,2.7-9.5,3.1-14.4
				l-2.2-1.3c0,0-0.3,7.1-3.2,11.9c1-3.9,1.7-7.9,2.1-11.9c0,0-8.9-4.4-15.8-5.8c-2.7-0.4-5.4-0.1-7.9,1.1c-1,0.4-2,1-2.8,1.7
				l0.9-3.9c0,0-11.4,6.4-7.4,20.9c0,0,6.8-4.1,10-4.6C378.7,227,389.6,230.8,396.7,234.2z"/>
			<path class="st2" d="M392.7,232.4c0,0,0.8-10.4-1-14.9c0.4,3.5,0.4,7,0,10.5c0,0-4.3-10.3-9.3-12.4l14.1,3c0,0-0.8,8.1-2.1,11.9
				c0,0,2.4-2.4,3.2-11.9l2.2,1.3c-0.3,4.9-1.4,9.8-3.1,14.4L392.7,232.4z"/>
		</g>
	</g>
</g>
<g>
	<path class="st4" d="M425.2,249.1c-0.1,2.2,0.8,4.3,2.3,5.7c0,0-3-0.5-3.3-2S425.2,249.1,425.2,249.1z"/>
	<path class="st5" d="M427.5,254.6c0,0,8,4.3,19.7,3c8.6-1,11.5-7.3,11.5-7.3S448.1,257.4,427.5,254.6z"/>
	<path class="st6" d="M427.5,244.1c0,0,4.5-12.2,15.2-13.5c10.7-1.2,15.1,7.5,15.1,7.5S438.4,232.3,427.5,244.1z"/>
	<g>
		<g>
			<defs>
				<path id="SVGID_00000139280233385656559540000016273177677094921622_" d="M427.5,254.6c0,0,10.7,1.2,15.8,0.6
					c5.5-0.6,13.6-3.5,15.4-4.9c1.8-1.5,2.3-7.3,1.4-8.6c0,0-8-3.6-18.9-2.3c-10.8,1.2-14.7,6.4-14.7,6.4s-1.3,2.7-1.3,3.3
					C425.2,249.7,425.3,253.2,427.5,254.6z"/>
			</defs>
			<clipPath id="SVGID_00000128452325408243059270000018112512443256762001_">
				<use xlink:href="#SVGID_00000139280233385656559540000016273177677094921622_"  style="overflow:visible;"/>
			</clipPath>
			<g style="clip-path:url(#SVGID_00000128452325408243059270000018112512443256762001_);">
				
					<linearGradient id="SVGID_00000160177503592320750200000010644523871744399489_" gradientUnits="userSpaceOnUse" x1="442.619" y1="218.6075" x2="442.619" y2="196.8886" gradientTransform="matrix(1 0 0 1 0 38)">
					<stop  offset="0" style="stop-color:#EEE2FF"/>
					<stop  offset="1" style="stop-color:#BDC9FB"/>
				</linearGradient>
				<path style="fill:url(#SVGID_00000160177503592320750200000010644523871744399489_);" d="M424.8,252.3c0.1,3.1,11.8,5.1,21.6,4
					c9.5-1.1,14.6-6.3,14-12.6s-7.4-10.1-17.8-8.3C431.3,237.4,424.5,245,424.8,252.3z"/>
				
					<linearGradient id="SVGID_00000054258105567858475610000012639007157369756566_" gradientUnits="userSpaceOnUse" x1="440.9" y1="219.3634" x2="440.9" y2="197.6278" gradientTransform="matrix(1 0 0 1 0 38)">
					<stop  offset="0" style="stop-color:#4D0E2E"/>
					<stop  offset="1" style="stop-color:#36063B"/>
				</linearGradient>
				
					<ellipse style="fill:url(#SVGID_00000054258105567858475610000012639007157369756566_);" cx="440.9" cy="246.5" rx="8.8" ry="10.9"/>
				
					<linearGradient id="SVGID_00000116213856581381152280000008583996334824185020_" gradientUnits="userSpaceOnUse" x1="440.9" y1="218.7459" x2="440.9" y2="198.2699" gradientTransform="matrix(1 0 0 1 0 38)">
					<stop  offset="0" style="stop-color:#4D0E2E"/>
					<stop  offset="1" style="stop-color:#36063B"/>
				</linearGradient>
				
					<ellipse style="fill:url(#SVGID_00000116213856581381152280000008583996334824185020_);" cx="440.9" cy="246.5" rx="8.3" ry="10.3"/>
				
					<linearGradient id="SVGID_00000070089105031293915870000012220271550372881809_" gradientUnits="userSpaceOnUse" x1="440.9" y1="215.1398" x2="440.9" y2="201.8514" gradientTransform="matrix(1 0 0 1 0 38)">
					<stop  offset="0" style="stop-color:#A79ABD"/>
					<stop  offset="0.99" style="stop-color:#724A60"/>
				</linearGradient>
				
					<ellipse style="fill:url(#SVGID_00000070089105031293915870000012220271550372881809_);" cx="440.9" cy="246.5" rx="5.4" ry="6.7"/>
				<path class="st12" d="M448.2,245.1c-0.6,0.5,2.4,0.6,4.6-0.1c2-0.6,3-1.6,2.8-1.9C453.1,243,450.5,243.8,448.2,245.1z"/>
				<path class="st12" d="M446.5,245.5c-0.9-0.2-1.9,0.1-1.9,0.5c0,0.4,1,0.9,1.5,0.6C446.6,246.4,447,245.8,446.5,245.5z"/>
				<path class="st13" d="M425.7,247.4c0,0,13.9-12.7,34.6-4.6l-0.3-1.1c0,0-1.1-4.8-15.6-4.8S425.7,247.4,425.7,247.4z"/>
			</g>
		</g>
	</g>
	<path class="st14" d="M426.5,245.8c0,0,4.4-5.8,16.2-6.5c11.8-0.7,17.4,2.5,17.4,2.5s0.1-2.2-0.4-2.8
		C459.2,238.2,435.3,229.9,426.5,245.8z"/>
	<path class="st4" d="M395.5,253.9c-0.2,1.5-2.7,2-2.7,2c1.3-1.2,1.9-3.3,1.9-5.7C394.7,250.3,395.7,252.3,395.5,253.9z"/>
	<path class="st5" d="M366.9,251.6c0,0,2.4,6.3,9.5,7.3c9.7,1.4,16.3-3,16.3-3C375.6,258.6,366.9,251.6,366.9,251.6z"/>
	<path class="st6" d="M367.6,239.5c0,0,3.7-8.8,12.5-7.5s12.6,13.5,12.6,13.5C383.7,233.5,367.6,239.5,367.6,239.5z"/>
	<g>
		<g>
			<defs>
				<path id="SVGID_00000110432845759748285470000008243234849340628141_" d="M392.8,255.9c0,0-8.9,1.2-13.1,0.6
					c-4.5-0.6-11.2-3.5-12.7-4.9c-1.5-1.5-1.8-7.3-1.2-8.6c0,0,6.7-3.6,15.7-2.3c9,1.2,12.2,6.4,12.2,6.4s1.1,2.7,1.1,3.3
					C394.6,250.9,394.6,254.4,392.8,255.9z"/>
			</defs>
			<clipPath id="SVGID_00000086649712801579058440000004879397663310569123_">
				<use xlink:href="#SVGID_00000110432845759748285470000008243234849340628141_"  style="overflow:visible;"/>
			</clipPath>
			<g style="clip-path:url(#SVGID_00000086649712801579058440000004879397663310569123_);">
				
					<linearGradient id="SVGID_00000060015425204122269090000000852725581220524462_" gradientUnits="userSpaceOnUse" x1="-215.9396" y1="219.8465" x2="-215.9396" y2="198.1386" gradientTransform="matrix(-1 0 0 1 164.1946 38)">
					<stop  offset="0" style="stop-color:#EEE2FF"/>
					<stop  offset="1" style="stop-color:#BDC9FB"/>
				</linearGradient>
				<path style="fill:url(#SVGID_00000060015425204122269090000000852725581220524462_);" d="M380.2,236.6
					c-8.6-1.9-14.3,1.9-14.8,8.3c-0.5,6.4,3.7,11.5,11.7,12.6c8.2,1.2,17.8-0.9,17.9-4C395.2,246.2,389.6,238.6,380.2,236.6z"/>
				
					<linearGradient id="SVGID_00000036966423620418027880000008892246247592437650_" gradientUnits="userSpaceOnUse" x1="-217.3637" y1="220.5983" x2="-217.3637" y2="198.8628" gradientTransform="matrix(-1 0 0 1 164.1946 38)">
					<stop  offset="0" style="stop-color:#4D0E2E"/>
					<stop  offset="1" style="stop-color:#36063B"/>
				</linearGradient>
				
					<ellipse style="fill:url(#SVGID_00000036966423620418027880000008892246247592437650_);" cx="381.6" cy="247.7" rx="7.3" ry="10.9"/>
				
					<linearGradient id="SVGID_00000132789462406264038410000004251136033982912418_" gradientUnits="userSpaceOnUse" x1="-217.3637" y1="219.9808" x2="-217.3637" y2="199.505" gradientTransform="matrix(-1 0 0 1 164.1946 38)">
					<stop  offset="0" style="stop-color:#4D0E2E"/>
					<stop  offset="1" style="stop-color:#36063B"/>
				</linearGradient>
				
					<ellipse style="fill:url(#SVGID_00000132789462406264038410000004251136033982912418_);" cx="381.6" cy="247.7" rx="6.9" ry="10.3"/>
				
					<linearGradient id="SVGID_00000021814884597360302220000006161529625822465204_" gradientUnits="userSpaceOnUse" x1="-217.3637" y1="216.3747" x2="-217.3637" y2="203.0864" gradientTransform="matrix(-1 0 0 1 164.1946 38)">
					<stop  offset="0" style="stop-color:#A79ABD"/>
					<stop  offset="0.99" style="stop-color:#724A60"/>
				</linearGradient>
				
					<ellipse style="fill:url(#SVGID_00000021814884597360302220000006161529625822465204_);" cx="381.6" cy="247.7" rx="4.4" ry="6.7"/>
				<path class="st12" d="M369.4,244.4c-0.2,0.2,0.6,1.2,2.4,1.9c1.8,0.7,4.4,0.6,3.9,0.1C373.7,245,371.5,244.3,369.4,244.4z"/>
				<path class="st12" d="M377.3,248c0.4,0.1,1.3-0.2,1.3-0.6s-0.9-0.7-1.6-0.5C376.6,246.9,376.9,247.7,377.3,248z"/>
				<path class="st13" d="M378.6,238.1c-12.1,0-13,4.8-13,4.8l-0.2,1.1c17.3-8.2,28.7,4.6,28.7,4.6S390.7,238.1,378.6,238.1z"/>
			</g>
		</g>
	</g>
	<path class="st14" d="M366,240.1c-0.4,0.6-0.3,2.8-0.3,2.8s4.6-3.2,14.5-2.5s13.5,6.5,13.5,6.5C386.3,231.2,366.4,239.5,366,240.1z
		"/>
</g>
</svg>
