<?xml version="1.0" encoding="utf-8"?>
<!-- Generator: Adobe Illustrator 25.4.1, SVG Export Plug-In . SVG Version: 6.00 Build 0)  -->
<svg version="1.1" id="Layer_1" xmlns="http://www.w3.org/2000/svg" xmlns:xlink="http://www.w3.org/1999/xlink" x="0px" y="0px"
	 viewBox="0 0 837.3 1537" style="enable-background:new 0 0 837.3 1537;" xml:space="preserve">
<style type="text/css">
	.st0{fill:none;}
	.st1{fill-rule:evenodd;clip-rule:evenodd;fill:url(#SVGID_1_);}
	.st2{fill-rule:evenodd;clip-rule:evenodd;fill:#8C4F4B;}
	.st3{fill-rule:evenodd;clip-rule:evenodd;fill:#72433B;}
</style>
<g id="Layer_2_00000071545196670861738030000012866517641271091865_">
	<g id="base">
		<rect class="st0" width="837.3" height="1537"/>
	</g>
	<g id="nose_03">
		
			<linearGradient id="SVGID_1_" gradientUnits="userSpaceOnUse" x1="406.4" y1="241.3" x2="423.8976" y2="241.3" gradientTransform="matrix(1 0 0 1 0 38)">
			<stop  offset="0" style="stop-color:#9B5C4E"/>
			<stop  offset="1" style="stop-color:#72433B"/>
		</linearGradient>
		<path class="st1" d="M418.6,269.8c0,0,6.5,4.4,5.1,14.3l-17.3,4.7l12.5-6.4C419,282.4,423.4,277.1,418.6,269.8z"/>
		<path class="st2" d="M375.9,283.6c2.5,1.2,5.1,2.1,7.9,2.6c3.5,0.6,3.9,2.4,12.9,2.4c8,0,15.5-5.6,23.7-5.9c0,0-7.6,4.4-16.9,10.3
			c0,0-2.3,3.1-14.6,0.3C388.8,293.3,382.7,290.8,375.9,283.6z"/>
		<path class="st3" d="M408.3,289.5c0,0,4.2-6.3,11.9-4.4C420.2,285.1,416.5,288.3,408.3,289.5z"/>
	</g>
</g>
</svg>
