<?xml version="1.0" encoding="utf-8"?>
<!-- Generator: Adobe Illustrator 25.4.1, SVG Export Plug-In . SVG Version: 6.00 Build 0)  -->
<svg version="1.1" id="Layer_1" xmlns="http://www.w3.org/2000/svg" xmlns:xlink="http://www.w3.org/1999/xlink" x="0px" y="0px"
	 viewBox="0 0 837.3 1537" style="enable-background:new 0 0 837.3 1537;" xml:space="preserve">
<style type="text/css">
	.st0{fill:none;}
	.st1{fill-rule:evenodd;clip-rule:evenodd;fill:url(#SVGID_1_);}
	.st2{fill-rule:evenodd;clip-rule:evenodd;fill:url(#SVGID_00000112614275682141756160000005650637994301477820_);}
	.st3{fill-rule:evenodd;clip-rule:evenodd;fill:url(#SVGID_00000134963672023825419030000015698421827567585448_);}
	.st4{fill-rule:evenodd;clip-rule:evenodd;fill:url(#SVGID_00000155835168060272301740000007984690055501179526_);}
	.st5{fill-rule:evenodd;clip-rule:evenodd;fill:url(#SVGID_00000123425077487859087200000013901403491637883276_);}
	.st6{fill-rule:evenodd;clip-rule:evenodd;fill:url(#SVGID_00000015343156176500528470000007651692234085933237_);}
	.st7{fill-rule:evenodd;clip-rule:evenodd;fill:url(#SVGID_00000167365194905835310030000011412704287971874694_);}
	.st8{fill-rule:evenodd;clip-rule:evenodd;fill:url(#SVGID_00000115480179678589710230000010654404657458605750_);}
	.st9{fill-rule:evenodd;clip-rule:evenodd;fill:url(#SVGID_00000027586141081409078620000009177941919782996400_);}
</style>
<g id="Layer_2_00000075884557693136932600000001998157313109483667_">
	<g id="base">
		<rect class="st0" width="837.3" height="1537"/>
	</g>
	<g id="L_arm_01">
		
			<linearGradient id="SVGID_1_" gradientUnits="userSpaceOnUse" x1="653.3041" y1="603.1501" x2="652.8245" y2="637.7508" gradientTransform="matrix(1 0 0 -1 0 1538)">
			<stop  offset="0" style="stop-color:#FF7F66"/>
			<stop  offset="1" style="stop-color:#EC887E"/>
		</linearGradient>
		<path class="st1" d="M630,930.5c0,0-6.7-15-5.2-25.7c0,0,8.6-5.1,23.6-4.4s33.1,16.6,33.1,16.6v17.5L630,930.5z"/>
		
			<linearGradient id="SVGID_00000162352970431266444270000013785586753607833522_" gradientUnits="userSpaceOnUse" x1="627.0763" y1="637.7372" x2="626.4363" y2="682.7966" gradientTransform="matrix(1 0 0 -1 0 1538)">
			<stop  offset="0" style="stop-color:#FF7F66"/>
			<stop  offset="1" style="stop-color:#EC887E"/>
		</linearGradient>
		<path style="fill-rule:evenodd;clip-rule:evenodd;fill:url(#SVGID_00000162352970431266444270000013785586753607833522_);" d="
			M620.2,855.8c0,0-5.1,29.6-10.4,43.9c0,0,11.3,3.7,24.9-5.3s8.2-33.7,8.2-33.7S628.6,853.2,620.2,855.8z"/>
		
			<linearGradient id="SVGID_00000074412481405818569940000012056233545564787337_" gradientUnits="userSpaceOnUse" x1="798.2842" y1="1102.1451" x2="626.7042" y2="923.4651" gradientTransform="matrix(1 0 0 -1 -0.3 1538.39)">
			<stop  offset="0" style="stop-color:#FFA486"/>
			<stop  offset="1" style="stop-color:#FFB886"/>
		</linearGradient>
		<path style="fill-rule:evenodd;clip-rule:evenodd;fill:url(#SVGID_00000074412481405818569940000012056233545564787337_);" d="
			M717.2,682.4c0,0,12.3,50.2-46.9,38.2c-10.5-2.1-32.4-18.6-42-33.2c0,0-9.4-17.2-9.3-22.6c-23.9-13-34.3-60.5-25.6-79.3
			c-1.4-3.9-17.3-11.9-19.7-14.8c-24.8-30.1-11.2-71.9-3.5-81.5c12.1-15.3,24.2-33.2,45-36.2c27.2-3.9,36.6,16,43.6,21.9
			s22.9,47.5,24.2,76.9s28.8,87.3,29,88.1C713.3,645.4,717.2,682.4,717.2,682.4z"/>
		
			<linearGradient id="SVGID_00000144314320770064910540000013796944244385595523_" gradientUnits="userSpaceOnUse" x1="623.3423" y1="935.0214" x2="599.7922" y2="973.1914" gradientTransform="matrix(1 0 0 -1 0 1538)">
			<stop  offset="0" style="stop-color:#FFA486"/>
			<stop  offset="1" style="stop-color:#FFB886"/>
		</linearGradient>
		<path style="fill-rule:evenodd;clip-rule:evenodd;fill:url(#SVGID_00000144314320770064910540000013796944244385595523_);" d="
			M642.1,616.8c3,11.5,5.6,9.6,0.7,36.3c0,0,2-36.1-21.8-66C621,587.1,639.1,605.3,642.1,616.8z"/>
		
			<linearGradient id="SVGID_00000159469124217126207690000005921645739896310206_" gradientUnits="userSpaceOnUse" x1="674.7374" y1="597.422" x2="674.7374" y2="884.752" gradientTransform="matrix(1 0 0 -1 0 1538)">
			<stop  offset="0" style="stop-color:#FFA486"/>
			<stop  offset="1" style="stop-color:#FFB886"/>
		</linearGradient>
		<path style="fill-rule:evenodd;clip-rule:evenodd;fill:url(#SVGID_00000159469124217126207690000005921645739896310206_);" d="
			M681.4,799.5c-19.2,0.4-22.8,13.6-23.2,14.7c0,0-19,4.9-26.9,11s-11.1,30.7-11.1,30.7l22.7,4.8c0,0,5.1-3,11.3,1.2
			c0,0-5.3,34-10.7,47.8c-1,2.4-2.3,4.8-3.7,7c-3,4.8-6.3,9.3-9.8,13.7c0,0,1.3,3.1,5.8,6.8s16.6,2.2,16.6,2.2l6.5-3.7
			c0,0-1,2.2,3.9,4s22,0,22,0c3.3,0.7,6.7,1,10.1,0.8c6.4-0.2,9.2-2.3,16.8-2.3s10.7-0.6,13.8-2.5c0.8-0.4,1.7-3.3,2.5-8.2
			c2.4-15.4,3-50.8-10.3-96.1C717.4,826.8,715.6,798.8,681.4,799.5z"/>
		
			<linearGradient id="SVGID_00000039814896039188370050000017826967628800945059_" gradientUnits="userSpaceOnUse" x1="664.6733" y1="598.3267" x2="664.3032" y2="624.8691" gradientTransform="matrix(1 0 0 -1 0 1538)">
			<stop  offset="0" style="stop-color:#FF7F66"/>
			<stop  offset="1" style="stop-color:#EC887E"/>
		</linearGradient>
		<path style="fill-rule:evenodd;clip-rule:evenodd;fill:url(#SVGID_00000039814896039188370050000017826967628800945059_);" d="
			M658.8,935.7c0,0,8.5-10.7,11.3-22.7c0,0-0.9,15-7.3,26.7C660.7,939.4,659,937.8,658.8,935.7z"/>
		
			<linearGradient id="SVGID_00000152224319589943599770000015954411649777421745_" gradientUnits="userSpaceOnUse" x1="688.3872" y1="597.3118" x2="688.1272" y2="615.2018" gradientTransform="matrix(1 0 0 -1 0 1538)">
			<stop  offset="0" style="stop-color:#FF7F66"/>
			<stop  offset="1" style="stop-color:#EC887E"/>
		</linearGradient>
		<path style="fill-rule:evenodd;clip-rule:evenodd;fill:url(#SVGID_00000152224319589943599770000015954411649777421745_);" d="
			M684.8,939.7c0,0,5-4.9,6.8-17c0,0,0.8,7-1.9,17.7C689.7,940.4,687.7,941.4,684.8,939.7z"/>
		
			<linearGradient id="SVGID_00000150094730218390701620000009558322963925905037_" gradientUnits="userSpaceOnUse" x1="709.8895" y1="599.5508" x2="709.7695" y2="608.4711" gradientTransform="matrix(1 0 0 -1 0 1538)">
			<stop  offset="0" style="stop-color:#FF7F66"/>
			<stop  offset="1" style="stop-color:#EC887E"/>
		</linearGradient>
		<path style="fill-rule:evenodd;clip-rule:evenodd;fill:url(#SVGID_00000150094730218390701620000009558322963925905037_);" d="
			M706.9,938.5c0,0,3.2-1.6,5.8-9c0.4,2.9,0.1,5.9-0.9,8.7L706.9,938.5z"/>
		
			<linearGradient id="SVGID_00000108298179826440849450000010349197085660361103_" gradientUnits="userSpaceOnUse" x1="673.0269" y1="615.99" x2="673.0269" y2="880.44" gradientTransform="matrix(1 0 0 -1 0 1538)">
			<stop  offset="0" style="stop-color:#FFA486"/>
			<stop  offset="1" style="stop-color:#FFB886"/>
		</linearGradient>
		<path style="fill-rule:evenodd;clip-rule:evenodd;fill:url(#SVGID_00000108298179826440849450000010349197085660361103_);" d="
			M641.9,760.3c9.5,20.8,19.7,45.3,16.3,53.9l-0.8,0.2c0.6,1.2,0.9,2.5,0.8,3.8c-0.1,3.2-0.9,32.1,30,33.1
			c13.5,0.4,25.6-11.3,29.4-19.9c-4.6-62.8,6-109.8,1.1-140.7c-0.8-5.2-2.2-10.3-4.3-15.2c0,0-15.8-20.2-39.8-17.7
			c-13.4,1.4-39.8,5.5-46.6,29.6c0,0-4.9,29.4,0,42.9C630.1,735.5,635.8,747.2,641.9,760.3z"/>
	</g>
</g>
</svg>
