<?xml version="1.0" encoding="utf-8"?>
<!-- Generator: Adobe Illustrator 25.4.1, SVG Export Plug-In . SVG Version: 6.00 Build 0)  -->
<svg version="1.1" id="Layer_1" xmlns="http://www.w3.org/2000/svg" xmlns:xlink="http://www.w3.org/1999/xlink" x="0px" y="0px"
	 viewBox="0 0 837.3 1537" style="enable-background:new 0 0 837.3 1537;" xml:space="preserve">
<style type="text/css">
	.st0{fill:none;}
	.st1{fill-rule:evenodd;clip-rule:evenodd;fill:#4C2C20;}
	.st2{fill-rule:evenodd;clip-rule:evenodd;fill:#FFF4C9;}
	.st3{fill-rule:evenodd;clip-rule:evenodd;fill:#8C6B4D;}
</style>
<g id="Layer_2_00000075855895553843816930000005649654359016112569_">
	<g id="base">
		<rect class="st0" width="837.3" height="1537"/>
	</g>
	<g id="mouth">
		<path class="st1" d="M382.8,313.2c0,0,5.5,3.1,17.5,2.2s27.9-9.7,31.9-12.6l1.8,1.7c0,0-19.2,20.7-28.5,23.3
			c-7.9,2.3-13.6-1.9-18.5-10.2l-3.1-2.9L382.8,313.2z"/>
		<path class="st2" d="M390.8,317.5c11.5-1,22.7-3.6,33.4-7.9c0,0-12.5,14.2-21.7,15.3S390.8,317.5,390.8,317.5z"/>
		<path class="st3" d="M427.9,301.4c4.1,1.2,7.4,4.2,9.1,8.2c0,0,2.1-7.4-3-11.3C433.9,298.3,429.3,300,427.9,301.4z"/>
	</g>
</g>
</svg>
