<?xml version="1.0" encoding="utf-8"?>
<!-- Generator: Adobe Illustrator 25.4.1, SVG Export Plug-In . SVG Version: 6.00 Build 0)  -->
<svg version="1.1" id="Layer_1" xmlns="http://www.w3.org/2000/svg" xmlns:xlink="http://www.w3.org/1999/xlink" x="0px" y="0px"
	 viewBox="0 0 837.3 1537" style="enable-background:new 0 0 837.3 1537;" xml:space="preserve">
<style type="text/css">
	.st0{fill:none;}
	.st1{fill:url(#SVGID_1_);}
	.st2{opacity:0.6;fill:url(#SVGID_00000060016635150716789300000008607945162034119596_);enable-background:new    ;}
	.st3{fill:#0046B7;}
	.st4{opacity:0.9;fill:#0046B7;enable-background:new    ;}
	.st5{fill:url(#SVGID_00000088091120244481672800000000301216693720973956_);}
	.st6{opacity:0.6;fill:url(#SVGID_00000131366913663813849630000008407158461248260027_);enable-background:new    ;}
	.st7{opacity:0.46;fill:#AA9996;enable-background:new    ;}
	.st8{opacity:0.62;fill:#685A59;enable-background:new    ;}
	.st9{opacity:0.33;fill:#AA9996;enable-background:new    ;}
	.st10{clip-path:url(#SVGID_00000094604173522837551710000007645431606158231448_);}
	.st11{fill:url(#SVGID_00000101799665882858200990000005814960642477861766_);}
	.st12{fill:url(#SVGID_00000019638791203769278510000006590638332044095620_);}
	.st13{fill:url(#SVGID_00000072263624386738267570000001437857096517769903_);}
	.st14{fill:url(#SVGID_00000036964298900981618150000015567023501960590501_);}
	.st15{fill:#FFFFFF;}
	.st16{opacity:0.6;fill:#B42F97;enable-background:new    ;}
	.st17{fill:#270039;}
	.st18{clip-path:url(#SVGID_00000124851916867138569600000003713436406272758148_);}
	.st19{fill:url(#SVGID_00000098204004772101978880000002381552175421007293_);}
	.st20{fill:url(#SVGID_00000157308422905063956700000015398396886298610591_);}
	.st21{fill:url(#SVGID_00000065784435546805151600000016607432444467199897_);}
	.st22{fill:url(#SVGID_00000117646782852513484410000013267314850133965239_);}
</style>
<g>
	<g id="Layer_2_00000133497394575189217180000004906588621974778043_">
		<g id="base">
			<rect class="st0" width="837.3" height="1537"/>
		</g>
		<g id="Layer_29">
			
				<linearGradient id="SVGID_1_" gradientUnits="userSpaceOnUse" x1="-1097.3546" y1="97.2302" x2="-1052.5446" y2="97.2302" gradientTransform="matrix(-0.81 -0.12 -0.16 1.08 -480.01 -4.9999)">
				<stop  offset="0" style="stop-color:#36063B"/>
				<stop  offset="1" style="stop-color:#4D0E2E"/>
			</linearGradient>
			<path class="st1" d="M357.5,234.6c0,0,5.1-4.9,7.8-5.7l0,0c5.9-1.6,28.4,9.1,28.4,9.1s2-8.8,1.5-14.2l-0.6-0.1
				c0.1,2.3-0.1,4.5-0.4,6.7c0,0,0-5.7-0.8-6.9c0,0-15.5-1.5-20.4-2.3l-2.7-0.5l-1-0.2c-1.8-0.3-2.3-0.4-2.3-0.4l0.1-0.5
				C367.2,219.7,362.4,224.1,357.5,234.6z"/>
			
				<linearGradient id="SVGID_00000044145279457899312970000007571879606779961993_" gradientUnits="userSpaceOnUse" x1="-1065.7146" y1="97.2688" x2="-1052.5446" y2="97.2688" gradientTransform="matrix(-0.81 -0.12 -0.16 1.08 -480.01 -4.9999)">
				<stop  offset="0" style="stop-color:#FFEADB"/>
				<stop  offset="0.99" style="stop-color:#D177F4"/>
			</linearGradient>
			<path style="opacity:0.6;fill:url(#SVGID_00000044145279457899312970000007571879606779961993_);enable-background:new    ;" d="
				M357.5,234.6c0,0,5.1-4.9,7.8-5.7l0,0c1.3-2.9,3-5.6,5.1-8.1l-1-0.2c-2.5,2.3-7.4,8.6-7.4,8.6c1.4-3.3,3.1-6.5,5.2-9.5
				C367.2,219.7,362.4,224.1,357.5,234.6z"/>
			<path class="st3" d="M439.9,277.7l6.1,3.3l5.4-5.2l0.1-5.8l-6.9-2.9l-5.1,4.4L439.9,277.7z M445,270l4,1.7v3.3l-3.1,3.3l-3.6-2.2
				l-0.2-3.6L445,270z"/>
			<path class="st4" d="M488.7,160c-2.1-1.8-4.4-3.4-6.8-4.8c0,0-34.9-4-51.8,26.8c-3.4,6.1-5.1,7.7-6.5,10.2c-1,1.8-1.5,3.9-1.3,6
				c0,0-2,3.6-1.4,10.2c0.2,2.5,1.3,8,2.6,18.8c0.9,6.8,1.6,12.1,2.1,20.6c0.2,3.9,2,9.2,2.5,12.9c0.7,5,1.1,10,1.1,15.1l17,12.9
				l12.6-15.6c0,0,1-12.3-0.3-19.8c-0.8-4.9-4.3-4.7-3.9-8.1c1-8.7,1.4-10.6,0.9-20c-0.3-5.2,0.3-13,0.6-18.2l2.2-7.9
				C454.4,186.3,465.2,171.7,488.7,160z M453.5,276.5l-7.2,7.2l-8.4-4.6l-0.4-8.3l6.9-6l9.3,4L453.5,276.5z"/>
			
				<linearGradient id="SVGID_00000065797570755493294390000002522912715484899979_" gradientUnits="userSpaceOnUse" x1="388.4388" y1="280.9462" x2="433.2488" y2="280.9462" gradientTransform="matrix(1.04 -0.15 0.16 1.08 -27.71 -12.6)">
				<stop  offset="0" style="stop-color:#36063B"/>
				<stop  offset="1" style="stop-color:#4D0E2E"/>
			</linearGradient>
			<path style="fill:url(#SVGID_00000065797570755493294390000002522912715484899979_);" d="M469.8,233.7c0,0-6.3-4.7-9.8-5.4l0,0
				c-7.5-1.4-36.9,10.4-36.9,10.4s-2.2-8.7-1.3-14.3l0.7-0.1c0,0-0.3,4.9,0.2,6.8c0,0,0.2-5.8,1.3-7c0,0,20-2.1,26.3-3.2l3.5-0.6
				l1.3-0.2c2.4-0.4,3-0.5,3-0.5l-0.1-0.5C458,219.1,464,223.3,469.8,233.7z"/>
			
				<linearGradient id="SVGID_00000005948295470810471980000005464317301871279540_" gradientUnits="userSpaceOnUse" x1="420.0788" y1="280.9528" x2="433.2488" y2="280.9528" gradientTransform="matrix(1.04 -0.15 0.16 1.08 -27.71 -12.6)">
				<stop  offset="0" style="stop-color:#FFEADB"/>
				<stop  offset="0.99" style="stop-color:#D177F4"/>
			</linearGradient>
			<path style="opacity:0.6;fill:url(#SVGID_00000005948295470810471980000005464317301871279540_);enable-background:new    ;" d="
				M469.8,233.7c0,0-6.3-4.7-9.8-5.4l0,0c-1.7-2.9-3.7-5.6-6.2-8l1.3-0.2c3.2,2.2,9.2,8.3,9.2,8.3c-1.8-4.2-6.2-9.3-6.2-9.3
				S464,223.3,469.8,233.7z"/>
			<path class="st7" d="M425.2,249.1c-0.1,1.8,0.8,3.5,2.3,4.6c0,0-3-0.4-3.3-1.6S425.2,249.1,425.2,249.1z"/>
			<path class="st8" d="M427.5,253.6c0,0,8,3.5,19.7,2.4c8.6-0.8,11.5-5.9,11.5-5.9S448.1,255.8,427.5,253.6z"/>
			<path class="st9" d="M427.5,245.1c0,0,4.5-9.9,15.2-10.9s15.1,6.1,15.1,6.1S438.4,235.5,427.5,245.1z"/>
			<g>
				<g>
					<defs>
						<path id="SVGID_00000119088762311594833800000013929722155956025985_" d="M427.5,253.6c0,0,10.7,1,15.8,0.5
							c5.5-0.5,13.6-2.8,15.4-4s2.3-5.9,1.4-7c0,0-8-2.9-18.9-1.9c-10.8,1-14.7,5.2-14.7,5.2s-1.3,2.2-1.3,2.7
							S425.3,252.4,427.5,253.6z"/>
					</defs>
					<clipPath id="SVGID_00000013181444958301826180000017934889710254224553_">
						<use xlink:href="#SVGID_00000119088762311594833800000013929722155956025985_"  style="overflow:visible;"/>
					</clipPath>
					<g style="clip-path:url(#SVGID_00000013181444958301826180000017934889710254224553_);">
						
							<linearGradient id="SVGID_00000016762051264893350770000003792092523771587491_" gradientUnits="userSpaceOnUse" x1="442.619" y1="217.188" x2="442.619" y2="199.6014" gradientTransform="matrix(1 0 0 1 0 38)">
							<stop  offset="0" style="stop-color:#EEE2FF"/>
							<stop  offset="1" style="stop-color:#BDC9FB"/>
						</linearGradient>
						<path style="fill:url(#SVGID_00000016762051264893350770000003792092523771587491_);" d="M424.8,251.7
							c0.1,2.5,11.8,4.1,21.6,3.2c9.5-0.9,14.6-5.1,14-10.2s-7.4-8.2-17.8-6.7C431.3,239.6,424.5,245.8,424.8,251.7z"/>
						
							<linearGradient id="SVGID_00000090259253203664057390000007075173356236585898_" gradientUnits="userSpaceOnUse" x1="440.9" y1="217.8" x2="440.9" y2="200.2" gradientTransform="matrix(1 0 0 1 0 38)">
							<stop  offset="0" style="stop-color:#4D0E2E"/>
							<stop  offset="1" style="stop-color:#36063B"/>
						</linearGradient>
						<circle style="fill:url(#SVGID_00000090259253203664057390000007075173356236585898_);" cx="440.9" cy="247" r="8.8"/>
						
							<linearGradient id="SVGID_00000091006681179844326890000000819916699796881596_" gradientUnits="userSpaceOnUse" x1="440.9" y1="217.3" x2="440.9" y2="200.7199" gradientTransform="matrix(1 0 0 1 0 38)">
							<stop  offset="0" style="stop-color:#4D0E2E"/>
							<stop  offset="1" style="stop-color:#36063B"/>
						</linearGradient>
						<circle style="fill:url(#SVGID_00000091006681179844326890000000819916699796881596_);" cx="440.9" cy="247" r="8.3"/>
						
							<linearGradient id="SVGID_00000013164516949356355350000018166492103590999967_" gradientUnits="userSpaceOnUse" x1="440.9" y1="214.38" x2="440.9" y2="203.62" gradientTransform="matrix(1 0 0 1 0 38)">
							<stop  offset="0" style="stop-color:#A79ABD"/>
							<stop  offset="0.99" style="stop-color:#724A60"/>
						</linearGradient>
						<circle style="fill:url(#SVGID_00000013164516949356355350000018166492103590999967_);" cx="440.9" cy="247" r="5.4"/>
						<path class="st15" d="M448.2,245.9c-0.6,0.4,2.4,0.5,4.6-0.1c2-0.5,3-1.3,2.8-1.5C453.1,244.2,450.5,244.8,448.2,245.9z"/>
						<path class="st15" d="M446.5,246.2c-0.9-0.2-1.9,0.1-1.9,0.4s1,0.7,1.5,0.5S447,246.4,446.5,246.2z"/>
						<path class="st16" d="M425.7,247.7c0,0,13.9-10.3,34.6-3.7l-0.3-0.9c0,0-1.1-3.9-15.6-3.9S425.7,247.7,425.7,247.7z"/>
					</g>
				</g>
			</g>
			<path class="st17" d="M426.5,246.4c0,0,4.4-4.7,16.2-5.3s17.4,2,17.4,2s0.1-1.8-0.4-2.3S435.3,233.6,426.5,246.4z"/>
			<path class="st7" d="M392.7,253c-0.2,1.2-2.5,1.6-2.5,1.6c1.2-1,1.8-2.7,1.8-4.6C392,250.1,392.9,251.7,392.7,253z"/>
			<path class="st8" d="M366.2,251.1c0,0,2.2,5.1,8.8,5.9c9,1.1,15.1-2.4,15.1-2.4C374.3,256.8,366.2,251.1,366.2,251.1z"/>
			<path class="st9" d="M366.9,241.3c0,0,3.4-7.1,11.6-6.1s11.7,10.9,11.7,10.9C381.8,236.5,366.9,241.3,366.9,241.3z"/>
			<g>
				<g>
					<defs>
						<path id="SVGID_00000183217318387055989370000007268889928561376697_" d="M390.2,254.6c0,0-8.2,1-12.1,0.5
							c-4.2-0.5-10.4-2.8-11.8-4s-1.7-5.9-1.1-7c0,0,6.2-2.9,14.5-1.9s11.3,5.2,11.3,5.2s1,2.2,1,2.7
							C391.9,250.6,391.9,253.4,390.2,254.6z"/>
					</defs>
					<clipPath id="SVGID_00000010299288356607705570000001361754732383995813_">
						<use xlink:href="#SVGID_00000183217318387055989370000007268889928561376697_"  style="overflow:visible;"/>
					</clipPath>
					<g style="clip-path:url(#SVGID_00000010299288356607705570000001361754732383995813_);">
						
							<linearGradient id="SVGID_00000046323628700525645390000016796338898489075852_" gradientUnits="userSpaceOnUse" x1="-214.2868" y1="218.1912" x2="-214.2868" y2="200.6136" gradientTransform="matrix(-1 0 0 1 164.1946 38)">
							<stop  offset="0" style="stop-color:#EEE2FF"/>
							<stop  offset="1" style="stop-color:#BDC9FB"/>
						</linearGradient>
						<path style="fill:url(#SVGID_00000046323628700525645390000016796338898489075852_);" d="M378.5,239c-8-1.5-13.2,1.5-13.7,6.7
							s3.4,9.3,10.8,10.2c7.6,1,16.5-0.7,16.6-3.2C392.4,246.8,387.2,240.6,378.5,239z"/>
						
							<linearGradient id="SVGID_00000061464281975988537750000004500202770469346184_" gradientUnits="userSpaceOnUse" x1="-215.6054" y1="218.8" x2="-215.6054" y2="201.2" gradientTransform="matrix(-1 0 0 1 164.1946 38)">
							<stop  offset="0" style="stop-color:#4D0E2E"/>
							<stop  offset="1" style="stop-color:#36063B"/>
						</linearGradient>
						
							<ellipse style="fill:url(#SVGID_00000061464281975988537750000004500202770469346184_);" cx="379.8" cy="248" rx="6.8" ry="8.8"/>
						
							<linearGradient id="SVGID_00000067227584990574543940000015599149737809223352_" gradientUnits="userSpaceOnUse" x1="-215.6054" y1="218.3" x2="-215.6054" y2="201.72" gradientTransform="matrix(-1 0 0 1 164.1946 38)">
							<stop  offset="0" style="stop-color:#4D0E2E"/>
							<stop  offset="1" style="stop-color:#36063B"/>
						</linearGradient>
						
							<ellipse style="fill:url(#SVGID_00000067227584990574543940000015599149737809223352_);" cx="379.8" cy="248" rx="6.4" ry="8.3"/>
						
							<linearGradient id="SVGID_00000162327356616398247290000002351015794515122845_" gradientUnits="userSpaceOnUse" x1="-215.6054" y1="215.38" x2="-215.6054" y2="204.62" gradientTransform="matrix(-1 0 0 1 164.1946 38)">
							<stop  offset="0" style="stop-color:#A79ABD"/>
							<stop  offset="0.99" style="stop-color:#724A60"/>
						</linearGradient>
						
							<ellipse style="fill:url(#SVGID_00000162327356616398247290000002351015794515122845_);" cx="379.8" cy="248" rx="4.1" ry="5.4"/>
						<path class="st15" d="M368.5,245.3c-0.2,0.2,0.6,1,2.2,1.5c1.7,0.6,4.1,0.5,3.6,0.1C372.5,245.8,370.5,245.2,368.5,245.3z"/>
						<path class="st15" d="M375.9,248.2c0.4,0.1,1.2-0.2,1.2-0.5s-0.8-0.6-1.5-0.4C375.2,247.3,375.5,248,375.9,248.2z"/>
						<path class="st16" d="M377.1,240.2c-11.2,0-12,3.9-12,3.9l-0.2,0.9c16-6.6,26.6,3.7,26.6,3.7S388.3,240.2,377.1,240.2z"/>
					</g>
				</g>
			</g>
			<path class="st17" d="M365.4,241.8c-0.4,0.5-0.3,2.3-0.3,2.3s4.3-2.6,13.4-2s12.5,5.3,12.5,5.3
				C384.2,234.6,365.8,241.3,365.4,241.8z"/>
		</g>
	</g>
</g>
</svg>
