<svg xmlns="http://www.w3.org/2000/svg" xmlns:xlink="http://www.w3.org/1999/xlink" viewBox="0 0 837.33 1537"><defs><style>.cls-1{fill:none;}.cls-2{fill:url(#Áåçûìÿííûé_ãðàäèåíò_104);}.cls-3,.cls-4,.cls-5,.cls-6{fill-rule:evenodd;}.cls-3{fill:url(#Áåçûìÿííûé_ãðàäèåíò_104-2);}.cls-4{fill:url(#Áåçûìÿííûé_ãðàäèåíò_23);}.cls-5{fill:#b85652;}.cls-6{opacity:0.48;fill:url(#Áåçûìÿííûé_ãðàäèåíò_104-3);}</style><linearGradient id="Áåçûìÿííûé_ãðàäèåíò_104" x1="383.51" y1="272.94" x2="394.4" y2="272.94" gradientUnits="userSpaceOnUse"><stop offset="0" stop-color="#ff7f66"/><stop offset="1" stop-color="#ec887e"/></linearGradient><linearGradient id="Áåçûìÿííûé_ãðàäèåíò_104-2" x1="290.28" y1="545.32" x2="289.99" y2="524.57" gradientTransform="matrix(0.78, 0.32, -0.29, 0.7, 336.6, -185.15)" xlink:href="#Áåçûìÿííûé_ãðàäèåíò_104"/><linearGradient id="Áåçûìÿííûé_ãðàäèåíò_23" x1="279.41" y1="555.58" x2="279.41" y2="535.22" gradientTransform="matrix(0.78, 0.32, -0.29, 0.7, 336.6, -185.15)" gradientUnits="userSpaceOnUse"><stop offset="0" stop-color="#ce595b"/><stop offset="1" stop-color="#d67261"/></linearGradient><linearGradient id="Áåçûìÿííûé_ãðàäèåíò_104-3" x1="393.7" y1="277.58" x2="397.26" y2="277.58" gradientTransform="translate(1.52 0.16)" xlink:href="#Áåçûìÿííûé_ãðàäèåíò_104"/></defs><g id="Layer_2" data-name="Layer 2"><g id="base"><rect class="cls-1" width="837.33" height="1537"/></g><g id="nose_07"><path class="cls-2" d="M391.4,289.6c-3.73-.73-6.86-5.8-5.37-9.46,2.75-6.77,7-16.38,8.37-24-3.58,7.45-8,19.3-8,19.3C381,287.77,384.81,287,384.81,287s3.75,2.7,7.45,2.79Z"/><path class="cls-3" d="M409.28,275.43s4.15,2.94,3,10l-11.41,3.71,8.31-4.79A8,8,0,0,0,409.28,275.43Z"/><path class="cls-4" d="M384.81,287a15,15,0,0,0,7.46,2.73s12.45-4.84,17.8-5.21c0,0-5.07,3.28-11.31,7.66,0,0-1.61,2.22-9.59.54C389.17,292.68,389.1,291.86,384.81,287Z"/><path class="cls-5" d="M402,289.57s2.9-4.56,7.89-3.41C409.93,286.16,407.42,288.51,402,289.57Z"/><path class="cls-6" d="M398.78,269.26S394,282,395.51,286.21C395.51,279.47,398.78,269.26,398.78,269.26Z"/></g></g></svg>