<svg xmlns="http://www.w3.org/2000/svg" xmlns:xlink="http://www.w3.org/1999/xlink" viewBox="0 0 837.33 1537"><defs><style>.cls-1{fill:none;}.cls-2{fill-rule:evenodd;fill:url(#linear-gradient);}</style><linearGradient id="linear-gradient" x1="674.76" y1="940.55" x2="674.76" y2="669.82" gradientUnits="userSpaceOnUse"><stop offset="0.01" stop-color="#231f20"/><stop offset="1" stop-color="#1a191a"/></linearGradient></defs><g id="Layer_2" data-name="Layer 2"><g id="base"><rect class="cls-1" width="837.33" height="1537"/></g><g id="L_arm_03"><path class="cls-2" d="M716.57,805.33c-10.45-1.13-21-2-31.47-1.41l-.43.1a51.36,51.36,0,0,1-20.54,4.26l-5.41-.72a14.85,14.85,0,0,1-.54,6.62s-19,4.9-26.94,11-11.07,30.66-11.07,30.66l22.73,4.85s5.14-3,11.26,1.23c0,0-5.34,34-10.68,47.81a44.3,44.3,0,0,1-3.72,7,144.76,144.76,0,0,1-9.8,13.72s1.28,3.09,5.83,6.76,16.56,2.16,16.56,2.16l6.47-3.68s-1,2.16,3.92,4,22,0,22,0a37.07,37.07,0,0,0,10.14.83c6.42-.24,9.16-2.35,16.8-2.35s10.73-.63,13.77-2.45c.78-.44,1.71-3.28,2.5-8.23,2.4-15.38,3-50.75-10.29-96.11C717,822.37,716.7,813.69,716.57,805.33Z"/></g></g></svg>