<svg xmlns="http://www.w3.org/2000/svg" xmlns:xlink="http://www.w3.org/1999/xlink" viewBox="0 0 837.33 1537"><defs><style>.cls-1{isolation:isolate;}.cls-2{fill:none;}.cls-3,.cls-6,.cls-7{mix-blend-mode:multiply;}.cls-3{fill:url(#Áåçûìÿííûé_ãðàäèåíò_123);}.cls-4{fill:url(#Áåçûìÿííûé_ãðàäèåíò_47);}.cls-5{fill:#9b100a;}.cls-6,.cls-7{opacity:0.21;}.cls-6{fill:url(#Áåçûìÿííûé_ãðàäèåíò_204);}.cls-7{fill:url(#Áåçûìÿííûé_ãðàäèåíò_204-2);}</style><linearGradient id="Áåçûìÿííûé_ãðàäèåíò_123" x1="818.17" y1="147.13" x2="819.82" y2="147.13" gradientTransform="matrix(-1, 0, 0, 1, 1290.98, 0)" gradientUnits="userSpaceOnUse"><stop offset="0" stop-color="#ffeadb"/><stop offset="0.99" stop-color="#d177f4"/></linearGradient><linearGradient id="Áåçûìÿííûé_ãðàäèåíò_47" x1="426.68" y1="407.54" x2="426.68" y2="112.32" gradientUnits="userSpaceOnUse"><stop offset="0" stop-color="#36062c"/><stop offset="1" stop-color="#441b3e"/></linearGradient><linearGradient id="Áåçûìÿííûé_ãðàäèåíò_204" x1="344.53" y1="174.74" x2="390.11" y2="174.74" gradientUnits="userSpaceOnUse"><stop offset="0.01" stop-color="#d195ab"/><stop offset="0.99" stop-color="#985e40"/></linearGradient><linearGradient id="Áåçûìÿííûé_ãðàäèåíò_204-2" x1="472.45" y1="173.52" x2="519.03" y2="173.52" xlink:href="#Áåçûìÿííûé_ãðàäèåíò_204"/></defs><g class="cls-1"><g id="Layer_2" data-name="Layer 2"><g id="base"><rect class="cls-2" width="837.33" height="1537"/></g><g id="hair"><path class="cls-3" d="M471.16,145.1c.18.42.76,1.82,1.65,4.07C472.21,147.54,471.65,146.15,471.16,145.1Z"/><path class="cls-4" d="M526.78,262.21c-10.34-26.08-3.17-80.88-10.93-96.47,0,0,0-.05,0-.07-.2-.42-.42-.83-.65-1.21-6.13-10.12-6.77-18.6-18.62-25.27l-.56-.33c-.5-.27-1-.55-1.46-.79l0,0c-4.14-2.3-12.53-7.44-14.58-8.65-8-4.65-24.06-14.82-30.92-16.82-3.67-1.06-9.36,1.59-15.7,4.79-5.53,2.78-11.56,6-17.14,7.41l-.06,0c-.89-.26-15.43-4.65-21.45-5.07a5.86,5.86,0,0,0-2.94.72s0,0,0,0c-4.94,2.33-15.71,16.16-22.19,23-2.62,2.76-5.15,5.4-7.38,7.5-9,8.47-15.94,21.66-18.92,55.22-3.46,38.83-9.75,52.6-14.47,67.33-2.81,8.78-5.06,17.91-5.8,32.91-2,39.52,29.86,98,30.82,99.16-6-11.52-4.86-26.36-4.86-26.36,3.75,10,11.92,18,11.92,18l-3.06-9.7c5.55,10.78,18.86,20.06,18.86,20.06s-15.27-44-5.62-81.21c-8.48-16.48-12.21-31.29-13.91-49.13-.68-7.23,2.28-17.26,4.19-20.15a19.82,19.82,0,0,1,3-3.78c1.82-12-2.64-25.76-2.64-25.76s-3.23-8.13-1.38-15.85c2-8.29.81-8.84,2.89-14.55s6.43-18,8.92-22.05c4.91-8.06,21-10.77,38.55-12.32,14.29-1.27,23.18,1.19,26.7,1.69,36,5.09,36,16,43,33.26,9.17,22.73,13.94,35.26,7.35,60.89.19,1.73,3.61,26,3.73,27.7,4.27,58.67-13.51,121.26-13.51,121.26,5.69-.23,5.62-8.84,5.62-8.84l7.74-6.13v4.61c16.12-19.67,28.93-74,28.93-74,.88,30.17-22,71.45-22,71.45C524.47,377.16,537.42,289.06,526.78,262.21Z"/><path class="cls-5" d="M351,167.49a28.71,28.71,0,0,0-4,3.69c-1.58,1.81-2.9,4-2.31,5.83,1.27,4-4.36,10.18-1.45,13.27s44.16,2.73,58-1.09,67.63,6.51,74.51,2c14.68-9.61,43.61-8.21,43.61-8.21s-.11-7.61-1.79-12.42.89-7.72-4.19-9.36-66.34,4.29-102.87,0C404.33,160.48,351,167.49,351,167.49Z"/><path class="cls-6" d="M344.84,178.75c4.12-1.2,9.09-.94,13.39-1.44q8-.94,15.93-1.83c5.42-.6,10.7-1.48,15.95-2.49-14,.48-28.6.73-42.37-2.18a3.18,3.18,0,0,1-.33-.09c-.14.16-.29.31-.43.46-1.58,1.81-2.9,4-2.31,5.83A4.78,4.78,0,0,1,344.84,178.75Z"/><path class="cls-7" d="M517.53,170.56a12.2,12.2,0,0,1-.6-2.76c-7.84,4.45-18.2,5.95-26.84,7.31a113.55,113.55,0,0,1-17.64,1.71h0c.09.15.19.3.27.46l.54.06c15.08,2.43,30.52,2.27,45.77.95A36,36,0,0,0,517.53,170.56Z"/></g></g></g></svg>