<svg xmlns="http://www.w3.org/2000/svg" xmlns:xlink="http://www.w3.org/1999/xlink" viewBox="0 0 837.33 1537"><defs><style>.cls-1{fill:none;}.cls-2,.cls-3,.cls-4,.cls-5,.cls-6,.cls-7{fill-rule:evenodd;}.cls-2{fill:url(#linear-gradient);}.cls-3{fill:url(#linear-gradient-2);}.cls-4{fill:url(#linear-gradient-3);}.cls-5{fill:url(#linear-gradient-4);}.cls-6{fill:url(#linear-gradient-5);}.cls-7{fill:url(#linear-gradient-6);}</style><linearGradient id="linear-gradient" x1="210.83" y1="1449.34" x2="210.83" y2="1294.86" gradientUnits="userSpaceOnUse"><stop offset="0"/><stop offset="1" stop-color="#000026"/></linearGradient><linearGradient id="linear-gradient-2" x1="201.91" y1="1449.34" x2="201.91" y2="1410.56" xlink:href="#linear-gradient"/><linearGradient id="linear-gradient-3" x1="597.28" y1="1468.61" x2="597.28" y2="1294.39" xlink:href="#linear-gradient"/><linearGradient id="linear-gradient-4" x1="597.31" y1="1468.61" x2="597.31" y2="1418.2" xlink:href="#linear-gradient"/><linearGradient id="linear-gradient-5" x1="602.14" y1="1410.56" x2="602.14" y2="1291.55" gradientUnits="userSpaceOnUse"><stop offset="0.01" stop-color="#231f20"/><stop offset="1" stop-color="#1a191a"/></linearGradient><linearGradient id="linear-gradient-6" x1="214.83" y1="1451.65" x2="214.83" y2="1287.4" xlink:href="#linear-gradient-5"/></defs><g id="Layer_2" data-name="Layer 2"><g id="base"><rect class="cls-1" width="837.33" height="1537"/></g><g id="feet_03"><path class="cls-2" d="M310.37,1388.52a202.19,202.19,0,0,1,1.08,22c0,14.11-1.08,25.13-1.08,25.13s-60,.83-85.93,4c-1.71.2-3.33.39-4.7.64-22.39,3.67-41.05,7.93-57,8.86s-50.51-1.22-70.4-21.75a54.94,54.94,0,0,1,3.24-11.31c2.25-5.64,5.92-12.2,11.75-16.76,0,0,31.6-3.43,55.9-16.51,4.11-2.2,34.59-10.29,38.65-12.15,38.41-17.55,38.41-74.22,38.41-74.22a223.48,223.48,0,0,0,31.28,4.67s41.74-.89,57.69-6.27l-20.12,64.93S307.92,1365.88,310.37,1388.52Z"/><path class="cls-3" d="M311.45,1410.56c0,14.11-1.08,25.13-1.08,25.13s-68.29.93-90.63,4.61-41.05,7.93-57,8.86-50.51-1.22-70.4-21.75a54.94,54.94,0,0,1,3.24-11.31c38.6,16.8,83.67,15.92,128.1,5.53S311.45,1410.56,311.45,1410.56Z"/><path class="cls-4" d="M687.77,1435.4c.73,14.94-5.73,23.86-5.73,23.86-37.38,15-96.46,8.71-110.86,3.38l0-.05c-1.13-.4-2.2-.79-3.23-1.18-7.2-2.84-12.25-5.44-24.55-11.32-3-1.47-6.27-3.18-9.55-5-12-6.81-24.15-15.09-24.15-15.09-1-5.29-2-7.69-2.5-10.48a41.87,41.87,0,0,1-.34-8.92,241.12,241.12,0,0,1,4.41-34.88s-4.53-83.29-1-80.82c7.45,5.24,42.2,4.43,58.48,1.71,21.22-3.54,42.27-1.71,42.27-1.71,2.45,7.93-6.66,60-6.66,60l.05.05a74.87,74.87,0,0,0,6.71,13.33l.05,0a143.41,143.41,0,0,0,17.69,23.32c8,8.67,19.74,16.41,30.52,22.44a.15.15,0,0,0,.1,0,251.41,251.41,0,0,0,27.23,13A53,53,0,0,1,687.77,1435.4Z"/><path class="cls-5" d="M687.77,1435.4c.73,14.94-5.73,23.86-5.73,23.86-37.38,15-96.46,8.71-110.86,3.38l0-.05c-1.13-.4-2.2-.79-3.23-1.18a133.12,133.12,0,0,1-24.55-11.32c-3.28-1.86-6.51-3.52-9.55-5a244,244,0,0,0-25.72-11.37c-1.71-8.91-1.37-6-.93-14.2,0-.39.05-.84.05-1.28a138.44,138.44,0,0,1,37,11.76c7.54,3.63,13.81,6.42,18.66,8.48,8.33,3.52,12.59,4.94,12.59,4.94S647.6,1455,687.77,1435.4Z"/><path class="cls-6" d="M641.79,1402.93l-40.42,7.63C565,1397,563,1333,563,1333s-3-38.47,5.85-39.59a278.6,278.6,0,0,1,42.27-1.71c2.45,7.93-6.81,63.13-6.81,63.13l6.76,13.38.05,0C620.8,1384.87,641.79,1402.93,641.79,1402.93Z"/><path class="cls-7" d="M240.32,1292s0,61.1-38.41,78.65c-3.68,1.69-29.13,8.51-36.87,11.4A38.78,38.78,0,0,1,183,1397c1.43-.46,2.87-.94,4.31-1.39,12.93-4,26.14-7.63,38.85-12.39q2.44-1.21,4.77-2.64c4-3.85,7.35-8.19,11.05-12.39,4-4.58,8.27-8.94,12.24-13.55q1.41-2.09,2.64-4.28c.38-1.32.72-2.66,1-4,1-11.2,1.11-22.41,3.45-33.52.88-4.17,2.11-13.74,3.3-17.81C251.72,1293.61,240.32,1292,240.32,1292Z"/></g></g></svg>