<?xml version="1.0" encoding="utf-8"?>
<!-- Generator: Adobe Illustrator 26.0.0, SVG Export Plug-In . SVG Version: 6.00 Build 0)  -->
<svg version="1.1" id="Layer_1" xmlns="http://www.w3.org/2000/svg" xmlns:xlink="http://www.w3.org/1999/xlink" x="0px" y="0px"
	 viewBox="0 0 837.3 1537" style="enable-background:new 0 0 837.3 1537;" xml:space="preserve">
<style type="text/css">
	.st0{fill:none;}
	.st1{fill:#1D1F2D;}
	.st2{fill-rule:evenodd;clip-rule:evenodd;fill:url(#SVGID_1_);}
	.st3{fill-rule:evenodd;clip-rule:evenodd;fill:#3D3D3D;}
	.st4{fill-rule:evenodd;clip-rule:evenodd;fill:url(#SVGID_00000011013036160968909560000016127921501016303772_);}
	.st5{fill-rule:evenodd;clip-rule:evenodd;fill:url(#SVGID_00000096017780131541847140000015327839517533705120_);}
</style>
<g id="Layer_2_00000049938589898215738310000017161844193830938518_">
	<g id="base">
		<rect class="st0" width="837.3" height="1537"/>
	</g>
	<g id="hat">
		<path class="st1" d="M520.2,201.1c-3.6,0.6-7.3,0.9-11,0.7c-6.6,3-13.8,4.5-21,4.6c-2.2,0-4.4-0.2-6.6-0.5
			c2.5,4.3,4.6,8.8,6.1,13.4l-3.2-1.7c1.5,8,2,16.2,1.7,24.3c-0.7,12.7-1.7,28.2-1.7,28.2h4.5c0,0,9.6-19.4,22.4-24.7
			c0,0,6.8-17.6,8.7-24.9V214c0,0,4.9,5.5,5.7,10.6c0,0,1.6-8.9-5.7-19.2L520.2,201.1z"/>
		
			<linearGradient id="SVGID_1_" gradientUnits="userSpaceOnUse" x1="441.425" y1="1330.4219" x2="441.425" y2="1420.0923" gradientTransform="matrix(1 0 0 -1 0 1538)">
			<stop  offset="1.000000e-02" style="stop-color:#231F20"/>
			<stop  offset="1" style="stop-color:#1A191A"/>
		</linearGradient>
		<path class="st2" d="M522.1,207.5c-11.3,0.3-22.7-0.4-33.9-2.1c0,0-18.8-22-63.8-29.8c-28.4-4.9-50.1,0.9-59.2,4.2
			c-3,1.1-4.6,1.9-4.6,1.9s0.2-1.1,0.4-2.9c0.2-1.4,0.4-3.2,0.7-5.3v-0.1c0.9-7.1,2.3-17,3.5-21.9c0-0.1,0.1-0.2,0.1-0.3
			c0,0,0-0.1,0-0.1c0-0.1,0.2-0.1,0.2-0.1c0.1-0.1,0.2-0.2,0.4-0.3c4.6-3.1,30.2-31,65.7-32.7h1c2.5-0.1,5-0.1,7.5,0
			c0.4,0,0.7,0.1,1.1,0.1l2,0.2c2.6,0.2,4.1,0.5,4.1,0.5c34.5,5.1,62.9,36.5,70.3,50c1.4,2.3,2.5,4.7,3.2,7.3
			C522.1,182.5,522.1,207.5,522.1,207.5z"/>
		<path class="st3" d="M490.8,200.9c-64.1-55.8-129-27.4-129-27.4v-0.1c-0.6-10.6,3.2-21,3.6-22.2c0,0,0-0.1,0-0.1
			c0-0.1,0.2-0.1,0.2-0.1c26.2-25,48.5-32.4,66-32.9h1c2.8,0,5.3,0,7.5,0c0.4,0,0.7,0.1,1.1,0.1l2,0.2c2.6,0.2,4.1,0.5,4.1,0.5
			c15.4,9.5,32.4,26.9,37.6,38.4C490.9,170.8,493,186,490.8,200.9z"/>
		
			<linearGradient id="SVGID_00000160879355659619905270000015190048705721024943_" gradientUnits="userSpaceOnUse" x1="401.96" y1="1324.48" x2="401.96" y2="1371.67" gradientTransform="matrix(1 0 0 -1 0 1538)">
			<stop  offset="1.000000e-02" style="stop-color:#231F20"/>
			<stop  offset="1" style="stop-color:#1A191A"/>
		</linearGradient>
		<path style="fill-rule:evenodd;clip-rule:evenodd;fill:url(#SVGID_00000160879355659619905270000015190048705721024943_);" d="
			M363,172.9c0,0-35.6,16.5-55.3,28c0,0,0,3.6,7.3,6.7c0,0,30.4-12.8,51.8-13c30.8-0.2,60.8,17.5,67.6,18.7s61.9-7,61.9-7
			S445.5,147,363,172.9z"/>
		
			<linearGradient id="SVGID_00000009576503156018821230000003913222471970040243_" gradientUnits="userSpaceOnUse" x1="307.59" y1="1337.0649" x2="496.22" y2="1337.0649" gradientTransform="matrix(1 0 0 -1 0 1538)">
			<stop  offset="0" style="stop-color:#000000"/>
			<stop  offset="1" style="stop-color:#000026"/>
		</linearGradient>
		<path style="fill-rule:evenodd;clip-rule:evenodd;fill:url(#SVGID_00000009576503156018821230000003913222471970040243_);" d="
			M496.2,206.4l-5.5-5.5l-49.3,5.5c0,0-28-20.4-71.4-20.4s-62.4,14.9-62.4,14.9c0.8,3.5,3.7,6.2,7.3,6.7c0,0,15.3-9.6,51.9-10.8
			s68.4,19.1,68.4,19.1L496.2,206.4z"/>
	</g>
</g>
</svg>
