<svg xmlns="http://www.w3.org/2000/svg" viewBox="0 0 837.97 1536.05"><defs><style>.cls-1{fill:none;}.cls-2{fill:#1d1f2d;}.cls-3{fill:#915d24;}.cls-4,.cls-6{fill:#5c3800;}.cls-4{opacity:0.4;}.cls-5{fill:#a06f37;}</style></defs><g id="Layer_2" data-name="Layer 2"><g id="base"><rect class="cls-1" x="0.32" width="837.33" height="1536.05"/></g><g id="hair13"><path class="cls-2" d="M520.24,201.07a51.54,51.54,0,0,1-11,.73,52.44,52.44,0,0,1-21,4.59,50.17,50.17,0,0,1-6.65-.46,68.37,68.37,0,0,1,6.09,13.45l-3.23-1.67a109.23,109.23,0,0,1,1.67,24.3c-.69,12.69-1.67,28.21-1.67,28.21h4.46s9.65-19.35,22.39-24.68c0,0,6.81-17.59,8.67-24.94V214s4.9,5.53,5.68,10.63c0,0,1.57-8.87-5.68-19.21Z"/><path class="cls-3" d="M320.57,213.79c-9.53-8.47-18.35-31.84,3.08-63.68,11.29-16.76,33.81-15.22,52.24-14.27s217.13,47,206.39,56.6c-3.33,3-20.4,22.28-63.73,20.6-13.67-.53-33.47,7.08-45.32,10.24C416.54,238.37,361.38,250.09,320.57,213.79Z"/><path class="cls-4" d="M337.3,223.75c-29.95-9-35.08-41.8-13.65-73.64,11.29-16.76,33.81-15.22,52.24-14.27C388.65,156.36,302.21,172.58,337.3,223.75Z"/><path class="cls-5" d="M352.89,172s17.63-86.47,35.4-96c23.84-12.8,32.6-2.24,52.88-1.39,28.28,1.19,40.79-6.79,61.62,4.83,8.76,4.89,28.65,92.94,18.63,98.65S367.69,194.34,352.89,172Z"/><path class="cls-6" d="M351.85,172,357,152.84s25.1,12.16,53.74,14.69,113.34-6.18,113.34-6.18l1.67,21.07S447.3,192.2,404.09,189C366.77,186.22,351.85,172,351.85,172Z"/><path class="cls-5" d="M315.17,207.9c13.64,19.09,37.41,66.15,177.92,3.21,16.23-7.27,47.5.2,68.06-7.37,26.62-9.81,43.31-31.4,26.83-39.2-31.53-14.92-101.32,13.62-172.38,55.92C358.3,254.56,315.17,207.9,315.17,207.9Z"/><path class="cls-4" d="M439.61,76.64s-24.46-3.79-19.42,2,38.16-1.87,43.2-2.93Z"/></g></g></svg>