<svg xmlns="http://www.w3.org/2000/svg" xmlns:xlink="http://www.w3.org/1999/xlink" viewBox="0 0 837.33 1537"><defs><style>.cls-1{fill:none;}.cls-2,.cls-4,.cls-5{fill-rule:evenodd;}.cls-2{fill:url(#linear-gradient);}.cls-3{fill:#6b828e;}.cls-4,.cls-6{fill:#1d292d;}.cls-5{fill:#415056;}</style><linearGradient id="linear-gradient" x1="439.09" y1="836.65" x2="426.83" y2="1155.39" gradientUnits="userSpaceOnUse"><stop offset="0.01" stop-color="#705029"/><stop offset="1" stop-color="#54320c"/></linearGradient></defs><g id="Layer_2" data-name="Layer 2"><g id="base"><rect class="cls-1" width="837.33" height="1537"/></g><g id="Legs_02"><path class="cls-2" d="M581.87,1341.65s-8,4.2-14.73,0c-14.79-9.23-46.76,19.73-46.76,19.73l-4.9-46.93s-17.15-60-17.15-82.45,11.42-76.76,11.86-80.83-28.61-58.39-34.73-80.83c-4.95-18.22-28.47-108.21-37.19-141.48-2-7.74-7.77-32-7.77-32l-28.92-7.73s9.07,39.78-5,89.56c-9.65,34-44.74,112.7-45,150,0,0,13.5,34.43,13.89,51.58.35,12.93-4.67,37-18.83,76.58-2.35,6.61-10.29,16.1-10.29,16.1a340.73,340.73,0,0,0-14,34c-4.92,14.28-18.36,48.27-21.06,49.55-.39.19-22.53-24-60.93-42.41l3.67-30.62s1.37-4.85,3.53-13.47c6.95-27.83,19.87-51.71,21.1-120,0,0-7.39-48.85-8.86-76.33-.29-6,2.31-45.48,2.6-49.79.93-13.37,6-46,13.28-80.83,5.87-27.82,13.22-57,21-78.82,17.59-49,37.23-114.83,37.23-114.83s149.76,7.89,179.54-4.35l5.93,20.18,3.09,10.43S540.37,867.83,559.57,925c0,.2.15.4.19.59,19,57.22,15.73,155.29,19.8,180.57s22,80.1,24.49,117.67c1.66,25.62-6.68,46.33-8.93,60.48a99,99,0,0,1-3.29,13.5Z"/><path class="cls-3" d="M337.3,761.36c-2.21.16-3.24-.32-5.54,0-.1,1.27-3.32,10.33-3.53,11.57,11.94,21.52-4.48,43.26.06,66.67l10.39-20.46c2.2,17.72.77,34.48,6.14,50.9,3.63-3.2,2.85-7.74,6.05-10.76,1.14,7.81,2.18,14.9,3.48,23.8,5.35-9.19,9.78-16.78,14.78-25.35,5.5,18.87.85,38.28,7.31,56.72l3.48-13.06c2.23,9.79,4.29,18.85,6.35,27.91h1.47c3.19-14.17,6.61-12.06,9.45-26.53-.32,9.76,4.21,14.07,3.31,23.61-1.11,11.82,1,18.65,1.89,30.61.57,7.43,1.32,14.87,4.32,23.21,1.35-4.42,2.16-7.42,3.17-10.33s2.21-5.71,3.33-8.56c-1.49,10.3-.19,20,3.31,31.19,5.94-11.11,12.4-20.28,15-32.66,5,6.79,7.14,14.1,8.73,23.42,6.1-19.18,11.11-36.92,13.22-56,4.19,4.8,3.86,10.94,6.9,16.25,4.21-12.45,5.07-24.72,5.73-38.26,4.72,8.48,6.47,16.59,9.39,24a1.78,1.78,0,0,0,1.67-1.88c.41-10.83,1.29-21.65-1.76-32.32-2.93-10.23-2.56-20.66-.78-32.55,2.84,8.71,2.29,17.41,9.21,23.49,3.06-15.43,7.29-29.74,7.65-44.84,0-1.51-.65-3.75,1.5-4.17,1.79-.34,2.84,1.52,3.42,2.91,1.5,3.69,2.65,7.55,4.41,12.72,5.27-18,7.08-34.87,6.78-53.27A93.52,93.52,0,0,1,516,815.6c3.25-6.82,3.72-13.47,4.16-20,.78-11.31.29-27.42-9.52-31.83-3.84-1.73-96.05-4.53-95.47.2Z"/><path class="cls-4" d="M333.88,749.32A760.81,760.81,0,0,1,513.42,745l5.93,20.18a465.16,465.16,0,0,1-190.82,1.77Q331.22,758.12,333.88,749.32Z"/><polygon class="cls-5" points="466.32 796.46 466.32 737.38 415.16 707.84 364 737.38 364 796.46 415.16 826 466.32 796.46"/><circle class="cls-6" cx="415.16" cy="724.32" r="7.31"/><circle class="cls-6" cx="451.16" cy="747.05" r="7.31"/><circle class="cls-6" cx="451.16" cy="787" r="7.31"/><circle class="cls-6" cx="415.16" cy="812.5" r="7.31"/><circle class="cls-6" cx="377.5" cy="787" r="7.31"/><circle class="cls-6" cx="377.5" cy="747.05" r="7.31"/><path class="cls-6" d="M415.16,796.45l-25.58-14.76V752.15l25.58-14.76,25.57,14.76v29.54Zm-19.58-18.23,19.58,11.3,19.57-11.3v-22.6l-19.57-11.31-19.58,11.31Z"/></g></g></svg>