<?xml version="1.0" encoding="utf-8"?>
<!-- Generator: Adobe Illustrator 26.0.0, SVG Export Plug-In . SVG Version: 6.00 Build 0)  -->
<svg version="1.1" id="Layer_1" xmlns="http://www.w3.org/2000/svg" xmlns:xlink="http://www.w3.org/1999/xlink" x="0px" y="0px"
	 viewBox="0 0 837.3 1537" style="enable-background:new 0 0 837.3 1537;" xml:space="preserve">
<style type="text/css">
	.st0{fill:none;}
	.st1{fill-rule:evenodd;clip-rule:evenodd;fill:url(#SVGID_1_);}
	.st2{fill-rule:evenodd;clip-rule:evenodd;fill:#260E0B;}
	.st3{fill:#6B828E;}
	.st4{fill-rule:evenodd;clip-rule:evenodd;fill:url(#SVGID_00000040542161096972321050000003741937311015870370_);}
	.st5{fill-rule:evenodd;clip-rule:evenodd;fill:url(#SVGID_00000124138744478294717600000015055009717979530891_);}
</style>
<g id="Layer_2_00000127764996675302941070000016708596771448321413_">
	<g id="base">
		<rect class="st0" width="837.3" height="1537"/>
	</g>
	<g id="feet_02">
		
			<linearGradient id="SVGID_1_" gradientUnits="userSpaceOnUse" x1="263.6705" y1="176.5295" x2="263.0005" y2="224.3178" gradientTransform="matrix(1 0 0 -1 0 1538)">
			<stop  offset="0" style="stop-color:#FFA486"/>
			<stop  offset="1" style="stop-color:#FFB886"/>
		</linearGradient>
		<path class="st1" d="M240.3,1314l-12.6,35.3c0,0,36.7,15.7,50.8,11.2s20.8-11.2,20.8-11.2S258.5,1316.1,240.3,1314z"/>
		<path class="st2" d="M317.2,1386.2c0.8,7.4,0.9,20.7,0.9,27.6c0,14.1-7.7,21.9-7.7,21.9s-60,0.8-85.9,4c-1.7,0.2-3.3,0.4-4.7,0.6
			c-22.4,3.7-41.1,7.9-57,8.9s-50.5-1.2-70.4-21.8c0.7-3.9,1.8-7.7,3.2-11.3c2.2-5.6,5.9-12.2,11.8-16.8c0,0,31.6-3.4,55.9-16.5
			c4-2.1,7.9-4.6,11.5-7.4c24.1-19.3,49.6-21.6,49.6-21.6s2.5-8.9,6.3-22.6c1.4-5.1-1-10.7-0.1-17.1c1.7-13.7,4.9-21.9,7.6-32.1
			c2.6-9.7-2.5-22.2,0.1-32.1c0.8-2.9-0.2-6.4,0.5-9.3c1.1-4.3,3.5-7.8,3.8-11.9c1.1-14.2,11.6-21.4,13.7-31.4c0,0,59.8,5.9,65.9,4
			s32.3,4.3,40,4.3l-4.6,43.1l-4.6,12.1c-0.2,1.7-3.5,8.2-4.3,9.6l-3.4,5.6c-0.7,1.8-1.4,3.7-1.9,5.6l-5.1,7.4
			c-0.4,1.2-0.5,2.5-0.5,3.8l0.2,5.9c0.1,2.4-0.5,4.7-1.8,6.8l-4.3,7.1c-0.6,0.9-1,1.9-1.3,3l-1.7,5.8c-0.4,1.2-0.5,2.5-0.5,3.8
			l0.3,8.4c0.1,2.6-0.7,5.2-2.1,7.3l-5.7,8.3C320.7,1349.4,314.8,1363.6,317.2,1386.2z"/>
		<path class="st2" d="M687.8,1435.4c0.7,14.9-5.7,23.9-5.7,23.9c-30.8,18.5-75.3,19-110.9,3.4v-0.1c-1.1-0.4-2.2-0.8-3.2-1.2
			c-7.2-2.8-12.2-5.4-24.5-11.3c-3-1.5-6.3-3.2-9.5-5c-12-6.8-24.1-15.1-24.1-15.1c-1-5.3-2-7.7-2.5-10.5c-0.4-3-0.5-5.9-0.3-8.9
			c0.9-18.8,11.6-33.9,11.6-33.9s-25.7-156.4-24.1-160.4c7.7-19,118.3-11,118.3-11c2.5,7.9-8.3,149.6-8.3,149.6l0,0.1
			c1.8,4.7,4,9.1,6.7,13.3h0c5.1,8.4,11,16.2,17.7,23.3c8,8.7,19.7,16.4,30.5,22.4c0,0,0.1,0,0.1,0c8.8,4.9,17.9,9.2,27.2,13
			C687.3,1429.8,687.6,1432.6,687.8,1435.4z"/>
		<path class="st3" d="M383.2,1221.8c-0.1-2.8-1.9-5.3-4.6-6.2c-2-0.5-1.8,2.6-2.5,4.1c-0.1,0.2-0.5,0.2-0.9,0.4l-0.7-0.9
			c-0.2-16-5.3-23-9.5-26.4c-14.3-11.8-36.1,3.2-70.2-3.7c-9.6-2-18.9-5.4-27.6-10.1c-9.6-0.6-16.9,4.8-21.5,11.6
			c-2.2,3.3-0.2,8.8-0.5,13.6c-5.1,5.4-7.5,12.4-10.2,19.4c3.2-1.2,5.2-4.1,9.1-4.8c-2.1,4.4-2.8,9.4-2,14.2
			c2.5-2.3,4.1-4.8,7.2-5.8c-0.1,4.8-0.5,9.3,0.9,14.1c2.5-2.9,2.9-6.9,6.3-8.5c1.3,3.1,2.5,6,3.8,8.9c0.9,2.1,2.2,2.5,4.1,0.8
			c2.1-1.9,4.5-3.6,7-5.6c0.6,2,0.4,4.1-0.6,5.9c-2,3.5-0.3,3.9,2.7,3.6c5.6-0.4,11.1-1.9,16.2-4.3c0.6,3.2-1.5,5.3-2.1,8.6
			c5.4-1.6,7.6-6.3,11.3-9.6c0.8,3.4,1,6.9,0.5,10.4c-0.2,1.3,0.2,2.7,1.5,1.6c1.3-1,2.8-1.7,4.4-2.1c2.1-0.8,3.9-2.2,5.2-4
			c0.8-1,1.6-2.9,3-2.4s1,2.5,0.8,3.7c-0.6,4.1,1.5,3.9,4,2.6s4.8-3,7.2-4.5c0.7,1.1,0.8,2.5,0.4,3.8c-0.6,3.3,0.9,3.2,3.1,2
			c2.6-1.5,5.1-3.4,7.3-5.5c2.1-2.1,3.6-4.8,6.7-6.7c0.4,2.3,0.8,4.1,1.1,6c0.2,1.2,0.5,1.7,1.8,1.6c6.1-0.4,12.8-5.9,14.7-12
			c1.6-0.3,3.2-0.8,4.7-1.6c1.2,0.3,2.2,1.1,2.1,2.2c-0.4,4,1.6,3.8,4.2,2.9C378.9,1236.7,383.7,1229.6,383.2,1221.8z"/>
		<path class="st3" d="M476.4,1230.2c0.1-2.8,1.9-5.3,4.6-6.2c2-0.5,1.8,2.6,2.5,4.1c0.1,0.2,0.4,0.2,0.9,0.4
			c0.2-0.3,0.5-0.6,0.7-0.9c0.2-15.9,5.3-22.9,9.5-26.4c14.3-11.8,36.1,3.2,70.2-3.8c9.7-2,19-5.4,27.6-10.2
			c9.6-0.6,16.9,4.8,21.5,11.6c2.2,3.3,0.2,8.8,0.5,13.6c5.1,5.4,7.5,12.4,10.2,19.4c-3.2-1.2-5.2-4.1-9.1-4.8
			c2.1,4.4,2.8,9.4,2,14.2c-2.5-2.3-4.1-4.8-7.2-5.8c0.2,4.8,0.5,9.3-0.9,14.1c-2.5-2.9-2.9-6.9-6.3-8.5c-1.3,3.1-2.5,6-3.8,8.9
			c-0.9,2.1-2.2,2.5-4.1,0.8c-2.2-1.9-4.5-3.6-7-5.6c-0.6,2-0.4,4.1,0.6,5.9c2,3.5,0.3,3.9-2.7,3.6c-5.6-0.4-11.1-1.9-16.2-4.3
			c-0.6,3.2,1.6,5.3,2.1,8.6c-5.4-1.6-7.6-6.3-11.3-9.6c-0.8,3.4-1,6.9-0.5,10.4c0.2,1.4-0.2,2.7-1.5,1.6c-1.3-1-2.8-1.7-4.4-2.1
			c-2.1-0.8-3.9-2.2-5.2-4c-0.8-1-1.6-2.9-3-2.4s-1,2.5-0.8,3.7c0.7,4.1-1.5,3.9-4,2.6s-4.8-3-7.2-4.5c-0.7,1.1-0.8,2.5-0.4,3.8
			c0.6,3.3-0.9,3.2-3.1,2c-2.6-1.5-5.1-3.4-7.3-5.5c-2.2-2-3.6-4.8-6.7-6.7c-0.4,2.3-0.8,4.1-1.1,6c-0.2,1.2-0.5,1.7-1.8,1.6
			c-6.1-0.3-12.8-5.9-14.7-12c-1.6-0.3-3.2-0.8-4.7-1.6c-1.2,0.3-2.2,1.1-2.1,2.2c0.4,4-1.6,3.8-4.2,2.9
			C480.7,1245,475.9,1237.9,476.4,1230.2z"/>
		
			<linearGradient id="SVGID_00000030471000757869224510000009139251043810545578_" gradientUnits="userSpaceOnUse" x1="229.22" y1="224.335" x2="337.8459" y2="224.335" gradientTransform="matrix(1 0 0 -1 0 1538)">
			<stop  offset="1.000000e-02" style="stop-color:#705029"/>
			<stop  offset="1" style="stop-color:#54320C"/>
		</linearGradient>
		<path style="fill-rule:evenodd;clip-rule:evenodd;fill:url(#SVGID_00000030471000757869224510000009139251043810545578_);" d="
			M282.1,1269.3c-3.2-2.3-5.9-4.3-8.2-5.6c-5.4-3.2-24.4-9-36-12.4c-0.5,3.4-0.6,6.9-0.2,10.4c12.9,3.8,27.5,8.5,31.1,10.6
			c1.9,1.1,4.6,3,7.4,5.1c7.8,5.6,17.4,12.6,26.1,14c4.1,0.7,11,3.6,17.6,6.7c-12.5,1.4-28.1,3.8-35,7.3c-6,3.1-11.8,4.2-16.9,5.1
			c-3.5,0.5-7,1.4-10.2,2.7l-26.8,12.2c0.2,1.9,0.1,3.8-0.4,5.7l-1.4,5.1c4.9,3.2,18.1,11.4,26.2,11.4c7.6,0,23.7,3.9,27.3,6.2
			l33.9,22.1c0-3.9,0.2-7.8,0.7-11.7l-29.1-18.8c-6-3.9-24.1-7.9-32.7-7.9c-2.9,0-8.8-2.7-14.2-5.8l20.7-9.4c2.6-0.9,5.2-1.6,7.9-2
			c5.5-1,12.4-2.3,19.7-6.1c7.7-4,33.6-6.7,45.8-7.6l0.7-1.2c1.2-2,1.9-4.4,1.8-6.8l-0.1-2.8c-6.5-3.5-24.3-12.8-33.8-14.4
			C297.6,1280.6,288.6,1274.1,282.1,1269.3z"/>
		
			<linearGradient id="SVGID_00000134246019957407707050000009914771540447974810_" gradientUnits="userSpaceOnUse" x1="503" y1="222.7422" x2="610.6899" y2="222.7422" gradientTransform="matrix(1 0 0 -1 0 1538)">
			<stop  offset="1.000000e-02" style="stop-color:#705029"/>
			<stop  offset="1" style="stop-color:#54320C"/>
		</linearGradient>
		<path style="fill-rule:evenodd;clip-rule:evenodd;fill:url(#SVGID_00000134246019957407707050000009914771540447974810_);" d="
			M552.3,1359.6c9.2,3.6,20.2,7.8,29,7.8c2.6,0.1,5.1-0.4,7.5-1.4c5.4-2.5,11-4.6,16.7-6.3c0.2-0.1,0.5-0.2,0.7-0.3
			c-0.7-1.5-1.4-3-1.9-4.5l0-0.1c0,0,0.1-1.8,0.4-5c-0.6-0.1-1.1,0-1.6,0.1c-6.2,1.8-12.3,4.1-18.2,6.8c-5.5,2.4-20.1-3.2-28.9-6.6
			c-6.2-2.4-9.9-3.8-12.5-4c-2.3-0.2-9.4-3.6-17-7.7l21.8-6.5c4-1.2,20.4-1.7,28.3-0.6c8.8,1.3,26-4.1,28-4.7c0.7-0.2,1.4-0.6,2-1.2
			c0.2-2.2,0.3-4.4,0.5-6.7c-0.5-0.6-1.1-1.1-1.8-1.4l-27.6-13.4c-3.1-1.4-6.3-2.5-9.6-3.2c-5.7-1.4-11.3-3.4-16.5-6.1
			c-5.2-2.8-16.1-5.8-26.5-8.3c3.5-0.6,7.1-0.9,10.7-0.9c8.4,0.2,18.6-3.3,26.8-6.1c3.2-1.1,5.9-2,7.9-2.5
			c4.8-1.2,25.1-2.7,39.8-3.6c0.2-3.4,0.4-6.7,0.6-10c-9.2,0.5-36.1,2.2-42.9,4c-2.4,0.6-5.3,1.6-8.7,2.8
			c-7.4,2.6-16.7,5.8-23.3,5.6H535c-8.7,0-24.5,3.2-32,4.9l1.9,11.9c12.9,2.7,35,7.7,41.8,11.3c5.9,3,12.1,5.3,18.6,6.9
			c2.7,0.7,5.4,1.5,7.9,2.6l15.4,7.5c-4.2,0.8-8.3,1.4-10.6,1c-8.3-1.2-26.5-0.9-32.5,0.9l-33.1,9.8c-0.3,0.1-0.7,0.3-1,0.4
			c0.5,3.3,1.1,6.6,1.6,9.6c6.9,4.1,23,13.2,29.6,13.8C543.9,1356.3,548.6,1358.1,552.3,1359.6z"/>
	</g>
</g>
</svg>
