<svg xmlns="http://www.w3.org/2000/svg" xmlns:xlink="http://www.w3.org/1999/xlink" viewBox="0 0 837.33 1537"><defs><style>.cls-1{isolation:isolate;}.cls-2{fill:none;}.cls-10,.cls-3,.cls-4,.cls-8,.cls-9{fill-rule:evenodd;}.cls-3,.cls-4,.cls-5{mix-blend-mode:multiply;opacity:0.18;}.cls-3{fill:url(#Áåçûìÿííûé_ãðàäèåíò_204);}.cls-4{fill:url(#Áåçûìÿííûé_ãðàäèåíò_204-2);}.cls-5{fill:url(#Áåçûìÿííûé_ãðàäèåíò_204-3);}.cls-6{fill:url(#linear-gradient);}.cls-10,.cls-7{fill:#666;opacity:0.6;}.cls-8{fill:url(#linear-gradient-2);}.cls-9{fill:url(#linear-gradient-3);}</style><linearGradient id="Áåçûìÿííûé_ãðàäèåíò_204" x1="579.54" y1="1461.19" x2="579.54" y2="1383.7" gradientUnits="userSpaceOnUse"><stop offset="0.01" stop-color="#d195ab"/><stop offset="0.99" stop-color="#985e40"/></linearGradient><linearGradient id="Áåçûìÿííûé_ãðàäèåíò_204-2" x1="553.38" y1="1399" x2="553.38" y2="1284.3" xlink:href="#Áåçûìÿííûé_ãðàäèåíò_204"/><linearGradient id="Áåçûìÿííûé_ãðàäèåíò_204-3" x1="169.43" y1="1361.78" x2="325.17" y2="1361.78" xlink:href="#Áåçûìÿííûé_ãðàäèåíò_204"/><linearGradient id="linear-gradient" x1="164.43" y1="1363.78" x2="324.17" y2="1363.78" gradientUnits="userSpaceOnUse"><stop offset="0" stop-color="#a1a1a1"/><stop offset="1" stop-color="#a1a1a1"/></linearGradient><linearGradient id="linear-gradient-2" x1="581.54" y1="1464.88" x2="581.54" y2="1384.7" xlink:href="#linear-gradient"/><linearGradient id="linear-gradient-3" x1="553.22" y1="1401.21" x2="553.22" y2="1287.3" xlink:href="#linear-gradient"/></defs><g class="cls-1"><g id="Layer_2" data-name="Layer 2"><g id="base"><rect class="cls-2" width="837.33" height="1537"/></g><g id="feet_04"><path class="cls-3" d="M632.75,1411c-12.81-9.68-29-22.7-36.47-25.72-1.16-.47-2.31-1-3.44-1.56H569.71l-2.82.48c-1.48.52-35.22,12.83-45.69,53.57,2.7,1.73,6.13,3.77,10.6,6.3a5.53,5.53,0,0,0,.88.36l4.22.88a64.09,64.09,0,0,1,14.51-29.69c-3,11.39-2.75,25.22-2.33,32.65,7.33,1.5,15,3,18.92,3.69,1.49-2.63,2.91-5.65,4.41-8.94a104,104,0,0,0,.3,10.42c3.11,1.66,7.64,4.67,13,7.77l4.9-.82c-2.16-13-1.55-30.08,2.78-33.65,6.74-5.55,32.93-10.45,44.45-11.92Z"/><path class="cls-4" d="M576.59,1366.9c.8-2.33,1.95-8.29,1.95-8.29l-18.72-4.32c5.32-1.1,10.35-2.15,14.44-3l6.49-1.38c.57-3.66.74-6,.74-6s1.08-4.6,2.65-11.37c-.86-.24-1.81-.46-2.89-.69-1.79-.4-4.34-.95-7.4-1.59l-4.88-1,16.44-2.14c1-4.26,2.08-9,3.18-13.79v-1.07L574,1307.89c7-1.56,12.93-3,16.67-3.84.73-3.22,1.44-6.35,2.09-9.25l2.32-10.5c-28.59,7-67.18,16.16-76.68,16.16h-.33l-6.48-.12,2.69,6.86c.75,2.69,1.2,4.25,1.2,4.25l.62,6,.55,0,5.44.72-5.53.72-.08,2.12,1.57,15.06,23,4.75-22,4.53,1.82,17.44,25,5.77-25.21,11.73c-1.94,4.41-4.15,11-7,18.73h1S577.26,1368.07,576.59,1366.9Z"/><path class="cls-5" d="M246.32,1276.52c-.84,3.2-1.33,4.92-1.33,4.92l-2,12.81,23.1,6.13-24.27,1.39L239,1320.22l6.22,1.14-6.45.38-2.92,18.73,8.56,1.61-8.94.88-2.78,17.88L284.48,1379l-30.8,37.92-20.55-55.71-.54,0,3.84,1.06s-7.07,1.45-17.91,4.69l-2.13,21.53-4.73-19.86c-5.36,1.88-11.44,4.29-18.07,7.37l.19,21.39-6.69-18.69-4.36,2.35c-5.26,3.06-10.56,7.1-13,8.39l-.33.18v56.51a9.1,9.1,0,0,0,0,.91c5.64-.4,11.55,0,17.9-1l.06-17.79,6.19,16.69c9.39-1.63,32.92-5.48,34.26-5.64l4.28-31.61,8.49,30.44c6.92-.6,11.67-.8,18.75-1.19l38.6-50.22c-2-5.61-4.78-10.39-5.09-11.72,1.3-2,4.64-6.3,4.64-6.3L274,1357.25l30.1-3c1.15-2.51,3.06-7.23,5.35-13l.23-5.23-1.61-.3,3.62-.21c2.31-6,4.83-12.58,7.22-18.91l-5.1-.93,5.58-.32c2-5.23,3.85-10.22,5.42-14.43l.36-3.49L246.7,1276.6Z"/><path class="cls-6" d="M245.32,1278.52c-.84,3.2-1.33,4.92-1.33,4.92l-2,12.81,23.1,6.13-24.27,1.39L238,1322.22l6.22,1.14-6.45.38-2.92,18.73,8.56,1.61-8.94.88-2.78,17.88L279.48,1381l-30.8,37.92-16.55-55.71-.54,0-.16,1.06a106.61,106.61,0,0,0-17.3,3.94l-2.74,22.28-4.73-19.86c-5.36,1.88-11.44,4.29-18.07,7.37l.19,21.39-7.08-16.5-3.4.7c-5.26,3.06-11.13,6.56-13.54,7.85l-.33.18v56.51a9.1,9.1,0,0,0,0,.91c5.64-.4,11.6-1.19,18-2.21v-16.61l6.65,15.5c9.38-1.64,19.56-3.6,30.66-5.42,1.1-.2,2.37-.37,3.72-.52l3.7-30.12,8.57,28.85c6.92-.6,14.31-1.09,21.39-1.48L298,1386.69c-2-5.61-3.68-9.75-3.68-9.75s-.11-.8-.42-2.13c1.3-2,2.53-4,3.65-6.14l0-.14L273,1359.25l30.1-3c1.15-2.51,3.06-7.23,5.35-13l.23-5.23-1.61-.3,3.62-.21c2.31-6,4.83-12.58,7.22-18.91l-5.1-.93,5.58-.32c2-5.23,3.85-10.22,5.42-14.43l.36-3.49L245.7,1278.6Z"/><polygon class="cls-7" points="181.7 1382.89 195.59 1444.56 202.26 1443.88 181.7 1382.89"/><polygon class="cls-7" points="217.7 1415.83 205.91 1370.57 199.78 1373.24 217.7 1415.83"/><polygon class="cls-7" points="280.52 1339.33 234.1 1345.02 233.31 1352.16 280.52 1339.33"/><polygon class="cls-7" points="263.88 1323.88 313.58 1329.97 311.09 1336.71 263.88 1323.88"/><path class="cls-8" d="M634.75,1412c-12.81-9.68-29-22.7-36.47-25.72-1.16-.47-2.31-1-3.44-1.56H571.71l-2.82.48c-1.48.52-35.22,12.83-45.69,53.57,2.7,1.73,6.13,3.77,10.6,6.3a5.53,5.53,0,0,0,.88.36l4.22.88a64.09,64.09,0,0,1,14.51-29.69c-3,11.39-2.75,25.22-2.33,32.65,7.33,1.5,15,3,18.92,3.69,1.49-2.63,2.91-5.65,4.41-8.94a104,104,0,0,0,.3,10.42c3.11,1.66,7.64,4.67,13,7.77l4.91,2.69c-2.16-13.05-1.56-33.59,2.77-37.16,6.74-5.55,32.93-10.45,44.45-11.92Z"/><path class="cls-9" d="M578.38,1373.34c-1-.92-1.65-1.49-1.65-1.49a12.45,12.45,0,0,0-.92-1.95c.79-2.33,1.45-4.61,2-6.8l-.08-1.49-18.5-4.32c5.26-1.1,10.23-2.15,14.27-3l6.41-1.38c.57-3.66.74-6,.74-6s1.06-4.6,2.61-11.37c-.85-.24-1.79-.46-2.85-.69-1.77-.4-4.29-.95-7.32-1.59l-4.82-1,16.24-2.14c1-4.26,2.06-9,3.15-13.79l.92-4.07-15.3-1.33c6.89-1.56,12.78-3,16.47-3.84.73-3.22,1.43-6.35,2.07-9.25l2.29-10.5c-28.25,7-66.37,16.16-75.75,16.16H518l-5.73-.56,2,7.3c.75,2.69,1.19,4.25,1.19,4.25l.61,6,.55,0,5.37.72-5.47.72-.07,2.12,1.55,15.06,22.74,4.75L519,1348.33l1.81,17.44,24.72,5.77-24.8,8.73c-1.92,4.41-5.56,13-8.4,20.65l.11.29,69.92-24.61Z"/><path class="cls-10" d="M575.65,1438.13c3.33-6.68,25.45-35,51.64-31.84l-7.33-5.08S584.33,1413.73,575.65,1438.13Z"/><path class="cls-10" d="M551.08,1449.25s-5-52.83,33.92-53.54c0,0-19.35.81-25,27.42-2.06,9.68-1.14,27.68-1.14,27.68Z"/><polygon class="cls-10" points="520.79 1365.77 573.18 1352.16 520.38 1361.78 520.79 1365.77"/><polygon class="cls-10" points="584.52 1330.08 535.54 1336.71 586.15 1322.96 584.52 1330.08"/></g></g></g></svg>