<svg xmlns="http://www.w3.org/2000/svg" xmlns:xlink="http://www.w3.org/1999/xlink" viewBox="0 0 837.97 1536.05"><defs><style>.cls-1{fill:none;}.cls-2,.cls-6{fill:#1c1c1c;}.cls-2,.cls-3,.cls-4,.cls-5{fill-rule:evenodd;}.cls-3{fill:url(#linear-gradient);}.cls-4{fill:#3a3a3a;}.cls-5{fill:url(#linear-gradient-2);}</style><linearGradient id="linear-gradient" x1="231.26" y1="483.65" x2="256.84" y2="483.65" gradientUnits="userSpaceOnUse"><stop offset="0" stop-color="#8fa0a1"/><stop offset="1" stop-color="#94a0a1"/></linearGradient><linearGradient id="linear-gradient-2" x1="165.45" y1="687.22" x2="275.22" y2="687.22" gradientTransform="translate(524.11 31.71) rotate(41.78)" xlink:href="#linear-gradient"/></defs><g id="Layer_2" data-name="Layer 2"><g id="base"><rect class="cls-1" x="0.32" width="837.33" height="1536.05"/></g><g id="R_arm_06"><polygon class="cls-2" points="254.5 527.66 264.74 447.9 256.99 412.46 241.1 458.64 236.63 531.63 241.1 553.98 253.02 540.08 254.5 527.66"/><polygon class="cls-3" points="256.84 412.75 241.1 458.64 236.63 531.63 241.42 554.54 231.26 531.47 236.35 457.69 256.84 412.75"/><path class="cls-4" d="M317.08,644.54a234.51,234.51,0,0,0-8.7,23.8s-11.7,29.08-48.64,16.62-27.16-56.34-27.16-56.34l7.74-19.4c0-.05,10-19,7.61-28.88-4.9-20.8-8.45-46.31-7.61-58.5s8.92-27.5,11-33.47c-1.06-29.38,10.09-36.69,10.09-36.69,70.9-59,93.8,51.17,93.8,51.17S355.18,559.77,317.08,644.54Z"/><path class="cls-4" d="M215.15,729.49c-17-13.58-39.53,2.88-40.06,3.16,0,0-17.51-8.88-27.48-9.55s-28.56,15.71-28.56,15.71v0c-.49.39-23.5,18.91-36.78,26.06,0,0,6.07,10.2,22.21,12.46s28.41-19.87,28.41-19.87l0-.07,0,.06,7.65,8.36c-13.49,5.89-20.6,8.15-35.72,17.28-7.21,4.36-14,8.78-20.28,13.18,0,0-1.08,3.16-.09,8.93s11,12.55,11,12.55l7.28,1.51s-2.16,1,.33,5.57,16.55,14.56,16.55,14.56a37.13,37.13,0,0,0,7.06,7.32c5,4,8.44,4.28,14.18,9.33s8.47,6.6,12,7.25c.88.19,3.46-1.33,7.31-4.53,12-10,28.34-31,48.29-73.92,5.71-7.53,4.43-6.2,10.1-12.82C217.85,768,232.14,743.07,215.15,729.49Z"/><path class="cls-4" d="M119.64,839.42s20.19-11.84,29.52-19.67c0,0-15.14,17.21-26.3,23.44C122.86,843.19,120.71,842.62,119.64,839.42Z"/><path class="cls-4" d="M137,853.08s10.21-4.3,22-15.94c0,0-13.89,16.7-18.09,18.92Z"/><path class="cls-4" d="M103.09,824.85s27.85-15.21,38.52-26.55c1.77-1.88,11.37,5.86,11.37,5.86,2,2.32,5.38,7.42,3,9.32-7.92,6.32-22.2,24-35.54,26.64"/><path class="cls-4" d="M123.58,842.87s16.24-11.75,26.91-23.09c1.76-1.87,11.37,5.87,11.37,5.87a6.8,6.8,0,0,1-.11,8.5c-8.06,9.16-16.23,13.86-23.78,19.39"/><path class="cls-4" d="M140.14,855.83a178,178,0,0,0,22.67-20c1.76-1.88,7.91,2.83,7.91,2.83,2,2.32,3.86,8.08,1.84,10.37-8.06,9.17-10.49,11.89-18,17.42"/><path class="cls-4" d="M102.77,819.27s19.06-9.57,29-16.72c0,0-16.2,17.83-28.7,22.31A4.52,4.52,0,0,1,102.77,819.27Z"/><path class="cls-4" d="M100.56,785.74s1.15,5,14.73,2.15c0,0-4.1,5.16-17.69,6C97.6,793.93,92.47,790.93,100.56,785.74Z"/><path class="cls-4" d="M95.07,789.23S109.6,793,120.52,785a4.86,4.86,0,0,1,6.62.67l5.71,7.59c2,2.32,2.83,7.19.15,8.65-8.79,4.8-18.52,12.56-30.23,17.4l-7.29-1.5s-15.62-7.72-10.92-21.48"/><path class="cls-4" d="M236.26,617.61S213.17,636.45,208,649.8c-2,5.2-5.42,17.74-9.53,31.61-6.58,21.87-15.1,47-23.33,51.24,0,0-10.1,26.45,1.68,37.62,17.54,16.63,37.5,6.89,41.76,1.77,33.68-40.42,68.8-68.67,83.69-92.12A59.18,59.18,0,0,0,309,665.67S322.83,602,236.26,617.61Z"/><path class="cls-5" d="M172.17,718.84s19.68,10.89,32.89,23.2a105.22,105.22,0,0,1,20.06,25.59,468.61,468.61,0,0,0,44.72-40.1C283,714.11,299,697.66,308.68,685.36c-2.53-3.93-9-10.77-13.74-17.17-6.46-8.76-16.85-14.55-24.52-21.4-15.34-13.71-49.31-27.54-49.31-27.54Z"/><path class="cls-1" d="M270,489.37a54.57,54.57,0,0,0,15.43-1.61A31.34,31.34,0,0,0,297,482a9.7,9.7,0,0,1-.14,2.27,33.72,33.72,0,0,1,2.55,2.39,36.41,36.41,0,0,1-13.26,4.69,57.36,57.36,0,0,1-16.35-.14,98.08,98.08,0,0,1-15.65-3.66A98.28,98.28,0,0,0,270,489.37Zm1.15,11.11A56.27,56.27,0,0,0,287,498.86a31.13,31.13,0,0,0,13.28-7.11,27.29,27.29,0,0,0,1.89-2,45.44,45.44,0,0,1,3.29,4.86c-.53.45-1.06.88-1.61,1.3a35.92,35.92,0,0,1-16.07,6.48,59.5,59.5,0,0,1-16.81-.11,103,103,0,0,1-16.09-3.74A100.64,100.64,0,0,0,271.11,500.48Zm1.15,11.12A57.91,57.91,0,0,0,288.58,510a32.13,32.13,0,0,0,13.69-7.29,25.09,25.09,0,0,0,4.51-5.63,61.18,61.18,0,0,1,2.85,6.42,31.05,31.05,0,0,1-3.8,3.37,36.68,36.68,0,0,1-16.47,6.67,60.76,60.76,0,0,1-17.25-.09,104.66,104.66,0,0,1-16.53-3.82A103.78,103.78,0,0,0,272.26,511.6Zm1.14,11.11a59.58,59.58,0,0,0,16.77-1.66,33.06,33.06,0,0,0,14.09-7.48,24.4,24.4,0,0,0,6-8.42,76.12,76.12,0,0,1,2.36,8.16,33.28,33.28,0,0,1-4.78,4.42A37.82,37.82,0,0,1,291,524.59a62,62,0,0,1-17.69-.08,106.58,106.58,0,0,1-17-3.89A106.9,106.9,0,0,0,273.4,522.71Zm1.15,11.12a60.92,60.92,0,0,0,17.22-1.69,33.88,33.88,0,0,0,14.48-7.66,26.5,26.5,0,0,0,4.94-6.17,24,24,0,0,0,1.69-3.5s0-.09,0-.14a91.63,91.63,0,0,1,1.56,9.68,33.16,33.16,0,0,1-4.66,4.29,38.75,38.75,0,0,1-17.27,7,63.71,63.71,0,0,1-18.14,0,110,110,0,0,1-17.42-4A110.29,110.29,0,0,0,274.55,533.83Zm1.15,11.11a62.59,62.59,0,0,0,17.66-1.71,34.78,34.78,0,0,0,14.89-7.84,27.19,27.19,0,0,0,5.08-6.33,24.06,24.06,0,0,0,1.34-2.69,103.39,103.39,0,0,1,.4,10.37,36.07,36.07,0,0,1-3.26,2.81,39.57,39.57,0,0,1-17.67,7.23,65.33,65.33,0,0,1-18.58,0,111.94,111.94,0,0,1-17.86-4A111.14,111.14,0,0,0,275.7,544.94Zm1.15,11.11a64.18,64.18,0,0,0,18.1-1.72,35.88,35.88,0,0,0,15.29-8,28.64,28.64,0,0,0,4.69-5.64,90.21,90.21,0,0,1-1.07,9.76l-.05,0a40.58,40.58,0,0,1-18.08,7.41,67.4,67.4,0,0,1-19,0,115.36,115.36,0,0,1-18.29-4.13A114.23,114.23,0,0,0,276.85,556.05Zm-17.73,8.72a117.49,117.49,0,0,0,18.88,2.4,65.89,65.89,0,0,0,18.55-1.75,36.59,36.59,0,0,0,15.68-8.21l.21-.21a46.28,46.28,0,0,1-3,8.23A45.24,45.24,0,0,1,297.33,569a68.35,68.35,0,0,1-19.48,0A118.38,118.38,0,0,1,259.12,564.77Zm20,13.51a67.22,67.22,0,0,0,19-1.76,42.76,42.76,0,0,0,9.87-3.94,38.94,38.94,0,0,0,3.2,3.7,46.72,46.72,0,0,1-12.29,3.78,70.34,70.34,0,0,1-19.92,0,121.79,121.79,0,0,1-19.18-4.28A120.87,120.87,0,0,0,279.14,578.28ZM280,589.8a71,71,0,0,0,19.79-1.56,40.23,40.23,0,0,0,15.94-7.56c1.38,1.31,2.74,2.59,4,3.76a44.65,44.65,0,0,1-19.18,7.36,74.1,74.1,0,0,1-20.67-.2,128.49,128.49,0,0,1-19.9-4.56A128,128,0,0,0,280,589.8Zm.81,11.52A75.15,75.15,0,0,0,301.34,600c6.61-1.5,12.9-4.18,17.81-8.39a34.23,34.23,0,0,0,3.76-3.76,7.62,7.62,0,0,1,.91,1.26c.74,1.38,1.4,2.77,2,4.16a41.18,41.18,0,0,1-3.29,2.63A46,46,0,0,1,302,603.53a78,78,0,0,1-21.43-.41A137,137,0,0,1,260,598.27,136.4,136.4,0,0,0,280.76,601.32Zm.81,11.51a79,79,0,0,0,21.37-1.15c6.89-1.45,13.48-4.11,18.67-8.39a33.14,33.14,0,0,0,5.82-6.14A64.59,64.59,0,0,1,329.5,604a41.83,41.83,0,0,1-4.57,3.63c-6.42,4.43-13.95,6.68-21.37,7.62a81.91,81.91,0,0,1-22.19-.63A144.5,144.5,0,0,1,260,609.5,143.85,143.85,0,0,0,281.57,612.83Z"/><path class="cls-6" d="M324.06,615c-5.47,4.35-12.36,7-19.52,8.39a83.64,83.64,0,0,1-22.16,1,151.08,151.08,0,0,1-22.27-3.62,150.15,150.15,0,0,0,22.06,5.41,85.86,85.86,0,0,0,22.95.84c7.68-.88,15.48-3.09,22.19-7.56.15-.1.28-.21.43-.3,1.05-2.71,2.06-5.37,3-8-.1-.88-.22-1.76-.37-2.64A33.77,33.77,0,0,1,324.06,615Z"/><path class="cls-6" d="M303.56,615.26c7.42-.94,14.95-3.19,21.37-7.62A41.83,41.83,0,0,0,329.5,604a64.59,64.59,0,0,0-2.07-6.86,33.14,33.14,0,0,1-5.82,6.14c-5.19,4.28-11.78,6.94-18.67,8.39a79,79,0,0,1-21.37,1.15A143.85,143.85,0,0,1,260,609.5a144.5,144.5,0,0,0,21.34,5.13A81.91,81.91,0,0,0,303.56,615.26Z"/><path class="cls-6" d="M302,603.53a46,46,0,0,0,20.54-7.67,41.18,41.18,0,0,0,3.29-2.63c-.62-1.39-1.28-2.78-2-4.16a7.62,7.62,0,0,0-.91-1.26,34.23,34.23,0,0,1-3.76,3.76c-4.91,4.21-11.2,6.89-17.81,8.39a75.15,75.15,0,0,1-20.58,1.36,136.4,136.4,0,0,1-20.8-3.05,137,137,0,0,0,20.62,4.85A78,78,0,0,0,302,603.53Z"/><path class="cls-6" d="M300.46,591.8a44.65,44.65,0,0,0,19.18-7.36c-1.22-1.17-2.58-2.45-4-3.76a40.23,40.23,0,0,1-15.94,7.56A71,71,0,0,1,280,589.8,128,128,0,0,1,259.89,587a128.49,128.49,0,0,0,19.9,4.56A74.1,74.1,0,0,0,300.46,591.8Z"/><path class="cls-6" d="M298.92,580.06a46.72,46.72,0,0,0,12.29-3.78,38.94,38.94,0,0,1-3.2-3.7,42.76,42.76,0,0,1-9.87,3.94,67.22,67.22,0,0,1-19,1.76,120.87,120.87,0,0,1-19.32-2.47A121.79,121.79,0,0,0,279,580.09,70.34,70.34,0,0,0,298.92,580.06Z"/><path class="cls-6" d="M297.33,569a45.24,45.24,0,0,0,12.11-3.73,46.28,46.28,0,0,0,3-8.23l-.21.21a36.59,36.59,0,0,1-15.68,8.21A65.89,65.89,0,0,1,278,567.17a117.49,117.49,0,0,1-18.88-2.4,118.38,118.38,0,0,0,18.73,4.2A68.35,68.35,0,0,0,297.33,569Z"/><path class="cls-6" d="M295.73,557.87a40.58,40.58,0,0,0,18.08-7.41l.05,0a90.21,90.21,0,0,0,1.07-9.76,28.64,28.64,0,0,1-4.69,5.64,35.88,35.88,0,0,1-15.29,8,64.18,64.18,0,0,1-18.1,1.72,114.23,114.23,0,0,1-18.44-2.32,115.36,115.36,0,0,0,18.29,4.13A67.4,67.4,0,0,0,295.73,557.87Z"/><path class="cls-6" d="M294.14,546.78a39.57,39.57,0,0,0,17.67-7.23,36.07,36.07,0,0,0,3.26-2.81,103.39,103.39,0,0,0-.4-10.37,24.06,24.06,0,0,1-1.34,2.69,27.19,27.19,0,0,1-5.08,6.33,34.78,34.78,0,0,1-14.89,7.84,62.59,62.59,0,0,1-17.66,1.71,111.14,111.14,0,0,1-18-2.25,111.94,111.94,0,0,0,17.86,4A65.33,65.33,0,0,0,294.14,546.78Z"/><path class="cls-6" d="M292.55,535.68a38.75,38.75,0,0,0,17.27-7,33.16,33.16,0,0,0,4.66-4.29,91.63,91.63,0,0,0-1.56-9.68c0,.05,0,.09,0,.14a24,24,0,0,1-1.69,3.5,26.5,26.5,0,0,1-4.94,6.17,33.88,33.88,0,0,1-14.48,7.66,60.92,60.92,0,0,1-17.22,1.69A110.29,110.29,0,0,1,257,531.66a110,110,0,0,0,17.42,4A63.71,63.71,0,0,0,292.55,535.68Z"/><path class="cls-6" d="M291,524.59a37.82,37.82,0,0,0,16.88-6.86,33.28,33.28,0,0,0,4.78-4.42,76.12,76.12,0,0,0-2.36-8.16,24.4,24.4,0,0,1-6,8.42,33.06,33.06,0,0,1-14.09,7.48,59.58,59.58,0,0,1-16.77,1.66,106.9,106.9,0,0,1-17.11-2.09,106.58,106.58,0,0,0,17,3.89A62,62,0,0,0,291,524.59Z"/><path class="cls-6" d="M289.36,513.49a36.68,36.68,0,0,0,16.47-6.67,31.05,31.05,0,0,0,3.8-3.37,61.18,61.18,0,0,0-2.85-6.42,25.09,25.09,0,0,1-4.51,5.63A32.13,32.13,0,0,1,288.58,510a57.91,57.91,0,0,1-16.32,1.65,103.78,103.78,0,0,1-16.68-2,104.66,104.66,0,0,0,16.53,3.82A60.76,60.76,0,0,0,289.36,513.49Z"/><path class="cls-6" d="M287.77,502.4a35.92,35.92,0,0,0,16.07-6.48c.55-.42,1.08-.85,1.61-1.3a45.44,45.44,0,0,0-3.29-4.86,27.29,27.29,0,0,1-1.89,2A31.13,31.13,0,0,1,287,498.86a56.27,56.27,0,0,1-15.88,1.62,100.64,100.64,0,0,1-16.24-1.93A103,103,0,0,0,271,502.29,59.5,59.5,0,0,0,287.77,502.4Z"/><path class="cls-6" d="M286.17,491.31a36.41,36.41,0,0,0,13.26-4.69,33.72,33.72,0,0,0-2.55-2.39A9.7,9.7,0,0,0,297,482a31.34,31.34,0,0,1-11.63,5.8A54.57,54.57,0,0,1,270,489.37a98.28,98.28,0,0,1-15.79-1.86,98.08,98.08,0,0,0,15.65,3.66A57.36,57.36,0,0,0,286.17,491.31Z"/></g></g></svg>