<svg xmlns="http://www.w3.org/2000/svg" viewBox="0 0 837.33 1537"><defs><style>.cls-1{fill:none;}.cls-2{opacity:0.58;}.cls-3{fill:#897a6e;}.cls-4{fill:#4d4d4d;}.cls-5{fill:#fff;}</style></defs><g id="Layer_2" data-name="Layer 2"><g id="base"><path class="cls-1" d="M0,0V1537H837.33V0Z"/></g><g id="R_arm_06"><g class="cls-2"><path class="cls-3" d="M233.47,745.34h0a10.42,10.42,0,0,0,.61-1.14,2,2,0,0,0,.1-.21c.05-.11.11-.22.15-.33l0,0a8.12,8.12,0,0,0-1.21-8.37l-9.21-10.65a8.37,8.37,0,0,0-9.9-1.82l-2.12,1.83-1.31-.6h0a9.31,9.31,0,0,0,.08-1.29v-.23c0-.12,0-.24,0-.36h0a8.1,8.1,0,0,0-4.59-7.1l-12.81-5.84a7.51,7.51,0,0,0-3.83-.64,120.84,120.84,0,0,1-6.67,14.87,7.56,7.56,0,0,0,2.93,2.39l12.81,5.84a8.38,8.38,0,0,0,9.76-2.49l.29.13a8,8,0,0,0,1.57,7.26l9,10.39a8.53,8.53,0,0,0-9.07.67l-1.36-1.09.76-1.51h0a10.32,10.32,0,0,0,.15-1.35h0a8.21,8.21,0,0,0-4.3-7.83l-12.56-6.37a8.39,8.39,0,0,0-9.85,2.07l-4.1-2.08a15.75,15.75,0,0,1-2.37,2.34c-.76.48-1.21.8-1.28.84s-2-1-5.11-2.42a2.43,2.43,0,0,0,1.27,1.77l1.83.93L174.8,737h0l-.27.24-.33.31c-.09.08-.17.17-.26.26s-.21.22-.31.34-.12.12-.17.19h0a8.15,8.15,0,0,0-1.44,8.35l5.46,13a8.13,8.13,0,0,0,7,4.81l.24,1.25h0a3.14,3.14,0,0,0-.31.18,3.64,3.64,0,0,0-.39.23l-.31.2-.37.27-.21.15h0a8.13,8.13,0,0,0-3.11,7.87l2.67,13.83a8.41,8.41,0,0,0,7.68,6.51l2.17-.42.23.39h0l-.23.27c-.1.12-.2.23-.29.35l-.22.29c-.09.13-.18.25-.26.38l-.15.21h0c-.15.24-.3.49-.43.75l-.84-.67a8.11,8.11,0,0,0-8.48-.84l-.82-1h0a9.66,9.66,0,0,0,.64-1.13l.1-.2.16-.33,0,0a8.09,8.09,0,0,0-1-8.39l-9-10.86a8.39,8.39,0,0,0-9.87-2l-1.7,1.4-.39-.23h0a9.56,9.56,0,0,0,.23-1.28l0-.23c0-.12,0-.24,0-.36h0a8.13,8.13,0,0,0-3.77-7.56l-12.1-7.23a8.39,8.39,0,0,0-10,1.39l-.54.91,4.23,4.62,1.47-2.45a3,3,0,0,1,1.92.37l12.09,7.23a2.91,2.91,0,0,1,1.24,1.51l-1.62-1a2.37,2.37,0,0,0-2-.21,3,3,0,0,0-1.67,1.33,2.7,2.7,0,0,0,.74,3.73l1.62,1a3,3,0,0,1-1.93-.37L138,767.13l-.16-.12-5.36,2.28a7.5,7.5,0,0,0,2.63,2.68l12.09,7.22a8.27,8.27,0,0,0,9.3-.82,7.91,7.91,0,0,0,1.46,7.08l9,10.86a8,8,0,0,0,.82.83l-2.7-2.42a8.39,8.39,0,0,0-10.05-.53L153.67,793l.85-1.47h0a7.64,7.64,0,0,0,.22-1.34h0a8.21,8.21,0,0,0-3.87-8l-12.21-7a8.4,8.4,0,0,0-9.95,1.55L123,773.4c-2,.9-4,1.87-6.11,3l.22.16,8.78,5.06h0a11,11,0,0,0-.21,1.28,1.79,1.79,0,0,1,0,.23c0,.12,0,.24,0,.36h0a8.14,8.14,0,0,0,3.89,7.51l12.2,7a8.18,8.18,0,0,0,8.53-.43l.94.83h0a11.12,11.12,0,0,0-.46,1.21,1.87,1.87,0,0,0-.07.22c0,.12-.08.23-.11.35h0a8.13,8.13,0,0,0,2.26,8.15l10.5,9.38a8.37,8.37,0,0,0,10.06.53l1.47-1.64.43.17h0a9.44,9.44,0,0,0,0,1.3,1.77,1.77,0,0,0,0,.23c0,.12,0,.24,0,.36h0a8.11,8.11,0,0,0,4.86,6.91l5.29,2.17c1-1.57,2-3.18,3-4.87l-6.16-2.52a2.9,2.9,0,0,1-1.45-1.31l1.74.71a2.44,2.44,0,0,0,2-.08,3.06,3.06,0,0,0,1.64-3.11l3.81,3,.28.19q4.3-7.35,8.92-16.21l-.92-.73.13,0a2.79,2.79,0,0,0,1.15,0q1-2,2.06-4l-.92-1.56a3.05,3.05,0,0,1,1.26.9q1.25-2.5,2.52-5.12a8.81,8.81,0,0,0-6-1.11,8,8,0,0,0,2.11-6.93L198,771.19a8.38,8.38,0,0,0-7.68-6.51L190,763l1.56-.65h0l.11-.1a8.89,8.89,0,0,0,.83-.79l0,0h0a8.2,8.2,0,0,0,1.78-8.74l-1-2.35,3.65,1.86a8.17,8.17,0,0,0,8.5-.89l1,.79h0a11.18,11.18,0,0,0-.4,1.24c0,.07,0,.15-.05.22s-.07.24-.09.35l0,0a8.13,8.13,0,0,0,2.69,8l11,8.81,0,0q1.83-2.18,3.66-4.31a1.53,1.53,0,0,1-.16-.11l-11-8.81a3,3,0,0,1-1-1.67l1.47,1.18a2.45,2.45,0,0,0,1.92.48,3,3,0,0,0,1.83-1.09,2.7,2.7,0,0,0-.21-3.8l-1.47-1.18a2.94,2.94,0,0,1,1.85.63l11,8.82a3.51,3.51,0,0,1,.34.33q1.88-2.13,3.74-4.2a6.88,6.88,0,0,0-.55-.53l-9-7.25a8.9,8.9,0,0,0,7.18-.15l4.69,5.42q1.92-2.12,3.84-4.19l-4.26-4.93Zm-30.08-24.57a2.44,2.44,0,0,0-2,0,3,3,0,0,0-1.5,1.51,2.69,2.69,0,0,0,1.14,3.62l1.71.78a2.92,2.92,0,0,1-1.95-.16L188,720.7a3,3,0,0,1-1.39-1.37l2.34-5.14a2.92,2.92,0,0,1,1.95.15l12.82,5.84a3,3,0,0,1,1.4,1.37ZM149.1,788.94l-1.68-1.5a2.37,2.37,0,0,0-1.89-.58,2.93,2.93,0,0,0-1.88,1,2.7,2.7,0,0,0,0,3.8l2,1.81a2.67,2.67,0,0,1-1.12-.35l-12.21-7a2.94,2.94,0,0,1-1.26-1.5l1.63.94a2.39,2.39,0,0,0,2,.18,3,3,0,0,0,1.65-1.35,2.7,2.7,0,0,0-.8-3.72l-1.63-.94a3,3,0,0,1,1.93.34l12.2,7a2.93,2.93,0,0,1,1.26,1.5ZM166,776.42a2.92,2.92,0,0,1,1.69,1l.15.18-1.89-1.13Zm-3.69,5.44a2.84,2.84,0,0,1-.61-1.36l4.18,2.5a2.43,2.43,0,0,0,2,.21,3,3,0,0,0,2.08-3.09l6.74,8.14a2.93,2.93,0,0,1,.66,1.85l-1.2-1.45a2.44,2.44,0,0,0-1.79-.86,3,3,0,0,0-2,.69,2.7,2.7,0,0,0-.56,3.76l1.2,1.46a3,3,0,0,1-1.68-1Zm6.66,32.39a3,3,0,0,1-1.82-.73l-.18-.16,2.05.84Zm-.87-6.53a2.42,2.42,0,0,0-2,.09,2.93,2.93,0,0,0-1.45,1.56,3,3,0,0,0-.15,1.81l-7.88-7a3,3,0,0,1-.92-1.72l1.4,1.25a2.43,2.43,0,0,0,1.89.59,3,3,0,0,0,1.89-1,2.69,2.69,0,0,0,0-3.8l-1.4-1.25a2.92,2.92,0,0,1,1.82.73l10.5,9.39a2.88,2.88,0,0,1,.81,1.25Zm8.76-6.71h0a8.94,8.94,0,0,0-.42,1.3h0a9.44,9.44,0,0,0-.26,2.47,6.45,6.45,0,0,0-.62-.66l-7.59-6.79a8.57,8.57,0,0,0,8.83,1l1.12,1.34ZM178,810.9a8,8,0,0,0,.05-1c.15.16.32.3.48.45C178.39,810.55,178.21,810.72,178,810.9Zm17.84-10.75.85,1.43-.85-.68A3.14,3.14,0,0,1,195.88,800.15Zm-13-44.34.52,2.67a2.85,2.85,0,0,1-.68-1l-5.46-13a2.91,2.91,0,0,1-.1-1.95l.73,1.73a2.42,2.42,0,0,0,1.46,1.34,3.08,3.08,0,0,0,3.42-1.1,7.12,7.12,0,0,0,1.69,1.21l1.13.58,3.56,8.47a2.94,2.94,0,0,1,.1,2l-.4.17-.42-2.21a2.41,2.41,0,0,0-1.16-1.6,2.94,2.94,0,0,0-2.1-.36A2.71,2.71,0,0,0,182.85,755.81Zm6.44,33.29a3,3,0,0,1-1-1.68l0-.24,1.12,1.9Zm4.43,21.76a4.94,4.94,0,0,0-.27.42l-6.35-2.59a7.4,7.4,0,0,0-2.38-.54l-2.16-1.73a3,3,0,0,1-1-1.67l.27-.33,1.43,1.72A2.43,2.43,0,0,0,185,807a3,3,0,0,0,2-.69,2.69,2.69,0,0,0,.55-3.76l-1.73-2.1a2.89,2.89,0,0,1,1.06.51l4.12,3.29c.11.23.22.46.35.69l3.1,5.25A3.21,3.21,0,0,0,193.72,810.86Zm-1.9-38.43-.36-1.85a2.93,2.93,0,0,1,1,1.68l2.67,13.83a2.89,2.89,0,0,1-.11,1.49l-2.48-4.2a2.36,2.36,0,0,0-1.62-1.13,3,3,0,0,0-2.1.37,3,3,0,0,0-1.21,1.34l-2-10.37a3,3,0,0,1,.31-1.94l.36,1.85a2.39,2.39,0,0,0,1.15,1.61,2.94,2.94,0,0,0,2.1.35A2.69,2.69,0,0,0,191.82,772.43Zm12-29.73-1.75-1.41a2.42,2.42,0,0,0-1.92-.48,3,3,0,0,0-1.83,1.09,2.69,2.69,0,0,0,.21,3.79l2.13,1.71a2.87,2.87,0,0,1-1.14-.29L190,742.24l-.83-2,.17,0a3,3,0,0,0,1.57-1.45,2.7,2.7,0,0,0-1-3.67l-1.68-.85a3,3,0,0,1,1.94.24l12.56,6.37a2.87,2.87,0,0,1,1.34,1.43Zm14.08-15.34a3.07,3.07,0,0,1,1.43.68l-1.46-.66Zm10.38,12a2.44,2.44,0,0,0-1.8-.82,3,3,0,0,0-2,.75,2.7,2.7,0,0,0-.47,3.77l1.23,1.42a2.9,2.9,0,0,1-1.71-1l-9.21-10.65a2.94,2.94,0,0,1-.6-1.18l3.71,1.68a2.42,2.42,0,0,0,2,0,3,3,0,0,0,1.51-1.51,3,3,0,0,0,.22-1.79l7.69,8.89a2.89,2.89,0,0,1,.69,1.83Z"/><path class="cls-3" d="M118,771.45a3,3,0,0,0-1.64,1.36,2.94,2.94,0,0,0-.31,2.24,29.48,29.48,0,0,0,4.6-3l-.68-.39A2.42,2.42,0,0,0,118,771.45Z"/><path class="cls-3" d="M261.77,720.15h0l.21-.29.27-.37c.06-.1.13-.2.19-.31s.16-.26.24-.39l.13-.22h0a8.14,8.14,0,0,0-.29-8.46l-8-11.6a8.38,8.38,0,0,0-9.64-2.89l-2.31,1.59-1.23-.74h0a11.07,11.07,0,0,0,.23-1.28,1.64,1.64,0,0,1,0-.22c0-.12,0-.25,0-.37h0a8.13,8.13,0,0,0-3.78-7.56l-12.1-7.2a8.37,8.37,0,0,0-10,1.4l-.41.68a8,8,0,0,0-6.19-3.81l-9.58-.61c-.38,1.29-.76,2.6-1.16,3.92-.16.54-.32,1.08-.49,1.63l10.87.68a3,3,0,0,1,1.8.79l-1.88-.12a2.4,2.4,0,0,0-1.85.71A3,3,0,0,0,206,687a2.69,2.69,0,0,0,2.36,3l1.88.12a2.91,2.91,0,0,1-1.88.55l-12.55-.79c-1.05,3.32-2.13,6.64-3.24,9.88l8.11,4.11h0a11.27,11.27,0,0,0-.13,1.29,1.77,1.77,0,0,0,0,.23c0,.12,0,.25,0,.37h0a8.14,8.14,0,0,0,4.29,7.29l12.56,6.37a8.14,8.14,0,0,0,8.55-.93l3.64,2.5h0a11,11,0,0,0-.31,1.26,1.7,1.7,0,0,1,0,.22c0,.12,0,.24-.06.36h0a8.13,8.13,0,0,0,3.29,7.79l11.62,8a7.67,7.67,0,0,0,3.45,1.27q5.19-5.4,10.2-10.48a8,8,0,0,0-3-5.61,9.07,9.07,0,0,0,2.38-.44l2.72,3.95,4-4.09-2.11-3.06Zm-13.48-19.58a3,3,0,0,1,1.35.84l-1.38-.82ZM220.92,684.3a3,3,0,0,1,1.92.37l1.15.68-3.56-.22Zm5.43,6.86a2.42,2.42,0,0,0,1.84-.71,3,3,0,0,0,.88-2s0-.08,0-.13l5.88,3.51a2.87,2.87,0,0,1,1.24,1.51l-1.61-1a2.43,2.43,0,0,0-2-.21,3,3,0,0,0-1.66,1.33,2.69,2.69,0,0,0,.74,3.73l1.61,1a2.89,2.89,0,0,1-1.92-.36l-12-7.16Zm-23.12,7.7-6.39-3.25,10.59.67A9.29,9.29,0,0,0,203.23,698.86ZM224,710.42a2.48,2.48,0,0,0-1.57-.13,3,3,0,0,0-1.74,1.23,2.8,2.8,0,0,0-.11,3.12,2.66,2.66,0,0,1-.67-.23L207.38,708a2.87,2.87,0,0,1-1.34-1.43l1.68.85a2.38,2.38,0,0,0,2,.08,2.93,2.93,0,0,0,1.57-1.44,2.69,2.69,0,0,0-1-3.67l-1.68-.85a2.94,2.94,0,0,1,1.95.23l12.56,6.38a3,3,0,0,1,1.34,1.42Zm5,3.38.74-1.47h0A9,9,0,0,0,230,711h0a8.22,8.22,0,0,0-4.3-7.82l-12.56-6.37a7.32,7.32,0,0,0-2.49-.76,8.27,8.27,0,0,0,3.71-2.35,7.57,7.57,0,0,0,2.07,1.83l12.1,7.21a8.4,8.4,0,0,0,10-1.4l.26.15a8,8,0,0,0,.77,7.39l5.79,8.41-2.47-1.69a8.39,8.39,0,0,0-10,.77Zm20.15,20.65a2.93,2.93,0,0,1-1.9-.49l-11.62-8a2.93,2.93,0,0,1-1.14-1.59l1.55,1.06a2.41,2.41,0,0,0,1.95.33,3,3,0,0,0,1.75-1.22,2.71,2.71,0,0,0-.5-3.77l-1.56-1.06a3,3,0,0,1,1.9.49l11.62,8a2.89,2.89,0,0,1,1.14,1.59Zm8.1-20.8a2.45,2.45,0,0,0-1.7-1,3,3,0,0,0-2.07.52,2.69,2.69,0,0,0-.88,3.69l1.07,1.56a3,3,0,0,1-1.6-1.14l-8-11.6a2.77,2.77,0,0,1-.47-1.25l3.49,2.09a2.47,2.47,0,0,0,2,.21,3.05,3.05,0,0,0,2.08-3.09l6.66,9.68a3,3,0,0,1,.5,1.89Z"/></g><path class="cls-4" d="M155.52,789.56a8.38,8.38,0,0,0-3.65-9.38l-12.21-7a8.4,8.4,0,0,0-9.95,1.55l-8.78-5.06a2.42,2.42,0,0,0-2-.18,3,3,0,0,0-1.64,1.36,2.69,2.69,0,0,0,.79,3.71l8.78,5.06a8.41,8.41,0,0,0,3.66,9.39l12.2,7a8.38,8.38,0,0,0,9.95-1.55Zm-8,1.89a2.88,2.88,0,0,1-1.92-.34l-12.21-7a2.94,2.94,0,0,1-1.26-1.5l1.63.94a2.39,2.39,0,0,0,2,.18,3,3,0,0,0,1.65-1.35,2.7,2.7,0,0,0-.8-3.72l-1.63-.94a3,3,0,0,1,1.93.34l12.2,7a2.93,2.93,0,0,1,1.26,1.5Z"/><path class="cls-5" d="M149.33,792.58c-.26.11-.53.22-.81.32a3.8,3.8,0,0,1-.88.23,4.56,4.56,0,0,1-1.85,0,4.91,4.91,0,0,1-.89-.3c-.32-.14-.63-.26-.94-.38s-.57-.22-.85-.3a17.49,17.49,0,0,0-1.82-.52,14.87,14.87,0,0,0,1.36,1.33c.21.19.45.37.69.58s.51.42.79.62a4.83,4.83,0,0,0,1,.61,5.06,5.06,0,0,0,1.24.35,5.33,5.33,0,0,0,2.6-.3,4.23,4.23,0,0,0,1.11-.6,4.09,4.09,0,0,0,.79-.76l-1.5-.86Z"/><path class="cls-5" d="M138.22,775.07a4.14,4.14,0,0,0-.83-.56,4.7,4.7,0,0,0-2.18-.5,4.9,4.9,0,0,0-2.27.61,5.38,5.38,0,0,0-.92.65,4,4,0,0,0-.45.49l1.39.8a5.59,5.59,0,0,1,.57-.22,6.84,6.84,0,0,1,1.61-.37,5.4,5.4,0,0,1,1.61.09,6.49,6.49,0,0,1,.77.22c.27.09.53.18.77.24a9.7,9.7,0,0,0,1.67.36,11.07,11.07,0,0,0-1.15-1.27Z"/><path class="cls-5" d="M126.89,779.58a10,10,0,0,0-.26,1.87l5.64,1.5a1.24,1.24,0,0,1-.17-.37Z"/><path class="cls-5" d="M155.52,789.56a8.73,8.73,0,0,0,.23-1.34l-5.57-2a1.64,1.64,0,0,1,.14.3Z"/><path class="cls-4" d="M178.18,812a8.37,8.37,0,0,0-1.65-9.93L166,792.72a8.39,8.39,0,0,0-10.05-.53l-7.56-6.75a2.37,2.37,0,0,0-1.89-.58,2.93,2.93,0,0,0-1.88,1,2.7,2.7,0,0,0,0,3.8l7.56,6.75a8.4,8.4,0,0,0,1.64,9.94l10.5,9.38a8.37,8.37,0,0,0,10.06.53Zm-8.24.21a3,3,0,0,1-1.82-.73l-10.5-9.39a3,3,0,0,1-.92-1.72l1.4,1.25a2.43,2.43,0,0,0,1.89.59,3,3,0,0,0,1.89-1,2.69,2.69,0,0,0,0-3.8l-1.4-1.25a2.92,2.92,0,0,1,1.82.73l10.5,9.39a2.89,2.89,0,0,1,.92,1.72Z"/><path class="cls-5" d="M171.5,813.73c-.27.06-.56.11-.86.15a4.55,4.55,0,0,1-.91,0,4.75,4.75,0,0,1-.91-.13,4.57,4.57,0,0,1-.88-.3,5,5,0,0,1-.81-.49l-.84-.55c-.28-.17-.52-.34-.77-.47a16.55,16.55,0,0,0-1.68-.89,15.33,15.33,0,0,0,1.06,1.58c.17.23.36.46.55.71s.42.51.65.77a5,5,0,0,0,.89.81,4.75,4.75,0,0,0,1.14.6,5.52,5.52,0,0,0,2.61.24,4.09,4.09,0,0,0,1.2-.37,3.73,3.73,0,0,0,.93-.57l-1.29-1.15Z"/><path class="cls-5" d="M164.22,794.32a3.56,3.56,0,0,0-.69-.72,4.59,4.59,0,0,0-2-.94,4.56,4.56,0,0,0-3.92,1l1.19,1.07a6,6,0,0,1,.61-.1,7,7,0,0,1,1.65,0,5.9,5.9,0,0,1,1.56.42,7,7,0,0,1,.7.38c.25.14.48.28.7.39a9.73,9.73,0,0,0,1.57.69,10.81,10.81,0,0,0-.87-1.47C164.55,794.76,164.39,794.55,164.22,794.32Z"/><path class="cls-5" d="M152.21,796.4a10.84,10.84,0,0,0-.64,1.78l5.21,2.62a1.79,1.79,0,0,1-.09-.4Z"/><path class="cls-5" d="M178.19,812.05a9.79,9.79,0,0,0,.49-1.27l-5-3.06c0,.1.05.22.07.32Z"/><path class="cls-4" d="M206,820.83a8.39,8.39,0,0,0-4.88-8.81l-13-5.33a8.38,8.38,0,0,0-9.65,2.87l-9.38-3.84a2.42,2.42,0,0,0-2,.09,2.93,2.93,0,0,0-1.45,1.56,2.7,2.7,0,0,0,1.28,3.58l9.39,3.83a8.39,8.39,0,0,0,4.87,8.81l13,5.33a8.38,8.38,0,0,0,9.65-2.86Zm-7.7,2.95a2.94,2.94,0,0,1-2-.08l-13-5.33a2.9,2.9,0,0,1-1.45-1.31l1.74.71a2.44,2.44,0,0,0,2-.08,3,3,0,0,0,1.44-1.57,2.71,2.71,0,0,0-1.28-3.58l-1.75-.71a2.94,2.94,0,0,1,2,.08l13,5.33a2.92,2.92,0,0,1,1.45,1.32Z"/><path class="cls-5" d="M200.29,824.65c-.24.15-.5.3-.76.43a4.14,4.14,0,0,1-.84.35,4.6,4.6,0,0,1-.91.19,4.72,4.72,0,0,1-.92,0,5.6,5.6,0,0,1-.94-.19l-1-.24c-.31-.06-.6-.15-.88-.18a17.85,17.85,0,0,0-1.88-.28,13.15,13.15,0,0,0,1.53,1.13c.23.17.49.32.75.49l.87.51a4.69,4.69,0,0,0,1.11.46,4.45,4.45,0,0,0,1.28.18,5.4,5.4,0,0,0,2.53-.64,4.21,4.21,0,0,0,1-.75,3.63,3.63,0,0,0,.69-.85l-1.6-.66Z"/><path class="cls-5" d="M186.93,808.8a3.9,3.9,0,0,0-.89-.45,4.71,4.71,0,0,0-2.23-.2,5,5,0,0,0-2.17.9,5.51,5.51,0,0,0-.82.77,4.65,4.65,0,0,0-.39.55l1.49.6c.17-.1.35-.2.54-.29a6.79,6.79,0,0,1,1.54-.58,5.18,5.18,0,0,1,1.61-.12,4.41,4.41,0,0,1,.79.11l.79.14a9.93,9.93,0,0,0,1.71.12,10.42,10.42,0,0,0-1.31-1.1Z"/><path class="cls-5" d="M176.31,814.78a10.86,10.86,0,0,0,0,1.89l5.79.73a1.52,1.52,0,0,1-.22-.34Z"/><path class="cls-5" d="M206,820.83a7.73,7.73,0,0,0,0-1.36l-5.77-1.19a1.31,1.31,0,0,1,.17.28Z"/><path class="cls-4" d="M177.83,799a8.38,8.38,0,0,0,2.21,9.82l11,8.78a8.37,8.37,0,0,0,10.07,0l7.93,6.32a2.41,2.41,0,0,0,1.92.48,3,3,0,0,0,1.83-1.1,2.7,2.7,0,0,0-.23-3.79l-7.93-6.32a8.39,8.39,0,0,0-2.2-9.82l-11-8.78a8.38,8.38,0,0,0-10.07,0Zm8.22-.67a3,3,0,0,1,1.86.62l11,8.78a2.92,2.92,0,0,1,1,1.67l-1.47-1.17a2.37,2.37,0,0,0-1.92-.47,3,3,0,0,0-1.83,1.09,2.71,2.71,0,0,0,.23,3.8l1.47,1.17a2.94,2.94,0,0,1-1.85-.63l-11-8.78a3,3,0,0,1-1-1.67Z"/><path class="cls-5" d="M184.41,797l.85-.2a5.28,5.28,0,0,1,.9-.1,5.62,5.62,0,0,1,.92.07,5.2,5.2,0,0,1,.9.26,4.53,4.53,0,0,1,.84.44c.29.18.58.34.87.51s.53.3.79.42a16.81,16.81,0,0,0,1.73.79,15.4,15.4,0,0,0-1.15-1.52c-.18-.22-.39-.43-.59-.67s-.45-.49-.69-.74a5.16,5.16,0,0,0-.93-.75,5.08,5.08,0,0,0-1.18-.54,5.49,5.49,0,0,0-2.61-.09,4.61,4.61,0,0,0-1.18.43,3.79,3.79,0,0,0-.9.63l1.35,1.08Z"/><path class="cls-5" d="M192.77,815.92a4.12,4.12,0,0,0,.74.68,4.54,4.54,0,0,0,2.07.82,5,5,0,0,0,2.34-.26,5.28,5.28,0,0,0,1-.5,5.92,5.92,0,0,0,.52-.42l-1.26-1a5.29,5.29,0,0,1-.6.13,6.9,6.9,0,0,1-1.64.13,5.57,5.57,0,0,1-1.58-.34,5.17,5.17,0,0,1-.73-.33c-.25-.12-.49-.25-.72-.35a10.18,10.18,0,0,0-1.6-.61,10,10,0,0,0,1,1.43C192.42,815.5,192.59,815.7,192.77,815.92Z"/><path class="cls-5" d="M204.65,813.16a9.84,9.84,0,0,0,.53-1.81L199.84,809a1.6,1.6,0,0,1,.11.39Z"/><path class="cls-5" d="M177.83,799a8.94,8.94,0,0,0-.42,1.3l5.21,2.77a1.68,1.68,0,0,1-.09-.32Z"/><path class="cls-4" d="M158.79,773.38a8.39,8.39,0,0,0,.15,10.07l9,10.86a8.4,8.4,0,0,0,9.86,2l6.46,7.8A2.43,2.43,0,0,0,186,805a3,3,0,0,0,2-.69,2.69,2.69,0,0,0,.55-3.76l-6.46-7.81a8.38,8.38,0,0,0-.14-10.07l-9-10.86a8.39,8.39,0,0,0-9.87-2Zm8.18,1a2.92,2.92,0,0,1,1.69,1l9,10.85a2.93,2.93,0,0,1,.66,1.85l-1.2-1.45a2.44,2.44,0,0,0-1.79-.86,3,3,0,0,0-2,.69,2.7,2.7,0,0,0-.56,3.76l1.2,1.46a3,3,0,0,1-1.68-1l-9-10.85a2.93,2.93,0,0,1-.66-1.85Z"/><path class="cls-5" d="M165.65,772.72c.28,0,.58,0,.87,0a4,4,0,0,1,.91.09,4.76,4.76,0,0,1,.89.26,4.57,4.57,0,0,1,1.55,1c.25.24.5.46.75.68s.45.41.68.57a15.55,15.55,0,0,0,1.53,1.13,14.51,14.51,0,0,0-.81-1.72c-.13-.25-.29-.5-.44-.78l-.52-.86a5.26,5.26,0,0,0-.76-.93,4.42,4.42,0,0,0-1-.76,5.31,5.31,0,0,0-2.54-.63,4.23,4.23,0,0,0-1.24.18,3.42,3.42,0,0,0-1,.43l1.1,1.33Z"/><path class="cls-5" d="M169.94,793a3.75,3.75,0,0,0,.58.82,4.6,4.6,0,0,0,1.86,1.23,5,5,0,0,0,2.35.22,5,5,0,0,0,1.08-.28,5.58,5.58,0,0,0,.6-.31l-1-1.23c-.2,0-.41,0-.62,0a7,7,0,0,1-1.63-.22,5.79,5.79,0,0,1-1.48-.65,4.64,4.64,0,0,1-.64-.48l-.64-.49a10.53,10.53,0,0,0-1.44-.92,10.18,10.18,0,0,0,.63,1.59Z"/><path class="cls-5" d="M182.13,792.74a10.29,10.29,0,0,0,.9-1.66l-4.76-3.37a1.33,1.33,0,0,1,0,.4Z"/><path class="cls-5" d="M158.79,773.38a8.19,8.19,0,0,0-.68,1.18l4.53,3.78a1.77,1.77,0,0,1,0-.33Z"/><path class="cls-4" d="M132.59,760.53a8.38,8.38,0,0,0,3.5,9.44l12.09,7.22a8.38,8.38,0,0,0,10-1.39l8.7,5.2a2.43,2.43,0,0,0,2,.21,3,3,0,0,0,1.67-1.33,2.7,2.7,0,0,0-.74-3.73l-8.7-5.19a8.4,8.4,0,0,0-3.5-9.44l-12.1-7.23a8.39,8.39,0,0,0-10,1.39Zm8-1.77a3,3,0,0,1,1.92.37l12.09,7.23a2.91,2.91,0,0,1,1.24,1.51l-1.62-1a2.37,2.37,0,0,0-2-.21,3,3,0,0,0-1.67,1.33,2.7,2.7,0,0,0,.74,3.73l1.62,1a3,3,0,0,1-1.93-.37L139,765.13a3,3,0,0,1-1.24-1.52Z"/><path class="cls-5" d="M138.82,757.61c.26-.11.54-.22.82-.31a3.78,3.78,0,0,1,.88-.22,4.79,4.79,0,0,1,.93-.06,4.54,4.54,0,0,1,.91.14,4.87,4.87,0,0,1,.9.32l.93.39c.3.1.56.23.84.31a17,17,0,0,0,1.82.55,15.39,15.39,0,0,0-1.35-1.35c-.2-.19-.43-.38-.67-.59l-.78-.63a5.32,5.32,0,0,0-1-.63,4.51,4.51,0,0,0-1.23-.37,5.49,5.49,0,0,0-2.61.26,4.08,4.08,0,0,0-1.11.59,3.86,3.86,0,0,0-.81.74l1.49.89Z"/><path class="cls-5" d="M149.66,775.29a4.43,4.43,0,0,0,.81.57,4.58,4.58,0,0,0,2.17.53,5,5,0,0,0,2.29-.57,5.23,5.23,0,0,0,.93-.63,4.19,4.19,0,0,0,.46-.49l-1.38-.82a5.71,5.71,0,0,1-.58.21,6.81,6.81,0,0,1-1.61.35,5.4,5.4,0,0,1-1.61-.12,6.6,6.6,0,0,1-.77-.23c-.27-.09-.52-.19-.76-.26a10,10,0,0,0-1.67-.38,11.42,11.42,0,0,0,1.13,1.28Z"/><path class="cls-5" d="M161.05,771a9.32,9.32,0,0,0,.29-1.87l-5.61-1.58a1.56,1.56,0,0,1,.17.37Z"/><path class="cls-5" d="M132.58,760.53a8.75,8.75,0,0,0-.24,1.34l5.53,2a1.6,1.6,0,0,1-.13-.3Z"/><path class="cls-4" d="M192.55,760.31a8.38,8.38,0,0,0,2.77-9.68l-5.46-13a8.37,8.37,0,0,0-8.85-4.79l-3.93-9.34a2.42,2.42,0,0,0-1.46-1.34,3,3,0,0,0-2.13.09,2.69,2.69,0,0,0-1.61,3.44L175.8,735a8.4,8.4,0,0,0-2.77,9.68l5.46,13a8.37,8.37,0,0,0,8.85,4.79ZM185,757a2.91,2.91,0,0,1-1.33-1.44l-5.46-13a2.91,2.91,0,0,1-.1-1.95l.73,1.73a2.42,2.42,0,0,0,1.46,1.34,3,3,0,0,0,2.13-.09,2.69,2.69,0,0,0,1.62-3.43l-.73-1.74a3,3,0,0,1,1.33,1.44l5.45,13a2.94,2.94,0,0,1,.1,2Z"/><path class="cls-5" d="M185.79,759c-.27-.06-.56-.14-.84-.23a4,4,0,0,1-.84-.35,4.42,4.42,0,0,1-.77-.5,4.58,4.58,0,0,1-.67-.65,6.79,6.79,0,0,1-.53-.79c-.16-.3-.34-.59-.51-.86s-.32-.53-.5-.76A16.81,16.81,0,0,0,180,753.3a14.81,14.81,0,0,0,.28,1.88c.05.28.13.57.19.88s.16.64.26,1a4.88,4.88,0,0,0,.45,1.11,4.57,4.57,0,0,0,.78,1,5.33,5.33,0,0,0,2.25,1.33,4.11,4.11,0,0,0,1.24.19,3.84,3.84,0,0,0,1.09-.12l-.67-1.6Z"/><path class="cls-5" d="M187.55,738.3a4,4,0,0,0-.32-.94,4.59,4.59,0,0,0-1.43-1.72,4.88,4.88,0,0,0-2.18-.89,5.34,5.34,0,0,0-1.12,0,4.13,4.13,0,0,0-.66.11l.62,1.48.59.17a7.26,7.26,0,0,1,1.5.68,5.47,5.47,0,0,1,1.23,1.06,6.5,6.5,0,0,1,.48.63c.16.24.31.46.46.66a10.7,10.7,0,0,0,1.12,1.3,10.92,10.92,0,0,0-.15-1.71C187.65,738.85,187.6,738.58,187.55,738.3Z"/><path class="cls-5" d="M175.8,735a10.6,10.6,0,0,0-1.34,1.34L178,741a1.37,1.37,0,0,1,.09-.4Z"/><path class="cls-5" d="M192.55,760.31a8.77,8.77,0,0,0,1-.93l-3.24-4.93a1.16,1.16,0,0,1-.08.32Z"/><path class="cls-4" d="M197,791.92a8.37,8.37,0,0,0,4.7-8.9L199,769.19a8.38,8.38,0,0,0-7.68-6.51l-1.92-9.95a2.41,2.41,0,0,0-1.16-1.6,2.94,2.94,0,0,0-2.1-.36,2.71,2.71,0,0,0-2.29,3l1.93,10a8.37,8.37,0,0,0-4.7,8.9l2.67,13.83a8.41,8.41,0,0,0,7.68,6.51Zm-6.69-4.82a3,3,0,0,1-1-1.68l-2.68-13.83a3,3,0,0,1,.31-1.94l.36,1.85a2.39,2.39,0,0,0,1.15,1.61,2.94,2.94,0,0,0,2.1.35,2.69,2.69,0,0,0,2.29-3l-.36-1.85a2.93,2.93,0,0,1,1,1.68l2.67,13.83a2.91,2.91,0,0,1-.3,1.93Z"/><path class="cls-5" d="M190.64,789.22c-.25-.12-.51-.25-.77-.4a3.82,3.82,0,0,1-.75-.51,4.12,4.12,0,0,1-.66-.66,4.28,4.28,0,0,1-.51-.77,5.05,5.05,0,0,1-.36-.88c-.1-.33-.22-.64-.33-1s-.2-.58-.33-.84a16.7,16.7,0,0,0-.8-1.72,14.85,14.85,0,0,0-.11,1.9c0,.28,0,.58,0,.9s0,.66.05,1a5,5,0,0,0,.76,2.35,5.4,5.4,0,0,0,1.94,1.77,4,4,0,0,0,1.17.44A3.78,3.78,0,0,0,191,791l-.33-1.7Z"/><path class="cls-5" d="M196.6,769.36a3.61,3.61,0,0,0-.12-1,4.51,4.51,0,0,0-1-2,5.11,5.11,0,0,0-1.94-1.33,5.73,5.73,0,0,0-1.09-.26,3.93,3.93,0,0,0-.67,0l.3,1.58c.18.09.37.18.55.29a7.29,7.29,0,0,1,1.33,1,5.73,5.73,0,0,1,1,1.28,6.18,6.18,0,0,1,.34.73c.11.26.21.51.32.73a9.15,9.15,0,0,0,.83,1.5,11.52,11.52,0,0,0,.2-1.7C196.59,769.92,196.59,769.64,196.6,769.36Z"/><path class="cls-5" d="M185.78,763.75a10.07,10.07,0,0,0-1.59,1l2.56,5.24a1.76,1.76,0,0,1,.17-.37Z"/><path class="cls-5" d="M197,791.93a9.72,9.72,0,0,0,1.16-.71L196,785.73c0,.1-.09.2-.14.3Z"/><path class="cls-4" d="M213.82,815.77a8.39,8.39,0,0,0,1.45-10l-7.15-12.13a8.39,8.39,0,0,0-9.42-3.56l-5.15-8.73a2.36,2.36,0,0,0-1.62-1.13,3,3,0,0,0-2.1.37,2.69,2.69,0,0,0-1.14,3.62l5.14,8.73a8.41,8.41,0,0,0-1.45,10l7.15,12.13a8.39,8.39,0,0,0,9.42,3.56Zm-7.92-2.31a3,3,0,0,1-1.51-1.25l-7.15-12.14a2.94,2.94,0,0,1-.36-1.92l1,1.62a2.42,2.42,0,0,0,1.62,1.13,3,3,0,0,0,2.1-.37,2.68,2.68,0,0,0,1.14-3.62l-.95-1.63a3,3,0,0,1,1.51,1.25l7.15,12.13a3,3,0,0,1,.36,1.93Z"/><path class="cls-5" d="M206.94,815.34l-.86-.12a3.94,3.94,0,0,1-.88-.23,4.56,4.56,0,0,1-.84-.39,5.13,5.13,0,0,1-.74-.56,5.49,5.49,0,0,1-.63-.71l-.63-.79c-.21-.24-.39-.47-.59-.68a15.46,15.46,0,0,0-1.33-1.35,16.82,16.82,0,0,0,.53,1.83c.09.26.2.54.31.84l.38.93a5.64,5.64,0,0,0,.6,1,5,5,0,0,0,.91.92,5.43,5.43,0,0,0,2.41,1,4.44,4.44,0,0,0,1.26,0,3.93,3.93,0,0,0,1.06-.27l-.88-1.49Z"/><path class="cls-5" d="M205.91,794.63a3.92,3.92,0,0,0-.45-.89,4.52,4.52,0,0,0-1.64-1.51,5,5,0,0,0-2.28-.6,5.74,5.74,0,0,0-1.12.12,4.67,4.67,0,0,0-.63.2l.81,1.38c.2,0,.41,0,.61.09a8,8,0,0,1,1.58.47,5.67,5.67,0,0,1,1.36.88,7.59,7.59,0,0,1,.56.57l.54.59a10.55,10.55,0,0,0,1.29,1.14,11.34,11.34,0,0,0-.38-1.67C206.09,795.16,206,794.9,205.91,794.63Z"/><path class="cls-5" d="M193.83,793a10.3,10.3,0,0,0-1.15,1.5l4.17,4.08a1.44,1.44,0,0,1,0-.41Z"/><path class="cls-5" d="M213.82,815.77a8.84,8.84,0,0,0,.86-1.06l-3.88-4.44a1.73,1.73,0,0,1,0,.32Z"/><path class="cls-4" d="M210.4,743a8.38,8.38,0,0,0-4.15-9.18l-12.56-6.37a8.39,8.39,0,0,0-9.85,2.07l-9-4.58a2.42,2.42,0,0,0-2-.08,3,3,0,0,0-1.57,1.45,2.68,2.68,0,0,0,1,3.66l9,4.59a8.37,8.37,0,0,0,4.14,9.17L198,750.14a8.39,8.39,0,0,0,9.86-2.08Zm-7.91,2.31a2.9,2.9,0,0,1-1.94-.23L188,738.74a3,3,0,0,1-1.34-1.43l1.68.85a2.44,2.44,0,0,0,2,.08,3,3,0,0,0,1.57-1.45,2.7,2.7,0,0,0-1-3.67l-1.68-.85a3,3,0,0,1,1.94.24l12.56,6.37a2.87,2.87,0,0,1,1.34,1.43Z"/><path class="cls-5" d="M204.38,746.37c-.25.13-.52.25-.79.37a4.91,4.91,0,0,1-.87.28,4.72,4.72,0,0,1-.92.11,3.54,3.54,0,0,1-.92-.07,5.39,5.39,0,0,1-.91-.25l-1-.33c-.3-.08-.58-.19-.86-.25a16.84,16.84,0,0,0-1.85-.43,13.8,13.8,0,0,0,1.43,1.26c.22.18.46.35.72.54s.53.39.82.58a5.26,5.26,0,0,0,1.06.55,4.82,4.82,0,0,0,1.26.29,5.4,5.4,0,0,0,2.58-.44,4.28,4.28,0,0,0,1.07-.66,3.74,3.74,0,0,0,.75-.8l-1.54-.78Z"/><path class="cls-5" d="M192.35,729.48a3.83,3.83,0,0,0-.85-.51,4.7,4.7,0,0,0-2.2-.39,5.07,5.07,0,0,0-2.24.73,5.21,5.21,0,0,0-.88.7,4.85,4.85,0,0,0-.43.51l1.43.73a5.62,5.62,0,0,1,.56-.25,6.74,6.74,0,0,1,1.59-.46,5.43,5.43,0,0,1,1.61,0,6.2,6.2,0,0,1,.78.18l.78.2a10.06,10.06,0,0,0,1.69.26A10.3,10.3,0,0,0,193,730C192.79,729.83,192.57,729.66,192.35,729.48Z"/><path class="cls-5" d="M181.28,734.59a10,10,0,0,0-.16,1.88l5.71,1.19a1.37,1.37,0,0,1-.19-.36Z"/><path class="cls-5" d="M210.41,743a10.32,10.32,0,0,0,.15-1.35L204.9,740a1.32,1.32,0,0,1,.15.29Z"/><path class="cls-4" d="M234.23,764.27a8.39,8.39,0,0,0-2.17-9.83l-11-8.81a8.38,8.38,0,0,0-10.07,0l-7.9-6.34a2.42,2.42,0,0,0-1.92-.48,3,3,0,0,0-1.83,1.09,2.69,2.69,0,0,0,.21,3.79l7.91,6.35a8.39,8.39,0,0,0,2.17,9.83l11,8.81a8.38,8.38,0,0,0,10.07,0Zm-8.22.65a3,3,0,0,1-1.85-.64l-11-8.81a3,3,0,0,1-1-1.67l1.47,1.18a2.45,2.45,0,0,0,1.92.48,3,3,0,0,0,1.83-1.09,2.7,2.7,0,0,0-.21-3.8l-1.47-1.18a2.94,2.94,0,0,1,1.85.63l11,8.82a3,3,0,0,1,1,1.67Z"/><path class="cls-5" d="M227.65,766.31c-.27.07-.56.14-.85.19a3.88,3.88,0,0,1-.9.1,5.82,5.82,0,0,1-.93-.07,4.55,4.55,0,0,1-.89-.26,6.18,6.18,0,0,1-.84-.44l-.86-.51c-.29-.15-.54-.31-.8-.43a16.2,16.2,0,0,0-1.72-.79,13.63,13.63,0,0,0,1.14,1.51c.18.23.39.44.59.69l.69.73a5.66,5.66,0,0,0,.93.76,5,5,0,0,0,1.17.54,5.54,5.54,0,0,0,2.62.09,4.25,4.25,0,0,0,1.18-.42,4.61,4.61,0,0,0,.9-.62l-1.35-1.09Z"/><path class="cls-5" d="M219.35,747.31a4.4,4.4,0,0,0-.73-.68,4.75,4.75,0,0,0-2.08-.83,5,5,0,0,0-2.34.26,5.28,5.28,0,0,0-1,.5,4.48,4.48,0,0,0-.52.41l1.25,1a4.29,4.29,0,0,1,.6-.13,6.53,6.53,0,0,1,1.65-.12,5.25,5.25,0,0,1,1.58.34,4.61,4.61,0,0,1,.72.33l.72.36a10.54,10.54,0,0,0,1.61.6,10.35,10.35,0,0,0-1-1.42C219.7,747.74,219.52,747.53,219.35,747.31Z"/><path class="cls-5" d="M207.46,750a10.36,10.36,0,0,0-.54,1.81l5.34,2.34a1.6,1.6,0,0,1-.11-.39Z"/><path class="cls-5" d="M234.24,764.28a8.94,8.94,0,0,0,.42-1.3l-5.2-2.78a1.5,1.5,0,0,1,.09.32Z"/><path class="cls-4" d="M210.73,724.5a8.39,8.39,0,0,0,.36,10.07l9.21,10.65a8.37,8.37,0,0,0,9.9,1.82l6.63,7.66a2.4,2.4,0,0,0,1.8.82,3,3,0,0,0,2-.74,2.69,2.69,0,0,0,.47-3.77l-6.63-7.67a8.37,8.37,0,0,0-.36-10.06l-9.21-10.65a8.37,8.37,0,0,0-9.9-1.82Zm8.2.86a2.94,2.94,0,0,1,1.71.95L229.85,737a2.89,2.89,0,0,1,.69,1.83l-1.23-1.43a2.44,2.44,0,0,0-1.8-.82,3,3,0,0,0-2,.75,2.7,2.7,0,0,0-.47,3.77l1.23,1.42a2.9,2.9,0,0,1-1.71-1l-9.21-10.65a3,3,0,0,1-.7-1.83Z"/><path class="cls-5" d="M217.57,723.69c.27,0,.57,0,.87,0a4.92,4.92,0,0,1,1.8.31,5,5,0,0,1,.83.42,4.74,4.74,0,0,1,.75.58c.25.23.51.45.76.66s.46.4.7.56a15.74,15.74,0,0,0,1.55,1.1,14.48,14.48,0,0,0-.85-1.7c-.14-.25-.3-.5-.46-.78s-.35-.56-.54-.85a5.25,5.25,0,0,0-.77-.91,5,5,0,0,0-1.06-.74,5.33,5.33,0,0,0-2.56-.57,4.17,4.17,0,0,0-1.23.2,3.66,3.66,0,0,0-1,.45l1.13,1.31Z"/><path class="cls-5" d="M222.3,743.88a4,4,0,0,0,.59.8,4.74,4.74,0,0,0,1.9,1.19,4.91,4.91,0,0,0,2.34.17,5,5,0,0,0,1.08-.31,5.39,5.39,0,0,0,.59-.31l-1.05-1.22a4.15,4.15,0,0,1-.61,0,6.45,6.45,0,0,1-1.64-.18,5.16,5.16,0,0,1-1.49-.62,4.39,4.39,0,0,1-.66-.46l-.64-.48a10.36,10.36,0,0,0-1.47-.88,10.17,10.17,0,0,0,.68,1.57C222,743.39,222.16,743.63,222.3,743.88Z"/><path class="cls-5" d="M234.48,743.35a10.66,10.66,0,0,0,.86-1.68l-4.83-3.27a1.81,1.81,0,0,1,0,.4Z"/><path class="cls-5" d="M210.72,724.5a9.15,9.15,0,0,0-.65,1.19l4.61,3.68a1.73,1.73,0,0,1,0-.32Z"/><path class="cls-4" d="M182.13,714.84a8.38,8.38,0,0,0,4.53,9l12.81,5.84a8.38,8.38,0,0,0,9.76-2.49l9.23,4.2a2.42,2.42,0,0,0,2,0,3,3,0,0,0,1.51-1.51,2.7,2.7,0,0,0-1.14-3.63l-9.23-4.2a8.38,8.38,0,0,0-4.53-9l-12.81-5.84a8.39,8.39,0,0,0-9.76,2.49Zm7.81-2.65a2.92,2.92,0,0,1,1.95.15l12.82,5.84a3,3,0,0,1,1.4,1.37l-1.72-.78a2.44,2.44,0,0,0-2,0,3,3,0,0,0-1.5,1.51,2.69,2.69,0,0,0,1.14,3.62l1.71.78a2.92,2.92,0,0,1-1.95-.16L189,718.7a3,3,0,0,1-1.39-1.37Z"/><path class="cls-5" d="M188,711.24c.25-.14.51-.27.78-.4a4.33,4.33,0,0,1,.85-.31,4.79,4.79,0,0,1,.92-.16,4.7,4.7,0,0,1,.92,0,5.67,5.67,0,0,1,.93.22c.32.1.65.2,1,.28s.59.17.87.22a18.2,18.2,0,0,0,1.87.35,13.82,13.82,0,0,0-1.48-1.19l-.74-.52c-.27-.18-.55-.36-.85-.54a5.42,5.42,0,0,0-1.08-.51,4.83,4.83,0,0,0-1.27-.23,5.5,5.5,0,0,0-2.56.55,4,4,0,0,0-1,.7,3.7,3.7,0,0,0-.72.83l1.58.72Z"/><path class="cls-5" d="M200.73,727.61a3.82,3.82,0,0,0,.88.48,4.62,4.62,0,0,0,2.21.29,5,5,0,0,0,2.21-.82,6.13,6.13,0,0,0,.85-.73,4.69,4.69,0,0,0,.4-.54l-1.46-.66a4.68,4.68,0,0,1-.55.27,6.5,6.5,0,0,1-1.56.52,5.52,5.52,0,0,1-1.62.06,5.84,5.84,0,0,1-.78-.14c-.28-.06-.54-.13-.79-.17a9.9,9.9,0,0,0-1.7-.19,11.2,11.2,0,0,0,1.27,1.15Z"/><path class="cls-5" d="M211.58,722a10.84,10.84,0,0,0,.08-1.88l-5.75-1a1.75,1.75,0,0,1,.2.35Z"/><path class="cls-5" d="M182.12,714.83a8.88,8.88,0,0,0-.09,1.36l5.72,1.42a2,2,0,0,1-.16-.29Z"/><path class="cls-4" d="M230.8,710.33a8.39,8.39,0,0,0-4.15-9.17l-12.56-6.37a8.39,8.39,0,0,0-9.86,2.07l-9-4.59a2.44,2.44,0,0,0-2-.07,3,3,0,0,0-1.57,1.44,2.69,2.69,0,0,0,1,3.67l9,4.58a8.39,8.39,0,0,0,4.15,9.18l12.56,6.37a8.39,8.39,0,0,0,9.85-2.07Zm-7.92,2.32a2.91,2.91,0,0,1-1.94-.24L208.38,706a2.87,2.87,0,0,1-1.34-1.43l1.68.85a2.38,2.38,0,0,0,2,.08,2.93,2.93,0,0,0,1.57-1.44,2.69,2.69,0,0,0-1-3.67l-1.68-.85a2.94,2.94,0,0,1,1.95.23l12.56,6.38a3,3,0,0,1,1.34,1.42Z"/><path class="cls-5" d="M224.77,713.68c-.24.12-.51.25-.79.36a3.61,3.61,0,0,1-.86.28,4.73,4.73,0,0,1-.92.12,4.63,4.63,0,0,1-1.84-.33c-.32-.12-.64-.22-1-.32s-.59-.19-.87-.26a18.06,18.06,0,0,0-1.85-.42,16.25,16.25,0,0,0,1.43,1.25c.22.18.47.35.72.55l.82.58a5.36,5.36,0,0,0,1.07.55,4.63,4.63,0,0,0,1.26.28,5.42,5.42,0,0,0,2.58-.44,3.86,3.86,0,0,0,1.06-.66,3.76,3.76,0,0,0,.76-.79l-1.55-.79Z"/><path class="cls-5" d="M212.75,696.79a3.91,3.91,0,0,0-.86-.51,4.58,4.58,0,0,0-2.2-.39,5,5,0,0,0-2.24.73,6.25,6.25,0,0,0-.88.69,4.93,4.93,0,0,0-.43.52l1.43.72c.18-.09.37-.17.57-.25a7,7,0,0,1,1.58-.45,5.18,5.18,0,0,1,1.62,0,6,6,0,0,1,.77.17c.28.08.54.15.78.2a9.6,9.6,0,0,0,1.7.27,11.37,11.37,0,0,0-1.22-1.2Z"/><path class="cls-5" d="M201.67,701.89a11,11,0,0,0-.16,1.89l5.71,1.19a1.55,1.55,0,0,1-.19-.36Z"/><path class="cls-5" d="M230.8,710.34A9,9,0,0,0,231,709l-5.66-1.66a1.68,1.68,0,0,1,.15.3Z"/><path class="cls-4" d="M258.34,731.18a8.37,8.37,0,0,0-2.91-9.64l-11.62-8a8.39,8.39,0,0,0-10,.77l-8.36-5.73a2.44,2.44,0,0,0-1.95-.33,3,3,0,0,0-1.74,1.23,2.7,2.7,0,0,0,.5,3.76l8.36,5.73a8.39,8.39,0,0,0,2.91,9.64l11.62,8a8.39,8.39,0,0,0,10-.77Zm-8.14,1.27a2.93,2.93,0,0,1-1.9-.49l-11.62-8a2.93,2.93,0,0,1-1.14-1.59l1.55,1.06a2.41,2.41,0,0,0,1.95.33,3,3,0,0,0,1.75-1.22,2.71,2.71,0,0,0-.5-3.77l-1.56-1.06a3,3,0,0,1,1.9.49l11.62,8a2.89,2.89,0,0,1,1.14,1.59Z"/><path class="cls-5" d="M251.94,733.71l-.84.26a3.69,3.69,0,0,1-.89.16,4.13,4.13,0,0,1-.93,0,4.65,4.65,0,0,1-.9-.19,5,5,0,0,1-.88-.37q-.45-.24-.9-.45c-.29-.12-.55-.27-.82-.36a16.64,16.64,0,0,0-1.78-.67,13.64,13.64,0,0,0,1.26,1.43c.19.21.41.41.63.64l.74.68a5.53,5.53,0,0,0,1,.68,4.5,4.5,0,0,0,1.21.45,5.48,5.48,0,0,0,2.61-.1,4,4,0,0,0,1.15-.51,4.2,4.2,0,0,0,.85-.69l-1.43-1Z"/><path class="cls-5" d="M242.22,715.4a3.61,3.61,0,0,0-.78-.62,4.51,4.51,0,0,0-2.13-.68,5.08,5.08,0,0,0-2.32.43,6.43,6.43,0,0,0-1,.58,5.45,5.45,0,0,0-.49.45l1.32.91a5.76,5.76,0,0,1,.59-.18,7.46,7.46,0,0,1,1.63-.24,5.4,5.4,0,0,1,1.61.22,4.83,4.83,0,0,1,.74.28l.75.3a9.65,9.65,0,0,0,1.64.48,11.51,11.51,0,0,0-1-1.35C242.61,715.8,242.42,715.6,242.22,715.4Z"/><path class="cls-5" d="M230.58,719a10.13,10.13,0,0,0-.41,1.84l5.51,1.93a1.15,1.15,0,0,1-.14-.38Z"/><path class="cls-5" d="M258.35,731.19a9.05,9.05,0,0,0,.32-1.32l-5.39-2.39a1.92,1.92,0,0,1,.11.31Z"/><path class="cls-4" d="M241.23,696.82a8.39,8.39,0,0,0-.74,10l8,11.61a8.38,8.38,0,0,0,9.64,2.88l5.75,8.35a2.42,2.42,0,0,0,1.7,1,3,3,0,0,0,2.07-.51,2.71,2.71,0,0,0,.88-3.7l-5.75-8.35a8.38,8.38,0,0,0,.75-10l-8-11.6a8.38,8.38,0,0,0-9.64-2.89Zm8.06,1.75a2.92,2.92,0,0,1,1.6,1.14l8,11.6a3,3,0,0,1,.5,1.89l-1.07-1.55a2.45,2.45,0,0,0-1.7-1,3,3,0,0,0-2.07.52,2.69,2.69,0,0,0-.88,3.69l1.07,1.56a3,3,0,0,1-1.6-1.14l-8-11.6a2.89,2.89,0,0,1-.5-1.9Z"/><path class="cls-5" d="M248.12,696.76c.28,0,.58,0,.87.06a4.08,4.08,0,0,1,.9.17,4.49,4.49,0,0,1,.86.33,5,5,0,0,1,.78.51,5.24,5.24,0,0,1,.68.66c.22.26.46.5.68.74s.42.45.64.64a14.88,14.88,0,0,0,1.42,1.25,15.14,15.14,0,0,0-.66-1.78c-.11-.26-.24-.53-.37-.82s-.28-.6-.44-.9a4.61,4.61,0,0,0-.68-1,4.46,4.46,0,0,0-1-.86,5.36,5.36,0,0,0-2.47-.84,4,4,0,0,0-1.25.06,4.17,4.17,0,0,0-1.05.34l1,1.43Z"/><path class="cls-5" d="M250.61,717.35a4,4,0,0,0,.51.86,4.6,4.6,0,0,0,1.75,1.39,5,5,0,0,0,2.31.43,5.59,5.59,0,0,0,1.11-.19,6.14,6.14,0,0,0,.62-.25l-.91-1.32c-.2,0-.41,0-.61,0a6.36,6.36,0,0,1-1.61-.36,5.15,5.15,0,0,1-1.42-.78,5.7,5.7,0,0,1-.6-.53l-.58-.54a10.67,10.67,0,0,0-1.37-1,11.28,11.28,0,0,0,.5,1.64C250.4,716.83,250.51,717.08,250.61,717.35Z"/><path class="cls-5" d="M262.78,718.16a10,10,0,0,0,1-1.58l-4.44-3.78a1.88,1.88,0,0,1,0,.41Z"/><path class="cls-5" d="M241.23,696.82a8.52,8.52,0,0,0-.78,1.11l4.18,4.17a1.82,1.82,0,0,1,0-.33Z"/><path class="cls-4" d="M213.87,684.08a8.37,8.37,0,0,0,3.51,9.43l12.1,7.21a8.4,8.4,0,0,0,10-1.4l8.7,5.19a2.47,2.47,0,0,0,2,.21,3,3,0,0,0,1.66-1.34,2.68,2.68,0,0,0-.74-3.72l-8.7-5.19a8.41,8.41,0,0,0-3.52-9.44l-12.1-7.2a8.37,8.37,0,0,0-10,1.4Zm8-1.78a3,3,0,0,1,1.92.37l12.1,7.21a2.87,2.87,0,0,1,1.24,1.51l-1.61-1a2.43,2.43,0,0,0-2-.21,3,3,0,0,0-1.66,1.33,2.69,2.69,0,0,0,.74,3.73l1.61,1a2.89,2.89,0,0,1-1.92-.36l-12.1-7.21a2.9,2.9,0,0,1-1.24-1.52Z"/><path class="cls-5" d="M220.1,681.15c.26-.11.54-.22.82-.31a3.78,3.78,0,0,1,.88-.22,4.74,4.74,0,0,1,.92-.06,4.64,4.64,0,0,1,.92.13,5.73,5.73,0,0,1,.9.32l.92.39c.31.11.57.23.85.31a17,17,0,0,0,1.82.55,16.31,16.31,0,0,0-1.35-1.34c-.2-.2-.44-.38-.67-.6s-.51-.42-.79-.63a5,5,0,0,0-1-.62,4.58,4.58,0,0,0-1.24-.37,5.45,5.45,0,0,0-2.6.26,3.94,3.94,0,0,0-1.11.59,3.86,3.86,0,0,0-.81.74l1.49.89Z"/><path class="cls-5" d="M231,698.81a3.49,3.49,0,0,0,.82.57,4.53,4.53,0,0,0,2.17.54,5,5,0,0,0,2.28-.58,5.23,5.23,0,0,0,.93-.63,5.16,5.16,0,0,0,.46-.49l-1.38-.82a5.77,5.77,0,0,1-.58.22,7.32,7.32,0,0,1-1.61.34,5.4,5.4,0,0,1-1.61-.12,5.11,5.11,0,0,1-.77-.23l-.76-.25a10,10,0,0,0-1.67-.38,10.27,10.27,0,0,0,1.13,1.28C230.55,698.44,230.75,698.62,231,698.81Z"/><path class="cls-5" d="M242.35,694.47a10.09,10.09,0,0,0,.29-1.87L237,691a1.56,1.56,0,0,1,.17.37Z"/><path class="cls-5" d="M213.86,684.07a10.79,10.79,0,0,0-.24,1.34l5.54,2a1.14,1.14,0,0,1-.13-.3Z"/><path class="cls-4" d="M187.51,686.64a8.39,8.39,0,0,0,7.44,6.79l14.05.89a8.38,8.38,0,0,0,8.23-5.8l10.12.64a2.42,2.42,0,0,0,1.84-.71,3,3,0,0,0,.88-2,2.7,2.7,0,0,0-2.36-3l-10.12-.64a8.38,8.38,0,0,0-7.43-6.79l-14.06-.89a8.38,8.38,0,0,0-8.23,5.8Zm6.35-5.25a2.87,2.87,0,0,1,1.88-.55l14.06.88a3,3,0,0,1,1.8.79l-1.88-.12a2.4,2.4,0,0,0-1.85.71A3,3,0,0,0,207,685a2.69,2.69,0,0,0,2.36,3l1.88.12a2.91,2.91,0,0,1-1.88.55l-14.06-.89a2.9,2.9,0,0,1-1.79-.78Z"/><path class="cls-5" d="M191.72,681.19c.18-.21.38-.44.59-.65a4,4,0,0,1,.68-.6,4.54,4.54,0,0,1,.8-.47,4.48,4.48,0,0,1,.87-.3,5.46,5.46,0,0,1,.94-.13c.35,0,.68,0,1-.08s.61-.05.89-.1a18.31,18.31,0,0,0,1.87-.34,15.64,15.64,0,0,0-1.81-.59c-.27-.08-.57-.14-.87-.22l-1-.2a5.64,5.64,0,0,0-1.19-.09,4.67,4.67,0,0,0-1.27.24,5.4,5.4,0,0,0-2.2,1.42,4,4,0,0,0-.72,1,3.91,3.91,0,0,0-.38,1l1.73.11Z"/><path class="cls-5" d="M209.44,692a3.77,3.77,0,0,0,1,.13,4.58,4.58,0,0,0,2.18-.51,5.12,5.12,0,0,0,1.77-1.56,5.52,5.52,0,0,0,.53-1,4.55,4.55,0,0,0,.19-.64l-1.6-.11a6,6,0,0,1-.42.46,7.12,7.12,0,0,1-1.27,1,5.51,5.51,0,0,1-1.49.63,6.15,6.15,0,0,1-.79.15c-.28,0-.55.07-.79.12a9.49,9.49,0,0,0-1.66.43,11.31,11.31,0,0,0,1.59.62Z"/><path class="cls-5" d="M217.6,682.89a10.56,10.56,0,0,0-.6-1.8l-5.72,1.16a1.35,1.35,0,0,1,.32.26Z"/><path class="cls-5" d="M187.51,686.64a9.3,9.3,0,0,0,.39,1.3l5.86-.71a1.71,1.71,0,0,1-.26-.21Z"/></g></g></svg>