<?xml version="1.0" encoding="utf-8"?>
<!-- Generator: Adobe Illustrator 26.0.0, SVG Export Plug-In . SVG Version: 6.00 Build 0)  -->
<svg version="1.1" id="Layer_1" xmlns="http://www.w3.org/2000/svg" xmlns:xlink="http://www.w3.org/1999/xlink" x="0px" y="0px"
	 viewBox="0 0 837.3 1537" style="enable-background:new 0 0 837.3 1537;" xml:space="preserve">
<style type="text/css">
	.st0{fill:none;}
	.st1{fill:url(#SVGID_1_);}
	.st2{fill-rule:evenodd;clip-rule:evenodd;fill:#7C5F0E;}
	.st3{fill-rule:evenodd;clip-rule:evenodd;fill:url(#SVGID_00000021101619357949409100000011071812870479679106_);}
	.st4{opacity:0.68;}
	.st5{fill-rule:evenodd;clip-rule:evenodd;fill:url(#SVGID_00000075124558656301743930000017151219141540105356_);}
	.st6{fill-rule:evenodd;clip-rule:evenodd;fill:#0A0A0A;}
	.st7{fill:url(#SVGID_00000152981853392026944620000003226422693052395430_);}
	.st8{fill:url(#SVGID_00000172413070834757902320000007798933422231597718_);}
	.st9{fill:#7C5F0E;}
	.st10{fill:url(#SVGID_00000018231301467632979690000005056919394431253694_);}
</style>
<g id="Layer_2_00000183238408804736535210000012938846608732593294_">
	<g id="base">
		<rect class="st0" width="837.3" height="1537"/>
	</g>
	<g id="Layer_30">
		
			<linearGradient id="SVGID_1_" gradientUnits="userSpaceOnUse" x1="650.26" y1="669.835" x2="727.72" y2="669.835" gradientTransform="matrix(1 0 0 -1 0 1538)">
			<stop  offset="1.000000e-02" style="stop-color:#705029"/>
			<stop  offset="1" style="stop-color:#54320C"/>
		</linearGradient>
		<polygon class="st1" points="650.3,881.7 652.9,862.3 724.1,854.7 727.7,876.3 		"/>
		<path class="st2" d="M637.4,418.7l-15.5,2c0,0,11.9,10.6-10.1,28.2c-13.1,10.4-35.8,20.5-48.8,24.5c0,0,32.8,4,46.7,1.1
			s37.5-34.5,39.7-38.2S637.4,418.7,637.4,418.7z"/>
		
			<linearGradient id="SVGID_00000005945983713920383840000003470492887531188149_" gradientUnits="userSpaceOnUse" x1="558.3542" y1="510.4557" x2="705.3902" y2="510.4557">
			<stop  offset="0" style="stop-color:#78684D"/>
			<stop  offset="0.5197" style="stop-color:#9C916D"/>
			<stop  offset="0.9934" style="stop-color:#78684D"/>
		</linearGradient>
		<path style="fill-rule:evenodd;clip-rule:evenodd;fill:url(#SVGID_00000005945983713920383840000003470492887531188149_);" d="
			M563,473.3c0,0,81.9-16.8,74.4-54.7c0,0,73.5,41.7,67.6,123.1c-20.3,42.2-39,48.7-127.1,60.5C545.7,570.7,563,473.3,563,473.3z"/>
		<g class="st4">
			<path class="st2" d="M586.5,511.9c0,0,48.7-4.5,79.8-43c0,0,38.4,44.6,36.9,99.3c-16.7,34.8-32,40.1-104.5,49.8
				C572.2,592,586.5,511.9,586.5,511.9z"/>
		</g>
		
			<linearGradient id="SVGID_00000078002749025433901360000008356781767911829380_" gradientUnits="userSpaceOnUse" x1="588.6354" y1="544.4481" x2="709.2629" y2="544.4481">
			<stop  offset="0" style="stop-color:#78684D"/>
			<stop  offset="0.5197" style="stop-color:#9C916D"/>
			<stop  offset="0.9934" style="stop-color:#78684D"/>
		</linearGradient>
		<path style="fill-rule:evenodd;clip-rule:evenodd;fill:url(#SVGID_00000078002749025433901360000008356781767911829380_);" d="
			M592.5,513.9c0,0,56.7-0.9,73.8-45c0,0,44.4,46.6,42.9,101.3c-16.7,34.8-32,40.1-104.5,49.8C578.2,594,592.5,513.9,592.5,513.9z"
			/>
		<path class="st6" d="M625,727c0,0,41.5-13,48.3-8.7s49-11.2,49-11.2l-3.7,100.4l-61.4,0.6c0,0-11.8-39.7-15.5-44.6
			S625,727,625,727z"/>
		
			<linearGradient id="SVGID_00000119112959856084456430000000508437518275055267_" gradientUnits="userSpaceOnUse" x1="639.49" y1="770.22" x2="721.24" y2="770.22" gradientTransform="matrix(1 0 0 -1 0 1538)">
			<stop  offset="1.000000e-02" style="stop-color:#705029"/>
			<stop  offset="1" style="stop-color:#54320C"/>
		</linearGradient>
		<polygon style="fill:url(#SVGID_00000119112959856084456430000000508437518275055267_);" points="647.8,782.5 639.5,760.8 
			721.2,753.1 720.4,775.9 		"/>
		
			<linearGradient id="SVGID_00000101798167859536606830000018402956602249669763_" gradientUnits="userSpaceOnUse" x1="623.1394" y1="793.735" x2="736.1307" y2="793.735">
			<stop  offset="0" style="stop-color:#78684D"/>
			<stop  offset="0.5197" style="stop-color:#9C916D"/>
			<stop  offset="0.9934" style="stop-color:#78684D"/>
		</linearGradient>
		<path style="fill:url(#SVGID_00000101798167859536606830000018402956602249669763_);" d="M657.6,891.5c0,0,11.5-9.7,39.4-10.2
			s39.1,10.7,39.1,10.7c-30.1-63.2-34.3-131.5-12.3-196.5l-100.7,9.8c14.4,30.2,24.5,61.3,30.3,93
			C659,829.2,660.4,860.4,657.6,891.5z"/>
		<g class="st4">
			<path class="st9" d="M664.2,907.2c0,0,8.2-9.7,28.9-10.7s29.4,9.9,29.4,9.9c-12.5-31.5-20.1-63.9-22.8-96.7
				c-3.3-39.8-15.3-74-10.1-97.9c-24.8,3.7-20.7,0.7-45.5,4.4c9.7,24.4,13.6,58,20,94.2C670.3,845.7,665,881.8,664.2,907.2z"/>
		</g>
		
			<linearGradient id="SVGID_00000044175740775896571340000008456147199768797085_" gradientUnits="userSpaceOnUse" x1="652.2275" y1="813.52" x2="730.6235" y2="813.52">
			<stop  offset="0" style="stop-color:#78684D"/>
			<stop  offset="0.5197" style="stop-color:#9C916D"/>
			<stop  offset="0.9934" style="stop-color:#78684D"/>
		</linearGradient>
		<path style="fill:url(#SVGID_00000044175740775896571340000008456147199768797085_);" d="M672.3,911.2c0,0,8.2-9.7,28.9-10.7
			s29.4,9.9,29.4,9.9c-12.5-31.5-20.1-63.9-22.8-96.7c-3.3-39.8-15.3-74-10.1-97.9c-24.8,3.7-20.7,0.7-45.5,4.4
			c9.7,24.4,13.6,58,20,94.2C678.4,849.7,673.1,885.8,672.3,911.2z"/>
	</g>
</g>
</svg>
