<svg xmlns="http://www.w3.org/2000/svg" xmlns:xlink="http://www.w3.org/1999/xlink" viewBox="0 0 837.33 1537"><defs><style>.cls-1,.cls-10{fill:none;}.cls-2{fill:#3a3a3a;}.cls-10,.cls-11,.cls-12,.cls-13,.cls-14,.cls-15,.cls-16,.cls-2,.cls-3,.cls-4,.cls-5,.cls-6,.cls-7,.cls-8,.cls-9{fill-rule:evenodd;}.cls-3{fill:#001c54;}.cls-4{fill:url(#linear-gradient);}.cls-5{fill:url(#linear-gradient-2);}.cls-6{fill:url(#linear-gradient-3);}.cls-7{fill:#606060;}.cls-8{fill:url(#linear-gradient-4);}.cls-9{fill:url(#linear-gradient-5);}.cls-10{stroke:#fff;stroke-miterlimit:10;stroke-width:10px;}.cls-11{fill:url(#linear-gradient-6);}.cls-12{fill:#898989;opacity:0.58;}.cls-13{fill:url(#linear-gradient-7);}.cls-14{fill:url(#linear-gradient-8);}.cls-15{fill:url(#linear-gradient-9);}.cls-16{fill:url(#linear-gradient-10);}</style><linearGradient id="linear-gradient" x1="262.89" y1="1125.13" x2="354.98" y2="1125.13" gradientUnits="userSpaceOnUse"><stop offset="0.01" stop-color="#231f20"/><stop offset="1" stop-color="#1a191a"/></linearGradient><linearGradient id="linear-gradient-2" x1="493.29" y1="1125.7" x2="550.28" y2="1125.7" xlink:href="#linear-gradient"/><linearGradient id="linear-gradient-3" x1="247.96" y1="1125.13" x2="273.08" y2="1125.13" gradientUnits="userSpaceOnUse"><stop offset="0" stop-color="#a1a1a1"/><stop offset="1" stop-color="#a1a1a1"/></linearGradient><linearGradient id="linear-gradient-4" x1="553.8" y1="1119.81" x2="604.51" y2="1119.81" xlink:href="#linear-gradient-3"/><linearGradient id="linear-gradient-5" x1="244.31" y1="906.33" x2="339.19" y2="906.33" xlink:href="#linear-gradient-3"/><linearGradient id="linear-gradient-6" x1="320.04" y1="801.98" x2="524.55" y2="801.98" xlink:href="#linear-gradient-3"/><linearGradient id="linear-gradient-7" x1="479.86" y1="920.25" x2="579.22" y2="920.25" xlink:href="#linear-gradient-3"/><linearGradient id="linear-gradient-8" x1="320.5" y1="780.48" x2="525.01" y2="780.48" xlink:href="#linear-gradient-3"/><linearGradient id="linear-gradient-9" x1="238.37" y1="900.42" x2="320.35" y2="900.42" xlink:href="#linear-gradient-3"/><linearGradient id="linear-gradient-10" x1="501.38" y1="920.25" x2="591.5" y2="920.25" xlink:href="#linear-gradient-3"/></defs><g id="Layer_2" data-name="Layer 2"><g id="base"><rect class="cls-1" width="837.33" height="1537"/></g><g id="Legs_04"><path class="cls-2" d="M582.47,1339s-4.77-4.21-21.62.3-40.47,22.05-40.47,22.05l-4.9-46.93s-17.15-60-17.15-82.45,11.42-76.76,11.86-80.83-28.61-58.39-34.73-80.83c-4.95-18.22-28.47-108.21-37.19-141.48-2-7.74-7.77-32-7.77-32l-28.92-7.73s9.07,39.78-5,89.56c-9.65,34-44.74,112.7-45,150,0,0,13.5,34.43,13.89,51.58.35,12.93-4.67,37-18.83,76.58-2.35,6.61-10.29,16.1-10.29,16.1-2.74,5.63-7.85,21.79-12.77,36.07s-17.54,45.55-20.24,46.83c-.39.19-24.6-23.36-63-41.73l3.67-30.62s1.37-4.85,3.53-13.47c5.07-20.29,7.65-37.15,12.22-72,1.7-13,3.15-28.85,8.88-48,0,0-7.39-48.85-8.86-76.33-.29-6,2.31-45.48,2.6-49.79.93-13.37,6-46,13.28-80.83,5.87-27.82,13.22-57,21-78.82,17.59-49,37.23-114.83,37.23-114.83s149.76,7.89,179.54-4.35l5.93,20.18,3.09,10.43S540.37,867.83,559.57,925c0,.2.15.4.19.59,19,57.22,15.73,155.29,19.8,180.57s22,80.1,24.49,117.67c1.66,25.62-7.68,49.33-9.93,63.48-1,6.62-2.62,13.28-2.62,13.28Z"/><polygon class="cls-3" points="346.94 794.29 346.94 962.66 405.3 1044.3 473.65 964.49 473.65 794.29 346.94 794.29"/><path class="cls-4" d="M262.89,1118.81s32.89-8,35.56-6.22,49.59,8.68,52.44,3,4.09,22.35,4.09,22.35-35.2-.88-39.2-3.11-32.61-5.8-40-1.33-12.89,4.44-12.89,4.44Z"/><path class="cls-5" d="M493.74,1112.59c2.67,1.78,49.6,8.68,52.45,3s4.09,22.35,4.09,22.35-41.43,2.22-45.43,0S491.08,1110.81,493.74,1112.59Z"/><path class="cls-6" d="M248.82,1125.13a210.46,210.46,0,0,0,12.65,49.68l11.61-15.94a164.35,164.35,0,0,1-6.52-70.52L252,1075.45A146,146,0,0,0,248.82,1125.13Z"/><path class="cls-7" d="M571.45,1073.62h-8.36a54,54,0,0,1-16.65,37.49,56,56,0,0,1,4,28.62,80.7,80.7,0,0,1,18.93,14.54,79.63,79.63,0,0,1,9.35,11.73h6.68Z"/><path class="cls-8" d="M568.81,1073.62a47.28,47.28,0,0,1-15,37.59,27.08,27.08,0,0,1,5.75,11.55,27.66,27.66,0,0,1-2.1,17.67,35.67,35.67,0,0,1,28,25.57,50.51,50.51,0,0,0,18.29-27.43,72.6,72.6,0,0,0-.76-25.35,71.53,71.53,0,0,0-2.91-10.07,46.82,46.82,0,0,0-31.26-29.53Z"/><path class="cls-9" d="M310.09,787s-35.49,71.1-42.3,139.57-7.27,62.53-23.48,99.1c14.38-4.89,53.78-31.62,81.39-27.67-15.61-82-.73-129.91,13.49-163C330.61,835,310.09,787,310.09,787Z"/><polygon class="cls-10" points="360.51 794.29 360.51 953.37 406.37 1017.51 460.07 954.8 460.07 794.29 360.51 794.29"/><path class="cls-11" d="M320,785.84a174.55,174.55,0,0,1,44.35,20c22.17,14,38.91,35.79,38.91,35.79s30.35-25.83,62-33.12c27.3-6.29,59.24-26.33,59.24-26.33s-3.74-5.71-3.74-19.82c0,0-67,11.88-110.53,10.87a852.15,852.15,0,0,1-85-6.76Z"/><path class="cls-12" d="M325.51,762.35s16.61,10.26,39.33,24.65c22.18,14,38.46,39.64,38.46,39.64s30.35-25.83,62-33.12c27.3-6.3,59.24-26.33,59.24-26.33s-9.28-14.69-9.28-28.8c0,0-61,3.47-104.53,2.46s-77.64,0-77.64,0Z"/><path class="cls-13" d="M521.78,799.17S487,831.53,479.86,847.52c23.77,32.79,26.63,130,18.4,147.27,32.89,5.36,56.23,36.32,81,46.55,0,0-9.53-20,0-35.68-2.8-10.85-3.09-75.47-4.22-83.76-3.41-24.95-28.56-92.49-28.56-92.49Z"/><path class="cls-14" d="M320.5,764.34a174.41,174.41,0,0,1,44.34,20c22.18,14,38.92,35.79,38.92,35.79s30.35-25.82,62-33.12c27.31-6.29,59.25-26.33,59.25-26.33s-3.74-5.71-3.74-19.82c0,0-67,7.53-110.53,6.51s-85-2.39-85-2.39Z"/><path class="cls-12" d="M301.91,807.71s-24.88,54-29.76,113.19-5.22,48.43-16.84,80c10.31-4.21,38.56-21.71,58.36-18.29-11.19-70.87-.52-116.51,9.68-145.11C317.19,837.51,301.91,807.71,301.91,807.71Z"/><path class="cls-15" d="M295.21,797.32s-30.67,61.43-36.55,120.58-6.28,54-20.29,85.62c12.42-4.22,46.47-27.32,70.32-23.9-13.48-70.87-.63-112.24,11.66-140.84C312.93,838.78,295.21,797.32,295.21,797.32Z"/><path class="cls-12" d="M533.21,813.19s-30.25,26.54-36.07,41c19.29,29.74,21.65,120.81,15,136.44,26.7,4.86,43.85,30.13,63.93,39.4,0,0-3.72-18.33,0-32.35-2.28-9.84-2.51-68.45-3.43-76-2.76-22.62-23.18-83.87-23.18-83.87Z"/><path class="cls-16" d="M539.41,810.44s-31.52,29.35-38,43.85c21.56,29.74,24.16,117.94,16.69,133.57,29.83,4.85,51,32.94,73.43,42.21,0,0-8.64-18.12,0-32.35-2.54-9.84-2.81-68.45-3.83-76-3.09-22.62-25.9-83.87-25.9-83.87Z"/></g></g></svg>