<svg xmlns="http://www.w3.org/2000/svg" viewBox="0 0 837.33 1537"><defs><style>.cls-1{isolation:isolate;}.cls-2{fill:none;}.cls-3{fill:#2e4359;}.cls-3,.cls-6,.cls-7,.cls-8{fill-rule:evenodd;}.cls-4,.cls-7{fill:#292f3a;}.cls-5{mix-blend-mode:multiply;opacity:0.33;}.cls-8{fill:#050505;opacity:0.41;}.cls-9{fill:#686868;}.cls-10{fill:#74cbe2;}</style></defs><g class="cls-1"><g id="Layer_2" data-name="Layer 2"><g id="base"><rect class="cls-2" width="837.33" height="1537"/></g><g id="Layer_27" data-name="Layer 27"><path class="cls-3" d="M499.36,296.42s1.06,56,12,83.89c0,0-39.22,53-84.43,50.21s-35.1-39.08-35.1-39.08,12.55-17.35,14.69-44.91S499.36,296.42,499.36,296.42Z"/><path class="cls-3" d="M658.77,474.9c6.2,9.72,18.39,32.51,4.3,54.4-11.58,18-57.41,33.17-71.72,53.78-4.47,6.43-9,12.85-13.41,19.18-15.89,22.61-26.32,53.61-45.09,75.4-24.2,28.1-19.43,67.31-19.43,67.31s1.2,80.22-93.75,83.7c-86.57,3.17-84.22-74.54-84.22-74.54-3.19-9.41-12.31-52.84-12.31-52.84l-3.9-31.47-4.1-6.51-7.56-74.47-13.18-5.53c-6.71-28.76-1.81-82.65-1.81-82.65-56.5-10-31.21-49-31.21-49,19-22.69,42.23-28.81,73.48-39.83,19.94-7.06,38.85-18.18,49.87-25.28l2.35-1.57c3.38-2.2,11.24-3.43,11.24-3.43s-7.22,9.31-5.36,18.28,14.11,33.85,56.19,23,57.76-57.32,57.76-57.32,8.81,5.15,13,8.72C533,385.69,558.25,403.08,589,418,629.38,437.57,658.77,474.9,658.77,474.9Z"/><path class="cls-2" d="M514.07,721.78a100.27,100.27,0,0,1,2.47-12.3l-2.47-.75Z"/><path class="cls-2" d="M512.93,752.18a60.51,60.51,0,0,0,.49-7.21,75.88,75.88,0,0,1-.38-7.73l-.11,0Z"/><polygon class="cls-2" points="311.99 632.23 312.17 634.04 335.63 620.65 311.99 632.23"/><path class="cls-2" d="M556.48,640.27l3.17-6.13-3.81,5.93Z"/><path class="cls-4" d="M400.37,702.42l-69.78,32.75c1.92,8.27,3.75,15.68,4.86,19a70.46,70.46,0,0,0,.82,11h78.89l94.89,1.37a92,92,0,0,0,2.88-14.28v-15Z"/><g class="cls-5"><path class="cls-6" d="M399.79,677.48l-73.38,33.79c1.44,6.69,3.87,17.92,6.18,27.9l69.78-32.75L514.93,741.2l.11,0a109.85,109.85,0,0,1,1-15.46v-13Z"/></g><path class="cls-7" d="M397.79,673.48l-73.38,33.79c1.44,6.69,3.87,17.92,6.18,27.9l69.78-32.75L512.93,737.2l.11,0a109.85,109.85,0,0,1,1-15.46v-13Z"/><g class="cls-5"><path class="cls-6" d="M322.32,682.52l2.82,22.77,1.27,6,73.38-33.79,116.28,35.25,2.47.75a82.07,82.07,0,0,1,12.52-27L400.33,644.29Z"/></g><path class="cls-7" d="M320.32,678.52l2.82,22.77,1.27,6,73.38-33.79,116.28,35.25,2.47.75a82.07,82.07,0,0,1,12.52-27L398.33,640.29Z"/><g class="cls-5"><path class="cls-6" d="M556.09,646.79l-159-51.28-59.48,29.14L314.17,638l3,29.27,4.1,6.51,1.08,8.7,78-38.23,130.73,42.18c1.18-1.63,2.44-3.24,3.79-4.81,9.39-10.9,16.69-24.09,23.63-37.39l-.64-.2Z"/></g><path class="cls-7" d="M554.09,642.79l-159-51.28-59.48,29.14L312.17,634l3,29.27,4.1,6.51,1.08,8.7,78-38.23,130.73,42.18c1.18-1.63,2.44-3.24,3.79-4.81,9.39-10.9,16.69-24.09,23.63-37.39l-.64-.2Z"/><g class="cls-5"><path class="cls-6" d="M300.85,589.17l8.73,3.67L314,636.23l23.64-11.58,59.48-29.14,159,51.28,1.75-2.72,3.81-5.93c5.82-11.24,11.57-22.31,18.29-31.88l3.86-5.51L388.91,538.89Z"/></g><path class="cls-7" d="M298.85,585.17l8.73,3.67L312,632.23l23.64-11.58,59.48-29.14,159,51.28,1.75-2.72,3.81-5.93c5.82-11.24,11.57-22.31,18.29-31.88l3.86-5.51L386.91,534.89Z"/><path class="cls-8" d="M309.17,594.45v10.06s13.89,3.18,33.45-4.79,43.85-27.86,57.27-28.34c34.43-1.21,107.88,37.31,123,33.13,26.25-7.25,30.34-27.7,25.25-40.41s-134.67-7.69-137.43-7.69-84.84,21.05-84.84,21.05Z"/><path class="cls-7" d="M301.22,597.16c72,2,54.49-27.1,92.21-29.84,41-3,47.28,5.83,105.76,22.15,92.08,25.69,14.31-61.38,72.25-120.36,16.23-16.52,35.48-29.84,44.33-34.81-9.07-8.83-41.63-27.28-58-33.28-84.91,7.91-137-25.54-152.45-24.34-34.71,2.7-41.31,26-69.67,46.53-3.55,2.56-4.56-6.34-11.82-8-8.65-2-38.68,15.52-41.36,18.2-3.6,3.61,1.82,22.84,1.92,28.87C284.91,493.22,272.68,550.42,301.22,597.16Z"/><path class="cls-9" d="M397.59,387.11c-3.64,10.66-7.36,21.6-9.09,32.65a189.46,189.46,0,0,0-2.25,33.35c.11,5.56.44,11.1,1.07,16.61s1.4,11,2.49,16.4c2.16,10.84,3.42,16.53,7.36,26.78l-1.65,31.6c-3.33-11.06-11.72-45.81-13.11-57.2-.72-5.7-1.12-11.42-1.33-17.14s-.14-11.44.17-17.14a192.91,192.91,0,0,1,4.8-33.73C388.62,408.24,393.17,397.47,397.59,387.11Z"/><path class="cls-9" d="M396.27,597.49a83.42,83.42,0,0,0-.85,8.54c-.15,2.92-.16,5.9,0,8.9.06,1.49.15,3,.28,4.49s.28,3,.48,4.48a74.34,74.34,0,0,0,1.23,7.41l0,8.44c-.55-3.07-2-12.65-2.27-15.75-.15-1.55-.25-3.1-.33-4.64s-.11-3.08-.11-4.6c0-3,.12-6,.38-8.93A81.61,81.61,0,0,1,396.27,597.49Z"/><path class="cls-9" d="M399.71,645.75c-4,9.34-1.55,19.93-1.57,25.69C396.62,663.31,395.71,654.75,399.71,645.75Z"/><path class="cls-9" d="M398.67,679.23c-1.76,10,3.1,19.75,4.4,25.36C399.72,697,396.85,688.91,398.67,679.23Z"/><path class="cls-10" d="M583.38,413.19c-.71.16-5.38.89-6.2,1.12s-1.67.49-2.51.76q-2.52.78-5,1.7c-3.32,1.22-6.6,2.59-9.81,4.09a117,117,0,0,0-18.39,10.68c-11.56,8.21-21.47,18.9-27.93,31.62a78.84,78.84,0,0,0-4.21,9.82c-1.16,3.34-2.2,6.93-3.38,10.38-2.33,6.95-4.91,13.83-7.91,20.53-1.49,3.35-3.1,6.65-4.87,9.87a84.36,84.36,0,0,1-5.86,9.33,43.06,43.06,0,0,1-7.48,8.07,20.16,20.16,0,0,1-4.68,2.89,11.55,11.55,0,0,1-2.62.82,6.79,6.79,0,0,1-2.73,0,6.65,6.65,0,0,0,2.7-.14,11.42,11.42,0,0,0,2.55-.92,20,20,0,0,0,4.47-3.05,42.51,42.51,0,0,0,7-8.26,80.53,80.53,0,0,0,5.35-9.45c1.61-3.24,3.05-6.57,4.37-10,2.66-6.75,4.9-13.66,6.9-20.64,1-3.5,1.85-7,2.92-10.57A83.46,83.46,0,0,1,510,461.44c6.17-13.66,16.13-25.47,27.92-34.68a121.87,121.87,0,0,1,18.87-12.16c3.32-1.74,6.71-3.35,10.17-4.8,1.74-.73,4.42-2,5.47-2.33Z"/><path class="cls-10" d="M336.55,544.59a11.18,11.18,0,0,1-2.13-1.68,19.35,19.35,0,0,1-3.29-4.29,42.57,42.57,0,0,1-4-10A84,84,0,0,1,325,517.94c-.5-3.59-.82-7.21-1-10.83-.41-7.24-.37-14.5-.07-21.76.13-3.64.42-7.19.54-11a83.62,83.62,0,0,0-.44-11.18c-1.56-14.89-7.31-29.24-15.62-41.69-.44-.67-.9-1.34-1.36-2a46.84,46.84,0,0,1-5.58,2.79c.69.87,1.38,1.74,2,2.63,8.4,11.42,14.45,24.68,16.6,38.78a80.68,80.68,0,0,1,.91,10.65c.06,3.53-.08,7.28,0,10.92,0,7.33.32,14.67,1.06,22,.36,3.65.86,7.29,1.53,10.9a85.65,85.65,0,0,0,2.63,10.7,43.33,43.33,0,0,0,4.57,10,20.45,20.45,0,0,0,3.54,4.22,11.37,11.37,0,0,0,2.24,1.59,6.6,6.6,0,0,0,2.58.88A6.7,6.7,0,0,1,336.55,544.59Z"/><path class="cls-10" d="M545.76,562.69c-11.4,0-19.28-2.78-24.07-8.49-9.08-10.84-5.19-30.44-1.07-51.18,1.21-6.11,2.47-12.42,3.41-18.62,5.82-38.1,68.5-63.28,71.21-64.35l3.51,2c-.64.26-66.19,26.37-71.75,62.76-1,6.27-2.22,12.61-3.44,18.75-4,20-7.73,38.93.43,48.67,4.37,5.21,12.85,6.83,24.06,6.6l.1,3.82Z"/><path class="cls-10" d="M307.67,492.78c-1.33-10.22-2.71-20.79-3.6-30.66-1.75-19.62-8.87-29.6-13.91-34.31a16.18,16.18,0,0,1-2.76,1.61c4.55,4,11.94,13.41,13.69,33,.88,9.93,2.27,20.53,3.6,30.78,4.08,31.2,8.29,63.46-2.15,74.86-2.92,3.2-7.48,4.57-12.67,4.35,0,0,1,4,1.37,4a18.31,18.31,0,0,0,13.52-6.32C316.13,557.62,312,526.13,307.67,492.78Z"/></g></g></g></svg>