<svg xmlns="http://www.w3.org/2000/svg" xmlns:xlink="http://www.w3.org/1999/xlink" viewBox="0 0 837.33 1537"><defs><style>.cls-1{fill:none;}.cls-2,.cls-3,.cls-5,.cls-6{fill-rule:evenodd;}.cls-2{fill:url(#Áåçûìÿííûé_ãðàäèåíò_100);}.cls-3{fill:#260e0b;}.cls-4{fill:#6b828e;}.cls-5{fill:url(#linear-gradient);}.cls-6{fill:url(#linear-gradient-2);}</style><linearGradient id="Áåçûìÿííûé_ãðàäèåíò_100" x1="263.67" y1="1361.51" x2="263" y2="1313.72" gradientUnits="userSpaceOnUse"><stop offset="0" stop-color="#ffa486"/><stop offset="1" stop-color="#ffb886"/></linearGradient><linearGradient id="linear-gradient" x1="229.21" y1="1313.67" x2="337.84" y2="1313.67" gradientUnits="userSpaceOnUse"><stop offset="0.01" stop-color="#705029"/><stop offset="1" stop-color="#54320c"/></linearGradient><linearGradient id="linear-gradient-2" x1="503.04" y1="1315.24" x2="610.65" y2="1315.24" xlink:href="#linear-gradient"/></defs><g id="Layer_2" data-name="Layer 2"><g id="base"><rect class="cls-1" width="837.33" height="1537"/></g><g id="feet_02"><path class="cls-2" d="M240.33,1314l-12.65,35.31s36.74,15.72,50.82,11.23,20.82-11.23,20.82-11.23S258.5,1316.08,240.33,1314Z"/><path class="cls-3" d="M317.22,1386.22c.83,7.45.89,20.65.89,27.56,0,14.11-7.74,21.91-7.74,21.91s-60,.83-85.93,4c-1.71.2-3.33.39-4.7.64-22.39,3.67-41.05,7.93-57,8.86s-50.51-1.22-70.4-21.75a54.94,54.94,0,0,1,3.24-11.31c2.25-5.64,5.92-12.2,11.75-16.76,0,0,31.6-3.43,55.9-16.51a74.41,74.41,0,0,0,11.46-7.44c24.15-19.3,49.61-21.61,49.61-21.61s2.49-8.87,6.28-22.63c1.4-5.1-1-10.69-.14-17.11,1.72-13.7,4.89-21.93,7.62-32.11,2.61-9.71-2.49-22.25.09-32.13.75-2.88-.25-6.42.48-9.26,1.1-4.26,3.47-7.78,3.79-11.88,1.13-14.17,11.56-21.39,13.74-31.37,0,0,59.79,5.91,65.92,4s32.32,4.35,40,4.35l-4.58,43.12-4.65,12.08c-.19,1.65-3.53,8.17-4.34,9.61l-3.41,5.58a48.67,48.67,0,0,0-1.86,5.58l-5.15,7.41a12.23,12.23,0,0,0-.48,3.81l.19,5.9a12.36,12.36,0,0,1-1.78,6.78l-4.28,7.09a12.46,12.46,0,0,0-1.3,3l-1.68,5.84a12.5,12.5,0,0,0-.47,3.8l.26,8.44a12.41,12.41,0,0,1-2.14,7.35l-5.68,8.31S314.77,1363.59,317.22,1386.22Z"/><path class="cls-3" d="M687.77,1435.4c.73,14.94-5.73,23.86-5.73,23.86-37.38,15-96.46,8.71-110.86,3.38l0-.05c-1.13-.4-2.2-.79-3.23-1.18-7.2-2.84-12.25-5.44-24.55-11.32-3-1.47-6.27-3.18-9.55-5-12-6.81-24.15-15.09-24.15-15.09-1-5.29-2-7.69-2.5-10.48a41.87,41.87,0,0,1-.34-8.92c.93-18.81,11.64-33.88,11.64-33.88s-25.73-156.45-24.11-160.43c7.68-19,118.3-11,118.3-11,2.45,7.94-8.35,149.63-8.35,149.63l.05.05a74.87,74.87,0,0,0,6.71,13.33l.05,0a143.41,143.41,0,0,0,17.69,23.32c8,8.67,19.74,16.41,30.52,22.44a.15.15,0,0,0,.1,0,251.41,251.41,0,0,0,27.23,13A53,53,0,0,1,687.77,1435.4Z"/><path class="cls-4" d="M383.21,1221.85a6.76,6.76,0,0,0-4.63-6.22c-2-.52-1.75,2.59-2.5,4.1-.1.18-.45.24-.87.44l-.66-.93c-.24-16-5.3-23-9.48-26.4-14.32-11.79-36.13,3.22-70.23-3.74A99.25,99.25,0,0,1,267.25,1179c-9.62-.63-16.93,4.78-21.53,11.55-2.22,3.28-.19,8.79-.47,13.59-5.05,5.41-7.48,12.45-10.2,19.36,3.18-1.2,5.22-4.11,9.07-4.76a24.67,24.67,0,0,0-2,14.22c2.52-2.29,4.15-4.75,7.24-5.79-.14,4.85-.5,9.33.86,14.14,2.5-2.94,2.87-6.87,6.34-8.48,1.32,3.1,2.51,6,3.81,8.92.93,2.08,2.2,2.52,4.1.81,2.15-1.92,4.49-3.63,7-5.62a7.78,7.78,0,0,1-.62,5.93c-2,3.52-.28,3.89,2.73,3.62a46.63,46.63,0,0,0,16.19-4.29c.63,3.19-1.55,5.3-2.14,8.57,5.43-1.6,7.61-6.28,11.32-9.55a27.22,27.22,0,0,1,.47,10.4c-.23,1.35.17,2.73,1.48,1.63a12.42,12.42,0,0,1,4.35-2.13,11.43,11.43,0,0,0,5.2-4c.75-1,1.58-2.91,3-2.43s1,2.48.77,3.72c-.64,4.11,1.46,3.93,4,2.6s4.82-3,7.24-4.54a4.63,4.63,0,0,1,.41,3.8c-.63,3.35.93,3.21,3.1,2a37.22,37.22,0,0,0,7.26-5.52c2.15-2.06,3.64-4.83,6.7-6.67.42,2.27.82,4.12,1.08,6,.16,1.15.51,1.65,1.82,1.58,6.1-.36,12.77-5.89,14.7-12a15.32,15.32,0,0,0,4.67-1.64c1.25.33,2.24,1.08,2.11,2.23-.43,4,1.59,3.75,4.22,2.92A17.18,17.18,0,0,0,383.21,1221.85Z"/><path class="cls-4" d="M476.4,1230.2A6.74,6.74,0,0,1,481,1224c2-.52,1.76,2.6,2.51,4.1.09.19.44.24.86.45.23-.31.45-.63.67-.94.23-15.95,5.29-22.94,9.48-26.39,14.31-11.8,36.12,3.22,70.22-3.75a99.47,99.47,0,0,0,27.6-10.15c9.61-.62,16.93,4.78,21.52,11.55,2.22,3.28.2,8.79.47,13.59,5.06,5.41,7.48,12.45,10.21,19.36-3.18-1.19-5.22-4.11-9.08-4.76a24.6,24.6,0,0,1,2,14.22c-2.52-2.28-4.14-4.75-7.24-5.78.15,4.84.5,9.33-.86,14.14-2.5-2.95-2.87-6.88-6.34-8.49-1.31,3.1-2.51,6-3.8,8.92-.94,2.08-2.21,2.52-4.11.82-2.15-1.93-4.49-3.64-7-5.63a7.78,7.78,0,0,0,.62,5.93c2,3.52.29,3.89-2.73,3.62a46.69,46.69,0,0,1-16.19-4.29c-.63,3.2,1.56,5.3,2.14,8.57-5.43-1.59-7.6-6.28-11.32-9.55a27,27,0,0,0-.46,10.4c.22,1.36-.17,2.74-1.48,1.63a12.46,12.46,0,0,0-4.36-2.13,11.41,11.41,0,0,1-5.19-4c-.76-1-1.58-2.9-3-2.43s-1,2.48-.78,3.72c.65,4.11-1.46,3.93-4,2.61s-4.82-3-7.25-4.54a4.64,4.64,0,0,0-.41,3.79c.63,3.35-.92,3.21-3.1,2a36.83,36.83,0,0,1-7.26-5.52c-2.15-2-3.64-4.83-6.7-6.67-.41,2.27-.81,4.12-1.08,6-.16,1.16-.51,1.65-1.82,1.58-6.09-.35-12.77-5.89-14.7-12a15.24,15.24,0,0,1-4.67-1.64c-1.25.33-2.23,1.08-2.11,2.24.43,4-1.59,3.75-4.22,2.92A17.17,17.17,0,0,1,476.4,1230.2Z"/><path class="cls-5" d="M282.07,1269.33c-3.17-2.29-5.9-4.27-8.22-5.62-5.44-3.17-24.44-9-36-12.38a39,39,0,0,0-.16,10.38c12.88,3.83,27.45,8.51,31.11,10.64,1.9,1.11,4.57,3,7.41,5.08,7.76,5.61,17.43,12.6,26.07,14,4.12.7,11,3.58,17.63,6.71-12.47,1.39-28.12,3.75-35,7.34-6,3.1-11.76,4.17-16.87,5.12a45,45,0,0,0-10.25,2.7L231,1325.49a16.66,16.66,0,0,1-.38,5.66l-1.4,5.08c4.91,3.24,18.09,11.4,26.23,11.4,7.61,0,23.71,3.93,27.3,6.25L316.63,1376a91.74,91.74,0,0,1,.67-11.66l-29.13-18.85c-6-3.9-24.12-7.86-32.73-7.86-2.95,0-8.77-2.69-14.23-5.79l20.71-9.38a38.16,38.16,0,0,1,7.94-2c5.52-1,12.38-2.29,19.67-6.08,7.68-4,33.57-6.68,45.79-7.61l.74-1.24a12.36,12.36,0,0,0,1.78-6.78l-.09-2.77c-6.54-3.53-24.3-12.78-33.8-14.38C297.61,1280.55,288.63,1274.07,282.07,1269.33Z"/><path class="cls-6" d="M552.33,1359.56c9.25,3.56,20.21,7.78,29,7.78a18.56,18.56,0,0,0,7.49-1.38,126.93,126.93,0,0,1,16.73-6.26,5.3,5.3,0,0,0,.7-.26,44,44,0,0,1-1.92-4.53l-.05-.05s.14-1.79.38-5a4.82,4.82,0,0,0-1.64.13,132.24,132.24,0,0,0-18.24,6.78c-5.49,2.42-20.12-3.22-28.86-6.58-6.22-2.4-9.86-3.76-12.53-4-2.33-.21-9.4-3.57-17-7.67l21.81-6.48c4-1.18,20.42-1.69,28.29-.56,8.85,1.26,26-4.12,28-4.74a5,5,0,0,0,2-1.17c.15-2.15.31-4.36.47-6.65a5.07,5.07,0,0,0-1.76-1.44l-27.63-13.42a57.25,57.25,0,0,0-9.61-3.25,76.83,76.83,0,0,1-16.5-6.1c-5.16-2.78-16.11-5.83-26.53-8.33a70.51,70.51,0,0,1,10.65-.94c8.44.18,18.61-3.32,26.79-6.14,3.15-1.08,5.87-2,7.88-2.53,4.75-1.22,25.11-2.73,39.81-3.6.22-3.38.43-6.74.63-10-9.15.53-36.09,2.22-42.92,4-2.4.61-5.3,1.61-8.65,2.77-7.43,2.56-16.68,5.75-23.32,5.59H535c-8.73,0-24.48,3.23-32,4.9l1.85,11.88c12.94,2.66,35,7.66,41.78,11.3a86.16,86.16,0,0,0,18.56,6.93,53.23,53.23,0,0,1,7.93,2.61l15.43,7.5c-4.24.85-8.26,1.37-10.64,1-8.26-1.18-26.49-.93-32.55.88l-33.06,9.81a5.18,5.18,0,0,0-1,.45c.54,3.32,1.06,6.55,1.56,9.63,6.92,4.08,23,13.2,29.61,13.8C543.9,1356.31,548.58,1358.11,552.33,1359.56Z"/></g></g></svg>