<svg xmlns="http://www.w3.org/2000/svg" xmlns:xlink="http://www.w3.org/1999/xlink" viewBox="0 0 837.33 1537"><defs><style>.cls-1{fill:none;}.cls-2{fill:url(#linear-gradient);}.cls-3{fill:url(#linear-gradient-2);}.cls-4{fill:url(#linear-gradient-3);}.cls-14,.cls-15,.cls-16,.cls-5,.cls-6,.cls-7{opacity:0.61;}.cls-5{fill:url(#linear-gradient-4);}.cls-6{fill:url(#linear-gradient-5);}.cls-7{fill:url(#linear-gradient-6);}.cls-8{fill:url(#linear-gradient-7);}.cls-9{fill:url(#linear-gradient-8);}.cls-10,.cls-11{opacity:0.35;}.cls-10{fill:url(#linear-gradient-9);}.cls-11{fill:url(#linear-gradient-10);}.cls-12{opacity:0.53;fill:url(#linear-gradient-11);}.cls-13{opacity:0.24;fill:url(#linear-gradient-12);}.cls-14{fill:url(#linear-gradient-13);}.cls-15{fill:url(#linear-gradient-14);}.cls-16{fill:url(#linear-gradient-15);}.cls-17{fill:url(#linear-gradient-16);}.cls-18{fill:url(#linear-gradient-17);}.cls-19{fill:#27c1c1;}.cls-20{fill:url(#linear-gradient-18);}.cls-21{fill:url(#linear-gradient-19);}</style><linearGradient id="linear-gradient" x1="548.01" y1="273.21" x2="548.01" y2="272.16" gradientUnits="userSpaceOnUse"><stop offset="0.09" stop-color="#293538"/><stop offset="0.73" stop-color="#1a1927"/><stop offset="0.83" stop-color="#1d1e2a"/><stop offset="0.95" stop-color="#252d33"/><stop offset="1" stop-color="#293538"/></linearGradient><linearGradient id="linear-gradient-2" x1="452.17" y1="320.71" x2="452.17" y2="90.48" xlink:href="#linear-gradient"/><linearGradient id="linear-gradient-3" x1="493.04" y1="250.92" x2="493.04" y2="133.3" gradientTransform="translate(-28.55 163.13) rotate(-19.07)" xlink:href="#linear-gradient"/><linearGradient id="linear-gradient-4" x1="324.66" y1="80.9" x2="324.66" y2="8.09" gradientTransform="matrix(0.95, 0.35, -0.66, 1.09, 144.61, -25.61)" xlink:href="#linear-gradient"/><linearGradient id="linear-gradient-5" x1="381.69" y1="94.19" x2="381.69" y2="21.38" gradientTransform="translate(698.49 346.31) rotate(-160.32)" xlink:href="#linear-gradient"/><linearGradient id="linear-gradient-6" x1="323.51" y1="88.67" x2="323.51" y2="15.86" gradientTransform="matrix(-0.5, 0.87, 0.87, 0.5, 517.64, -167.51)" xlink:href="#linear-gradient"/><linearGradient id="linear-gradient-7" x1="504.49" y1="235.03" x2="504.49" y2="117.41" gradientTransform="translate(-10.62 311.63) rotate(-35.03)" xlink:href="#linear-gradient"/><linearGradient id="linear-gradient-8" x1="505.4" y1="222.21" x2="505.4" y2="104.59" gradientTransform="translate(138.21 553.71) rotate(-65.82)" xlink:href="#linear-gradient"/><linearGradient id="linear-gradient-9" x1="553.42" y1="205.76" x2="553.42" y2="88.14" gradientTransform="matrix(0.36, 0.93, 0.93, -0.36, 150.64, -224.87)" xlink:href="#linear-gradient"/><linearGradient id="linear-gradient-10" x1="535.14" y1="196.94" x2="535.14" y2="79.32" gradientTransform="matrix(-0.58, 0.81, 0.81, 0.58, 706.23, -319.49)" xlink:href="#linear-gradient"/><linearGradient id="linear-gradient-11" x1="523.63" y1="233.45" x2="523.63" y2="90.97" gradientTransform="matrix(0.36, 0.93, 0.93, -0.36, 150.64, -224.87)" xlink:href="#linear-gradient"/><linearGradient id="linear-gradient-12" x1="497.82" y1="228.15" x2="497.82" y2="110.53" gradientTransform="translate(29.11 407.98) rotate(-46.62)" xlink:href="#linear-gradient"/><linearGradient id="linear-gradient-13" x1="507.6" y1="210.97" x2="507.6" y2="93.35" gradientTransform="translate(172.27 570.27) rotate(-70.2)" xlink:href="#linear-gradient"/><linearGradient id="linear-gradient-14" x1="495.85" y1="187.52" x2="495.85" y2="69.9" gradientTransform="matrix(0, -1.02, 1.16, 0.12, 315.32, 645.22)" xlink:href="#linear-gradient"/><linearGradient id="linear-gradient-15" x1="507.98" y1="175.33" x2="507.98" y2="57.71" gradientTransform="translate(29.11 407.98) rotate(-46.62)" xlink:href="#linear-gradient"/><linearGradient id="linear-gradient-16" x1="454.42" y1="244.47" x2="454.42" y2="108.07" xlink:href="#linear-gradient"/><linearGradient id="linear-gradient-17" x1="422.75" y1="199.98" x2="422.75" y2="114.35" xlink:href="#linear-gradient"/><linearGradient id="linear-gradient-18" x1="353.02" y1="166.57" x2="353.02" y2="115.89" xlink:href="#linear-gradient"/><linearGradient id="linear-gradient-19" x1="320.62" y1="190.72" x2="390.56" y2="190.72" xlink:href="#linear-gradient"/></defs><g id="Layer_2" data-name="Layer 2"><g id="base"><rect class="cls-1" width="837.33" height="1537"/></g><g id="hair_10"><path class="cls-2" d="M546.06,272.16a9.83,9.83,0,0,0,3.91,1S548.31,272.85,546.06,272.16Z"/><path class="cls-3" d="M551.34,230.41c13.51-4.16,18.7-12.47,18.7-12.47-12.46,3.12-11.42-12.47-11.42-12.47a18.83,18.83,0,0,1,18.7-6.23c0-9.35-20.78-12.47-20.78-12.47,7.27-7.27,15.58-3.11,9.35-6.23s-20.78-7.27-20.78-7.27c5.2-5.2,18.7-4.16,18.7-4.16-7.27-8.31-18.7-11.42-18.7-11.42,7.27-7.28,4.16-9.35,4.16-9.35-16.63,7.27-12.47,0-12.47,0,7.27-4.16,6.23-20.78,6.23-20.78-26,11.43-22.22,5.51-22.22,5.51l-2.71-13.82c-15.58,8.31-54.43-10.07-54.43-10.07,10.39-4.16,16.62-18.7,16.62-18.7-4.42,5.41-16.53,11-28.06,15.49a22.66,22.66,0,0,0-3.3,0,137.49,137.49,0,0,0-18.46,2.53c3.08-4.62,7.23-9.69,7.23-9.69-7.66,1.28-14.93,5.69-19.4,8.91-1.82-.6-3.37.14-4.71,1.36-1.72-13.78-10.17-17.54-10.17-17.54,6,20.17-11.11,26.3-22.73,30.08-4.74.77-9.37,1.56-12.59,3.2-3.23-4.77-6.17-18.88-6.17-18.88-6.49,6.49-8.86,22.74-9.69,35.57l-.25.44c-2.44,4.63-3.31,9.62-4.61,14.51a145.68,145.68,0,0,1-12.15-9.86c-3.88,11.64,3.25,22.16,7.1,26.74a31.58,31.58,0,0,0-6.9,6.1q-2.48,4.05-5,8.06A45.41,45.41,0,0,0,327,200a156.42,156.42,0,0,1,14-12.55c-.48,7.84,14.69,22.7,14.69,22.7s2.5-12.53,9.52-18.38c2.59-2.16,4.32-14,4.32-14s1.61-12.09,9.72-3.25c2.25,2.45,4.41-9.42,4.41-9.42,1.74-.93,4.41-2,6.08,1.48,5.25-2.1,4.2-5.27,6.59-5.85,2,7.86,5.9,19.89,11.41,25.18-.88-5.53-3.4-17.58-5.28-26.38l.82-.12c4.81,13.59,15.57,35.82,34.45,35.25-6.69-10.12-13.83-28-13.83-28l19.45,13.24,29.48,2.87c1,2.64,2,5.26,2.87,7.74l5.63,20.65,4.39,3a41.22,41.22,0,0,1,1.92,5.21l-3.23-1.67a109.23,109.23,0,0,1,1.67,24.3c-.69,12.69-1.67,28.21-1.67,28.21h4.46s9.65-19.35,22.39-24.68c0,0,.11-.31.32-.84a37,37,0,0,1,3.73-1.2s11.63,3.51,10,20.29c0,0-3.12,29.39-24.5,33.1a12.41,12.41,0,0,1-2.18,0l1.13,23.8s3.83,0,8.61-9.09c3.41-6.48,1.95-10.51.84-12.3,5.45,7.19,6.33,13.26,6.33,13.26,2.59-3.54,3.32-5.91,3.4-7.41,3.51,11.07,16.67,9.8,16.67,9.8-8.6-8.13-3.34-7.65-3.34-7.65,10,4.3,31.06,1,31.06,1-20.07,2.87-27.72-12.91-27.72-12.91l5.26-4.3c-5.74-2.39-12.93-18.34-12.93-18.34a55.5,55.5,0,0,0,10.51,11c1.53-3.44-2.44-13.91-4.09-18,2,3,7.73,5.19,11.65,6.39-5.47-3-1.34-10.9-1.34-10.9,6.21-4.3,17.2,6.22,17.2,6.22a22.63,22.63,0,0,0-3.82-16.26A48.58,48.58,0,0,0,573.16,246C557.58,245,551.34,230.41,551.34,230.41Z"/><path class="cls-4" d="M528.53,214.41a28,28,0,0,1-4-2.24,32.69,32.69,0,0,1-3.59-2.7c-4.53-3.84-8.46-8.57-12.72-13.57s-8.75-10.28-13.92-15.34a105.93,105.93,0,0,0-17.52-14c-1.62-1.05-3.29-2-5-3-.39-.22-.8-.42-1.2-.64,2.51,4.41,3.12,9.64,3.82,14.74,0,.12,0,.21,0,.29.08.54.16,1.09.27,1.63a41.78,41.78,0,0,0,1.56,5.26,73.44,73.44,0,0,1,3.49,12h-.06a20.89,20.89,0,0,1,.4,2.57,8.41,8.41,0,0,1-.05,2.08c4.78,3.14,9.73,6.52,15.14,9.83a102.67,102.67,0,0,0,9.71,5.3,53.18,53.18,0,0,0,11,3.9,39.55,39.55,0,0,0,5.93.83,32.13,32.13,0,0,0,5.9-.23,26.39,26.39,0,0,0,10.5-3.84A37.85,37.85,0,0,1,528.53,214.41Z"/><path class="cls-5" d="M416.93,166.74a16.79,16.79,0,0,1-.41-3,22.41,22.41,0,0,1,0-3.06A89.15,89.15,0,0,1,419,147.55c1.09-4.65,2.23-9.57,3-14.65a72,72,0,0,0,.71-15.45c-.08-1.29-.23-2.55-.41-3.81,0-.3-.09-.59-.13-.88-1.48,3.57-4.23,6.8-6.87,10l-.15.18c-.28.34-.56.69-.83,1-.88,1.17-1.62,2.42-2.37,3.65a73.15,73.15,0,0,1-5.46,8.33l0,0c-.4.55-.84,1.1-1.31,1.64a10,10,0,0,1-1.22,1.15c.21,3.83.34,7.86.72,12.05a57.86,57.86,0,0,0,1,7.15,26.92,26.92,0,0,0,2.4,6.92,18.11,18.11,0,0,0,2,3,14.39,14.39,0,0,0,2.62,2.38,13.46,13.46,0,0,0,6.62,2.3A18.4,18.4,0,0,1,416.93,166.74Z"/><path class="cls-6" d="M356.8,137.55a18.6,18.6,0,0,1,1.07,2.65,20.81,20.81,0,0,1,.69,2.69,72,72,0,0,1,.88,11.48c.11,4.06.25,8.35.78,12.8a65.93,65.93,0,0,0,3,13.56c.37,1.14.81,2.26,1.26,3.37l.34.78c.49-3.1,2.22-5.87,3.86-8.6l.09-.15c.18-.3.35-.59.51-.9a24.59,24.59,0,0,0,1.28-3.14,44.48,44.48,0,0,1,3-7.17l0,0a11.66,11.66,0,0,1,.8-1.4,5.36,5.36,0,0,1,.83-1c-1.1-3.37-2.17-6.92-3.5-10.62a65.43,65.43,0,0,0-2.64-6.32,33.65,33.65,0,0,0-3.81-6.15,26,26,0,0,0-2.54-2.7,20.24,20.24,0,0,0-2.94-2.17,16.4,16.4,0,0,0-6.56-2.22A23.59,23.59,0,0,1,356.8,137.55Z"/><path class="cls-7" d="M417.64,160a18,18,0,0,0-.91-2.71,19.8,19.8,0,0,0-1.22-2.49,71.21,71.21,0,0,0-6.79-9.3c-2.55-3.16-5.24-6.51-7.72-10.24A65.67,65.67,0,0,1,394.48,123c-.45-1.11-.85-2.24-1.23-3.39-.09-.26-.16-.53-.25-.8,2.39,2,5.5,3,8.52,4l.17.06,1,.35a26,26,0,0,1,3,1.56,46.45,46.45,0,0,0,6.93,3.51v0a14.38,14.38,0,0,0,1.52.55,5.31,5.31,0,0,0,1.27.2c1.36,3.27,2.84,6.67,4.23,10.35a61.24,61.24,0,0,1,2.1,6.51,32.32,32.32,0,0,1,1.1,7.16,24,24,0,0,1-.17,3.7,20.36,20.36,0,0,1-.83,3.57,16.35,16.35,0,0,1-3.54,5.94A23.73,23.73,0,0,0,417.64,160Z"/><path class="cls-8" d="M539.34,188.17a29.51,29.51,0,0,1-4.5-1,31.94,31.94,0,0,1-4.18-1.61c-5.42-2.44-10.5-5.92-16-9.56s-11.24-7.47-17.61-10.91a106.68,106.68,0,0,0-20.69-8.69c-1.85-.56-3.73-1-5.63-1.47l-1.33-.28c3.63,3.54,5.65,8.4,7.73,13.11,0,.11.08.2.11.27.23.5.46,1,.71,1.5a44.52,44.52,0,0,0,2.94,4.62,72.92,72.92,0,0,1,6.68,10.63l-.06,0a18.92,18.92,0,0,1,1.1,2.36,8.52,8.52,0,0,1,.52,2c5.46,1.7,11.15,3.59,17.26,5.29a102.24,102.24,0,0,0,10.8,2.42,53.56,53.56,0,0,0,11.67.72,40.88,40.88,0,0,0,5.93-.83,32.92,32.92,0,0,0,5.61-1.85,26.53,26.53,0,0,0,9-6.58A37.87,37.87,0,0,1,539.34,188.17Z"/><path class="cls-9" d="M536.14,160.06a29.5,29.5,0,0,1-4.4,1.4,31.91,31.91,0,0,1-4.42.76c-5.9.67-12,.29-18.61,0s-13.48-.66-20.71-.36A106.74,106.74,0,0,0,465.77,165c-1.87.46-3.73,1-5.58,1.62-.43.13-.86.29-1.29.43,4.93,1.19,9.16,4.33,13.35,7.32l.24.17c.45.31.9.62,1.37.92a44,44,0,0,0,4.9,2.47,72.53,72.53,0,0,1,11.17,5.71l0,0a22.28,22.28,0,0,1,2.16,1.47,8.47,8.47,0,0,1,1.47,1.46c5.56-1.33,11.42-2.62,17.54-4.29a103,103,0,0,0,10.51-3.45,53.16,53.16,0,0,0,10.4-5.36,39.13,39.13,0,0,0,4.66-3.74,32.55,32.55,0,0,0,3.88-4.46,26.58,26.58,0,0,0,4.4-10.28A37.85,37.85,0,0,1,536.14,160.06Z"/><path class="cls-10" d="M535.45,233.67A31.63,31.63,0,0,0,531.8,229a39.25,39.25,0,0,0-4.48-4,52.77,52.77,0,0,0-10.12-5.87,103.3,103.3,0,0,0-10.33-4c-6-2-11.81-3.54-17.3-5.15a8.75,8.75,0,0,1-1.55,1.39,21.69,21.69,0,0,1-2.22,1.36l0,.05c-.68.42-1.39.8-2.1,1.17a17.48,17.48,0,0,1,1.36,4,66.75,66.75,0,0,1,1.31,13.31,10.79,10.79,0,0,1-.52,3.39c6.12.42,12,.43,17.66.42,6.57,0,12.72-.08,18.59.87a33.22,33.22,0,0,1,4.37,1,27.93,27.93,0,0,1,4.32,1.61,37.64,37.64,0,0,1,8.51,5.49A26.45,26.45,0,0,0,535.45,233.67Z"/><path class="cls-11" d="M535.08,233.09a32.1,32.1,0,0,0,1.9-5.6,39.34,39.34,0,0,0,.89-5.92,53.16,53.16,0,0,0-.6-11.68A100.82,100.82,0,0,0,535,199.07c-1.63-6.13-3.47-11.83-5.11-17.31a9.41,9.41,0,0,1-2-.54,20.38,20.38,0,0,1-2.35-1.12l0,.05c-.73-.35-1.44-.73-2.13-1.12a18.27,18.27,0,0,1-2.63,3.33,66.82,66.82,0,0,1-10.45,8.35,10.92,10.92,0,0,1-3.12,1.42c3,5.35,6.2,10.32,9.28,15,3.58,5.51,7,10.62,9.39,16.06a32,32,0,0,1,1.56,4.2,28.33,28.33,0,0,1,1,4.5,37.66,37.66,0,0,1,0,10.13A26.5,26.5,0,0,0,535.08,233.09Z"/><path class="cls-12" d="M548.63,199.65a39.21,39.21,0,0,0-4.42-5.63,49.55,49.55,0,0,0-5.42-4.81,64.61,64.61,0,0,0-12.26-7.11A127,127,0,0,0,514,177.3c-7.3-2.38-14.31-4.29-21-6.24a10.23,10.23,0,0,1-1.87,1.69,24.5,24.5,0,0,1-2.69,1.64l0,.06c-.84.52-1.69,1-2.54,1.43a21.81,21.81,0,0,1,1.64,4.87,80.69,80.69,0,0,1,1.58,16.12,13.08,13.08,0,0,1-.62,4.1c7.41.51,14.57.52,21.39.51,7.95,0,15.41-.1,22.51,1.06a42.22,42.22,0,0,1,5.3,1.19,34.73,34.73,0,0,1,5.24,2,45.91,45.91,0,0,1,10.31,6.65A32.18,32.18,0,0,0,548.63,199.65Z"/><path class="cls-13" d="M533.45,176.63a29.33,29.33,0,0,1-4.61-.12,33,33,0,0,1-4.43-.73c-5.79-1.31-11.47-3.69-17.56-6.16s-12.51-5.06-19.44-7.15a105.67,105.67,0,0,0-22-4.35c-1.92-.18-3.86-.27-5.8-.31-.46,0-.91,0-1.37,0,4.27,2.74,7.23,7.1,10.21,11.29l.17.24c.32.45.65.89,1,1.33a44.25,44.25,0,0,0,3.81,3.94,71.45,71.45,0,0,1,8.67,9.07l-.05,0a21,21,0,0,1,1.56,2.09,9.45,9.45,0,0,1,.91,1.87c5.69.57,11.64,1.28,18,1.71a103.5,103.5,0,0,0,11.06.21,53.54,53.54,0,0,0,11.58-1.65,39.76,39.76,0,0,0,5.64-2,31.91,31.91,0,0,0,5.13-2.94,26.46,26.46,0,0,0,7.53-8.26A37.86,37.86,0,0,1,533.45,176.63Z"/><path class="cls-14" d="M529.15,141.51a28.83,28.83,0,0,1-4.28,1.73,32.84,32.84,0,0,1-4.34,1.1c-5.84,1.11-12,1.2-18.56,1.38s-13.49.36-20.68,1.21a106.33,106.33,0,0,0-21.92,4.83c-1.83.6-3.64,1.29-5.45,2-.42.17-.83.36-1.25.54,5,.8,9.46,3.62,13.87,6.27l.25.15c.47.28.95.56,1.44.82a42.16,42.16,0,0,0,5.07,2.08,72.49,72.49,0,0,1,11.58,4.85l0,.05a19.78,19.78,0,0,1,2.25,1.3,8.86,8.86,0,0,1,1.59,1.34c5.44-1.75,11.18-3.48,17.15-5.61a104,104,0,0,0,10.22-4.24,53.5,53.5,0,0,0,10-6.14,40.29,40.29,0,0,0,4.37-4.09,31.87,31.87,0,0,0,3.52-4.75,26.54,26.54,0,0,0,3.6-10.58A37.78,37.78,0,0,1,529.15,141.51Z"/><path class="cls-15" d="M508.73,142a28.77,28.77,0,0,1-4,2.72,34.53,34.53,0,0,1-4.32,2.11c-5.94,2.46-12.65,4-19.76,5.66s-14.63,3.48-22.16,6a112.65,112.65,0,0,0-22.08,9.9c-1.76,1-3.47,2.14-5.15,3.3-.39.26-.77.55-1.16.82,5.8-.34,11.79,1.45,17.67,3.09l.33.1c.63.17,1.26.34,1.9.48a60.16,60.16,0,0,0,6.38.93c4.91.54,9.73.91,14.59,2.19l0,.06a26.94,26.94,0,0,1,3,.78,11.94,11.94,0,0,1,2.26,1c5.27-3,10.86-6.07,16.55-9.59a98.46,98.46,0,0,0,9.51-6.61,47.65,47.65,0,0,0,8.46-8.45,33.44,33.44,0,0,0,3.16-5.12,27,27,0,0,0,2-5.57,24.16,24.16,0,0,0-.25-11.44A33.49,33.49,0,0,1,508.73,142Z"/><path class="cls-16" d="M502,133a29.37,29.37,0,0,1-4.61-.12,32.6,32.6,0,0,1-4.42-.73c-5.8-1.31-11.47-3.69-17.56-6.16s-12.52-5.06-19.45-7.15a105.54,105.54,0,0,0-22-4.35c-1.92-.18-3.85-.27-5.8-.31-.45,0-.91,0-1.37,0,4.27,2.74,7.23,7.1,10.21,11.29l.17.24c.32.45.65.89,1,1.33a44.37,44.37,0,0,0,3.82,3.94,72.16,72.16,0,0,1,8.67,9.07l-.05,0a22.64,22.64,0,0,1,1.55,2.09,8.93,8.93,0,0,1,.91,1.87c5.69.57,11.64,1.28,18,1.71a103.63,103.63,0,0,0,11.07.21,53.72,53.72,0,0,0,11.58-1.65,40.2,40.2,0,0,0,5.64-2,32.25,32.25,0,0,0,5.12-2.94,26.34,26.34,0,0,0,7.53-8.26A37.86,37.86,0,0,1,502,133Z"/><path class="cls-17" d="M507.27,220.75a32.49,32.49,0,0,1-3.57-4,37.42,37.42,0,0,1-2.91-4.31c-3.51-5.92-6-12.61-8.8-19.7s-5.7-14.58-9.45-22.09a123.55,123.55,0,0,0-13.87-22c-1.38-1.76-2.85-3.46-4.36-5.14s-3.09-3.31-4.71-4.89-3.3-3.14-5.05-4.59l-2.42-2-2.42-1.93a114.89,114.89,0,0,0-10.32-7.24,87.82,87.82,0,0,0-11.83-6.28,62.1,62.1,0,0,0-7.07-2.6c-1.31-.38-2.69-.75-4.24-1.06a35,35,0,0,0-5.32-.65,22.47,22.47,0,0,0-7.87,1,17.09,17.09,0,0,0-5,2.64,15.61,15.61,0,0,0-3.88,4.37,15.09,15.09,0,0,0-1.74,4.38,16.51,16.51,0,0,0-.41,3.53,19.78,19.78,0,0,0,.73,5.15,28.06,28.06,0,0,0,3.23,7.11,40.8,40.8,0,0,0,4.11,5.54c.71.85,1.5,1.66,2.28,2.45s1.59,1.56,2.44,2.3a39.08,39.08,0,0,0,5.41,4.08c.44-4.58.56-8.79.86-12.8,0-.07,0-.13,0-.19l1.18,1,7.8,6.69c2.72,2.33,5.51,4.71,8.38,7.06l2.15,1.78,1.1.88.54.43.48.4q1.9,1.57,3.76,3.21c2.46,2.22,4.88,4.51,7.22,7a203.93,203.93,0,0,1,13.7,16.09c4.56,5.81,9.15,12.1,14.42,18.5a119.68,119.68,0,0,0,8.64,9.48,61.47,61.47,0,0,0,10.61,8.45,45,45,0,0,0,6.18,3.16,37.14,37.14,0,0,0,6.56,2,30.63,30.63,0,0,0,12.95-.23A43.65,43.65,0,0,1,507.27,220.75Z"/><path class="cls-18" d="M464.82,200c.25-12.06-4.45-23.44-9.91-34.24-12.38-22.21-31.28-46.66-58-51.39-26.48.7-15,29.7-4.79,42.57l2.71.78c0,1.66.29,3.32,1.54,3,2,7.86,5.9,19.89,11.41,25.18-.88-5.53-3.4-17.58-5.28-26.38a16.09,16.09,0,0,0-.7-3.32c.27-6.81-.25-24.2-1.82-26.33C428.91,140.48,455.36,171.36,464.82,200Z"/><path class="cls-19" d="M403.49,164a121.27,121.27,0,0,1-7-16.71,45.65,45.65,0,0,1-1.8-8.51,17.66,17.66,0,0,1,.09-4.47,7.16,7.16,0,0,1,2.07-4.24,6.6,6.6,0,0,1,4.48-1.54,13.83,13.83,0,0,1,4.42.79,37.42,37.42,0,0,1,7.8,3.83,93,93,0,0,1,13.57,10.52,150.38,150.38,0,0,1,22.29,25.9A124.07,124.07,0,0,1,464.82,200,123.53,123.53,0,0,0,449,169.88a149.9,149.9,0,0,0-22.57-25.41,92.64,92.64,0,0,0-13.54-10.17,36.58,36.58,0,0,0-7.55-3.56,12.73,12.73,0,0,0-3.95-.66,5,5,0,0,0-3.41,1.17,5.56,5.56,0,0,0-1.53,3.32,16.13,16.13,0,0,0,0,4.05,43.17,43.17,0,0,0,1.83,8.15c1.69,5.35,1.76,7.73,4.27,12.75Z"/><path class="cls-20" d="M389.8,166.57l-1.13-1.49-9.53-8a1.91,1.91,0,0,0,0-.24v-.55q0-.59-.06-1.2c-.06-.81-.15-1.65-.27-2.47a37.06,37.06,0,0,0-1.09-4.91,27.37,27.37,0,0,0-4.34-8.73,22.41,22.41,0,0,0-7.44-6.24,29.7,29.7,0,0,0-10.12-3,50.84,50.84,0,0,0-11.44,0c-1.94.28-3.91.42-5.86.86l-2.93.57c-1,.18-1.95.47-2.92.71a153.33,153.33,0,0,0-23,8,156.3,156.3,0,0,1,21.63-12.05c7.63-3.36,15.8-6.12,24.8-6.58a39.9,39.9,0,0,1,13.79,1.64,34.37,34.37,0,0,1,12.74,7.32A41,41,0,0,1,391.43,142a49.15,49.15,0,0,1,2.81,6.7c.39,1.14.74,2.31,1,3.5.16.6.3,1.21.44,1.83l.18,1,.09.52.05.27.35,4.94s-.63-.35-2.74,3.81C392.81,166.19,389.8,166.58,389.8,166.57Z"/><path class="cls-21" d="M375.71,168.07c-5.56-5.18-2.08-11.19-2.55-14.5-.09-.78-.3-1.22-.13-1.13s.05,0,.08,0a.25.25,0,0,0,.12.08c.1,0,.19.11.32.12s.19.08.3.05.09,0,.14,0-.7-.13-1.55.06l-.68.17-.93.33-1.88.66a36.62,36.62,0,0,0-12.9,7.82A33.44,33.44,0,0,0,348.38,175a153.18,153.18,0,0,0-4.19,16.7c-1.22,5.75-2.45,11.57-3.92,17.32a201.21,201.21,0,0,1-11.57,33.53,199.68,199.68,0,0,0,7.4-34.32c.75-5.8,1.27-11.6,1.78-17.48a162.66,162.66,0,0,1,2.29-17.95,50,50,0,0,1,2.78-9.24,38.06,38.06,0,0,1,5.06-8.8,47.86,47.86,0,0,1,15.63-12.46l2.16-1.08,1.09-.53,1.4-.57a16.65,16.65,0,0,1,7.12-1.19,18.69,18.69,0,0,1,2.3.38,13.47,13.47,0,0,1,2.34.87,11.36,11.36,0,0,1,2.14,1.34c.33.25.65.52,1,.79s.55.56.81.85a17.38,17.38,0,0,1,3.62,6.76,31.71,31.71,0,0,1,1.08,5.81c.17,1.82,1.27,8.85,1.26,10.56,0,.75-1.14-2.6-4.09-1.77C382.51,165.44,375.71,168.07,375.71,168.07Z"/><path class="cls-19" d="M380.56,149.18a3.93,3.93,0,0,0-.44-.1,7.39,7.39,0,0,0-2.31.06,20.39,20.39,0,0,0-4.11,1.23,75.78,75.78,0,0,0-7.53,3.53,42.4,42.4,0,0,0-13,10.34A43.69,43.69,0,0,0,345.6,179c-1.68,5.27-2.82,10.65-4,16s-2.23,10.73-3.49,16.07a260.87,260.87,0,0,1-9.44,31.5,259.07,259.07,0,0,0,9.91-31.38c1.34-5.33,2.53-10.69,3.74-16s2.44-10.69,4.18-15.86A42.47,42.47,0,0,1,354.12,165a41.28,41.28,0,0,1,12.74-9.83c2.41-1.25,4.62-2.92,7.14-3.94C377.08,150,380,149.59,380.56,149.18Z"/><path class="cls-19" d="M389.8,166.57c-.79-4-3-8.16-4.59-12a53.07,53.07,0,0,0-6.16-10.85,37.49,37.49,0,0,0-8.91-8.64,32,32,0,0,0-11.44-4.78,40,40,0,0,0-12.5-.32c-4.2.49-8.37,1.17-12.51,2a117.52,117.52,0,0,0-12.27,3.18,75.7,75.7,0,0,0-11.77,4.72,77.08,77.08,0,0,1,11.69-5,117.49,117.49,0,0,1,12.24-3.43c4.14-.92,8.32-1.69,12.52-2.26a41,41,0,0,1,12.79.08,33.08,33.08,0,0,1,11.94,4.72,38.86,38.86,0,0,1,9.41,8.77,54,54,0,0,1,6.57,11.06,63.94,63.94,0,0,1,4.42,12.35l-.63.19C390.41,166.47,389.8,166.57,389.8,166.57Z"/><path class="cls-19" d="M471.85,204.78a124.55,124.55,0,0,0,9.11,9.69,63,63,0,0,0,10.48,8.09,45.86,45.86,0,0,0,5.91,2.95,36.63,36.63,0,0,0,6.31,1.89,30.78,30.78,0,0,0,13-.21l-.12.82a44.9,44.9,0,0,1-9.62-6.9,38.51,38.51,0,0,1-7.17-9.43c-3.86-6.91-6.44-14.37-9.31-21.64a225.72,225.72,0,0,0-9.35-21.53,126.29,126.29,0,0,0-12.45-19.87,117.21,117.21,0,0,1,13,19.61,206.41,206.41,0,0,1,9.65,21.47c2.91,7.27,5.52,14.69,9.35,21.48a39.59,39.59,0,0,0,7,9.22,43.64,43.64,0,0,0,9.4,6.81l1,.56-1.11.27a31,31,0,0,1-13.41.13,37,37,0,0,1-6.41-2,46,46,0,0,1-6-3.08,59.08,59.08,0,0,1-10.41-8.36A111.25,111.25,0,0,1,471.85,204.78Z"/></g></g></svg>