<svg xmlns="http://www.w3.org/2000/svg" xmlns:xlink="http://www.w3.org/1999/xlink" viewBox="0 0 837.33 1537"><defs><style>.cls-1,.cls-11,.cls-14{fill:none;}.cls-15,.cls-2{fill:#606060;}.cls-2,.cls-4,.cls-5,.cls-6{fill-rule:evenodd;}.cls-3{fill:#001c54;}.cls-4{fill:#111;}.cls-5{fill:url(#linear-gradient);}.cls-6{fill:url(#linear-gradient-2);}.cls-7{fill:url(#linear-gradient-3);}.cls-8{fill:#afafaf;}.cls-9{fill:#231f20;}.cls-10{fill:url(#linear-gradient-4);}.cls-11{stroke:#606060;stroke-width:2px;}.cls-11,.cls-14{stroke-miterlimit:10;}.cls-12{fill:#7c7c7c;}.cls-13{fill:#fff;}.cls-14{stroke:#231f20;stroke-linecap:round;stroke-width:3px;}</style><linearGradient id="linear-gradient" x1="353.94" y1="246.87" x2="529.54" y2="246.87" gradientUnits="userSpaceOnUse"><stop offset="0" stop-color="#a1a1a1"/><stop offset="1" stop-color="#a1a1a1"/></linearGradient><linearGradient id="linear-gradient-2" x1="351.2" y1="283.89" x2="372.07" y2="283.89" xlink:href="#linear-gradient"/><linearGradient id="linear-gradient-3" x1="463.94" y1="119.11" x2="496.96" y2="119.11" gradientTransform="translate(70.3 -151.34) rotate(20.22)" xlink:href="#linear-gradient"/><linearGradient id="linear-gradient-4" x1="498.7" y1="245.71" x2="523.86" y2="245.71" xlink:href="#linear-gradient"/></defs><g id="Layer_2" data-name="Layer 2"><g id="base"><rect class="cls-1" width="837.33" height="1537"/></g><g id="hair_03"><path class="cls-2" d="M429.74,192c-17.77,21.33-11.51,77.07-11.51,77.07l-25.92.44c-.26-.18-2.53-1.43-2-2,2.51-2.67,14.66-8.86,15.78-22.18a217.35,217.35,0,0,0-.33-41.09c-.17-1.44-4.82-9.64-7.29-11.14Z"/><path class="cls-3" d="M608,287a40,40,0,0,0,14.81-.8,58,58,0,0,0,12.82-4.77,92.34,92.34,0,0,0,21-14.92l-1.06-1.7c-7.83,3-15.58,5.87-23.28,7.54s-15.29,2.1-21.17,0-10-6.28-13.31-12.15-5.47-13.08-7.23-20.5-3-15.27-4.26-23.18c-.6-4-1.14-8-1.71-12l-1.57-12.13c-1-8.12-1.93-16.32-2.81-24.57S578.35,151.31,577,143s-3.06-16.56-4.91-24.82-3.86-16.49-6.33-24.66a117.24,117.24,0,0,0-4.36-12.13,55.22,55.22,0,0,0-6.57-11.56,28.63,28.63,0,0,0-11-9l-1.73-.71-1.75-.58c-1-.33-2.08-.68-3.13-1l-3.2-1c-1.09-.29-2.17-.6-3.28-.86a56.79,56.79,0,0,0-14-1.62A38.39,38.39,0,0,0,502,58.38a36.12,36.12,0,0,0-6.77,3.94,39.39,39.39,0,0,0-5.72,5.29c-.77.87-1.5,1.77-2.19,2.68a35.67,35.67,0,0,0-8,6.47,36.14,36.14,0,0,0-4.56,6,34.44,34.44,0,0,0-3.24,6.8,37.22,37.22,0,0,0-2,14.29,41.13,41.13,0,0,0,3,13.16,39.4,39.4,0,0,0,2.94,5.84c.35.57.71,1.12,1.09,1.66a63.94,63.94,0,0,0,1.3,12.13l2,.15c.57-1.33,1.12-2.65,1.67-4v0l2-.25c.57-2.93,1.13-5.82,1.71-8.67,1.22-2.92,2.44-5.81,3.71-8.62a120.61,120.61,0,0,1,10.19-19A41.35,41.35,0,0,1,502,92.42a36.43,36.43,0,0,1,3.13-3.37,32.2,32.2,0,0,1,6.67-4.79,16.49,16.49,0,0,1,1.77-.83,19.08,19.08,0,0,1,1.87-.73,27.88,27.88,0,0,1,4.14-1,33.59,33.59,0,0,1,4.7-.32,36.13,36.13,0,0,1,5.08.48,37.17,37.17,0,0,1,5.26,1.19c.88.23,1.75.56,2.62.86.47.16.8.32,1.17.48s.71.35,1.07.52a16.57,16.57,0,0,1,3.82,2.95,20.84,20.84,0,0,1,3,4.11,32.17,32.17,0,0,1,3.39,10.24,63.42,63.42,0,0,1,.82,11.23,122.43,122.43,0,0,1-2.71,22.83c-.75,3.79-1.59,7.58-2.49,11.37L542.64,159c-3.62,15.2-6.24,30.71-8.48,46.54s-3.22,32.21-.83,48.89a102.61,102.61,0,0,0,6.61,24.76,69.33,69.33,0,0,0,14.32,22.08,59.72,59.72,0,0,0,21.68,14.05,67.68,67.68,0,0,0,24.16,4.2l.38-2a100.92,100.92,0,0,1-20.05-10.81,57.74,57.74,0,0,1-14.64-15.06c-7.61-11.39-10.55-25.25-11.66-39.61s-.71-29.42,0-44.67q.26-4.86.59-9.77c0,3.68.09,7.37.26,11.07.17,4.06.39,8.12.76,12.2a198.83,198.83,0,0,0,3.64,24.54c.89,4.09,2,8.19,3.23,12.26a107.11,107.11,0,0,0,4.51,12.09,83.8,83.8,0,0,0,6.26,11.63,63,63,0,0,0,8.52,10.47,50.08,50.08,0,0,0,10.88,8.17,46.91,46.91,0,0,0,12.46,4.74,52.91,52.91,0,0,0,6.42,1,56.51,56.51,0,0,0,6.36.19c2.1-.05,4.18-.25,6.23-.49s4.07-.65,6.06-1.12l-.1-2c-7.9-1.13-15.46-3-21.91-6.33a42.44,42.44,0,0,1-15.58-13.6c-.73-1-1.4-2.13-2-3.23.81.66,1.66,1.3,2.54,1.9A34.76,34.76,0,0,0,608,287ZM545.72,70.43A21,21,0,0,1,549.83,74a32.24,32.24,0,0,1,4.84,7.31,39,39,0,0,0-2.47-3.56A34.24,34.24,0,0,0,542.45,69l-.82-.46A16.44,16.44,0,0,1,545.72,70.43Zm-1.59,7.92c-.46-.36-.9-.75-1.38-1.07l-1.39-1c-.87-.58-1.7-1.22-2.59-1.79s-1.76-1.15-2.66-1.71a21.52,21.52,0,0,1,3.34,1.46,24,24,0,0,1,7.82,7.12l.05.07A24.69,24.69,0,0,0,544.13,78.35Z"/><path class="cls-2" d="M435.53,368.65l1.28-86.92S468,281,487,267.21c9.45-17.31,3.3-39.65,4.79-47.77,4.1,8.27,7.07,28.47-2,47.77-14.6,31.2-48.87,103.45-48.87,103.45Z"/><path class="cls-4" d="M361.27,257.05a19.82,19.82,0,0,1,3-3.78c1.82-12-2.64-25.76-2.64-25.76a39.19,39.19,0,0,1-4.06-15c-.29-8,1.46-11.3,3.91-16.83.2-.44.39-.95.58-1.48l-6.86,8-1.24,76.07,4.13,3.44C358.3,274,359.55,259.65,361.27,257.05Z"/><path class="cls-5" d="M390.31,267.49c-1.49-1.07,12.42-8,13.78-24.18a217.35,217.35,0,0,0-.33-41.09c-.17-1.44-4.82-9.64-7.29-11.14-7.34-4.46-6.62-7.43-15.2-7.78-7.34-.29-9.38,2.19-15.48,6.28s-4.88,12.26-8.24,22.92c-1.48.27-3.53-2.94-3.59-6.48-.4-26,2.34-82.94,96.73-82.94,71.27,0,78.85,70.66,78.85,70.66s0,109.38-18.22,135.66-70.4,41.26-70.4,41.26l1.34-86s40-7.15,46.68-18.23,7.4-64-10.14-72.29-45.13-9.79-53.92,2.09c-13,17.58-8.65,70.77-8.65,70.77Z"/><path class="cls-6" d="M372.07,365.55V284.71s-15.81-4.27-16.89-12.27,0-70.22,0-70.22S338.92,321.78,372.07,365.55Z"/><path class="cls-7" d="M464.39,127.49c-3.38-5.77,4.63-16.91,17-9.85,15.4,2,18.41,19,8,19.06S467.77,133.25,464.39,127.49Z"/><path class="cls-8" d="M484.19,138.36s35.9,12.88,37.16,52.95a182.94,182.94,0,0,0-37.16-52.95Z"/><polygon class="cls-9" points="507.71 210.01 493.7 233.58 493.7 267.76 505.97 281.4 510.97 281.4 512.71 210.01 507.71 210.01"/><polygon class="cls-10" points="512.71 210.01 498.7 233.58 498.7 267.76 510.97 281.4 523.12 259.12 523.86 226.69 512.71 210.01"/><polygon class="cls-11" points="512.25 221.53 502.76 237.5 502.76 260.64 511.07 269.88 519.3 254.79 519.8 232.83 512.25 221.53"/><polygon class="cls-12" points="515.13 232.77 511.12 232.77 505.61 242.04 505.61 253.82 510.81 259.6 514.82 259.6 517.57 250.36 516.47 250.3 512.41 256.16 509.62 253.06 509.62 242.59 513.23 236.52 516.6 240.44 517.8 240.37 515.13 232.77"/><polygon class="cls-13" points="519.82 239.78 515.13 232.77 509.62 242.04 509.62 253.82 514.82 259.6 519.56 250.89 517.57 250.36 514.41 256.16 511.62 253.06 511.62 242.59 515.23 236.52 517.8 240.37 519.82 239.78"/><line class="cls-14" x1="453.22" y1="301.29" x2="451.97" y2="349.39"/><polygon class="cls-9" points="366.74 340.18 364.69 337.48 364.69 288.56 366.85 289.4 366.74 340.18"/><line class="cls-14" x1="464.16" y1="298.87" x2="463" y2="342.63"/><line class="cls-14" x1="474.75" y1="296.97" x2="473.59" y2="336.74"/><polygon class="cls-15" points="372.07 284.71 375.92 283.6 374.56 365.19 372.07 365.56 372.07 284.71"/><path class="cls-15" d="M375.92,283.6s-11.59-1.87-18.4-6.64c4.11,5.72,14.55,7.75,14.55,7.75Z"/></g></g></svg>