<svg xmlns="http://www.w3.org/2000/svg" viewBox="0 0 837.33 1537"><defs><style>.cls-1{fill:none;}.cls-2{fill:#415056;}.cls-2,.cls-4{fill-rule:evenodd;}.cls-3,.cls-4{fill:#1d292d;}</style></defs><g id="Layer_2" data-name="Layer 2"><g id="base"><rect class="cls-1" width="837.33" height="1537"/></g><g id="R_arm_01"><path class="cls-2" d="M226.85,624.31s34.66,66.25,66.73,69.24c-10.69,11.83-19.48,26.1-31.56,38.35s-24,23.79-35.71,34.64c-5.12-5.76-11.28-11.68-18-18-9.87-9.29-21.48-19.13-28.38-21.32,0,0,14.33-25.85,17.43-52.67C202.3,647.35,217.58,630.91,226.85,624.31Z"/><path class="cls-2" d="M281.76,699.14s10.1,13.32,6.82,16.49-16.8-4.73-16.8-4.73Z"/><path class="cls-2" d="M264.37,719.65s10.1,13.32,6.81,16.49-16.79-4.72-16.79-4.72Z"/><path class="cls-2" d="M245.88,739.24s10.1,13.32,6.82,16.49S235.9,751,235.9,751Z"/><path class="cls-2" d="M186.82,713.65s-14.08-9-12.1-13.12,17.4-1.37,17.4-1.37Z"/><path class="cls-2" d="M196.06,688.39s-14.08-9-12.09-13.12,17.39-1.37,17.39-1.37Z"/><path class="cls-2" d="M206.65,663.63s-14.08-9-12.1-13.12,17.4-1.37,17.4-1.37Z"/><circle class="cls-3" cx="256.59" cy="690.24" r="7.31"/><path class="cls-4" d="M230.12,655.88a7.29,7.29,0,0,0-5-1.72,6,6,0,0,1,2,1.1,5.83,5.83,0,1,1-9,7.11,7.31,7.31,0,1,0,12-6.49Z"/><path class="cls-4" d="M218.18,685.27a7.24,7.24,0,0,0-5-1.72,5.67,5.67,0,0,1,2,1.1,5.83,5.83,0,1,1-9,7.11,7.31,7.31,0,1,0,12-6.49Z"/><path class="cls-4" d="M206.42,710.58a7.32,7.32,0,0,0-5-1.72,5.7,5.7,0,0,1,2,1.11,5.82,5.82,0,1,1-8.95,7.1,7.31,7.31,0,1,0,12-6.49Z"/><circle class="cls-3" cx="241.86" cy="712.98" r="7.31"/><circle class="cls-3" cx="224.49" cy="733.48" r="7.31"/></g></g></svg>