<svg xmlns="http://www.w3.org/2000/svg" xmlns:xlink="http://www.w3.org/1999/xlink" viewBox="0 0 837.33 1537"><defs><style>.cls-1{fill:none;}.cls-2{opacity:0.04;}.cls-3,.cls-4{fill-rule:evenodd;}.cls-3{fill:url(#Áåçûìÿííûé_ãðàäèåíò_135);}.cls-4{fill:url(#Áåçûìÿííûé_ãðàäèåíò_135-2);}</style><linearGradient id="Áåçûìÿííûé_ãðàäèåíò_135" x1="434.23" y1="270.22" x2="434.23" y2="142.33" gradientUnits="userSpaceOnUse"><stop offset="0.01" stop-color="#792727"/><stop offset="0.99" stop-color="#8d4347"/></linearGradient><linearGradient id="Áåçûìÿííûé_ãðàäèåíò_135-2" x1="362.07" y1="229.09" x2="362.07" y2="229.06" xlink:href="#Áåçûìÿííûé_ãðàäèåíò_135"/></defs><g id="Layer_2" data-name="Layer 2"><g id="base"><rect class="cls-1" width="837.33" height="1537"/></g><g id="hair_01"><g class="cls-2"><path class="cls-3" d="M513,197.53c-1.32-16.71-26.26-49.55-62.32-54.64-22.53-3.19-69,7.48-82.49,29.56-2.5,4.1-4.31,17.73-6.76,23.22s-6.71,9.5-6.42,17.48c.28,7.38,5.71,13.44,6.47,14.26-1.3-4.17-4.21-15.12-.95-21.31,4.08-7.76-.91-51.7,65.68-47.32,3.85.25,35.44,5.3,38.78,5.19,10.86,10.25,17.89,15.76,19.31,18.25,2.2,3.87,3.39,25.54,4.67,30l-3.22,15.06s1,2.09.36,14.73-1.67,28.21-1.67,28.21h4.46s9.13-18.3,21.35-24.21C512.86,228.94,514.14,211.59,513,197.53Z"/><path class="cls-4" d="M362.07,229.08h0v0Z"/></g></g></g></svg>