<svg xmlns="http://www.w3.org/2000/svg" viewBox="0 0 837.33 1537"><defs><style>.cls-1,.cls-4{fill:none;}.cls-2{fill:#2e4359;}.cls-2,.cls-3,.cls-4{fill-rule:evenodd;}.cls-3{fill:#1d292d;}.cls-4{stroke:#74cbe2;stroke-miterlimit:10;stroke-width:3px;}.cls-5{fill:#74cbe2;}</style></defs><g id="Layer_2" data-name="Layer 2"><g id="base"><rect class="cls-1" width="837.33" height="1537"/></g><g id="Legs_06"><path class="cls-2" d="M508.89,1158.43c4.11,7,18.53,31.63,49.28,22.84s29.76-32.5,30.75-34.84c-4.06-16-7.76-30.38-9.36-40.28-4.07-25.28-.79-123.35-19.8-180.57,0-.19-.14-.39-.19-.59-7.74-23-15.48-51.71-21.5-77.85-9.67-42-44.94-29.62-66-23.94-21.94,5.9-32.6,27.65-37.13,38-5.89,13.41-4.5,28-4.5,28s5.86,32,7.86,39.69c8.72,33.27,32.24,123.26,37.19,141.48,6.12,22.44,35.12,76.72,34.73,80.83C510.1,1152,509.62,1154.56,508.89,1158.43Z"/><path class="cls-2" d="M351.56,1128.63c.06-7.1-25.66-11.84-48.66-8-25.79,4.26-34.28,29.33-34.28,29.33-13.72,67.8-14.15,92.22-21.1,120-2.16,8.62-3.53,13.47-3.53,13.47l-12.56,80.83c9.42,65.44,58.23,30.4,70.79-6.24,2.83-4.43,26.12-67.28,26.17-67.38,2.89-6,18.25-40.15,20.6-46.76,14.16-39.64,16.81-50.75,16.46-63.68C365.06,1163.06,351.56,1128.63,351.56,1128.63Z"/><path class="cls-2" d="M404.78,863.7c-1.64-26.77-1.92-26.75-6.3-38.47-9.25-24.76-47.62-34.73-65.38-26.86-22.4,9.94-25.09,34.13-36.45,65.78-7.79,21.8-15.14,51-21,78.82-7.3,34.78-12.35,67.46-13.28,80.83-.29,4.31-2.89,43.81-2.6,49.79,1.47,27.48,8.86,76.33,8.86,76.33,1.3,10,8.59,30.23,19.34,36.43s31.24,4.53,37.51,4c14.11-1.26,25.75-17,29.71-28.4s-3.62-33.29-3.62-33.29c.29-37.28,33.59-110,43.24-144.05,14.06-49.78,6.78-95.49,6.78-95.49S405.26,871.59,404.78,863.7Z"/><path class="cls-2" d="M542.61,1119.24c-17.89,3.11-31.61,25.43-32.44,31.58a1.5,1.5,0,0,1,0,.35c-.44,4.07-11.86,58.35-11.86,80.83s17.15,82.45,17.15,82.45l5.35,51.75s-.54,32.62,23.23,32.8c32.85.24,36.6-52.1,36.6-52.1s13.55-58.62,14.58-65.24c2.25-14.15,10.47-32.22,8.81-57.84-1.86-28.53-8.41-50.1-15.3-78.06C583.31,1124,564.66,1115.41,542.61,1119.24Z"/><path class="cls-2" d="M430.69,890.7l.26-.12c12.62-4.8,26-6.21,39.17-8.52,0,0,89.68,10.75,64.79-44.55l-12.47-61.93-3.09-10.43L513.42,745c-29.78,12.24-179.54,4.35-179.54,4.35s-4.14,13.9-10.33,33.67c-4,12.18-9.51,28.88-14.33,45.27-5.29,18-.7,25.93,10,38.61s37.25,4.6,48.91,14.86c9.89,8.72,33.46,7.36,33.46,7.36l28.83.08S430.51,889.73,430.69,890.7Z"/><path class="cls-3" d="M333.88,749.32A760.81,760.81,0,0,1,513.42,745l5.93,20.18a465.16,465.16,0,0,1-190.82,1.77Q331.22,758.12,333.88,749.32Z"/><path class="cls-4" d="M533,828.76S497.48,839.3,495.52,870s22.28,147.1,35.89,161.1S576,1042.29,576,1042.29"/><path class="cls-5" d="M529.31,812.09c-.32,0-.82,0-1.25.08s-.91.09-1.36.15c-.92.12-1.84.26-2.76.43a55,55,0,0,0-5.47,1.31A53.54,53.54,0,0,0,508,818.29a49.08,49.08,0,0,0-17,14.82,56.6,56.6,0,0,0-5.63,10.07c-.38.89-.7,1.81-1.05,2.71l-.52,1.37c-.16.46-.29.93-.43,1.39l-.85,2.81-.67,2.85a92.05,92.05,0,0,0-2,23.52,92.84,92.84,0,0,1,.25-23.84l.47-3,.66-2.95c.12-.49.22-1,.34-1.47l.43-1.46c.3-1,.56-1.94.89-2.9a59,59,0,0,1,5.16-11,53.42,53.42,0,0,1,17.31-17.44,60,60,0,0,1,11.16-5.5,59.15,59.15,0,0,1,6-1.9c1-.27,2-.51,3.08-.72.52-.11,1-.2,1.57-.29s1-.17,1.71-.24Z"/><path class="cls-4" d="M262.36,1023.8s32.69,4,44.66-16.4,38.18-135.88,35.6-151.34c-3.43-20.62-33.45-36.31-33.45-36.31"/><path class="cls-5" d="M318,799.53c1.17.39,2.07.75,3.06,1.17s1.91.84,2.84,1.29c1.87.91,3.69,1.88,5.45,3a70.73,70.73,0,0,1,10,7.21,64,64,0,0,1,15.13,19A61.32,61.32,0,0,1,359,842.39l.44,1.44.36,1.47.68,2.92c.32,2,.76,3.93.92,5.92a89,89,0,0,1-.55,23.69,88.18,88.18,0,0,0-1.18-23.42c-.29-1.93-.87-3.79-1.31-5.68l-.88-2.77-.44-1.38-.53-1.35a57.2,57.2,0,0,0-5.09-10.32A59.53,59.53,0,0,0,336,816.24a65,65,0,0,0-9.64-5.94c-1.67-.86-3.4-1.61-5.13-2.31-.87-.34-1.74-.67-2.61-1s-1.81-.58-2.52-.76Z"/><path class="cls-5" d="M516.76,757.41c-7,1-13.86,1.65-20.79,2.15s-13.82.79-20.73.88-13.81,0-20.7-.25-13.76-.79-20.61-1.41c6.88,0,13.75,0,20.6-.34s13.7-.82,20.51-1.49,13.59-1.56,20.34-2.61,13.51-2.28,20-3.79Z"/><path class="cls-5" d="M332,753.18c11.22,1.73,22.52,3.28,33.82,4.6,5.66.65,11.32,1.23,17,1.68a124.51,124.51,0,0,0,17.06.4,125.39,125.39,0,0,1-17.1,1.35c-5.72.13-11.45.13-17.17.07-11.45-.17-22.87-.55-34.33-1.14Z"/></g></g></svg>