<svg xmlns="http://www.w3.org/2000/svg" xmlns:xlink="http://www.w3.org/1999/xlink" viewBox="0 0 837.97 1536.05"><defs><style>.cls-1{fill:none;}.cls-2{fill:#3a3a3a;}.cls-10,.cls-11,.cls-12,.cls-13,.cls-14,.cls-15,.cls-2,.cls-5,.cls-6,.cls-7,.cls-8,.cls-9{fill-rule:evenodd;}.cls-3{opacity:0.47;}.cls-4,.cls-5{fill:#1c1c1c;}.cls-6{fill:url(#linear-gradient);}.cls-7{fill:url(#linear-gradient-2);}.cls-8{fill:url(#linear-gradient-3);}.cls-9{fill:#898989;opacity:0.58;}.cls-10{fill:url(#linear-gradient-4);}.cls-11{fill:url(#linear-gradient-5);}.cls-12{fill:url(#linear-gradient-6);}.cls-13{fill:url(#linear-gradient-7);}.cls-14{fill:url(#linear-gradient-8);}.cls-15{fill:url(#linear-gradient-9);}</style><linearGradient id="linear-gradient" x1="313.97" y1="817.06" x2="530.15" y2="817.06" gradientUnits="userSpaceOnUse"><stop offset="0" stop-color="#8fa0a1"/><stop offset="1" stop-color="#94a0a1"/></linearGradient><linearGradient id="linear-gradient-2" x1="247.16" y1="1110.94" x2="367.63" y2="1110.94" xlink:href="#linear-gradient"/><linearGradient id="linear-gradient-3" x1="320.04" y1="789.92" x2="524.55" y2="789.92" xlink:href="#linear-gradient"/><linearGradient id="linear-gradient-4" x1="320.5" y1="780.68" x2="525.01" y2="780.68" xlink:href="#linear-gradient"/><linearGradient id="linear-gradient-5" x1="268.68" y1="1025.78" x2="403.79" y2="1025.78" xlink:href="#linear-gradient"/><linearGradient id="linear-gradient-6" x1="257.8" y1="890.83" x2="354.45" y2="890.83" xlink:href="#linear-gradient"/><linearGradient id="linear-gradient-7" x1="412.35" y1="1102.19" x2="521.54" y2="1102.19" gradientTransform="matrix(-0.97, 0.23, 0.23, 0.97, 743.27, -70.54)" xlink:href="#linear-gradient"/><linearGradient id="linear-gradient-8" x1="452.11" y1="1027.35" x2="574.16" y2="1027.35" gradientTransform="matrix(-0.99, -0.12, -0.12, 0.99, 1128.34, 66.35)" xlink:href="#linear-gradient"/><linearGradient id="linear-gradient-9" x1="423.31" y1="890.83" x2="519.95" y2="890.83" gradientTransform="matrix(-1, 0, 0, 1, 1010.45, 0)" xlink:href="#linear-gradient"/></defs><g id="Layer_2" data-name="Layer 2"><g id="base"><rect class="cls-1" x="0.32" width="837.33" height="1536.05"/></g><g id="legs_08"><path class="cls-2" d="M508.89,1158.43c4.11,7,18.53,31.63,49.28,22.84s29.76-32.5,30.75-34.84c-4.06-16-7.76-30.38-9.36-40.28-4.07-25.28-.79-123.35-19.8-180.57,0-.19-.14-.39-.19-.59-7.74-23-15.48-51.71-21.5-77.85-9.67-42-44.94-29.62-66-23.94-21.94,5.9-32.6,27.65-37.13,38-5.89,13.41-4.5,28-4.5,28s5.86,32,7.86,39.69c8.72,33.27,32.24,123.26,37.19,141.48,6.12,22.44,35.12,76.72,34.73,80.83C510.1,1152,509.62,1154.56,508.89,1158.43Z"/><path class="cls-2" d="M351.56,1128.63c.06-7.1-25.66-11.84-48.66-8-25.79,4.26-34.28,29.33-34.28,29.33-13.72,67.8-14.15,92.22-21.1,120-2.16,8.62-3.53,13.47-3.53,13.47l-12.56,80.83c9.42,65.44,58.23,30.4,70.79-6.24,2.83-4.43,26.12-67.28,26.17-67.38,2.89-6,18.25-40.15,20.6-46.76,14.16-39.64,16.81-50.75,16.46-63.68C365.06,1163.06,351.56,1128.63,351.56,1128.63Z"/><path class="cls-2" d="M404.78,863.7c-1.64-26.77-1.92-26.75-6.3-38.47-9.25-24.76-47.62-34.73-65.38-26.86-22.4,9.94-25.09,34.13-36.45,65.78-7.79,21.8-15.14,51-21,78.82-7.3,34.78-12.35,67.46-13.28,80.83-.29,4.31-2.89,43.81-2.6,49.79,1.47,27.48,8.86,76.33,8.86,76.33,1.3,10,8.59,30.23,19.34,36.43s31.24,4.53,37.51,4c14.11-1.26,25.75-17,29.71-28.4s-3.62-33.29-3.62-33.29c.29-37.28,33.59-110,43.24-144.05,14.06-49.78,6.78-95.49,6.78-95.49S405.26,871.59,404.78,863.7Z"/><path class="cls-2" d="M542.61,1119.24c-17.89,3.11-31.61,25.43-32.44,31.58a1.5,1.5,0,0,1,0,.35c-.44,4.07-11.86,58.35-11.86,80.83s17.15,82.45,17.15,82.45l5.35,51.75s-.54,32.62,23.23,32.8c32.85.24,36.6-52.1,36.6-52.1s13.55-58.62,14.58-65.24c2.25-14.15,10.47-32.22,8.81-57.84-1.86-28.53-8.41-50.1-15.3-78.06C583.31,1124,564.66,1115.41,542.61,1119.24Z"/><path class="cls-2" d="M430.69,890.7l.26-.12c12.62-4.8,26-6.21,39.17-8.52,0,0,89.68,10.75,64.79-44.55l-12.47-61.93-3.09-10.43L513.42,745c-29.78,12.24-179.54,4.35-179.54,4.35s-4.14,13.9-10.33,33.67c-4,12.18-9.51,28.88-14.33,45.27-5.29,18-.7,25.93,10,38.61s37.25,4.6,48.91,14.86c9.89,8.72,33.46,7.36,33.46,7.36l28.83.08S430.51,889.73,430.69,890.7Z"/><path class="cls-2" d="M333.88,749.32A760.81,760.81,0,0,1,513.42,745l5.93,20.18a465.16,465.16,0,0,1-190.82,1.77Q331.22,758.12,333.88,749.32Z"/><path class="cls-2" d="M529.08,808.59s-54,3.51-49.22,69.24"/><path class="cls-2" d="M317.05,802.9s50.71,14.12,43.76,74.93"/><path class="cls-2" d="M516.07,754a358.94,358.94,0,0,1-82.14,4.8"/><path class="cls-2" d="M331.65,756.66s51.79,5.48,68.24,3.2"/><g class="cls-3"><path class="cls-4" d="M370.28,890a165,165,0,0,0-25,2.29A157.49,157.49,0,0,1,403.15,899c-.3-2.52-.61-4.59-.87-6.18A156.46,156.46,0,0,0,370.28,890Z"/><path class="cls-4" d="M466.77,892.51a163.1,163.1,0,0,1,24.91-.21,160,160,0,0,0-60.47,1.2c.31,1.65.69,3.69,1.11,6A152.28,152.28,0,0,1,466.77,892.51Z"/><path class="cls-4" d="M359.42,938a200.79,200.79,0,0,0-23.9.68A190.55,190.55,0,0,1,401.36,952c.38-2.68.69-5.3.95-7.86A192,192,0,0,0,359.42,938Z"/><path class="cls-4" d="M355.57,960.19c-7.48-.5-17.65,2.43-25.15,2.71,22.51,1.79,45.64,3.7,67.11,12.29q1.08-4.11,2-8.12A223.7,223.7,0,0,0,355.57,960.19Z"/><path class="cls-4" d="M350.67,983.59c-7.29-.67-18.24,2.92-25.56,2.89,21.75,2.95,43.69,3.81,65,12.06,1-2.81,1.93-5.51,2.79-8.08C378,987,364.65,984.58,350.67,983.59Z"/><path class="cls-4" d="M345.77,1007c-7.1-.82-15.13-1.37-22.27-1.72a334.52,334.52,0,0,1,58.22,16.31c1-2.73,2-5.42,3-8.05C370.33,1010.45,358.83,1008.27,345.77,1007Z"/><path class="cls-4" d="M340.86,1030.37c-6.9-1-14.77-1.84-21.71-2.52a484.62,484.62,0,0,1,54.19,16.74q1.44-4,2.89-8C363.2,1033.94,352.52,1031.86,340.86,1030.37Z"/><path class="cls-4" d="M336,1053.77c-6.72-1.15-14.42-2.33-21.17-3.33,17.31,5.44,32.75,10.64,50.55,17.32q1.32-4,2.69-8C356.94,1057.55,345.83,1055.34,336,1053.77Z"/><path class="cls-4" d="M310.44,1073l47.74,18.19c.74-2.67,1.52-5.4,2.34-8.15Z"/><path class="cls-4" d="M348.6,1108c-13.27-2.62-42.15-4.45-55.14-8.09,14.8,6.68,43.6,11,59.18,16.36.35-2.34.77-4.77,1.27-7.27Z"/><path class="cls-4" d="M345.42,1134.68c-13.4-2.61-36.25-2.59-49-7.23,17.81,9.38,40.74,11.22,60.93,17.3-1.05-3.17-2.06-6.07-2.93-8.52C349.84,1135.48,347,1135,345.42,1134.68Z"/><path class="cls-4" d="M342.23,1161.36c-13.56-2.6-34-1.24-46.49-6.88,18.64,11.3,47.14,14.91,68.9,18-.44-2.66-1-5.5-1.73-8.4C357.94,1164,345.51,1162,342.23,1161.36Z"/><path class="cls-4" d="M361,1190.18c-21.19.18-58.19-4.27-76.69-14.27,18.7,13,56.45,20.5,79.43,22,.52-2.85.91-5.47,1.2-7.87A36.54,36.54,0,0,0,361,1190.18Z"/><path class="cls-4" d="M336.44,1214.83c-14.18-2.54-39.78-4.64-51.91-12.33,17.29,13.67,49.36,19.61,71.62,20.68.69-2.39,1.77-4.78,2.36-7C352.57,1217.09,342.43,1215.91,336.44,1214.83Z"/><path class="cls-4" d="M333.27,1241.51c-14.45-2.52-40.92-5.63-52.69-14.25,15.77,13.94,45.36,19.53,66.74,21.09.65-1.9,1.44-3.68,2.05-5.5A69.42,69.42,0,0,1,333.27,1241.51Z"/><path class="cls-4" d="M319.37,1265.48c-10.64-3.53-35.19-6.83-43.79-14,12.49,12.28,42.66,23.18,60.68,21.56.25,0,.09-1.56,1.85-3.93A64.66,64.66,0,0,1,319.37,1265.48Z"/><path class="cls-4" d="M365.38,913.4a180.24,180.24,0,0,0-24.45,1.49,170.58,170.58,0,0,1,63.49,10.5q.07-3.76,0-7.22A171,171,0,0,0,365.38,913.4Z"/><path class="cls-4" d="M471.75,916c7.77-1,18-.12,25.85-.07-20-2.6-41.94-2.92-61.8,1.47.46,2.3.91,4.47,1.31,6.34A166.37,166.37,0,0,1,471.75,916Z"/><path class="cls-4" d="M476.73,939.54c7.54-1.22,23.42.74,31.06.42-19.68-1.76-46.75-3.11-66.31,1.15.55,2.08,1.12,4.27,1.71,6.53A183.41,183.41,0,0,1,476.73,939.54Z"/><path class="cls-4" d="M481.71,963.05c7.32-1.41,21.2-.32,28.63-1-19.11-.9-43.64-1.41-62.68,2.64l1.77,6.78C459.84,968,471.27,964.68,481.71,963.05Z"/><path class="cls-4" d="M486.68,986.57c7.12-1.61,19.84-.64,27.06-1.69-18.48,0-41.41-.46-59.91,3.4q.93,3.5,1.84,7C465.53,992,477,988.38,486.68,986.57Z"/><path class="cls-4" d="M491.66,1010.08c6.91-1.8,14.8-3.43,21.8-4.82a337.92,337.92,0,0,0-53.44,6.61c.64,2.43,1.27,4.85,1.9,7.23C471.13,1016,482.73,1012.06,491.66,1010.08Z"/><path class="cls-4" d="M496.64,1033.6c6.71-2,14.4-4,21.18-5.75a488.71,488.71,0,0,0-51.61,7.61c.68,2.56,1.33,5,2,7.44C476.62,1040,488.59,1035.71,496.64,1033.6Z"/><path class="cls-4" d="M501.62,1057.11c6.5-2.2,14-4.59,20.55-6.67-16.23,2.35-33.15,5.27-49.73,8.6.78,3,1.46,5.51,2,7.65C482,1064,494.59,1059.31,501.62,1057.11Z"/><path class="cls-4" d="M526.53,1073l-46.9,9.4c.92,2.34,1.92,4.79,3,7.33C483.81,1089.3,524.11,1074,526.53,1073Z"/><path class="cls-4" d="M506.09,1111.17c7.38-3,32.08-7.67,39.31-11-13.11,3.64-41.09,4.59-54.84,7.41q1.29,2.81,2.6,5.59C498.67,1111.08,501.89,1112.84,506.09,1111.17Z"/><path class="cls-4" d="M512.47,1136.87c6.49-2.87,26.71-7.2,32.92-10.62-9.47,3.47-33.23,3.65-43.16,6.08.66,1.4,2.41,6.44,3,7.73C508.05,1139,510.31,1137.79,512.47,1136.87Z"/><path class="cls-4" d="M512.65,1164.13c6.67-3.11,28.89-9,35.1-12.94-7.89,3.67-31.32,8.55-39.66,11.07-.23,1.26-.5,2.67-.79,4.2C509.57,1165.54,510.79,1165,512.65,1164.13Z"/><path class="cls-4" d="M518.38,1190.8c7.84-3.67,28.58-10.27,35.62-15.3-10.7,5.77-38.35,8.38-50.27,11.3-.27,1.6-.54,3.21-.8,4.83C507.55,1190,514.49,1192.52,518.38,1190.8Z"/><path class="cls-4" d="M516.36,1219c13.85-4.08,28.15-9.42,39.44-18.29-12.41,7.86-41.69,11.85-56.23,14.3-.2,1.67-.37,3.31-.53,4.89C500.32,1219.57,515.25,1219.33,516.36,1219Z"/><path class="cls-4" d="M509,1248.19c14.15-3.94,39.88-12.17,50.85-21.81-13.06,9.56-44.53,13.94-60.73,15.81.17,1.41.38,2.88.61,4.39C501.81,1246.13,507.12,1248.72,509,1248.19Z"/><path class="cls-4" d="M522.74,1272c10.5-4.4,31-12.39,39.1-20.3-12.15,10.19-42.09,14.9-57.93,16.93.27,1.22.54,2.44.82,3.65C509.44,1271.27,518.32,1273.93,522.74,1272Z"/></g><path class="cls-4" d="M458.41,898.57a147.82,147.82,0,0,1,24.36-4.06l3.1-.28c.52,0,1-.1,1.55-.12l1.55,0,6.23-.16c2.08-.11,4.15.06,6.23.13l6.25.26-6.2-.88c-2.07-.28-4.14-.66-6.23-.75l-6.27-.48-1.57-.11c-.53,0-1.05,0-1.58,0l-3.15,0a158.07,158.07,0,0,0-50.1,7.37l-.26.08c.45,2.35.94,4.94,1.45,7.59.48-.22,1-.44,1.43-.64A147,147,0,0,1,458.41,898.57Z"/><path class="cls-4" d="M354.28,892l-3.15,0c-.52,0-1.05,0-1.57,0l-1.57.11-6.27.48c-2.09.09-4.16.47-6.24.75l-6.19.88,6.25-.26c2.08-.07,4.15-.24,6.23-.13l6.23.16,1.55,0c.51,0,1,.08,1.55.12l3.09.28a153.29,153.29,0,0,1,47.58,11.9c.73.31,1.46.64,2.19,1-.23-3.16-.51-6-.8-8.37a157.51,157.51,0,0,0-48.88-7Z"/><path class="cls-4" d="M368.59,941.08c-6.29-.89-17.8-2.45-24.11-2.28l-3-.1c-.4,0-1.1-.07-1.5,0l-1.5,0-6,.09c-1.57.07-4.41.1-6,.31l-5.94.4,6,.3c1.56,0,4.35.3,5.91.38l5.9.59,1.46.14c.39,0,1.08.18,1.46.21l2.94.44c6.19.45,17.16,3.44,23.14,4.9a184.76,184.76,0,0,1,22.54,7.83c2.8,1.19,7.95,3.46,10.63,4.87l.49.26c.61-3.33,1.12-6.6,1.55-9.78-3.12-1.11-7.51-2.4-10.07-3.2A189.49,189.49,0,0,0,368.59,941.08Z"/><path class="cls-4" d="M363.13,964.78c-5.25-.73-18.3-2.73-23.56-2.59l-2.94-.17c-.33,0-1.12-.09-1.45-.07l-1.46,0-5.87-.09c-1.31.06-4.53-.09-5.83.08l-5.8.16,5.86.59c1.3,0,4.46.56,5.76.63l5.73.8,1.41.19c.33,0,1.11.23,1.43.25l2.85.52c5.16.38,17.55,4.11,22.53,5.32s17.53,5.83,22.2,7.83c2.34,1,8.24,3.5,10.47,4.67.19.11.46.25.75.39.5-1.61,1-3.16,1.38-4.61q.74-2.64,1.4-5.23c-2.6-1-8.9-2.7-11.4-3.47A217.76,217.76,0,0,0,363.13,964.78Z"/><path class="cls-4" d="M357.66,988.49c-4.2-.59-18.78-3-23-2.9l-2.87-.24c-.26,0-1.15-.13-1.41-.12l-1.43-.06-5.73-.29c-1.05,0-4.66-.28-5.69-.14l-5.68-.08,5.74.87c1,0,4.56.83,5.6.88l5.56,1,1.37.25c.26,0,1.12.27,1.38.29l2.77.61c4.13.3,17.93,4.76,21.92,5.73s18.12,6.24,21.86,7.83c1.62.69,6.77,2.81,9.31,4,1.23-3.4,2.4-6.68,3.49-9.8-2.84-.9-8.45-2.31-10.19-2.85C376.59,992.19,361.86,989.07,357.66,988.49Z"/><path class="cls-4" d="M352.19,1012.2c-3.14-.44-19.27-3.31-22.42-3.22l-2.8-.31c-.2,0-1.18-.16-1.38-.15l-1.39-.11-5.6-.48c-.78,0-4.77-.46-5.55-.36l-5.55-.31,5.61,1.14c.78,0,4.66,1.1,5.44,1.14l5.4,1.22,1.33.3c.19,0,1.14.32,1.33.34l2.69.68c3.1.23,18.32,5.43,21.31,6.16s18.72,6.63,21.53,7.82c.9.39,4.24,1.74,6.89,2.85l3.63-9.89c-3-.77-6.91-1.71-7.92-2C371.68,1016,355.34,1012.64,352.19,1012.2Z"/><path class="cls-4" d="M346.73,1035.91c-2.1-.3-19.76-3.59-21.87-3.54l-2.73-.38c-.13,0-1.2-.18-1.33-.18l-1.36-.16L314,1031c-.52,0-4.9-.66-5.42-.59l-5.41-.55,5.48,1.43c.52,0,4.76,1.35,5.28,1.38l5.24,1.44,1.27.35c.13,0,1.17.37,1.3.38l2.61.77c2.06.15,18.7,6.09,20.69,6.57s19.32,7,21.19,7.83l4.56,1.83q1.77-5,3.56-10c-2.5-.58-5-1.16-5.52-1.32C366.77,1039.87,348.83,1036.2,346.73,1035.91Z"/><path class="cls-4" d="M341.26,1059.61c-1.05-.14-20.25-3.87-21.3-3.84l-2.66-.45c-.07,0-1.23-.22-1.3-.22l-1.31-.21-5.33-.85c-.26,0-5-.84-5.28-.81l-5.29-.79,5.35,1.71c.26,0,4.87,1.62,5.13,1.64l5.07,1.65,1.23.4c.06,0,1.19.42,1.25.42l2.53.85c1,.08,19.08,6.75,20.08,7s19.92,7.42,20.85,7.82L363,1075c1.07-3.36,2.18-6.77,3.32-10.19-1.79-.39-3.25-.7-3.44-.76C361.86,1063.72,342.31,1059.76,341.26,1059.61Z"/><path class="cls-4" d="M294.44,1075l39.4,15,22.41,8.54c.86-3.44,1.81-7,2.84-10.59l-23.3-4.67Z"/><path class="cls-4" d="M332.6,1110c-.48-.09-9.4-1.9-9.87-2.06-.25-.08-5-1.08-5.23-1.18l-2.6-.61-1.3-.3-1.28-.31c-.48-.24-10-2.32-10.41-2.61s-9.93-2.44-10.34-2.78c.38.37,9.36,4,9.79,4.33s9.51,3.93,10,4.21l1.23.51,1.23.5,2.5,1c.25.11,4.83,1.89,5.08,2,.46.2,8.93,3.4,9.42,3.53l.82.3c1,.26,16.6,5.93,20.19,6.89.25-3.06.68-6.33,1.26-9.78-4-.53-19-3.36-19.91-3.53Z"/><path class="cls-4" d="M351,1139.88c-2.06.27-18.95-2.72-21-3.09l-.55-.11c-1-.18-9-1.83-9.92-2.15-.5-.15-4.73-1.12-5.22-1.3l-2.6-.7-1.29-.35-1.28-.36c-.95-.48-9.39-2.52-10.28-3.12s-9.3-2.74-10.13-3.43c.77.75,8.73,4.18,9.58,4.85s8.94,4,9.87,4.58l1.23.55,1.23.52,2.51,1.07c.49.23,4.59,1.87,5.1,2.07.92.4,8.53,3.25,9.51,3.51l.83.29c2.13.56,19,6.35,21.25,6.23.92,0,6.91,1.77,9.55,2.26-1.2-3.91-2.43-7.64-3.55-10.89A43.47,43.47,0,0,0,351,1139.88Z"/><path class="cls-4" d="M358.34,1166.24c-1.48.43-8.82-.42-10.36-.21-3.09.4-18.08-2-21.18-2.56l-.57-.11c-1.46-.27-8.54-1.75-10-2.24-.76-.23-4.48-1.15-5.23-1.43l-2.58-.78-1.29-.39-1.27-.42c-1.43-.72-8.83-2.73-10.17-3.62s-8.67-3.06-9.9-4.1c1.15,1.13,8.08,4.38,9.36,5.37s8.37,4.12,9.77,5l1.23.59,1.23.55,2.51,1.13c.74.34,4.36,1.83,5.12,2.13,1.39.6,8.15,3.11,9.62,3.51.12,0,.71.24.84.27,3.2.84,18.27,5.61,21.61,5.44,1.67-.1,9.23,1.93,10.87,1.59.83-.18,4.6.74,5.41.5a8.39,8.39,0,0,1,1.8.14,93.89,93.89,0,0,0-1.83-10.48C362.61,1166.34,359.07,1166,358.34,1166.24Z"/><path class="cls-4" d="M363,1190.86c-.46.21-2,.18-2.5.36-1,.37-4.09.27-5.08.56-2,.58-8.37.13-10.43.4-4.11.54-17.2-1.28-21.34-2L323,1190c-2-.36-8.1-1.68-10-2.33-1-.31-4.23-1.18-5.22-1.55l-2.58-.87-1.28-.44-1.27-.47c-1.9-1-8.26-2.94-10.05-4.12s-8-3.38-9.68-4.76c1.54,1.5,7.45,4.56,9.15,5.89s7.81,4.21,9.67,5.33l1.23.63,1.24.58,2.5,1.19c1,.46,4.13,1.8,5.15,2.2,1.85.8,7.76,3,9.71,3.49.17,0,.69.22.86.26,4.26,1.12,17.52,4.87,22,4.64,2.22-.12,8.86,1.28,11.06.81,1.1-.23,4.4.34,5.49,0a15.65,15.65,0,0,1,2.22,0c.72-3.67,1.26-7,1.63-10a3.33,3.33,0,0,0-.67.14C364,1190.76,363.2,1190.76,363,1190.86Z"/><path class="cls-4" d="M352.44,1217.32c-2.47.73-7.92.67-10.49,1-5.14.67-16.34-.57-21.51-1.51l-.58-.11a96.49,96.49,0,0,1-10-2.42c-1.26-.38-4-1.22-5.22-1.68l-2.56-1-1.28-.48-1.26-.52c-2.38-1.19-7.7-3.14-9.93-4.62s-7.4-3.7-9.47-5.42c1.93,1.88,6.81,4.75,8.94,6.41s7.24,4.3,9.57,5.7l1.22.67,1.25.61,2.51,1.25c1.24.57,3.89,1.77,5.16,2.26a97,97,0,0,0,9.82,3.48c.21.06.65.2.87.25,5.32,1.4,16.77,4.14,22.33,3.85,2.78-.16,8.5.61,11.24,0a16.29,16.29,0,0,1,2.6-.17c.92-3.13,2.14-5.94,2.9-8.77-.65.16-.51,0-1,.18C356.34,1216.83,353.67,1217,352.44,1217.32Z"/><path class="cls-4" d="M338.94,1244.49c-6.17.8-15.47.15-21.67-1l-.6-.11a80.1,80.1,0,0,1-10.07-2.51c-1.52-.46-3.73-1.25-5.22-1.8l-2.56-1-1.27-.52-1.26-.58a107.46,107.46,0,0,1-9.81-5.12c-2.68-1.78-6.77-4-9.24-6.09,2.3,2.26,6.17,4.94,8.72,6.94a108.08,108.08,0,0,0,9.47,6.07l1.22.7,1.25.65,2.51,1.31c1.49.68,3.66,1.73,5.19,2.33a83.11,83.11,0,0,0,9.92,3.46l.87.25c6.4,1.67,16,3.39,22.7,3,2.85-.16,4.32-.11,7.46-.53.91-2.62,2-4.63,2.82-7.1C348.61,1243,342,1244.08,338.94,1244.49Z"/><path class="cls-4" d="M314.09,1270.2a71.35,71.35,0,0,1-10.72-2.72c-1.77-.54-3.47-1.28-5.21-1.93l-2.55-1.13-1.28-.57-1.24-.63a91.09,91.09,0,0,1-9.69-5.63,99.89,99.89,0,0,1-9-6.74,100.58,100.58,0,0,0,8.51,7.45,93.14,93.14,0,0,0,9.37,6.45l1.22.74,1.25.68,2.52,1.37c1.73.8,3.42,1.7,5.21,2.39a73.56,73.56,0,0,0,10.9,3.69,75.42,75.42,0,0,0,21.67,2.3c.48-1.2.92-2.23,1.31-3l1.34-2.9a5.5,5.5,0,0,1-1.75.65A71.09,71.09,0,0,1,314.09,1270.2Z"/><path class="cls-4" d="M374.06,917.37c-7.34-1-17.32-2.17-24.68-2l-3.08,0c-.46,0-1.08,0-1.53,0l-1.54.07-6.14.28c-1.83.08-4.28.29-6.09.53l-6.07.64,6.12,0c1.82-.06,4.26,0,6.08.13l6.06.37,1.5.09c.46,0,1.06.13,1.51.17l3,.35c7.22.53,16.77,2.78,23.75,4.48a163.58,163.58,0,0,1,22.87,7.84c2.46,1,5.54,2.44,8.24,3.77.2-3.22.31-6.32.35-9.27-2.09-.71-4.19-1.38-6-1.94A168.58,168.58,0,0,0,374.06,917.37Z"/><path class="cls-4" d="M464,922.5c7-1.7,16.53-4,23.75-4.48l3-.35c.45,0,1.05-.15,1.5-.17l1.51-.09,6.06-.37c1.82-.1,4.25-.19,6.07-.13l6.13,0-6.07-.64c-1.81-.24-4.27-.45-6.1-.53l-6.13-.28-1.54-.07c-.46,0-1.07,0-1.53,0l-3.08,0c-7.37-.2-17.34.94-24.68,2a168.71,168.71,0,0,0-24.4,5.53l-1.49.47c.49,2.31.93,4.23,1.25,5.49.21.78.42,1.6.64,2.44.77-.34,1.52-.67,2.22-1A163.58,163.58,0,0,1,464,922.5Z"/><path class="cls-4" d="M469.59,946.44c6-1.46,17-4.45,23.14-4.9l2.93-.44c.39,0,1.08-.19,1.47-.21l1.46-.14,5.89-.59c1.56-.08,4.36-.43,5.92-.38l6-.3-5.93-.4c-1.56-.21-4.4-.24-6-.31l-6-.09-1.5,0c-.39,0-1.1,0-1.49,0l-3,.1c-6.31-.17-17.82,1.39-24.12,2.28a190.27,190.27,0,0,0-23.93,5.34l-1.45.45c.69,2.63,1.41,5.38,2.15,8.22l1.91-.82A184.76,184.76,0,0,1,469.59,946.44Z"/><path class="cls-4" d="M475.18,970.37c5-1.21,17.37-4.94,22.53-5.32l2.85-.52c.32,0,1.1-.24,1.42-.25l1.42-.19,5.73-.8c1.3-.07,4.45-.67,5.75-.63l5.87-.59-5.81-.16c-1.29-.17-4.51,0-5.82-.08l-5.87.09-1.46,0c-.33,0-1.13.08-1.46.07l-2.94.17c-5.26-.14-18.31,1.86-23.55,2.59A218.47,218.47,0,0,0,450.37,970l-1.24.37c.74,2.81,1.49,5.67,2.24,8.56l1.61-.68C457.65,976.2,470.19,971.58,475.18,970.37Z"/><path class="cls-4" d="M480.77,994.3c4-1,17.79-5.43,21.91-5.73l2.78-.61c.25,0,1.12-.28,1.38-.29l1.36-.25,5.57-1c1,0,4.56-.91,5.6-.88l5.74-.87-5.68.08c-1-.14-4.64.19-5.69.14l-5.73.29-1.43.06c-.26,0-1.15.12-1.41.12l-2.87.24c-4.21-.12-18.8,2.31-23,2.9s-18.93,3.7-23,5l-1,.3c.78,3,1.56,6,2.34,8.91l1.29-.55C462.64,1000.54,476.78,995.27,480.77,994.3Z"/><path class="cls-4" d="M486.36,1018.24c3-.73,18.21-5.93,21.3-6.16l2.69-.68c.2,0,1.15-.33,1.34-.34l1.32-.3,5.4-1.22c.78,0,4.66-1.16,5.44-1.14l5.61-1.14-5.54.31c-.78-.1-4.77.4-5.56.36l-5.59.48-1.39.11c-.2,0-1.18.15-1.38.15l-2.8.31c-3.16-.09-19.28,2.78-22.43,3.22s-19.48,3.83-22.54,4.79l-.81.23c.83,3.14,1.64,6.23,2.43,9.25l1-.41C467.63,1024.87,483.37,1019,486.36,1018.24Z"/><path class="cls-4" d="M492,1042.17c2-.48,18.63-6.42,20.69-6.57l2.61-.77c.13,0,1.17-.37,1.3-.38l1.27-.35,5.24-1.44c.52,0,4.76-1.4,5.28-1.38l5.48-1.43-5.42.55c-.51-.07-4.89.61-5.41.59l-5.47.66-1.35.16c-.13,0-1.2.19-1.34.18l-2.73.38c-2.1,0-19.76,3.24-21.86,3.54s-20,4-22.08,4.6l-.57.16,2.52,9.59.65-.26C472.63,1049.2,490,1042.66,492,1042.17Z"/><path class="cls-4" d="M497.54,1066.11c1-.25,19.05-6.92,20.08-7l2.53-.85c.06,0,1.19-.42,1.25-.42l1.23-.4,5.07-1.65c.26,0,4.86-1.65,5.12-1.64l5.35-1.71-5.28.79c-.26,0-5,.82-5.28.81l-5.33.85-1.32.21c-.06,0-1.23.22-1.29.22l-2.66.45c-1,0-20.25,3.7-21.3,3.84s-20.6,4.11-21.62,4.43l-.3.07c.67,2.55,1.24,4.66,1.67,6.23.31,1.13.68,2.35,1.1,3.64l.12,0C477.62,1073.53,496.54,1066.35,497.54,1066.11Z"/><path class="cls-4" d="M542.53,1075l-41.35,8.29-19.61,3.93c1.26,3,2.63,6.21,4.07,9.45l17.49-6.66Z"/><path class="cls-4" d="M506.18,1116.23c.49-.13,8.95-3.33,9.42-3.53.25-.1,4.83-1.88,5.08-2l2.5-1,1.22-.5,1.23-.51c.47-.28,9.55-3.88,10-4.21s9.4-4,9.79-4.33c-.41.34-9.9,2.48-10.35,2.78s-9.93,2.37-10.4,2.61l-1.29.31-1.29.3-2.6.61c-.25.1-5,1.1-5.23,1.18-.47.16-9.39,2-9.88,2.06l-.54.11c-.54.1-5.94,1.12-11.12,2.05,1.19,2.56,2.38,5.08,3.55,7.55,4.48-1.57,8.63-3,9.11-3.18Z"/><path class="cls-4" d="M509.24,1142.42c1-.26,8.59-3.11,9.51-3.51.51-.2,4.61-1.84,5.1-2.07l2.5-1.07,1.24-.52,1.22-.55c.94-.56,9-3.92,9.88-4.58s8.8-4.1,9.57-4.85c-.82.69-9.23,2.84-10.12,3.43s-9.33,2.64-10.29,3.12l-1.27.36-1.3.35-2.59.7c-.5.18-4.72,1.15-5.23,1.3-.94.32-8.94,2-9.91,2.15l-.56.11-2.47.44c1,2.14,1.9,4.11,2.68,5.84l1.2-.36C508.49,1142.69,509.15,1142.45,509.24,1142.42Z"/><path class="cls-4" d="M512.29,1168.62c1.47-.4,8.23-2.91,9.61-3.51.77-.3,4.38-1.79,5.13-2.13l2.5-1.13,1.24-.55,1.23-.59c1.39-.84,8.49-4,9.77-5s8.21-4.24,9.36-5.37c-1.24,1-8.56,3.22-9.9,4.1s-8.74,2.9-10.17,3.62l-1.27.42-1.29.39-2.59.78c-.74.28-4.46,1.2-5.22,1.43-1.42.49-8.49,2-10,2.24l-.57.11-2.3.39c-.37,2-.78,4.13-1.2,6.41,2.15-.63,3.91-1.15,4.78-1.38C511.57,1168.86,512.16,1168.65,512.29,1168.62Z"/><path class="cls-4" d="M515.34,1194.81c2-.53,7.87-2.69,9.72-3.49,1-.4,4.15-1.74,5.14-2.2l2.51-1.19,1.24-.58,1.23-.63c1.86-1.12,8-4,9.67-5.33s7.61-4.39,9.15-5.89c-1.65,1.38-7.9,3.58-9.69,4.76s-8.14,3.16-10,4.12l-1.26.47-1.29.44-2.57.87c-1,.37-4.21,1.24-5.22,1.55-1.89.65-8,2-10,2.33l-.57.11c-2,.37-6.21,1-10.42,1.47-.37,2.22-.72,4.45-1.07,6.68,4.94-1.12,10.22-2.59,12.63-3.23C514.66,1195,515.17,1194.85,515.34,1194.81Z"/><path class="cls-4" d="M518.4,1221a96.81,96.81,0,0,0,9.81-3.48c1.28-.49,3.93-1.69,5.17-2.26l2.51-1.25,1.24-.61,1.23-.67c2.33-1.4,7.44-4,9.57-5.7s7-4.53,8.93-6.41c-2.06,1.72-7.23,3.94-9.46,5.42s-7.55,3.43-9.93,4.62l-1.26.52-1.28.48-2.57,1c-1.24.46-4,1.3-5.22,1.68a96.31,96.31,0,0,1-10,2.42l-.59.11a121.24,121.24,0,0,1-17.34,1.69c-.23,2.27-.43,4.43-.57,6.47,6-.52,14.53-2.58,18.92-3.74C517.74,1221.2,518.19,1221.06,518.4,1221Z"/><path class="cls-4" d="M521.45,1247.19a83.74,83.74,0,0,0,9.92-3.46c1.53-.6,3.7-1.65,5.18-2.33l2.52-1.31,1.25-.65,1.22-.7a107.91,107.91,0,0,0,9.46-6.07c2.56-2,6.42-4.68,8.73-6.94-2.48,2.07-6.57,4.31-9.24,6.09a106.34,106.34,0,0,1-9.82,5.12l-1.25.58-1.28.52-2.55,1c-1.5.55-3.7,1.34-5.22,1.8a80.1,80.1,0,0,1-10.07,2.51l-.6.11a85.28,85.28,0,0,1-20.28,1.13q.4,2.83.92,5.88a93.82,93.82,0,0,0,20.23-3.08Z"/><path class="cls-4" d="M534.52,1269.93c1.79-.69,3.48-1.59,5.21-2.39l2.51-1.37,1.26-.68,1.22-.74a93,93,0,0,0,9.36-6.45,102.3,102.3,0,0,0,8.52-7.45,99.89,99.89,0,0,1-9,6.74,91.09,91.09,0,0,1-9.69,5.63l-1.25.63-1.27.57-2.55,1.13c-1.74.65-3.44,1.39-5.22,1.93a72,72,0,0,1-29.16,3.52q.56,2.49,1.14,5a75.56,75.56,0,0,0,28.95-6Z"/><polygon class="cls-5" points="257.8 1010.52 277.9 1007.25 331.09 982.67 354.17 831.64 257.8 1010.52"/><path class="cls-5" d="M313,813s39.38,38,91.88,33.47L319,807.43Z"/><path class="cls-6" d="M314,809.52s18.38,10.23,43.73,26.28c24.73,15.66,77.26,11.11,112.57,3,30.46-7,59.88-29.26,59.88-29.26s-1.88-6.45-5.45-21.63c0,0-67.25,12.66-115.81,11.53a835.48,835.48,0,0,1-88.47-6.84Z"/><path class="cls-7" d="M248.57,1119.9c2.48,12.56,5.38,16.92,9.88,20.75,9.68-.91,8.09-9.12,18.3-8.33,6.8.53,37.63,5.84,59.87,9.93,1.2.22,29.89,41.47,31,41.68,0-17.72-8.18-37.2-8.18-37.2l-6.05-16.42-61.23-17.56-14.87-17.43s-17.85-52.77-23-57.36c0,0-4,35-5.23,44.76S245.8,1105.87,248.57,1119.9Z"/><path class="cls-8" d="M320,785.84a174.55,174.55,0,0,1,44.35,20c22.17,14,70.45,16,100.92,2.67,25.67-11.22,59.24-26.33,59.24-26.33s-3.74-5.71-3.74-19.82c0,0-67,11.88-110.53,10.87a852.15,852.15,0,0,1-85-6.76Z"/><path class="cls-9" d="M324.29,768.13l43.88,41.49s105.56-1.88,107.06-1.74,53.56-43.42,53.56-43.42-3.73-5.71-3.73-19.82c0,0-67,7.53-110.53,6.51s-85-2.4-85-2.4Z"/><path class="cls-5" d="M353.4,1130.31l-56.14-17.76-17.38-19.3s-20.43-50.7-25.61-55.29l23,57.36,14.87,17.43Z"/><path class="cls-5" d="M320.5,764.34s41.84,58.85,43.9,59.88,106.51-3.79,106.51-3.79l-89.12-18.3Z"/><polygon class="cls-5" points="267.24 1025.8 280.48 1088.38 327.41 1080.55 360.52 1082.75 267.24 1025.8"/><path class="cls-10" d="M320.5,764.34l45,56.17s103.27-.14,104.76,0S525,760.67,525,760.67s-3.74-5.71-3.74-19.82c0,0-67,7.53-110.53,6.51s-85-2.39-85-2.39Z"/><path class="cls-11" d="M268.68,1025.64l17.48,58,44.72-9.74,31.64,6.88s30.26-73.59,41.27-101.79L344,968l-2.06,19.95a145.67,145.67,0,0,1-73.21,37.74Z"/><path class="cls-9" d="M355.11,829c-.22-1.3-31.34-56.41-31.34-56.41l-3.46,12.1Z"/><path class="cls-12" d="M316.93,771.14S276.42,844,269.61,912.49s-11.81,98-11.81,98,41.93-21.26,69.68-33.07c10.85-76.8,20.15-105.7,27-148.33C346.78,816.33,316.93,771.14,316.93,771.14Z"/><polygon class="cls-5" points="587.14 1010.52 567.04 1007.25 513.86 982.67 490.78 831.64 587.14 1010.52"/><path class="cls-13" d="M598,1109s-10.24,27.23-14.07,32.49c-10.76-6.16-31.59-9.16-31.59-9.16l-36.6,9.49-12.58,40.72,2.52-39.77-5.78-13.84,49.15-7.84,7.68-18.33,9.33-62.87,23.07,53.71Z"/><polygon class="cls-5" points="541.31 1120.03 551.46 1101.96 566.1 1039.87 556.52 1103.38 549.09 1121.08 499.94 1128.91 541.31 1120.03"/><polygon class="cls-5" points="557.91 1034.61 549.89 1092.61 502.55 1079.89 469.47 1076.15 557.91 1034.61"/><path class="cls-14" d="M557.91,1034.61l-13.49,51.06L500,1073.21l-30.56,2.94S449.22,1003.46,442,975.68L499.59,972l-.29,19a138.35,138.35,0,0,0,26.55,24.69C540.26,1026,548,1031.44,557.91,1034.61Z"/><path class="cls-9" d="M489.84,829c.21-1.3,31.34-56.41,31.34-56.41l3.46,12.1Z"/><path class="cls-15" d="M528,771.14S568.53,844,575.33,912.49s11.81,98,11.81,98-41.92-21.26-69.68-33.07c-10.84-76.8-20.14-105.7-27-148.33C498.17,816.33,528,771.14,528,771.14Z"/></g></g></svg>