<svg xmlns="http://www.w3.org/2000/svg" viewBox="0 0 837.33 1537"><defs><style>.cls-1{fill:none;}.cls-2{fill:#261e18;}</style></defs><g id="Layer_2" data-name="Layer 2"><g id="base"><rect class="cls-1" width="837.33" height="1537"/></g><g id="chest_04"><path class="cls-2" d="M560.59,570.29c-14.48-28.68-19.82-60.51-19.9-92.46a356.65,356.65,0,0,1,9-78.59c.21-.92.46-1.83.73-2.73a264.66,264.66,0,0,1-30.58-22.24c-4.17-3.57-13-8.72-13-8.72s6.52,139.45-87.24,139.3-24.8-96-26.71-105,5.36-18.28,5.36-18.28-7.86,1.23-11.24,3.43l-2.35,1.57a279.6,279.6,0,0,1-34.48,19c-.29.52-.58,1.05-.89,1.55q-1.35,2.21-2.53,4.49c-3.6,10.38-5.93,21.17-8.24,31.9-1.85,8.61-3.38,17.45-6.61,25.68-6.17,15.75-13.09,31.52-22.11,45.88a145.24,145.24,0,0,1-19,24.72c-.05,15,.73,31.47,3.54,43.51l13.18,5.53,7.56,74.47,4.1,6.51,3.9,31.47s9.12,43.43,12.31,52.84c0,0,39,20.86,98.46,17.14S513.42,745,513.42,745s-4.77-39.21,19.43-67.31c18.77-21.79,29.2-52.79,45.09-75.4,1-1.44,2-2.9,3.06-4.36A105.9,105.9,0,0,1,560.59,570.29Z"/></g></g></svg>