<?xml version="1.0" encoding="utf-8"?>
<!-- Generator: Adobe Illustrator 25.4.1, SVG Export Plug-In . SVG Version: 6.00 Build 0)  -->
<svg version="1.1" id="Layer_1" xmlns="http://www.w3.org/2000/svg" xmlns:xlink="http://www.w3.org/1999/xlink" x="0px" y="0px"
	 viewBox="0 0 837.3 1537" style="enable-background:new 0 0 837.3 1537;" xml:space="preserve">
<style type="text/css">
	.st0{fill:none;}
	.st1{fill-rule:evenodd;clip-rule:evenodd;fill:url(#SVGID_1_);}
	.st2{fill:#6B828E;}
	.st3{fill-rule:evenodd;clip-rule:evenodd;fill:#1D292D;}
	.st4{fill-rule:evenodd;clip-rule:evenodd;fill:#415056;}
	.st5{fill:#1D292D;}
</style>
<g id="Layer_2_00000116949612655385037520000001111239196453861001_">
	<g id="base">
		<rect class="st0" width="837.3" height="1537"/>
	</g>
	<g id="Legs_02">
		
			<linearGradient id="SVGID_1_" gradientUnits="userSpaceOnUse" x1="439.1118" y1="701.3491" x2="426.8518" y2="382.6092" gradientTransform="matrix(1 0 0 -1 0 1538)">
			<stop  offset="1.000000e-02" style="stop-color:#705029"/>
			<stop  offset="1" style="stop-color:#54320C"/>
		</linearGradient>
		<path class="st1" d="M581.9,1341.7c0,0-8,4.2-14.7,0c-14.8-9.2-46.8,19.7-46.8,19.7l-4.9-46.9c0,0-17.1-60-17.1-82.4
			s11.4-76.8,11.9-80.8s-28.6-58.4-34.7-80.8c-5-18.2-28.5-108.2-37.2-141.5c-2-7.7-7.8-32-7.8-32l-28.9-7.7c0,0,9.1,39.8-5,89.6
			c-9.6,34-44.7,112.7-45,150c0,0,13.5,34.4,13.9,51.6c0.4,12.9-4.7,37-18.8,76.6c-2.4,6.6-10.3,16.1-10.3,16.1
			c-5.3,11.1-9.9,22.4-14,34c-4.9,14.3-18.4,48.3-21.1,49.6c-0.4,0.2-22.5-24-60.9-42.4l3.7-30.6c0,0,1.4-4.8,3.5-13.5
			c4.5-17.9,5-35.9,9.7-63.3c2.6-15.3,11-32.2,11.4-56.7c0,0-7.4-48.8-8.9-76.3c-0.3-6,2.3-45.5,2.6-49.8c0.9-13.4,6-46,13.3-80.8
			c5.9-27.8,13.2-57,21-78.8c17.6-49,37.2-114.8,37.2-114.8s149.8,7.9,179.5-4.3l5.9,20.2l3.1,10.4c0,0,17.9,92.2,37.1,149.3
			c0,0.2,0.2,0.4,0.2,0.6c19,57.2,15.7,155.3,19.8,180.6s22,80.1,24.5,117.7c1.7,25.6-6.7,46.3-8.9,60.5c-0.8,4.6-1.9,9.1-3.3,13.5
			L581.9,1341.7z"/>
		<path class="st2" d="M337.3,761.4c-2.2,0.2-3.2-0.3-5.5,0c-0.1,1.3-3.3,10.3-3.5,11.6c11.9,21.5-4.5,43.3,0.1,66.7l10.4-20.5
			c2.2,17.7,0.8,34.5,6.1,50.9c3.6-3.2,2.9-7.7,6-10.8c1.1,7.8,2.2,14.9,3.5,23.8c5.4-9.2,9.8-16.8,14.8-25.3
			c5.5,18.9,0.9,38.3,7.3,56.7l3.5-13.1c2.2,9.8,4.3,18.8,6.4,27.9h1.5c3.2-14.2,6.6-12.1,9.5-26.5c-0.3,9.8,4.2,14.1,3.3,23.6
			c-1.1,11.8,1,18.7,1.9,30.6c0.6,7.4,1.3,14.9,4.3,23.2c1.4-4.4,2.2-7.4,3.2-10.3s2.2-5.7,3.3-8.6c-1.5,10.3-0.2,20,3.3,31.2
			c5.9-11.1,12.4-20.3,15-32.7c5,6.8,7.1,14.1,8.7,23.4c6.1-19.2,11.1-36.9,13.2-56c4.2,4.8,3.9,10.9,6.9,16.2
			c4.2-12.5,5.1-24.7,5.7-38.3c4.7,8.5,6.5,16.6,9.4,24c1-0.1,1.7-0.9,1.7-1.9c0.4-10.8,1.3-21.7-1.8-32.3
			c-2.9-10.2-2.6-20.7-0.8-32.5c2.8,8.7,2.3,17.4,9.2,23.5c3.1-15.4,7.3-29.7,7.6-44.8c0-1.5-0.6-3.8,1.5-4.2
			c1.8-0.3,2.8,1.5,3.4,2.9c1.5,3.7,2.6,7.5,4.4,12.7c5.3-18,7.1-34.9,6.8-53.3c3.3,5.1,6.1,10.6,8.4,16.3c3.2-6.8,3.7-13.5,4.2-20
			c0.8-11.3,0.3-27.4-9.5-31.8c-3.8-1.7-96.1-4.5-95.5,0.2L337.3,761.4z"/>
		<path class="st3" d="M333.9,749.3c59.5-8.5,119.7-10,179.5-4.3l5.9,20.2c-62.8,13.8-127.8,14.4-190.8,1.8
			C330.3,761.1,332.1,755.2,333.9,749.3z"/>
		<polygon class="st4" points="466.3,796.5 466.3,737.4 415.2,707.8 364,737.4 364,796.5 415.2,826 		"/>
		<circle class="st5" cx="415.2" cy="724.3" r="7.3"/>
		<circle class="st5" cx="451.2" cy="747" r="7.3"/>
		<circle class="st5" cx="451.2" cy="787" r="7.3"/>
		<circle class="st5" cx="415.2" cy="812.5" r="7.3"/>
		<circle class="st5" cx="377.5" cy="787" r="7.3"/>
		<circle class="st5" cx="377.5" cy="747" r="7.3"/>
		<path class="st5" d="M415.2,796.5l-25.6-14.8v-29.5l25.6-14.8l25.6,14.8v29.5L415.2,796.5z M395.6,778.2l19.6,11.3l19.6-11.3
			v-22.6l-19.6-11.3l-19.6,11.3V778.2z"/>
	</g>
</g>
</svg>
