<svg xmlns="http://www.w3.org/2000/svg" xmlns:xlink="http://www.w3.org/1999/xlink" viewBox="0 0 837.33 1537"><defs><style>.cls-1{fill:none;}.cls-2{fill:url(#Áåçûìÿííûé_ãðàäèåíò_505);}.cls-3{fill:url(#Áåçûìÿííûé_ãðàäèåíò_505-2);}.cls-4{fill:#001c54;}.cls-4,.cls-5,.cls-6,.cls-7{fill-rule:evenodd;}.cls-5{fill:url(#Áåçûìÿííûé_ãðàäèåíò_505-3);}.cls-6{fill:url(#Áåçûìÿííûé_ãðàäèåíò_505-4);}.cls-7{fill:url(#Áåçûìÿííûé_ãðàäèåíò_505-5);}</style><linearGradient id="Áåçûìÿííûé_ãðàäèåíò_505" x1="556.32" y1="258.09" x2="556.32" y2="132.74" gradientUnits="userSpaceOnUse"><stop offset="0" stop-color="#430027"/><stop offset="1" stop-color="#560029"/></linearGradient><linearGradient id="Áåçûìÿííûé_ãðàäèåíò_505-2" x1="579.52" y1="244.12" x2="552.9" y2="121.63" xlink:href="#Áåçûìÿííûé_ãðàäèåíò_505"/><linearGradient id="Áåçûìÿííûé_ãðàäèåíò_505-3" x1="418.71" y1="176.01" x2="418.71" y2="95.07" xlink:href="#Áåçûìÿííûé_ãðàäèåíò_505"/><linearGradient id="Áåçûìÿííûé_ãðàäèåíò_505-4" x1="435.92" y1="176.01" x2="435.92" y2="97.34" xlink:href="#Áåçûìÿííûé_ãðàäèåíò_505"/><linearGradient id="Áåçûìÿííûé_ãðàäèåíò_505-5" x1="450.55" y1="176.01" x2="450.55" y2="102.3" xlink:href="#Áåçûìÿííûé_ãðàäèåíò_505"/></defs><g id="Layer_2" data-name="Layer 2"><g id="base"><rect class="cls-1" width="837.33" height="1537"/></g><g id="Hair_02"><path class="cls-2" d="M630.9,230.81a1.11,1.11,0,0,0-1.52-.38,83.8,83.8,0,0,1-26.79,10.44A69.31,69.31,0,0,1,575,240.8a55.92,55.92,0,0,1-6.47-1.77,30.84,30.84,0,0,1-5.64-2.46,24.49,24.49,0,0,1-8-8.08,56.52,56.52,0,0,1-5.46-11.67,113.18,113.18,0,0,1-3.75-13.36c-2-9.27-3-19.05-5.28-29.06a89.89,89.89,0,0,0-4.82-15.25,60.39,60.39,0,0,0-4-7.83,39.45,39.45,0,0,0-6.15-7.82A27.82,27.82,0,0,0,521,140a26.51,26.51,0,0,0-2.62-1.48c-.78-.37-1.55-.74-2.37-1.06a29.49,29.49,0,0,0-20.13-.76,36.15,36.15,0,0,0-8.28,3.84,47.34,47.34,0,0,0-6,4.55,9.57,9.57,0,0,1,3.84,1.94,13.18,13.18,0,0,1,4.46,7c1.17-.44,2.34-.83,3.49-1.14a19.44,19.44,0,0,1,10.57-.35,13.68,13.68,0,0,1,3.94,1.9c.31.2.61.44.91.66.15.21.31.36.46.59a13.08,13.08,0,0,1,1,1.47,49.8,49.8,0,0,1,4.22,10.11c1.31,4.07,2.59,8.5,4,13,2.81,9.1,6.08,18.64,9.56,28.35,1.77,4.86,3.6,9.78,5.91,14.66a68.15,68.15,0,0,0,8.75,14.28,43,43,0,0,0,6.33,6.32,34.53,34.53,0,0,0,8,4.77,41.59,41.59,0,0,0,8.33,2.42,68.17,68.17,0,0,0,8.07,1.08,76.67,76.67,0,0,0,31.1-4.38,82.55,82.55,0,0,0,13.92-6.59,88.65,88.65,0,0,0,12.25-8.95A1.12,1.12,0,0,0,630.9,230.81Z"/><path class="cls-3" d="M644.59,202.07a1.1,1.1,0,0,0-1.56,0,83.84,83.84,0,0,1-24,15.89,69.21,69.21,0,0,1-27,5.8,55,55,0,0,1-6.7-.35,32.08,32.08,0,0,1-6-1.21,24.38,24.38,0,0,1-9.48-6.21A56.85,56.85,0,0,1,562,205.7a112.81,112.81,0,0,1-6.5-12.26c-4-8.63-7-18-11.33-27.27a89.21,89.21,0,0,0-7.95-13.89,60.67,60.67,0,0,0-5.57-6.8,39.46,39.46,0,0,0-7.67-6.33,27.5,27.5,0,0,0-5.06-2.54,26.59,26.59,0,0,0-2.87-.89c-.85-.2-1.68-.39-2.55-.53a29.61,29.61,0,0,0-19.83,3.53,36.46,36.46,0,0,0-7.27,5.51c-.56.55-1.09,1.1-1.61,1.67a9.59,9.59,0,0,1,1.63,1.08A13,13,0,0,1,490.29,157c1.12-.72,2.24-1.39,3.36-2a19.44,19.44,0,0,1,10.26-2.59,13.83,13.83,0,0,1,4.26,1c.34.13.68.3,1,.45s.38.29.58.48a15.09,15.09,0,0,1,1.31,1.22,49.55,49.55,0,0,1,6.26,9c2.15,3.7,4.34,7.76,6.68,11.9,4.68,8.29,9.9,16.93,15.37,25.67,2.75,4.38,5.59,8.8,8.88,13.08a68.19,68.19,0,0,0,11.58,12.09,43,43,0,0,0,7.53,4.83,34.13,34.13,0,0,0,8.79,3,41.26,41.26,0,0,0,8.66.6,67.7,67.7,0,0,0,8.11-.66,76.61,76.61,0,0,0,29.46-10.88,83.39,83.39,0,0,0,12.21-9.4,87.58,87.58,0,0,0,10.06-11.35A1.11,1.11,0,0,0,644.59,202.07Z"/><path class="cls-4" d="M472.13,150a25.77,25.77,0,0,1,8.63-6.58c5.72-2.78,24.69,7.4,16.37,13.31s-11.31,1.21-11.31,1.21Z"/><path class="cls-5" d="M386.63,170.89s3.33,8,10.78,4,4.4-30.58,52.43-35C458.48,136.56,405.81,125.61,386.63,170.89Z"/><path class="cls-6" d="M403.86,170.89s3.32,8,10.78,4S420,148.1,468,143.72C464.66,137.23,423,125.61,403.86,170.89Z"/><path class="cls-7" d="M422.3,170.89s3.32,8,10.78,4,7.45-28.63,45.7-21.75C479.85,139.39,441.48,125.61,422.3,170.89Z"/></g></g></svg>