<?xml version="1.0" encoding="utf-8"?>
<!-- Generator: Adobe Illustrator 25.4.1, SVG Export Plug-In . SVG Version: 6.00 Build 0)  -->
<svg version="1.1" id="Layer_1" xmlns="http://www.w3.org/2000/svg" xmlns:xlink="http://www.w3.org/1999/xlink" x="0px" y="0px"
	 viewBox="0 0 837.3 1537" style="enable-background:new 0 0 837.3 1537;" xml:space="preserve">
<style type="text/css">
	.st0{fill:none;}
	.st1{fill-rule:evenodd;clip-rule:evenodd;fill:url(#SVGID_1_);}
	.st2{opacity:0.58;fill-rule:evenodd;clip-rule:evenodd;fill:#898989;enable-background:new    ;}
	.st3{fill-rule:evenodd;clip-rule:evenodd;fill:url(#SVGID_00000045596678714761099050000003761348288657085339_);}
	.st4{fill-rule:evenodd;clip-rule:evenodd;fill:#565656;}
	.st5{fill-rule:evenodd;clip-rule:evenodd;fill:#A1A1A1;}
	.st6{fill-rule:evenodd;clip-rule:evenodd;fill:url(#SVGID_00000119810925308817542030000011206364869038598314_);}
	.st7{fill-rule:evenodd;clip-rule:evenodd;fill:#AFAFAF;}
	.st8{fill-rule:evenodd;clip-rule:evenodd;fill:url(#SVGID_00000136373766074095725300000008237729665804955548_);}
	.st9{fill-rule:evenodd;clip-rule:evenodd;fill:url(#SVGID_00000159454120996549463300000016030213008242533526_);}
	.st10{fill:#565656;}
</style>
<g id="Layer_2_00000036245108402818476740000000894686249505552795_">
	<g id="base">
		<rect class="st0" width="837.3" height="1537"/>
	</g>
	<g id="feet_03">
		
			<linearGradient id="SVGID_1_" gradientUnits="userSpaceOnUse" x1="588.6377" y1="66.7516" x2="588.6377" y2="366.6001" gradientTransform="matrix(1 0 0 -1 0 1538)">
			<stop  offset="0" style="stop-color:#A1A1A1"/>
			<stop  offset="1" style="stop-color:#A1A1A1"/>
		</linearGradient>
		<path class="st1" d="M682,1459.3c-37.4,15-71.2,15.7-110.9,3.3c-10.7-3.3-15.5-6.6-27.8-12.5c-3-1.5-6.3-3.2-9.5-5
			c-12-6.8-24.1-15.1-24.1-15.1c-1-5.3-2-7.7-2.5-10.5c-0.4-3-0.5-5.9-0.3-8.9c0.6-11.7,2.1-23.4,4.4-34.9c0,0-18.8-143.7-15.5-141
			c5,4,35.8,5.7,52.6-5.4c4.5-12.9,5.9-35.1,5.5-57.9c12,13.1,29.5,32.9,29.5,32.9l26.8-32.9c2.5,7.9-2.8,147.4-6.2,164.2l-10,48.6
			c0.2,0.6,21.8,4.3,34.7,11.1c10.4,5.5,21.9,16.1,21.9,16.1c14.3,11.2,20.4,19.4,20.4,19.4C673.1,1432.3,682,1459.3,682,1459.3z"/>
		<path class="st2" d="M496.2,1250.5l1.6,7.7l85.2,14.8l24.9-13.3c0,0,1.3-11.9,1.3-10.6s-22.7,15-22.7,15L496.2,1250.5z"/>
		
			<linearGradient id="SVGID_00000041980729111013272300000001201236756658520718_" gradientUnits="userSpaceOnUse" x1="225.39" y1="88.6746" x2="225.39" y2="367.0302" gradientTransform="matrix(1 0 0 -1 0 1538)">
			<stop  offset="0" style="stop-color:#A1A1A1"/>
			<stop  offset="1" style="stop-color:#A1A1A1"/>
		</linearGradient>
		<path style="fill-rule:evenodd;clip-rule:evenodd;fill:url(#SVGID_00000041980729111013272300000001201236756658520718_);" d="
			M310.4,1388.5c0.8,7.3,1.1,14.7,1.1,22c-0.1,8.8-2.3,17.4-6.3,25.1c0,0-54.8,0.8-80.7,4c-1.7,0.2-3.3,0.4-4.7,0.6
			c-22.4,3.7-41.1,7.9-57,8.9s-50.5-1.2-70.4-21.8c0.7-3.9,0.9-18.1,2.4-21.8c2.2-5.6,28.4-4.1,34.3-8.7c0,0,9.9-1.1,34.2-14.2
			c4.1-2.2,34.6-10.3,38.6-12.2c6.9-3.1,14.8-10.2,19.4-15.2c-0.8,0-4.8-1-4.8-1s6.3-6.3,7-7.3c16.2-23.3,24.6-143.1,24.6-143.1
			s19.6-17.4,34.3-33.1c11.8,16.4-3.4,58.2,17.9,63.1c0,0,42.1,8.4,58.1,3.1l-49.3,122.6C309.2,1359.7,307.9,1365.9,310.4,1388.5z"
			/>
		<path class="st4" d="M132,1396.4c0,0,18.5-0.9,26.8,16.5c0,0-3.9-15.3-22.1-17.8L132,1396.4z"/>
		<path class="st4" d="M139.1,1394c0,0,20-1,29,18.9c-3.2-10.9-12.6-18.9-23.9-20.4L139.1,1394z"/>
		<path class="st4" d="M146.9,1390.5c0,0,22.7-1.3,32.9,23.8c0,0-4.8-22.2-27.1-25.8L146.9,1390.5z"/>
		<path class="st4" d="M155.6,1386.4c0,0,24.7-1.4,35.8,27.2c0,0-5.2-25.3-29.5-29.4L155.6,1386.4z"/>
		<path class="st4" d="M165.1,1381.7c0,0,27.3-1.8,39.5,33.7c0,0-5.8-31.3-32.6-36.4L165.1,1381.7z"/>
		<path class="st4" d="M177.6,1378.3c0,0,30-2,43.4,37.1c0,0-6.4-34.5-35.8-40.1L177.6,1378.3z"/>
		<path class="st4" d="M190.8,1374.4c0,0,32.8-2.2,47.5,41.6c0,0-7-38.7-39.2-45L190.8,1374.4z"/>
		<path class="st4" d="M210.8,1365.5c0,0,82.8,23.1,99.4,56.2c0,0-13.2-47.3-88.9-66.2L210.8,1365.5z"/>
		<path class="st4" d="M608.2,1388.6c0,0-70.7,7.4-101.1,30.9c0,0,9-23.2,86.1-35L608.2,1388.6z"/>
		<path class="st2" d="M230.1,1331.4l-3,8.7c0,0,89.3,1.3,89.7,0.5s5.6-12.5,5.6-12.5L230.1,1331.4z"/>
		<path class="st5" d="M318.1,1337.4h-92.8c0,0,6.9-10,7.9-27.2l100.1-2.2L318.1,1337.4z"/>
		<path class="st2" d="M233.2,1313.1l-1.7,9c0,0,94-2.4,94.4-3.2s6.9-14.1,6.9-14.1L233.2,1313.1z"/>
		<path class="st5" d="M331.1,1314.5l-106.6,6c0,0,6.2-16,7.3-33.2l117-2.2L331.1,1314.5z"/>
		<path class="st2" d="M231.4,1290.5l-1.9,9c0,0,109.7-2.5,110.2-3.2s8-14.1,8-14.1L231.4,1290.5z"/>
		<path class="st2" d="M243.7,1252.4l-0.9,7.2c0,0,107.8-3.5,108.3-4.3s2.4-6.2,2.4-6.2L243.7,1252.4z"/>
		<path class="st5" d="M345.8,1289.6l-121.3,7.8c0,0,9.9-20.4,11.1-42.3l129.8-2.7L345.8,1289.6z"/>
		<path class="st2" d="M510.7,1351.8l78.1,20.6l9.5-9.1c1.5-6.7,2.6-13.4,3-20.2l-17.2,5.3l-74.2-4.2L510.7,1351.8z"/>
		
			<linearGradient id="SVGID_00000106109027476975881900000001246910185401003185_" gradientUnits="userSpaceOnUse" x1="501" y1="198.725" x2="605.88" y2="198.725" gradientTransform="matrix(1 0 0 -1 0 1538)">
			<stop  offset="0" style="stop-color:#A1A1A1"/>
			<stop  offset="1" style="stop-color:#A1A1A1"/>
		</linearGradient>
		<path style="fill-rule:evenodd;clip-rule:evenodd;fill:url(#SVGID_00000106109027476975881900000001246910185401003185_);" d="
			M507.6,1348.6l80.9,18.4l11.6-13.2c2.6-12.7,4.5-25.4,5.7-38.3l-18.1,13.7l-86.8-17.6L507.6,1348.6z"/>
		<polygon class="st7" points="588.6,1330.7 588.6,1361.6 587,1330.5 		"/>
		<polygon class="st2" points="506.4,1323.3 587.9,1344.2 604.4,1333.6 605.8,1317.8 584.7,1319.7 505.5,1315.5 		"/>
		
			<linearGradient id="SVGID_00000039835424115425627300000012274469452763963017_" gradientUnits="userSpaceOnUse" x1="496.15" y1="227.27" x2="608.03" y2="227.27" gradientTransform="matrix(1 0 0 -1 0 1538)">
			<stop  offset="0" style="stop-color:#A1A1A1"/>
			<stop  offset="1" style="stop-color:#A1A1A1"/>
		</linearGradient>
		<path style="fill-rule:evenodd;clip-rule:evenodd;fill:url(#SVGID_00000039835424115425627300000012274469452763963017_);" d="
			M503.2,1320.1l86.3,18.4l15.4-10.4c0,0,0.8-23.2,3.1-45.1l-19.3,17.6l-92.6-17.6L503.2,1320.1z"/>
		<polygon class="st7" points="589.6,1302.1 589.6,1333.1 587.9,1302 		"/>
		<path class="st2" d="M500.9,1292.8l87.8,20.6l17.4-10.7c0,0,0-6.2,0.4-15.7l-23.2,2.2l-83.4-4.2L500.9,1292.8z"/>
		
			<linearGradient id="SVGID_00000134245172531809846180000010761911300551495813_" gradientUnits="userSpaceOnUse" x1="490.03" y1="257.72" x2="610.86" y2="257.72" gradientTransform="matrix(1 0 0 -1 0 1538)">
			<stop  offset="0" style="stop-color:#A1A1A1"/>
			<stop  offset="1" style="stop-color:#A1A1A1"/>
		</linearGradient>
		<path style="fill-rule:evenodd;clip-rule:evenodd;fill:url(#SVGID_00000134245172531809846180000010761911300551495813_);" d="
			M497.5,1289.6l90.9,18.4l17.6-11.4c0,0,2.4-22.1,4.9-44l-23.3,17.6l-97.5-17.6L497.5,1289.6z"/>
		<polygon class="st7" points="588.4,1271.7 588.4,1302.6 586.7,1271.6 		"/>
		<path class="st10" d="M648.3,1439.8c5.4-6.5,13.5-10.2,21.9-10.1c-0.4-0.4-0.8-1-1.4-1.7C660.5,1428.4,652.8,1432.8,648.3,1439.8z
			"/>
		<path class="st10" d="M639.2,1437.4c6.5-8.3,16.8-12.7,27.3-11.7c-0.6-0.6-1.3-1.3-2-2C647,1423.2,639.2,1437.4,639.2,1437.4z"/>
		<path class="st10" d="M627.6,1435.8c11.8-15.7,26.4-16.2,33.6-15.4c-0.9-0.8-1.9-1.7-2.9-2.7
			C637.3,1416.9,627.6,1435.8,627.6,1435.8z"/>
		<path class="st10" d="M616.5,1432.1c13.5-18.6,30.1-18.9,37.6-17.9c-1.1-0.9-2.3-1.8-3.5-2.8l-0.3-0.2
			C627.4,1410.5,616.5,1432.1,616.5,1432.1z"/>
		<path class="st10" d="M603.4,1430.3c15.6-23.1,34-24.1,42.3-23.2c-1.3-1.1-2.9-2.3-4.5-3.6C616,1403.8,603.4,1430.3,603.4,1430.3z
			"/>
		<path class="st10" d="M587.5,1426.1c20.5-30.4,45.2-26.2,50.5-24.8c-2.3-1.6-4.7-3.3-7.1-4.7
			C602.1,1395.6,587.5,1426.1,587.5,1426.1z"/>
		<path class="st10" d="M570.7,1422.2c22.2-33.5,48.6-29.8,55.1-28.3c-4.4-1.9-8.8-3.5-13.4-4.8
			C584.8,1392.3,570.7,1422.2,570.7,1422.2z"/>
	</g>
</g>
</svg>
