<svg xmlns="http://www.w3.org/2000/svg" xmlns:xlink="http://www.w3.org/1999/xlink" viewBox="0 0 837.97 1536.05"><defs><style>.cls-1{fill:none;}.cls-2{fill:#565656;}.cls-10,.cls-11,.cls-12,.cls-13,.cls-14,.cls-15,.cls-2,.cls-3,.cls-4,.cls-5,.cls-6,.cls-7,.cls-9{fill-rule:evenodd;}.cls-3{fill:url(#Áåçûìÿííûé_ãðàäèåíò_104);}.cls-4{fill:#3a3a3a;}.cls-5{fill:url(#Áåçûìÿííûé_ãðàäèåíò_104-2);}.cls-6{fill:url(#linear-gradient);}.cls-7{fill:url(#linear-gradient-2);}.cls-8,.cls-9{fill:#1c1c1c;}.cls-10{fill:url(#linear-gradient-3);}.cls-11{fill:url(#linear-gradient-4);}.cls-12{fill:#c6c2c2;opacity:0.63;}.cls-13{fill:url(#linear-gradient-5);}.cls-14{fill:url(#linear-gradient-6);}.cls-15{fill:url(#linear-gradient-7);}</style><linearGradient id="Áåçûìÿííûé_ãðàäèåíò_104" x1="653.3" y1="934.88" x2="652.82" y2="900.25" gradientUnits="userSpaceOnUse"><stop offset="0" stop-color="#ff7f66"/><stop offset="1" stop-color="#ec887e"/></linearGradient><linearGradient id="Áåçûìÿííûé_ãðàäèåíò_104-2" x1="627.08" y1="900.26" x2="626.44" y2="855.2" xlink:href="#Áåçûìÿííûé_ãðàäèåíò_104"/><linearGradient id="linear-gradient" x1="620.97" y1="733.19" x2="727.93" y2="733.19" gradientUnits="userSpaceOnUse"><stop offset="0" stop-color="#8fa0a1"/><stop offset="1" stop-color="#94a0a1"/></linearGradient><linearGradient id="linear-gradient-2" x1="671.37" y1="855.23" x2="723.7" y2="855.23" xlink:href="#linear-gradient"/><linearGradient id="linear-gradient-3" x1="604.51" y1="596.12" x2="712.83" y2="596.12" xlink:href="#linear-gradient"/><linearGradient id="linear-gradient-4" x1="608.61" y1="541.92" x2="607.52" y2="609.19" gradientTransform="matrix(0.65, 1.32, -1.06, 0.52, 822.59, -621.94)" xlink:href="#linear-gradient"/><linearGradient id="linear-gradient-5" x1="620.97" y1="737.63" x2="656.8" y2="737.63" xlink:href="#linear-gradient"/><linearGradient id="linear-gradient-6" x1="654.64" y1="891.16" x2="736.74" y2="891.16" xlink:href="#linear-gradient"/><linearGradient id="linear-gradient-7" x1="674.8" y1="894.62" x2="726.52" y2="894.62" xlink:href="#linear-gradient"/></defs><g id="Layer_2" data-name="Layer 2"><g id="base"><rect class="cls-1" x="0.32" width="837.33" height="1536.05"/></g><g id="L_arm_06"><polygon class="cls-2" points="727.42 658.72 706.86 658.72 700.24 702.07 719.22 693.44 727.42 658.72"/><path class="cls-3" d="M630,930.51s-6.74-15-5.21-25.72c0,0,8.58-5.06,23.58-4.37S681.43,917,681.43,917v17.46Z"/><path class="cls-4" d="M630,930.51s-6.74-15-5.21-25.72c0,0,8.58-5.06,23.58-4.37S681.43,917,681.43,917v17.46Z"/><path class="cls-5" d="M620.19,855.8s-5.1,29.6-10.41,43.88c0,0,11.29,3.66,24.9-5.3s8.22-33.68,8.22-33.68S628.56,853.15,620.19,855.8Z"/><path class="cls-4" d="M717.17,682.43s12.33,50.19-46.94,38.22c-10.52-2.12-32.44-18.57-42-33.23,0,0-9.4-17.17-9.35-22.64-23.9-13-34.27-60.49-25.6-79.28-1.44-3.93-17.34-11.9-19.7-14.76-24.76-30.1-11.16-71.85-3.46-81.55,12.11-15.28,24.23-33.18,45-36.17,27.16-3.89,36.6,16,43.56,21.87s22.9,47.55,24.15,76.94,28.85,87.28,29,88.07C713.29,645.38,717.17,682.43,717.17,682.43Z"/><path class="cls-4" d="M681.43,799.48c-19.2.4-22.83,13.63-23.25,14.7,0,0-19,4.9-26.94,11s-11.07,30.66-11.07,30.66l22.73,4.85s5.14-3,11.26,1.23c0,0-5.34,34-10.68,47.81a44.3,44.3,0,0,1-3.72,7,144.76,144.76,0,0,1-9.8,13.72s1.28,3.09,5.83,6.76,16.56,2.16,16.56,2.16l6.47-3.68s-1,2.16,3.92,4,22,0,22,0a37.07,37.07,0,0,0,10.14.83c6.42-.24,9.16-2.35,16.8-2.35s10.73-.63,13.77-2.45c.78-.44,1.71-3.28,2.5-8.23,2.4-15.38,3-50.75-10.29-96.11C717.36,826.77,715.64,798.77,681.43,799.48Z"/><path class="cls-4" d="M641.87,760.3c9.5,20.77,19.69,45.26,16.31,53.88l-.77.21a7.29,7.29,0,0,1,.83,3.83c-.11,3.24-.86,32.13,30,33.1,13.54.42,25.64-11.3,29.43-19.94-4.6-62.8,6-109.83,1.13-140.74a59.28,59.28,0,0,0-4.31-15.19s-15.83-20.21-39.76-17.67c-13.44,1.42-39.76,5.53-46.61,29.62,0,0-4.9,29.4,0,42.87C630.06,735.51,635.79,747.17,641.87,760.3Z"/><path class="cls-4" d="M620.19,855.8s-5.1,29.6-10.41,43.88c0,0,11.29,3.66,24.9-5.3s8.22-33.68,8.22-33.68S628.56,853.15,620.19,855.8Z"/><path class="cls-6" d="M656.8,805.18a124.61,124.61,0,0,1,31.47-3.2,105.09,105.09,0,0,1,32,5.73,466.43,466.43,0,0,0,6.63-59.7c.88-18.78,1.51-73.69.51-89.29-4.5-1.25-23.34,26.1-23.34,26.1l-48-16.76S635.48,693.58,621,707.84C626.87,758.1,656.8,805.18,656.8,805.18Z"/><polygon class="cls-7" points="672.96 791.37 671.37 896.05 697.45 922.69 723.7 905.69 720.12 787.78 672.96 791.37"/><path class="cls-4" d="M658.82,935.71s8.52-10.72,11.28-22.66c0,0-.92,15-7.35,26.65A4.52,4.52,0,0,1,658.82,935.71Z"/><path class="cls-4" d="M684.79,939.7s5-4.91,6.84-17c0,0,.82,7-1.93,17.66C689.7,940.41,687.7,941.4,684.79,939.7Z"/><path class="cls-4" d="M706.86,938.49s3.19-1.59,5.8-9a18.1,18.1,0,0,1-.92,8.67Z"/><path class="cls-8" d="M585,534.45a78.49,78.49,0,0,1,20.5-5.23A142.25,142.25,0,0,1,627,528.3a141.8,141.8,0,0,0-21.63-.82,80.84,80.84,0,0,0-21.57,3.69,47.42,47.42,0,0,0-19.25,11.5,38.74,38.74,0,0,0-3.07,3.57,62.19,62.19,0,0,0,2.29,7.39,33,33,0,0,1,4.66-7.43C572.67,541,578.6,537.17,585,534.45Z"/><path class="cls-8" d="M588.75,545.23A75,75,0,0,1,608.48,540a133.83,133.83,0,0,1,20.73-1,133.68,133.68,0,0,0-20.9-.7A77.13,77.13,0,0,0,587.48,542,45.62,45.62,0,0,0,569,553.36a39.22,39.22,0,0,0-3.56,4.33,59.66,59.66,0,0,0,3.25,6.09,32.31,32.31,0,0,1,4.25-6.95C577,551.76,582.61,548,588.75,545.23Z"/><path class="cls-8" d="M592.5,556a70.81,70.81,0,0,1,19-5.3,126.66,126.66,0,0,1,20-1.17,127.89,127.89,0,0,0-20.16-.57,73.33,73.33,0,0,0-20.08,3.8,43.79,43.79,0,0,0-17.69,11.27,38.91,38.91,0,0,0-2.56,3.14c.84,1.2,1.72,2.38,2.68,3.55a9,9,0,0,0,1.1,1,32.17,32.17,0,0,1,2.78-4.3A39.5,39.5,0,0,1,592.5,556Z"/><path class="cls-8" d="M596.25,566.81a67.12,67.12,0,0,1,18.16-5.34,121.08,121.08,0,0,1,19.25-1.3,121.2,121.2,0,0,0-19.44-.44,69.72,69.72,0,0,0-19.33,3.86,42.32,42.32,0,0,0-16.47,10.71l4.41,2.79A38.52,38.52,0,0,1,596.25,566.81Z"/><path class="cls-8" d="M617.38,572.22a112.94,112.94,0,0,1,18.5-1.42,113.38,113.38,0,0,0-18.71-.31,65.73,65.73,0,0,0-18.58,3.92,43.83,43.83,0,0,0-10.74,6,37.34,37.34,0,0,1,3.7,2.87,40.21,40.21,0,0,1,8.45-5.65A63.55,63.55,0,0,1,617.38,572.22Z"/><path class="cls-8" d="M603.62,587.81a61.74,61.74,0,0,1,17-5.28,108.87,108.87,0,0,1,18.08-1.41,110.51,110.51,0,0,0-18.29-.33,65,65,0,0,0-18.17,3.81,43.65,43.65,0,0,0-10.59,5.9,48.33,48.33,0,0,0-1.22,8.39c.06-.08.11-.16.16-.24A35,35,0,0,1,603.62,587.81Z"/><path class="cls-8" d="M607.24,598a60.5,60.5,0,0,1,16.56-5.17,108,108,0,0,1,17.65-1.4,108.59,108.59,0,0,0-17.86-.33,62.8,62.8,0,0,0-17.76,3.7,38.61,38.61,0,0,0-15.44,10.55l0,0a85.41,85.41,0,0,0,.88,9.45,27.56,27.56,0,0,1,3.29-6.26A34.26,34.26,0,0,1,607.24,598Z"/><path class="cls-8" d="M598.48,618.54a33.32,33.32,0,0,1,12.38-10.34A59,59,0,0,1,627,603.14a105.1,105.1,0,0,1,17.22-1.39,105.65,105.65,0,0,0-17.44-.35,61.35,61.35,0,0,0-17.34,3.6,37.64,37.64,0,0,0-15.1,10.29,32.52,32.52,0,0,0-2.49,3.31,98.48,98.48,0,0,0,2.36,9.74,24.67,24.67,0,0,1,.73-2.81A26.42,26.42,0,0,1,598.48,618.54Z"/><path class="cls-8" d="M599,635.29a26,26,0,0,1,3.41-6.81,32.47,32.47,0,0,1,12.05-10.08,57.58,57.58,0,0,1,15.74-5A102,102,0,0,1,647,612.07a102.64,102.64,0,0,0-17-.37,60.25,60.25,0,0,0-16.93,3.5,36.71,36.71,0,0,0-14.76,10,32.37,32.37,0,0,0-3.53,5,92.29,92.29,0,0,0,3.32,8.87c0-.05,0-.1,0-.14A22.36,22.36,0,0,1,599,635.29Z"/><path class="cls-8" d="M606.39,638.43a31.53,31.53,0,0,1,11.71-9.83,55.47,55.47,0,0,1,15.32-4.85,100.39,100.39,0,0,1,16.38-1.37,100.86,100.86,0,0,0-16.59-.37,58.69,58.69,0,0,0-16.52,3.38,36.07,36.07,0,0,0-14.43,9.79,31.47,31.47,0,0,0-3.6,5.13,74.12,74.12,0,0,0,3.76,7.26,24.57,24.57,0,0,1,.66-2.52A25.19,25.19,0,0,1,606.39,638.43Z"/><path class="cls-8" d="M621.72,638.79a54.67,54.67,0,0,1,14.91-4.74,97.36,97.36,0,0,1,16-1.35,99,99,0,0,0-16.16-.39,56.89,56.89,0,0,0-16.11,3.28,35,35,0,0,0-14.09,9.54,30.34,30.34,0,0,0-2.89,3.93,59.31,59.31,0,0,0,3.9,5.53,24.19,24.19,0,0,1,3.12-6.22A30.78,30.78,0,0,1,621.72,638.79Z"/><path class="cls-8" d="M625.34,649a53.22,53.22,0,0,1,14.5-4.64A94.43,94.43,0,0,1,655.36,643a94.84,94.84,0,0,0-15.73-.4,55.42,55.42,0,0,0-15.7,3.17,34.17,34.17,0,0,0-13.75,9.28c-.43.5-.85,1-1.25,1.54a41.56,41.56,0,0,0,4,4,26.13,26.13,0,0,1,1.37-2.26A29.82,29.82,0,0,1,625.34,649Z"/><path class="cls-8" d="M629,659.19a51.41,51.41,0,0,1,14.09-4.53,92.41,92.41,0,0,1,15.09-1.33,92.88,92.88,0,0,0-15.3-.41A54,54,0,0,0,627.55,656a34.67,34.67,0,0,0-11.46,7,31,31,0,0,0,2.83,1.77,10.33,10.33,0,0,0,.3,2.18A30,30,0,0,1,629,659.19Z"/><path class="cls-9" d="M662,649l-57.47-95-1.33,8.18L640.31,657s33.12,8.93,59.24,11.27c6.64-9.74,13.28-35.64,13.28-35.64Z"/><path class="cls-10" d="M683.6,532.12s-.35,2.32-8.86,23c-16.39,0-51.45.52-70.23-1.19l38.25,97.12s32,6.7,58.11,9c6.65-9.74,12-27.46,12-27.46Z"/><polygon class="cls-9" points="595.51 397.22 561.84 476.05 668.85 548.05 584.12 550.44 546.73 474.06 595.51 397.22"/><polygon class="cls-11" points="551.85 473.63 595.51 397.22 646.66 423.45 683.36 509.64 668.85 548.05 585.84 546.04 551.85 473.63"/><path class="cls-12" d="M600.62,410c2.12,3.55,36.17,71.66,36.17,71.66V426.38Z"/><path class="cls-12" d="M663.3,676.44c2.12,3.56,17.32,102.79,17.32,102.79l19-89.94Z"/><path class="cls-13" d="M656.1,670.08c-12,15.83-20.62,23.5-35.13,37.76,5.9,50.26,35.83,97.34,35.83,97.34"/><polygon class="cls-9" points="672.3 852.7 649.95 863.01 649.84 921.77 693.74 948.24 666.37 911.49 664.8 870.05 672.3 852.7"/><polygon class="cls-14" points="696.08 834.08 656.99 863.79 654.64 920.09 693.74 948.24 731.27 927.13 736.74 869.26 696.08 834.08"/><polygon class="cls-9" points="696.35 858.58 668.1 876.6 666.38 914.77 694.34 931.2 699.43 930.58 678.44 907.14 677.46 881.03 700.91 858.66 696.35 858.58"/><polygon class="cls-15" points="700.91 858.66 676.28 877.38 674.8 912.84 699.43 930.58 723.07 917.28 726.52 880.83 700.91 858.66"/></g></g></svg>