<svg xmlns="http://www.w3.org/2000/svg" xmlns:xlink="http://www.w3.org/1999/xlink" viewBox="0 0 837.33 1537"><defs><style>.cls-1{fill:none;}.cls-10,.cls-11,.cls-12,.cls-14,.cls-15,.cls-16,.cls-17,.cls-2,.cls-3,.cls-4,.cls-5,.cls-6,.cls-7,.cls-8,.cls-9{fill-rule:evenodd;}.cls-2{fill:url(#Áåçûìÿííûé_ãðàäèåíò_100);}.cls-3{fill:url(#Áåçûìÿííûé_ãðàäèåíò_104);}.cls-4{fill:url(#Áåçûìÿííûé_ãðàäèåíò_104-2);}.cls-5{fill:#ff9d8a;}.cls-6{fill:url(#Áåçûìÿííûé_ãðàäèåíò_104-3);}.cls-7{fill:url(#Áåçûìÿííûé_ãðàäèåíò_104-4);}.cls-8{fill:url(#Áåçûìÿííûé_ãðàäèåíò_104-5);}.cls-9{fill:#3a3a3a;}.cls-10{fill:url(#linear-gradient);}.cls-11{fill:#afafaf;}.cls-12{fill:#565656;}.cls-13{fill:#898989;opacity:0.58;}.cls-14{fill:url(#linear-gradient-2);}.cls-15{fill:url(#linear-gradient-3);}.cls-16{fill:url(#linear-gradient-4);}.cls-17{fill:url(#linear-gradient-5);}</style><linearGradient id="Áåçûìÿííûé_ãðàäèåíò_100" x1="465.76" y1="415.38" x2="417.21" y2="824.23" gradientUnits="userSpaceOnUse"><stop offset="0" stop-color="#ffa486"/><stop offset="1" stop-color="#ffb886"/></linearGradient><linearGradient id="Áåçûìÿííûé_ãðàäèåíò_104" x1="343.01" y1="517.96" x2="332.98" y2="602.45" gradientUnits="userSpaceOnUse"><stop offset="0" stop-color="#ff7f66"/><stop offset="1" stop-color="#ec887e"/></linearGradient><linearGradient id="Áåçûìÿííûé_ãðàäèåíò_104-2" x1="378.04" y1="518.66" x2="368.23" y2="601.27" gradientTransform="matrix(-1, 0, 0, 1, 881.56, 0)" xlink:href="#Áåçûìÿííûé_ãðàäèåíò_104"/><linearGradient id="Áåçûìÿííûé_ãðàäèåíò_104-3" x1="426.04" y1="496.76" x2="415.66" y2="584.13" xlink:href="#Áåçûìÿííûé_ãðàäèåíò_104"/><linearGradient id="Áåçûìÿííûé_ãðàäèåíò_104-4" x1="376.06" y1="320.92" x2="365.68" y2="408.3" gradientTransform="matrix(-0.4, 0.92, -0.41, -0.18, 697.78, 146.36)" xlink:href="#Áåçûìÿííûé_ãðàäèåíò_104"/><linearGradient id="Áåçûìÿííûé_ãðàäèåíò_104-5" x1="380.6" y1="338.08" x2="370.23" y2="425.46" gradientTransform="matrix(0.44, 0.9, 0.4, -0.2, 152.89, 159.83)" xlink:href="#Áåçûìÿííûé_ãðàäèåíò_104"/><linearGradient id="linear-gradient" x1="465.76" y1="415.38" x2="417.21" y2="824.23" gradientUnits="userSpaceOnUse"><stop offset="0" stop-color="#a1a1a1"/><stop offset="1" stop-color="#a1a1a1"/></linearGradient><linearGradient id="linear-gradient-2" x1="490.91" y1="416.95" x2="670.75" y2="416.95" gradientTransform="matrix(1, -0.03, 0.03, 1, -18.72, 17.83)" xlink:href="#linear-gradient"/><linearGradient id="linear-gradient-3" x1="291.94" y1="466.4" x2="476.08" y2="466.4" gradientTransform="matrix(-0.87, -0.07, -0.07, 0.88, 676.03, 54.42)" xlink:href="#linear-gradient"/><linearGradient id="linear-gradient-4" x1="508.59" y1="453.51" x2="664.53" y2="453.51" gradientTransform="translate(149.81 -163.66) rotate(15.23)" xlink:href="#linear-gradient"/><linearGradient id="linear-gradient-5" x1="473.53" y1="504.57" x2="600.16" y2="504.57" gradientTransform="matrix(-1.05, 0.53, 0.5, 1, 591.03, -343.73)" xlink:href="#linear-gradient"/></defs><g id="Layer_2" data-name="Layer 2"><g id="base"><rect class="cls-1" width="837.33" height="1537"/></g><g id="chest_04"><path class="cls-2" d="M658.77,474.9c-6.12,19-44.68,75.93-80.83,127.36-15.89,22.61-26.32,53.61-45.09,75.4-24.2,28.1-19.43,67.31-19.43,67.31s-20,22.68-79.51,26.3-98.46-17.14-98.46-17.14c-3.19-9.41-12.31-52.84-12.31-52.84l-3.9-31.47-4.1-6.51-7.56-74.47-13.18-5.53c-6.71-28.76-1.81-82.65-1.81-82.65-7.35-31.84-31.21-49-31.21-49,19-22.69,42.23-28.81,73.48-39.83,19.94-7.06,38.85-18.18,49.87-25.28l2.35-1.57c3.38-2.2,11.24-3.43,11.24-3.43s-7.22,9.31-5.36,18.28,14.11,33.85,56.19,23,57.76-57.32,57.76-57.32,8.81,5.15,13,8.72C533,385.69,558.25,403.08,589,418,629.38,437.57,658.77,474.9,658.77,474.9Z"/><path class="cls-3" d="M387.52,585.09c-11.52,2.18-79.94,3.75-79.94,3.75l-13.18-5.53c-6.71-28.76-1.81-82.65-1.81-82.65-.42,44.09,5.1,76.45,6.35,78.88S327.82,585.09,387.52,585.09Z"/><path class="cls-4" d="M450.86,585.09c11.52,2.18,79.95,3.75,79.95,3.75L544,583.31c4.08-11.29,2.59-25.3,4.24-38.56,2.89-23.19,13.71-44.09,13.71-44.09-21.54,34.61-21.24,76.45-22.49,78.88S510.56,585.09,450.86,585.09Z"/><path class="cls-5" d="M422.46,662.29c4.86.59,33.69,1,33.69,1l5.56-1.5c15.25-4.18,18.15-22.45,18.15-22.45-6.91,17.37-19.54,20.76-20.07,21.42S447.62,662.29,422.46,662.29Z"/><path class="cls-5" d="M396.59,662.29c-5.37.59-37.27,1-37.27,1l-6.14-1.5c-16.87-4.18-20.08-22.45-20.08-22.45,7.65,17.37,21.61,20.76,22.2,21.42S368.76,662.29,396.59,662.29Z"/><path class="cls-5" d="M416.73,707.35c3.67.29,25.44.49,25.44.49l4.2-.72c11.51-2,13.7-10.82,13.7-10.82-5.22,8.37-14.75,10-15.15,10.32S435.73,707.35,416.73,707.35Z"/><path class="cls-5" d="M397.19,707.35c-4.05.29-28.14.49-28.14.49l-4.64-.72c-12.74-2-15.16-10.82-15.16-10.82,5.77,8.37,16.32,10,16.76,10.32S376.18,707.35,397.19,707.35Z"/><path class="cls-6" d="M422.29,484.62a460.53,460.53,0,0,0-2.19,46.51c.07,15.42.91,29.76,2.19,42.84-1.8-13.9-5.25-35.55-5.25-43.18S422.29,484.62,422.29,484.62Z"/><path class="cls-5" d="M415.16,622.87c-2.45,19.51-4.49,41.11-5.7,64.52-1.1,21.44-1.35,41.4-1,59.66-.75-19.42-2.56-49.7-2-60.3S415.16,622.87,415.16,622.87Z"/><path class="cls-7" d="M423.58,433.38A91.84,91.84,0,0,0,387,417.56c6.4.8,16.63,1.47,19.75,2.83S423.58,433.38,423.58,433.38Z"/><path class="cls-8" d="M450.52,432.88a91.82,91.82,0,0,1,35.69-17.7c-6.35,1.13-16.53,2.34-19.58,3.85S450.52,432.88,450.52,432.88Z"/><path class="cls-9" d="M499.36,296.42s1.06,56,12,83.89c0,0-39.22,53-84.43,50.21s-35.1-39.08-35.1-39.08,12.55-17.35,14.69-44.91S499.36,296.42,499.36,296.42Z"/><path class="cls-10" d="M658.77,474.9c-6.12,19-44.68,75.93-80.83,127.36-15.89,22.61-22.6,45.68-38.21,75.52A347,347,0,0,0,513.42,745s-20,22.68-79.51,26.3-98.46-17.14-98.46-17.14c-3.19-9.41-12.31-52.84-12.31-52.84s-14.63-40.58-18.52-61.93L294.4,583.31c-6.71-28.76-1.81-82.65-1.81-82.65-7.35-31.84-31.21-49-31.21-49,19-22.69,37.5-33.62,68.76-44.65,19.94-7,43.57-13.36,54.59-20.46l2.35-1.57c3.38-2.2,11.24-3.43,11.24-3.43s-7.22,9.31-5.36,18.28,14.11,33.85,56.19,23,57.76-57.32,57.76-57.32,8.81,5.15,13,8.72c13.13,11.42,43.8,20.93,74.51,35.82C634.82,429.69,658.77,474.9,658.77,474.9Z"/><path class="cls-11" d="M381.49,534c7.05-71.09,39.66-90.3,39.66-90.3s-26.32,57.54-27.59,95,18.23,180.39,18.23,180.39S374.44,605.09,381.49,534Z"/><polygon class="cls-12" points="342.95 338.16 380.03 389.56 359.39 397.29 342.95 338.16"/><path class="cls-13" d="M566,499.3c-2.07-4.57-3.77-8.88-6.88-12.92A99.11,99.11,0,0,0,547.77,474c-8.77-8.09-19.25-14.29-29.22-20.82C513,449.5,507.4,445.8,502,441.92c-4.43-3.15-9.54-6.2-12.1-11.13-5-9.58,3.61-19.56,8.3-27.43,6.22-10.45,12-21.06,18.86-31.15l1.44-2.12a15.62,15.62,0,0,1-3.65-1.31c-.83-.4-3.49-1.3-1.88-1.21a7.17,7.17,0,0,1-5.12-2.38c-22.69,37.19-45.13,84.94-13,87.85,53.1,4.81,71.11,91.39,80.25,67.82a57.5,57.5,0,0,1,3.76-7.87C572.69,511.37,568.71,505.32,566,499.3Z"/><path class="cls-14" d="M542.84,316.59s-5.88,19.37,7,35,50.34,21.14,71.51,37.65c21.33,16.62,27,41.26,44,83.33-53.82,5.46-75.65,20.11-84.79,43.68s-27.16-63-80.26-67.82S542.84,316.59,542.84,316.59Z"/><path class="cls-13" d="M376.07,390.87a6.76,6.76,0,0,1-7.17-1.36,45.42,45.42,0,0,1-5.65-5.9,30.94,30.94,0,0,0,1.4,11.81c2.34,6.73,5.81,13,7.67,19.87,1.81,6.76,2,13.62,2.64,20.55.47,4.87,2.49,10.26,1.51,15.16-1.05,5.21-5.62,8.8-10.53,10.18-2.86.81-5.87.65-8.71,1.42a36.56,36.56,0,0,0-6.43,2.79c-11,5.5-20.45,13.55-28.67,22.61a137.68,137.68,0,0,0-15.08,19.47c.62,2.29,1.09,4.43,1.44,6.2a65.57,65.57,0,0,1,1.22,17.24c13.34-20.47,34.86-56.45,68.92-57.94C410.44,471.57,394.65,427.34,376.07,390.87Z"/><path class="cls-15" d="M343,338.16s5.09,20.7-8.73,36.47-52.33,19.74-74.69,36.06c-22.53,16.44-26.08,46.67-32.46,88.53,54.64,8.46,53,11,61.21,36.28s30.64-65,85-67.39S343,338.16,343,338.16Z"/><path class="cls-13" d="M574.61,480c-.54-4.21-.83-8.11-2.34-12.12a83.06,83.06,0,0,0-6.1-12.77c-5.09-8.67-12-16.21-18.52-23.91-3.62-4.31-7.21-8.65-10.66-13.1-2.8-3.62-6.19-7.32-7-11.93-1.64-9,7.84-15,13.63-20.22,7.68-7,15.07-14.15,23.15-20.68l1.7-1.37A13,13,0,0,1,565.8,362c-.57-.52-2.51-1.89-1.22-1.43a6,6,0,0,1-3.56-3.16c-27.78,24.65-58,57.91-32.6,68,42,16.69,34.84,91.15,48.19,74.26a50.33,50.33,0,0,1,5-5.47C577,491.38,575.32,485.52,574.61,480Z"/><path class="cls-16" d="M573.48,345.2s10.62,2.62,25.08,11.24c14.8,8.83,35.61,29.26,48.67,47.72s14.8,30.2,18,68.37c-45.11-8.55-69.77,7.77-83.13,24.65s-6.24-57.57-48.19-74.26S573.48,345.2,573.48,345.2Z"/><path class="cls-13" d="M309.38,486.3c-.21-3.87-.59-7.43.13-11.32A76.67,76.67,0,0,1,313,462.31c3.27-8.78,8.47-16.94,13.19-25.13,2.64-4.59,5.25-9.2,7.7-13.88,2-3.81,4.53-7.8,4.53-12.1,0-8.35-9.83-11.83-16.11-15.36-8.33-4.69-16.43-9.64-25.06-13.86l-1.81-.89a13.05,13.05,0,0,0,2.13-2.26c.44-.58,2-2.2.89-1.53a5.86,5.86,0,0,0,2.78-3.55c30,16.49,63.81,40.19,41.87,54.36-36.23,23.38-17,88.63-32.29,76.2a43.54,43.54,0,0,0-5.61-3.89C309.05,497,309.66,491.39,309.38,486.3Z"/><path class="cls-17" d="M287.61,365.36s-9.45,4.48-21.45,15.12C253.88,391.36,238,413.84,228.93,433s-8.66,30-5.23,64.86c40.55-16.73,66.28-7.08,81.57,5.35s-3.94-52.81,32.29-76.2S287.61,365.36,287.61,365.36Z"/></g></g></svg>