<svg xmlns="http://www.w3.org/2000/svg" xmlns:xlink="http://www.w3.org/1999/xlink" viewBox="0 0 837.33 1537"><defs><style>.cls-1{fill:none;}.cls-2{fill:#6d6d6d;}.cls-2,.cls-3,.cls-4,.cls-5,.cls-6{fill-rule:evenodd;}.cls-3{fill:#032e6b;}.cls-4{fill:#0046b7;}.cls-5,.cls-7{fill:#1d292d;}.cls-6{fill:url(#linear-gradient);}.cls-8{fill:#c0dbe2;}</style><linearGradient id="linear-gradient" x1="364" y1="766.92" x2="466.32" y2="766.92" gradientUnits="userSpaceOnUse"><stop offset="0" stop-color="#a1a1a1"/><stop offset="1" stop-color="#a1a1a1"/></linearGradient></defs><g id="Layer_2" data-name="Layer 2"><g id="base"><rect class="cls-1" width="837.33" height="1537"/></g><g id="Legs_06"><path class="cls-2" d="M438.27,928.86c2.91,11.07,7.44,28.42,12.39,47.31a230.52,230.52,0,0,1,34.9-11.37c13.85-3.36,27.91-5.75,42-8.1,12.91-2.15,25.78-4.42,38.72-6.34a218.21,218.21,0,0,0-6.48-24.78c0-.19-.14-.39-.19-.59-7.32-21.8-14.65-48.66-20.52-73.64a44.14,44.14,0,0,0-2.74-10.44c-.48-1.41-1-2.74-1.52-4l-12.35-61.33-3.09-10.43L513.42,745c-29.78,12.24-179.54,4.35-179.54,4.35s-4.14,13.9-10.33,33.67c-3.6,10.88-8.35,25.36-12.76,40-4.92,11.27-8.44,25.27-14.14,41.15-7.79,21.8-15.14,51-21,78.82-.43,2-.85,4.08-1.27,6.1,13.75-.37,27.48,3.06,40.36,7.6,11.2,4,22.32,7.83,33.62,11.46a213.59,213.59,0,0,1,33.91,14.51q.78-2.76,1.48-5.22c14.06-49.77,17.84-88.33,17.84-88.33l28.83.08S436.27,921.12,438.27,928.86Z"/><path class="cls-3" d="M532.18,824S458,921,447.93,965.73l-7.2-27.48S491.64,834.18,532.18,824Z"/><path class="cls-4" d="M328.53,766.92l-50,110.91s12.44,37.57,19.23,39.59,35.58-4.37,35.58-4.37,10.61-.21,15.48,16.44,20.44,41.33,29.93,36.24,14.64-27.07,17.75-6.77,32.73,28.32,38.26,14.95c39.81-96.08,97.45-150,97.45-150l-12.83-58.8Z"/><path class="cls-5" d="M331.11,737.39c23.23-3.34,51.53,6,79.05,4.88,38-1.59,72.36-10.75,102.91-7.87l6.28,30.75c-27.71,6.07-62.9,24.8-104.19,24.37-33.24-.34-62.69-17.82-86.63-22.6C330.32,761.05,329.32,743.25,331.11,737.39Z"/><polygon class="cls-6" points="466.32 796.46 466.32 737.38 415.16 707.84 364 737.38 364 796.46 415.16 826 466.32 796.46"/><circle class="cls-7" cx="415.16" cy="724.32" r="7.31"/><circle class="cls-7" cx="451.16" cy="747.05" r="7.31"/><circle class="cls-7" cx="451.16" cy="787" r="7.31"/><circle class="cls-7" cx="415.16" cy="812.5" r="7.31"/><circle class="cls-7" cx="377.5" cy="787" r="7.31"/><circle class="cls-7" cx="377.5" cy="747.05" r="7.31"/><path class="cls-7" d="M415.16,796.45l-25.58-14.76V752.15l25.58-14.76,25.57,14.76v29.54Zm-19.58-18.23,19.58,11.3,19.57-11.3v-22.6l-19.57-11.31-19.58,11.31Z"/><path class="cls-8" d="M427.16,773.85l-12,6.92-12-6.92V760l12-6.93,12,6.93-2.82,1.63-9.18-5.31L406,761.62v10.6l9.19,5.3,9.18-5.3Z"/><path class="cls-3" d="M329.42,913.87s13.2-3.69,32.68-67.27l-16.34,75.56s-2.72-5.15-7.16-7.5A11.52,11.52,0,0,0,329.42,913.87Z"/><path class="cls-3" d="M389.17,953.91s14.51-73.84,12.34-97.85c0,0,5.61,76.61-5.93,98.42,0,0-1.2-4.08-2.39-4C390.67,950.81,389.17,953.91,389.17,953.91Z"/><path class="cls-3" d="M501.75,770.08s-2.06,5.09,10.48,33.69c0,0-14.35-23.72-17-31.55Z"/></g></g></svg>