<svg xmlns="http://www.w3.org/2000/svg" viewBox="0 0 837.33 1537"><defs><style>.cls-1{fill:none;}.cls-2{fill:#415056;}.cls-2,.cls-4{fill-rule:evenodd;}.cls-3,.cls-4{fill:#1d292d;}</style></defs><g id="Layer_2" data-name="Layer 2"><g id="base"><rect class="cls-1" width="837.33" height="1537"/></g><g id="L_arm_03"><path class="cls-2" d="M626.78,698.19s69.29,28.12,95.68,9.65c-.5,15.94,2,32.51.73,49.67s-2.94,33.67-4.83,49.51c-7.63-1.08-16.16-1.62-25.43-2.09-13.54-.7-28.76-.7-35.43,2.09,0,0-5.8-29-20.77-51.45C623,731.64,624,709.21,626.78,698.19Z"/><path class="cls-2" d="M717.06,719.75s16.32,3.63,15.86,8.17-15.86,7.26-15.86,7.26Z"/><path class="cls-2" d="M717.06,746.65s16.32,3.63,15.86,8.16-15.86,7.26-15.86,7.26Z"/><path class="cls-2" d="M715.62,773.54s16.32,3.63,15.87,8.17S715.62,789,715.62,789Z"/><path class="cls-2" d="M654,792.22s-16.57,2.23-17.71-2.19,12.38-12.29,12.38-12.29Z"/><path class="cls-2" d="M644.74,767s-16.57,2.23-17.71-2.19,12.39-12.29,12.39-12.29Z"/><path class="cls-2" d="M636.8,741.24s-16.56,2.23-17.71-2.18,12.39-12.3,12.39-12.3Z"/><circle class="cls-3" cx="692.11" cy="729.24" r="7.31"/><path class="cls-4" d="M649.7,720.15a7.29,7.29,0,0,0-4.94,1.93,5.91,5.91,0,0,1,2.23-.44,5.83,5.83,0,1,1,0,11.65,5.91,5.91,0,0,1-2.23-.44,7.31,7.31,0,1,0,4.94-12.7Z"/><path class="cls-4" d="M659.6,750.29a7.29,7.29,0,0,0-4.94,1.93,5.83,5.83,0,1,1,2.23,11.21,5.69,5.69,0,0,1-2.23-.45,7.31,7.31,0,1,0,4.94-12.69Z"/><path class="cls-4" d="M667,777.21a7.29,7.29,0,0,0-5,1.93,5.83,5.83,0,1,1,0,10.76,7.31,7.31,0,1,0,5-12.69Z"/><circle class="cls-3" cx="695.58" cy="756.11" r="7.31"/><circle class="cls-3" cx="695.58" cy="782.98" r="7.31"/></g></g></svg>