<svg xmlns="http://www.w3.org/2000/svg" xmlns:xlink="http://www.w3.org/1999/xlink" viewBox="0 0 837.33 1537"><defs><style>.cls-1{fill:none;}.cls-2{fill:url(#linear-gradient);}.cls-3{fill:url(#linear-gradient-2);}</style><linearGradient id="linear-gradient" x1="435.9" y1="263.19" x2="435.9" y2="112.31" gradientUnits="userSpaceOnUse"><stop offset="0.01" stop-color="#242c3a"/><stop offset="0.99" stop-color="#000006"/></linearGradient><linearGradient id="linear-gradient-2" x1="362.52" y1="263.19" x2="362.52" y2="112.31" xlink:href="#linear-gradient"/></defs><g id="Layer_2" data-name="Layer 2"><g id="base"><rect class="cls-1" width="837.33" height="1537"/></g><g id="hair_03"><path class="cls-2" d="M520,205.46l3-50.46-11.53-7.86c-16.55-13.74-30.08-34.83-30.08-34.83l1.46,8.37s.87,3-13.13-2.88c-34.85-14.59-76.66,6.49-91.77,8.66-12,1.72-14.69-2.64-15.29-4.5,2.14,8.71,12.7,13.69,12.7,13.69-5.06.44-19.22,7.85-21.55,12.33-5.47,10.47,2.21,35.25-2.26,51.08-2.19,7.75-4.75,9.09-5.49,14.93,20.33-16.48,22-30.9,22-30.9l3.82,17.41s6.32-17.51,8.2-20.24,3.73-15.17,3.73-15.17c1.74-.93,4.41-2,6.08,1.48,5.25-2.1,4.2-5.27,6.59-5.85,2,7.86,5.9,19.89,11.41,25.18-.88-5.53-3.4-17.58-5.28-26.38l.82-.12c4.81,13.59,15.57,35.82,34.45,35.25-6.69-10.12-13.83-28-13.83-28l19.45,13.24,29.48,2.87c1,2.64,2,5.26,2.87,7.74l5.63,20.65,4.39,3a41.22,41.22,0,0,1,1.92,5.21l-3.23-1.67a109.23,109.23,0,0,1,1.67,24.3c-.69,12.69-1.67,28.21-1.67,28.21h4.46s9.65-19.35,22.39-24.68c0,0,6.81-17.59,8.67-24.94V214s4.9,5.53,5.68,10.63C525.67,224.67,527.24,215.8,520,205.46Z"/><path class="cls-3" d="M362.6,122c-.06-.27-.12-.53-.17-.8A3.76,3.76,0,0,0,362.6,122Z"/></g></g></svg>