<?xml version="1.0" encoding="utf-8"?>
<!-- Generator: Adobe Illustrator 25.4.1, SVG Export Plug-In . SVG Version: 6.00 Build 0)  -->
<svg version="1.1" id="Layer_1" xmlns="http://www.w3.org/2000/svg" xmlns:xlink="http://www.w3.org/1999/xlink" x="0px" y="0px"
	 viewBox="0 0 838 1536.1" style="enable-background:new 0 0 838 1536.1;" xml:space="preserve">
<style type="text/css">
	.st0{fill:none;}
	.st1{fill-rule:evenodd;clip-rule:evenodd;fill:#111111;}
	.st2{fill-rule:evenodd;clip-rule:evenodd;fill:url(#SVGID_1_);}
	.st3{opacity:0.74;fill:#BADB3E;enable-background:new    ;}
	.st4{fill:#727272;}
	.st5{fill:#757575;}
	.st6{fill:#4C4C4C;}
	.st7{fill:url(#SVGID_00000002373107124198050580000011845910740292248500_);}
	.st8{opacity:0.95;fill:url(#SVGID_00000088093871284194928840000000697691043518736026_);enable-background:new    ;}
	.st9{opacity:0.43;fill:#FFFECF;enable-background:new    ;}
</style>
<g id="Layer_2_00000112615910879156086650000007131481037342363264_">
	<g id="base">
		<rect x="0.3" class="st0" width="837.3" height="1536.1"/>
	</g>
	<g id="hair12">
		<path class="st1" d="M361.3,257c0.8-1.4,1.8-2.6,3-3.8c1.8-12-2.6-25.8-2.6-25.8c-2.3-4.7-3.7-9.8-4.1-15
			c-0.3-8,1.5-11.3,3.9-16.8c0.2-0.4,0.4-0.9,0.6-1.5l-6.9,8l5.2,42.7l-6.4,33.4l4.1,3.4C358.3,274,359.5,259.6,361.3,257z"/>
		
			<linearGradient id="SVGID_1_" gradientUnits="userSpaceOnUse" x1="353.55" y1="1331.8376" x2="529.6" y2="1331.8376" gradientTransform="matrix(1 0 0 -1 0 1536)">
			<stop  offset="0" style="stop-color:#231F20"/>
			<stop  offset="1" style="stop-color:#363636"/>
		</linearGradient>
		<path class="st2" d="M357.5,212.5c-1.5,0.3-4-15.4-4-15.4s7.3-46.1,27-66c17.1-11.4,36.4-18.9,56.7-22.1
			c8.8-1.4,29.6,2.3,36.7,4.6c14.6,4.7,22.5,17,33.4,23.9c16.8,27.1,22.2,56.1,22.2,56.1s0,23.3-1.8,51c-0.4,5.9-4.1,30.2-4.1,30.2
			l-10.3,18l-11.6,6.6l-26.6-2.6l-4.6-30.2l9.2-12.8l11.4-18c0,0-3.3-30-3.8-46.4c-12.8,3.6-56.1,9.9-74.5,9.6s-51.7-6.2-51.7-6.2
			S358.8,208.5,357.5,212.5z"/>
		<path class="st3" d="M463.8,193.8l23.6-4.3l-5,0.1c0,0-58.9,6.7-72.4,6.6s-47.4-7.3-47.4-7.3l-2.7,1.6l-2.3,22l3.7-19.7
			c0,0,34.7,6.2,48.9,6.2C425,199,463.8,193.8,463.8,193.8z"/>
		<path class="st4" d="M396.7,157.6l15.5,3.7l21.8-2.6c0,0,14-41.9,39.9-45c0,0-0.4,6.2,0-3.8c-5.4-3.9-17.9-2.8-17.9-2.8
			l-59.8,44.3C396.2,151.3,396.1,147.6,396.7,157.6z"/>
		<path class="st5" d="M489.7,136.5c1.3,0.6,2.5,1.2,3.7,1.9s2.4,1.3,3.6,2c2.3,1.4,4.6,2.9,6.8,4.5l0.4,0.2l0.2,0.5
			c1.9,4.1,3.7,8.3,5.2,12.6c0.8,2.1,1.5,4.3,2.1,6.5c0.7,2.2,1.2,4.5,1.6,6.7c-1.4-1.9-2.6-3.8-3.8-5.8c-1.1-2-2.2-4-3.2-6
			c-2-4.1-3.9-8.2-5.5-12.5l0.6,0.8c-2.1-1.7-4.1-3.5-6.1-5.4c-1-0.9-2-1.9-2.9-2.9S490.6,137.6,489.7,136.5z"/>
		<path class="st6" d="M411.4,150.7l0.9,10.6l21.8-2.2c0,0,14-42.3,39.9-45.4c0,0-0.4,6.2,0-3.8c-5.4-4-17.9-2.9-17.9-2.9
			L411.4,150.7z"/>
		
			<linearGradient id="SVGID_00000101822319756195435190000003501518703715227522_" gradientUnits="userSpaceOnUse" x1="396.21" y1="1407.2776" x2="473.91" y2="1407.2776" gradientTransform="matrix(1 0 0 -1 0 1536)">
			<stop  offset="0" style="stop-color:#231F20"/>
			<stop  offset="1" style="stop-color:#363636"/>
		</linearGradient>
		<path style="fill:url(#SVGID_00000101822319756195435190000003501518703715227522_);" d="M396.2,151.3l15.1,0.6l18.6-0.7
			c0,0,16.8-55.1,43.9-41.3c0,0-10-6.4-26.6-3.5C441.2,108.8,405.4,113.7,396.2,151.3z"/>
		
			<linearGradient id="SVGID_00000146477014289647627980000014693777392750518922_" gradientUnits="userSpaceOnUse" x1="397.7234" y1="1321.4236" x2="454.9034" y2="1298.2535" gradientTransform="matrix(1 0 0 -1 0 1536)">
			<stop  offset="0" style="stop-color:#75AA00;stop-opacity:0.74"/>
			<stop  offset="0.51" style="stop-color:#FFFFFF;stop-opacity:0.74"/>
			<stop  offset="1" style="stop-color:#75AA00;stop-opacity:0.74"/>
		</linearGradient>
		<path style="opacity:0.95;fill:url(#SVGID_00000146477014289647627980000014693777392750518922_);enable-background:new    ;" d="
			M413.1,264.6c29.2,17.5,57.4,1.2,57.4,1.2l20.2-28.7l-3.1-48.4c0,0-47.8,9.9-72.9,9.9s-53.5-5.8-53.5-5.8l-3.8,18.3l3.9,31.8
			l-1.7,15.9c0,0,12.8,15.7,37.2,4.9C402.1,261.3,408.2,261.7,413.1,264.6z"/>
		<path class="st9" d="M413.1,260.6c21.2,12.8,41.9,7.6,51.6,3.8c4.3,1.3,5.4,1.2,5.4,1.2s-10.4,8.2-29.1,7.2
			c-25-1.3-26.9-10.4-35.3-10.4s-15.4,6.4-28.6,4.9c-6.6-0.7-12.8-3.7-17.5-8.5l0.6-0.6c0,0-0.1-0.7,1.2-0.8
			c4.7,3.9,17.1,10.4,35.4,2.2C402.1,257.3,408.2,257.7,413.1,260.6z"/>
	</g>
</g>
</svg>
