<svg xmlns="http://www.w3.org/2000/svg" xmlns:xlink="http://www.w3.org/1999/xlink" viewBox="0 0 837.97 1536.05"><defs><style>.cls-1{fill:none;}.cls-2{fill:#301b11;}.cls-2,.cls-3,.cls-4{fill-rule:evenodd;}.cls-3{fill:url(#linear-gradient);}.cls-4,.cls-5{fill:#422f22;}.cls-4{opacity:0.54;}.cls-6{fill:url(#linear-gradient-2);}.cls-7{fill:#666;}.cls-8{fill:#d8d8d8;}.cls-9{fill:url(#linear-gradient-3);}.cls-10{fill:url(#linear-gradient-4);}</style><linearGradient id="linear-gradient" x1="669.57" y1="1026.02" x2="669.57" y2="706.79" gradientUnits="userSpaceOnUse"><stop offset="0" stop-color="#5e3d32"/><stop offset="1" stop-color="#8a6449"/></linearGradient><linearGradient id="linear-gradient-2" x1="587.95" y1="595.99" x2="698.8" y2="595.99" xlink:href="#linear-gradient"/><linearGradient id="linear-gradient-3" x1="590.84" y1="609.46" x2="607.46" y2="609.46" gradientTransform="matrix(0.85, -0.82, 0.7, 0.72, -327.35, 695.6)" xlink:href="#linear-gradient"/><linearGradient id="linear-gradient-4" x1="624.82" y1="609.7" x2="696.16" y2="609.7" gradientTransform="matrix(0.85, -0.82, 0.7, 0.72, -327.35, 695.6)" xlink:href="#linear-gradient"/></defs><g id="Layer_2" data-name="Layer 2"><g id="base"><rect class="cls-1" x="0.32" width="837.33" height="1536.05"/></g><g id="L_arm_07"><path class="cls-2" d="M630,930.51s-6.74-15-5.21-25.72c0,0,8.58-5.06,23.58-4.37S681.43,917,681.43,917v17.46Z"/><path class="cls-3" d="M717.7,831.38q-.65-8.89-.92-17.37c-.08-2.39,2.39-4.49,2.35-6.83a24.68,24.68,0,0,0-2-8.13c-.06-24.48,1.09-46,2.18-64.62.52-8.88.71-19.57,5-25.79,5.18-7.52-109.76,9.59-100.48,21.28a83.67,83.67,0,0,1,12.85,23.78c.9,2.57,3.13,5.07,4.29,7.58,2,4.36,4.24,10.57,6.17,15.08,2.16,5.07,8.17,12.43,6.94,17.65a4.44,4.44,0,0,0,1.2,4.45l-1.72,4.37a34.19,34.19,0,0,0,4,5.41c.12,1.18,1.39,1.39,1.35,2.4a10.69,10.69,0,0,1-.65,3.54s-19,4.9-26.94,11-11.07,30.66-11.07,30.66h0c-.11.61-5.16,29.72-10.41,43.85,0,0,11.29,3.66,24.9-5.3s8.22-33.68,8.22-33.68l-.07,0h.07s5.14-3,11.26,1.23c0,0-3.55,22.64-7.76,38.47a39.32,39.32,0,0,1-8.22,27.12s-8.53,2.25-8.21,3h0s1.28,3.09,5.83,6.76,16.56,2.16,16.56,2.16l6.47-3.68s-.49,1.11,1,2.4a4.77,4.77,0,0,0,2.91,1.58h0c4.92,1.85,22,0,22,0h0c2.79,1.62,4.73.79,4.89.72a47.64,47.64,0,0,0,5.24.1c4.89-.18,7.65-1.45,12.06-2l4.52-.3h.22c7.7,0,10.73-.63,13.77-2.45.78-.44,1.71-3.28,2.5-8.23C730.39,912.11,731,876.74,717.7,831.38Z"/><path class="cls-2" d="M658.82,935.71s8.52-10.72,11.28-22.66c0,0-.92,15-7.35,26.65A4.52,4.52,0,0,1,658.82,935.71Z"/><path class="cls-2" d="M684.79,939.7s5-4.91,6.84-17c0,0,.82,7-1.93,17.66C689.7,940.41,687.7,941.4,684.79,939.7Z"/><path class="cls-2" d="M706.86,938.49s3.19-1.59,5.8-9a18.1,18.1,0,0,1-.92,8.67Z"/><polygon class="cls-4" points="655.21 798.47 694.14 800.56 653.49 802.83 655.21 798.47"/><path class="cls-5" d="M625.36,732.28a2.5,2.5,0,0,1,.28-.39,1.93,1.93,0,0,1,.26-.3,6.62,6.62,0,0,1,.53-.53,13.24,13.24,0,0,1,1.11-.9,18.16,18.16,0,0,1,2.36-1.47,36.45,36.45,0,0,1,5-2.21,77.36,77.36,0,0,1,10.35-2.82c3.5-.67,7-1.23,10.54-1.63,1.77-.18,3.53-.41,5.3-.54l5.3-.4-5.28.65c-1.75.21-3.5.53-5.25.78-3.49.57-7,1.29-10.39,2.11a76.05,76.05,0,0,0-10,3.24,35.92,35.92,0,0,0-4.64,2.33,18.25,18.25,0,0,0-2.08,1.44,8,8,0,0,0-.91.82,3.87,3.87,0,0,0-.4.42l-.17.21-.1.16Z"/><path class="cls-5" d="M720.79,717.53a25.12,25.12,0,0,0-3.8-1c-1.31-.27-2.65-.45-4-.61a71.11,71.11,0,0,0-8.14-.41c-2.73,0-5.46.16-8.19.38-1.36.12-2.72.29-4.08.43l-4.07.57,4-.82c1.35-.22,2.71-.47,4.06-.68,2.73-.38,5.46-.73,8.22-.88a71.76,71.76,0,0,1,8.3-.09c1.38.08,2.77.19,4.16.38a26.68,26.68,0,0,1,4.21.86Z"/><polygon class="cls-6" points="590.13 586.21 692.28 586.21 698.8 605.77 587.95 604.33 590.13 586.21"/><path class="cls-7" d="M604,610.4l-5.43,21.76,16.49,17.07L637,644.54l5.44-21.75-16.5-17.07Zm30.8,14-3.54,14.19-14.31,3-10.75-11.13,3.54-14.19,14.3-3.05Z"/><path class="cls-8" d="M604.45,609.26,599,631l16.49,17.07,21.93-4.69,5.44-21.75-16.5-17.07Zm30.8,14-3.55,14.19-14.3,3-10.76-11.13,3.55-14.19,14.3-3.06Z"/><polygon class="cls-9" points="594.88 640.57 607.96 627.9 618.07 639.22 604.49 652.6 594.88 640.57"/><polygon class="cls-10" points="623.82 613.51 683.61 555.07 686.84 571.45 633.53 624.77 623.82 613.51"/></g></g></svg>