<svg xmlns="http://www.w3.org/2000/svg" xmlns:xlink="http://www.w3.org/1999/xlink" viewBox="0 0 837.33 1537"><defs><style>.cls-1{fill:none;}.cls-2{fill:#454c4c;}.cls-2,.cls-3{fill-rule:evenodd;}.cls-3{opacity:0.36;fill:url(#linear-gradient);}.cls-4{fill:#050505;opacity:0.41;}.cls-5{fill:url(#linear-gradient-2);}.cls-6{fill:url(#linear-gradient-3);}.cls-7{fill:url(#linear-gradient-4);}.cls-8{fill:url(#linear-gradient-5);}.cls-9{fill:#a3d1cf;opacity:0.43;}.cls-10{fill:#364948;}.cls-11{fill:url(#linear-gradient-6);}.cls-12{fill:#273534;opacity:0.38;}.cls-13{fill:url(#linear-gradient-7);}.cls-14{fill:url(#linear-gradient-8);}</style><linearGradient id="linear-gradient" x1="608.36" y1="1456.05" x2="618.95" y2="1404.22" gradientUnits="userSpaceOnUse"><stop offset="0.02" stop-color="#1b1e1e"/><stop offset="0.95" stop-color="#454c4c"/></linearGradient><linearGradient id="linear-gradient-2" x1="527.11" y1="1356.61" x2="529.69" y2="1343.99" gradientTransform="translate(219.42 -67.32) rotate(9)" gradientUnits="userSpaceOnUse"><stop offset="0" stop-color="#1a8080"/><stop offset="0.89" stop-color="#24b2b2"/><stop offset="1" stop-color="#24b2b2"/></linearGradient><linearGradient id="linear-gradient-3" x1="534.67" y1="1377.8" x2="537.61" y2="1363.4" gradientTransform="translate(318.92 -85.77) rotate(12.93)" xlink:href="#linear-gradient-2"/><linearGradient id="linear-gradient-4" x1="451.37" y1="1347.24" x2="454.11" y2="1333.84" gradientTransform="matrix(-0.99, -0.17, -0.17, 0.99, 980.1, 96.31)" xlink:href="#linear-gradient-2"/><linearGradient id="linear-gradient-5" x1="459.12" y1="1375.02" x2="462.53" y2="1358.3" gradientTransform="matrix(-0.99, -0.1, -0.1, 0.99, 891.8, 46.9)" xlink:href="#linear-gradient-2"/><linearGradient id="linear-gradient-6" x1="250.13" y1="1246.57" x2="366.09" y2="1246.57" gradientTransform="matrix(1, 0, 0, 1, 0, 0)" xlink:href="#linear-gradient-2"/><linearGradient id="linear-gradient-7" x1="455.24" y1="1267.23" x2="534.14" y2="1267.23" gradientTransform="matrix(-1, 0, 0, 1, 1022.04, 0)" xlink:href="#linear-gradient-2"/><linearGradient id="linear-gradient-8" x1="277.76" y1="1256.12" x2="346.34" y2="1256.12" gradientTransform="matrix(0.29, -0.04, 0.14, 0.99, 337.82, 32.69)" xlink:href="#linear-gradient-2"/></defs><g id="Layer_2" data-name="Layer 2"><g id="base"><rect class="cls-1" width="837.33" height="1537"/></g><g id="feet_07"><path class="cls-2" d="M317.22,1386.22c.83,7.45.89,20.65.89,27.56,0,14.11-7.74,21.91-7.74,21.91s-60,.83-85.93,4c-1.71.2-3.33.39-4.7.64-22.39,3.67-41.05,7.93-57,8.86s-50.51-1.22-70.4-21.75a54.94,54.94,0,0,1,3.24-11.31c2.25-5.64,5.92-12.2,11.75-16.76,0,0,31.6-3.43,55.9-16.51a74.41,74.41,0,0,0,11.46-7.44c24.15-19.3,49.61-21.61,49.61-21.61s2.49-8.87,6.28-22.63c1.4-5.1-1-10.69-.14-17.11,1.72-13.7,4.89-21.93,7.62-32.11,2.61-9.71-2.49-22.25.09-32.13.75-2.88-.25-6.42.48-9.26,1.1-4.26,3.47-7.78,3.79-11.88,1.13-14.17,11.56-21.39,13.74-31.37,0,0,57.58,8.58,64,8.37,6.05-.21,34.26,0,41.95,0l-4.58,43.12-4.65,12.08c-.19,1.65-3.53,8.17-4.34,9.61l-3.41,5.58a48.67,48.67,0,0,0-1.86,5.58l-5.15,7.41a12.23,12.23,0,0,0-.48,3.81l.19,5.9a12.36,12.36,0,0,1-1.78,6.78l-4.28,7.09a12.46,12.46,0,0,0-1.3,3l-1.68,5.84a12.5,12.5,0,0,0-.47,3.8l.26,8.44a12.41,12.41,0,0,1-2.14,7.35l-5.68,8.31S314.77,1363.59,317.22,1386.22Z"/><path class="cls-2" d="M687.77,1435.4c.73,14.94-5.73,23.86-5.73,23.86-35,31.3-60.31,19.94-110.86,3.38l0-.05c-1.13-.4-2.2-.79-3.23-1.18-7.2-2.84-12.25-5.44-24.55-11.32-3-1.47-6.27-3.18-9.55-5-12-6.81-24.15-15.09-24.15-15.09-1-5.29-2-7.69-2.5-10.48a41.87,41.87,0,0,1-.34-8.92c.93-18.81,11.64-33.88,11.64-33.88s-4.15-5-3.32-13.68c1.92-20.08-2.84-27.78-7.19-46.11-1.41-5.92-9.76-8.46-8.32-18.81,1.12-8-.42-19.41-2.09-26.74-5.44-23.81-12.72-39-12.14-40.44,7.68-19,118.3-11,118.3-11,.72,2.3,2.26,14.71,1.2,31.08-2.81,43.49,1.74,25.59-1,42-3.38,20.21,5.35,34.48,1.2,40.86-8.41,12.92-.8,21-.8,21l.05.05a74.87,74.87,0,0,0,6.71,13.33l.05,0a143.41,143.41,0,0,0,17.69,23.32c8,8.67,19.74,16.41,30.52,22.44a.15.15,0,0,0,.1,0c9.63,5.35,18.53,9.36,23.38,11.44a7.74,7.74,0,0,1,4.64,6.18C687.59,1433,687.7,1434.2,687.77,1435.4Z"/><path class="cls-3" d="M666.07,1440.16S653.64,1451,637.6,1453.1c-7.34.94-18.1-12.23-32.92-20.14-17.62-9.41-35.43-20.64-41.33-23.17"/><path class="cls-4" d="M493.5,1255.86c4.63,4.47,12,10.6,16.24,15.29s8.38,9.47,12.34,14.4,7.72,10,11.22,15.25a135.82,135.82,0,0,1,9.35,16.4,135,135,0,0,0-10.76-15.36c-3.94-4.85-8.13-9.48-12.44-14s-8.83-8.8-13.43-13-5.27-5.91-10-9.73Z"/><path class="cls-4" d="M344.9,1276.46c-4.36,1.06-11.18,6.5-15.46,11.18s-8.38,9.48-12.34,14.4-7.72,10-11.22,15.26a135.05,135.05,0,0,0-9.35,16.4,133,133,0,0,1,10.76-15.37c3.94-4.85,8.13-9.47,12.44-14s8.83-8.81,13.43-13,5.27-5.91,10-9.73Z"/><path class="cls-4" d="M238.08,1250.36c-1.21,4.32.22,12.93,2.23,19s4.19,11.93,6.56,17.79,5,11.62,7.85,17.23a135.51,135.51,0,0,0,9.77,16.16,133.8,133.8,0,0,1-8.17-16.88c-2.32-5.8-4.32-11.72-6.15-17.68s-3.38-12-4.81-18.06c-5.26-10-5.74-20.53-6.75-26.56Z"/><path class="cls-4" d="M603.3,1297.91c-.25,4.37.38,5.25-2.68,10.81s-6.28,11-9.67,16.31-7,10.53-10.83,15.54a135.64,135.64,0,0,1-12.52,14.13,134.6,134.6,0,0,0,11.09-15.13c3.32-5.29,6.35-10.75,9.23-16.28s5.49-11.2,8-16.9,4.82-12.71,8.52-17.71Z"/><path class="cls-5" d="M548.74,1356.51c1-3.13-.41-7.81-6.21-9.66-4.94-1.58-23.32-7.16-28.71-8.79a1.18,1.18,0,0,0-1.53,1.11l2.05,10a1.2,1.2,0,0,0,.84,1.17l25.88,8.71S547.57,1360.29,548.74,1356.51Z"/><path class="cls-6" d="M557,1380.28c1.39-3.39-.14-8.77-7.53-11.53-6.27-2.34-26.84-10.23-33.7-12.69a1.44,1.44,0,0,0-2,1.06l.55,10.77a1.47,1.47,0,0,0,1,1.41L547,1382.23S555.27,1384.38,557,1380.28Z"/><path class="cls-7" d="M285.37,1341.92c.1-3.27,2.06-7.26,8.51-7.16,5.49.09,28.47.71,34.43.9a1.2,1.2,0,0,1,1.16,1.54l-5.63,9.48a1.26,1.26,0,0,1-1.24.83l-31.4-.72S285.25,1345.88,285.37,1341.92Z"/><path class="cls-8" d="M269,1361.8c-.24-3.66,1.13-8.27,9.47-8.51,7.09-.2,33.48-.63,41.19-.75,1.08,0,1.91.8,1.68,1.66l-3.11,11.32a1.51,1.51,0,0,1-1.5,1l-40.35.33S269.34,1366.22,269,1361.8Z"/><path class="cls-9" d="M270.45,1356.67s-2.33,5.7,3.44,8.09c5,2.08,23.27,1.67,23.27,1.67s-16.92.82-21.22.19-6.15-1.58-6.72-4.61A7.2,7.2,0,0,1,270.45,1356.67Z"/><path class="cls-9" d="M515.27,1369.3,547,1382.23s8.31,2.15,10-2c-1.25,1.19-3.31,3.2-10.69.44"/><path class="cls-9" d="M548.74,1356.51c-1.17,3.78-7.68,2.54-7.68,2.54l-25.88-8.71s24.1,7.59,27.35,8.12S548.74,1356.51,548.74,1356.51Z"/><path class="cls-9" d="M322.6,1347.51l-31.4-.72s-5.95-.91-5.83-4.87c0,0,2.19,3.21,5.51,3.89S322.6,1347.51,322.6,1347.51Z"/><path class="cls-10" d="M256.19,1197.29s.22,42.23-6.06,52.28a752.32,752.32,0,0,0,116,3.78l-3.28-51.14s-20.36,1.46-44.1.52C295.14,1201.8,268.24,1198.47,256.19,1197.29Z"/><path class="cls-11" d="M253.41,1239s-1.9,8.33-3.28,10.54a752.32,752.32,0,0,0,116,3.78l-.72-11.19c-16.35,1.2-34.29,1.78-53.59,1.33A556.34,556.34,0,0,1,253.41,1239Z"/><path class="cls-12" d="M362.81,1202.21l1.41,27.94s-26.07,14.71-34.92,13.73-35.7-.78-35.7-.78S347.82,1203.8,362.81,1202.21Z"/><path class="cls-10" d="M562.39,1217.81s-.16,42.23,4.4,52.29c0,0-33.28,7.07-78.23,4.06l-3.65-51.42a174.8,174.8,0,0,1,30.52-4.34C532.56,1217.47,553.17,1218.4,562.39,1217.81Z"/><path class="cls-13" d="M564.41,1259.55s1.38,8.33,2.38,10.55c0,0-33.28,7.07-78.23,4.06L487.9,1264c11.88,1.19,20.07.48,34.1,0A294.78,294.78,0,0,0,564.41,1259.55Z"/><path class="cls-10" d="M587,1218.34s5.92,41.81,5.91,52c0,0,8.72,1.29,18.35-5.12l.27-45.32a23,23,0,0,0-10-3C596.14,1216.71,589.93,1218.52,587,1218.34Z"/><path class="cls-14" d="M592.19,1259.76s.73,8.31.73,10.55c0,0,8.88,1.37,18.35-5.12l-.08-7.78c-3.49,1.69-5,1.78-8.4,2.34C598.94,1260.23,596.24,1259.75,592.19,1259.76Z"/><path class="cls-12" d="M484.91,1222.74l2.26,30.6s17,12.05,23.85,11.07,27.82-.79,27.82-.79S496.6,1224.32,484.91,1222.74Z"/></g></g></svg>