<?xml version="1.0" encoding="utf-8"?>
<!-- Generator: Adobe Illustrator 25.4.1, SVG Export Plug-In . SVG Version: 6.00 Build 0)  -->
<svg version="1.1" id="Layer_1" xmlns="http://www.w3.org/2000/svg" xmlns:xlink="http://www.w3.org/1999/xlink" x="0px" y="0px"
	 viewBox="0 0 838 1536.1" style="enable-background:new 0 0 838 1536.1;" xml:space="preserve">
<style type="text/css">
	.st0{fill:none;}
	.st1{fill-rule:evenodd;clip-rule:evenodd;fill:#1C1C1C;}
	.st2{opacity:0.43;fill:#D3EAE9;enable-background:new    ;}
	.st3{fill-rule:evenodd;clip-rule:evenodd;fill:#111111;}
	.st4{fill:#231F20;}
	.st5{fill-rule:evenodd;clip-rule:evenodd;fill:url(#SVGID_1_);}
	.st6{opacity:0.74;fill:#9CD3D3;enable-background:new    ;}
	.st7{opacity:0.58;fill:#898989;enable-background:new    ;}
	.st8{fill:url(#SVGID_00000087403175405631454600000001949510408321806780_);}
	.st9{fill:#858E8E;}
	.st10{fill:#AFAFAF;}
	.st11{fill:#4D5454;}
	.st12{fill:url(#SVGID_00000108301955832465782750000011398656679783668632_);}
	.st13{opacity:0.73;fill:#231F20;enable-background:new    ;}
	.st14{opacity:0.95;fill:url(#SVGID_00000145744662295864658030000009453269390057808056_);enable-background:new    ;}
</style>
<g id="Layer_2_00000119799519999594411110000010353979955248212869_">
	<g id="base">
		<rect x="0.3" class="st0" width="837.3" height="1536.1"/>
	</g>
	<g id="hair_11">
		<polygon class="st1" points="469.4,266.4 470.4,266.2 487.7,234.3 487.4,189.5 496.4,245.1 475.1,297.1 		"/>
		<polygon class="st2" points="470.5,265.7 465.4,264.8 397.7,277.9 363.6,258.9 359.7,258.8 396.9,280.8 		"/>
		<path class="st3" d="M361.3,257c0.8-1.4,1.8-2.6,3-3.8c1.8-12-2.6-25.8-2.6-25.8c-2.3-4.7-3.7-9.8-4.1-15
			c-0.3-8,1.5-11.3,3.9-16.8c0.2-0.4,0.4-0.9,0.6-1.5l-6.9,8l5.2,42.7l-6.4,33.4l4.1,3.4C358.3,274,359.5,259.6,361.3,257z"/>
		<path class="st4" d="M407.5,220.2c0,0-28.5-15.5-44.1-22.6c-2.2,6.3-5.9,14.9-5.9,14.9s0.2-26,8.9-24.3s42.8,8.2,43.7,16.4
			C410.5,210,409.6,215.3,407.5,220.2z"/>
		
			<linearGradient id="SVGID_1_" gradientUnits="userSpaceOnUse" x1="353.55" y1="1333.8376" x2="529.6" y2="1333.8376" gradientTransform="matrix(1 0 0 -1 0 1538)">
			<stop  offset="0" style="stop-color:#8FA0A1"/>
			<stop  offset="1" style="stop-color:#94A0A1"/>
		</linearGradient>
		<path class="st5" d="M357.5,212.5c-1.5,0.3-4-15.4-4-15.4s7.3-46.1,27-66c17.1-11.4,36.4-18.9,56.7-22.1
			c8.8-1.4,29.6,2.3,36.7,4.6c14.6,4.7,22.5,17,33.4,23.9c16.8,27.1,22.2,56.1,22.2,56.1s0,23.3-1.8,51c-0.4,5.9-4.1,30.2-4.1,30.2
			l-10.3,18l-11.6,6.6l-26.6-2.6l-4.6-30.2l9.2-12.8l11.4-18c0,0-3.3-30-3.8-46.4c-12.8,3.6-39.6,15.3-79.9,30.7
			c-21.1-13.7-46.2-27.4-46.2-27.4S358.8,208.5,357.5,212.5z"/>
		<polygon class="st6" points="467.7,196.8 487.4,189.5 482.4,189.6 406.8,213.3 362.5,188.9 359.8,190.5 357.5,212.5 361.2,192.8 
			408.4,220.2 		"/>
		<polygon class="st7" points="484.9,289.6 502.4,294.6 519.3,274.7 515,265 507.8,269.3 		"/>
		<polygon class="st4" points="507.7,210 493.7,233.6 478.4,268.3 486.1,289.1 502.4,290.8 512.7,210 543,188.7 		"/>
		
			<linearGradient id="SVGID_00000058558499543853959010000015690082870121431729_" gradientUnits="userSpaceOnUse" x1="482.64" y1="1298.25" x2="545.02" y2="1298.25" gradientTransform="matrix(1 0 0 -1 0 1538)">
			<stop  offset="0" style="stop-color:#8FA0A1"/>
			<stop  offset="1" style="stop-color:#94A0A1"/>
		</linearGradient>
		<polygon style="fill:url(#SVGID_00000058558499543853959010000015690082870121431729_);" points="512.7,210 498.7,233.6 
			482.6,268.6 490.2,286.8 502.4,290.8 517.6,273.1 522.1,261 545,202.9 543,188.7 		"/>
		<path class="st9" d="M396.2,171.6l10.5,22.2l27.1-24c0,0,14.3-53,40.1-56.1c0,0-0.4,6.2,0-3.8c-5.4-4-17.9-2.9-17.9-2.9
			l-59.8,44.3C396.2,151.3,395.7,161.6,396.2,171.6z"/>
		<path class="st10" d="M489.7,136.5c1.3,0.6,2.5,1.2,3.7,1.9s2.4,1.3,3.6,2c2.3,1.4,4.6,2.9,6.8,4.5l0.4,0.2l0.2,0.5
			c1.9,4.1,3.7,8.3,5.2,12.6c0.8,2.1,1.5,4.3,2.1,6.5c0.7,2.2,1.2,4.5,1.6,6.7c-1.4-1.9-2.6-3.8-3.8-5.8c-1.1-2-2.2-4-3.2-6
			c-2-4.1-3.9-8.2-5.5-12.5l0.6,0.8c-2.1-1.7-4.1-3.5-6.1-5.4c-1-0.9-2-1.9-2.9-2.9S490.6,137.6,489.7,136.5z"/>
		<path class="st11" d="M406.7,173.4v20.3l30.6-22.4c0,0,10.8-54.6,36.6-57.7c0,0-0.4,6.2,0-3.8c-5.4-4-17.9-2.9-17.9-2.9
			L406.7,173.4z"/>
		
			<linearGradient id="SVGID_00000058556205038868163310000010694469311189464215_" gradientUnits="userSpaceOnUse" x1="396.21" y1="1398.8713" x2="473.91" y2="1398.8713" gradientTransform="matrix(1 0 0 -1 0 1538)">
			<stop  offset="0" style="stop-color:#8FA0A1"/>
			<stop  offset="1" style="stop-color:#94A0A1"/>
		</linearGradient>
		<path style="fill:url(#SVGID_00000058556205038868163310000010694469311189464215_);" d="M396.2,151.3l10.5,22.2l25.2-14.3
			c0,0,14.9-63,42-49.3c0,0-18.9-7.3-35.5-4.3C429.2,109.3,405.4,113.7,396.2,151.3z"/>
		<polygon class="st13" points="492.8,269.5 503.2,240.3 503.3,240.1 503.4,240 520.9,214.4 505.5,241.3 505.6,241 493.8,278.9 		
			"/>
		<polygon class="st13" points="501.3,267.7 511.7,238.5 511.8,238.3 511.9,238.2 529.4,212.6 514,239.6 514.1,239.3 502.7,279.6 		
			"/>
		<polygon class="st13" points="510.3,265.6 520.7,236.4 520.8,236.2 520.8,236.1 538.4,210.5 523,237.5 523.1,237.2 511.4,274.8 		
			"/>
		
			<linearGradient id="SVGID_00000017516412013765516510000014364729974861260196_" gradientUnits="userSpaceOnUse" x1="396.9976" y1="1321.644" x2="454.1776" y2="1298.4741" gradientTransform="matrix(1 0 0 -1 0 1538)">
			<stop  offset="0" style="stop-color:#9CD3D3;stop-opacity:0.74"/>
			<stop  offset="0.51" style="stop-color:#FFFFFF;stop-opacity:0.74"/>
			<stop  offset="1" style="stop-color:#9FD2D1;stop-opacity:0.75"/>
		</linearGradient>
		<path style="opacity:0.95;fill:url(#SVGID_00000017516412013765516510000014364729974861260196_);enable-background:new    ;" d="
			M396.9,280.8c3.3,0,73.6-15,73.6-15l20.2-28.7l-3.1-48.4l-80.2,31.6l-46.2-27.4l-3.8,18.3l3.9,31.8l-1.7,15.9L396.9,280.8z"/>
	</g>
</g>
</svg>
