<svg xmlns="http://www.w3.org/2000/svg" xmlns:xlink="http://www.w3.org/1999/xlink" viewBox="0 0 837.33 1537"><defs><style>.cls-1{fill:none;}.cls-2{fill:url(#linear-gradient);}.cls-3{fill:#666;opacity:0.6;}</style><linearGradient id="linear-gradient" x1="687.72" y1="910.42" x2="687.72" y2="746.45" gradientUnits="userSpaceOnUse"><stop offset="0" stop-color="#a1a1a1"/><stop offset="1" stop-color="#a1a1a1"/></linearGradient></defs><g id="Layer_2" data-name="Layer 2"><g id="base"><rect class="cls-1" width="837.33" height="1537"/></g><g id="L_arm_04"><polygon class="cls-2" points="729.35 910.42 643.48 909.71 648.36 890.42 654.08 890.42 648.48 888.91 649.73 869.35 653.12 868.88 651.61 860.49 690.8 846.14 648.77 817.02 657.18 808.28 662.27 807.73 656.43 802.62 653.56 788.1 645.74 784.63 645.85 765.3 718.52 746.45 720.75 766.53 687.35 775.2 720.85 784.28 718.74 802.14 719.3 802.29 717.79 821.89 692.61 824.59 727.41 842.43 724.77 858.71 727.16 858.94 727.56 878.8 701.17 882.44 731.96 890.77 729.35 910.42"/><path class="cls-3" d="M683.77,772.79c-.66.23-38,11.84-38,11.84l3.31,1.47Z"/><polygon class="cls-3" points="718.74 802.14 681.43 795.2 718.74 798 718.74 802.14"/><path class="cls-3" d="M725.33,855.23c-2.13.39-70.16,13.87-70.16,13.87l69.6-10.39Z"/><polygon class="cls-3" points="729.73 904.48 671.57 895.16 730.74 901.11 729.73 904.48"/></g></g></svg>