<svg xmlns="http://www.w3.org/2000/svg" viewBox="0 0 837.33 1537"><defs><style>.cls-1{fill:none;}.cls-2,.cls-5{opacity:0.9;}.cls-3,.cls-5{fill:#0046b7;}.cls-4{fill:#032e6b;fill-rule:evenodd;}</style></defs><g id="Layer_2" data-name="Layer 2"><g id="base"><rect class="cls-1" width="837.33" height="1537"/></g><g id="Chest_05"><g class="cls-2"><path class="cls-3" d="M540.34,445.13l.57-.1c.08,0,.16-.11.21-.09.45.19.53-.12.62-.44a15.06,15.06,0,0,1,.54-1.73,1,1,0,0,1,.54-.48c.24-.08.45,0,.61.31s.53.28.89-.08c-.14.6.22.76.57.88a.36.36,0,0,0,.32-.15.72.72,0,0,0-.27-1,4.61,4.61,0,0,1-.44-.32l3.39-4.52a12.49,12.49,0,0,1,1.2-1.48,6.81,6.81,0,0,1,1.25-.79l-1.18-.08-.08-.12,1.14-.9-3,.51,0,.15c-.14-.22-.26-.44-.41-.65s-.17-.08-.27-.11a1,1,0,0,0,0,.28c.06.23.16.44.22.67,0,.07,0,.16,0,.25a.82.82,0,0,1-.28-.07c-.2-.15-.38-.33-.57-.5l-.16.11.41.81-.1.09a5.89,5.89,0,0,1-.52-.62c-.37-.58-.65-1.21-1.07-1.75a4.22,4.22,0,0,0-1.24-1.1,6.62,6.62,0,0,1-2-2.34,4.09,4.09,0,0,1-.25-.46l-.11,0,.18.67-.09.08-1.75-1.89-.11.08c.17.79.82,1.34,1.07,2.14l-1.75-1.34-.11.1c.27.81,1.09,1.21,1.5,2l-1.81-1.07-.1.13c.31.73,1.15,1,1.69,1.65l-1.7-.47-.07.13c.29.51,1,.42,1.39.84a3.38,3.38,0,0,0-.62,0,1.6,1.6,0,0,0-.41.21c.11.14.2.38.34.42.38.11.79.13,1.19.26a6,6,0,0,0-.75.24c-.14.07-.23.24-.34.37.17.08.34.23.5.22.35,0,.7-.12,1.06-.15a10,10,0,0,0-.95.39c-.14.09-.22.3-.33.45a1.56,1.56,0,0,0,.55.08c.47-.12.94-.29,1.44-.38-.4.18-.81.34-1.2.55-.14.07-.23.27-.34.41a1.53,1.53,0,0,0,.59.05c.41-.15.79-.36,1.22-.56l-1.35,1,.11.2.77-.27-.41.59.36,0a3.27,3.27,0,0,0,.41.49,5.89,5.89,0,0,0,.73.44l.58.33.95.47s-.07.15-.14.27a7.28,7.28,0,0,0-.57,1.11,10.07,10.07,0,0,1-2.13,3.46,9.43,9.43,0,0,0-.87,1.48.61.61,0,0,0,.16.85l.69-.31Z"/><path class="cls-3" d="M493.22,424.85l-2.63,1,0,.2,2.9-.34c-.67.56-1.63.61-2,1.49l.11.28,2.62-.76.05.07-1.88,1.44.16.28c1.17.15,2-.95,3.2-1.09l-1.61.9a1.12,1.12,0,0,0-.36.28,6.53,6.53,0,0,0-.37.75,5.93,5.93,0,0,0,.84.06,2.13,2.13,0,0,0,.56-.23l-.32.59c.5.26.5.26,2.07-.39l-.77.8.11.19,1.21-.4-.07.47,6.07,1.53a46,46,0,0,1-2.25,5.21,44.62,44.62,0,0,1-3.33,4.59l.19.2a18.91,18.91,0,0,1,1.61-1.22,10.1,10.1,0,0,1,1.88-.89,1.3,1.3,0,0,0,1-1,1.45,1.45,0,0,1,.52-.7c.24,1.33.41,1.43,1.7,1l1.4-.43-.75,1.45.16.11.8-1c.41.39-.63,1.19.56,1.4.1-.55.2-1.11.3-1.63l.18.37c1.28-1.22,1.27-1.28-.11-2.19.8-1.23,1.56-2.49,2.42-3.68s1.79-2.31,2.73-3.43a2.49,2.49,0,0,1,2.47-.8,1,1,0,0,0,.71-.12c-.57-.27-1.15-.54-1.71-.84a2.34,2.34,0,0,1-.45-.44c.18-.15.33-.38.53-.44a11.92,11.92,0,0,1,1.33-.23l.06-.21c-.45-.09-.9-.16-1.35-.26a7.62,7.62,0,0,1-1.42-.38,4.36,4.36,0,0,0-3.13.24c0-.82,0-1.52.08-2.21a7.82,7.82,0,0,0-.9-4.91,8.7,8.7,0,0,1-.85-3.49c-.08-.54-.16-1.08-.25-1.76-.27.67-.5,1.26-.77,1.95-.06-.29-.1-.5-.15-.7l-.33-.12a4.53,4.53,0,0,1-.08.74c-.11.41-.06.91-.6,1.13-.1,0-.17.3-.18.47,0,.79,0,1.59-.06,2.38s-.26,1.63-.4,2.45l.3-.06-.87,1.37.21.17,1-.39c-.48.56-1.28.7-1.26,1.66l1.31-.86.06.09-1.43,1.26a16.21,16.21,0,0,0-5.31-2.25,6.69,6.69,0,0,1-1.16-.71l-2.81-1.68-.17.22.29.45a1.62,1.62,0,0,1-.21,0c-.87-.18-1.73-.38-2.6-.53-.17,0-.37.13-.56.2a2.11,2.11,0,0,0,.48.38,11.21,11.21,0,0,1,1.87.78l-3.2-.1,0,.33,4.51,1c-1.6.23-3.21,0-4.76.44v.23l2.84.17Zm13.53,12.85v.94a7,7,0,0,0-1.07-.18,6.32,6.32,0,0,0-1,.19l0-.13Z"/><path class="cls-3" d="M534.31,432h.94c.12,0,.29-.12.36-.08.67.43.88,0,1.12-.52a28.07,28.07,0,0,1,1.36-2.61,1.62,1.62,0,0,1,1-.61c.39-.07.72.1.87.67s.77.6,1.45.14c-.39.92.13,1.27.67,1.57a.65.65,0,0,0,.55-.15,1.18,1.18,0,0,0-.14-1.73,7.05,7.05,0,0,1-.61-.64c2.28-2.11,4.51-4.18,6.75-6.24a20.29,20.29,0,0,1,2.34-2,11.81,11.81,0,0,1,2.22-.88l-1.85-.48-.09-.22,2.07-1.1-4.93-.06-.12.22c-.15-.38-.27-.78-.46-1.15-.06-.12-.26-.18-.39-.27a1.22,1.22,0,0,0-.16.45c0,.38.12.75.16,1.13,0,.12-.1.26-.15.39-.14-.06-.33-.09-.42-.2-.28-.3-.52-.64-.78-1l-.29.12.42,1.42-.18.11a10.86,10.86,0,0,1-.66-1.14,33,33,0,0,0-1.19-3.1,7,7,0,0,0-1.66-2.13c-1.36-1.17-1.87-2.78-2.53-4.32-.11-.26-.17-.55-.26-.82l-.19,0,.09,1.14-.16.1-2.25-3.53-.19.09c0,1.32.92,2.38,1.08,3.74l-2.4-2.66-.22.13c.21,1.37,1.4,2.25,1.83,3.58l-2.57-2.23-.21.18c.28,1.25,1.56,1.88,2.22,3.12l-2.58-1.25-.15.2c.31.9,1.44,1,2,1.75a5.26,5.26,0,0,0-1-.23,2.55,2.55,0,0,0-.72.21c.14.27.21.66.43.77.57.29,1.21.45,1.83.77a9.09,9.09,0,0,0-1.29.16c-.24.07-.43.32-.64.49.25.18.47.48.74.51.56.07,1.15,0,1.74.06a11.13,11.13,0,0,0-1.64.36c-.26.09-.44.4-.65.61.28.1.57.31.84.29.8-.05,1.6-.19,2.41-.18-.69.16-1.39.3-2.06.52-.26.08-.45.37-.67.56a2.59,2.59,0,0,0,.92.25c.7-.11,1.37-.34,2.12-.53L535.94,417l.13.35,1.3-.21-.83.82.57.17a4.41,4.41,0,0,0,.51.9,11.5,11.5,0,0,0,1,.93c.27.23.55.47.84.69l1.37,1s-.16.22-.29.39a10.09,10.09,0,0,0-1.24,1.62,16.7,16.7,0,0,1-4.41,4.91,14.14,14.14,0,0,0-1.83,2.1,1,1,0,0,0,0,1.41l1.19-.28Z"/><path class="cls-3" d="M449.54,463.87c.6.73,1.75,1.1,2.67,1.87l-2.52-.45-.07.25,2.24.78-1.48.18c.89,1.05,2,.38,3,.72l-1.7.65c.52.47.52.47,3-.13-.38.14-.76.26-1.12.43a3,3,0,0,0-.93.7c1.3.23,2.26-.67,3.46-.83l-2.34,1.12.12.26c.44-.17.9-.31,1.33-.52a12.75,12.75,0,0,1,1.44-.69L455,469.37l.07.13.79-.37,0,.18,3.33.08.05.21-5.4,2.07,0,.17a14.92,14.92,0,0,0,2.23-.14,4.34,4.34,0,0,1,3.23.47c-.18.34-.52.7-.47,1s.51.5.82.67a13.9,13.9,0,0,0,1.31.54l-1,.56,0,.13,1.17-.29-.75,1.1c.63-.11,1.09-.34,1.19-.93s-.34-.77-.78-1a5.32,5.32,0,0,1-.83-.49l.07-.25,2.71.37c.06.65.11,1.2.16,1.77l.68-.3c.37-1,.37-1-.7-1.87.3-.13.59-.28.88-.39a7,7,0,0,0,3.82-3.36c.84-1.51,2.06-2.68,4.11-2.13l0-.2-1.91-1V466l1.71-.39a24.62,24.62,0,0,0-2.59-.73,26.2,26.2,0,0,0-2.81-.15,9,9,0,0,1-.05-1.69,14.43,14.43,0,0,0-.49-6,22.19,22.19,0,0,0-1-3.7,19,19,0,0,0-2.33-3l-.32.19,1.1,2.15-.11,0L461.07,451l-.25.21,1.82,2.32-.09.09-1.78-1.72-.23.2,1.55,2-.08.07-1.23-.91-.14.15,1.21,1.38-.77-.16c-.2,1.07.86,1.29,1.22,2l-1.06-.17.5,1.32c-.68.61-.6.85.49,1.43-.23.23-.62.44-.68.73s.4.48.6.7a10.2,10.2,0,0,0-.71.84s.19.22.3.35c-.24.28-.94.4-.36,1.11.16.19-.19.78-.26,1.19,0,.24.05.5,0,.74s-.24.44-.3.42c-1.75-.48-3.67,0-5.33-.93l-.92-.55c-.38,0-.59.09-.7,0-.84-.59-1.66-1.21-2.48-1.84a5.11,5.11,0,0,1-.52-.52l-.14.14,2.42,2.61a7.93,7.93,0,0,1-3.32-2.28l-.17.21c.48.5.93,1,1.44,1.49s1.1.87,1.65,1.3l-.12.26Z"/><path class="cls-3" d="M515.82,456.44a4.71,4.71,0,0,0,.52.21h0a.57.57,0,0,1-.18-.48Z"/><path class="cls-3" d="M543.07,450.28c-.24.09-10.85,1.26-11.34,1.72a18.24,18.24,0,0,1,1.3-1.66v0l.85-.52s0,0,0,.07c.2.83.66,1.15,1.36.32a5.33,5.33,0,0,1,.53-.51c.08.33.13.57.19.81h.08v-.78l.84.18c-.1-.17-.15-.34-.23-.36a1.1,1.1,0,0,0-1.14.14c-.22.2-.49.36-.79.58-.1-.38-.18-.7-.28-1.11l.89.19.07-.17-.87-.45.19-.64c.22.14.59-.09.71.31a.76.76,0,0,0,.38-.1,5.29,5.29,0,0,1,.46-.51,3.21,3.21,0,0,0-.17.66c0,.14.11.29.18.43.13-.08.31-.12.38-.24a5.46,5.46,0,0,0,.3-.81c0,.35,0,.59,0,.84s0,.59.39.56c.11,0,.24-.36.27-.57a6.16,6.16,0,0,1,.11-1.12c0,.27,0,.55.09.82a2.86,2.86,0,0,0,.14.73c.06.14.24.24.37.35.1-.14.29-.27.29-.41,0-.46-.08-.91-.08-1.38.1.37.21.74.3,1.11s.21.51.5.41c.11,0,.14-.37.17-.57s0-.24,0-.4l.46.59c.16.22.36.41.6.2.08-.07,0-.39-.09-.58s-.11-.14-.12-.28l1.07.62.12-.15-.76-.8c.52,0,.89.52,1.55.26l-1.13-.78c.53-.05.91.42,1.51.14l-1.38-.86c.63-.16,1.2.15,1.73-.22l-1.83-.58.61-.27-2.32-.16h0a6.14,6.14,0,0,1-2.54-1,4.09,4.09,0,0,1,1.55-2l0-.13-.73,0c-.37,0-.73.08-1.1.07a2.37,2.37,0,0,0-1.66.72c-.12.1-.22.21-.36.35-.49-.39-.86-.17-1.17.24-.69.9-1.38,1.8-2.05,2.72-.08.1,0,.29-.06.44l.39,0a8.56,8.56,0,0,1-2.2,3.57c-.06.06-.11.14-.17.21l-1.27.19c-.21-1.23-.46-2.62-.7-4h-.27a1.19,1.19,0,0,0-.1.28,1.93,1.93,0,0,0,0,.45l-.65-.7.21-.37a1.54,1.54,0,0,1,1.41-.76.57.57,0,0,0,.41-.15c-.37-.1-.75-.2-1.13-.32a2,2,0,0,1-.32-.21c.09-.12.16-.27.28-.33s.51-.19.77-.29v-.13h-.84a4.49,4.49,0,0,1-.9-.07,2.65,2.65,0,0,0-1.87.49c-.07-.5-.16-.92-.19-1.35a4.85,4.85,0,0,0-1.09-2.87,5.41,5.41,0,0,1-.9-2c-.07-.19-.13-.4-.21-.61l.44-.17c0-.06,0,0,0,.11.08,1.39.72,2.05,2.08.91a9.25,9.25,0,0,1,1-.65c0,.54,0,.94.06,1.34l.13,0,.24-1.25,1.29.54c-.12-.31-.14-.59-.27-.65a1.8,1.8,0,0,0-1.86-.11,14.08,14.08,0,0,1-1.45.71c0-.65-.07-1.19-.11-1.87l1.36.57.17-.26-1.26-1,.48-1c.32.3,1,0,1.06.72a1.25,1.25,0,0,0,.63-.06,8.16,8.16,0,0,1,.88-.69,5.86,5.86,0,0,0-.47,1,1.76,1.76,0,0,0,.17.74c.23-.09.53-.11.67-.28a8.51,8.51,0,0,0,.73-1.21c-.07.57-.13,1-.17,1.35s-.11,1,.46,1c.17,0,.49-.51.59-.84a11,11,0,0,1,.52-1.76c0,.45-.09.9-.11,1.35a4.81,4.81,0,0,0,0,1.2c0,.25.32.45.5.67.2-.19.54-.35.57-.57.13-.73.15-1.48.29-2.23,0,.62.11,1.24.15,1.86,0,.45.19.88.68.8.19,0,.34-.55.45-.86s0-.39.12-.64c.19.36.38.72.56,1.08s.47.77.91.5c.15-.09,0-.63,0-1,0-.13-.13-.26-.11-.48l1.52,1.31.25-.21-1-1.51c.84.14,1.28,1.09,2.4.88l-1.58-1.58c.87.08,1.35.94,2.38.66l-2-1.77c1.05-.08,1.88.59,2.83.14l-2.76-1.46,1.06-.24-3.67-.94v0h0l0,0a9.92,9.92,0,0,1-3.77-2.37,6.71,6.71,0,0,1,3.06-2.71l0-.21c-.39-.06-.78-.12-1.17-.16-.59-.08-1.19-.09-1.77-.22a3.84,3.84,0,0,0-2.87.67c-.22.12-.42.28-.67.45-.67-.76-1.33-.51-2,.05-1.36,1.24-2.72,2.48-4.06,3.74-.16.15-.15.46-.22.7l.61.15a14,14,0,0,1-4.56,5.06,11.13,11.13,0,0,0-1.93,1.89c-.19.22-.17.63-.24.95a5.7,5.7,0,0,0,.91.13c.27,0,.54-.43.78.07,0,0,.27,0,.42,0a3.29,3.29,0,0,0,.71-.07,1.54,1.54,0,0,0,.78-.41c.39-.53.67-1.13,1-1.68a2.12,2.12,0,0,1,2.7-1.11l.24,1.18.84-.32-.15.75-.16-.41-.21,0a3.71,3.71,0,0,1,0,.47c0,.26.06.55-.24.74-.06,0-.07.21-.06.31.07.48.18,1,.23,1.45s0,1,0,1.52l.18-.07c-.11.29-.24.61-.37.93l.14.07.56-.34c-.23.39-.7.56-.58,1.14l.7-.66.05.05-.73.92a10,10,0,0,0-3.46-.78,3.92,3.92,0,0,1-.78-.3l-1.89-.71-.07.15.22.24-.13,0c-.54,0-1.08,0-1.63,0-.1,0-.21.12-.31.18a1.19,1.19,0,0,0,.33.18,7.82,7.82,0,0,1,1.22.26l-2,.3v.2l2.84.09a20.75,20.75,0,0,0-2.83.78l0,.15,1.74-.22v.07l-1.48.9,0,.12,1.72-.53c-.34.42-.92.55-1,1.12l.1.16,1.5-.75,0,0-1,1.08.13.15a1.15,1.15,0,0,0,.57-.2l.17.16s0,.08,0,.11l-1.41.86a3.57,3.57,0,0,0,.88,1.31,3.07,3.07,0,0,1,.57.67l-1.23-.34-.09.21a3.72,3.72,0,0,0,1.78,1c.08.23.17.45.25.67l-1.62,0,0,.31,2,.34.07.11.09-.06v0l.25,0a6.38,6.38,0,0,0-1.07.29c-.19.1-.3.33-.45.5.21.1.42.29.62.28a18.7,18.7,0,0,0,1.84-.34l-1.67,1.24c.7.58,1.09,0,1.51-.18s.9-.54,1.38-.77l-2.27,1.89.2.27c1-.18,1.52-1.09,2.42-1.42l-.95.8a3.81,3.81,0,0,0-.85,1,3.1,3.1,0,0,0,1.26-.69l-.19.39c-.15.32-.29.62-.72.34-.05,0-.16.05-.24.05h-.61v-.09l-.78.18h0l2.39.61-.69.16,1.8,1c-.62.29-1.16-.15-1.84-.1l1.27,1.16c-.68.18-1-.38-1.55-.43l1,1c-.74.14-1-.48-1.57-.57l.65,1-.16.14-1-.85c0,.14.06.23.07.31s.08.57,0,.63c-.29.17-.46-.07-.59-.33l-.36-.7a1.46,1.46,0,0,0-.08.41c-.08.21-.17.55-.3.57-.31.05-.42-.23-.44-.52s-.06-.81-.1-1.22c-.09.49-.1,1-.18,1.46,0,.14-.25.25-.38.37-.11-.15-.29-.28-.32-.44a3.38,3.38,0,0,1,0-.78c0-.29,0-.59.07-.88a7.1,7.1,0,0,0-.33,1.15c-.07.21-.28.56-.39.54-.37,0-.33-.38-.3-.66s.07-.51.11-.88a5.67,5.67,0,0,1-.47.79c-.09.11-.29.12-.44.18,0-.16-.14-.34-.11-.48s0-.09,0-.13l0,.07c-.12.23-.21.45-.53.25,0,0-.12,0-.18,0a3.23,3.23,0,0,1-.44,0v-.06l-.24.05.32.25,1.11.29-.51.12.41.21a3.61,3.61,0,0,1,.42.16s0,.06.06.09l.43.23a.66.66,0,0,1-.32.08v0l-.09,0c-.25,0-.51-.11-.79-.12l0,.11.79.72c-.38.1-.61-.12-.88-.24v0l-.08,0v0a1.24,1.24,0,0,0-.16,0l.75.75c-.54.1-.74-.35-1.15-.42l.47.72-.11.1-.73-.62c0,.1.05.16.05.23s.06.41,0,.45-.34-.05-.43-.23l-.27-.52c-.06.12,0,.22-.06.3s-.12.4-.21.42c-.24,0-.31-.17-.33-.38s-.05-.6-.07-.89c-.07.35-.08.71-.14,1.06,0,.11-.18.18-.27.28-.08-.11-.21-.21-.24-.32a2.25,2.25,0,0,1,0-.58c0-.22,0-.43.05-.64a4.25,4.25,0,0,0-.25.84c-.05.15-.2.41-.28.4-.27,0-.24-.28-.22-.49s0-.37.08-.64a3.38,3.38,0,0,1-.35.57c-.07.08-.21.09-.32.14a1,1,0,0,1-.08-.36,2.3,2.3,0,0,1,.22-.48,3.61,3.61,0,0,0-.42.33.54.54,0,0,1-.3,0,.37.37,0,0,0-.05-.11l-.44.42.36.28-.08.12-.5-.21-.11.11a4,4,0,0,0,.29.31.56.56,0,0,1,.16.21,2,2,0,0,0,.25-.14.84.84,0,0,1,.89.06c.06,0,.07.16.13.31l-.62-.26L507,463h-.06l0-.64-.4.26a.52.52,0,0,1-.14.44.31.31,0,0,1-.27.07,1.14,1.14,0,0,1-.25-.18c-.19,0-.31-.18-.37-.43a.3.3,0,0,1-.39-.2h0l-.4.15-.09-.44a.74.74,0,0,0-.41.27,12.33,12.33,0,0,0-.66,1.25c-.11.23-.21.45-.53.25,0,0-.11,0-.17,0h-.45v-.07l-.58.14h0l1.75.45-.5.11,1.32.7c-.46.22-.85-.1-1.35-.07l.93.85c-.5.13-.73-.28-1.14-.31l.76.75c-.54.1-.75-.36-1.15-.42l.47.72-.12.1-.72-.63c0,.11,0,.17.05.23a1.51,1.51,0,0,1,0,.42l1.46.88,0-.08-.24-.44.07-.08a2.84,2.84,0,0,0,1.6,1.12h0c-.8-.49-.8-.49-.81-.85l2.08.89.06-.13-1.65-1.54.12-.15,2.15,1.29c-.23-.35-.61-.53-.62-1,.14.1.28.2.43.29l.07-.09a3,3,0,0,0,.28.33l.05,0,.06-.06-.54-1,.14-.09.75.82a.84.84,0,0,1,0-.21.78.78,0,0,1,.05-.14h.13c.09.5.17,1,.25,1.45a3.77,3.77,0,0,0,.76.36l1.44-.22a2.63,2.63,0,0,0-.06.39l-.07.09h.07a3.19,3.19,0,0,0,.19.67,2.28,2.28,0,0,1,.13.68l-.44-.49-.44-.49c-.31.27-.14.47,0,.68a1.84,1.84,0,0,1,.28.62l-.6-.38-.11.08.43.7c-.58.38-.55.52.3,1.12-.29.1-.78-.09-.74.38,0,.19.33.35.45.46l-.45.36.11-.12a3.31,3.31,0,0,1-1.59-.12,3.73,3.73,0,0,1-.38.28,3.61,3.61,0,0,0-1.29,1.23c.36.18.7.37.51.85,0,0,0,.06,0,.1a13.46,13.46,0,0,0,2.5-2.12l.45.47s-.05,0-.08.06-.17.25-.25.38a1.37,1.37,0,0,0,.41.22,6,6,0,0,1,.71.06,3,3,0,0,0-.65.23,1.42,1.42,0,0,0-.33.39,2.79,2.79,0,0,0,.47.14.78.78,0,0,0,.29,0,7,7,0,0,0-.6.61,1.6,1.6,0,0,0,.23.24c.05.37,0,.79.17,1a.46.46,0,0,1,0,.69.84.84,0,0,1-.35-.62,9.44,9.44,0,0,0-.33-1.29c-.39,0-.92-.09-1.45-.17a1.46,1.46,0,0,0-1,.14,1.32,1.32,0,0,1-.08.67h-.11l0-.48a1,1,0,0,0-.14.15.62.62,0,0,1-.27.2l-1.44.62-.48-.35a12.1,12.1,0,0,0,1.91-.94.38.38,0,0,0-.14-.43c-.26-.14-.51-.27-.55-.64a5.22,5.22,0,0,0-.19-.79,2,2,0,0,1,1.15-.22v-.12l-1.27-.38,0-.11,1-.42c-.59-.06-1.11-.16-1.62-.16a9.22,9.22,0,0,0,.76-.77c-.6.12-1.42-.08-1.45-.3l-.28.14-.05-.06.91-1c-.44.31-.74.81-1.31.95a1.86,1.86,0,0,1,.4-.48l.46-.38c-.43.16-.7.59-1.16.68l-.09-.13,1.08-.9c-.23.11-.43.26-.66.37s-.38.33-.69.1v0l.78-.57c-.35.07-.61.13-.87.16,0-.13-.05-.25-.08-.38a4.82,4.82,0,0,1,.5-.13l-.58-.1a2.58,2.58,0,0,0-.08-.26l.85,0a6.37,6.37,0,0,0-1-.45c-.05-.13-.11-.25-.16-.37l1.17.32,0-.1-.79-.47c-.58-.35-.58-.36-.59-.62L503,468l.05-.09-1.14-1.06c-.13,0-.22-.14-.29-.29s-.18-.34-.26-.51a1,1,0,0,0-.06.3c-.06.15-.12.4-.22.42H501c-.09-.2-.18-.39-.28-.58s0-.46-.05-.69c0,.17-.05.33-.07.5a2.61,2.61,0,0,0-.17-.28,3.6,3.6,0,0,0-.37-.41h0c-.42-.42-.92-.78-1.37-1.17l-.18.15.88,1.14a.25.25,0,0,0,0,.07l-1.27-.82-.12.15.69.62-.16.13-.49-.33-.11.14a.54.54,0,0,1-.25-.09l-.23.46.6.47-.08.12-.65-.27.06.89a7.42,7.42,0,0,0,.69-.34.66.66,0,0,1,.48-.09l.47.37h-.14l-.41-.18c0,.25-.08.43-.11.6h-.06c0-.19,0-.38,0-.64a3.83,3.83,0,0,0-.47.31c-.65.54-1,.23-1-.43,0-.05,0-.09,0-.06l-.72.28c0-.18-.08-.36-.12-.56a1,1,0,0,0-1.29.52c-.16.27-.3.56-.48.81a.88.88,0,0,1-.37.2,2,2,0,0,1-.34,0c-.07,0-.19,0-.2,0s-.1-.12-.15-.11.06-.19.11-.29a7.24,7.24,0,0,1,.89-1.17l-.75.23.13-.12a6.65,6.65,0,0,0,2.18-2.42l-.3-.06c0-.12,0-.27.11-.34l.64-.59a.93.93,0,0,1-.19-.52.67.67,0,0,0-.25.33.61.61,0,0,1-.48.48,4.29,4.29,0,0,0-.89.43,7.16,7.16,0,0,0-.78.58l-.08-.1A24.44,24.44,0,0,0,495,462s0,0,0-.05a6.88,6.88,0,0,0-.66.35,11.77,11.77,0,0,0-1.06.8l-.11-.14a29.69,29.69,0,0,0,2.16-3l.05-.09-2.56,1.56.32.06,0,.1a6.37,6.37,0,0,0-.63.11c-.1,0-.17.14-.26.21.07.07.13.17.22.21.26.15.54.27.82.41a.48.48,0,0,1-.34.05,1.23,1.23,0,0,0-1.19.38c-.44.54-.89,1.08-1.3,1.64s-.77,1.17-1.16,1.76c.66.44.67.47.05,1.05l-.08-.18-.08.43-.29-.23a.18.18,0,0,0,0-.09l0,0-.16-.13.09-.16-.21.06-.21-.16a1.65,1.65,0,0,1,.31,0,2.55,2.55,0,0,1,.51.08v-.45l-.92.35a5,5,0,0,0-.46-.34,4.53,4.53,0,0,0-1.27-.52c.18-.36.34-.72.49-1.09l-.81.49-.46.37a8.5,8.5,0,0,1-2.2-1.33c-.14-.11-.27-.24-.4-.35l-.09.07.41.57-.06.11-1.09-.55c-.12-.76-.19-1.54-.28-2.31,0-.2,0-.39-.07-.67l-.53.27c-.09-.84-.19-1.62-.28-2.4-.83.78-.51,1.79-.89,2.73l-.65-2-.22-.06a3.19,3.19,0,0,0-.26.83,6.1,6.1,0,0,0,.11,1.13,3.16,3.16,0,0,1,0,1.11l-.56-.9c-.18-.29-.35-.59-.55-.91-.58.33-.37.71-.24,1.08a3,3,0,0,1,.26,1.07l-.83-.79-.21.11.48,1.24c-1,.44-1,.67.15,1.88-.49.08-1.21-.38-1.29.39,0,.3.43.66.59.88l-1,.54.61.92s-.09,0-.15.06-.34.35-.51.54a2.35,2.35,0,0,0,.59.47c.35.12.74.14,1.12.3a5.83,5.83,0,0,0-1.11.17c-.24.09-.42.35-.63.53a4.74,4.74,0,0,0,.7.38,1.51,1.51,0,0,0,.47,0c-.35.24-.76.49-1.13.79a3.19,3.19,0,0,0,.29.46c0,.42-.12.86-.11,1.22L474,475.18c.55.11,1.14.06,1.69.18l-.47.42.89,0,0,.13-1.28.65c0-.18,0-.29,0-.55l-.6,1.35-.75,0,0-.09-.38.18,0-.06.76-.55a7.27,7.27,0,0,0-.69.32,4,4,0,0,1-.48.19c0,.21,0,.41,0,.55l1.21.05.89-.34-.71.91.72-.36c-.57.84-1.05,1.59-1.58,2.31a1,1,0,0,1-.61.24,7.26,7.26,0,0,0-1.56.38,2.75,2.75,0,0,0-.4-.26,5.43,5.43,0,0,1-1.55-1.58l-.69-.85.21,1.28-.3-.33-.21,0a3.89,3.89,0,0,1,.19.42c.07.25.26.5,0,.78,0,.06,0,.22.05.31.22.4.47.78.68,1.19-.37.23-.72.47-1.07.72s-.26.52-.41.87l-.75-.1,0,.12a3.26,3.26,0,0,0,.4.24c.21.09.42.19.37.45s-.27.39-.57.45l.36-.53-.56.14,0-.06.5-.27a5.77,5.77,0,0,1-.63-.26c-.15-.08-.37-.19-.39-.31s.14-.31.22-.48a2.09,2.09,0,0,0-1.54-.22,2.59,2.59,0,0,1-.56,0L437.9,504,413,529.3l-16.52-23.65-36-24.39-21.33-19.53-4.33-49.88-37.13,13.62L300,489.88l19.19,16.72L367,538.83l52.21,49.1,40.91-41.27,67.77-56.77,50.22-29.11Zm-43.63,15.21h0v0Zm-.67.06.39.34-.06.09-.4-.26A1.22,1.22,0,0,1,498.77,465.55Zm-5.54,5.6.08-.11,1.62,1,0-.07-.24-.44.07-.08c.87,1.2,2.09,1.34,3.47,1.24l-.77-.76.09-.12.84.42c-.19-.48-.71-.63-.72-1.15l.83.57.06-.06c-.19-.35-.37-.7-.55-1.05l.14-.09.76.82a.84.84,0,0,1,0-.21.39.39,0,0,1,.05-.14h.13c.11.66.23,1.32.33,1.91l.17,0a1.91,1.91,0,0,1,.06.33c0,.11-.1.3-.14.29-1.11-.1-2.22.42-3.33,0l-.61-.23c-.23.05-.35.12-.42.08-.32-.14-.62-.3-.93-.46h0l-.79-.47c-.59-.36-.59-.36-.6-.62l1.53.65,0-.1Zm-.52,1.47.05-.1.92.25,1.1.82a2.91,2.91,0,0,1-.72-.17h.17C493.69,473.07,493.07,473.06,492.71,472.62Zm2.52,2.76-.42.25,0,0,.19-.22Zm-1.75-1.91c.37.23.76.41,1.14.61l0,.17-.18,0,.08-.06-.18,0-.83-.19,0-.05a2.54,2.54,0,0,1,.51-.14l-1.14-.2,0-.15h.53Zm.18.83h-.05c-.1,0-.2-.09-.3-.14h0Zm.4.16a3.13,3.13,0,0,1,.32.15h-.53ZM490,481.57l-.23-.11.15,0,.25.13Zm-4.93-6c-.85.1-1.14,0-1.2-.82l.05,0-.06-.18c0-.13,0-.27,0-.4l.33.31a1.41,1.41,0,0,0-.12-.51c-.06-.17-.16-.36.11-.52l.27.44.26.43a1.35,1.35,0,0,0,0-.53,3.29,3.29,0,0,1-.05-.54,1.52,1.52,0,0,1,.12-.4l.11,0c.1.31.2.63.31.94.18-.45,0-.94.42-1.31l.14,1.15.25-.13c0,.13,0,.23,0,.32a11.88,11.88,0,0,0,.26,1.69A4.66,4.66,0,0,0,485,475.56Zm1.55,3.74.28-.14c0,.18,0,.37,0,.56a6.25,6.25,0,0,1-1,0Zm-.46,3.9c0-.11,0-.21,0-.34l.12.28Zm-.64.35-.28.16a6.34,6.34,0,0,1,.24-.64C485.45,483.23,485.45,483.39,485.47,483.55Zm-.64.35-.51.28s-.1.07-.1.1,0,.21,0,.29h-.12l-.05-.67C484.34,484,484.59,483.64,484.83,483.9Zm-.19,1a1.75,1.75,0,0,0,.38,0l.56-.05a.94.94,0,0,0-.18.25c-.14.27-.34.52-.54.83l-.66-.95Zm2.23-2.15a2.4,2.4,0,0,1-.11-.48l.22.42Zm.79-.43c0-.08-.07-.15-.1-.23l.15.2Zm6.57-7.35h0Zm.24.46-.1,0,0,0Zm1.58.1-.38.23-.1,0Zm.38.27a2,2,0,0,1,.51-.24l-.55.39.17-.17Zm-13.64-10.37-.26-.08c0-.09,0-.17-.07-.26A2.13,2.13,0,0,1,482.79,465.46Zm-6.35,18.29-.22,0a1.75,1.75,0,0,1-.38-.09c.05-.14.05-.3.14-.4l.17-.15.57.22Zm-.26-10.22a.93.93,0,0,0,0,.13c0-.05-.08-.09-.07-.09Zm-.18,1.53a.81.81,0,0,1,0-.22c0-.2.21-.48.13-.58-.25-.3,0-.38.13-.49s0,.06,0,.08C476.65,474.48,476.32,474.74,476,475.06Zm-1.27,7.58.11,0c.27.07.53.17.81.27a5.13,5.13,0,0,1-.74.21,1.11,1.11,0,0,0-.31.09,1.5,1.5,0,0,0,0-.2c0-.05-.15-.22-.14-.22ZM469.1,484l.23-.11c.25.11.46.26.41.58s-.37.53-.78.6l.49-.71-.76.18,0-.08.68-.36Zm6.42,6.82,0,0-.15.2,0-.09Zm-4.88-6.54.06,0-.11.33,0-.22Zm5.08,6.23h-.19v-.23h0c0-.1,0-.2,0-.31A.51.51,0,0,1,475.72,490.55Zm-3.37-8.09Zm-3.46,1.23.13.08-.21.16-.25-.11Zm-.25.36-.15.11.08.14,0,.1-.32.14-.05-.57.38-.15A.37.37,0,0,1,468.64,484.05Zm-.18-.54-.31.23v0l-.45-.06Zm11.92,10.21.2-1.07-.88.19v-.09l.83-.4-.58-.32c-.19-.1-.38-.2-.56-.31-.5-.31-.55-.61-.21-1.1l.44-.63c-.46-.17-.83-.34-1.22-.44a2.72,2.72,0,0,0-2.28.12,6.28,6.28,0,0,1-.57.31c0-.71,0-1.43.1-2.15s.17-1.46.28-2.18a2.41,2.41,0,0,0,.44.35c.28.18.58.32.86.48l.9.49-1.29.62,0,.13.51-.11-1.67.92s-.09.06-.09.09a4.81,4.81,0,0,1,1.32-.39.63.63,0,0,0,.4-.15l.37-.54.51-.1c-.11.56-.19,1-.31,1.64,1.11-1.29,1-1.89-.12-2.67-.39-.26-.74-.58-1.18-.92.7-.25,1.45-.37,1.67-1,.07.16.22.2.53.16l.33,0a1.19,1.19,0,0,0,.26-.3l-.16.06,0-.05.22-.16s0,0,0,0l-.34.06c.08-.18.1-.36.2-.44h0a1.36,1.36,0,0,1,0-.41l1.45-.79c-.09.29-.18.58-.26.87,0,.12.07.29.1.44l.37-.12a8.57,8.57,0,0,1-.8,4.11,6.82,6.82,0,0,0-.42,1.61c0,.18.11.38.17.57a2.69,2.69,0,0,0,.52-.21c.14-.09.15-.4.44-.21,0,0,.14-.09.21-.15a1.83,1.83,0,0,0,.36-.26,1.06,1.06,0,0,0,.28-.46c0-.4,0-.81,0-1.21a1.31,1.31,0,0,1,1.07-1.44l.5.55c.2-.25.41-.51.62-.79,0,0,0,0,.06.05.48.71,1,.85,1.38-.18.07-.2.19-.38.32-.66l.46.69.08,0-.28-.73.14,0c.93.38,1.83.83,2.74,1.25a.22.22,0,0,1,0,.1l-.7,0v.07l.61.33a9.17,9.17,0,0,0-1.4.16,5.64,5.64,0,0,0-1.27.54c-1.74.95-3.48,1.92-5.22,2.88-.05,0-.14.09-.13.13.05.76-.57.83-1.14,1,.29.23.52.43.77.6C481.05,492.49,481.1,492.88,480.38,493.72Zm14.07-15.65a.5.5,0,0,1-.2.15l-1.06.45-.35-.26a9,9,0,0,0,2.89-1.76l0,0c.25-.16.51-.3.75-.47a7.56,7.56,0,0,1,.79-.57l-.83.87.06.07.44-.31v.11l2-.32.06.12-2.7,1.65c-.26,0-.57-.06-.89-.11A.89.89,0,0,0,494.45,478.07Zm3.57,2.57h-.11c0-.22,0-.44-.07-.72l-.55.21c.22-.21.25-.6,0-.72s-.52-.27-.55-.64a4.76,4.76,0,0,0-.19-.77,3.56,3.56,0,0,0,.79-.22,3.48,3.48,0,0,1,1-.23,3.16,3.16,0,0,0-1.05,1.07c.35.18.7.37.5.85,0,0,0,.08.07.12A.94.94,0,0,1,498,480.64Zm13.24-15,.19-.12,1,1.11a1.59,1.59,0,0,1,0-.29,1.27,1.27,0,0,1,.06-.18h.18c.16.91.32,1.81.45,2.61l3.26-.49c-.32.52-.75.84-1,1.27a30.34,30.34,0,0,0-1.53,3.14,2.56,2.56,0,0,1-.11.24,4.38,4.38,0,0,0-.58-1,8.51,8.51,0,0,1-1.19-2.85c0-.12-.07-.24-.12-.41l-.28.23-.09-.29h0l0,0-.27-.85.53.27c-.26-.66-1-.86-1-1.57l1.14.77.07-.08Zm-.63,1.73.46.23a.93.93,0,0,0-.12.39l-.46-.46Zm-.29.71.12,0-.07.11Zm.63.52a2.36,2.36,0,0,1,0,.59l-.32-.59Zm10.53-20.07c-.09.39-.16.78-.24,1.18l-.76-.57-.55-.45-.34-.28Zm-5-1.94-.83.69-.13-.08A3,3,0,0,1,516.54,446.62Zm.65,5.47a.17.17,0,0,0,0-.07l.14.07Zm7.54-1.54c.11-.25.22-.5.32-.75.23.22.47.45.72.71C525.42,450.53,525.07,450.55,524.73,450.55Zm.6-1.4c0-.1.09-.21.14-.32a.75.75,0,0,0,.07-.12,2.68,2.68,0,0,1,.58.84Zm1-.83-.45-.3c.08-.15.15-.3.24-.45l.32.64Zm6.43,1.36a3.89,3.89,0,0,0,.16.41l-1.5.23A1.26,1.26,0,0,1,532.77,449.68Z"/><path class="cls-3" d="M465.23,482.17l1.21-.46v0l-.57,0Z"/><path class="cls-3" d="M472.67,476.6v0l.21-.08Z"/><path class="cls-3" d="M472.65,477v.14l.91-.44A4.62,4.62,0,0,0,472.65,477Z"/></g><path class="cls-4" d="M420.1,529.81c0-2.53,0-5,0-7.49l-3.1,2.86c-.18,2.13.12,3.21,0,4.29-1.09,9.49,4.3,47.4,5.76,47.15C422.29,574,420.17,545.23,420.1,529.81Z"/><path class="cls-5" d="M509.59,688.06,538.7,670.2c15.25-21,25.08-47.8,39.24-67.94,4.45-6.33-45,50.82-45,50.82l-45.72,31.65,27.39,33.63a110.57,110.57,0,0,1,5.46-19.49Z"/><g class="cls-2"><path class="cls-5" d="M320,676.46a99.71,99.71,0,0,0,1.85,16.63c.92,4.69,1.81,9.37,2.5,14l14.41-17.69Z"/></g></g></g></svg>