<svg xmlns="http://www.w3.org/2000/svg" xmlns:xlink="http://www.w3.org/1999/xlink" viewBox="0 0 837.33 1537"><defs><style>.cls-1{fill:none;}.cls-2{fill:#1d1f2d;}.cls-3,.cls-4,.cls-5,.cls-6,.cls-7{fill-rule:evenodd;}.cls-3{fill:url(#linear-gradient);}.cls-4{fill:#3d3d3d;}.cls-5{fill:url(#linear-gradient-2);}.cls-6{fill:url(#linear-gradient-3);}.cls-7{fill:#fff;}</style><linearGradient id="linear-gradient" x1="441.43" y1="207.59" x2="441.43" y2="117.93" gradientUnits="userSpaceOnUse"><stop offset="0.01" stop-color="#231f20"/><stop offset="1" stop-color="#1a191a"/></linearGradient><linearGradient id="linear-gradient-2" x1="401.92" y1="213.52" x2="401.92" y2="166.33" xlink:href="#linear-gradient"/><linearGradient id="linear-gradient-3" x1="307.62" y1="200.97" x2="496.22" y2="200.97" gradientUnits="userSpaceOnUse"><stop offset="0"/><stop offset="1" stop-color="#000026"/></linearGradient></defs><g id="Layer_2" data-name="Layer 2"><g id="base"><rect class="cls-1" width="837.33" height="1537"/></g><g id="hat"><path class="cls-2" d="M520.24,201.07a51.54,51.54,0,0,1-11,.73,52.44,52.44,0,0,1-21,4.59,50.17,50.17,0,0,1-6.65-.46,68.37,68.37,0,0,1,6.09,13.45l-3.23-1.67a109.23,109.23,0,0,1,1.67,24.3c-.69,12.69-1.67,28.21-1.67,28.21h4.46s9.65-19.35,22.39-24.68c0,0,6.81-17.59,8.67-24.94V214s4.9,5.53,5.68,10.63c0,0,1.57-8.87-5.68-19.21Z"/><path class="cls-3" d="M522.14,207.52a196.94,196.94,0,0,1-33.86-2.1s-18.8-22-63.76-29.75c-28.41-4.88-50.09.92-59.18,4.16-3,1.08-4.63,1.85-4.63,1.85s.16-1.08.36-2.93c.16-1.39.42-3.24.67-5.29v-.05c.93-7.09,2.31-17,3.55-21.89a2,2,0,0,0,.1-.31.15.15,0,0,0,.05-.1c.05-.05.16-.1.21-.15a1.21,1.21,0,0,1,.36-.26c4.62-3.13,30.24-31,65.69-32.68h1a61.81,61.81,0,0,1,7.45,0,8.56,8.56,0,0,0,1.08.05l1.95.16c2.62.2,4.11.46,4.11.46,34.47,5.14,62.9,36.53,70.3,50a29.16,29.16,0,0,1,3.24,7.3C522.14,182.5,522.14,207.52,522.14,207.52Z"/><path class="cls-4" d="M490.75,200.89c-64.12-55.84-129-27.43-129-27.43v-.05c-.61-10.59,3.19-21,3.65-22.2a.15.15,0,0,0,.05-.1c.05-.05.16-.1.21-.15,26.22-25,48.53-32.43,66.05-32.94h1c2.82,0,5.34,0,7.45,0a8.56,8.56,0,0,0,1.08.05l1.95.16c2.62.2,4.11.46,4.11.46,15.36,9.45,32.38,26.87,37.57,38.38A79.2,79.2,0,0,1,490.75,200.89Z"/><path class="cls-5" d="M363,172.87s-35.64,16.48-55.34,28c0,0,0,3.56,7.28,6.7,0,0,30.4-12.84,51.81-13,30.82-.17,60.79,17.51,67.64,18.73s61.87-7,61.87-7S445.49,147,363,172.87Z"/><path class="cls-6" d="M496.22,206.42l-5.46-5.52-49.34,5.52S413.38,186,370,186s-62.41,14.88-62.41,14.88a8.88,8.88,0,0,0,7.28,6.7s15.31-9.63,51.92-10.79,68.39,19.08,68.39,19.08Z"/><path class="cls-7" d="M418.79,128.73c-6.09,2.93-9.34,4.44-15.18,6.84-.79,6.14-1.14,8.76-1.69,14.6a131.62,131.62,0,0,0,11.69,10.59c6.32-2.44,9.92-3.75,16.22-6.36.85-6.53,1.33-9.67,2.19-16.16C426.66,134.42,423.94,132.61,418.79,128.73Zm7.77,23.34c-4.9,2-7.52,2.93-12.34,4.73-4-3.15-5.86-4.71-9.3-7.73.62-4.51,1-6.65,1.67-11.29,4.5-1.84,6.93-2.9,11.62-5.06,4,2.86,6,4.25,10.09,7.12C427.62,144.75,427.25,147.15,426.56,152.07Zm-9-15c-3.06,1.32-4.6,2-7.56,3.16-.51,3-.76,4.45-1.25,7.4,2.39,1.89,3.63,2.85,6.21,4.8,3.11-1.16,4.73-1.77,7.9-3,.48-3.12.73-4.67,1.2-7.8C421.39,139.82,420.08,138.92,417.53,137.11Z"/></g></g></svg>