<?xml version="1.0" encoding="utf-8"?>
<!-- Generator: Adobe Illustrator 26.0.0, SVG Export Plug-In . SVG Version: 6.00 Build 0)  -->
<svg version="1.1" id="Layer_1" xmlns="http://www.w3.org/2000/svg" xmlns:xlink="http://www.w3.org/1999/xlink" x="0px" y="0px"
	 viewBox="0 0 838 1536.1" style="enable-background:new 0 0 838 1536.1;" xml:space="preserve">
<style type="text/css">
	.st0{fill:none;}
	.st1{fill-rule:evenodd;clip-rule:evenodd;fill:#3A3A3A;}
	.st2{fill:#1C1C1C;}
	.st3{opacity:0.25;fill-rule:evenodd;clip-rule:evenodd;fill:#1C1C1C;enable-background:new    ;}
	.st4{fill-rule:evenodd;clip-rule:evenodd;fill:#1C1C1C;}
	.st5{fill-rule:evenodd;clip-rule:evenodd;fill:url(#SVGID_1_);}
	.st6{fill-rule:evenodd;clip-rule:evenodd;fill:url(#SVGID_00000175311002732958365980000015694047313204901548_);}
	.st7{fill-rule:evenodd;clip-rule:evenodd;fill:url(#SVGID_00000106113059772782663690000015981315735451523493_);}
	.st8{fill-rule:evenodd;clip-rule:evenodd;fill:url(#SVGID_00000164509383021978083100000017245558821004793768_);}
	.st9{fill-rule:evenodd;clip-rule:evenodd;fill:url(#SVGID_00000181782266205390191580000016927757381050661556_);}
	.st10{fill-rule:evenodd;clip-rule:evenodd;fill:url(#SVGID_00000028303959252681079040000008976141725861202350_);}
	.st11{fill-rule:evenodd;clip-rule:evenodd;fill:#849191;}
	.st12{opacity:0.61;fill-rule:evenodd;clip-rule:evenodd;fill:#C6C2C2;enable-background:new    ;}
	.st13{fill-rule:evenodd;clip-rule:evenodd;fill:#94A0A1;}
	
		.st14{opacity:0.71;fill-rule:evenodd;clip-rule:evenodd;fill:url(#SVGID_00000143607826132074004920000002247233466968564629_);enable-background:new    ;}
	.st15{fill-rule:evenodd;clip-rule:evenodd;fill:url(#SVGID_00000006695886108822732670000000989314386114162318_);}
	.st16{fill-rule:evenodd;clip-rule:evenodd;fill:url(#SVGID_00000106110448032296684680000014863406373885073324_);}
</style>
<g id="Layer_2_00000085231146985066519760000000551844946720623776_">
	<g id="base">
		<rect x="0.3" class="st0" width="837.3" height="1536.1"/>
	</g>
	<g id="chest_08">
		<path class="st1" d="M655.7,474.9c-6.1,19-44.7,75.9-80.8,127.4c-15.9,22.6-26.3,53.6-45.1,75.4c-24.2,28.1-19.4,67.3-19.4,67.3
			s-20,22.7-79.5,26.3s-98.5-17.1-98.5-17.1c-3.2-9.4-12.3-52.8-12.3-52.8l-3.9-31.5l-4.1-6.5l-7.6-74.5l-13.2-5.5
			c-6.7-28.8-14.4-74.9-14.4-74.9c-28.3-34.1-18.6-56.8-18.6-56.8c19-22.7,42.2-28.8,73.5-39.8c19.9-7,38.9-18.2,49.9-25.3l2.3-1.5
			c3.4-2.2,11.2-3.4,11.2-3.4s-7.2,9.3-5.4,18.3s14.1,33.9,56.2,23s57.8-57.3,57.8-57.3s8.8,5.1,13,8.7
			c13.1,11.4,38.4,28.8,69.1,43.7C626.3,437.5,655.7,474.9,655.7,474.9z"/>
		<path class="st2" d="M463.2,643l22.7-17.4l2.8-2.2l1.4-1.1l0.7-0.5l0.4-0.3l0.4-0.3c6.4-4.1,13.7-6.4,21.2-6.8
			c5.2-0.2,10.3,0.8,15,2.9c4.7,2.1,9,5,12.6,8.7c3.6,3.6,6.7,7.5,9.3,11.8c2.7,4.2,2.2,5,2.2,5l-4.1,7.6c-1.1-3.1-2.6-6.1-4.3-9
			c-2.1-4-4.7-7.6-7.7-11c-2.9-3.3-6.4-6.1-10.3-8.1c-3.9-2-8.3-3.1-12.7-3.2c-4.5-0.1-9,0.7-13.3,2.2c-2.1,0.7-4.2,1.7-6.2,2.8
			l-6,3.8L463.2,643z"/>
		<path class="st2" d="M535.8,670c-2-2-4.3-3.6-7-4.6c-4.7-2.1-9.8-3-15-2.9c-7.6,0.3-14.9,2.7-21.2,6.8l-0.4,0.3l-1.1,0.8l-1.4,1.1
			l-2.8,2.2l-22.7,17.4l24.2-15.2l6-3.8c2-1.1,4.1-2.1,6.2-2.8c4.2-1.5,8.7-2.3,13.3-2.2c4.4,0.1,8.7,1.2,12.7,3.2
			c2.1,1,4.1,2.4,5.8,4.1L535.8,670z"/>
		<path class="st2" d="M516.8,699.4c-1-0.2-2-0.2-3-0.2c-5,0.2-10,1.3-14.6,3.3c-2.3,1-4.5,2.1-6.6,3.5l-0.4,0.3l-0.4,0.3l-0.7,0.5
			l-1.4,1.1l-2.8,2.2l-22.7,17.4l24.2-15.2l6-3.8c2-1.1,4.1-2.1,6.2-2.8c4.2-1.6,8.7-2.4,13.3-2.2l1.3,0.1L516.8,699.4z"/>
		<path class="st2" d="M340.1,625.6l-2.8-2.2l-1.4-1.1l-1.1-0.8l-0.4-0.3c-2.1-1.4-4.3-2.5-6.6-3.5c-4.6-1.9-17.7-3.3-17.7-3.3
			l0.6,5.7c0,0,11.4-0.3,15.6,1.2c2.1,0.7,4.2,1.7,6.2,2.8l6,3.8l24.2,15.2L340.1,625.6z"/>
		<path class="st2" d="M339.1,673.7l-2.8-2.2l-1.4-1.1l-0.7-0.5l-0.4-0.3l-0.4-0.3c-6.4-4.1-13.7-6.4-21.2-6.8c-0.4,0-0.6,0-1,0
			c0.1,0.2,1,4.6,1,4.6c4.5-0.1,9,0.7,13.3,2.2c2.1,0.7,4.2,1.7,6.2,2.8l6,3.8l24.2,15.2L339.1,673.7z"/>
		<path class="st2" d="M339.1,710.4l-2.8-2.2l-1.4-1.1l-0.7-0.5l-0.4-0.3l-0.4-0.3c-2.1-1.4-4.3-2.5-6.6-3.5c-2.5-1.1-5-1.9-7.7-2.5
			c0.5,1.5,0.8,3.1,1,4.6c1.8,0.2,3.6,0.7,5.3,1.4c2.1,0.7,4.2,1.7,6.2,2.8l6,3.8l24.2,15.2L339.1,710.4z"/>
		<polygon class="st3" points="390.8,751.3 396.3,758.1 427,757.5 435.5,749 		"/>
		<polygon class="st4" points="377.1,737.9 387.3,721 433.5,720.3 388.9,724.1 		"/>
		
			<linearGradient id="SVGID_1_" gradientUnits="userSpaceOnUse" x1="447.1214" y1="-198.4158" x2="446.7014" y2="-172.0358" gradientTransform="matrix(1 -4.000000e-02 4.000000e-02 1 -26.15 942.78)">
			<stop  offset="0" style="stop-color:#8FA0A1"/>
			<stop  offset="1" style="stop-color:#94A0A1"/>
		</linearGradient>
		<polygon class="st5" points="396.6,757.1 377.1,737.9 388,722.2 433.5,720.3 449.5,737.1 427.1,756.4 		"/>
		<polygon class="st3" points="384.6,720.6 391.6,729.3 430.7,728.5 441.6,717.7 		"/>
		<polygon class="st4" points="367.2,703.6 380.1,682 439,681.2 382.1,685.9 		"/>
		
			<linearGradient id="SVGID_00000139253001443257002870000006429098390905069728_" gradientUnits="userSpaceOnUse" x1="448.4994" y1="-236.0264" x2="447.9594" y2="-202.4264" gradientTransform="matrix(1 -4.000000e-02 4.000000e-02 1 -26.15 942.78)">
			<stop  offset="0" style="stop-color:#8FA0A1"/>
			<stop  offset="1" style="stop-color:#94A0A1"/>
		</linearGradient>
		
			<polygon style="fill-rule:evenodd;clip-rule:evenodd;fill:url(#SVGID_00000139253001443257002870000006429098390905069728_);" points="
			392,728.1 367.2,703.6 381,683.5 439,681.2 459.3,702.6 430.9,727.1 		"/>
		<polygon class="st3" points="376.6,687 385.6,698.2 436,697.1 450.1,683.2 		"/>
		<polygon class="st4" points="354.1,665 370.8,637.2 446.6,636.1 373.4,642.2 		"/>
		
			<linearGradient id="SVGID_00000154421087412984806440000000958907158534172069_" gradientUnits="userSpaceOnUse" x1="450.3633" y1="-279.0266" x2="449.6733" y2="-235.7066" gradientTransform="matrix(1 -4.000000e-02 4.000000e-02 1 -26.15 942.78)">
			<stop  offset="0" style="stop-color:#8FA0A1"/>
			<stop  offset="1" style="stop-color:#94A0A1"/>
		</linearGradient>
		
			<polygon style="fill-rule:evenodd;clip-rule:evenodd;fill:url(#SVGID_00000154421087412984806440000000958907158534172069_);" points="
			386.1,696.5 354.1,665 372,639.1 446.6,636.1 472.9,663.7 436.3,695.3 		"/>
		<polygon class="st3" points="365.3,636.4 375.9,650.8 438.5,651.9 456.6,635.4 		"/>
		<polygon class="st4" points="338.5,608 360.6,574.4 454.7,576.8 363.5,580.8 		"/>
		
			<linearGradient id="SVGID_00000039844388906705949260000013524325457180853138_" gradientUnits="userSpaceOnUse" x1="412.5832" y1="-337.5297" x2="411.7132" y2="-283.7697" gradientTransform="matrix(1 0 0 1 0 924)">
			<stop  offset="0" style="stop-color:#8FA0A1"/>
			<stop  offset="1" style="stop-color:#94A0A1"/>
		</linearGradient>
		
			<polygon style="fill-rule:evenodd;clip-rule:evenodd;fill:url(#SVGID_00000039844388906705949260000013524325457180853138_);" points="
			376.6,648.8 338.5,608 361.9,576.8 454.7,576.8 485.9,612.3 438.9,649.8 		"/>
		<path class="st4" d="M305,640.8l7.1-3.2c0,0-3.6-37.4-3.8-54c-0.1-12,6-26.2,20.5-23.6s24.2,6,45,26.4c0,0-19.1-28.8-49.7-30.7
			s-22.7,64.8-22.7,64.8L305,640.8z"/>
		<path class="st4" d="M558.7,637.3l-8.2-0.6c0,0,10.4-78.7-5.4-89.6s-31.7-10.7-52.9-1.3c0,0,44.9-27.9,57.2-10.7
			s16.8,72,16.3,81.9S558.7,637.3,558.7,637.3z"/>
		
			<linearGradient id="SVGID_00000132772454557511639650000007419358056237281679_" gradientUnits="userSpaceOnUse" x1="487.8009" y1="-516.055" x2="395.8609" y2="-329.9349" gradientTransform="matrix(1 0 0 1 0 924)">
			<stop  offset="0" style="stop-color:#8FA0A1"/>
			<stop  offset="1" style="stop-color:#94A0A1"/>
		</linearGradient>
		<path style="fill-rule:evenodd;clip-rule:evenodd;fill:url(#SVGID_00000132772454557511639650000007419358056237281679_);" d="
			M658.8,474.9c-6.1,19-44.7,75.9-80.8,127.4c-8,11.3-13.6,22.7-19.2,35c24.2-172.9-83.5-85.8-157.8-23.9
			c-33.3-36.1-112.1-117.2-96.3,25.9l-10.2-56c-6.7-28.8-1.8-82.6-1.8-82.6c-7.4-31.8-31.2-49-31.2-49c19-22.7,37.5-33.6,68.8-44.6
			c19.9-7,43.6-13.4,54.6-20.5l2.4-1.6c3.4-2.2,11.2-3.4,11.2-3.4s-7.2,9.3-5.4,18.3s14.1,33.9,56.2,23s57.8-57.3,57.8-57.3
			s8.8,5.1,13,8.7c13.1,11.4,43.8,20.9,74.5,35.8C634.8,429.7,658.8,474.9,658.8,474.9z"/>
		
			<linearGradient id="SVGID_00000104688857619431944070000005899907827455553435_" gradientUnits="userSpaceOnUse" x1="350.1584" y1="-492.9229" x2="572.1885" y2="-483.5728" gradientTransform="matrix(1 0 0 1 0 924)">
			<stop  offset="0" style="stop-color:#8FA0A1"/>
			<stop  offset="1" style="stop-color:#94A0A1"/>
		</linearGradient>
		
			<polygon style="fill-rule:evenodd;clip-rule:evenodd;fill:url(#SVGID_00000104688857619431944070000005899907827455553435_);" points="
			316.1,377.4 386.8,523.1 603,360.7 502.2,347 365.1,356.5 		"/>
		<polygon class="st11" points="371.3,583.4 317.4,421.9 394.7,608.2 		"/>
		<path class="st11" d="M575,370.9l-33.8-3.2c-17.4,16.5-35.8,31.9-55,46.2c-30.8,22.6-88.3,36.2-88.3,36.2s-29.1-18.7-35.4-31.6
			c-9-18.6-14.2-42.2-14.2-42.2l16.7-9.5L328.6,380l59.7,108.1L575,370.9z"/>
		<polygon class="st12" points="388.6,488.1 397.6,453 397.1,482.5 		"/>
		<polygon class="st13" points="403.2,627.4 319.2,428.3 316.1,377.4 385,507 603,360.7 601,418.7 		"/>
		
			<linearGradient id="SVGID_00000106130726247514578740000008039952792675735993_" gradientUnits="userSpaceOnUse" x1="477.8341" y1="-551.314" x2="338.3941" y2="-496.694" gradientTransform="matrix(1 0 0 1 0 924)">
			<stop  offset="0" style="stop-color:#3A3A3A"/>
			<stop  offset="1" style="stop-color:#A1A1A1"/>
		</linearGradient>
		
			<path style="opacity:0.71;fill-rule:evenodd;clip-rule:evenodd;fill:url(#SVGID_00000106130726247514578740000008039952792675735993_);enable-background:new    ;" d="
			M348.2,376.1l16.7-9.5l93.3-5.1l47.7-0.4l35.9,5.8c-12,13.1-28.5,27.7-49,42.5c-35.3,25.4-70.6,35.5-94.4,40.7
			c-8.3-5-26.7-18-34.2-30.2C356.2,407,349.4,384.5,348.2,376.1z"/>
		<polyline class="st11" points="385,507 603,360.7 601,418.7 403.2,627.4 		"/>
		<path class="st1" d="M499.4,296.4c0,0,1.1,56,12,83.9c0,0-39.2,53-84.4,50.2s-35.1-39.1-35.1-39.1s12.5-17.4,14.7-44.9
			S499.4,296.4,499.4,296.4z"/>
		<path class="st4" d="M521.7,616.7c0,0-2.5-1.2-4-2c-16,13.4-34.8,30.8-34.8,30.8l13.4,22.1l-13.4,20.7l8.7,13.4l-6,17.4l4,2
			l11.4-20.2L521.7,616.7z"/>
		
			<linearGradient id="SVGID_00000005976905974603041560000014345204208693085111_" gradientUnits="userSpaceOnUse" x1="486.8" y1="-252.45" x2="550.4" y2="-252.45" gradientTransform="matrix(1 0 0 1 0 924)">
			<stop  offset="0" style="stop-color:#8FA0A1"/>
			<stop  offset="1" style="stop-color:#94A0A1"/>
		</linearGradient>
		<path style="fill-rule:evenodd;clip-rule:evenodd;fill:url(#SVGID_00000005976905974603041560000014345204208693085111_);" d="
			M550.4,658.2c0,0-19.4-16-28.8-41.5c-16,13.4-34.8,30.8-34.8,30.8l13.4,22.1l-13.4,20.7l8.7,13.4l-6,17.4l28.8,5.3L550.4,658.2z"
			/>
		<path class="st4" d="M323.3,616.7l1.8-2c7.3,13.4,15.9,30.8,15.9,30.8l-6.1,22.1l6.1,20.7l-4,13.4l2.8,17.4l-1.8,2l-5.2-20.2
			L323.3,616.7z"/>
		
			<linearGradient id="SVGID_00000161599563746779218300000012271531230311575740_" gradientUnits="userSpaceOnUse" x1="501.92" y1="-252.45" x2="530.98" y2="-252.45" gradientTransform="matrix(-1 0 0 1 841.14 924)">
			<stop  offset="0" style="stop-color:#8FA0A1"/>
			<stop  offset="1" style="stop-color:#94A0A1"/>
		</linearGradient>
		<path style="fill-rule:evenodd;clip-rule:evenodd;fill:url(#SVGID_00000161599563746779218300000012271531230311575740_);" d="
			M310.2,658.2c0,0,8.9-16,13.2-41.5c7.3,13.4,15.9,30.8,15.9,30.8l-6.1,22.1l6.1,20.7l-4,13.4l2.8,17.4l-13.1,5.3L310.2,658.2z"/>
	</g>
</g>
</svg>
