<?xml version="1.0" encoding="utf-8"?>
<!-- Generator: Adobe Illustrator 26.0.0, SVG Export Plug-In . SVG Version: 6.00 Build 0)  -->
<svg version="1.1" id="Layer_1" xmlns="http://www.w3.org/2000/svg" xmlns:xlink="http://www.w3.org/1999/xlink" x="0px" y="0px"
	 viewBox="0 0 837.3 1537" style="enable-background:new 0 0 837.3 1537;" xml:space="preserve">
<style type="text/css">
	.st0{fill:none;}
	.st1{fill-rule:evenodd;clip-rule:evenodd;fill:#2E4359;}
	.st2{fill:#292F3A;}
	.st3{opacity:0.33;}
	.st4{fill-rule:evenodd;clip-rule:evenodd;}
	.st5{fill-rule:evenodd;clip-rule:evenodd;fill:#292F3A;}
	.st6{opacity:0.41;fill-rule:evenodd;clip-rule:evenodd;fill:#050505;enable-background:new    ;}
	.st7{fill:#686868;}
	.st8{fill:#74CBE2;}
</style>
<g>
	<g id="Layer_2_00000018235888741549835140000004325903709609584818_">
		<g id="base">
			<rect class="st0" width="837.3" height="1537"/>
		</g>
		<g id="Layer_27">
			<path class="st1" d="M499.4,296.4c0,0,1.1,56,12,83.9c0,0-39.2,53-84.4,50.2s-35.1-39.1-35.1-39.1s12.5-17.4,14.7-44.9
				S499.4,296.4,499.4,296.4z"/>
			<path class="st1" d="M658.8,474.9c6.2,9.7,18.4,32.5,4.3,54.4c-11.6,18-57.4,33.2-71.7,53.8c-4.5,6.4-9,12.8-13.4,19.2
				c-15.9,22.6-26.3,53.6-45.1,75.4c-24.2,28.1-19.4,67.3-19.4,67.3s1.2,80.2-93.8,83.7c-86.6,3.2-84.2-74.5-84.2-74.5
				c-3.2-9.4-12.3-52.8-12.3-52.8l-3.9-31.5l-4.1-6.5l-7.6-74.5l-13.2-5.5c-6.7-28.8-17.5-74.9-17.5-74.9
				c-29.3-39.5-15.6-56.8-15.6-56.8c19-22.7,42.2-28.8,73.5-39.8c19.9-7.1,38.9-18.2,49.9-25.3l2.4-1.6c3.4-2.2,11.2-3.4,11.2-3.4
				s-7.2,9.3-5.4,18.3s14.1,33.9,56.2,23s57.8-57.3,57.8-57.3s8.8,5.1,13,8.7c13.1,11.5,38.3,28.9,69.1,43.8
				C629.4,437.6,658.8,474.9,658.8,474.9z"/>
			<path class="st0" d="M514.1,721.8c0.6-4.1,1.4-8.3,2.5-12.3l-2.5-0.8V721.8z"/>
			<path class="st0" d="M512.9,752.2c0.3-2.4,0.5-4.8,0.5-7.2c-0.3-2.6-0.4-5.1-0.4-7.7h-0.1V752.2z"/>
			<polygon class="st0" points="312,632.2 312.2,634 335.6,620.7 			"/>
			<path class="st0" d="M556.5,640.3l3.2-6.1l-3.8,5.9L556.5,640.3z"/>
			<path class="st2" d="M400.4,702.4l-69.8,32.8c1.9,8.3,3.8,15.7,4.9,19c0,3.7,0.3,7.4,0.8,11h78.9l94.9,1.4
				c1.3-4.7,2.3-9.5,2.9-14.3v-15L400.4,702.4z"/>
			<g class="st3">
				<path class="st4" d="M399.8,677.5l-73.4,33.8c1.4,6.7,3.9,17.9,6.2,27.9l69.8-32.8l112.6,34.8h0.1c0-5.2,0.3-10.3,1-15.5v-13
					L399.8,677.5z"/>
			</g>
			<path class="st5" d="M397.8,673.5l-73.4,33.8c1.4,6.7,3.9,17.9,6.2,27.9l69.8-32.8l112.6,34.8h0.1c0-5.2,0.3-10.3,1-15.5v-13
				L397.8,673.5z"/>
			<g class="st3">
				<path class="st4" d="M322.3,682.5l2.8,22.8l1.3,6l73.4-33.8l116.3,35.2l2.5,0.8c2.5-9.7,6.7-18.8,12.5-27l-130.7-42.2
					L322.3,682.5z"/>
			</g>
			<path class="st5" d="M320.3,678.5l2.8,22.8l1.3,6l73.4-33.8l116.3,35.2l2.5,0.8c2.5-9.7,6.7-18.8,12.5-27l-130.7-42.2
				L320.3,678.5z"/>
			<g class="st3">
				<path class="st4" d="M556.1,646.8l-159-51.3l-59.5,29.1L314.2,638l3,29.3l4.1,6.5l1.1,8.7l78-38.2l130.7,42.2
					c1.2-1.6,2.4-3.2,3.8-4.8c9.4-10.9,16.7-24.1,23.6-37.4l-0.6-0.2L556.1,646.8z"/>
			</g>
			<path class="st5" d="M554.1,642.8l-159-51.3l-59.5,29.1L312.2,634l3,29.3l4.1,6.5l1.1,8.7l78-38.2l130.7,42.2
				c1.2-1.6,2.4-3.2,3.8-4.8c9.4-10.9,16.7-24.1,23.6-37.4l-0.6-0.2L554.1,642.8z"/>
			<g class="st3">
				<path class="st4" d="M300.9,589.2l8.7,3.7l4.4,43.4l23.6-11.6l59.5-29.1l159,51.3l1.8-2.7l3.8-5.9c5.8-11.2,11.6-22.3,18.3-31.9
					l3.9-5.5l-194.9-61.9L300.9,589.2z"/>
			</g>
			<path class="st5" d="M298.9,585.2l8.7,3.7l4.4,43.4l23.6-11.6l59.5-29.1l159,51.3l1.8-2.7l3.8-5.9c5.8-11.2,11.6-22.3,18.3-31.9
				l3.9-5.5l-194.9-61.9L298.9,585.2z"/>
			<path class="st6" d="M309.2,594.5v10.1c0,0,13.9,3.2,33.5-4.8s43.9-27.9,57.3-28.3c34.4-1.2,107.9,37.3,123,33.1
				c26.2-7.2,30.3-27.7,25.2-40.4s-134.7-7.7-137.4-7.7s-84.8,21-84.8,21L309.2,594.5z"/>
			<path class="st5" d="M301.2,597.2c72,2,54.5-27.1,92.2-29.8c41-3,47.3,5.8,105.8,22.2c92.1,25.7,14.3-61.4,72.2-120.4
				c16.2-16.5,35.5-29.8,44.3-34.8c-9.1-8.8-41.6-27.3-58-33.3c-84.9,7.9-137-25.5-152.5-24.3c-34.7,2.7-41.3,26-69.7,46.5
				c-3.5,2.6-4.6-6.3-11.8-8c-8.6-2-38.7,15.5-41.4,18.2c-3.6,3.6,1.8,22.8,1.9,28.9C284.9,493.2,272.7,550.4,301.2,597.2z"/>
			<path class="st7" d="M397.6,387.1c-3.6,10.7-7.4,21.6-9.1,32.6c-1.7,11-2.5,22.2-2.2,33.4c0.1,5.6,0.4,11.1,1.1,16.6
				s1.4,11,2.5,16.4c2.2,10.8,3.4,16.5,7.4,26.8l-1.6,31.6c-3.3-11.1-11.7-45.8-13.1-57.2c-0.7-5.7-1.1-11.4-1.3-17.1
				s-0.1-11.4,0.2-17.1c0.6-11.4,2.2-22.7,4.8-33.7C388.6,408.2,393.2,397.5,397.6,387.1z"/>
			<path class="st7" d="M396.3,597.5c-0.4,2.8-0.7,5.7-0.9,8.5c-0.1,2.9-0.2,5.9,0,8.9c0.1,1.5,0.1,3,0.3,4.5s0.3,3,0.5,4.5
				c0.3,2.5,0.7,5,1.2,7.4v8.4c-0.5-3.1-2-12.7-2.3-15.8c-0.1-1.5-0.2-3.1-0.3-4.6s-0.1-3.1-0.1-4.6c0-3,0.1-6,0.4-8.9
				C395.3,603,395.7,600.2,396.3,597.5z"/>
			<path class="st7" d="M399.7,645.8c-4,9.3-1.5,19.9-1.6,25.7C396.6,663.3,395.7,654.8,399.7,645.8z"/>
			<path class="st7" d="M398.7,679.2c-1.8,10,3.1,19.8,4.4,25.4C399.7,697,396.9,688.9,398.7,679.2z"/>
			<path class="st8" d="M583.4,413.2c-0.7,0.2-5.4,0.9-6.2,1.1s-1.7,0.5-2.5,0.8c-1.7,0.5-3.3,1.1-5,1.7c-3.3,1.2-6.6,2.6-9.8,4.1
				c-6.4,3-12.6,6.6-18.4,10.7c-11.6,8.2-21.5,18.9-27.9,31.6c-1.6,3.2-3,6.5-4.2,9.8c-1.2,3.3-2.2,6.9-3.4,10.4
				c-2.3,7-4.9,13.8-7.9,20.5c-1.5,3.4-3.1,6.6-4.9,9.9c-1.7,3.2-3.7,6.4-5.9,9.3c-2.1,3-4.7,5.7-7.5,8.1c-1.4,1.2-3,2.1-4.7,2.9
				c-0.8,0.4-1.7,0.7-2.6,0.8c-0.9,0.2-1.8,0.2-2.7,0c0.9,0.1,1.8,0.1,2.7-0.1c0.9-0.2,1.7-0.5,2.5-0.9c1.6-0.8,3.1-1.8,4.5-3
				c2.7-2.4,5-5.2,7-8.3c2-3,3.8-6.2,5.4-9.5c1.6-3.2,3-6.6,4.4-10c2.7-6.8,4.9-13.7,6.9-20.6c1-3.5,1.9-7,2.9-10.6
				c1.1-3.6,2.4-7,3.9-10.4c6.2-13.7,16.1-25.5,27.9-34.7c5.9-4.6,12.2-8.7,18.9-12.2c3.3-1.7,6.7-3.4,10.2-4.8
				c1.7-0.7,4.4-2,5.5-2.3L583.4,413.2z"/>
			<path class="st8" d="M336.5,544.6c-0.8-0.5-1.5-1-2.1-1.7c-1.3-1.3-2.4-2.7-3.3-4.3c-1.8-3.2-3.1-6.5-4-10
				c-0.9-3.5-1.7-7.1-2.1-10.7c-0.5-3.6-0.8-7.2-1-10.8c-0.4-7.2-0.4-14.5-0.1-21.8c0.1-3.6,0.4-7.2,0.5-11c0.1-3.7,0-7.5-0.4-11.2
				c-1.6-14.9-7.3-29.2-15.6-41.7c-0.4-0.7-0.9-1.3-1.4-2c-1.8,1.1-3.7,2-5.6,2.8c0.7,0.9,1.4,1.7,2,2.6
				c8.4,11.4,14.5,24.7,16.6,38.8c0.5,3.5,0.8,7.1,0.9,10.6c0.1,3.5-0.1,7.3,0,10.9c0,7.3,0.3,14.7,1.1,22c0.4,3.6,0.9,7.3,1.5,10.9
				c0.6,3.6,1.5,7.2,2.6,10.7c1.1,3.5,2.6,6.9,4.6,10c1,1.6,2.2,3,3.5,4.2C335,543.7,335.7,544.2,336.5,544.6c0.8,0.5,1.7,0.8,2.6,1
				C338.2,545.4,337.3,545.1,336.5,544.6z"/>
			<path class="st8" d="M545.8,562.7c-11.4,0-19.3-2.8-24.1-8.5c-9.1-10.8-5.2-30.4-1.1-51.2c1.2-6.1,2.5-12.4,3.4-18.6
				c5.8-38.1,68.5-63.3,71.2-64.4l3.5,2c-0.6,0.3-66.2,26.4-71.8,62.8c-1,6.3-2.2,12.6-3.4,18.8c-4,20-7.7,38.9,0.4,48.7
				c4.4,5.2,12.8,6.8,24.1,6.6l0.1,3.8L545.8,562.7z"/>
			<path class="st8" d="M307.7,492.8c-1.3-10.2-2.7-20.8-3.6-30.7c-1.8-19.6-8.9-29.6-13.9-34.3c-0.9,0.6-1.8,1.2-2.8,1.6
				c4.5,4,11.9,13.4,13.7,33c0.9,9.9,2.3,20.5,3.6,30.8c4.1,31.2,8.3,63.5-2.1,74.9c-2.9,3.2-7.5,4.6-12.7,4.3c0,0,1,4,1.4,4
				c5.2-0.1,10.1-2.4,13.5-6.3C316.1,557.6,312,526.1,307.7,492.8z"/>
		</g>
	</g>
</g>
</svg>
