<?xml version="1.0" encoding="utf-8"?>
<!-- Generator: Adobe Illustrator 25.4.1, SVG Export Plug-In . SVG Version: 6.00 Build 0)  -->
<svg version="1.1" id="Layer_1" xmlns="http://www.w3.org/2000/svg" xmlns:xlink="http://www.w3.org/1999/xlink" x="0px" y="0px"
	 viewBox="0 0 837.3 1537" style="enable-background:new 0 0 837.3 1537;" xml:space="preserve">
<style type="text/css">
	.st0{fill:none;}
	.st1{fill-rule:evenodd;clip-rule:evenodd;fill:#182633;}
	.st2{fill-rule:evenodd;clip-rule:evenodd;fill:#0B1D2D;}
	.st3{fill-rule:evenodd;clip-rule:evenodd;fill:#292F3A;}
	.st4{fill:none;stroke:#74CBE2;stroke-width:3;stroke-miterlimit:10;}
	.st5{fill:#292F3A;}
	.st6{opacity:0.41;fill-rule:evenodd;clip-rule:evenodd;fill:#050505;enable-background:new    ;}
	.st7{fill-rule:evenodd;clip-rule:evenodd;fill:#74CBE2;}
	.st8{opacity:0.66;fill-rule:evenodd;clip-rule:evenodd;fill:#74CBE2;enable-background:new    ;}
	.st9{fill:#74CBE2;}
	.st10{opacity:0.68;fill-rule:evenodd;clip-rule:evenodd;fill:#1C5663;enable-background:new    ;}
	.st11{opacity:0.47;clip-path:url(#SVGID_00000093166380118570341740000013354584379570651285_);}
	.st12{opacity:0.55;fill-rule:evenodd;clip-rule:evenodd;fill:url(#SVGID_00000181049417301409473780000010014136936332524943_);}
</style>
<g id="Layer_2_00000176753565314293267590000001651300307478412687_">
	<g id="base">
		<rect class="st0" width="837.3" height="1537"/>
	</g>
	<g id="L_arm_05">
		<path class="st1" d="M630,930.5c0,0-6.7-15-5.2-25.7c0,0,8.6-5.1,23.6-4.4s33.1,16.6,33.1,16.6v17.5L630,930.5z"/>
		<path class="st1" d="M620.2,855.8c0,0-5.1,29.6-10.4,43.9c0,0,11.3,3.7,24.9-5.3s8.2-33.7,8.2-33.7S628.6,853.2,620.2,855.8z"/>
		<path class="st2" d="M717.2,682.4c0,0,12.3,50.2-46.9,38.2c-10.5-2.1-32.4-18.6-42-33.2c0,0-9.4-17.2-9.3-22.6
			c-23.9-13-34.3-60.5-25.6-79.3c-1.4-3.9-17.3-11.9-19.7-14.8c-24.8-30.1-11.2-71.9-3.5-81.5c12.1-15.3,24.2-33.2,45-36.2
			c27.2-3.9,36.6,16,43.6,21.9s22.9,47.5,24.2,76.9s28.8,87.3,29,88.1C713.3,645.4,717.2,682.4,717.2,682.4z"/>
		<path class="st3" d="M681.4,799.5c-19.2,0.4-22.8,13.6-23.2,14.7c0,0-19,4.9-26.9,11s-11.1,30.7-11.1,30.7l22.7,4.8
			c0,0,5.1-3,11.3,1.2c0,0-5.3,34-10.7,47.8c-1,2.4-2.3,4.8-3.7,7c-3,4.8-6.3,9.3-9.8,13.7c0,0,1.3,3.1,5.8,6.8s16.6,2.2,16.6,2.2
			l6.5-3.7c0,0-1,2.2,3.9,4s22,0,22,0c3.3,0.7,6.7,1,10.1,0.8c6.4-0.2,9.2-2.3,16.8-2.3s10.7-0.6,13.8-2.5c0.8-0.4,1.7-3.3,2.5-8.2
			c2.4-15.4,3-50.8-10.3-96.1C717.4,826.8,715.6,798.8,681.4,799.5z"/>
		<path class="st2" d="M641.9,760.3c9.5,20.8,19.7,45.3,16.3,53.9l-0.8,0.2c0.6,1.2,0.9,2.5,0.8,3.8c-0.1,3.2-0.9,32.1,30,33.1
			c13.5,0.4,25.6-11.3,29.4-19.9c-4.6-62.8,6-109.8,1.1-140.7c-0.8-5.2-2.2-10.3-4.3-15.2c0,0-15.8-20.2-39.8-17.7
			c-13.4,1.4-39.8,5.5-46.6,29.6c0,0-4.9,29.4,0,42.9C630.1,735.5,635.8,747.2,641.9,760.3z"/>
		<path class="st4" d="M644,597.2c0,0,23.9,31.5,25.6,48.6S673,677,673,677"/>
		<path class="st4" d="M681.4,591.5c0,0,9.5,32.8,16.4,42.6s-0.5,48.3-0.5,48.3"/>
		<path class="st5" d="M626.6,699.9c-0.7,6.5-0.8,13-0.5,19.5c0.1-6.2,0.3-12.3,0.6-18.5C626.7,700.6,626.7,700.2,626.6,699.9z"/>
		<path class="st5" d="M718.8,690.6c-0.8-5.2-2.2-10.3-4.3-15.2c0,0-15.8-20.2-39.8-17.7c-4.7,0.5-9.3,1.2-13.9,2.3
			c1.3,3.1-34.6,17-16.9,42.4c0.1,0.9,12.7,20.8,11.8,30.9c-0.1,5.3-0.2,10.7-0.4,16c-0.1,7-5,13-11.8,14.5
			c9,19.9,17.9,42.2,14.7,50.3l-0.8,0.2c0.6,1.2,0.9,2.5,0.8,3.8c-0.1,3.2-0.9,32.1,30,33.1c13.5,0.4,25.6-11.3,29.4-19.9
			C713.1,768.6,723.7,721.5,718.8,690.6z"/>
		<path class="st6" d="M663.3,760.8c7.8,16.9,16.1,36.9,13.3,43.9l-0.6,0.2c0.5,1,0.7,2,0.7,3.1c-0.1,2.6-0.7,26.2,24.5,27
			c11,0.3,20.9-9.2,24-16.2c-3.8-51.2,4.9-89.5,0.9-114.8c-0.6-4.3-1.8-8.4-3.5-12.4c0,0-12.9-16.5-32.4-14.4
			c-11,1.2-32.4,4.5-38,24.2c0,0,5.3,20.1,9.3,31.1C663,736.7,658.4,750,663.3,760.8z"/>
		<path class="st3" d="M667.3,758.8c7.8,16.9,16.1,36.9,13.3,43.9l-0.6,0.2c0.5,1,0.7,2,0.7,3.1c-0.1,2.6-0.7,26.2,24.5,27
			c11,0.3,20.9-9.2,24-16.2c-3.8-51.2,4.9-89.5,0.9-114.8c-0.6-4.3-1.8-8.4-3.5-12.4c0,0-12.9-16.5-32.4-14.4
			c-11,1.2-32.4,4.5-38,24.2c0,0,5.3,20.1,9.3,31.1C667,734.7,662.4,748,667.3,758.8z"/>
		<path class="st6" d="M658.8,935.7c0,0,8.5-10.7,11.3-22.7c0,0-0.9,15-7.3,26.7C660.7,939.4,659,937.8,658.8,935.7z"/>
		<path class="st6" d="M684.8,939.7c0,0,5-4.9,6.8-17c0,0,0.8,7-1.9,17.7C689.7,940.4,687.7,941.4,684.8,939.7z"/>
		<path class="st6" d="M706.9,938.5c0,0,3.2-1.6,5.8-9c0.4,2.9,0.1,5.9-0.9,8.7L706.9,938.5z"/>
		<path class="st6" d="M614.4,448.1c-16.3,7.9-23.3,33.2-22.5,39.3c0,0.1,0.1,0.2,0.1,0.3c0.7,4,4.7,59.4,10.9,81s64.4,39,64.4,39
			s43.3-11.4,42.5-18.1c-1.7-14.2,1.2-33.9-7.5-58c-9.7-26.9-21.9-45.8-36.3-70.8C654.8,441.4,634.5,438.4,614.4,448.1z"/>
		<path class="st3" d="M618.7,444.8c-16.3,7.9-23.4,33.2-22.5,39.3c0.1,0.1,0.1,0.2,0.1,0.3c0.7,4,4.7,59.3,10.9,81s64.4,39,64.4,39
			s43.4-11.5,42.5-18.1c-1.8-14.2,1.2-33.9-7.5-58c-9.7-26.9-21.9-45.8-36.3-70.8C659.1,438.1,638.8,435,618.7,444.8z"/>
		<path class="st7" d="M685,568.8c0,0-39.3-11.8-43.5-26.4s-6.9-52-7.4-54.7c0-0.1,0-0.2-0.1-0.2c-0.6-4.1,4.1-21.2,15.2-26.6
			c1.6-0.8,3.2-1.4,4.8-2c-2.7,0.7-5.3,1.6-7.7,2.8c-11,5.4-15.8,22.4-15.2,26.6c0,0.1,0.1,0.2,0.1,0.2c0.5,2.7,3.2,40.1,7.4,54.7
			s43.5,26.4,43.5,26.4s2.2-0.6,5.3-1.5C685.9,568.6,685,568.8,685,568.8z"/>
		<path class="st8" d="M649.2,461c-11,5.4-15.8,22.4-15.2,26.6c0,0.1,0.1,0.2,0.1,0.2c0.5,2.7,3.2,40.1,7.4,54.7
			s43.5,26.4,43.5,26.4s29.3-7.7,28.7-12.2c-1.2-9.6,0.8-22.9-5.1-39.2c-6.5-18.2-14.8-31-24.5-47.8
			C676.5,456.5,662.8,454.4,649.2,461z"/>
		<path class="st7" d="M680.4,750.2c5.1,11.2,10.6,24.4,8.8,29l-0.4,0.1c0.3,0.6,0.5,1.3,0.5,2.1c-0.1,1.8-0.5,17.3,16.2,17.8
			c7.3,0.2,13.8-6.1,15.8-10.7c-2.5-33.8,3.2-59.2,0.6-75.8c-0.4-2.8-1.2-5.6-2.3-8.2c0,0-8.6-10.9-21.4-9.5
			c-7.2,0.8-21.4,3-25.1,16c0,0,3.5,13.3,6.2,20.5C680.2,734.3,677.2,743.1,680.4,750.2z"/>
		<polygon class="st9" points="668.6,912.9 677.9,851.3 671.6,913.2 		"/>
		<polygon class="st9" points="690.1,922.7 693.6,863.3 693.1,922.8 		"/>
		<polygon class="st9" points="711.2,929.6 706.9,856.1 714.2,929.4 		"/>
		<path class="st10" d="M721.9,712.7c-0.4-2.8-1.2-5.6-2.3-8.2c0,0-8.6-10.9-21.4-9.5l-0.8,0.1c3.8,0.6,14.5,2.9,16.8,8.3
			c2.8,6.6,7.8,21.8,5.2,32.4s0.5,49.5-1,51.3c-1.4,1.6-3.4,8.9-6.9,11c4.3-1.9,7.8-5.3,10-9.5C718.8,754.7,724.5,729.3,721.9,712.7
			z"/>
	</g>
</g>
<g>
	<defs>
		<path id="SVGID_1_" d="M680.4,750.2c5.1,11.2,10.6,24.4,8.8,29l-0.4,0.1c0.3,0.6,0.5,1.3,0.5,2.1c-0.1,1.8-0.5,17.3,16.2,17.8
			c7.3,0.2,13.8-6.1,15.8-10.7c-2.5-33.8,3.2-59.2,0.6-75.8c-0.4-2.8-1.2-5.6-2.3-8.2c0,0-8.6-10.9-21.4-9.5
			c-7.2,0.8-21.4,3-25.1,16c0,0,3.5,13.3,6.2,20.5C680.2,734.3,677.2,743.1,680.4,750.2z"/>
	</defs>
	<clipPath id="SVGID_00000039111778645190043340000014567517171845782656_">
		<use xlink:href="#SVGID_1_"  style="overflow:visible;"/>
	</clipPath>
	<g style="opacity:0.47;clip-path:url(#SVGID_00000039111778645190043340000014567517171845782656_);">
		<rect x="706.6" y="750.5" transform="matrix(0.1095 0.994 -0.994 0.1095 1379.8217 -34.3514)" width="4.9" height="4.9"/>
		<rect x="703.5" y="721.9" transform="matrix(0.1095 0.994 -0.994 0.1095 1348.572 -56.6987)" width="4.9" height="4.9"/>
		<rect x="707.7" y="760" transform="matrix(0.1095 0.994 -0.994 0.1095 1390.2383 -26.9023)" width="4.9" height="4.9"/>
		<rect x="704.5" y="731.4" transform="matrix(0.1095 0.994 -0.994 0.1095 1358.9885 -49.2496)" width="4.9" height="4.9"/>
		<rect x="705.6" y="740.9" transform="matrix(0.1095 0.994 -0.994 0.1095 1369.4052 -41.8005)" width="4.9" height="4.9"/>
		<rect x="702.4" y="712.3" transform="matrix(0.1095 0.994 -0.994 0.1095 1338.1555 -64.1478)" width="4.9" height="4.9"/>
		<rect x="701.4" y="702.8" transform="matrix(0.1095 0.994 -0.994 0.1095 1327.7389 -71.5969)" width="4.9" height="4.9"/>
		<rect x="696.1" y="698.5" transform="matrix(0.1095 0.994 -0.994 0.1095 1318.8053 -70.1185)" width="4.9" height="4.9"/>
		<rect x="702.4" y="755.8" transform="matrix(0.1095 0.994 -0.994 0.1095 1381.3046 -25.4238)" width="4.9" height="4.9"/>
		<rect x="699.2" y="727.2" transform="matrix(0.1095 0.994 -0.994 0.1095 1350.0549 -47.7712)" width="4.9" height="4.9"/>
		<rect x="703.4" y="765.3" transform="matrix(0.1095 0.994 -0.994 0.1095 1391.7211 -17.9747)" width="4.9" height="4.9"/>
		<rect x="700.3" y="736.7" transform="matrix(0.1095 0.994 -0.994 0.1095 1360.4714 -40.3221)" width="4.9" height="4.9"/>
		<rect x="701.3" y="746.2" transform="matrix(0.1095 0.994 -0.994 0.1095 1370.8879 -32.8729)" width="4.9" height="4.9"/>
		<rect x="698.2" y="761.1" transform="matrix(0.1095 0.994 -0.994 0.1095 1382.7936 -16.4919)" width="4.9" height="4.9"/>
		<rect x="692.9" y="756.8" transform="matrix(0.1095 0.994 -0.994 0.1095 1373.8599 -15.0135)" width="4.9" height="4.9"/>
		<rect x="693.9" y="766.4" transform="matrix(0.1095 0.994 -0.994 0.1095 1384.2764 -7.5643)" width="4.9" height="4.9"/>
		<rect x="691.8" y="747.3" transform="matrix(0.1095 0.994 -0.994 0.1095 1363.4432 -22.4626)" width="4.9" height="4.9"/>
		<rect x="691.9" y="703.9" transform="matrix(0.1095 0.994 -0.994 0.1095 1320.3127 -61.1733)" width="4.9" height="4.9"/>
		<rect x="692.9" y="713.4" transform="matrix(0.1095 0.994 -0.994 0.1095 1330.7294 -53.7242)" width="4.9" height="4.9"/>
		<rect x="693.4" y="718.2" transform="matrix(0.1095 0.994 -0.994 0.1095 1335.9283 -50.0063)" width="4.9" height="4.9"/>
		<rect x="694.5" y="727.7" transform="matrix(0.1095 0.994 -0.994 0.1095 1346.3448 -42.5572)" width="4.9" height="4.9"/>
		<rect x="689.2" y="723.4" transform="matrix(0.1095 0.994 -0.994 0.1095 1337.4111 -41.0787)" width="4.9" height="4.9"/>
		<rect x="690.2" y="733" transform="matrix(0.1095 0.994 -0.994 0.1095 1347.8278 -33.6296)" width="4.9" height="4.9"/>
		<rect x="690.8" y="737.7" transform="matrix(0.1095 0.994 -0.994 0.1095 1353.0328 -29.9073)" width="4.9" height="4.9"/>
		<rect x="698.2" y="717.6" transform="matrix(0.1095 0.994 -0.994 0.1095 1339.6383 -55.2203)" width="4.9" height="4.9"/>
		<rect x="697.1" y="708.1" transform="matrix(0.1095 0.994 -0.994 0.1095 1329.2218 -62.6694)" width="4.9" height="4.9"/>
		<rect x="697.7" y="712.9" transform="matrix(0.1095 0.994 -0.994 0.1095 1334.4393 -58.9382)" width="4.9" height="4.9"/>
		<rect x="696.6" y="703.3" transform="matrix(0.1095 0.994 -0.994 0.1095 1324.0228 -66.3873)" width="4.9" height="4.9"/>
		<rect x="686" y="694.8" transform="matrix(0.1095 0.994 -0.994 0.1095 1306.1554 -63.4305)" width="4.9" height="4.9"/>
		<rect x="688.1" y="713.9" transform="matrix(0.1095 0.994 -0.994 0.1095 1326.9884 -48.5323)" width="4.9" height="4.9"/>
		<rect x="687.1" y="704.4" transform="matrix(0.1095 0.994 -0.994 0.1095 1316.5719 -55.9814)" width="4.9" height="4.9"/>
		<rect x="686.6" y="699.6" transform="matrix(0.1095 0.994 -0.994 0.1095 1311.3667 -59.7037)" width="4.9" height="4.9"/>
		<rect x="681.8" y="700.1" transform="matrix(0.1095 0.994 -0.994 0.1095 1307.6382 -54.503)" width="4.9" height="4.9"/>
		<rect x="682.8" y="709.7" transform="matrix(0.1095 0.994 -0.994 0.1095 1318.0547 -47.0539)" width="4.9" height="4.9"/>
		<rect x="683.4" y="714.4" transform="matrix(0.1095 0.994 -0.994 0.1095 1323.2722 -43.3227)" width="4.9" height="4.9"/>
		<rect x="682.3" y="704.9" transform="matrix(0.1095 0.994 -0.994 0.1095 1312.8557 -50.7718)" width="4.9" height="4.9"/>
		<rect x="681.3" y="695.4" transform="matrix(0.1095 0.994 -0.994 0.1095 1302.4392 -58.2209)" width="4.9" height="4.9"/>
		<g>
			<path d="M700.4,695.7l0.3,2.7l4.8-0.5l-0.1-0.7C703.7,696.5,701.9,696,700.4,695.7z"/>
		</g>
	</g>
</g>
<linearGradient id="SVGID_00000156549156041294397040000014874380408843237534_" gradientUnits="userSpaceOnUse" x1="733.057" y1="727.8675" x2="674.3018" y2="761.7899">
	<stop  offset="0" style="stop-color:#FFFFFF;stop-opacity:0"/>
	<stop  offset="0.4846" style="stop-color:#DDFFFF"/>
	<stop  offset="1" style="stop-color:#000000;stop-opacity:0"/>
</linearGradient>
<path style="opacity:0.55;fill-rule:evenodd;clip-rule:evenodd;fill:url(#SVGID_00000156549156041294397040000014874380408843237534_);" d="
	M680.4,750.2c5.1,11.2,10.6,24.4,8.8,29l-0.4,0.1c0.3,0.6,0.5,1.3,0.5,2.1c-0.1,1.8-0.5,17.3,16.2,17.8c7.3,0.2,13.8-6.1,15.8-10.7
	c-2.5-33.8,3.2-59.2,0.6-75.8c-0.4-2.8-1.2-5.6-2.3-8.2c0,0-8.6-10.9-21.4-9.5c-7.2,0.8-21.4,3-25.1,16c0,0,3.5,13.3,6.2,20.5
	C680.2,734.3,677.2,743.1,680.4,750.2z"/>
</svg>
