<svg xmlns="http://www.w3.org/2000/svg" xmlns:xlink="http://www.w3.org/1999/xlink" viewBox="0 0 837.33 1537"><defs><style>.cls-1{fill:none;}.cls-2{fill:url(#linear-gradient);}.cls-3{fill:url(#linear-gradient-2);}.cls-4{fill:url(#linear-gradient-3);}.cls-5{fill:url(#linear-gradient-4);}.cls-6{fill:#666;opacity:0.6;}</style><linearGradient id="linear-gradient" x1="124.25" y1="802.9" x2="140.2" y2="802.9" gradientUnits="userSpaceOnUse"><stop offset="0" stop-color="#a1a1a1"/><stop offset="1" stop-color="#a1a1a1"/></linearGradient><linearGradient id="linear-gradient-2" x1="122.22" y1="805.58" x2="131.76" y2="805.58" xlink:href="#linear-gradient"/><linearGradient id="linear-gradient-3" x1="95.07" y1="785.3" x2="121.02" y2="785.3" xlink:href="#linear-gradient"/><linearGradient id="linear-gradient-4" x1="122.22" y1="759.86" x2="254.53" y2="759.86" xlink:href="#linear-gradient"/></defs><g id="Layer_2" data-name="Layer 2"><g id="base"><rect class="cls-1" width="837.33" height="1537"/></g><g id="R_arm_04"><path class="cls-2" d="M133,801.87l-1.22.69c-.08.09-3.11,3.41-7.53,7.52l1.32,1a115.43,115.43,0,0,0,14.63-11.4l-6.41-5C135,797.18,135.2,800.67,133,801.87Z"/><path class="cls-3" d="M122.22,808.49l.14.1c3.42-2,6.73-4.11,9.4-6C128.71,804.31,125.55,806.36,122.22,808.49Z"/><path class="cls-4" d="M95.07,789.23l3.39.59c5,.61,14.39.8,22.06-4.86a3.68,3.68,0,0,1,.5-.3l-11.71-4.18Z"/><path class="cls-5" d="M199.69,674.25l-4.87,15.33.62,6.56-6.31,9.58-.41,6.31-7.19,9.83-1.42,5.91L166.7,736l15.9,45.95-47.49-22.06,4.53,5.23-.92-.91-16.5,9.57,18,25.93c.48-.47.95-.93,1.37-1.38,1.77-1.88,11.37,5.86,11.37,5.86,2,2.32,5.38,7.42,3,9.32-1.93,1.54-4.24,3.76-6.82,6.27,0,0-2.12,2.4-5.33,5.72l.5.38c2.15-2,4.24-4,6.16-6.07,1.76-1.87,11.37,5.87,11.37,5.87a6.8,6.8,0,0,1-.11,8.5c-1,1.1-1.94,2.12-2.92,3.1h0l.13-.12-.11.14,1.46,1.15c.83-.84,1.66-1.68,2.48-2.55,1.76-1.88,7.91,2.83,7.91,2.83a13.4,13.4,0,0,1,2.67,6.77l11.23-10.24,1.18-5.72,8.54-10.25-13.82-17.39,16,10.07,9.84-16.35-9.23-26.69,14.75,12,11.3-10.3L209.11,744l23.13,14.6,10-12.09.65.44,11.59-13.61Z"/><polygon class="cls-6" points="139.64 765.09 171.06 815.08 134.4 766.69 139.64 765.09"/><polygon class="cls-6" points="203.06 801.12 190.84 753.98 206.38 795.6 201.99 802.9 203.06 801.12"/><polygon class="cls-6" points="189.13 705.72 219.19 732.77 188.72 712.03 189.13 705.72"/></g></g></svg>