<svg xmlns="http://www.w3.org/2000/svg" viewBox="0 0 837.97 1536.05"><defs><style>.cls-1,.cls-8,.cls-9{fill:none;}.cls-10,.cls-2,.cls-3{fill:#050505;}.cls-2,.cls-3{opacity:0.41;}.cls-3,.cls-5,.cls-6,.cls-7,.cls-9{fill-rule:evenodd;}.cls-4,.cls-5{fill:#292f3a;}.cls-6,.cls-7{fill:#74cbe2;}.cls-7{opacity:0.66;}.cls-8,.cls-9{stroke:#74cbe2;stroke-miterlimit:10;stroke-width:3px;}</style></defs><g id="Layer_2" data-name="Layer 2"><g id="base"><rect class="cls-1" x="0.32" width="837.33" height="1536.05"/></g><g id="fee_06_shorter"><path class="cls-2" d="M334.9,1280.35s-11.68-9.88-11.93-13.46-1.85-37.9-2.34-43c-1.19-12.69-9.84-66.57-11.82-69.77s-11.55-24.55-35.8-16.46c0,0,27.91,18.43,28.84,19.79s11.88,76.79,11.88,76.79,2.59,34.69,2.71,35.53,14,17.92,14,17.92Z"/><path class="cls-3" d="M504.58,1271.66s-8.83-32.74-8.95-36.05c-.35-10.16,6.43-55.79,8.91-66s19.77-32.93,35.74-32.9Z"/><path class="cls-4" d="M318,1264.09c3.16-15.22-.15-26.48-1.54-40-3.81-30.12-7.2-52.89-12.12-67.67C296.55,1133,273,1137.64,273,1137.64c-13.72,67.8-18.54,104.5-25.49,132.33-2.16,8.62-3.53,13.47-3.53,13.47l-8.59,55.28-4,25.55c9.42,65.44,58.23,30.4,70.79-6.24,2.83-4.43,26.12-67.28,26.17-67.38.53-1.1,2.2-2.83,3.42-5.5C325.58,1279.61,316.49,1271.41,318,1264.09Z"/><path class="cls-5" d="M540.28,1136.73c-17.89,3.11-31.61,25.43-32.44,31.58a1.5,1.5,0,0,1,0,.35c-.44,4.07-9.53,40.86-9.53,63.34s17.15,82.45,17.15,82.45l5.35,51.75s-.54,32.62,23.23,32.8c32.85.24,36.6-52.1,36.6-52.1s13.55-58.62,14.58-65.24c2.25-14.15,10.47-32.22,8.81-57.84-1.86-28.53-5.82-35.72-17.63-60.57C578.76,1146.54,562.33,1132.9,540.28,1136.73Z"/><path class="cls-5" d="M303.93,1410c.86,14.08-11.41,25.63-11.41,25.63s-42.16.86-68.08,4c-1.71.2-3.33.39-4.7.64-22.39,3.67-41.05,7.93-57,8.86s-50.51-1.22-70.4-21.75a54.94,54.94,0,0,1,3.24-11.31,37.3,37.3,0,0,1,11.57-16l31.12,3.18s16.65-6.55,26.46-11.84c4.12-2.2,18.3-10.83,22.33-12.74,26.36-12.5,44.34-14.43,44.34-14.43S241,1346,267.33,1349c23.56,2.73,27,27.94,27,27.94S303.23,1398.53,303.93,1410Z"/><path class="cls-5" d="M677.42,1454.86c-20.21,8.1-37.62,18.5-60,17.69-19-.7-38.21-16.68-44.83-19.14,0,0-35.48-6.5-38.76-8.36-12-6.81-16.56-10.13-19.47-13.11s-6.47-14-5.88-18.19c1.26-8.94,13.58-36.47,13.58-36.47s7.86-14.55,25.24-17.55c24-4.14,29.46,12.12,29.46,12.12s10.36,9.89,21.55,14.41c10.72,4.34,39.54,29.38,50.32,35.4,0,0,29,14.23,29,14.23C678.26,1438.83,677.42,1454.86,677.42,1454.86Z"/><path class="cls-3" d="M548.68,1144.73c-15.39,2.68-27.2,21.88-27.91,27.17a1.1,1.1,0,0,1,0,.3c-.38,3.5-10.2,50.19-10.2,69.54s44,47.57,44,47.57,38.52.84,39.41-4.85c1.94-12.18,9-27.72,7.57-49.76-1.6-24.55-7.23-43.1-13.16-67.15C583.69,1148.8,567.65,1141.44,548.68,1144.73Z"/><path class="cls-5" d="M553,1143c-15.39,2.68-27.19,21.88-27.91,27.17a1.1,1.1,0,0,1,0,.3c-.38,3.5-10.2,50.19-10.2,69.54s44,47.57,44,47.57,38.51.84,39.4-4.85c1.94-12.18,9-27.72,7.58-49.76-1.6-24.55-7.24-43.1-13.17-67.15C588,1147.08,572,1139.72,553,1143Z"/><path class="cls-3" d="M273.41,1145.29c10.13,2.63,17.9,21.52,18.37,26.72a1.6,1.6,0,0,0,0,.3c.25,3.44,6.71,49.37,6.71,68.4s-28.93,46.8-28.93,46.8-25.35.82-25.94-4.77c-1.27-12-5.93-27.27-5-49,1.05-24.15,4.76-42.4,8.66-66.06C250.37,1149.29,260.93,1142.05,273.41,1145.29Z"/><path class="cls-5" d="M270.58,1143.6c10.13,2.63,17.9,21.51,18.37,26.72a1.6,1.6,0,0,0,0,.3c.25,3.44,6.71,49.37,6.71,68.4s-28.93,46.8-28.93,46.8-25.36.82-25.94-4.78c-1.27-12-5.93-27.26-5-48.94,1-24.15,4.76-42.4,8.66-66.06C247.54,1147.6,258.1,1140.36,270.58,1143.6Z"/><path class="cls-6" d="M578.38,1261.33s-29.7-19.1-29.7-32.14,6.63-44.62,6.89-47a.72.72,0,0,0,0-.2c.48-3.58,8.46-16.55,18.86-18.36a35.19,35.19,0,0,1,4.48-.48,33.12,33.12,0,0,0-7.07.48c-10.39,1.81-18.37,14.78-18.85,18.36a1.56,1.56,0,0,1,0,.2c-.26,2.37-6.89,33.92-6.89,47s29.7,32.14,29.7,32.14,1.92,0,4.72,0Z"/><path class="cls-7" d="M574.42,1163.64c-10.4,1.81-18.38,14.78-18.86,18.36a.72.72,0,0,1,0,.2c-.26,2.37-6.89,33.92-6.89,47s29.7,32.14,29.7,32.14,26,.57,26.63-3.28c1.31-8.23,6.09-18.73,5.12-33.62-1.08-16.59-4.89-29.12-8.89-45.37C598.07,1166.39,587.23,1161.42,574.42,1163.64Z"/><path class="cls-6" d="M243.81,1258.93s16.19-19,17.08-32.63-.3-46.86-.27-49.33c0-.06,0-.13,0-.22,0-3.75-3.11-17.57-8.21-19.8a9.19,9.19,0,0,0-2.21-.65c1.13,0,3.21-.61,4.41-.09,5.09,2.23,8.21,16,8.21,19.8,0,.09,0,.16,0,.22,0,2.47,1.15,35.67.27,49.33S246,1258.19,246,1258.19a8.56,8.56,0,0,1-3.27.69Z"/><path class="cls-7" d="M252.43,1157c5.1,2.23,8.22,16,8.21,19.8,0,.09,0,.16,0,.22,0,2.47,1.16,35.67.27,49.33s-17.08,32.63-17.08,32.63-13.09-.26-13.13-4.3c-.1-8.64-1.78-19.77-.29-35.31,1.67-17.3,4.43-30.27,7.54-47.13C240.38,1159.06,246.16,1154.21,252.43,1157Z"/><line class="cls-8" x1="592.08" y1="1261.36" x2="590.7" y2="1285.83"/><path class="cls-9" d="M544.61,1387.13c2.7,5.23,2.15,10.52-4.16,13.77s-13.29,4.14-16.87.41c-4.07-4.25.23-12.11,6.53-15.36S541.91,1381.9,544.61,1387.13Z"/><path class="cls-9" d="M540.45,1400.9l48.47,25.29s7.78-15.25,20.35-17.32,27.81,4.87,27.81,4.87"/><path class="cls-9" d="M584.62,1288.42l-15.54,86a26.67,26.67,0,0,0-28.63,9.18"/><path class="cls-10" d="M543.65,1309.26a60,60,0,0,1-10.09,2.33,80.7,80.7,0,0,1-10.29.68c-1.72,0-3.43,0-5.13-.16-1.19-.07-2.26-.25-3.42-.38.28,1,.5,1.72.71,2.46.13,1,.24,1.79.38,2.82,0,.18,0,.34,0,.51.81,0,1.61-.09,2.42-.16,1.82-.14,3.62-.35,5.41-.61a82.15,82.15,0,0,0,10.58-2.23,61.07,61.07,0,0,0,10.05-3.88,42.91,42.91,0,0,0,8.81-6A42.27,42.27,0,0,1,543.65,1309.26Z"/><path class="cls-10" d="M540.57,1324.86a50.82,50.82,0,0,1-9.43,2.35,64.7,64.7,0,0,1-9.62.72c-1.6,0-3.2,0-4.79-.16a48,48,0,0,1,.66,5.2c1.51-.14,3-.33,4.49-.55a70.34,70.34,0,0,0,10-2.29,52.57,52.57,0,0,0,9.35-3.9,43.32,43.32,0,0,0,8.18-5.76A42,42,0,0,1,540.57,1324.86Z"/><path class="cls-10" d="M535.82,1340.4a51.52,51.52,0,0,1-9.42,2.35,66,66,0,0,1-7.92.68c.14,1.46.32,2.61.43,4.22a70.47,70.47,0,0,0,8.17-2,53.36,53.36,0,0,0,9.35-3.91,42.13,42.13,0,0,0,8.18-5.76A42.26,42.26,0,0,1,535.82,1340.4Z"/><path class="cls-10" d="M291.29,1305.64a59.82,59.82,0,0,0,9.3,4.57,77.75,77.75,0,0,0,9.86,3c1.67.39,3.35.74,5,1,1.18.2,2.26.27,3.42.41-.51.93-.88,1.56-1.25,2.23l-1,2.67c0,.16-.06.33-.09.5-.77-.23-1.54-.46-2.32-.71q-2.6-.82-5.12-1.82a82.5,82.5,0,0,1-9.8-4.59,62.29,62.29,0,0,1-8.9-6.06,43.77,43.77,0,0,1-7.22-7.82A42.48,42.48,0,0,0,291.29,1305.64Z"/><path class="cls-10" d="M290.74,1321.53a50.38,50.38,0,0,0,8.64,4.44,65.37,65.37,0,0,0,9.2,2.89c1.56.37,3.13.69,4.71.94a47.89,47.89,0,0,0-1.84,4.91c-1.43-.48-2.84-1-4.24-1.56a69.37,69.37,0,0,1-9.16-4.49,53.18,53.18,0,0,1-8.22-5.93,43.13,43.13,0,0,1-6.65-7.47A41.79,41.79,0,0,0,290.74,1321.53Z"/><path class="cls-10" d="M291.82,1337.74a50.38,50.38,0,0,0,8.64,4.44,65.89,65.89,0,0,0,7.55,2.47c-.47,1.39-.91,2.46-1.38,4a68.33,68.33,0,0,1-7.5-3.78,52.58,52.58,0,0,1-8.22-5.94,42.77,42.77,0,0,1-6.65-7.47A42.54,42.54,0,0,0,291.82,1337.74Z"/><line class="cls-8" x1="243.11" y1="1260.42" x2="243.82" y2="1283.73"/><path class="cls-8" d="M244.48,1289.35l-10.13,75.23s17.93,5.74,19.71,19"/><ellipse class="cls-8" cx="256.59" cy="1394.89" rx="13.73" ry="11.53"/><path class="cls-8" d="M242.87,1399l-64.36,9.87s-5.08-17.43-13.75-17.43"/></g></g></svg>