<?xml version="1.0" encoding="utf-8"?>
<!-- Generator: Adobe Illustrator 25.4.1, SVG Export Plug-In . SVG Version: 6.00 Build 0)  -->
<svg version="1.1" id="Layer_1" xmlns="http://www.w3.org/2000/svg" xmlns:xlink="http://www.w3.org/1999/xlink" x="0px" y="0px"
	 viewBox="0 0 837.3 1537" style="enable-background:new 0 0 837.3 1537;" xml:space="preserve">
<style type="text/css">
	.st0{opacity:0.17;fill:#533413;enable-background:new    ;}
	.st1{fill:url(#SVGID_1_);}
	.st2{opacity:0.48;fill:#2D2D2D;}
	.st3{fill:none;}
	.st4{fill-rule:evenodd;clip-rule:evenodd;fill:url(#SVGID_00000092422930138191450770000016331115834878168240_);}
	.st5{fill-rule:evenodd;clip-rule:evenodd;fill:#415056;}
	.st6{fill-rule:evenodd;clip-rule:evenodd;fill:#1D292D;}
	.st7{fill:#D8D8D8;}
	.st8{fill:#CECECE;}
	.st9{fill:#EDEDED;}
</style>
<path class="st0" d="M496.4,415.6c0,0-33.2,27-33.2,32.6c0,5.6,74.1,45.6,83.8,52.3c6,4.2,30.9-32.1,30.9-32.1l-65.8-47.8
	L496.4,415.6z"/>
<linearGradient id="SVGID_1_" gradientUnits="userSpaceOnUse" x1="561.1528" y1="415.5465" x2="492.9693" y2="487.6744">
	<stop  offset="1.000000e-02" style="stop-color:#705029"/>
	<stop  offset="1" style="stop-color:#54320C"/>
</linearGradient>
<path class="st1" d="M497.4,413.6c0,0-33.2,27-33.2,32.6c0,5.6,74.1,45.6,83.8,52.3c6,4.2,30.9-32.1,30.9-32.1l-65.8-47.8
	L497.4,413.6z"/>
<path class="st0" d="M476.2,417.1l25.8,10.5c0,0,21.3,12.2,26.9,19.6c5.6,7.3,44.7,37.7,44.7,37.7l1.2-10.4l-52.8-48.3L476.2,417.1z
	"/>
<polygon class="st0" points="564.8,460.7 531.4,490.7 436.2,610.5 327.8,722 328.2,714.2 527.3,482.6 561.8,458.4 "/>
<circle class="st2" cx="483.6" cy="442.9" r="7"/>
<circle class="st2" cx="548.5" cy="485.2" r="7"/>
<g id="Layer_2_00000096757176229648353190000002314523449309160094_">
	<g id="base">
		<rect x="-2.6" y="-3.9" class="st3" width="837.3" height="1537"/>
	</g>
	<g id="chest_03">
		
			<linearGradient id="SVGID_00000170250018587953038520000013639452302562631857_" gradientUnits="userSpaceOnUse" x1="316.5534" y1="-2684.4312" x2="571.1947" y2="-2684.4312" gradientTransform="matrix(1 0 0 -1 0 -2108)">
			<stop  offset="1.000000e-02" style="stop-color:#705029"/>
			<stop  offset="1" style="stop-color:#54320C"/>
		</linearGradient>
		<path style="fill-rule:evenodd;clip-rule:evenodd;fill:url(#SVGID_00000170250018587953038520000013639452302562631857_);" d="
			M316.6,689c10.9-14.7,21-25,33.4-38.5c11.5-12.5,23.3-22.2,35.3-34.7c19.9-20.6,34.4-38.7,37-42c4.2-5.4,34.3-65,65.4-104.8
			c12.7-16.1,27.6-30.3,44.2-42.3c4.9,3.1,22.9,14.8,27.2,18.6c4.6,4.1,8.7,8.7,12.1,13.9c0,0-29.6,11.9-48.2,35.7
			c-30.8,39.5-70.5,89.5-74.3,94.7c-10.8,16.5-25.8,29.5-39.6,43.5c-10.7,10.8-26.1,26-36.7,37.5c-16.1,17.4-31.9,35.5-44.8,55.4
			c0,0-9.3-5.7-8.3-10.5S316.6,689,316.6,689z"/>
		<path class="st5" d="M527.4,377.4c-1,9.4-11.1,13.9-17.7,20.2c-6.6,6.3-25,16.7-33.5,19.5c13.3,6.3,31.2,11.3,50.9,23.2
			c2.7,1.6,27.2,18.7,32.8,26.5c4.4,6.2,11.1,10.8,13.7,18.1c13.3-15.9,29.4-29.3,47.6-39.5c4-2.2,10.5-1.5,9.5-2.2
			C617.3,428,602,414.7,585,403.7C567.1,392.2,547.7,383.3,527.4,377.4z"/>
		<path class="st5" d="M544.6,384.8c0,0,14.4-15.9,18.9-12.3s-2.5,22.9-2.5,22.9L544.6,384.8z"/>
		<path class="st5" d="M574.4,400.7c0,0,14.4-15.9,18.9-12.3s-2.5,22.9-2.5,22.9L574.4,400.7z"/>
		<path class="st5" d="M600.9,423.5c0,0,14.4-15.9,18.9-12.3s-2.5,22.9-2.5,22.9L600.9,423.5z"/>
		<path class="st6" d="M526.4,405.7c-1.6,1.8-2.5,4.1-2.5,6.5c0.3-0.9,0.9-1.8,1.5-2.5c2.6-2.9,7-3.1,9.9-0.5
			c0.1,0.1,0.2,0.2,0.4,0.4c2.9,3,3,7.8,0.2,10.9c-0.7,0.7-1.4,1.3-2.3,1.7c2.3-0.1,4.5-1.2,6-2.9c3.5-3.9,3.4-9.9-0.2-13.7
			c-3.3-3.5-8.8-3.6-12.3-0.3C526.8,405.3,526.6,405.5,526.4,405.7z"/>
		<path class="st6" d="M554.5,424.2c-1.6,1.8-2.5,4.1-2.5,6.5c0.3-0.9,0.9-1.8,1.5-2.5c2.6-2.9,7-3.1,9.9-0.5
			c0.1,0.1,0.2,0.2,0.4,0.4c2.9,3,3,7.8,0.2,10.9c-0.7,0.7-1.4,1.3-2.3,1.7c2.3-0.2,4.5-1.2,6-2.9c3.5-3.9,3.4-9.9-0.2-13.7
			c-3.3-3.5-8.8-3.7-12.3-0.3C554.8,423.8,554.6,424,554.5,424.2z"/>
		<path class="st6" d="M576,447.1c-1.6,1.8-2.5,4.1-2.5,6.5c0.3-0.9,0.9-1.8,1.5-2.5c2.5-2.9,6.9-3.1,9.8-0.6
			c0.2,0.1,0.3,0.3,0.4,0.4c2.9,3,3,7.8,0.2,10.9c-0.6,0.7-1.4,1.3-2.3,1.7c2.3-0.1,4.5-1.2,6-2.9c3.5-3.9,3.4-9.9-0.2-13.7
			c-3.3-3.5-8.8-3.7-12.3-0.3C576.3,446.7,576.2,446.9,576,447.1z"/>
	</g>
</g>
<path class="st7" d="M399.8,651c-0.2-1.8-1.1-3.5-2.4-4.7l-26.5-22.2c-3-2.5-7.4-2.1-9.8,0.8l-13.6,16.3c-1.2,1.4-1.7,3.2-1.5,5.1
	c0.2,1.8,1.1,3.5,2.4,4.7l26.5,22.2c1.4,1.2,3.2,1.7,5.1,1.5c1.8-0.2,3.5-1.1,4.7-2.4l13.6-16.2c0.1-0.3,0.4-0.5,0.5-0.8
	C399.6,654.1,400,652.5,399.8,651z M390.6,654.1l-1.3-1.2c-0.2,0.4-4.2,4.3-4.4,4.7l1.6,1.4l-7.4,8.8l-11.2-9.4l6.6-7.8l-5.1-4.4
	l-6.6,7.8l-10-8.5l7.4-8.5l1.9,1.4c0.8-0.9,4.5-4.4,4.8-4.8l-2.6-1.6l2.3-2.7l26.4,22.1L390.6,654.1z"/>
<circle class="st8" cx="482.6" cy="442.9" r="7"/>
<circle class="st8" cx="547.5" cy="485.2" r="7"/>
<g>
	<path class="st9" d="M477,443.3c0.1,0.6,0.3,1.2,0.6,1.7c0.3,0.5,0.5,1,0.9,1.4c0.4,0.4,0.8,0.8,1.3,1.1c0.5,0.3,1,0.6,1.6,0.9
		c-0.3,0-0.6,0-0.9-0.1c-0.3-0.1-0.6-0.1-0.9-0.3c-0.6-0.2-1.1-0.6-1.6-1.1C477.1,445.9,476.7,444.5,477,443.3z"/>
</g>
<g>
	<path class="st9" d="M541.9,485.7c0.1,0.6,0.3,1.2,0.6,1.7c0.3,0.5,0.5,1,0.9,1.4c0.4,0.4,0.8,0.8,1.3,1.1c0.5,0.3,1,0.6,1.6,0.9
		c-0.3,0-0.6,0-0.9-0.1c-0.3-0.1-0.6-0.1-0.9-0.3c-0.6-0.2-1.1-0.6-1.6-1.1C542,488.3,541.6,486.9,541.9,485.7z"/>
</g>
</svg>
