<svg xmlns="http://www.w3.org/2000/svg" xmlns:xlink="http://www.w3.org/1999/xlink" viewBox="0 0 837.33 1537"><defs><style>.cls-1{fill:none;}.cls-2{fill-rule:evenodd;fill:url(#linear-gradient);}.cls-3{fill:url(#linear-gradient-2);}.cls-4{fill:url(#linear-gradient-3);}.cls-5{fill:url(#linear-gradient-4);}.cls-6{fill:url(#linear-gradient-5);}</style><linearGradient id="linear-gradient" x1="431.78" y1="270.22" x2="431.78" y2="98.87" gradientUnits="userSpaceOnUse"><stop offset="0.01" stop-color="#7e1d17"/><stop offset="0.99" stop-color="#460e00"/></linearGradient><linearGradient id="linear-gradient-2" x1="461.78" y1="171.01" x2="461.78" y2="111.47" xlink:href="#linear-gradient"/><linearGradient id="linear-gradient-3" x1="373.47" y1="167.12" x2="373.47" y2="122.58" xlink:href="#linear-gradient"/><linearGradient id="linear-gradient-4" x1="524.13" y1="222.94" x2="524.13" y2="112.85" xlink:href="#linear-gradient"/><linearGradient id="linear-gradient-5" x1="508.84" y1="206.66" x2="508.84" y2="108.96" xlink:href="#linear-gradient"/></defs><g id="Layer_2" data-name="Layer 2"><g id="base"><rect class="cls-1" width="837.33" height="1537"/></g><g id="Layer_27" data-name="Layer 27"><path class="cls-2" d="M554.55,122.3c8.46-7-90.17-23.66-125.2-23.42-26.8.18-109.81,5.93-120.85,16.76,30.69,20,40.23,39,46.83,93.37-3.59,10.57,6.74,20.08,6.74,20.08s-5.6-15.23-1.51-23c2.5-4.76,5.19-26.46,19.47-38.94,6.16-1.35,16.41,5.21,28.74,5,9.74-.15,20.79-7.29,32.15-6.54,3.86.25,13.54,7.12,16.89,7,6.37,12.8,22.25,30.56,23.67,33.05a68.56,68.56,0,0,1,6.22,13.67l-3.23-1.67a109.23,109.23,0,0,1,1.67,24.3c-.69,12.69-1.67,28.21-1.67,28.21h4.46s9.65-19.35,22.39-24.68c0,0,1.3-21.07,3.16-28.42C514.48,217.12,523.21,148.14,554.55,122.3Z"/><path class="cls-3" d="M449.08,169a145.8,145.8,0,0,1,2.73-15,137.78,137.78,0,0,1,4.34-15.45c.88-2.53,1.87-5,3-7.46a56.64,56.64,0,0,1,3.79-7.08,35.61,35.61,0,0,1,5-6.29,20.11,20.11,0,0,1,6.58-4.45,19.49,19.49,0,0,0-6.22,4.8,35.4,35.4,0,0,0-4.48,6.45,54.91,54.91,0,0,0-3.27,7.15c-.94,2.45-1.75,5-2.46,7.48a134.8,134.8,0,0,0-3.3,15.4c-.8,5.18-1.54,11.23-1.83,16.4Z"/><path class="cls-4" d="M380.15,166.85a49.36,49.36,0,0,0,.15-5.87q-.09-3-.47-6a54.47,54.47,0,0,0-2.74-11.66,42.7,42.7,0,0,0-2.4-5.51,37.63,37.63,0,0,0-11.89-13.58,36.9,36.9,0,0,1,9.48,7.83,38.52,38.52,0,0,1,3.71,5,44.15,44.15,0,0,1,2.95,5.51,56.54,56.54,0,0,1,3.85,11.91q.65,3.07,1,6.21a53.21,53.21,0,0,1,.35,6.39Z"/><path class="cls-5" d="M541.59,115.12c-4.41,8.25-10.44,16.9-14.21,25.56s-7.2,17.5-10.2,26.48a227.06,227.06,0,0,0-7.49,27.38,125.27,125.27,0,0,0-2.76,28.26,125.29,125.29,0,0,1,1.53-28.48,229.72,229.72,0,0,1,6.33-27.9c2.63-9.18,5.73-18.22,9.12-27.15s7.09-17.72,11.26-26.42Z"/><path class="cls-6" d="M519.56,110a108.11,108.11,0,0,0-5.42,10.25c-1.63,3.84-3.17,7.73-4.52,11.69a193,193,0,0,0-10.16,49.2c-.41,4.2-.44,8.42-.54,12.64-.11,2.11,0,4.21.08,6.33l.19,6.33-.51-6.32c-.15-2.11-.39-4.22-.39-6.33-.1-4.23-.29-8.47-.08-12.71a195.5,195.5,0,0,1,7.84-50.29c1.18-4.1,2.56-8.15,4-12.17a83.36,83.36,0,0,1,4-9.68Z"/></g></g></svg>