<?xml version="1.0" encoding="utf-8"?>
<!-- Generator: Adobe Illustrator 26.0.0, SVG Export Plug-In . SVG Version: 6.00 Build 0)  -->
<svg version="1.1" id="Layer_1" xmlns="http://www.w3.org/2000/svg" xmlns:xlink="http://www.w3.org/1999/xlink" x="0px" y="0px"
	 viewBox="0 0 837.3 1537" style="enable-background:new 0 0 837.3 1537;" xml:space="preserve">
<style type="text/css">
	.st0{fill:none;}
	.st1{fill:url(#SVGID_1_);}
	.st2{fill-rule:evenodd;clip-rule:evenodd;fill:url(#SVGID_00000044160974457543580500000016685020407372540301_);}
	.st3{fill:url(#SVGID_00000016042005600710677550000017080349901818914197_);}
	.st4{fill-rule:evenodd;clip-rule:evenodd;fill:#0A0A0A;}
	.st5{fill:url(#SVGID_00000130626325577267639290000012248414387640375720_);}
	.st6{opacity:0.68;}
	.st7{fill-rule:evenodd;clip-rule:evenodd;fill:#7C5F0E;}
	.st8{fill-rule:evenodd;clip-rule:evenodd;fill:url(#SVGID_00000001652647401603940130000010316337267248315832_);}
</style>
<g id="Layer_2_00000050642225965542282580000012062040662693769095_">
	<g id="base">
		<rect class="st0" width="837.3" height="1537"/>
	</g>
	<g id="R_arm_09">
		
			<linearGradient id="SVGID_1_" gradientUnits="userSpaceOnUse" x1="-102.2808" y1="963.5762" x2="-21.7808" y2="963.5762" gradientTransform="matrix(1.05 0.2 0.19 -0.98 159.83 1479.65)">
			<stop  offset="1.000000e-02" style="stop-color:#705029"/>
			<stop  offset="1" style="stop-color:#54320C"/>
		</linearGradient>
		<polygon class="st1" points="236.1,528.7 248.2,511.1 320.9,517.5 321.4,539.2 		"/>
		
			<linearGradient id="SVGID_00000170989758849987376450000008222083700707728537_" gradientUnits="userSpaceOnUse" x1="204.5028" y1="488.885" x2="319.89" y2="488.885">
			<stop  offset="0" style="stop-color:#78684D"/>
			<stop  offset="0.5197" style="stop-color:#9C916D"/>
			<stop  offset="0.9934" style="stop-color:#78684D"/>
		</linearGradient>
		<path style="fill-rule:evenodd;clip-rule:evenodd;fill:url(#SVGID_00000170989758849987376450000008222083700707728537_);" d="
			M222.8,412.4c0,0,34.6,19,97.1,4.3c0,0-52.1,33.4-58.5,35c-6,40.6-6.9,91.8-5.4,113.7c-10.5-2.6-23.3-6.8-39.2-12.7
			C186,507.5,222.8,412.4,222.8,412.4z"/>
		
			<linearGradient id="SVGID_00000022547194165115688830000000322922883502506131_" gradientUnits="userSpaceOnUse" x1="-218.0623" y1="557.9618" x2="-137.5623" y2="557.9618" gradientTransform="matrix(0.79 0.72 0.67 -0.74 -70.34 1337.4)">
			<stop  offset="1.000000e-02" style="stop-color:#705029"/>
			<stop  offset="1" style="stop-color:#54320C"/>
		</linearGradient>
		<polygon style="fill:url(#SVGID_00000022547194165115688830000000322922883502506131_);" points="119.2,774.6 138.8,766 
			197.2,809.7 186.2,828.4 		"/>
		<path class="st4" d="M207.3,645.6c0,0,39.4,18.4,41.5,26.2s43.7,24.8,43.7,24.8l-70.5,71.6l-45.7-40.9c0,0,18.1-37.2,18.7-43.4
			S207.3,645.6,207.3,645.6z"/>
		
			<linearGradient id="SVGID_00000045599201866724012460000014144134552364027544_" gradientUnits="userSpaceOnUse" x1="-248.427" y1="659.1476" x2="-166.6816" y2="659.1476" gradientTransform="matrix(0.7382 0.6746 0.6746 -0.7382 -70.7212 1339.5615)">
			<stop  offset="1.000000e-02" style="stop-color:#705029"/>
			<stop  offset="1" style="stop-color:#54320C"/>
		</linearGradient>
		<polygon style="fill:url(#SVGID_00000045599201866724012460000014144134552364027544_);" points="186.8,701.8 195.2,680.2 
			260.8,729.7 244.8,745.9 		"/>
		<g class="st6">
			<path class="st7" d="M213,443.7c0,0,18.8,11.2,44.6,7.1c0,0-1.5,17.2-4.8,38.3c-3.5,35.8-6.4,67.5-4.1,86.5
				c-11.8-2.4-23.4-5.4-34.8-9C185,528.6,213,443.7,213,443.7z"/>
		</g>
		
			<linearGradient id="SVGID_00000000918364958558058050000012555189871047880376_" gradientUnits="userSpaceOnUse" x1="193.8151" y1="512.915" x2="250.58" y2="512.915">
			<stop  offset="0" style="stop-color:#78684D"/>
			<stop  offset="0.5197" style="stop-color:#9C916D"/>
			<stop  offset="0.9934" style="stop-color:#78684D"/>
		</linearGradient>
		<path style="fill-rule:evenodd;clip-rule:evenodd;fill:url(#SVGID_00000000918364958558058050000012555189871047880376_);" d="
			M206,446.9c0,0,18.8,11.2,44.6,7.1c0,0-1.5,17.2-4.8,38.3c-3.5,35.8-6.4,67.5-4.1,86.5c-11.8-2.4-23.4-5.4-34.8-9
			C178,531.9,206,446.9,206,446.9z"/>
	</g>
</g>
</svg>
