<svg xmlns="http://www.w3.org/2000/svg" xmlns:xlink="http://www.w3.org/1999/xlink" viewBox="0 0 837.33 1537"><defs><style>.cls-1{fill:none;}.cls-2{fill:#664d07;}.cls-3,.cls-4,.cls-5,.cls-6,.cls-8{fill-rule:evenodd;}.cls-3{fill:url(#Áåçûìÿííûé_ãðàäèåíò_100);}.cls-4{fill:#0a0a0a;}.cls-5{fill:url(#linear-gradient);}.cls-10,.cls-6{fill:#c69b12;}.cls-7{opacity:0.68;}.cls-8,.cls-9{fill:#7c5f0e;}.cls-11{fill:url(#linear-gradient-2);}</style><linearGradient id="Áåçûìÿííûé_ãðàäèåíò_100" x1="263.67" y1="1361.51" x2="263" y2="1313.72" gradientUnits="userSpaceOnUse"><stop offset="0" stop-color="#ffa486"/><stop offset="1" stop-color="#ffb886"/></linearGradient><linearGradient id="linear-gradient" x1="287.48" y1="1358.28" x2="281.78" y2="1406.22" gradientUnits="userSpaceOnUse"><stop offset="0.01" stop-color="#705029"/><stop offset="1" stop-color="#54320c"/></linearGradient><linearGradient id="linear-gradient-2" x1="507.45" y1="1386.07" x2="555.1" y2="1386.07" xlink:href="#linear-gradient"/></defs><g id="Layer_2" data-name="Layer 2"><g id="base"><rect class="cls-1" width="837.33" height="1537"/></g><g id="Layer_24" data-name="Layer 24"><polygon class="cls-2" points="645.83 1394.29 635.54 1398.03 625.7 1389.7 645.83 1394.29"/><path class="cls-3" d="M240.33,1314l-12.65,35.31s36.74,15.72,50.82,11.23,20.82-11.23,20.82-11.23S258.5,1316.08,240.33,1314Z"/><path class="cls-4" d="M317.22,1386.22c.83,7.45.89,20.65.89,27.56,0,14.11-7.74,21.91-7.74,21.91s-60,.83-85.93,4c-1.71.2-3.33.39-4.7.64-22.39,3.67-41.05,7.93-57,8.86s-50.51-1.22-70.4-21.75a54.94,54.94,0,0,1,3.24-11.31c2.25-5.64,5.92-12.2,11.75-16.76,0,0,31.6-3.43,55.9-16.51a74.41,74.41,0,0,0,11.46-7.44c24.15-19.3,49.61-21.61,49.61-21.61s2.49-8.87,6.28-22.63c1.4-5.1-1-10.69-.14-17.11,1.72-13.7,4.89-21.93,7.62-32.11,2.61-9.71-2.49-22.25.09-32.13.75-2.88-.25-6.42.48-9.26,1.1-4.26,3.47-7.78,3.79-11.88,1.13-14.17,11.56-21.39,13.74-31.37,0,0,59.79,5.91,65.92,4s32.32,4.35,40,4.35l-4.58,43.12-4.65,12.08c-.19,1.65-3.53,8.17-4.34,9.61l-3.41,5.58a48.67,48.67,0,0,0-1.86,5.58l-5.15,7.41a12.23,12.23,0,0,0-.48,3.81l.19,5.9a12.36,12.36,0,0,1-1.78,6.78l-4.28,7.09a12.46,12.46,0,0,0-1.3,3l-1.68,5.84a12.5,12.5,0,0,0-.47,3.8l.26,8.44a12.41,12.41,0,0,1-2.14,7.35l-5.68,8.31S314.77,1363.59,317.22,1386.22Z"/><polygon class="cls-5" points="268.47 1349.6 317.22 1386.22 318.05 1404.52 249.18 1377.06 268.47 1349.6"/><path class="cls-4" d="M687.77,1435.4c.73,14.94-5.73,23.86-5.73,23.86-37.38,15-96.46,8.71-110.86,3.38l0-.05c-1.13-.4-2.2-.79-3.23-1.18-7.2-2.84-12.25-5.44-24.55-11.32-3-1.47-6.27-3.18-9.55-5-12-6.81-24.15-15.09-24.15-15.09-1-5.29-2-7.69-2.5-10.48a41.87,41.87,0,0,1-.34-8.92c.93-18.81,11.64-33.88,11.64-33.88s-25.73-156.45-24.11-160.43c7.68-19,118.3-11,118.3-11,2.45,7.94-8.35,149.63-8.35,149.63l.05.05a74.87,74.87,0,0,0,6.71,13.33l.05,0a143.41,143.41,0,0,0,17.69,23.32c8,8.67,19.74,16.41,30.52,22.44a.15.15,0,0,0,.1,0,251.41,251.41,0,0,0,27.23,13A53,53,0,0,1,687.77,1435.4Z"/><path class="cls-6" d="M181.33,1368.49s47.15-16.88,64.08,25.8l38.21-67.24s-38.49-27.87-71.36-21.06C194.72,1323.24,181.33,1368.49,181.33,1368.49Z"/><g class="cls-7"><path class="cls-8" d="M192.35,1354.17s32.32-9.85,42.35,19.45l27.91-44.07s-25-20-47.4-16.5C202.84,1324.11,192.35,1354.17,192.35,1354.17Z"/></g><path class="cls-6" d="M190.92,1348.84s31.81-11.39,43.24,17.4l25.77-45.36s-26-18.8-48.14-14.21C200,1318.31,190.92,1348.84,190.92,1348.84Z"/><g class="cls-7"><polygon class="cls-9" points="250.67 1208.66 262.62 1213.94 360.4 1221.84 362.12 1205.68 250.67 1208.66"/></g><path class="cls-10" d="M264.39,1183.42s-20.21-7.91-19.76,12.21S264,1209.11,264,1209.11L357.3,1215a9.81,9.81,0,0,0,10.55-9.65v-6.91a8.54,8.54,0,0,0-8.05-8.43Z"/><g class="cls-7"><polygon class="cls-9" points="495.52 1221.78 508.99 1224.97 613.78 1216.28 613.05 1200.03 495.52 1221.78"/></g><path class="cls-10" d="M506.07,1194.53s-22.64-4.4-19,15.39,22.6,10,22.6,10l99.75-10c6.1-.61,10.53-5.8,9.65-11.31l-1.09-6.82c-.7-4.39-5-7.43-9.85-7Z"/><path class="cls-10" d="M539.78,1346s63.35-18.59,74-9.86,32.05,58.2,32.05,58.2-58.05-6.46-79.7,22.85c0,0-14.5-27.39-22-50.9C541.73,1358.74,540.05,1351.64,539.78,1346Z"/><path class="cls-11" d="M511.74,1389.44l33.12-21.82s10.43,27.09,10.24,26.67-47.65,10.23-47.65,10.23Z"/><g class="cls-7"><path class="cls-9" d="M561.43,1354s39.27-11.52,45.88-6.11,19.87,36.08,19.87,36.08-36-4-49.41,14.17c0,0-9-17-13.64-31.56A52.14,52.14,0,0,1,561.43,1354Z"/></g><path class="cls-10" d="M555.43,1349s39.27-11.52,45.88-6.11,19.87,36.08,19.87,36.08-36-4-49.41,14.17c0,0-9-17-13.64-31.56A52.14,52.14,0,0,1,555.43,1349Z"/></g></g></svg>