<svg xmlns="http://www.w3.org/2000/svg" viewBox="0 0 837.33 1537"><defs><style>.cls-1{fill:none;}.cls-2{opacity:0.58;}.cls-3{fill:#897a6e;}.cls-4{fill:#4d4d4d;}.cls-5{fill:#fff;}</style></defs><g id="Layer_2" data-name="Layer 2"><g id="base"><path class="cls-1" d="M0,0V1537H837.33V0Z"/></g><g id="L_arm_06"><g class="cls-2"><path class="cls-3" d="M710.26,785.74h0a9,9,0,0,0-.28-1.27l-.06-.22c0-.11-.07-.24-.11-.35h0a8.16,8.16,0,0,0-6.39-5.54l-13.94-2a8.39,8.39,0,0,0-8.68,5.11l-.4,2.76-1.38.41h0a10.15,10.15,0,0,0-.79-1l-.15-.17-.24-.27h0a8.14,8.14,0,0,0-8.12-2.36l-13.51,4a7.55,7.55,0,0,0-3.32,2,121.11,121.11,0,0,1,4.7,15.61,7.54,7.54,0,0,0,3.77-.11l13.51-4a8.38,8.38,0,0,0,5.75-8.26l.31-.09a8,8,0,0,0,5.93,4.46l13.6,2a8.51,8.51,0,0,0-6.42,6.44l-1.75.07-.41-1.65h0a9.73,9.73,0,0,0-.78-1.12h0a8.22,8.22,0,0,0-8.37-3.1L669,800.43a8.39,8.39,0,0,0-6.09,8l-4.46,1.11a16.15,16.15,0,0,1-.26,3.32c-.26.86-.4,1.4-.42,1.47s-2.22.55-5.45,1.52a2.44,2.44,0,0,0,2.12.51l2-.5,4,2h0c0,.11,0,.23-.05.35s0,.3,0,.45,0,.25,0,.37,0,.3,0,.45v.26h0A8.13,8.13,0,0,0,664.7,827l12.63,6.25a8.15,8.15,0,0,0,8.47-1l1,.78h0a3.4,3.4,0,0,0-.12.34l-.15.43-.09.35c0,.15-.08.3-.11.44l-.06.25h0a8.15,8.15,0,0,0,2.79,8l11.08,8.7a8.37,8.37,0,0,0,10.07-.11l1.36-1.73.44.15h0v.35c0,.15,0,.31,0,.46l0,.36c0,.16,0,.31.05.46s0,.17,0,.25h0c0,.29.1.57.17.85l-1.07,0a8.16,8.16,0,0,0-7,4.92l-1.25-.21h0a9.2,9.2,0,0,0-.25-1.27l-.06-.22a3.57,3.57,0,0,0-.1-.35h0a8.14,8.14,0,0,0-6.27-5.68l-13.89-2.33a8.38,8.38,0,0,0-8.78,4.92l-.37,2.18-.45.08h0a9.67,9.67,0,0,0-.66-1.12l-.13-.18-.21-.3h0a8.12,8.12,0,0,0-7.8-3.25l-13.87,2.45a8.39,8.39,0,0,0-6.63,7.58l.19,1,6.22.72-.49-2.81a3,3,0,0,1,1.69-1L665,855.38a2.92,2.92,0,0,1,1.93.34l-1.85.32a2.48,2.48,0,0,0-1.63,1.13,3,3,0,0,0-.39,2.1,2.7,2.7,0,0,0,3,2.33l1.86-.32a3,3,0,0,1-1.7,1l-13.87,2.45-.2,0c-.9,1.85-1.75,3.57-2.56,5.23a7.49,7.49,0,0,0,3.74.3l13.87-2.45a8.28,8.28,0,0,0,6.49-6.71,8,8,0,0,0,5.74,4.4l13.89,2.33a6.55,6.55,0,0,0,1.16.09l-3.61-.06a8.39,8.39,0,0,0-8,6.19l-1.75,0-.33-1.66h0a9.24,9.24,0,0,0-.71-1.16h0a8.19,8.19,0,0,0-8.19-3.55l-13.83,2.67a8.4,8.4,0,0,0-6.51,7.68l-6.47,1.25c-.9,2-1.79,4-2.69,6.24a1.27,1.27,0,0,0,.28,0l9.95-1.92h0a8.78,8.78,0,0,0,.68,1.1c0,.07.09.13.13.19l.22.3,0,0a8.12,8.12,0,0,0,7.86,3.13l13.82-2.67a8.14,8.14,0,0,0,6.17-5.91l1.26,0h0a9.81,9.81,0,0,0,.44,1.22l.09.21.15.34h0a8.12,8.12,0,0,0,7,4.67l14.09.23a8.4,8.4,0,0,0,8-6.18l0-2.21.44-.15h0a9.78,9.78,0,0,0,.83,1l.15.16.25.27,0,0a8.13,8.13,0,0,0,8.2,2l5.42-1.83c-.28-1.83-.58-3.7-.91-5.64l-6.31,2.13a2.93,2.93,0,0,1-2-.05l1.78-.6a2.39,2.39,0,0,0,1.44-1.36,2.94,2.94,0,0,0,.07-2.13,3.09,3.09,0,0,0-.86-1.3l4.87-.19.33,0c-1-5.59-2.31-11.61-3.87-18.1l-1.16.05.12-.05a3,3,0,0,0,.86-.76c-.35-1.45-.71-2.92-1.09-4.41l-1.72-.58a3,3,0,0,1,1.54-.14q-.69-2.71-1.44-5.53a8.85,8.85,0,0,0-5.23,3.07,8,8,0,0,0-3-6.62l-11.07-8.71a8.4,8.4,0,0,0-10.07.11l-1.38-1.08.75-1.52h0a.76.76,0,0,0,0-.15,11.12,11.12,0,0,0,.12-1.13v-.07h0a8.19,8.19,0,0,0-4.38-7.78l-2.28-1.13,4-1a8.14,8.14,0,0,0,5.84-6.23l1.26,0h0a11.68,11.68,0,0,0,.51,1.2c0,.07.07.13.1.2l.17.33h0a8.1,8.1,0,0,0,7.28,4.29l14.07-.52h0c0-1.9,0-3.78,0-5.66a1.38,1.38,0,0,1-.2,0l-14.07.53a3,3,0,0,1-1.87-.6l1.89-.07a2.42,2.42,0,0,0,1.76-.9,3,3,0,0,0,.67-2,2.7,2.7,0,0,0-2.64-2.73l-1.89.08a2.9,2.9,0,0,1,1.82-.74l14.07-.53a3.59,3.59,0,0,1,.47,0c0-1.89,0-3.77.09-5.63a6.61,6.61,0,0,0-.77,0l-11.58.43a8.83,8.83,0,0,0,5.33-4.82l7.09,1c.05-1.91.11-3.81.17-5.69l-6.44-.93Zm-38.83,1.11a2.43,2.43,0,0,0-1.49,1.3,3,3,0,0,0-.15,2.13,2.7,2.7,0,0,0,3.23,2l1.81-.54a2.89,2.89,0,0,1-1.58,1.16l-13.51,4a3,3,0,0,1-2-.12l-1.6-5.42a3,3,0,0,1,1.58-1.16l13.51-4a2.87,2.87,0,0,1,2,.12ZM675,873.92l-2.25,0a2.44,2.44,0,0,0-1.81.8,3,3,0,0,0-.77,2,2.68,2.68,0,0,0,2.49,2.86l2.73,0a2.62,2.62,0,0,1-1.08.47l-13.83,2.67a3,3,0,0,1-1.94-.3l1.85-.36A2.41,2.41,0,0,0,662,880.9a2.94,2.94,0,0,0,.35-2.1,2.69,2.69,0,0,0-3-2.29l-1.85.35a3,3,0,0,1,1.68-1L673,873.19a3,3,0,0,1,1.94.3Zm4.56-20.51a2.93,2.93,0,0,1,1.93-.36l.23,0-2.17.39Zm.77,6.53a2.86,2.86,0,0,1-1.35-.63l4.8-.85a2.43,2.43,0,0,0,1.63-1.12,3,3,0,0,0-.45-3.7l10.42,1.75a2.86,2.86,0,0,1,1.7,1l-1.85-.31a2.42,2.42,0,0,0-1.91.51,3,3,0,0,0-1.07,1.85,2.7,2.7,0,0,0,2,3.21l1.86.31a3,3,0,0,1-1.93.35Zm26.24,20.13a2.93,2.93,0,0,1-1.85.64h-.24l2.09-.7Zm-4.93-4.37a2.45,2.45,0,0,0-1.44,1.36,3,3,0,0,0,1,3.59l-10.57-.17a3,3,0,0,1-1.83-.69l1.89,0a2.44,2.44,0,0,0,1.81-.8,3,3,0,0,0,.78-2,2.7,2.7,0,0,0-2.5-2.86l-1.89,0a3,3,0,0,1,1.86-.64l14.08.23a2.93,2.93,0,0,1,1.43.41Zm2.23-10.81h0a8.81,8.81,0,0,0,.53,1.26h0a9.08,9.08,0,0,0,1.41,2,6.54,6.54,0,0,0-.89-.09l-10.19-.16a8.58,8.58,0,0,0,7.34-5l1.73.29Zm7.38,6.69c-.19-.26-.38-.53-.59-.77.22,0,.44,0,.66,0C711.29,871.09,711.26,871.33,711.25,871.58Zm6.46-19.81,1.58.53-1.09.05A2.74,2.74,0,0,1,717.71,851.77Zm-38.88-25,2.14,1.68a2.7,2.7,0,0,1-1.14-.28l-12.63-6.24a3,3,0,0,1-1.35-1.42l1.69.84a2.38,2.38,0,0,0,2,0,3,3,0,0,0,1.56-1.46,3,3,0,0,0,.31-1.61,7,7,0,0,0,2.08-.19l1.22-.3,8.24,4.07a2.93,2.93,0,0,1,1.36,1.42l-.19.39-1.77-1.39a2.41,2.41,0,0,0-1.92-.46,3,3,0,0,0-1.82,1.11A2.69,2.69,0,0,0,678.83,826.78Zm26.66,21a2.89,2.89,0,0,1-1.86-.61l-.19-.15,2.1.71Zm17.6,13.56a2.73,2.73,0,0,0,.06.5L716.66,864a7.53,7.53,0,0,0-2.15,1.15l-2.77.11a3,3,0,0,1-1.87-.59v-.43l2.21.37a2.44,2.44,0,0,0,1.91-.52,2.91,2.91,0,0,0,1.06-1.85,2.69,2.69,0,0,0-2-3.2l-2.68-.45a2.76,2.76,0,0,1,1.14-.3l5.27-.22a6.22,6.22,0,0,0,.71.29l5.78,1.94A3.08,3.08,0,0,0,723.09,861.29Zm-26.6-27.81L695,832.31a2.94,2.94,0,0,1,1.86.62l11.08,8.7a2.91,2.91,0,0,1,.89,1.2l-4.63-1.56a2.44,2.44,0,0,0-2,.21,3,3,0,0,0-1.35,1.66,3,3,0,0,0,0,1.81l-8.31-6.53a3,3,0,0,1-1-1.67l1.49,1.17a2.44,2.44,0,0,0,1.92.46,3,3,0,0,0,1.82-1.11A2.69,2.69,0,0,0,696.49,833.48Zm-10.37-30.36-2.24.09a2.37,2.37,0,0,0-1.76.89,3,3,0,0,0-.67,2,2.69,2.69,0,0,0,2.64,2.73l2.72-.1a2.74,2.74,0,0,1-1,.53l-10.43,2.59-1.91-.94.1-.14a3,3,0,0,0,.24-2.12,2.71,2.71,0,0,0-3.15-2.13l-1.83.46a2.9,2.9,0,0,1,1.62-1.09l13.67-3.41a3,3,0,0,1,1.95.2Zm.61-20.81a2.93,2.93,0,0,1,1.53-.41l-1.54.45Zm15.72,2.29a2.42,2.42,0,0,0-1.9.56,3,3,0,0,0-1,1.87,2.71,2.71,0,0,0,2.11,3.16l1.87.27a2.92,2.92,0,0,1-1.92.39l-13.94-2a2.91,2.91,0,0,1-1.23-.51l3.91-1.14a2.43,2.43,0,0,0,1.49-1.3,3,3,0,0,0,.15-2.13,3,3,0,0,0-1-1.5l11.63,1.7a2.89,2.89,0,0,1,1.72.92Z"/><path class="cls-3" d="M640,881.08a3,3,0,0,0,.89,4,30.71,30.71,0,0,0,1.49-5.3l-.77.15A2.41,2.41,0,0,0,640,881.08Z"/><path class="cls-3" d="M715.16,748.17h0l0-.36c0-.15,0-.3,0-.45s0-.24-.05-.37,0-.3-.08-.44,0-.17-.05-.26h0a8.12,8.12,0,0,0-5.76-6.2l-13.63-3.55a8.39,8.39,0,0,0-9.18,4.13l-.71,2.71-1.41.25h0a8.78,8.78,0,0,0-.66-1.11l-.13-.19c-.08-.1-.14-.2-.21-.3h0a8.15,8.15,0,0,0-7.81-3.24l-13.86,2.47a8.38,8.38,0,0,0-6.62,7.59l.13.78a8,8,0,0,0-7.18,1.17l-7.63,5.81,1.69,3.72.69,1.55,8.67-6.59a2.89,2.89,0,0,1,1.87-.58l-1.5,1.14a2.41,2.41,0,0,0-.93,1.74,3,3,0,0,0,.62,2,2.69,2.69,0,0,0,3.73.71l1.5-1.14a2.92,2.92,0,0,1-1.06,1.65l-10,7.61c1.38,3.19,2.73,6.41,4,9.59l8.82-2.2h0a9.59,9.59,0,0,0,.74,1.06l.14.18c.08.09.15.19.23.29l0,0a8.16,8.16,0,0,0,8,2.71l13.67-3.41a8.15,8.15,0,0,0,5.86-6.3l4.39-.49h0A9.65,9.65,0,0,0,692,771l.11.19.19.32h0a8.14,8.14,0,0,0,7.59,3.73l14-1.59a7.53,7.53,0,0,0,3.44-1.29q.39-7.5.86-14.6a7.92,7.92,0,0,0-6-2.26,9.35,9.35,0,0,0,1.51-1.9l4.63,1.21q.2-2.91.38-5.74l-3.59-.93Zm-23-6a3,3,0,0,1,1.57-.25l-1.58.28Zm-31.34,5.61a2.94,2.94,0,0,1,1.7-1l1.31-.23L661,748.75Zm8.59,1.64a2.46,2.46,0,0,0,.94-1.75,3,3,0,0,0-.62-2l-.09-.1,6.74-1.2a2.92,2.92,0,0,1,1.93.34l-1.85.33a2.41,2.41,0,0,0-1.63,1.13,3,3,0,0,0-.38,2.09,2.7,2.7,0,0,0,3,2.34l1.85-.33a3,3,0,0,1-1.69,1l-13.77,2.45ZM657,770.39l-7,1.73,8.45-6.43A9.17,9.17,0,0,0,657,770.39Zm23.29-4.88a2.43,2.43,0,0,0-1.27.93,3,3,0,0,0-.52,2.07,2.83,2.83,0,0,0,2,2.44,2.85,2.85,0,0,1-.65.26l-13.67,3.4a2.91,2.91,0,0,1-2-.2L666,774a2.44,2.44,0,0,0,1.55-1.24,3.05,3.05,0,0,0,.24-2.12,2.7,2.7,0,0,0-3.15-2.12l-1.83.45a2.91,2.91,0,0,1,1.62-1.09l13.67-3.4a2.91,2.91,0,0,1,1.95.2Zm6-.73-.4-1.59h0a8.55,8.55,0,0,0-.77-1.12h0a8.21,8.21,0,0,0-8.37-3.11l-13.67,3.41a7.61,7.61,0,0,0-2.38,1,8.22,8.22,0,0,0,1.28-4.2,7.52,7.52,0,0,0,2.76,0l13.87-2.47a8.4,8.4,0,0,0,6.62-7.59l.3-.05a8,8,0,0,0,5.42,5.08l9.88,2.57-3,.33a8.4,8.4,0,0,0-7.09,7.16ZM715,767.21a3,3,0,0,1-1.75.87l-14,1.58a2.93,2.93,0,0,1-1.9-.45l1.87-.21a2.41,2.41,0,0,0,1.69-1,3,3,0,0,0,.52-2.07,2.7,2.7,0,0,0-2.85-2.51l-1.87.21a2.9,2.9,0,0,1,1.76-.87l14-1.59a2.92,2.92,0,0,1,1.91.46Zm-7.49-21a2.42,2.42,0,0,0-1.94.35,3,3,0,0,0-1.23,1.74,2.71,2.71,0,0,0,1.75,3.38l1.83.47a2.91,2.91,0,0,1-1.95.18l-13.63-3.54a2.89,2.89,0,0,1-1.17-.63l4-.72a2.43,2.43,0,0,0,1.63-1.12,3,3,0,0,0-.45-3.7l11.37,3a2.89,2.89,0,0,1,1.62,1.11Z"/></g><path class="cls-4" d="M680.26,870.19a8.39,8.39,0,0,0-8.9-4.71l-13.83,2.68a8.38,8.38,0,0,0-6.51,7.68l-9.95,1.92a2.41,2.41,0,0,0-1.61,1.15,2.94,2.94,0,0,0-.35,2.1,2.69,2.69,0,0,0,3,2.29l10-1.92a8.37,8.37,0,0,0,8.9,4.7l13.83-2.67a8.38,8.38,0,0,0,6.51-7.68Zm-4.83,6.68a2.9,2.9,0,0,1-1.68,1l-13.83,2.67a2.93,2.93,0,0,1-1.93-.31l1.85-.36a2.41,2.41,0,0,0,1.61-1.15,3,3,0,0,0,.35-2.1,2.7,2.7,0,0,0-3-2.29l-1.85.36a2.9,2.9,0,0,1,1.68-1L672.43,871a2.93,2.93,0,0,1,1.93.31Z"/><path class="cls-5" d="M677.56,876.52c-.12.26-.26.52-.41.78a4,4,0,0,1-.51.75,5.78,5.78,0,0,1-.65.66,4.89,4.89,0,0,1-.77.51,4.61,4.61,0,0,1-.88.35l-1,.33c-.3.12-.58.21-.84.33a15.51,15.51,0,0,0-1.72.8,14.78,14.78,0,0,0,1.89.11c.29,0,.59,0,.9,0l1,0a5.39,5.39,0,0,0,1.18-.22,4.61,4.61,0,0,0,1.17-.55,5.34,5.34,0,0,0,1.76-1.93,4,4,0,0,0,.44-1.17,3.81,3.81,0,0,0,.11-1.09l-1.7.32Z"/><path class="cls-5" d="M657.7,870.56a3.61,3.61,0,0,0-1,.12,4.6,4.6,0,0,0-2,1.05,5,5,0,0,0-1.32,1.94,6.67,6.67,0,0,0-.27,1.09,5.2,5.2,0,0,0,0,.67l1.58-.3a5.68,5.68,0,0,1,.28-.55,7.35,7.35,0,0,1,1-1.33,5.51,5.51,0,0,1,1.28-1,6.84,6.84,0,0,1,.72-.34c.26-.11.52-.21.74-.32a9.15,9.15,0,0,0,1.5-.83,11.52,11.52,0,0,0-1.7-.2Z"/><path class="cls-5" d="M652.08,881.38a10.83,10.83,0,0,0,1,1.59l5.24-2.56a1.76,1.76,0,0,1-.37-.17Z"/><path class="cls-5" d="M680.27,870.19a8,8,0,0,0-.72-1.16l-5.48,2.16a1.35,1.35,0,0,1,.3.14Z"/><path class="cls-4" d="M712.11,872.35a8.39,8.39,0,0,0-7.74-6.43l-14.09-.22a8.39,8.39,0,0,0-7.95,6.18l-10.13-.16a2.43,2.43,0,0,0-1.81.79,3,3,0,0,0-.78,2,2.7,2.7,0,0,0,2.5,2.86l10.13.16A8.4,8.4,0,0,0,690,884l14.08.22A8.38,8.38,0,0,0,712,878ZM706,877.9a3,3,0,0,1-1.86.64l-14.08-.22a2.94,2.94,0,0,1-1.83-.7l1.88,0a2.39,2.39,0,0,0,1.81-.8,3,3,0,0,0,.78-2,2.7,2.7,0,0,0-2.5-2.87l-1.88,0a3,3,0,0,1,1.85-.63l14.09.22a2.93,2.93,0,0,1,1.83.7Z"/><path class="cls-5" d="M708.17,878c-.17.22-.36.45-.56.67a4.37,4.37,0,0,1-.65.64,4.92,4.92,0,0,1-.78.5,4.31,4.31,0,0,1-.86.35,5.15,5.15,0,0,1-.93.16l-1,.13c-.31.06-.61.08-.89.15a17.09,17.09,0,0,0-1.85.43,14.69,14.69,0,0,0,1.84.5l.88.17c.32.06.65.12,1,.16a5,5,0,0,0,2.46-.26,5.62,5.62,0,0,0,2.13-1.53,4.22,4.22,0,0,0,.67-1.06,3.91,3.91,0,0,0,.33-1l-1.74,0A.21.21,0,0,1,708.17,878Z"/><path class="cls-5" d="M690,868.09a3.51,3.51,0,0,0-1-.09,4.57,4.57,0,0,0-2.15.62,5,5,0,0,0-1.69,1.63,6.22,6.22,0,0,0-.49,1c-.07.23-.12.45-.16.65l1.61,0a5.71,5.71,0,0,1,.39-.47,6.83,6.83,0,0,1,1.23-1.11,5.77,5.77,0,0,1,1.46-.7c.26-.08.48-.12.77-.18s.55-.1.79-.16a10.53,10.53,0,0,0,1.64-.5,10.52,10.52,0,0,0-1.62-.55Z"/><path class="cls-5" d="M682.24,877.52a9.67,9.67,0,0,0,.68,1.77l5.65-1.43a1.49,1.49,0,0,1-.32-.24Z"/><path class="cls-5" d="M712.12,872.35a8.13,8.13,0,0,0-.46-1.28l-5.81,1a1.64,1.64,0,0,1,.26.2Z"/><path class="cls-4" d="M738.91,860.78a8.39,8.39,0,0,0-9.46-3.47l-13.34,4.5a8.39,8.39,0,0,0-5.42,8.49l-9.6,3.24a2.38,2.38,0,0,0-1.44,1.35,2.94,2.94,0,0,0-.07,2.13,2.7,2.7,0,0,0,3.31,1.87l9.6-3.24a8.38,8.38,0,0,0,9.46,3.46l13.34-4.5a8.37,8.37,0,0,0,5.42-8.48ZM735,868.05a2.94,2.94,0,0,1-1.53,1.22l-13.35,4.5a3,3,0,0,1-1.95,0l1.78-.61a2.4,2.4,0,0,0,1.44-1.35,3,3,0,0,0,.07-2.13,2.71,2.71,0,0,0-3.31-1.87l-1.79.61a3,3,0,0,1,1.53-1.23l13.35-4.5a2.93,2.93,0,0,1,2,.05Z"/><path class="cls-5" d="M737.08,867.42c-.09.26-.19.54-.3.82a4.35,4.35,0,0,1-.4.81,5.13,5.13,0,0,1-.56.74,4.78,4.78,0,0,1-1.52,1.08c-.31.15-.61.3-.9.46s-.55.28-.79.43a16.27,16.27,0,0,0-1.6,1,15.85,15.85,0,0,0,1.9-.15c.28,0,.57-.08.89-.13l1-.18a5.59,5.59,0,0,0,1.14-.37,5,5,0,0,0,1.08-.7,5.45,5.45,0,0,0,1.5-2.15,4.12,4.12,0,0,0,.27-1.23,3.94,3.94,0,0,0,0-1.09l-1.65.55Z"/><path class="cls-5" d="M716.6,864.17a3.79,3.79,0,0,0-1,.25,4.58,4.58,0,0,0-1.82,1.3,5.06,5.06,0,0,0-1.05,2.11,4.91,4.91,0,0,0-.12,1.12,4.45,4.45,0,0,0,.07.66l1.52-.51c.06-.19.13-.39.21-.58a7.05,7.05,0,0,1,.79-1.45,5.14,5.14,0,0,1,1.14-1.14,6,6,0,0,1,.67-.44l.68-.41a10.08,10.08,0,0,0,1.38-1,10.88,10.88,0,0,0-1.71,0C717.15,864.1,716.88,864.14,716.6,864.17Z"/><path class="cls-5" d="M712.49,875.65a10,10,0,0,0,1.23,1.43l4.85-3.24a1.9,1.9,0,0,1-.39-.11Z"/><path class="cls-5" d="M738.91,860.77a7.88,7.88,0,0,0-.86-1l-5.14,2.88a1.81,1.81,0,0,1,.31.09Z"/><path class="cls-4" d="M703.32,862.73a8.38,8.38,0,0,0,8.1,6l14.07-.57a8.4,8.4,0,0,0,7.59-6.62l10.12-.41a2.42,2.42,0,0,0,1.76-.9,3,3,0,0,0,.67-2,2.7,2.7,0,0,0-2.66-2.72l-10.12.41a8.41,8.41,0,0,0-8.1-6l-14.07.57a8.39,8.39,0,0,0-7.59,6.62Zm5.77-5.89a2.93,2.93,0,0,1,1.81-.74l14.08-.57a2.91,2.91,0,0,1,1.86.59l-1.88.08a2.42,2.42,0,0,0-1.76.9,3,3,0,0,0-.67,2,2.7,2.7,0,0,0,2.66,2.72l1.88-.08a2.92,2.92,0,0,1-1.81.75l-14.07.57a3,3,0,0,1-1.87-.6Z"/><path class="cls-5" d="M706.94,856.87c.15-.23.33-.48.51-.71a4.29,4.29,0,0,1,.62-.66,4.19,4.19,0,0,1,.75-.56,5.33,5.33,0,0,1,.84-.39,5.91,5.91,0,0,1,.92-.22c.34-.05.67-.12,1-.18s.6-.12.88-.2a17.48,17.48,0,0,0,1.82-.53,14.47,14.47,0,0,0-1.86-.4c-.28,0-.58-.07-.89-.12l-1-.11a6.17,6.17,0,0,0-1.2,0,4.76,4.76,0,0,0-1.24.37,5.46,5.46,0,0,0-2,1.64,4.58,4.58,0,0,0-.61,1.1,4.24,4.24,0,0,0-.27,1.06l1.73-.07Z"/><path class="cls-5" d="M725.68,865.74a4.07,4.07,0,0,0,1,0,4.66,4.66,0,0,0,2.11-.74,5.08,5.08,0,0,0,1.6-1.73,5.72,5.72,0,0,0,.43-1,5.63,5.63,0,0,0,.12-.65l-1.61.06a5.74,5.74,0,0,1-.36.5,7.49,7.49,0,0,1-1.16,1.16,5.52,5.52,0,0,1-1.42.79,5,5,0,0,1-.77.22l-.77.21a9.88,9.88,0,0,0-1.61.59,10.61,10.61,0,0,0,1.65.45C725.13,865.65,725.4,865.69,725.68,865.74Z"/><path class="cls-5" d="M732.85,855.88a10,10,0,0,0-.78-1.73l-5.56,1.75a1.79,1.79,0,0,1,.34.22Z"/><path class="cls-5" d="M703.31,862.73a9.19,9.19,0,0,0,.53,1.25l5.75-1.31a2.31,2.31,0,0,1-.28-.19Z"/><path class="cls-4" d="M672.15,855.82a8.39,8.39,0,0,0,6.7,7.52l13.89,2.33a8.39,8.39,0,0,0,8.78-4.93l10,1.68a2.37,2.37,0,0,0,1.9-.52,3,3,0,0,0,1.07-1.84,2.7,2.7,0,0,0-2-3.21l-10-1.67a8.38,8.38,0,0,0-6.7-7.52l-13.89-2.33a8.39,8.39,0,0,0-8.79,4.92Zm6.86-4.58a2.91,2.91,0,0,1,1.92-.35l13.89,2.33a2.94,2.94,0,0,1,1.71,1l-1.86-.31a2.4,2.4,0,0,0-1.91.52,2.91,2.91,0,0,0-1.06,1.84,2.7,2.7,0,0,0,2,3.21l1.86.31a2.94,2.94,0,0,1-1.93.35l-13.89-2.33a2.92,2.92,0,0,1-1.71-1Z"/><path class="cls-5" d="M676.9,850.83c.2-.2.42-.4.64-.59a4.36,4.36,0,0,1,.75-.52,4.28,4.28,0,0,1,.84-.39,4.05,4.05,0,0,1,.9-.21,5,5,0,0,1,1,0l1,0c.31,0,.61,0,.9,0a16.43,16.43,0,0,0,1.89-.15,15.4,15.4,0,0,0-1.74-.76c-.26-.11-.55-.2-.85-.31l-1-.31a5.28,5.28,0,0,0-1.18-.2,4.69,4.69,0,0,0-1.29.1,5.39,5.39,0,0,0-2.33,1.19,4.14,4.14,0,0,0-.83,1,3.86,3.86,0,0,0-.48,1l1.71.29S676.87,850.84,676.9,850.83Z"/><path class="cls-5" d="M693.42,863.35a3.72,3.72,0,0,0,1,.24,4.64,4.64,0,0,0,2.21-.29,5,5,0,0,0,1.92-1.36,6,6,0,0,0,.64-.93,4.47,4.47,0,0,0,.25-.62l-1.58-.27a5.87,5.87,0,0,1-.46.41,6.73,6.73,0,0,1-1.38.91,5.13,5.13,0,0,1-1.55.47,6.45,6.45,0,0,1-.79.07l-.8,0a10.47,10.47,0,0,0-1.7.25,10.79,10.79,0,0,0,1.52.78Z"/><path class="cls-5" d="M702.46,855.18a10.15,10.15,0,0,0-.41-1.85l-5.8.57a1.92,1.92,0,0,1,.29.28Z"/><path class="cls-5" d="M672.14,855.81a9.62,9.62,0,0,0,.26,1.34l5.9-.11a1.67,1.67,0,0,1-.23-.23Z"/><path class="cls-4" d="M643.92,863.25a8.4,8.4,0,0,0,8.83,4.85l13.87-2.46a8.39,8.39,0,0,0,6.63-7.58l10-1.76a2.4,2.4,0,0,0,1.62-1.13,2.93,2.93,0,0,0,.39-2.1,2.69,2.69,0,0,0-3-2.33l-10,1.76a8.4,8.4,0,0,0-8.83-4.84l-13.87,2.45a8.39,8.39,0,0,0-6.63,7.58Zm4.93-6.6a2.94,2.94,0,0,1,1.7-1l13.87-2.46a2.92,2.92,0,0,1,1.93.34l-1.86.33a2.39,2.39,0,0,0-1.62,1.12,3,3,0,0,0-.39,2.1,2.7,2.7,0,0,0,3,2.34l1.85-.33a3,3,0,0,1-1.69,1l-13.87,2.45a3,3,0,0,1-1.93-.33Z"/><path class="cls-5" d="M646.72,857c.13-.25.27-.51.42-.77a4.12,4.12,0,0,1,.52-.74,4.58,4.58,0,0,1,.67-.65,4,4,0,0,1,.78-.5A5.37,5.37,0,0,1,650,854l1-.31c.3-.12.58-.2.84-.32a16.44,16.44,0,0,0,1.74-.77,15.41,15.41,0,0,0-1.9-.14h-.9l-1,0a5.3,5.3,0,0,0-1.18.2,5,5,0,0,0-1.18.53,5.51,5.51,0,0,0-1.79,1.9,4,4,0,0,0-.46,1.17,4.21,4.21,0,0,0-.13,1.09l1.71-.3Z"/><path class="cls-5" d="M666.49,863.23a3.54,3.54,0,0,0,1-.1,4.65,4.65,0,0,0,2-1,5,5,0,0,0,1.35-1.93,5.69,5.69,0,0,0,.29-1.09,5.09,5.09,0,0,0,0-.66l-1.58.28a5.54,5.54,0,0,1-.3.53,6.7,6.7,0,0,1-1,1.32,5.47,5.47,0,0,1-1.3,1,4.89,4.89,0,0,1-.73.33c-.26.11-.51.2-.74.31a10.19,10.19,0,0,0-1.51.8,10.4,10.4,0,0,0,1.69.23C665.93,863.22,666.2,863.22,666.49,863.23Z"/><path class="cls-5" d="M672.27,852.5a10.78,10.78,0,0,0-1-1.6L666,853.38a1.49,1.49,0,0,1,.36.17Z"/><path class="cls-5" d="M643.92,863.25a8,8,0,0,0,.69,1.17l5.52-2.07a2,2,0,0,1-.3-.14Z"/><path class="cls-4" d="M689.11,823.83a8.38,8.38,0,0,0-4.24-9.13l-12.62-6.24a8.4,8.4,0,0,0-9.84,2.17l-9.08-4.49a2.44,2.44,0,0,0-2-.06,3,3,0,0,0-1.55,1.46,2.7,2.7,0,0,0,1,3.66l9.08,4.49a8.39,8.39,0,0,0,4.24,9.14l12.62,6.24a8.4,8.4,0,0,0,9.84-2.17Zm-7.89,2.4a2.93,2.93,0,0,1-2-.22l-12.62-6.24a2.93,2.93,0,0,1-1.35-1.41l1.68.83a2.44,2.44,0,0,0,2,.06,3.07,3.07,0,0,0,1.56-1.46,2.7,2.7,0,0,0-1-3.66l-1.69-.84a3,3,0,0,1,2,.22l12.62,6.25a2.89,2.89,0,0,1,1.35,1.41Z"/><path class="cls-5" d="M683.12,827.24a7.23,7.23,0,0,1-.79.37,4.14,4.14,0,0,1-.86.29,4.74,4.74,0,0,1-.92.13,4.69,4.69,0,0,1-.92-.06,5.76,5.76,0,0,1-.92-.25c-.32-.11-.64-.22-1-.31s-.59-.19-.87-.25a16.26,16.26,0,0,0-1.85-.41,13.44,13.44,0,0,0,1.44,1.24c.22.18.47.35.72.54l.83.57a4.87,4.87,0,0,0,1.07.54,4.8,4.8,0,0,0,1.26.27,5.41,5.41,0,0,0,2.58-.46,4.14,4.14,0,0,0,1.06-.67,3.93,3.93,0,0,0,.74-.8l-1.55-.77Z"/><path class="cls-5" d="M670.93,810.47a4.43,4.43,0,0,0-.87-.5,4.57,4.57,0,0,0-2.2-.36,4.93,4.93,0,0,0-2.23.75,5.64,5.64,0,0,0-.88.7,6.38,6.38,0,0,0-.42.52l1.44.71.56-.26a7.59,7.59,0,0,1,1.58-.47,5.5,5.5,0,0,1,1.62,0,5,5,0,0,1,.78.17c.27.06.53.14.78.19a10.44,10.44,0,0,0,1.69.25,10.49,10.49,0,0,0-1.23-1.19Z"/><path class="cls-5" d="M659.91,815.69a10.1,10.1,0,0,0-.15,1.89l5.72,1.13a1.55,1.55,0,0,1-.19-.36Z"/><path class="cls-5" d="M689.11,823.84a9,9,0,0,0,.14-1.36l-5.67-1.6a1.59,1.59,0,0,1,.15.29Z"/><path class="cls-4" d="M713.15,844.84a8.39,8.39,0,0,0-2.27-9.81l-11.08-8.7a8.36,8.36,0,0,0-10.06.11l-8-6.27a2.45,2.45,0,0,0-1.92-.46,3,3,0,0,0-1.83,1.11,2.7,2.7,0,0,0,.26,3.79l8,6.26a8.38,8.38,0,0,0,2.27,9.81l11.07,8.71a8.4,8.4,0,0,0,10.07-.11Zm-8.21.73a2.94,2.94,0,0,1-1.86-.62L692,836.25a2.92,2.92,0,0,1-1-1.66l1.48,1.16a2.43,2.43,0,0,0,1.93.46,3,3,0,0,0,1.82-1.11,2.7,2.7,0,0,0-.26-3.79l-1.48-1.16a2.87,2.87,0,0,1,1.86.61l11.07,8.7a2.92,2.92,0,0,1,1,1.67Z"/><path class="cls-5" d="M706.59,846.94a6.88,6.88,0,0,1-.84.2,3.44,3.44,0,0,1-.91.11,4.69,4.69,0,0,1-.92-.06,4.62,4.62,0,0,1-.9-.25,5.15,5.15,0,0,1-.84-.43l-.87-.51c-.29-.14-.54-.3-.8-.41a15.3,15.3,0,0,0-1.73-.78,14.72,14.72,0,0,0,1.16,1.5c.18.22.39.44.59.68l.7.73a5.63,5.63,0,0,0,.93.75,4.81,4.81,0,0,0,1.18.52,5.41,5.41,0,0,0,2.62.07,4,4,0,0,0,1.18-.43A3.68,3.68,0,0,0,708,848l-1.36-1.07Z"/><path class="cls-5" d="M698.1,828a4.06,4.06,0,0,0-.74-.67,4.61,4.61,0,0,0-2.08-.81,5,5,0,0,0-2.34.28,5.51,5.51,0,0,0-1,.51,4.53,4.53,0,0,0-.52.42l1.26,1,.6-.14a6.94,6.94,0,0,1,1.64-.13,5.62,5.62,0,0,1,1.59.32,5.17,5.17,0,0,1,.73.33c.25.12.49.25.72.35a11.07,11.07,0,0,0,1.61.59,11.14,11.14,0,0,0-1-1.42C698.46,828.45,698.28,828.25,698.1,828Z"/><path class="cls-5" d="M686.24,830.87a10.13,10.13,0,0,0-.52,1.82l5.36,2.28a1.6,1.6,0,0,1-.11-.39Z"/><path class="cls-5" d="M713.16,844.84a8.19,8.19,0,0,0,.41-1.3l-5.23-2.73a1.68,1.68,0,0,1,.09.32Z"/><path class="cls-4" d="M741.49,851.84a8.38,8.38,0,0,0-5.43-8.48l-13.34-4.49a8.39,8.39,0,0,0-9.46,3.47l-9.6-3.23a2.43,2.43,0,0,0-2,.2,3,3,0,0,0-1.34,1.66,2.7,2.7,0,0,0,1.51,3.49l9.6,3.23a8.38,8.38,0,0,0,5.43,8.48l13.35,4.5a8.39,8.39,0,0,0,9.45-3.48Zm-7.5,3.44a3,3,0,0,1-2,0l-13.35-4.49a2.94,2.94,0,0,1-1.53-1.22l1.78.6a2.42,2.42,0,0,0,2-.21,3,3,0,0,0,1.34-1.66,2.69,2.69,0,0,0-1.51-3.48l-1.78-.6a2.93,2.93,0,0,1,2,0l13.34,4.49a2.94,2.94,0,0,1,1.54,1.23Z"/><path class="cls-5" d="M736,856c-.23.16-.48.32-.74.47a4.11,4.11,0,0,1-.81.41,4.62,4.62,0,0,1-.9.25,4.74,4.74,0,0,1-.92.06,5.26,5.26,0,0,1-.94-.12l-1-.18c-.32,0-.61-.11-.89-.13a17.48,17.48,0,0,0-1.89-.16,14.26,14.26,0,0,0,1.59,1l.79.43.9.46a5.54,5.54,0,0,0,1.13.39,5,5,0,0,0,1.29.1,5.47,5.47,0,0,0,2.49-.81,4.39,4.39,0,0,0,1-.8,4,4,0,0,0,.63-.9l-1.64-.55Z"/><path class="cls-5" d="M721.68,841a4.1,4.1,0,0,0-.92-.38,4.56,4.56,0,0,0-2.24-.07,4.94,4.94,0,0,0-2.11,1,5.31,5.31,0,0,0-.77.81,5.17,5.17,0,0,0-.35.57l1.52.51c.17-.11.34-.23.52-.33a7,7,0,0,1,1.5-.67,5.55,5.55,0,0,1,1.61-.23,5.64,5.64,0,0,1,.79.07l.8.08a10.07,10.07,0,0,0,1.71,0,9.8,9.8,0,0,0-1.38-1C722.16,841.32,721.92,841.19,721.68,841Z"/><path class="cls-5" d="M711.46,847.69a9.9,9.9,0,0,0,.11,1.89l5.82.35a1.57,1.57,0,0,1-.24-.32Z"/><path class="cls-5" d="M741.5,851.84a10.31,10.31,0,0,0,0-1.36l-5.84-.82a1.31,1.31,0,0,1,.19.27Z"/><path class="cls-4" d="M691.3,799.09a8.4,8.4,0,0,0-9.15-4.23l-13.66,3.41a8.37,8.37,0,0,0-6.09,8l-9.84,2.45A2.35,2.35,0,0,0,651,810a3,3,0,0,0-.24,2.12,2.69,2.69,0,0,0,3.15,2.12l9.83-2.45A8.39,8.39,0,0,0,672.9,816l13.67-3.41a8.37,8.37,0,0,0,6.09-8ZM686.83,806a3,3,0,0,1-1.62,1.09l-13.67,3.4a2.91,2.91,0,0,1-1.95-.2l1.83-.45a2.4,2.4,0,0,0,1.54-1.24,3,3,0,0,0,.24-2.12,2.69,2.69,0,0,0-3.15-2.12l-1.82.45a2.91,2.91,0,0,1,1.62-1.09l13.67-3.41a3,3,0,0,1,2,.21Z"/><path class="cls-5" d="M688.93,805.56a7.79,7.79,0,0,1-.36.79,4,4,0,0,1-.47.78,4,4,0,0,1-.62.69,4.44,4.44,0,0,1-.74.55,4.26,4.26,0,0,1-.86.4l-.93.38c-.29.14-.57.24-.82.38a15.6,15.6,0,0,0-1.68.89,14.71,14.71,0,0,0,1.9,0l.9-.06,1-.1a5.49,5.49,0,0,0,1.17-.28,4.67,4.67,0,0,0,1.14-.61,5.59,5.59,0,0,0,1.66-2,4.52,4.52,0,0,0,.43-2.29l-1.69.42A.36.36,0,0,1,688.93,805.56Z"/><path class="cls-5" d="M668.79,800.66a4.28,4.28,0,0,0-1,.17,4.54,4.54,0,0,0-1.91,1.15,5,5,0,0,0-1.22,2,4.85,4.85,0,0,0-.21,1.1,4.94,4.94,0,0,0,0,.67l1.56-.39a5.69,5.69,0,0,1,.26-.56,7.27,7.27,0,0,1,.9-1.38,5.57,5.57,0,0,1,1.23-1.05,5.75,5.75,0,0,1,.7-.37l.72-.36a11.11,11.11,0,0,0,1.46-.91,10.7,10.7,0,0,0-1.71-.11Z"/><path class="cls-5" d="M663.76,811.77a10.47,10.47,0,0,0,1.11,1.53l5.09-2.84a1.31,1.31,0,0,1-.37-.15Z"/><path class="cls-5" d="M691.3,799.08a8.55,8.55,0,0,0-.77-1.12l-5.36,2.45a1.94,1.94,0,0,1,.3.13Z"/><path class="cls-4" d="M723.22,799.55a8.38,8.38,0,0,0-8.08-6l-14.08.53a8.37,8.37,0,0,0-7.6,6.59l-10.13.38a2.48,2.48,0,0,0-1.77.89,3,3,0,0,0-.67,2,2.69,2.69,0,0,0,2.65,2.72l10.13-.37a8.38,8.38,0,0,0,8.08,6l14.07-.52a8.39,8.39,0,0,0,7.61-6.6Zm-5.79,5.87a3,3,0,0,1-1.82.73l-14.07.53a2.91,2.91,0,0,1-1.87-.6l1.88-.07a2.46,2.46,0,0,0,1.77-.89,3,3,0,0,0,.67-2,2.7,2.7,0,0,0-2.65-2.72l-1.88.07a2.93,2.93,0,0,1,1.81-.74l14.08-.52a2.91,2.91,0,0,1,1.86.59Z"/><path class="cls-5" d="M719.58,805.4c-.16.23-.33.47-.52.7a4.32,4.32,0,0,1-.62.67,4.38,4.38,0,0,1-.74.54,4.82,4.82,0,0,1-1.77.61c-.34.05-.67.12-1,.18s-.61.11-.88.2a15.49,15.49,0,0,0-1.82.52,14,14,0,0,0,1.86.4c.27,0,.57.08.89.13l1,.11a4.84,4.84,0,0,0,1.19,0,4.2,4.2,0,0,0,1.24-.36,5.39,5.39,0,0,0,2.05-1.64,4.05,4.05,0,0,0,.61-1.09,3.85,3.85,0,0,0,.27-1.06l-1.73.06S719.6,805.38,719.58,805.4Z"/><path class="cls-5" d="M700.86,796.47a3.54,3.54,0,0,0-1,0,4.49,4.49,0,0,0-2.11.73,4.9,4.9,0,0,0-1.61,1.72,5.72,5.72,0,0,0-.43,1,4.08,4.08,0,0,0-.12.65l1.6-.06a5.25,5.25,0,0,1,.37-.49,6.7,6.7,0,0,1,1.16-1.16,5.2,5.2,0,0,1,1.42-.78,5,5,0,0,1,.77-.22l.77-.21a9.88,9.88,0,0,0,1.61-.59,10.78,10.78,0,0,0-1.65-.46Z"/><path class="cls-5" d="M693.66,806.31a10.28,10.28,0,0,0,.78,1.72L700,806.3a1.11,1.11,0,0,1-.34-.22Z"/><path class="cls-5" d="M723.22,799.55a8,8,0,0,0-.52-1.25L717,799.59l.27.18Z"/><path class="cls-4" d="M679.42,784.87a8.39,8.39,0,0,0,6.86,7.37l13.93,2a8.4,8.4,0,0,0,8.68-5.11l10,1.46a2.43,2.43,0,0,0,1.9-.56,3,3,0,0,0,1-1.87,2.69,2.69,0,0,0-2.11-3.16l-10-1.46a8.38,8.38,0,0,0-6.86-7.37l-13.93-2a8.4,8.4,0,0,0-8.68,5.11Zm6.76-4.72a2.89,2.89,0,0,1,1.91-.4l13.94,2a3,3,0,0,1,1.73.92l-1.87-.27A2.41,2.41,0,0,0,700,783a3,3,0,0,0-1,1.87,2.7,2.7,0,0,0,2.11,3.16l1.87.27a2.93,2.93,0,0,1-1.92.4l-13.94-2a3,3,0,0,1-1.73-.93Z"/><path class="cls-5" d="M684.06,779.78c.19-.2.41-.41.63-.6a3.83,3.83,0,0,1,.73-.54,4.57,4.57,0,0,1,.83-.41,5,5,0,0,1,.9-.23,5.86,5.86,0,0,1,1,0h1c.32,0,.61,0,.9,0a15.56,15.56,0,0,0,1.89-.19,16.48,16.48,0,0,0-1.76-.72c-.27-.11-.55-.19-.85-.29l-1-.29a5.22,5.22,0,0,0-1.18-.18,4.75,4.75,0,0,0-1.29.13,5.48,5.48,0,0,0-2.3,1.24,4.31,4.31,0,0,0-.8,1,3.67,3.67,0,0,0-.46,1l1.71.25S684,779.79,684.06,779.78Z"/><path class="cls-5" d="M700.85,791.94a3.75,3.75,0,0,0,1,.22,4.66,4.66,0,0,0,2.21-.34,5,5,0,0,0,1.89-1.41,5.38,5.38,0,0,0,.61-.94,3.43,3.43,0,0,0,.24-.62l-1.59-.23-.45.42a7,7,0,0,1-1.35.93,5.47,5.47,0,0,1-1.54.51,6.4,6.4,0,0,1-.79.08c-.29,0-.56,0-.8.06a9.87,9.87,0,0,0-1.69.29,11.26,11.26,0,0,0,1.54.75Z"/><path class="cls-5" d="M709.71,783.57a10.3,10.3,0,0,0-.45-1.84l-5.79.7a1.1,1.1,0,0,1,.29.28Z"/><path class="cls-5" d="M679.41,784.87a9.83,9.83,0,0,0,.29,1.33l5.89-.24a1.25,1.25,0,0,1-.23-.23Z"/><path class="cls-4" d="M651.47,796.28a8.37,8.37,0,0,0,9.31,3.83l13.51-4a8.39,8.39,0,0,0,5.75-8.27l9.72-2.86a2.41,2.41,0,0,0,1.49-1.3,3,3,0,0,0,.16-2.13,2.71,2.71,0,0,0-3.24-2l-9.72,2.86a8.39,8.39,0,0,0-9.31-3.83l-13.52,4a8.39,8.39,0,0,0-5.74,8.27Zm4.17-7.11a2.89,2.89,0,0,1,1.58-1.16l13.51-4a3,3,0,0,1,1.95.12l-1.8.53a2.43,2.43,0,0,0-1.5,1.3,3,3,0,0,0-.15,2.13,2.71,2.71,0,0,0,3.24,2l1.81-.53a3,3,0,0,1-1.58,1.16l-13.51,4a2.93,2.93,0,0,1-2-.12Z"/><path class="cls-5" d="M653.56,789.71a7.53,7.53,0,0,1,.33-.8,4.11,4.11,0,0,1,.43-.8,5.79,5.79,0,0,1,.59-.72,4.46,4.46,0,0,1,.72-.58,5.12,5.12,0,0,1,.84-.44l.92-.42c.28-.14.55-.26.8-.4a17.14,17.14,0,0,0,1.64-1,14.12,14.12,0,0,0-1.9.07l-.9.09-1,.14a5.44,5.44,0,0,0-1.15.33,4.71,4.71,0,0,0-1.12.66A5.38,5.38,0,0,0,652.2,788a4,4,0,0,0-.33,1.21,4,4,0,0,0,0,1.09l1.66-.48A.26.26,0,0,1,653.56,789.71Z"/><path class="cls-5" d="M673.89,793.76a4.32,4.32,0,0,0,1-.21,4.62,4.62,0,0,0,1.86-1.23,5.1,5.1,0,0,0,1.14-2.07,5.5,5.5,0,0,0,.16-1.11,4.59,4.59,0,0,0,0-.66l-1.54.45q-.11.29-.24.57a7.19,7.19,0,0,1-.84,1.41,5.39,5.39,0,0,1-1.18,1.11,6.56,6.56,0,0,1-.69.4c-.25.14-.49.26-.7.39a9.54,9.54,0,0,0-1.42,1,11.69,11.69,0,0,0,1.71,0C673.34,793.81,673.61,793.78,673.89,793.76Z"/><path class="cls-5" d="M678.45,782.45a10.58,10.58,0,0,0-1.17-1.48l-5,3a1.38,1.38,0,0,1,.39.13Z"/><path class="cls-5" d="M651.46,796.28a9.7,9.7,0,0,0,.82,1.09l5.26-2.68a1.28,1.28,0,0,1-.31-.11Z"/><path class="cls-4" d="M685.31,761a8.37,8.37,0,0,0-9.14-4.22l-13.66,3.4a8.38,8.38,0,0,0-6.09,8l-9.84,2.45A2.41,2.41,0,0,0,645,771.9a3,3,0,0,0-.24,2.12,2.69,2.69,0,0,0,3.15,2.13l9.83-2.45a8.38,8.38,0,0,0,9.14,4.22l13.67-3.4a8.39,8.39,0,0,0,6.09-8ZM680.85,768a2.89,2.89,0,0,1-1.63,1.09l-13.66,3.41a3,3,0,0,1-1.95-.2l1.83-.46a2.4,2.4,0,0,0,1.54-1.24,2.91,2.91,0,0,0,.24-2.11,2.69,2.69,0,0,0-3.15-2.13l-1.83.46a3,3,0,0,1,1.63-1.1l13.67-3.4a2.91,2.91,0,0,1,2,.2Z"/><path class="cls-5" d="M683,767.49c-.1.26-.23.53-.36.79a3.44,3.44,0,0,1-.47.78,3.69,3.69,0,0,1-.62.69,5,5,0,0,1-.74.56,5.71,5.71,0,0,1-.86.4c-.32.12-.63.25-.93.38s-.57.23-.82.37a15.6,15.6,0,0,0-1.68.89,14.71,14.71,0,0,0,1.9,0l.9-.06c.33,0,.66-.06,1-.1a5.07,5.07,0,0,0,1.17-.28,4.67,4.67,0,0,0,1.14-.61,5.42,5.42,0,0,0,1.66-2,4,4,0,0,0,.37-1.2,3.68,3.68,0,0,0,0-1.09l-1.68.42S683,767.47,683,767.49Z"/><path class="cls-5" d="M662.8,762.59a3.71,3.71,0,0,0-1,.18,4.53,4.53,0,0,0-1.92,1.15,4.91,4.91,0,0,0-1.21,2,5.06,5.06,0,0,0-.21,1.1,4.89,4.89,0,0,0,0,.67l1.56-.39c.08-.18.16-.37.26-.55a6.69,6.69,0,0,1,.9-1.38,5.36,5.36,0,0,1,1.23-1.06,5.75,5.75,0,0,1,.7-.37l.72-.36a10,10,0,0,0,1.46-.91,10.7,10.7,0,0,0-1.71-.11Z"/><path class="cls-5" d="M657.77,773.7a10.74,10.74,0,0,0,1.12,1.53l5.09-2.84a2,2,0,0,1-.38-.14Z"/><path class="cls-5" d="M685.32,761a8.87,8.87,0,0,0-.77-1.12l-5.37,2.45a1.17,1.17,0,0,1,.31.12Z"/><path class="cls-4" d="M719.79,758.75a8.39,8.39,0,0,0-8.51-5.38l-14,1.59a8.37,8.37,0,0,0-7.09,7.15l-10.07,1.14a2.43,2.43,0,0,0-1.69,1,3,3,0,0,0-.52,2.07,2.69,2.69,0,0,0,2.84,2.52l10.07-1.14a8.41,8.41,0,0,0,8.51,5.38l14-1.59a8.39,8.39,0,0,0,7.09-7.15ZM714.46,765a3,3,0,0,1-1.76.87l-14,1.59a3,3,0,0,1-1.91-.46l1.88-.21a2.46,2.46,0,0,0,1.69-1,3,3,0,0,0,.52-2.07,2.7,2.7,0,0,0-2.85-2.52l-1.87.21a3,3,0,0,1,1.75-.87l14-1.59a2.88,2.88,0,0,1,1.9.46Z"/><path class="cls-5" d="M716.6,764.86c-.14.24-.29.49-.46.74a4.23,4.23,0,0,1-.57.71,4,4,0,0,1-.7.6,4.75,4.75,0,0,1-1.72.74l-1,.25c-.3.1-.59.16-.86.26a16.53,16.53,0,0,0-1.78.67,15,15,0,0,0,1.89.26c.28,0,.58,0,.89.06s.66,0,1,0a5.15,5.15,0,0,0,1.19-.13,4.54,4.54,0,0,0,1.21-.45,5.38,5.38,0,0,0,1.91-1.79,3.82,3.82,0,0,0,.53-1.14,3.45,3.45,0,0,0,.19-1.07l-1.72.19Z"/><path class="cls-5" d="M697.27,757.37a3.84,3.84,0,0,0-1,0,4.6,4.6,0,0,0-2,.89,4.94,4.94,0,0,0-1.47,1.84,5.48,5.48,0,0,0-.35,1.06,4,4,0,0,0-.07.67l1.59-.18a4.59,4.59,0,0,1,.33-.52,6.74,6.74,0,0,1,1.07-1.25,5.4,5.4,0,0,1,1.36-.89,5.07,5.07,0,0,1,.75-.27l.76-.27a9.94,9.94,0,0,0,1.56-.71,10.85,10.85,0,0,0-1.68-.33Z"/><path class="cls-5" d="M690.83,767.72a10.16,10.16,0,0,0,.9,1.66l5.43-2.14a1.58,1.58,0,0,1-.36-.2Z"/><path class="cls-5" d="M719.8,758.75a8.61,8.61,0,0,0-.62-1.21l-5.64,1.73a1.64,1.64,0,0,1,.29.16Z"/><path class="cls-4" d="M684.36,744a8.39,8.39,0,0,0,6,8.08L704,755.59a8.36,8.36,0,0,0,9.18-4.13L723,754a2.41,2.41,0,0,0,1.94-.34,3,3,0,0,0,1.23-1.75,2.7,2.7,0,0,0-1.75-3.37L714.61,746a8.39,8.39,0,0,0-6-8.08L695,734.38a8.41,8.41,0,0,0-9.19,4.13Zm7.24-4a2.9,2.9,0,0,1,1.95-.18l13.63,3.54a2.94,2.94,0,0,1,1.62,1.11L707,744a2.45,2.45,0,0,0-2,.35,3,3,0,0,0-1.22,1.75,2.7,2.7,0,0,0,1.75,3.37l1.82.47a2.9,2.9,0,0,1-2,.19l-13.63-3.55a2.9,2.9,0,0,1-1.61-1.11Z"/><path class="cls-5" d="M689.53,739.42c.22-.18.46-.36.7-.53a3.6,3.6,0,0,1,.79-.45,5,5,0,0,1,.87-.32,5.66,5.66,0,0,1,.92-.13,6.25,6.25,0,0,1,.94.06c.34.05.68.08,1,.11s.61.07.9.07a16.65,16.65,0,0,0,1.9,0,15.46,15.46,0,0,0-1.67-.92c-.25-.13-.52-.24-.81-.38l-.93-.39a5.3,5.3,0,0,0-1.16-.31,4.64,4.64,0,0,0-1.29,0,5.46,5.46,0,0,0-2.43,1,4.38,4.38,0,0,0-.9.87,4.07,4.07,0,0,0-.57.94l1.68.44Z"/><path class="cls-5" d="M704.89,753.35a3.84,3.84,0,0,0,.94.32,4.63,4.63,0,0,0,2.24-.09,5.12,5.12,0,0,0,2-1.19,5.64,5.64,0,0,0,.71-.87,4.82,4.82,0,0,0,.31-.59l-1.55-.41a5.86,5.86,0,0,1-.5.37,7,7,0,0,1-1.45.78A5.52,5.52,0,0,1,706,752a7.18,7.18,0,0,1-.8,0l-.8,0a10,10,0,0,0-1.71.1,11.36,11.36,0,0,0,1.44.92Z"/><path class="cls-5" d="M714.62,746a10.4,10.4,0,0,0-.25-1.87l-5.83,0a1.53,1.53,0,0,1,.26.31Z"/><path class="cls-5" d="M684.36,744a8.58,8.58,0,0,0,.14,1.35l5.88.42-.21-.26Z"/><path class="cls-4" d="M655.33,752.25a8.39,8.39,0,0,0,8.84,4.83L678,754.61a8.37,8.37,0,0,0,6.62-7.59l10-1.77a2.48,2.48,0,0,0,1.63-1.13,3,3,0,0,0,.38-2.1,2.69,2.69,0,0,0-3-2.33l-10,1.78a8.38,8.38,0,0,0-8.83-4.84L661,739.1a8.4,8.4,0,0,0-6.62,7.59Zm4.93-6.61a2.92,2.92,0,0,1,1.69-1l13.87-2.47a2.87,2.87,0,0,1,1.93.33l-1.86.33a2.4,2.4,0,0,0-1.62,1.13,3,3,0,0,0-.38,2.1,2.7,2.7,0,0,0,3,2.33l1.86-.33a2.94,2.94,0,0,1-1.7,1l-13.86,2.47a3,3,0,0,1-1.93-.33Z"/><path class="cls-5" d="M658.13,746c.12-.25.26-.51.41-.76a3.52,3.52,0,0,1,.53-.75,4,4,0,0,1,.66-.64,4.55,4.55,0,0,1,.78-.51,5.37,5.37,0,0,1,.88-.34l1-.32c.3-.11.58-.19.84-.31a16.67,16.67,0,0,0,1.73-.78,14.4,14.4,0,0,0-1.89-.13c-.29,0-.58,0-.9,0l-1,0a5.3,5.3,0,0,0-1.18.2,4.64,4.64,0,0,0-1.18.54,5.34,5.34,0,0,0-1.79,1.9,4,4,0,0,0-.46,1.17,3.8,3.8,0,0,0-.12,1.09l1.7-.31S658.11,746,658.13,746Z"/><path class="cls-5" d="M677.9,752.2a3.54,3.54,0,0,0,1-.1,4.57,4.57,0,0,0,2-1,4.87,4.87,0,0,0,1.35-1.93,5.59,5.59,0,0,0,.29-1.08c0-.23,0-.46,0-.67l-1.58.28a5.7,5.7,0,0,1-.3.54,6.7,6.7,0,0,1-1,1.32,5.47,5.47,0,0,1-1.3,1,4.89,4.89,0,0,1-.73.33c-.26.11-.51.2-.74.31a10.19,10.19,0,0,0-1.51.8,10.42,10.42,0,0,0,1.7.23C677.34,752.19,677.61,752.19,677.9,752.2Z"/><path class="cls-5" d="M683.67,741.46a10.07,10.07,0,0,0-1-1.6l-5.27,2.49a1.69,1.69,0,0,1,.36.17Z"/><path class="cls-5" d="M655.33,752.25a8.55,8.55,0,0,0,.69,1.17l5.52-2.08a2,2,0,0,1-.3-.14Z"/><path class="cls-4" d="M637.08,771.44a8.4,8.4,0,0,0,10.07.27l11.21-8.53a8.38,8.38,0,0,0,2.43-9.77l8.06-6.14a2.43,2.43,0,0,0,.93-1.75,3,3,0,0,0-.61-2,2.7,2.7,0,0,0-3.74-.7l-8.06,6.13a8.38,8.38,0,0,0-10.07-.26l-11.21,8.52a8.39,8.39,0,0,0-2.42,9.78Zm1.37-8.13a2.92,2.92,0,0,1,1.06-1.65l11.21-8.53a2.93,2.93,0,0,1,1.87-.58l-1.5,1.14a2.38,2.38,0,0,0-.93,1.75,3,3,0,0,0,.61,2,2.7,2.7,0,0,0,3.74.7L656,757a3,3,0,0,1-1.07,1.65l-11.2,8.53a2.91,2.91,0,0,1-1.87.58Z"/><path class="cls-5" d="M636.7,764.56a8.55,8.55,0,0,1,0-.87,4,4,0,0,1,.12-.9,4.54,4.54,0,0,1,.29-.88,5.25,5.25,0,0,1,.47-.8,5.1,5.1,0,0,1,.63-.71c.25-.24.48-.48.71-.72s.42-.44.6-.66a16.62,16.62,0,0,0,1.19-1.48,14.4,14.4,0,0,0-1.75.74c-.26.12-.52.26-.8.41s-.59.31-.88.48a5.59,5.59,0,0,0-1,.72,4.73,4.73,0,0,0-.81,1,5.49,5.49,0,0,0-.73,2.52,4.25,4.25,0,0,0,.13,1.24,3.94,3.94,0,0,0,.39,1l1.38-1.05A.22.22,0,0,1,636.7,764.56Z"/><path class="cls-5" d="M657.14,761.1a3.84,3.84,0,0,0,.83-.55,4.6,4.6,0,0,0,1.31-1.81,5,5,0,0,0,.32-2.33,5.36,5.36,0,0,0-.24-1.1,4.31,4.31,0,0,0-.28-.61l-1.27,1c0,.2,0,.41,0,.62a7.43,7.43,0,0,1-.28,1.62,5.17,5.17,0,0,1-.72,1.45,5.51,5.51,0,0,1-.5.63c-.18.21-.36.41-.51.61a9.89,9.89,0,0,0-1,1.41,10.67,10.67,0,0,0,1.61-.58C656.64,761.34,656.88,761.22,657.14,761.1Z"/><path class="cls-5" d="M657.37,748.91a9.92,9.92,0,0,0-1.62-1l-3.57,4.62a1.41,1.41,0,0,1,.41,0Z"/><path class="cls-5" d="M637.08,771.44a9.28,9.28,0,0,0,1.15.73l4-4.37h-.33Z"/><path class="cls-4" d="M736.51,785.85a8.37,8.37,0,0,0,3.54-9.42l-4.39-13.38a8.39,8.39,0,0,0-8.45-5.49l-3.16-9.63a2.42,2.42,0,0,0-1.35-1.45,3,3,0,0,0-2.13-.09,2.69,2.69,0,0,0-1.88,3.3l3.16,9.63a8.39,8.39,0,0,0-3.54,9.43l4.4,13.38a8.36,8.36,0,0,0,8.44,5.48Zm-7.24-3.94a3,3,0,0,1-1.21-1.54L723.67,767a2.87,2.87,0,0,1,.06-2l.58,1.79a2.45,2.45,0,0,0,1.35,1.45,3,3,0,0,0,2.13.08,2.69,2.69,0,0,0,1.89-3.29l-.59-1.79a2.91,2.91,0,0,1,1.21,1.54l4.4,13.38a3,3,0,0,1-.06,1.95Z"/><path class="cls-5" d="M729.89,784c-.27-.09-.55-.19-.82-.3a4.11,4.11,0,0,1-.81-.41,4.55,4.55,0,0,1-.74-.57,4.94,4.94,0,0,1-.6-.7,4.72,4.72,0,0,1-.47-.83c-.14-.31-.3-.61-.44-.9s-.28-.55-.44-.79a15.33,15.33,0,0,0-1-1.61,15.37,15.37,0,0,0,.13,1.9c0,.28.08.57.12.89s.11.65.18,1a5.53,5.53,0,0,0,.36,1.14,4.7,4.7,0,0,0,.7,1.09,5.24,5.24,0,0,0,2.13,1.51,3.87,3.87,0,0,0,1.22.29,4,4,0,0,0,1.1,0L730,784Z"/><path class="cls-5" d="M733.29,763.52a3.81,3.81,0,0,0-.24-1,4.55,4.55,0,0,0-1.29-1.83,5,5,0,0,0-2.1-1.06,5.49,5.49,0,0,0-1.11-.13,4.51,4.51,0,0,0-.67.06l.5,1.53c.19.06.39.13.58.21a7.24,7.24,0,0,1,1.44.8,5.4,5.4,0,0,1,1.14,1.15,5.46,5.46,0,0,1,.42.67c.15.25.28.49.41.69a9.85,9.85,0,0,0,1,1.39,11.54,11.54,0,0,0,0-1.71C733.35,764.07,733.32,763.8,733.29,763.52Z"/><path class="cls-5" d="M721.85,759.31a10.13,10.13,0,0,0-1.45,1.23l3.2,4.87a1.94,1.94,0,0,1,.12-.39Z"/><path class="cls-5" d="M736.51,785.86a7.37,7.37,0,0,0,1.06-.86l-2.83-5.17a1.7,1.7,0,0,1-.1.32Z"/><path class="cls-4" d="M759.18,805.79a8.4,8.4,0,0,0-.71-10l-9.59-10.32a8.38,8.38,0,0,0-10-1.46L732,776.53a2.44,2.44,0,0,0-1.83-.76,3,3,0,0,0-2,.81,2.7,2.7,0,0,0-.34,3.79l6.89,7.43a8.38,8.38,0,0,0,.72,10l9.58,10.32a8.39,8.39,0,0,0,10,1.47Zm-8.22-.57a2.93,2.93,0,0,1-1.75-.89L739.63,794a3,3,0,0,1-.76-1.81l1.28,1.38a2.4,2.4,0,0,0,1.83.76,3,3,0,0,0,2-.81,2.71,2.71,0,0,0,.34-3.79L743,788.36a2.92,2.92,0,0,1,1.74.9l9.58,10.32a2.93,2.93,0,0,1,.77,1.8Z"/><path class="cls-5" d="M752.38,806.84c-.28,0-.58.06-.87.07a4,4,0,0,1-.91,0,4.77,4.77,0,0,1-.91-.2,4.94,4.94,0,0,1-.84-.39,5.34,5.34,0,0,1-.77-.56q-.39-.33-.78-.63c-.26-.19-.48-.38-.72-.54a17.85,17.85,0,0,0-1.59-1,13.44,13.44,0,0,0,.91,1.67c.14.25.31.49.48.76s.37.55.57.83a5.48,5.48,0,0,0,.81.88,4.27,4.27,0,0,0,1.09.71,5.43,5.43,0,0,0,2.57.48,4.14,4.14,0,0,0,1.23-.25,3.89,3.89,0,0,0,1-.48l-1.18-1.27Z"/><path class="cls-5" d="M746.93,786.84a3.59,3.59,0,0,0-.62-.78,4.7,4.7,0,0,0-1.93-1.13,5.11,5.11,0,0,0-2.36-.09,5.49,5.49,0,0,0-1.06.35,5.22,5.22,0,0,0-.58.34l1.09,1.17c.2,0,.41,0,.61,0a7.6,7.6,0,0,1,1.65.12,5.61,5.61,0,0,1,1.51.57,5.9,5.9,0,0,1,.67.44c.23.16.45.32.66.45a10.19,10.19,0,0,0,1.5.84,10.93,10.93,0,0,0-.73-1.55C747.22,787.31,747.08,787.08,746.93,786.84Z"/><path class="cls-5" d="M734.78,787.79a10.31,10.31,0,0,0-.8,1.72l4.94,3.09a1.37,1.37,0,0,1,0-.4Z"/><path class="cls-5" d="M759.19,805.79a8.12,8.12,0,0,0,.6-1.22l-4.73-3.51a3.31,3.31,0,0,1,0,.33Z"/><path class="cls-4" d="M785.19,810.75a8.38,8.38,0,0,0-5.22-8.61l-13.24-4.81a8.39,8.39,0,0,0-9.53,3.24l-9.52-3.46a2.38,2.38,0,0,0-2,.17,3,3,0,0,0-1.39,1.62,2.7,2.7,0,0,0,1.43,3.52l9.52,3.46a8.4,8.4,0,0,0,5.23,8.61l13.23,4.81a8.4,8.4,0,0,0,9.54-3.25ZM777.62,814a2.87,2.87,0,0,1-2,0l-13.24-4.81a3,3,0,0,1-1.5-1.26l1.77.65a2.38,2.38,0,0,0,2-.17,3,3,0,0,0,1.39-1.62,2.7,2.7,0,0,0-1.43-3.52l-1.77-.64a2.87,2.87,0,0,1,2,0l13.24,4.81a3,3,0,0,1,1.5,1.26Z"/><path class="cls-5" d="M779.62,814.79a7.71,7.71,0,0,1-.74.46,4.16,4.16,0,0,1-.83.38,3.88,3.88,0,0,1-.89.23,4.17,4.17,0,0,1-.93,0,5.35,5.35,0,0,1-.94-.14l-1-.21c-.32,0-.61-.12-.89-.15a18.54,18.54,0,0,0-1.89-.2,14.75,14.75,0,0,0,1.57,1.08c.24.15.5.29.78.45s.58.32.88.47a5,5,0,0,0,1.13.42,4.19,4.19,0,0,0,1.28.13,5.35,5.35,0,0,0,2.51-.74,4,4,0,0,0,1-.79,3.34,3.34,0,0,0,.65-.88l-1.62-.59Z"/><path class="cls-5" d="M765.64,799.48a3.84,3.84,0,0,0-.91-.41,4.61,4.61,0,0,0-2.23-.12,5,5,0,0,0-2.13,1,4.92,4.92,0,0,0-.79.79,3.59,3.59,0,0,0-.36.57l1.5.54a5.64,5.64,0,0,1,.53-.31,7.33,7.33,0,0,1,1.52-.65,5.46,5.46,0,0,1,1.6-.18,5.7,5.7,0,0,1,.8.08l.79.11a10.66,10.66,0,0,0,1.72.06,10.23,10.23,0,0,0-1.36-1.05C766.12,799.77,765.88,799.63,765.64,799.48Z"/><path class="cls-5" d="M755.27,805.88a9.9,9.9,0,0,0,.07,1.89l5.81.5a1.56,1.56,0,0,1-.23-.34Z"/><path class="cls-5" d="M785.2,810.75a7.71,7.71,0,0,0,0-1.36l-5.81-1a1.34,1.34,0,0,1,.18.28Z"/></g></g></svg>