<?xml version="1.0" encoding="utf-8"?>
<!-- Generator: Adobe Illustrator 26.0.0, SVG Export Plug-In . SVG Version: 6.00 Build 0)  -->
<svg version="1.1" id="Layer_1" xmlns="http://www.w3.org/2000/svg" xmlns:xlink="http://www.w3.org/1999/xlink" x="0px" y="0px"
	 viewBox="0 0 837.3 1537" style="enable-background:new 0 0 837.3 1537;" xml:space="preserve">
<style type="text/css">
	.st0{fill:none;}
	.st1{fill:#664D07;}
	.st2{fill-rule:evenodd;clip-rule:evenodd;fill:url(#SVGID_1_);}
	.st3{fill-rule:evenodd;clip-rule:evenodd;fill:#0A0A0A;}
	.st4{fill-rule:evenodd;clip-rule:evenodd;fill:url(#SVGID_00000029044396503230949390000012657764726377835648_);}
	.st5{fill-rule:evenodd;clip-rule:evenodd;fill:url(#SVGID_00000017480994339798379150000005154655303800729238_);}
	.st6{opacity:0.68;}
	.st7{fill-rule:evenodd;clip-rule:evenodd;fill:#7C5F0E;}
	.st8{fill-rule:evenodd;clip-rule:evenodd;fill:url(#SVGID_00000136371964924856254030000002862460200520071858_);}
	.st9{fill:#7C5F0E;}
	.st10{fill:url(#SVGID_00000029030061423185406480000009185244538652748972_);}
	.st11{fill:url(#SVGID_00000127759982978241897290000009559263437959873192_);}
	.st12{fill:url(#SVGID_00000134239389411557509610000015966891110899400583_);}
	.st13{fill:url(#SVGID_00000132058503396202440430000002349429431350311097_);}
	.st14{fill:url(#SVGID_00000169551697657040727020000010364584688089614501_);}
</style>
<g id="Layer_2_00000016049907868336865560000003378942461057318784_">
	<g id="base">
		<rect class="st0" width="837.3" height="1537"/>
	</g>
	<g id="Layer_24">
		<polygon class="st1" points="645.8,1394.3 635.5,1398 625.7,1389.7 		"/>
		
			<linearGradient id="SVGID_1_" gradientUnits="userSpaceOnUse" x1="263.6701" y1="435.4343" x2="263.0006" y2="387.6817" gradientTransform="matrix(1 0 0 1 0 926)">
			<stop  offset="0" style="stop-color:#FFA486"/>
			<stop  offset="1" style="stop-color:#FFB886"/>
		</linearGradient>
		<path class="st2" d="M240.3,1314l-12.6,35.3c0,0,36.7,15.7,50.8,11.2s20.8-11.2,20.8-11.2S258.5,1316.1,240.3,1314z"/>
		<path class="st3" d="M317.2,1386.2c0.8,7.4,0.9,20.7,0.9,27.6c0,14.1-7.7,21.9-7.7,21.9s-60,0.8-85.9,4c-1.7,0.2-3.3,0.4-4.7,0.6
			c-22.4,3.7-41.1,7.9-57,8.9s-50.5-1.2-70.4-21.8c0.7-3.9,1.8-7.7,3.2-11.3c2.2-5.6,5.9-12.2,11.8-16.8c0,0,31.6-3.4,55.9-16.5
			c4-2.1,7.9-4.6,11.5-7.4c24.1-19.3,49.6-21.6,49.6-21.6s2.5-8.9,6.3-22.6c1.4-5.1-1-10.7-0.1-17.1c1.7-13.7,4.9-21.9,7.6-32.1
			c2.6-9.7-2.5-22.2,0.1-32.1c0.8-2.9-0.2-6.4,0.5-9.3c1.1-4.3,3.5-7.8,3.8-11.9c1.1-14.2,11.6-21.4,13.7-31.4c0,0,59.8,5.9,65.9,4
			s32.3,4.3,40,4.3l-4.6,43.1l-4.6,12.1c-0.2,1.7-3.5,8.2-4.3,9.6l-3.4,5.6c-0.7,1.8-1.4,3.7-1.9,5.6l-5.1,7.4
			c-0.4,1.2-0.5,2.5-0.5,3.8l0.2,5.9c0.1,2.4-0.5,4.7-1.8,6.8l-4.3,7.1c-0.6,0.9-1,1.9-1.3,3l-1.7,5.8c-0.4,1.2-0.5,2.5-0.5,3.8
			l0.3,8.4c0.1,2.6-0.7,5.2-2.1,7.3l-5.7,8.3C320.7,1349.4,314.8,1363.6,317.2,1386.2z"/>
		
			<linearGradient id="SVGID_00000049921222964142685730000016686234737445187740_" gradientUnits="userSpaceOnUse" x1="287.4668" y1="432.2785" x2="281.7668" y2="480.2184" gradientTransform="matrix(1 0 0 1 0 926)">
			<stop  offset="1.000000e-02" style="stop-color:#705029"/>
			<stop  offset="1" style="stop-color:#54320C"/>
		</linearGradient>
		
			<polygon style="fill-rule:evenodd;clip-rule:evenodd;fill:url(#SVGID_00000049921222964142685730000016686234737445187740_);" points="
			268.5,1349.6 317.2,1386.2 318,1404.5 249.2,1377.1 		"/>
		<path class="st3" d="M687.8,1435.4c0.7,14.9-5.7,23.9-5.7,23.9c-32.2,18.2-86.7,17.4-110.9,3.4v-0.1c-1.1-0.4-2.2-0.8-3.2-1.2
			c-7.2-2.8-12.2-5.4-24.5-11.3c-3-1.5-6.3-3.2-9.5-5c-12-6.8-24.1-15.1-24.1-15.1c-1-5.3-2-7.7-2.5-10.5c-0.4-3-0.5-5.9-0.3-8.9
			c0.9-18.8,11.6-33.9,11.6-33.9s-31.7-156.4-30.1-160.4c7.7-19,121.3-11,121.3-11c2.5,7.9-5.3,149.6-5.3,149.6v0.1
			c1.8,4.7,4,9.1,6.7,13.3l0,0c5.1,8.4,11,16.2,17.7,23.3c8,8.7,19.7,16.4,30.5,22.4h0.1c8.8,4.9,17.9,9.2,27.2,13
			C687.3,1429.8,687.6,1432.6,687.8,1435.4z"/>
		
			<linearGradient id="SVGID_00000018917577071530731820000007395891643295225271_" gradientUnits="userSpaceOnUse" x1="181.3" y1="188.3839" x2="283.6" y2="188.3839" gradientTransform="matrix(1 0 0 -1 0 1538)">
			<stop  offset="0" style="stop-color:#78684D"/>
			<stop  offset="0.5197" style="stop-color:#9C916D"/>
			<stop  offset="0.9934" style="stop-color:#78684D"/>
		</linearGradient>
		<path style="fill-rule:evenodd;clip-rule:evenodd;fill:url(#SVGID_00000018917577071530731820000007395891643295225271_);" d="
			M181.3,1368.5c0,0,47.2-16.9,64.1,25.8l38.2-67.2c0,0-38.5-27.9-71.4-21.1C194.7,1323.2,181.3,1368.5,181.3,1368.5z"/>
		<g class="st6">
			<path class="st7" d="M192.4,1354.2c0,0,32.3-9.8,42.4,19.4l29.6-50.2c0,0-26.7-13.9-49.1-10.4
				C202.8,1324.1,192.4,1354.2,192.4,1354.2z"/>
		</g>
		
			<linearGradient id="SVGID_00000091693829144485482340000000548579048501265552_" gradientUnits="userSpaceOnUse" x1="190.9" y1="201.9623" x2="259.9" y2="201.9623" gradientTransform="matrix(1 0 0 -1 0 1538)">
			<stop  offset="0" style="stop-color:#78684D"/>
			<stop  offset="0.5197" style="stop-color:#9C916D"/>
			<stop  offset="0.9934" style="stop-color:#78684D"/>
		</linearGradient>
		<path style="fill-rule:evenodd;clip-rule:evenodd;fill:url(#SVGID_00000091693829144485482340000000548579048501265552_);" d="
			M190.9,1348.8c0,0,31.8-11.4,43.2,17.4l25.8-45.4c0,0-26-18.8-48.1-14.2C200,1318.3,190.9,1348.8,190.9,1348.8z"/>
		<g class="st6">
			<polygon class="st9" points="250.7,1208.7 262.6,1213.9 360.4,1221.8 362.1,1205.7 			"/>
		</g>
		
			<linearGradient id="SVGID_00000110433702744072826030000000207249707287835544_" gradientUnits="userSpaceOnUse" x1="244.5941" y1="339.5513" x2="367.8" y2="339.5513" gradientTransform="matrix(1 0 0 -1 0 1538)">
			<stop  offset="0" style="stop-color:#78684D"/>
			<stop  offset="0.5197" style="stop-color:#9C916D"/>
			<stop  offset="0.9934" style="stop-color:#78684D"/>
		</linearGradient>
		<path style="fill:url(#SVGID_00000110433702744072826030000000207249707287835544_);" d="M264.4,1183.4c0,0-20.2-7.9-19.8,12.2
			s19.4,13.5,19.4,13.5l93.3,5.9c5.4,0.4,10.1-3.6,10.5-9c0-0.2,0-0.4,0-0.6v-6.9c-0.1-4.5-3.6-8.2-8-8.4L264.4,1183.4z"/>
		<g class="st6">
			<polygon class="st9" points="489.5,1221.8 503,1225 610.8,1216.3 610,1200 			"/>
		</g>
		
			<linearGradient id="SVGID_00000047750239555060253840000005764697938589346462_" gradientUnits="userSpaceOnUse" x1="480.7114" y1="334.4553" x2="616.2939" y2="334.4553" gradientTransform="matrix(1 0 0 -1 0 1538)">
			<stop  offset="0" style="stop-color:#78684D"/>
			<stop  offset="0.5197" style="stop-color:#9C916D"/>
			<stop  offset="0.9934" style="stop-color:#78684D"/>
		</linearGradient>
		<path style="fill:url(#SVGID_00000047750239555060253840000005764697938589346462_);" d="M500.1,1194.5c0,0-22.6-4.4-19,15.4
			s22.6,10,22.6,10l102.8-10c6.1-0.6,10.5-5.8,9.7-11.3l-1.1-6.8c-0.7-4.4-5-7.4-9.8-7L500.1,1194.5z"/>
		
			<linearGradient id="SVGID_00000108297601881401207190000013356381003052795317_" gradientUnits="userSpaceOnUse" x1="539.8" y1="162.5586" x2="645.8" y2="162.5586" gradientTransform="matrix(1 0 0 -1 0 1538)">
			<stop  offset="0" style="stop-color:#78684D"/>
			<stop  offset="0.5197" style="stop-color:#9C916D"/>
			<stop  offset="0.9934" style="stop-color:#78684D"/>
		</linearGradient>
		<path style="fill:url(#SVGID_00000108297601881401207190000013356381003052795317_);" d="M539.8,1346c0,0,63.3-18.6,74-9.9
			s32,58.2,32,58.2s-58-6.5-79.7,22.8c0,0-14.5-27.4-22-50.9C541.7,1358.7,540,1351.6,539.8,1346z"/>
		
			<linearGradient id="SVGID_00000016054116747880959140000015881452235919120013_" gradientUnits="userSpaceOnUse" x1="507.45" y1="460.0499" x2="555.1025" y2="460.0499" gradientTransform="matrix(1 0 0 1 0 926)">
			<stop  offset="1.000000e-02" style="stop-color:#705029"/>
			<stop  offset="1" style="stop-color:#54320C"/>
		</linearGradient>
		<path style="fill:url(#SVGID_00000016054116747880959140000015881452235919120013_);" d="M511.7,1389.4l33.1-21.8
			c0,0,10.4,27.1,10.2,26.7s-47.6,10.2-47.6,10.2L511.7,1389.4z"/>
		<g class="st6">
			<path class="st9" d="M561.4,1354c0,0,39.3-11.5,45.9-6.1s19.9,36.1,19.9,36.1s-36-4-49.4,14.2c0,0-9-17-13.6-31.6
				C562.7,1362.5,561.8,1358.3,561.4,1354z"/>
		</g>
		
			<linearGradient id="SVGID_00000128482045544923152230000008093789526629660863_" gradientUnits="userSpaceOnUse" x1="555.4" y1="170.6713" x2="621.2001" y2="170.6713" gradientTransform="matrix(1 0 0 -1 0 1538)">
			<stop  offset="0" style="stop-color:#78684D"/>
			<stop  offset="0.5197" style="stop-color:#9C916D"/>
			<stop  offset="0.9934" style="stop-color:#78684D"/>
		</linearGradient>
		<path style="fill:url(#SVGID_00000128482045544923152230000008093789526629660863_);" d="M555.4,1349c0,0,39.3-11.5,45.9-6.1
			s19.9,36.1,19.9,36.1s-36-4-49.4,14.2c0,0-9-17-13.6-31.6C556.7,1357.5,555.8,1353.3,555.4,1349z"/>
	</g>
</g>
</svg>
