<?xml version="1.0" encoding="utf-8"?>
<!-- Generator: Adobe Illustrator 25.4.1, SVG Export Plug-In . SVG Version: 6.00 Build 0)  -->
<svg version="1.1" id="Layer_1" xmlns="http://www.w3.org/2000/svg" xmlns:xlink="http://www.w3.org/1999/xlink" x="0px" y="0px"
	 viewBox="0 0 837.3 1537" style="enable-background:new 0 0 837.3 1537;" xml:space="preserve">
<style type="text/css">
	.st0{fill:none;}
	.st1{fill:#191816;}
	.st2{fill:#33312F;}
	.st3{fill:#A5A5A5;}
	.st4{fill:none;stroke:#494745;stroke-width:0.5;stroke-miterlimit:10;}
	.st5{fill:none;stroke:#494745;stroke-width:0.5;stroke-miterlimit:10;stroke-dasharray:2.0063,2.0063;}
	.st6{fill:none;stroke:#494745;stroke-width:0.5;stroke-miterlimit:10;stroke-dasharray:1.9986,1.9986;}
	.st7{opacity:0.36;fill-rule:evenodd;clip-rule:evenodd;fill:url(#SVGID_1_);}
</style>
<g id="Layer_2_00000042013076867634523310000015404559523770097321_">
	<g id="base">
		<rect class="st0" width="837.3" height="1537"/>
	</g>
</g>
<g>
	<path class="st1" d="M96.1,1400.1c-2,7.1-2.6,18.9,0.3,22.4s20.1,20.5,64.5,21.1c44.4,0.7,41.5-19,79-17.1s41.2,5.8,52.5,3.3
		c11.4-2.5,17.2-11.6,17.4-14.9c0.2-3.3,3.3-28.3-0.3-58.9c10.6-33.5,40.6-99.2,40.2-101.1c-0.5-1.9-3.3-3.5-4.9-3.9
		s-65.1-20-82.3-17.9c-3.8-11.2-27.7-14.2-28.3-11.9c-4.7,18.2-8.7,46.2-12.3,63.9c-4.7,23.1,1.8,55.3-43,74.8
		c-37.5,16.4-37.8,22.6-59.8,26.8C108.8,1388.6,98,1393.5,96.1,1400.1z"/>
	<g>
		<path d="M205.1,1371.7c-0.4,0-0.8-0.1-1.2-0.3l-21.4-11.8c-1.4-0.8-1.9-2.5-1.1-3.9c0.8-1.4,2.5-1.9,3.9-1.1l21.4,11.8
			c1.4,0.8,1.9,2.5,1.1,3.9C207.3,1371.2,206.2,1371.7,205.1,1371.7z"/>
	</g>
	<g>
		<path d="M184.4,1382.8c-0.8-0.1-1.5-0.4-2.1-1.1l-14-18c-1-1.2-0.7-3,0.5-4s3.1-0.7,4,0.5l14,18c1,1.2,0.7,3-0.5,4
			C185.8,1382.6,185.1,1382.8,184.4,1382.8z"/>
	</g>
	<g>
		<path d="M218.6,1306c-0.9-0.1-1.8-0.6-2.3-1.5c-0.8-1.4-0.3-3.1,1.1-3.9l20.8-11.6c1.4-0.8,3.1-0.3,3.9,1.1
			c0.8,1.4,0.3,3.1-1.1,3.9l-20.8,11.6C219.7,1305.9,219.1,1306,218.6,1306z"/>
	</g>
	<path d="M94.4,1416.4c1.9,0.4,1.8,2.2,2.5,3.4c4.3,7.6,11.6,11,19.3,13.9c10.7,4,22,5.4,33.3,6.6c4.9,0.5,9.7,1.4,14.6,1.7
		c9.8,0.7,19.1-1,28.2-4.8c10.3-4.3,20.5-9.3,31.7-11.3c10.2-1.9,20.4-2,30.8-0.5c11.4,1.7,23,3.8,34.7,2.6
		c8.8-0.8,15-5.3,18.7-13.3c0.3-0.6,0.3-1.4,1-1.7c-0.1,9.7-1.1,19.4-3.2,28.9c-0.8,3.9-3.3,6.2-6.9,6.6c-13.2,1.4-26.4,2-39.5-0.4
		c-5-0.9-8.6-3.7-9.2-9.1c-0.2-1.8-1.3-1.3-2.2-1.3c-11.8,0.3-23.3,2.6-34,7.8c-1,0.5-2,1.1-3.1,1.5c-0.8,0.3-1.6,0.5-1.8-0.7
		c-0.2-0.7,0.5-1.7-0.7-2c-1.2-0.2-1.6,0.9-1.9,1.6c-2.1,4.4-6.2,6.2-10.2,8.2c-1.9,1-3.9,1.2-4.2-1.9c-0.1-0.6,0.3-1.5-0.8-1.6
		c-0.8,0-1.4,0.5-1.4,1.2c-0.4,5.3-4.4,5.2-8.2,5.5c-2.6,0.2-4.7-0.3-4.1-3.7c0.1-0.6-0.1-1.2-0.6-2.2c-1.6,3.8-3.9,6.1-8.1,5.9
		c-4.9-0.2-6.2-1-7.3-5.8c-0.3,0.2-0.8,0.2-0.9,0.5c-1.8,4.8-5.7,3.8-9.3,3.3c-1.2-0.2-2.5-0.8-3.7-0.7c-3.4,0.1-3.9-1.8-3.7-4.6
		c0.1-1,0.5-2.5-1-2.9c-1.3-0.3-2.1,0.9-2.5,1.9c-1.3,3.6-4,4.4-7.3,3.6c-10.3-2.4-20.8-4.5-29.8-10.7c-5.2-3.6-8.5-7.9-8.2-14.6
		C95.5,1423.8,94.8,1420.1,94.4,1416.4z"/>
	<g>
		<path d="M224,1348.8c-0.1,0-0.1,0-0.2,0l-22.8-3.2c-1.6-0.2-2.7-1.7-2.4-3.2c0.2-1.6,1.7-2.6,3.2-2.4l22.8,3.2
			c1.6,0.2,2.7,1.7,2.4,3.2C226.8,1347.8,225.5,1348.9,224,1348.8z"/>
	</g>
	<g>
		<path d="M219.7,1276c-1-0.1-1.9-0.7-2.4-1.7c-0.7-1.4,0-3.1,1.4-3.8l19.3-9c1.4-0.7,3.1,0,3.8,1.4s0,3.1-1.4,3.8l-19.3,9
			C220.6,1276,220.1,1276,219.7,1276z"/>
	</g>
	<g>
		<path d="M215.4,1327.8c-1.3-0.1-2.5-1.1-2.6-2.5c-0.2-1.6,0.9-3,2.5-3.2l20.8-2.6c1.6-0.2,3,0.9,3.2,2.5s-0.9,3-2.5,3.2l-20.8,2.6
			C215.7,1327.8,215.6,1327.8,215.4,1327.8z"/>
	</g>
	<path class="st2" d="M306.7,1400.2c-1,1.5-8.9,0.6-15.9-0.2c-7-0.8-47.6-5.8-58.8-3.6s-37.4,9.9-43.9,11s-19.7-16.4-17.6-23.3
		c2-6.9,43.3-26.5,52.7-39.1c10.1-13.6,28.8-52.3,27.7-102.2c-0.5-23.3,98.9,12.2,98.9,12.2l-40.3,101c0.6,7.4,0.5,32,0.9,36.5
		C310.8,1397.8,306.7,1400.2,306.7,1400.2z"/>
	<circle class="st3" cx="188.8" cy="1384.9" r="3.8"/>
	<circle class="st3" cx="211.9" cy="1371.6" r="3.8"/>
	<circle class="st3" cx="233" cy="1350" r="3.8"/>
	<circle class="st3" cx="244.8" cy="1320.6" r="3.8"/>
	<circle class="st3" cx="249.6" cy="1289.4" r="3.8"/>
	<circle class="st3" cx="248.9" cy="1259.9" r="3.8"/>
	<g>
		<g>
			<path class="st4" d="M345,1258.4c0.6,0.2,0.9,0.3,0.9,0.3l-0.4,0.9"/>
			<path class="st5" d="M344.8,1261.5l-38.5,92.7c0,0,2.9,29.2,1.4,34c-1.4,4.8-4.1,7.8-4.1,7.8c-0.9,1.4-8,0.6-14.3-0.1
				s-42.9-5.4-53-3.2c-10.1,2.2-39.1,10.5-45,11.6c-5.9,1-17.6-15.5-15.8-22s44.5-26.3,53-38.3c9.1-13,25.9-51.4,27-96.9
				c0.5-20,75.6,6.2,88.5,10.9"/>
		</g>
	</g>
	<g>
		<path d="M232.8,1352.9c-1.1-0.1-2.1-0.8-2.5-1.9l-14.7-40.2c-0.5-1.5,0.2-3.1,1.7-3.7c1.5-0.5,3.1,0.2,3.7,1.7l14.7,40.2
			c0.5,1.5-0.2,3.1-1.7,3.7C233.6,1352.9,233.2,1352.9,232.8,1352.9z"/>
	</g>
	<g>
		<path d="M211.7,1374.5c-1.5-0.1-2.6-1.3-2.7-2.8l-1-36.4c0-1.6,1.2-2.9,2.8-2.9s2.9,1.2,2.9,2.8l1,36.4c0,1.6-1.2,2.9-2.8,2.9
			C211.9,1374.5,211.8,1374.5,211.7,1374.5z"/>
	</g>
	<g>
		<path d="M188.6,1387.8h-0.1c-1.6-0.2-2.7-1.6-2.5-3.2l3.7-32.6c0.2-1.6,1.5-2.8,3.2-2.5c1.6,0.2,2.7,1.6,2.5,3.2l-3.7,32.6
			C191.4,1386.8,190.1,1387.9,188.6,1387.8z"/>
	</g>
	<g>
		<path d="M249.4,1292.7c-0.7-0.1-1.4-0.4-1.9-0.9c-9.3-10.2-19.4-20.9-26.1-27.5c3.3,11.1,1.4,18.4-2.1,21.9
			c-2.9,2.8-7.1,3.4-11.1,1.4c-1.9-0.9-3.2-2.5-3.9-4.7c-0.9-2.7-0.6-6.4,0.2-10.2c-3.4,3.3-7,5.8-10.4,5.7c-1.9,0-4.7-0.9-6.6-4.6
			c-1.5-2.9-1.6-5.9-0.2-8.7c3.7-7.3,17.8-10.9,24.8-12.3c0,0,0-0.1,0.1-0.1l0.1,0.1c1.8-0.4,3.2-0.6,3.7-0.6l0.4-0.1l32,4.9
			c1.6,0.2,2.6,1.7,2.4,3.3c-0.2,1.6-1.7,2.6-3.3,2.4l-23.1-3.6c5.4,5.1,13.8,13.9,27.4,28.7c1.1,1.2,1,3-0.2,4
			C250.9,1292.5,250.1,1292.8,249.4,1292.7z M214.3,1261.5c-3.1,7.1-5.9,15.7-4.6,19.7c0.3,0.9,0.7,1.1,1,1.3
			c1.9,0.9,3.4,0.8,4.6-0.3C217.9,1279.5,218.5,1272.1,214.3,1261.5z M207.6,1259.8c-6.8,1.8-13.6,4.6-15.3,8
			c-0.4,0.7-0.7,1.7,0.2,3.4c0.8,1.5,1.4,1.5,1.7,1.5C197.1,1272.8,202.7,1266.9,207.6,1259.8z"/>
	</g>
	<g>
		<path d="M244.6,1323.4c-0.8-0.1-1.6-0.5-2.1-1.2l-26.1-36.1c-0.9-1.3-0.6-3.1,0.6-4c1.3-0.9,3.1-0.6,4,0.6l26.1,36.1
			c0.9,1.3,0.6,3.1-0.6,4C245.9,1323.3,245.2,1323.5,244.6,1323.4z"/>
	</g>
</g>
<g>
	<path class="st1" d="M681.3,1423.8c5.7,4.7,4.6,22.8,1.4,25.9c-3.3,3.1-11.2,19.4-55.4,14.6c-48.1-5.2-28.5-22.2-55.2-26
		c-37.2-5.4-41.4-2-52.4-5.9c-11-3.9-11.8-15.6-11.6-18.9c0.2-3.3,5-39.8,3.4-70.6c-1.7-31.4-14.3-94.2-13.6-96
		c0.7-1.8,3.7-3.1,5.3-3.2s45.7-8.6,62.5-4.4c3.6-7.5,33.8-10.5,37.2-1.1c4.7,0,4.9-0.1,5,0.6c2.4,18.6,2,38.6,3.4,56.6
		c1.8,23.5-16.2,54.9,16.3,89.5c22.5,24.1,24.8,21,29.1,23.5C665.6,1413.5,675.6,1419,681.3,1423.8z"/>
	<path class="st2" d="M599.8,1248.8c0.7,18-1.7,33.7-2.5,51.8c-0.2,23-0.4,46,8.8,67.6c1.9,3.8,9.3,16.4,17.2,21.2
		c8.3,5,9.7,4.1,12.2,4.2c-41-40.3-23.1-71.1-24.3-98.1c-0.9-18,0.7-37.9-1.7-56.5c-0.1-0.7-2-0.7-6.7-0.7
		C602.5,1237.3,600,1246.1,599.8,1248.8z"/>
	<path class="st3" d="M620.3,1386.2c0.9,1.7,2.7,2.5,4.1,1.8c1.4-0.7,1.3-2.6,0.5-4.3c-0.9-1.7-2.3-2.5-3.7-1.9
		C619.9,1382.6,619.4,1384.5,620.3,1386.2z"/>
	<g>
		<path d="M582.3,1405.9c0.8,0,1.6-0.2,2.2-0.8l39.2-17.5c1.1-1.1,1.1-2.9,0-4.1c-1.1-1.1-2.9-1.1-4.1,0l-39.2,17.5
			c-1.1,1.1-1.1,2.9,0,4.1C581,1405.6,581.6,1405.9,582.3,1405.9z"/>
	</g>
	<ellipse transform="matrix(0.866 -0.5 0.5 0.866 -602.4774 489.5594)" class="st3" cx="612.3" cy="1369" rx="2.8" ry="3.5"/>
	<path class="st2" d="M513.6,1399.3c0.8,1.6,8.8,1.7,15.8,1.7c7,0.1,21.9,7.6,32.7,11.2c10.8,3.6,15.5,10.2,21.8,12
		s10.3-8.3,9.1-15.4c-1.2-7.1-16.4-23.5-24.2-37.2c-8.4-14.8-16.5-68.9-9.3-118.3c3.4-23.1-61.2-6.5-61.2-6.5l17.7,108.2
		c-1.5,7.3-4.4,31.7-5.3,36.1C509.8,1396.5,513.6,1399.3,513.6,1399.3z"/>
	<circle class="st3" cx="605" cy="1351.9" r="3"/>
	<circle class="st3" cx="602" cy="1321.5" r="3"/>
	<circle class="st3" cx="603.6" cy="1294.5" r="3"/>
	<circle class="st3" cx="604.4" cy="1267.3" r="3"/>
	<g>
		<path d="M604.5,1297c0.8-0.4,1.5-1.2,1.6-2.2c0.2-1.6-0.9-3-2.5-3.2l-53.2,4.4c-1.6-0.2-3,0.9-3.2,2.5c-0.2,1.6,0.9,3,2.5,3.2
			l53.2-4.4C603.5,1297.4,604,1297.3,604.5,1297z"/>
	</g>
	<path d="M684.1,1446.8c-1.6,0.2-1.7,2.3-2.4,3.6c-4.4,8-10.5,6-17.1,8.3c-9.3,3.2-18.7,3.4-28.1,3.3c-4,0-8.1,0.4-12.1,0.2
		c-8.1-0.5-15.5-3.4-22.6-8.9c-8-6.1-15.7-12.9-24.6-16.7c-8.1-3.4-16.5-4.7-25.2-4.3c-9.6,0.5-19.2,1.4-28.7-1.3
		c-7.1-2-11.7-7.8-13.8-17.3c-0.2-0.7-0.1-1.6-0.6-2c-1,11-1.4,22-0.8,32.9c0.2,4.5,2,7.4,4.9,8.2c10.6,3.2,9,4.3,20.1,3.3
		c4.2-0.4,7.5-3.1,8.6-9.2c0.4-2,1.2-1.3,1.9-1.2c9.7,1.8,13.4-2.2,21.6,5c0.8,0.7,1.5,1.4,2.3,2.1c0.6,0.5,1.2,0.8,1.6-0.5
		c0.2-0.8-0.2-2,0.8-2.1c1-0.1,1.2,1.2,1.4,2.1c1.2,5.2,4.4,7.8,7.4,10.5c1.4,1.3,3,1.8,3.6-1.6c0.1-0.7,0-1.7,0.8-1.7
		c0.6,0,1.1,0.8,1,1.6c-0.3,6,3,6.4,6.1,7.2c2.1,0.6,3.8,0.3,3.8-3.6c0-0.7,0.3-1.4,0.8-2.4c0.9,4.4,2.5,7.3,6,7.7
		c4,0.4,7.6,6.1,9.1,0.9c0.2,0.2,0.6,0.4,0.7,0.7c0.9,5.7,4.2,5,7.3,4.9c1-0.1,2.1-0.6,3.1-0.4c2.8,0.5,3.4-1.6,3.6-4.7
		c0.1-1.2,0.2-1.1,1.4-1.3c1.1-0.2,0.6,3.4,0.8,4.6c0.7,4.2,2.8,5.5,5.6,5c8.8-1.5,23.2-0.9,31.4-4.9c4.8-0.6,17.8-7.8,18.3-15.5
		C682.3,1455,683.4,1450.9,684.1,1446.8z"/>
	<g>
		<path d="M564.2,1361.2l40-6.4c1.6,0,2.8-1.3,2.8-2.9c0-1.6-1.4-2.8-2.9-2.8l-41.3,6.6C561.3,1355.7,563.5,1358.9,564.2,1361.2z"/>
	</g>
	<g>
		<path d="M606.1,1268.9c0.5-1-0.1-1.9-0.6-2.9c-0.8-1.4-2.5-1.7-3.9-0.8l-46.9,26.6c-1.4,1-1.9,2.9-1.1,4.3
			c0.8,1.4,2.5,1.7,3.9,0.8l47.6-26.9C605.5,1269.8,605.9,1269.3,606.1,1268.9z"/>
	</g>
	<g>
		<path d="M600.4,1324.5c1.3-0.1,2.5-1.1,2.6-2.5c0.2-1.6-0.9-3-2.5-3.2l-40.6,5.8c-1.6-0.2-2.3,5.5-0.7,5.7l40.6-5.8
			C600,1324.5,600.2,1324.5,600.4,1324.5z"/>
	</g>
	<circle class="st3" cx="581.1" cy="1404.7" r="3.8"/>
	<circle class="st3" cx="554.6" cy="1358.9" r="3.8"/>
	<circle class="st3" cx="551.3" cy="1327.9" r="3.8"/>
	<circle class="st3" cx="549.3" cy="1298.4" r="3.8"/>
	<circle class="st3" cx="544.6" cy="1268.1" r="3.8"/>
	<g>
		<g>
			<path class="st4" d="M501.7,1251.2c-0.6,0.2-0.9,0.3-0.9,0.3l0.2,1"/>
			<path class="st6" d="M501.2,1254.4l17.4,99.3c0,0-4.5,28.7-4.1,33.7s1.8,8.2,1.8,8.2c0.4,1.5,4.8,1.4,8.7,1.3
				c3.9-0.1,21.9,4.6,27.8,7.8c5.9,3.2,25.4,11.3,28.9,13s8.1-5,7.6-11.7c-0.5-6.7-24.7-21.1-30.4-49.9c-2.8-14.2-9-55.3-5.5-100.5
				c1.5-19.4-41.2-7.6-50.8-4.7"/>
		</g>
	</g>
	<g>
		<path d="M556,1361.1l41.7-32.8c-0.1-1.4-0.1-2.7-0.2-4.6l-44.4,33.4c-0.7,1.4-1.3,2.9,0.1,3.6
			C553.5,1360.9,555.4,1362.1,556,1361.1z"/>
	</g>
	<g>
		<path d="M547.2,1300.1c-1-1.2-0.9-3,0.3-4c15.2-13.1,19.8-22.7,25.8-27.1l-28.5,1.8c-1.6,0-2.9-1.2-3-2.8c0-1.6,1.2-2.9,2.8-3
			l37.5-2.1l0.4,0.1c0.5,0.1,1.8,0.5,3.6,1.1l0.1-0.1c0,0,0,0.1,0,0.1c6.8,2.2,20.3,7.6,23.1,15.3c1,2.9,0.6,5.8-1.3,8.6
			c-2.4,3.5-5.2,4-7.1,3.7c-3.3-0.3-6.6-3.2-9.6-7c0.4,3.9,0.2,7.5-1.1,10.1c-1,2-2.5,3.5-4.4,4.1c-4.3,1.5-8.3,0.5-10.8-2.7
			c-3.1-3.8-4.1-11.3,0.5-22c-7.4,5.7-13.9,17-24.4,26c-0.6,0.5-1.3,0.7-2,0.7C548.5,1301.1,547.7,1300.8,547.2,1300.1z
			 M579.5,1292.9c1,1.3,2.5,1.6,4.5,0.9c0.3-0.1,0.7-0.3,1.1-1.2c1.7-3.7,0-12.7-2.2-20.1C577.4,1282.5,577.2,1290,579.5,1292.9z
			 M601.6,1286.1c0.2,0,0.9,0.1,1.9-1.3c1.1-1.5,0.9-2.6,0.6-3.3c-1.3-3.6-7.8-7.2-14.2-9.8C593.8,1279.3,598.6,1285.8,601.6,1286.1
			z"/>
	</g>
	<g>
		<path d="M551.6,1330.5c0.8,0,1.6-0.3,2.2-0.9l43.6-27.5c-0.1-1.7,0.1-3.1-0.3-5.5l-47.4,29.1c-1.1,1.2-1,3,0.2,4.1
			C550.3,1330.2,551,1330.4,551.6,1330.5z"/>
	</g>
	<circle class="st3" cx="567.3" cy="1385.3" r="3.8"/>
	<g>
		<path d="M567.7,1387.7c1.5,0.1,2.8-1,3-2.4l31.7-28c0.2-1.6-1.3-6.5-1.6-4.9l-35.8,32c-0.2,1.6,0.8,3,2.4,3.3
			C567.6,1387.7,567.6,1387.7,567.7,1387.7z"/>
	</g>
	<g>
		<path d="M581.1,1407.1c0,0,0.1,0,0.1,0c1.6,0,2.9-1.3,2.9-2.8l25-30.5c0-1.6-3.3-4.8-3.3-3.2l-27.4,33.6
			C578.4,1405.7,579.6,1407,581.1,1407.1z"/>
	</g>
</g>
<linearGradient id="SVGID_1_" gradientUnits="userSpaceOnUse" x1="625.9485" y1="1445.8726" x2="633.1678" y2="1410.5358">
	<stop  offset="2.412281e-02" style="stop-color:#191816"/>
	<stop  offset="0.952" style="stop-color:#454C4C;stop-opacity:0.2"/>
</linearGradient>
<path class="st7" d="M670.1,1429.9c0,0-12.4,10.9-28.5,12.9c-7.3,0.9-14.9-9-29.7-17c-17.6-9.4-14.4-9.7-20.3-12.2"/>
<g>
	<path d="M579.2,1386.9l32.9-15.1c1.6-0.3,2.6-1.8,2.3-3.3c-0.3-1.6-1.8-2.6-3.3-2.3l-35.5,15.5
		C576.4,1382.8,577.8,1385.5,579.2,1386.9z"/>
</g>
</svg>
