<?xml version="1.0" encoding="utf-8"?>
<!-- Generator: Adobe Illustrator 26.0.0, SVG Export Plug-In . SVG Version: 6.00 Build 0)  -->
<svg version="1.1" id="Layer_1" xmlns="http://www.w3.org/2000/svg" xmlns:xlink="http://www.w3.org/1999/xlink" x="0px" y="0px"
	 viewBox="0 0 838 1536.1" style="enable-background:new 0 0 838 1536.1;" xml:space="preserve">
<style type="text/css">
	.st0{fill:none;}
	.st1{fill-rule:evenodd;clip-rule:evenodd;fill:#3A3A3A;}
	.st2{opacity:0.47;}
	.st3{fill:#1C1C1C;}
	.st4{fill-rule:evenodd;clip-rule:evenodd;fill:#1C1C1C;}
	.st5{fill-rule:evenodd;clip-rule:evenodd;fill:url(#SVGID_1_);}
	.st6{fill-rule:evenodd;clip-rule:evenodd;fill:url(#SVGID_00000173157797186754484030000003551102361984190379_);}
	.st7{fill-rule:evenodd;clip-rule:evenodd;fill:url(#SVGID_00000036244999950826395000000004280610393774165419_);}
	.st8{opacity:0.58;fill-rule:evenodd;clip-rule:evenodd;fill:#898989;enable-background:new    ;}
	.st9{fill-rule:evenodd;clip-rule:evenodd;fill:url(#SVGID_00000010274630254344421440000005215975187509525655_);}
	.st10{fill-rule:evenodd;clip-rule:evenodd;fill:url(#SVGID_00000097502148444260340130000016846382729506072983_);}
	.st11{fill-rule:evenodd;clip-rule:evenodd;fill:url(#SVGID_00000054254855134889289280000012529037248818064817_);}
	.st12{fill-rule:evenodd;clip-rule:evenodd;fill:url(#SVGID_00000154428047135832858450000007345956315985129397_);}
	.st13{fill-rule:evenodd;clip-rule:evenodd;fill:url(#SVGID_00000172398451970225551850000014546495219005322929_);}
	.st14{fill-rule:evenodd;clip-rule:evenodd;fill:url(#SVGID_00000082340353881097951300000013533034216741089675_);}
</style>
<g id="Layer_2_00000119828946907962620610000006646740133042112950_">
	<g id="base">
		<rect x="0.3" class="st0" width="837.3" height="1536.1"/>
	</g>
	<g id="legs_08">
		<path class="st1" d="M508.9,1158.4c4.1,7,18.5,31.6,49.3,22.8s29.8-32.5,30.8-34.8c-4.1-16-7.8-30.4-9.4-40.3
			c-4.1-25.3-0.8-123.3-19.8-180.6c0-0.2-0.1-0.4-0.2-0.6c-7.7-23-15.5-51.7-21.5-77.8c-9.7-42-44.9-29.6-66-23.9
			c-21.9,5.9-32.6,27.7-37.1,38c-5.9,13.4-4.5,28-4.5,28s5.9,32,7.9,39.7c8.7,33.3,32.2,123.3,37.2,141.5
			c6.1,22.4,35.1,76.7,34.7,80.8C510.1,1152,509.6,1154.6,508.9,1158.4z"/>
		<path class="st1" d="M351.6,1128.6c0.1-7.1-25.7-11.8-48.7-8c-25.8,4.3-34.3,29.3-34.3,29.3c-13.7,67.8-14.1,92.2-21.1,120
			c-2.2,8.6-3.5,13.5-3.5,13.5l-12.6,80.8c9.4,65.4,58.2,30.4,70.8-6.2c2.8-4.4,26.1-67.3,26.2-67.4c2.9-6,18.2-40.2,20.6-46.8
			c14.2-39.6,16.8-50.8,16.5-63.7C365.1,1163.1,351.6,1128.6,351.6,1128.6z"/>
		<path class="st1" d="M404.8,863.7c-1.6-26.8-1.9-26.8-6.3-38.5c-9.2-24.8-47.6-34.7-65.4-26.9c-22.4,9.9-25.1,34.1-36.5,65.8
			c-7.8,21.8-15.1,51-21,78.8c-7.3,34.8-12.4,67.5-13.3,80.8c-0.3,4.3-2.9,43.8-2.6,49.8c1.5,27.5,8.9,76.3,8.9,76.3
			c1.3,10,8.6,30.2,19.3,36.4s31.2,4.5,37.5,4c14.1-1.3,25.8-17,29.7-28.4s-3.6-33.3-3.6-33.3c0.3-37.3,33.6-110,43.2-144
			c14.1-49.8,6.8-95.5,6.8-95.5S405.3,871.6,404.8,863.7z"/>
		<path class="st1" d="M542.6,1119.2c-17.9,3.1-31.6,25.4-32.4,31.6c0,0.1,0,0.2,0,0.3c-0.4,4.1-11.9,58.3-11.9,80.8
			s17.2,82.4,17.2,82.4l5.3,51.8c0,0-0.5,32.6,23.2,32.8c32.8,0.2,36.6-52.1,36.6-52.1s13.5-58.6,14.6-65.2
			c2.2-14.2,10.5-32.2,8.8-57.8c-1.9-28.5-8.4-50.1-15.3-78.1C583.3,1124,564.7,1115.4,542.6,1119.2z"/>
		<path class="st1" d="M430.7,890.7l0.3-0.1c12.6-4.8,26-6.2,39.2-8.5c0,0,89.7,10.8,64.8-44.5l-12.5-61.9l-3.1-10.4l-5.9-20.2
			c-29.8,12.2-179.5,4.3-179.5,4.3s-4.1,13.9-10.3,33.7c-4,12.2-9.5,28.9-14.3,45.3c-5.3,18-0.7,25.9,10,38.6s37.2,4.6,48.9,14.9
			c9.9,8.7,33.5,7.4,33.5,7.4l28.8,0.1C430.4,889.2,430.5,889.7,430.7,890.7z"/>
		<path class="st1" d="M333.9,749.3c59.5-8.5,119.7-10,179.5-4.3l5.9,20.2c-62.8,13.8-127.8,14.4-190.8,1.8
			C330.3,761.1,332.1,755.2,333.9,749.3z"/>
		<path class="st1" d="M529.1,808.6c0,0-54,3.5-49.2,69.2"/>
		<path class="st1" d="M317,802.9c0,0,50.7,14.1,43.8,74.9"/>
		<path class="st1" d="M516.1,754c-27.1,4.7-54.7,6.4-82.1,4.8"/>
		<path class="st1" d="M331.6,756.7c0,0,51.8,5.5,68.2,3.2"/>
		<g class="st2">
			<path class="st3" d="M370.3,890c-8.4,0.1-16.7,0.9-25,2.3c19.5-1.4,39.2,0.9,57.9,6.7c-0.3-2.5-0.6-4.6-0.9-6.2
				C391.7,890.8,381,889.8,370.3,890z"/>
			<path class="st3" d="M466.8,892.5c8.3-0.7,16.6-0.8,24.9-0.2c-20-3.4-40.6-3-60.5,1.2c0.3,1.7,0.7,3.7,1.1,6
				C443.5,895.8,455.1,893.5,466.8,892.5z"/>
			<path class="st3" d="M359.4,938c-8-0.2-16,0-23.9,0.7c22.6,0.5,44.9,5,65.8,13.3c0.4-2.7,0.7-5.3,1-7.9
				C388.3,940.5,373.9,938.4,359.4,938z"/>
			<path class="st3" d="M355.6,960.2c-7.5-0.5-17.6,2.4-25.1,2.7c22.5,1.8,45.6,3.7,67.1,12.3c0.7-2.7,1.4-5.4,2-8.1
				C385.1,963.3,370.4,961,355.6,960.2z"/>
			<path class="st3" d="M350.7,983.6c-7.3-0.7-18.2,2.9-25.6,2.9c21.8,3,43.7,3.8,65,12.1c1-2.8,1.9-5.5,2.8-8.1
				C378,987,364.6,984.6,350.7,983.6z"/>
			<path class="st3" d="M345.8,1007c-7.1-0.8-15.1-1.4-22.3-1.7c19.9,3.7,39.3,9.1,58.2,16.3c1-2.7,2-5.4,3-8
				C370.3,1010.5,358.8,1008.3,345.8,1007z"/>
			<path class="st3" d="M340.9,1030.4c-6.9-1-14.8-1.8-21.7-2.5c18.4,4.5,36.5,10.1,54.2,16.7c1-2.7,1.9-5.3,2.9-8
				C363.2,1033.9,352.5,1031.9,340.9,1030.4z"/>
			<path class="st3" d="M336,1053.8c-6.7-1.2-14.4-2.3-21.2-3.3c17.3,5.4,32.8,10.6,50.5,17.3c0.9-2.7,1.8-5.3,2.7-8
				C356.9,1057.6,345.8,1055.3,336,1053.8z"/>
			<path class="st3" d="M310.4,1073l47.7,18.2c0.7-2.7,1.5-5.4,2.3-8.2L310.4,1073z"/>
			<path class="st3" d="M348.6,1108c-13.3-2.6-42.1-4.4-55.1-8.1c14.8,6.7,43.6,11,59.2,16.4c0.4-2.3,0.8-4.8,1.3-7.3L348.6,1108z"
				/>
			<path class="st3" d="M345.4,1134.7c-13.4-2.6-36.2-2.6-49-7.2c17.8,9.4,40.7,11.2,60.9,17.3c-1-3.2-2.1-6.1-2.9-8.5
				C349.8,1135.5,347,1135,345.4,1134.7z"/>
			<path class="st3" d="M342.2,1161.4c-13.6-2.6-34-1.2-46.5-6.9c18.6,11.3,47.1,14.9,68.9,18c-0.4-2.7-1-5.5-1.7-8.4
				C357.9,1164,345.5,1162,342.2,1161.4z"/>
			<path class="st3" d="M361,1190.2c-21.2,0.2-58.2-4.3-76.7-14.3c18.7,13,56.5,20.5,79.4,22c0.5-2.8,0.9-5.5,1.2-7.9
				C363.6,1190,362.3,1190.1,361,1190.2z"/>
			<path class="st3" d="M336.4,1214.8c-14.2-2.5-39.8-4.6-51.9-12.3c17.3,13.7,49.4,19.6,71.6,20.7c0.7-2.4,1.8-4.8,2.4-7
				C352.6,1217.1,342.4,1215.9,336.4,1214.8z"/>
			<path class="st3" d="M333.3,1241.5c-14.5-2.5-40.9-5.6-52.7-14.2c15.8,13.9,45.4,19.5,66.7,21.1c0.6-1.9,1.4-3.7,2-5.5
				C344,1243,338.6,1242.6,333.3,1241.5z"/>
			<path class="st3" d="M319.4,1265.5c-10.6-3.5-35.2-6.8-43.8-14c12.5,12.3,42.7,23.2,60.7,21.6c0.2,0,0.1-1.6,1.9-3.9
				C331.7,1268.8,325.4,1267.6,319.4,1265.5z"/>
			<path class="st3" d="M365.4,913.4c-8.2-0.1-16.3,0.4-24.5,1.5c21.6-0.6,43.2,3,63.5,10.5c0-2.5,0-4.9,0-7.2
				C391.6,915.1,378.5,913.5,365.4,913.4z"/>
			<path class="st3" d="M471.8,916c7.8-1,18-0.1,25.9-0.1c-20-2.6-41.9-2.9-61.8,1.5c0.5,2.3,0.9,4.5,1.3,6.3
				C448.3,919.9,460,917.3,471.8,916z"/>
			<path class="st3" d="M476.7,939.5c7.5-1.2,23.4,0.7,31.1,0.4c-19.7-1.8-46.8-3.1-66.3,1.2c0.5,2.1,1.1,4.3,1.7,6.5
				C454.1,943.9,465.3,941.2,476.7,939.5z"/>
			<path class="st3" d="M481.7,963c7.3-1.4,21.2-0.3,28.6-1c-19.1-0.9-43.6-1.4-62.7,2.6l1.8,6.8C459.8,968,471.3,964.7,481.7,963z"
				/>
			<path class="st3" d="M486.7,986.6c7.1-1.6,19.8-0.6,27.1-1.7c-18.5,0-41.4-0.5-59.9,3.4c0.6,2.3,1.2,4.7,1.8,7
				C465.5,992,477,988.4,486.7,986.6z"/>
			<path class="st3" d="M491.7,1010.1c6.9-1.8,14.8-3.4,21.8-4.8c-18,0.8-35.8,3-53.4,6.6c0.6,2.4,1.3,4.8,1.9,7.2
				C471.1,1016,482.7,1012.1,491.7,1010.1z"/>
			<path class="st3" d="M496.6,1033.6c6.7-2,14.4-4,21.2-5.8c-17.3,1.6-34.6,4.2-51.6,7.6c0.7,2.6,1.3,5,2,7.4
				C476.6,1040,488.6,1035.7,496.6,1033.6z"/>
			<path class="st3" d="M501.6,1057.1c6.5-2.2,14-4.6,20.5-6.7c-16.2,2.3-33.1,5.3-49.7,8.6c0.8,3,1.5,5.5,2,7.7
				C482,1064,494.6,1059.3,501.6,1057.1z"/>
			<path class="st3" d="M526.5,1073l-46.9,9.4c0.9,2.3,1.9,4.8,3,7.3C483.8,1089.3,524.1,1074,526.5,1073z"/>
			<path class="st3" d="M506.1,1111.2c7.4-3,32.1-7.7,39.3-11c-13.1,3.6-41.1,4.6-54.8,7.4c0.9,1.9,1.7,3.7,2.6,5.6
				C498.7,1111.1,501.9,1112.8,506.1,1111.2z"/>
			<path class="st3" d="M512.5,1136.9c6.5-2.9,26.7-7.2,32.9-10.6c-9.5,3.5-33.2,3.7-43.2,6.1c0.7,1.4,2.4,6.4,3,7.7
				C508,1139,510.3,1137.8,512.5,1136.9z"/>
			<path class="st3" d="M512.7,1164.1c6.7-3.1,28.9-9,35.1-12.9c-7.9,3.7-31.3,8.6-39.7,11.1c-0.2,1.3-0.5,2.7-0.8,4.2
				C509.6,1165.5,510.8,1165,512.7,1164.1z"/>
			<path class="st3" d="M518.4,1190.8c7.8-3.7,28.6-10.3,35.6-15.3c-10.7,5.8-38.3,8.4-50.3,11.3c-0.3,1.6-0.5,3.2-0.8,4.8
				C507.5,1190,514.5,1192.5,518.4,1190.8z"/>
			<path class="st3" d="M516.4,1219c13.8-4.1,28.2-9.4,39.4-18.3c-12.4,7.9-41.7,11.8-56.2,14.3c-0.2,1.7-0.4,3.3-0.5,4.9
				C500.3,1219.6,515.2,1219.3,516.4,1219z"/>
			<path class="st3" d="M509,1248.2c14.2-3.9,39.9-12.2,50.8-21.8c-13.1,9.6-44.5,13.9-60.7,15.8c0.2,1.4,0.4,2.9,0.6,4.4
				C501.8,1246.1,507.1,1248.7,509,1248.2z"/>
			<path class="st3" d="M522.7,1272c10.5-4.4,31-12.4,39.1-20.3c-12.2,10.2-42.1,14.9-57.9,16.9c0.3,1.2,0.5,2.4,0.8,3.7
				C509.4,1271.3,518.3,1273.9,522.7,1272z"/>
		</g>
		<path class="st3" d="M458.4,898.6c8-2,16.1-3.4,24.4-4.1l3.1-0.3c0.5,0,1-0.1,1.5-0.1h1.5l6.2-0.2c2.1-0.1,4.1,0.1,6.2,0.1
			l6.2,0.3l-6.2-0.9c-2.1-0.3-4.1-0.7-6.2-0.8l-6.3-0.5l-1.6-0.1c-0.5,0-1,0-1.6,0h-3.1c-17-0.3-33.9,2.2-50.1,7.4l-0.3,0.1
			c0.5,2.3,0.9,4.9,1.5,7.6c0.5-0.2,1-0.4,1.4-0.6C442.7,903.2,450.5,900.6,458.4,898.6z"/>
		<path class="st3" d="M354.3,892h-3.1c-0.5,0-1,0-1.6,0l-1.6,0.1l-6.3,0.5c-2.1,0.1-4.2,0.5-6.2,0.8l-6.2,0.9l6.2-0.3
			c2.1-0.1,4.1-0.2,6.2-0.1l6.2,0.2h1.5c0.5,0,1,0.1,1.5,0.1l3.1,0.3c16.4,1.4,32.5,5.4,47.6,11.9c0.7,0.3,1.5,0.6,2.2,1
			c-0.2-3.2-0.5-6-0.8-8.4C387.3,894,370.8,891.7,354.3,892L354.3,892z"/>
		<path class="st3" d="M368.6,941.1c-6.3-0.9-17.8-2.5-24.1-2.3l-3-0.1c-0.4,0-1.1-0.1-1.5,0h-1.5l-6,0.1c-1.6,0.1-4.4,0.1-6,0.3
			l-5.9,0.4l6,0.3c1.6,0,4.4,0.3,5.9,0.4l5.9,0.6l1.5,0.1c0.4,0,1.1,0.2,1.5,0.2l2.9,0.4c6.2,0.5,17.2,3.4,23.1,4.9
			c7.7,2.1,15.2,4.7,22.5,7.8c2.8,1.2,8,3.5,10.6,4.9l0.5,0.3c0.6-3.3,1.1-6.6,1.5-9.8c-3.1-1.1-7.5-2.4-10.1-3.2
			C384.6,944.1,376.7,942.3,368.6,941.1z"/>
		<path class="st3" d="M363.1,964.8c-5.2-0.7-18.3-2.7-23.6-2.6l-2.9-0.2c-0.3,0-1.1-0.1-1.5-0.1h-1.5l-5.9-0.1
			c-1.3,0.1-4.5-0.1-5.8,0.1l-5.8,0.2l5.9,0.6c1.3,0,4.5,0.6,5.8,0.6l5.7,0.8l1.4,0.2c0.3,0,1.1,0.2,1.4,0.2l2.9,0.5
			c5.2,0.4,17.5,4.1,22.5,5.3s17.5,5.8,22.2,7.8c2.3,1,8.2,3.5,10.5,4.7c0.2,0.1,0.5,0.2,0.8,0.4c0.5-1.6,1-3.2,1.4-4.6
			c0.5-1.8,1-3.5,1.4-5.2c-2.6-1-8.9-2.7-11.4-3.5C378.9,967.8,371,966.1,363.1,964.8z"/>
		<path class="st3" d="M357.7,988.5c-4.2-0.6-18.8-3-23-2.9l-2.9-0.2c-0.3,0-1.1-0.1-1.4-0.1l-1.4-0.1l-5.7-0.3
			c-1,0-4.7-0.3-5.7-0.1l-5.7-0.1l5.7,0.9c1,0,4.6,0.8,5.6,0.9l5.6,1l1.4,0.2c0.3,0,1.1,0.3,1.4,0.3l2.8,0.6
			c4.1,0.3,17.9,4.8,21.9,5.7s18.1,6.2,21.9,7.8c1.6,0.7,6.8,2.8,9.3,4c1.2-3.4,2.4-6.7,3.5-9.8c-2.8-0.9-8.5-2.3-10.2-2.8
			C376.6,992.2,361.9,989.1,357.7,988.5z"/>
		<path class="st3" d="M352.2,1012.2c-3.1-0.4-19.3-3.3-22.4-3.2l-2.8-0.3c-0.2,0-1.2-0.2-1.4-0.2l-1.4-0.1l-5.6-0.5
			c-0.8,0-4.8-0.5-5.5-0.4l-5.5-0.3l5.6,1.1c0.8,0,4.7,1.1,5.4,1.1l5.4,1.2l1.3,0.3c0.2,0,1.1,0.3,1.3,0.3l2.7,0.7
			c3.1,0.2,18.3,5.4,21.3,6.2s18.7,6.6,21.5,7.8c0.9,0.4,4.2,1.7,6.9,2.8l3.6-9.9c-3-0.8-6.9-1.7-7.9-2
			C371.7,1016,355.3,1012.6,352.2,1012.2z"/>
		<path class="st3" d="M346.7,1035.9c-2.1-0.3-19.8-3.6-21.9-3.5l-2.7-0.4c-0.1,0-1.2-0.2-1.3-0.2l-1.4-0.2l-5.4-0.6
			c-0.5,0-4.9-0.7-5.4-0.6l-5.4-0.6l5.5,1.4c0.5,0,4.8,1.3,5.3,1.4l5.2,1.4l1.3,0.3c0.1,0,1.2,0.4,1.3,0.4l2.6,0.8
			c2.1,0.2,18.7,6.1,20.7,6.6s19.3,7,21.2,7.8l4.6,1.8c1.2-3.3,2.4-6.7,3.6-10c-2.5-0.6-5-1.2-5.5-1.3
			C366.8,1039.9,348.8,1036.2,346.7,1035.9z"/>
		<path class="st3" d="M341.3,1059.6c-1-0.1-20.2-3.9-21.3-3.8l-2.7-0.4c-0.1,0-1.2-0.2-1.3-0.2l-1.3-0.2l-5.3-0.8
			c-0.3,0-5-0.8-5.3-0.8l-5.3-0.8l5.4,1.7c0.3,0,4.9,1.6,5.1,1.6l5.1,1.7l1.2,0.4c0.1,0,1.2,0.4,1.2,0.4l2.5,0.8
			c1,0.1,19.1,6.8,20.1,7s19.9,7.4,20.9,7.8l2.7,1.1c1.1-3.4,2.2-6.8,3.3-10.2c-1.8-0.4-3.2-0.7-3.4-0.8
			C361.9,1063.7,342.3,1059.8,341.3,1059.6z"/>
		<path class="st3" d="M294.4,1075l39.4,15l22.4,8.5c0.9-3.4,1.8-7,2.8-10.6l-23.3-4.7L294.4,1075z"/>
		<path class="st3" d="M332.6,1110c-0.5-0.1-9.4-1.9-9.9-2.1c-0.2-0.1-5-1.1-5.2-1.2l-2.6-0.6l-1.3-0.3l-1.3-0.3
			c-0.5-0.2-10-2.3-10.4-2.6s-9.9-2.4-10.3-2.8c0.4,0.4,9.4,4,9.8,4.3s9.5,3.9,10,4.2l1.2,0.5l1.2,0.5l2.5,1c0.2,0.1,4.8,1.9,5.1,2
			c0.5,0.2,8.9,3.4,9.4,3.5l0.8,0.3c1,0.3,16.6,5.9,20.2,6.9c0.2-3.1,0.7-6.3,1.3-9.8c-4-0.5-19-3.4-19.9-3.5L332.6,1110z"/>
		<path class="st3" d="M351,1139.9c-2.1,0.3-19-2.7-21-3.1l-0.5-0.1c-1-0.2-9-1.8-9.9-2.2c-0.5-0.2-4.7-1.1-5.2-1.3l-2.6-0.7
			l-1.3-0.3l-1.3-0.4c-1-0.5-9.4-2.5-10.3-3.1s-9.3-2.7-10.1-3.4c0.8,0.8,8.7,4.2,9.6,4.8s8.9,4,9.9,4.6l1.2,0.6l1.2,0.5l2.5,1.1
			c0.5,0.2,4.6,1.9,5.1,2.1c0.9,0.4,8.5,3.2,9.5,3.5l0.8,0.3c2.1,0.6,19,6.3,21.2,6.2c0.9,0,6.9,1.8,9.5,2.3
			c-1.2-3.9-2.4-7.6-3.5-10.9C354.2,1140.1,352.6,1139.9,351,1139.9z"/>
		<path class="st3" d="M358.3,1166.2c-1.5,0.4-8.8-0.4-10.4-0.2c-3.1,0.4-18.1-2-21.2-2.6l-0.6-0.1c-1.5-0.3-8.5-1.8-10-2.2
			c-0.8-0.2-4.5-1.2-5.2-1.4l-2.6-0.8l-1.3-0.4l-1.3-0.4c-1.4-0.7-8.8-2.7-10.2-3.6s-8.7-3.1-9.9-4.1c1.1,1.1,8.1,4.4,9.4,5.4
			s8.4,4.1,9.8,5l1.2,0.6l1.2,0.6l2.5,1.1c0.7,0.3,4.4,1.8,5.1,2.1c1.4,0.6,8.1,3.1,9.6,3.5c0.1,0,0.7,0.2,0.8,0.3
			c3.2,0.8,18.3,5.6,21.6,5.4c1.7-0.1,9.2,1.9,10.9,1.6c0.8-0.2,4.6,0.7,5.4,0.5c0.6,0,1.2,0,1.8,0.1c-0.4-3.5-1-7-1.8-10.5
			C362.6,1166.3,359.1,1166,358.3,1166.2z"/>
		<path class="st3" d="M363,1190.9c-0.5,0.2-2,0.2-2.5,0.4c-1,0.4-4.1,0.3-5.1,0.6c-2,0.6-8.4,0.1-10.4,0.4
			c-4.1,0.5-17.2-1.3-21.3-2l-0.7-0.2c-2-0.4-8.1-1.7-10-2.3c-1-0.3-4.2-1.2-5.2-1.6l-2.6-0.9l-1.3-0.4l-1.3-0.5
			c-1.9-1-8.3-2.9-10-4.1s-8-3.4-9.7-4.8c1.5,1.5,7.5,4.6,9.1,5.9s7.8,4.2,9.7,5.3l1.2,0.6l1.2,0.6l2.5,1.2c1,0.5,4.1,1.8,5.1,2.2
			c1.9,0.8,7.8,3,9.7,3.5c0.2,0,0.7,0.2,0.9,0.3c4.3,1.1,17.5,4.9,22,4.6c2.2-0.1,8.9,1.3,11.1,0.8c1.1-0.2,4.4,0.3,5.5,0
			c0.7-0.1,1.5-0.1,2.2,0c0.7-3.7,1.3-7,1.6-10c-0.2,0-0.5,0.1-0.7,0.1C364,1190.8,363.2,1190.8,363,1190.9z"/>
		<path class="st3" d="M352.4,1217.3c-2.5,0.7-7.9,0.7-10.5,1c-5.1,0.7-16.3-0.6-21.5-1.5l-0.6-0.1c-3.4-0.6-6.7-1.4-10-2.4
			c-1.3-0.4-4-1.2-5.2-1.7l-2.6-1l-1.3-0.5l-1.3-0.5c-2.4-1.2-7.7-3.1-9.9-4.6s-7.4-3.7-9.5-5.4c1.9,1.9,6.8,4.8,8.9,6.4
			s7.2,4.3,9.6,5.7l1.2,0.7l1.2,0.6l2.5,1.2c1.2,0.6,3.9,1.8,5.2,2.3c3.2,1.3,6.5,2.5,9.8,3.5c0.2,0.1,0.6,0.2,0.9,0.2
			c5.3,1.4,16.8,4.1,22.3,3.8c2.8-0.2,8.5,0.6,11.2,0c0.9-0.1,1.7-0.2,2.6-0.2c0.9-3.1,2.1-5.9,2.9-8.8c-0.6,0.2-0.5,0-1,0.2
			C356.3,1216.8,353.7,1217,352.4,1217.3z"/>
		<path class="st3" d="M338.9,1244.5c-6.2,0.8-15.5,0.2-21.7-1l-0.6-0.1c-3.4-0.6-6.8-1.5-10.1-2.5c-1.5-0.5-3.7-1.2-5.2-1.8l-2.6-1
			l-1.3-0.5l-1.3-0.6c-3.4-1.5-6.6-3.2-9.8-5.1c-2.7-1.8-6.8-4-9.2-6.1c2.3,2.3,6.2,4.9,8.7,6.9c3,2.2,6.2,4.2,9.5,6.1l1.2,0.7
			l1.2,0.7l2.5,1.3c1.5,0.7,3.7,1.7,5.2,2.3c3.2,1.4,6.5,2.5,9.9,3.5l0.9,0.2c6.4,1.7,16,3.4,22.7,3c2.9-0.2,4.3-0.1,7.5-0.5
			c0.9-2.6,2-4.6,2.8-7.1C348.6,1243,342,1244.1,338.9,1244.5z"/>
		<path class="st3" d="M314.1,1270.2c-3.6-0.6-7.2-1.5-10.7-2.7c-1.8-0.5-3.5-1.3-5.2-1.9l-2.5-1.1l-1.3-0.6l-1.2-0.6
			c-3.3-1.7-6.6-3.6-9.7-5.6c-3.1-2.1-6.1-4.3-9-6.7c2.7,2.6,5.5,5.1,8.5,7.4c3,2.3,6.1,4.5,9.4,6.4l1.2,0.7l1.2,0.7l2.5,1.4
			c1.7,0.8,3.4,1.7,5.2,2.4c3.5,1.5,7.2,2.7,10.9,3.7c7.1,1.8,14.4,2.6,21.7,2.3c0.5-1.2,0.9-2.2,1.3-3l1.3-2.9
			c-0.5,0.3-1.1,0.5-1.8,0.7C328.7,1271.6,321.3,1271.5,314.1,1270.2z"/>
		<path class="st3" d="M374.1,917.4c-7.3-1-17.3-2.2-24.7-2h-3.1c-0.5,0-1.1,0-1.5,0l-1.5,0.1l-6.1,0.3c-1.8,0.1-4.3,0.3-6.1,0.5
			l-6.1,0.6h6.1c1.8-0.1,4.3,0,6.1,0.1l6.1,0.4l1.5,0.1c0.5,0,1.1,0.1,1.5,0.2l3,0.3c7.2,0.5,16.8,2.8,23.8,4.5
			c7.8,2,15.5,4.7,22.9,7.8c2.5,1,5.5,2.4,8.2,3.8c0.2-3.2,0.3-6.3,0.4-9.3c-2.1-0.7-4.2-1.4-6-1.9
			C390.4,920.4,382.3,918.6,374.1,917.4z"/>
		<path class="st3" d="M464,922.5c7-1.7,16.5-4,23.8-4.5l3-0.3c0.5,0,1-0.2,1.5-0.2l1.5-0.1l6.1-0.4c1.8-0.1,4.2-0.2,6.1-0.1h6.1
			l-6.1-0.6c-1.8-0.2-4.3-0.5-6.1-0.5l-6.1-0.3l-1.5-0.1c-0.5,0-1.1,0-1.5,0h-3.1c-7.4-0.2-17.3,0.9-24.7,2
			c-8.3,1.2-16.4,3.1-24.4,5.5l-1.5,0.5c0.5,2.3,0.9,4.2,1.2,5.5c0.2,0.8,0.4,1.6,0.6,2.4c0.8-0.3,1.5-0.7,2.2-1
			C448.5,927.2,456.2,924.5,464,922.5z"/>
		<path class="st3" d="M469.6,946.4c6-1.5,17-4.5,23.1-4.9l2.9-0.4c0.4,0,1.1-0.2,1.5-0.2l1.5-0.1l5.9-0.6c1.6-0.1,4.4-0.4,5.9-0.4
			l6-0.3l-5.9-0.4c-1.6-0.2-4.4-0.2-6-0.3l-6-0.1H497c-0.4,0-1.1,0-1.5,0l-3,0.1c-6.3-0.2-17.8,1.4-24.1,2.3
			c-8.1,1.3-16.1,3-23.9,5.3l-1.5,0.5c0.7,2.6,1.4,5.4,2.1,8.2l1.9-0.8C454.4,951.2,461.9,948.6,469.6,946.4z"/>
		<path class="st3" d="M475.2,970.4c5-1.2,17.4-4.9,22.5-5.3l2.9-0.5c0.3,0,1.1-0.2,1.4-0.2l1.4-0.2l5.7-0.8
			c1.3-0.1,4.4-0.7,5.7-0.6l5.9-0.6l-5.8-0.2c-1.3-0.2-4.5,0-5.8-0.1l-5.9,0.1h-1.5c-0.3,0-1.1,0.1-1.5,0.1l-2.9,0.2
			c-5.3-0.1-18.3,1.9-23.5,2.6c-7.9,1.3-15.7,3.1-23.5,5.2l-1.2,0.4c0.7,2.8,1.5,5.7,2.2,8.6l1.6-0.7
			C457.6,976.2,470.2,971.6,475.2,970.4z"/>
		<path class="st3" d="M480.8,994.3c4-1,17.8-5.4,21.9-5.7l2.8-0.6c0.2,0,1.1-0.3,1.4-0.3l1.4-0.2l5.6-1c1,0,4.6-0.9,5.6-0.9
			l5.7-0.9l-5.7,0.1c-1-0.1-4.6,0.2-5.7,0.1l-5.7,0.3l-1.4,0.1c-0.3,0-1.1,0.1-1.4,0.1l-2.9,0.2c-4.2-0.1-18.8,2.3-23,2.9
			s-18.9,3.7-23,5l-1,0.3c0.8,3,1.6,6,2.3,8.9l1.3-0.5C462.6,1000.5,476.8,995.3,480.8,994.3z"/>
		<path class="st3" d="M486.4,1018.2c3-0.7,18.2-5.9,21.3-6.2l2.7-0.7c0.2,0,1.1-0.3,1.3-0.3l1.3-0.3l5.4-1.2c0.8,0,4.7-1.2,5.4-1.1
			l5.6-1.1l-5.5,0.3c-0.8-0.1-4.8,0.4-5.6,0.4l-5.6,0.5l-1.4,0.1c-0.2,0-1.2,0.2-1.4,0.2l-2.8,0.3c-3.2-0.1-19.3,2.8-22.4,3.2
			s-19.5,3.8-22.5,4.8l-0.8,0.2c0.8,3.1,1.6,6.2,2.4,9.3l1-0.4C467.6,1024.9,483.4,1019,486.4,1018.2z"/>
		<path class="st3" d="M492,1042.2c2-0.5,18.6-6.4,20.7-6.6l2.6-0.8c0.1,0,1.2-0.4,1.3-0.4l1.3-0.3l5.2-1.4c0.5,0,4.8-1.4,5.3-1.4
			l5.5-1.4l-5.4,0.6c-0.5-0.1-4.9,0.6-5.4,0.6l-5.5,0.7l-1.3,0.2c-0.1,0-1.2,0.2-1.3,0.2l-2.7,0.4c-2.1,0-19.8,3.2-21.9,3.5
			s-20,4-22.1,4.6l-0.6,0.2l2.5,9.6l0.6-0.3C472.6,1049.2,490,1042.7,492,1042.2z"/>
		<path class="st3" d="M497.5,1066.1c1-0.2,19.1-6.9,20.1-7l2.5-0.8c0.1,0,1.2-0.4,1.2-0.4l1.2-0.4l5.1-1.7c0.3,0,4.9-1.7,5.1-1.6
			l5.3-1.7l-5.3,0.8c-0.3,0-5,0.8-5.3,0.8l-5.3,0.8l-1.3,0.2c-0.1,0-1.2,0.2-1.3,0.2l-2.7,0.4c-1,0-20.2,3.7-21.3,3.8
			s-20.6,4.1-21.6,4.4l-0.3,0.1c0.7,2.6,1.2,4.7,1.7,6.2c0.3,1.1,0.7,2.3,1.1,3.6h0.1C477.6,1073.5,496.5,1066.3,497.5,1066.1z"/>
		<path class="st3" d="M542.5,1075l-41.4,8.3l-19.6,3.9c1.3,3,2.6,6.2,4.1,9.4l17.5-6.7L542.5,1075z"/>
		<path class="st3" d="M506.2,1116.2c0.5-0.1,9-3.3,9.4-3.5c0.2-0.1,4.8-1.9,5.1-2l2.5-1l1.2-0.5l1.2-0.5c0.5-0.3,9.5-3.9,10-4.2
			s9.4-4,9.8-4.3c-0.4,0.3-9.9,2.5-10.3,2.8s-9.9,2.4-10.4,2.6l-1.3,0.3l-1.3,0.3l-2.6,0.6c-0.2,0.1-5,1.1-5.2,1.2
			c-0.5,0.2-9.4,2-9.9,2.1l-0.5,0.1c-0.5,0.1-5.9,1.1-11.1,2.1c1.2,2.6,2.4,5.1,3.5,7.6c4.5-1.6,8.6-3,9.1-3.2L506.2,1116.2z"/>
		<path class="st3" d="M509.2,1142.4c1-0.3,8.6-3.1,9.5-3.5c0.5-0.2,4.6-1.8,5.1-2.1l2.5-1.1l1.2-0.5l1.2-0.6c0.9-0.6,9-3.9,9.9-4.6
			s8.8-4.1,9.6-4.8c-0.8,0.7-9.2,2.8-10.1,3.4s-9.3,2.6-10.3,3.1l-1.3,0.4l-1.3,0.3l-2.6,0.7c-0.5,0.2-4.7,1.2-5.2,1.3
			c-0.9,0.3-8.9,2-9.9,2.2l-0.6,0.1l-2.5,0.4c1,2.1,1.9,4.1,2.7,5.8l1.2-0.4C508.5,1142.7,509.1,1142.4,509.2,1142.4z"/>
		<path class="st3" d="M512.3,1168.6c1.5-0.4,8.2-2.9,9.6-3.5c0.8-0.3,4.4-1.8,5.1-2.1l2.5-1.1l1.2-0.6l1.2-0.6c1.4-0.8,8.5-4,9.8-5
			s8.2-4.2,9.4-5.4c-1.2,1-8.6,3.2-9.9,4.1s-8.7,2.9-10.2,3.6l-1.3,0.4l-1.3,0.4l-2.6,0.8c-0.7,0.3-4.5,1.2-5.2,1.4
			c-1.4,0.5-8.5,2-10,2.2l-0.6,0.1l-2.3,0.4c-0.4,2-0.8,4.1-1.2,6.4c2.1-0.6,3.9-1.2,4.8-1.4
			C511.6,1168.9,512.2,1168.7,512.3,1168.6z"/>
		<path class="st3" d="M515.3,1194.8c2-0.5,7.9-2.7,9.7-3.5c1-0.4,4.2-1.7,5.1-2.2l2.5-1.2l1.2-0.6l1.2-0.6c1.9-1.1,8-4,9.7-5.3
			s7.6-4.4,9.2-5.9c-1.7,1.4-7.9,3.6-9.7,4.8s-8.1,3.2-10,4.1l-1.3,0.5l-1.3,0.4l-2.6,0.9c-1,0.4-4.2,1.2-5.2,1.6
			c-1.9,0.7-8,2-10,2.3l-0.6,0.1c-2,0.4-6.2,1-10.4,1.5c-0.4,2.2-0.7,4.4-1.1,6.7c4.9-1.1,10.2-2.6,12.6-3.2
			C514.7,1195,515.2,1194.8,515.3,1194.8z"/>
		<path class="st3" d="M518.4,1221c3.3-1,6.6-2.1,9.8-3.5c1.3-0.5,3.9-1.7,5.2-2.3l2.5-1.2l1.2-0.6l1.2-0.7c2.3-1.4,7.4-4,9.6-5.7
			s7-4.5,8.9-6.4c-2.1,1.7-7.2,3.9-9.5,5.4s-7.5,3.4-9.9,4.6l-1.3,0.5l-1.3,0.5l-2.6,1c-1.2,0.5-4,1.3-5.2,1.7
			c-3.3,1-6.6,1.8-10,2.4l-0.6,0.1c-5.7,1-11.5,1.5-17.3,1.7c-0.2,2.3-0.4,4.4-0.6,6.5c6-0.5,14.5-2.6,18.9-3.7
			C517.7,1221.2,518.2,1221.1,518.4,1221z"/>
		<path class="st3" d="M521.5,1247.2c3.4-0.9,6.7-2.1,9.9-3.5c1.5-0.6,3.7-1.7,5.2-2.3l2.5-1.3l1.2-0.7l1.2-0.7
			c3.3-1.9,6.4-3.9,9.5-6.1c2.6-2,6.4-4.7,8.7-6.9c-2.5,2.1-6.6,4.3-9.2,6.1c-3.2,1.9-6.5,3.6-9.8,5.1l-1.2,0.6l-1.3,0.5l-2.5,1
			c-1.5,0.6-3.7,1.3-5.2,1.8c-3.3,1.1-6.7,1.9-10.1,2.5l-0.6,0.1c-6.7,1.2-13.5,1.6-20.3,1.1c0.3,1.9,0.6,3.8,0.9,5.9
			c6.8-0.3,13.6-1.3,20.2-3.1L521.5,1247.2z"/>
		<path class="st3" d="M534.5,1269.9c1.8-0.7,3.5-1.6,5.2-2.4l2.5-1.4l1.3-0.7l1.2-0.7c3.2-2,6.4-4.1,9.4-6.4c3-2.3,5.8-4.8,8.5-7.4
			c-2.9,2.4-5.9,4.7-9,6.7c-3.1,2.1-6.3,4-9.7,5.6l-1.2,0.6l-1.3,0.6l-2.5,1.1c-1.7,0.7-3.4,1.4-5.2,1.9c-9.4,3.2-19.3,4.4-29.2,3.5
			c0.4,1.7,0.8,3.3,1.1,5C515.6,1275.9,525.4,1273.9,534.5,1269.9L534.5,1269.9z"/>
		<polygon class="st4" points="257.8,1010.5 277.9,1007.2 331.1,982.7 354.2,831.6 		"/>
		<path class="st4" d="M313,813c0,0,39.4,38,91.9,33.5l-85.9-39L313,813z"/>
		
			<linearGradient id="SVGID_1_" gradientUnits="userSpaceOnUse" x1="314" y1="718.9334" x2="530.18" y2="718.9334" gradientTransform="matrix(1 0 0 -1 0 1536)">
			<stop  offset="0" style="stop-color:#8FA0A1"/>
			<stop  offset="1" style="stop-color:#94A0A1"/>
		</linearGradient>
		<path class="st5" d="M314,809.5c0,0,18.4,10.2,43.7,26.3c24.7,15.7,77.3,11.1,112.6,3c30.5-7,59.9-29.3,59.9-29.3
			s-1.9-6.5-5.5-21.6c0,0-67.2,12.7-115.8,11.5c-29.6-0.7-59.1-3-88.5-6.8L314,809.5z"/>
		
			<linearGradient id="SVGID_00000000944817679216965890000010368669075990504113_" gradientUnits="userSpaceOnUse" x1="247.183" y1="425.0549" x2="367.62" y2="425.0549" gradientTransform="matrix(1 0 0 -1 0 1536)">
			<stop  offset="0" style="stop-color:#8FA0A1"/>
			<stop  offset="1" style="stop-color:#94A0A1"/>
		</linearGradient>
		<path style="fill-rule:evenodd;clip-rule:evenodd;fill:url(#SVGID_00000000944817679216965890000010368669075990504113_);" d="
			M248.6,1119.9c2.5,12.6,5.4,16.9,9.9,20.8c9.7-0.9,8.1-9.1,18.3-8.3c6.8,0.5,37.6,5.8,59.9,9.9c1.2,0.2,29.9,41.5,31,41.7
			c0-17.7-8.2-37.2-8.2-37.2l-6-16.4l-61.2-17.6l-14.9-17.4c0,0-17.9-52.8-23-57.4c0,0-4,35-5.2,44.8S245.8,1105.9,248.6,1119.9z"/>
		
			<linearGradient id="SVGID_00000011748090391835819490000013674332755038320797_" gradientUnits="userSpaceOnUse" x1="320" y1="746.0709" x2="524.51" y2="746.0709" gradientTransform="matrix(1 0 0 -1 0 1536)">
			<stop  offset="0" style="stop-color:#8FA0A1"/>
			<stop  offset="1" style="stop-color:#94A0A1"/>
		</linearGradient>
		<path style="fill-rule:evenodd;clip-rule:evenodd;fill:url(#SVGID_00000011748090391835819490000013674332755038320797_);" d="
			M320,785.8c15.6,4.6,30.6,11.3,44.4,20c22.2,14,70.4,16,100.9,2.7c25.7-11.2,59.2-26.3,59.2-26.3s-3.7-5.7-3.7-19.8
			c0,0-67,11.9-110.5,10.9c-28.4-0.8-56.8-3.1-85-6.8L320,785.8z"/>
		<path class="st8" d="M324.3,768.1l43.9,41.5c0,0,105.6-1.9,107.1-1.7s53.6-43.4,53.6-43.4s-3.7-5.7-3.7-19.8c0,0-67,7.5-110.5,6.5
			s-85-2.4-85-2.4L324.3,768.1z"/>
		<path class="st4" d="M353.4,1130.3l-56.1-17.8l-17.4-19.3c0,0-20.4-50.7-25.6-55.3l23,57.4l14.9,17.4L353.4,1130.3z"/>
		<path class="st4" d="M320.5,764.3c0,0,41.8,58.8,43.9,59.9s106.5-3.8,106.5-3.8l-89.1-18.3L320.5,764.3z"/>
		<polygon class="st4" points="267.2,1025.8 280.5,1088.4 327.4,1080.6 360.5,1082.8 		"/>
		
			<linearGradient id="SVGID_00000080891719080710057330000008539885782764994728_" gradientUnits="userSpaceOnUse" x1="320.5" y1="755.6331" x2="525.0001" y2="755.6331" gradientTransform="matrix(1 0 0 -1 0 1536)">
			<stop  offset="0" style="stop-color:#8FA0A1"/>
			<stop  offset="1" style="stop-color:#94A0A1"/>
		</linearGradient>
		<path style="fill-rule:evenodd;clip-rule:evenodd;fill:url(#SVGID_00000080891719080710057330000008539885782764994728_);" d="
			M320.5,764.3l45,56.2c0,0,103.3-0.1,104.8,0s54.7-59.8,54.7-59.8s0.1-3-4.8-14.5c0,0-45.3-5.9-93.1-5.9
			c-43.5,0-102.5,9.4-102.5,9.4L320.5,764.3z"/>
		
			<linearGradient id="SVGID_00000047743206970921345360000014984068818044426407_" gradientUnits="userSpaceOnUse" x1="268.68" y1="510.18" x2="403.79" y2="510.18" gradientTransform="matrix(1 0 0 -1 0 1536)">
			<stop  offset="0" style="stop-color:#8FA0A1"/>
			<stop  offset="1" style="stop-color:#94A0A1"/>
		</linearGradient>
		<path style="fill-rule:evenodd;clip-rule:evenodd;fill:url(#SVGID_00000047743206970921345360000014984068818044426407_);" d="
			M268.7,1025.6l17.5,58l44.7-9.7l31.6,6.9c0,0,30.3-73.6,41.3-101.8L344,968l-2.1,20C321.7,1007.3,296.3,1020.4,268.7,1025.6
			L268.7,1025.6z"/>
		<path class="st8" d="M355.1,829c-0.2-1.3-31.3-56.4-31.3-56.4l-3.5,12.1L355.1,829z"/>
		
			<linearGradient id="SVGID_00000159460161988477588640000001377111000361597588_" gradientUnits="userSpaceOnUse" x1="257.8" y1="645.185" x2="354.48" y2="645.185" gradientTransform="matrix(1 0 0 -1 0 1536)">
			<stop  offset="0" style="stop-color:#8FA0A1"/>
			<stop  offset="1" style="stop-color:#94A0A1"/>
		</linearGradient>
		<path style="fill-rule:evenodd;clip-rule:evenodd;fill:url(#SVGID_00000159460161988477588640000001377111000361597588_);" d="
			M316.9,771.1c0,0-40.5,72.9-47.3,141.3s-11.8,98-11.8,98s41.9-21.3,69.7-33.1c10.9-76.8,20.1-105.7,27-148.3
			C346.8,816.3,316.9,771.1,316.9,771.1z"/>
		<polygon class="st4" points="587.1,1010.5 567,1007.2 513.9,982.7 490.8,831.6 		"/>
		
			<linearGradient id="SVGID_00000146494965026856194970000007425088288262553251_" gradientUnits="userSpaceOnUse" x1="350.8763" y1="425.0963" x2="460.0663" y2="425.0963" gradientTransform="matrix(-0.97 0.23 -0.23 -0.97 1035.6 1427.9501)">
			<stop  offset="0" style="stop-color:#8FA0A1"/>
			<stop  offset="1" style="stop-color:#94A0A1"/>
		</linearGradient>
		<path style="fill-rule:evenodd;clip-rule:evenodd;fill:url(#SVGID_00000146494965026856194970000007425088288262553251_);" d="
			M598,1109c0,0-10.2,27.2-14.1,32.5c-10.8-6.2-31.6-9.2-31.6-9.2l-36.6,9.5l-12.6,40.7l2.5-39.8l-5.8-13.8l49.1-7.8l7.7-18.3
			l9.3-62.9l23.1,53.7L598,1109z"/>
		<polygon class="st4" points="541.3,1120 551.5,1102 566.1,1039.9 556.5,1103.4 549.1,1121.1 499.9,1128.9 		"/>
		<polygon class="st4" points="557.9,1034.6 549.9,1092.6 502.5,1079.9 469.5,1076.2 		"/>
		
			<linearGradient id="SVGID_00000044179746660893641360000015758991694057969848_" gradientUnits="userSpaceOnUse" x1="553.7525" y1="499.8418" x2="675.8025" y2="499.8418" gradientTransform="matrix(-0.99 -0.12 0.12 -0.99 1045.23 1594.37)">
			<stop  offset="0" style="stop-color:#8FA0A1"/>
			<stop  offset="1" style="stop-color:#94A0A1"/>
		</linearGradient>
		<path style="fill-rule:evenodd;clip-rule:evenodd;fill:url(#SVGID_00000044179746660893641360000015758991694057969848_);" d="
			M557.9,1034.6l-13.5,51.1l-44.4-12.5l-30.6,2.9c0,0-20.2-72.7-27.4-100.5l57.6-3.7l-0.3,19c7.7,9.4,16.7,17.7,26.5,24.7
			C540.3,1026,548,1031.4,557.9,1034.6z"/>
		<path class="st8" d="M489.8,829c0.2-1.3,31.3-56.4,31.3-56.4l3.5,12.1L489.8,829z"/>
		
			<linearGradient id="SVGID_00000121980465691693239870000011267191234705886118_" gradientUnits="userSpaceOnUse" x1="469.31" y1="645.185" x2="565.99" y2="645.185" gradientTransform="matrix(-1 0 0 -1 1056.45 1536)">
			<stop  offset="0" style="stop-color:#8FA0A1"/>
			<stop  offset="1" style="stop-color:#94A0A1"/>
		</linearGradient>
		<path style="fill-rule:evenodd;clip-rule:evenodd;fill:url(#SVGID_00000121980465691693239870000011267191234705886118_);" d="
			M528,771.1c0,0,40.5,72.9,47.3,141.3s11.8,98,11.8,98s-41.9-21.3-69.7-33.1c-10.8-76.8-20.1-105.7-27-148.3
			C498.2,816.3,528,771.1,528,771.1z"/>
	</g>
</g>
</svg>
