<svg xmlns="http://www.w3.org/2000/svg" xmlns:xlink="http://www.w3.org/1999/xlink" viewBox="0 0 837.33 1537"><defs><style>.cls-1{fill:none;}.cls-2{fill-rule:evenodd;fill:url(#linear-gradient);}</style><linearGradient id="linear-gradient" x1="160.67" y1="850.34" x2="160.67" y2="591.66" gradientUnits="userSpaceOnUse"><stop offset="0.01" stop-color="#231f20"/><stop offset="1" stop-color="#1a191a"/></linearGradient></defs><g id="Layer_2" data-name="Layer 2"><g id="base"><rect class="cls-1" width="837.33" height="1537"/></g><g id="R_arm_01"><path class="cls-2" d="M212.62,751.44c-.77-.55-1.53-1.12-2.29-1.71-4.15-3.2-7.83-6.82-11.67-10.28-2.62-1.74-5.27-3.43-7.89-5.17a64.28,64.28,0,0,1-9.56-7.68c-2,3.14-4,5.4-6,6.42,0,0-17.51-8.87-27.48-9.55s-28.57,15.71-28.57,15.71l0,0c-.09.06-.85.67-2.09,1.66,3.55,1.58,6,4.64,8,8a7.79,7.79,0,0,1,4.13,4.07,8.87,8.87,0,0,1,2.51,5.66,6.51,6.51,0,0,1-.1,1.54c.9-1.37,1.38-2.25,1.38-2.25l0-.07,0,.05,7.65,8.37c-13.5,5.88-20.61,8.14-35.73,17.27q-5,3-9.77,6.12c.17,0,14.59,3.74,25.45-4.26a4.86,4.86,0,0,1,6.62.67l5.7,7.59c2,2.32,2.83,7.19.16,8.65l-1.23.69a139.17,139.17,0,0,1-16.67,15.27c8.89-5.44,20.46-13.11,26.51-19.53,1.76-1.88,11.37,5.86,11.37,5.86,2,2.32,5.38,7.43,3,9.33-1.93,1.54-4.24,3.75-6.82,6.26,0,0-6.2,7-13.57,13.74a171.49,171.49,0,0,0,14.9-13.7C152.36,818.28,162,826,162,826a6.8,6.8,0,0,1-.11,8.5c-1.34,1.53-2.69,2.92-4,4.22l1.26-1.23s-6,7.25-11.35,12.83a169,169,0,0,0,15.17-14.09c1.77-1.87,7.92,2.84,7.92,2.84a13.57,13.57,0,0,1,2.61,6.26c9.92-12.37,21.71-31.32,35.11-60.1,5.88-7.76,11.78-15,17.61-21.78A67.09,67.09,0,0,1,212.62,751.44Z"/></g></g></svg>