<?xml version="1.0" encoding="utf-8"?>
<!-- Generator: Adobe Illustrator 25.4.1, SVG Export Plug-In . SVG Version: 6.00 Build 0)  -->
<svg version="1.1" id="Layer_1" xmlns="http://www.w3.org/2000/svg" xmlns:xlink="http://www.w3.org/1999/xlink" x="0px" y="0px"
	 viewBox="0 0 837.3 1537" style="enable-background:new 0 0 837.3 1537;" xml:space="preserve">
<style type="text/css">
	.st0{fill:none;}
	.st1{fill-rule:evenodd;clip-rule:evenodd;fill:#052D66;}
	.st2{fill:#575757;}
	.st3{fill:#756E78;}
	.st4{fill:#454545;}
</style>
<g id="Layer_2_00000155139101315080098860000011604433998606725306_">
	<g id="base">
		<rect class="st0" width="837.3" height="1537"/>
	</g>
	<g id="chest_03">
		<path class="st1" d="M658.8,474.9c-6.1,19-44.7,75.9-80.8,127.4c-15.9,22.6-26.3,53.6-45.1,75.4c-24.2,28.1-19.4,67.3-19.4,67.3
			s-20,22.7-79.5,26.3s-98.5-17.1-98.5-17.1c-3.2-9.4-12.3-52.8-12.3-52.8l-3.9-31.5l-4.1-6.5l-7.6-74.5l-13.2-5.5
			c-6.7-28.8-19.9-87.3-19.9-87.3c-18-38.6-13.1-44.4-13.1-44.4c19-22.7,42.2-28.8,73.5-39.8c19.9-7.1,38.9-18.2,49.9-25.3l2.4-1.6
			c3.4-2.2,11.2-3.4,11.2-3.4s-7.2,9.3-5.4,18.3s14.1,33.9,56.2,23s57.8-57.3,57.8-57.3s8.8,5.1,13,8.7
			c13.1,11.5,38.3,28.9,69.1,43.8C629.4,437.6,658.8,474.9,658.8,474.9z"/>
		<path class="st2" d="M555.2,613.4c0.4-3.2,12.4-32,10.4-34.4c-3.8-4.7,0.5-40.3-3.4-44.9c-13.2-15.8-18.5-33.6-16-54.2
			c3.6-29.4,9.3-49.4,12.5-78.9c0.2-1.9,0-1.8-2.3-4.2c-8.3-8.5-25-21.4-36.4-27.4c-1.9-1-2.9,0.4-3.1,2.5
			c-0.4,4.6-5.4,23.1-6.5,27.6c-8.4,35-63.3,56-93.6,48.3c-22.3-5.7-22.1-27.7-25.9-50.5c-1.4-8.1,1.7-9.4,2.8-17.4
			c0.3-2.4-0.6-4.6-2.8-3.5c-12.3,5.8-31.1,14.2-39.6,23.7c-1.9,2.1-3.4,0.6-3.6,3.1c-0.3,4.6-8.6,42.5-10.6,59.3
			c-1.8,14.5-16,41.7-25.7,52.6c-18.3,20.5-2.4,78.3-3.6,90.2c-0.9,8.6,17.4,110.6,16.6,114c-1,4.1,0.9,4.7,4.4,5.1
			c88.1,9.4,180.8-3.2,183.2-2.8c2.4,0.4,3.6-0.2,3.5-2.7c0-0.4-0.2-14.4,20.8-59.5C556.6,615.6,554.8,615.9,555.2,613.4z"/>
		<path class="st3" d="M521.4,703.9c-5.4-1-5.5-1.1-8.3-1.4c-1.6-0.2-2-1.1-1.7-2.6c1.9-9.8,3.8-19.6,5.6-29.4c0.4-2,1.4-1.9,3-1.6
			c11.1,2.2,7.5,1.5,18.7,3.7C532.8,681.4,525.7,694,521.4,703.9z"/>
		<path class="st3" d="M315.3,628.2c-2.1,0.3-4.2,0.5-6.2,0.9c-0.4,0.1-0.6-0.7-0.8-2.7c-1-9.4-2.1-18.8-3.2-28.3
			c-0.2-2.1-0.2-2.8,0.2-2.8c2.1-0.1,4.2-0.3,6.3-0.5L315.3,628.2z"/>
		<path class="st3" d="M325.7,704.9c-2.1,0.3-4.2,0.5-6.2,0.9c-0.4,0.1-0.6-0.7-0.8-2.7c-1.1-9.4-2.1-18.9-3.2-28.3
			c-0.2-2.1-0.2-2.8,0.2-2.8c2.1-0.1,4.2-0.3,6.3-0.5L325.7,704.9z"/>
		<path class="st3" d="M558.8,639.4c-11.1-2.4-8-2-19.1-4.3c-1.9-0.4-2.4-1.2-2-3.1c2.1-9.4,4.2-18.8,6.1-28.2
			c0.4-1.9,1.2-2.4,3.1-2c11.1,2.5,17.9,4,29,6.4C570.1,618.2,562.4,629.1,558.8,639.4z"/>
		<path class="st3" d="M358,619.8c5.5,2.1,11.1,4.5,16.6,6.8c0.9,0.4,1.8,0.4,2.7,0c5.5-2.5,11-5,16.5-7.3c1.3-0.6,1.9-1.4,1.8-3.8
			c-0.1-7.4-0.2-14.7-0.1-22.1c0-2.4-0.5-3-1.8-2.9c-5.9,0.2-11.9,0.2-17.8,0.3s-11.9,0.2-17.8,0.2c-1.5,0-2,0.7-1.9,3.2
			c0.1,7.2,0.1,14.5,0.1,21.7C356.2,618.2,356.5,619.3,358,619.8z"/>
		<path class="st3" d="M395.7,628.1c0-4.5,0-4.5-2.8-3.3c-4.8,2.1-9.5,4.1-14.3,6.3c-1.5,0.8-3.4,0.8-4.9,0.1
			c-5.1-2.2-10.3-4.2-15.5-6.5c-1.4-0.6-2-0.3-1.9,2.2c0.1,2.4,0.1,4.7,0.1,7.1c0.1,18.7,0.2,37.4,0.1,56.2c0,2.9,0.9,2.9,2.1,2.8
			c8.6-0.2,17.2-0.2,25.8-0.4c2.4,0,4.9,0.3,7.3-0.4c0.4,0.1,0.9,0.2,1.3,0.3c2.3,0.7,2.9-0.8,2.9-4.7
			C395.8,668.1,395.8,648.1,395.7,628.1z"/>
		<path class="st3" d="M403.1,619.8c5.5,2.1,11.1,4.5,16.6,6.8c0.8,0.4,1.8,0.4,2.7,0c5.5-2.5,11-5,16.5-7.3
			c1.3-0.6,1.9-1.4,1.8-3.8c-0.1-7.4-0.2-14.7-0.1-22.1c0-2.4-0.5-3-1.8-2.9c-5.9,0.2-11.9,0.2-17.8,0.3s-11.9,0.2-17.8,0.2
			c-1.5,0-2,0.7-1.9,3.2c0.1,7.2,0.1,14.5,0.1,21.7C401.3,618.2,401.6,619.3,403.1,619.8z"/>
		<path class="st3" d="M440.8,628.1c0-4.5,0-4.5-2.7-3.3c-4.8,2.1-9.5,4.1-14.3,6.3c-1.6,0.8-3.4,0.8-5,0.1
			c-5.1-2.2-10.3-4.2-15.5-6.5c-1.4-0.6-2-0.3-1.9,2.2c0.1,2.4,0.1,4.7,0.1,7.1c0.1,18.7,0.2,37.4,0.1,56.2c0,2.9,0.9,2.9,2.1,2.8
			c8.6-0.2,17.2-0.2,25.8-0.4c2.4,0,4.9,0.3,7.3-0.4c0.5,0.1,0.9,0.2,1.4,0.3c2.3,0.7,2.9-0.8,2.9-4.7
			C440.9,668.1,440.9,648.1,440.8,628.1z"/>
		<path class="st3" d="M447.9,619.8c5.5,2.1,11.1,4.5,16.6,6.8c0.8,0.4,1.8,0.4,2.7,0c5.5-2.5,11-5,16.5-7.3
			c1.3-0.6,1.9-1.4,1.8-3.8c-0.1-7.4-0.2-14.7-0.1-22.1c0-2.4-0.5-3-1.8-2.9c-5.9,0.2-11.9,0.2-17.8,0.3s-11.9,0.2-17.8,0.2
			c-1.5,0-2,0.7-1.9,3.2c0.1,7.2,0.1,14.5,0.1,21.7C446.1,618.2,446.4,619.3,447.9,619.8z"/>
		<path class="st3" d="M485.6,628.1c0-4.5,0-4.5-2.7-3.3c-4.8,2.1-9.5,4.1-14.3,6.3c-1.5,0.8-3.4,0.8-4.9,0.1
			c-5.1-2.2-10.3-4.2-15.5-6.5c-1.4-0.6-2-0.3-1.9,2.2c0.1,2.4,0.1,4.7,0.1,7.1c0.1,18.7,0.2,37.4,0.1,56.2c0,2.9,0.9,2.9,2.1,2.8
			c8.6-0.2,17.2-0.2,25.8-0.4c2.4,0,4.9,0.3,7.3-0.4c0.5,0.1,0.9,0.2,1.4,0.3c2.3,0.7,2.9-0.8,2.9-4.7
			C485.7,668.1,485.7,648.1,485.6,628.1z"/>
		<path class="st4" d="M426.1,547.7h-62.6c-5.2,0-7.1-1.5-7.1-5.5c0-3.8,2.4-5.8,7.1-5.8c41.8,0,83.7,0,125.5,0
			c1.2-0.1,2.5,0.1,3.7,0.5c3,1.4,3.8,3.8,3.3,6.8c-0.5,2.8-2.5,3.9-5.1,4c-3.9,0.1-7.7,0-11.6,0H426.1z"/>
		<path class="st4" d="M426.1,512.5h-62.6c-5.2,0-7.1-1.5-7.1-5.5c0-3.8,2.4-5.8,7.1-5.8c41.8,0,83.7,0,125.5,0
			c1.2-0.1,2.5,0.1,3.7,0.5c3,1.4,3.8,3.8,3.3,6.8c-0.5,2.8-2.5,3.9-5.1,4c-3.9,0.1-7.7,0-11.6,0L426.1,512.5z"/>
	</g>
</g>
</svg>
