<?xml version="1.0" encoding="utf-8"?>
<!-- Generator: Adobe Illustrator 25.4.1, SVG Export Plug-In . SVG Version: 6.00 Build 0)  -->
<svg version="1.1" id="Layer_1" xmlns="http://www.w3.org/2000/svg" xmlns:xlink="http://www.w3.org/1999/xlink" x="0px" y="0px"
	 viewBox="0 0 837.3 1537" style="enable-background:new 0 0 837.3 1537;" xml:space="preserve">
<style type="text/css">
	.st0{fill:none;}
	.st1{fill:#664D07;}
	.st2{fill-rule:evenodd;clip-rule:evenodd;fill:url(#SVGID_1_);}
	.st3{fill-rule:evenodd;clip-rule:evenodd;fill:#0A0A0A;}
	.st4{fill-rule:evenodd;clip-rule:evenodd;fill:url(#SVGID_00000130615583881601647410000002615826586521837972_);}
	.st5{fill-rule:evenodd;clip-rule:evenodd;fill:url(#SVGID_00000120528083884366049750000000582593734088779908_);}
	.st6{opacity:0.68;}
	.st7{fill-rule:evenodd;clip-rule:evenodd;fill:#7C5F0E;}
	.st8{fill-rule:evenodd;clip-rule:evenodd;fill:url(#SVGID_00000161608369053144520470000011767294607465347262_);}
	.st9{fill:#7C5F0E;}
	.st10{fill:url(#SVGID_00000008859738870412770100000012664559228877093529_);}
	.st11{fill:url(#SVGID_00000119111959524166425720000011119301982672618940_);}
	.st12{fill:url(#SVGID_00000015343541948340164050000009468756779533845686_);}
	.st13{fill:url(#SVGID_00000091722355312516275260000004177455765011046813_);}
	.st14{fill:url(#SVGID_00000183958800036426482000000015111061074105872521_);}
</style>
<g id="Layer_2_00000016049907868336865560000003378942461057318784_">
	<g id="base">
		<rect class="st0" width="837.3" height="1537"/>
	</g>
	<g id="Layer_24">
		<polygon class="st1" points="645.8,1394.3 635.5,1398 625.7,1389.7 		"/>
		
			<linearGradient id="SVGID_1_" gradientUnits="userSpaceOnUse" x1="263.6705" y1="176.5295" x2="263.0005" y2="224.3178" gradientTransform="matrix(1 0 0 -1 0 1538)">
			<stop  offset="0" style="stop-color:#FFA486"/>
			<stop  offset="1" style="stop-color:#FFB886"/>
		</linearGradient>
		<path class="st2" d="M240.3,1314l-12.6,35.3c0,0,36.7,15.7,50.8,11.2s20.8-11.2,20.8-11.2S258.5,1316.1,240.3,1314z"/>
		<path class="st3" d="M317.2,1386.2c0.8,7.4,0.9,20.7,0.9,27.6c0,14.1-7.7,21.9-7.7,21.9s-60,0.8-85.9,4c-1.7,0.2-3.3,0.4-4.7,0.6
			c-22.4,3.7-41.1,7.9-57,8.9s-50.5-1.2-70.4-21.8c0.7-3.9,1.8-7.7,3.2-11.3c2.2-5.6,5.9-12.2,11.8-16.8c0,0,31.6-3.4,55.9-16.5
			c4-2.1,7.9-4.6,11.5-7.4c24.1-19.3,49.6-21.6,49.6-21.6s2.5-8.9,6.3-22.6c1.4-5.1-1-10.7-0.1-17.1c1.7-13.7,4.9-21.9,7.6-32.1
			c2.6-9.7-2.5-22.2,0.1-32.1c0.8-2.9-0.2-6.4,0.5-9.3c1.1-4.3,3.5-7.8,3.8-11.9c1.1-14.2,11.6-21.4,13.7-31.4c0,0,59.8,5.9,65.9,4
			s32.3,4.3,40,4.3l-4.6,43.1l-4.6,12.1c-0.2,1.7-3.5,8.2-4.3,9.6l-3.4,5.6c-0.7,1.8-1.4,3.7-1.9,5.6l-5.1,7.4
			c-0.4,1.2-0.5,2.5-0.5,3.8l0.2,5.9c0.1,2.4-0.5,4.7-1.8,6.8l-4.3,7.1c-0.6,0.9-1,1.9-1.3,3l-1.7,5.8c-0.4,1.2-0.5,2.5-0.5,3.8
			l0.3,8.4c0.1,2.6-0.7,5.2-2.1,7.3l-5.7,8.3C320.7,1349.4,314.8,1363.6,317.2,1386.2z"/>
		
			<linearGradient id="SVGID_00000079483544922987681930000007087334985526404251_" gradientUnits="userSpaceOnUse" x1="287.4804" y1="179.7199" x2="281.7804" y2="131.78" gradientTransform="matrix(1 0 0 -1 0 1538)">
			<stop  offset="1.000000e-02" style="stop-color:#705029"/>
			<stop  offset="1" style="stop-color:#54320C"/>
		</linearGradient>
		
			<polygon style="fill-rule:evenodd;clip-rule:evenodd;fill:url(#SVGID_00000079483544922987681930000007087334985526404251_);" points="
			268.5,1349.6 317.2,1386.2 318,1404.5 249.2,1377.1 		"/>
		<path class="st3" d="M687.8,1435.4c0.7,14.9-5.7,23.9-5.7,23.9c-37.4,15-96.5,8.7-110.9,3.4v-0.1c-1.1-0.4-2.2-0.8-3.2-1.2
			c-7.2-2.8-12.2-5.4-24.5-11.3c-3-1.5-6.3-3.2-9.5-5c-12-6.8-24.1-15.1-24.1-15.1c-1-5.3-2-7.7-2.5-10.5c-0.4-3-0.5-5.9-0.3-8.9
			c0.9-18.8,11.6-33.9,11.6-33.9s-25.7-156.4-24.1-160.4c7.7-19,118.3-11,118.3-11c2.5,7.9-8.3,149.6-8.3,149.6l0,0.1
			c1.8,4.7,4,9.1,6.7,13.3h0c5.1,8.4,11,16.2,17.7,23.3c8,8.7,19.7,16.4,30.5,22.4c0,0,0.1,0,0.1,0c8.8,4.9,17.9,9.2,27.2,13
			C687.3,1429.8,687.6,1432.6,687.8,1435.4z"/>
		
			<linearGradient id="SVGID_00000073703750139881737940000006032907228943337619_" gradientUnits="userSpaceOnUse" x1="181.33" y1="1349.6041" x2="283.62" y2="1349.6041">
			<stop  offset="2.192982e-03" style="stop-color:#785E0B"/>
			<stop  offset="0.2412" style="stop-color:#C69B12"/>
			<stop  offset="0.5197" style="stop-color:#C6A849"/>
			<stop  offset="0.8004" style="stop-color:#C69B12"/>
			<stop  offset="1" style="stop-color:#785E0B"/>
		</linearGradient>
		<path style="fill-rule:evenodd;clip-rule:evenodd;fill:url(#SVGID_00000073703750139881737940000006032907228943337619_);" d="
			M181.3,1368.5c0,0,47.2-16.9,64.1,25.8l38.2-67.2c0,0-38.5-27.9-71.4-21.1C194.7,1323.2,181.3,1368.5,181.3,1368.5z"/>
		<g class="st6">
			<path class="st7" d="M192.4,1354.2c0,0,32.3-9.8,42.4,19.4l29.6-50.2c0,0-26.7-13.9-49.1-10.4
				C202.8,1324.1,192.4,1354.2,192.4,1354.2z"/>
		</g>
		
			<linearGradient id="SVGID_00000085952311482021682380000002160284712276069278_" gradientUnits="userSpaceOnUse" x1="190.92" y1="1336.0941" x2="259.93" y2="1336.0941">
			<stop  offset="2.192982e-03" style="stop-color:#785E0B"/>
			<stop  offset="0.2412" style="stop-color:#C69B12"/>
			<stop  offset="0.5197" style="stop-color:#C6A849"/>
			<stop  offset="0.8004" style="stop-color:#C69B12"/>
			<stop  offset="1" style="stop-color:#785E0B"/>
		</linearGradient>
		<path style="fill-rule:evenodd;clip-rule:evenodd;fill:url(#SVGID_00000085952311482021682380000002160284712276069278_);" d="
			M190.9,1348.8c0,0,31.8-11.4,43.2,17.4l25.8-45.4c0,0-26-18.8-48.1-14.2C200,1318.3,190.9,1348.8,190.9,1348.8z"/>
		<g class="st6">
			<polygon class="st9" points="250.7,1208.7 262.6,1213.9 360.4,1221.8 362.1,1205.7 			"/>
		</g>
		
			<linearGradient id="SVGID_00000145057510535050135180000008915195655460382395_" gradientUnits="userSpaceOnUse" x1="244.6226" y1="1198.458" x2="367.85" y2="1198.458">
			<stop  offset="2.192982e-03" style="stop-color:#785E0B"/>
			<stop  offset="0.2412" style="stop-color:#C69B12"/>
			<stop  offset="0.5197" style="stop-color:#C6A849"/>
			<stop  offset="0.8004" style="stop-color:#C69B12"/>
			<stop  offset="1" style="stop-color:#785E0B"/>
		</linearGradient>
		<path style="fill:url(#SVGID_00000145057510535050135180000008915195655460382395_);" d="M264.4,1183.4c0,0-20.2-7.9-19.8,12.2
			s19.4,13.5,19.4,13.5l93.3,5.9c5.4,0.4,10.1-3.6,10.5-9c0-0.2,0-0.4,0-0.6v-6.9c-0.1-4.5-3.6-8.2-8-8.4L264.4,1183.4z"/>
		<g class="st6">
			<polygon class="st9" points="495.5,1221.8 509,1225 613.8,1216.3 613,1200 			"/>
		</g>
		
			<linearGradient id="SVGID_00000036243016734986843280000007012647388131224964_" gradientUnits="userSpaceOnUse" x1="486.6738" y1="1203.5455" x2="619.1816" y2="1203.5455">
			<stop  offset="2.192982e-03" style="stop-color:#785E0B"/>
			<stop  offset="0.2412" style="stop-color:#C69B12"/>
			<stop  offset="0.5197" style="stop-color:#C6A849"/>
			<stop  offset="0.8004" style="stop-color:#C69B12"/>
			<stop  offset="1" style="stop-color:#785E0B"/>
		</linearGradient>
		<path style="fill:url(#SVGID_00000036243016734986843280000007012647388131224964_);" d="M506.1,1194.5c0,0-22.6-4.4-19,15.4
			s22.6,10,22.6,10l99.8-10c6.1-0.6,10.5-5.8,9.7-11.3l-1.1-6.8c-0.7-4.4-5-7.4-9.8-7L506.1,1194.5z"/>
		
			<linearGradient id="SVGID_00000105415699180191099760000013427653235943875715_" gradientUnits="userSpaceOnUse" x1="539.78" y1="1375.4989" x2="645.83" y2="1375.4989">
			<stop  offset="2.192982e-03" style="stop-color:#785E0B"/>
			<stop  offset="0.2412" style="stop-color:#C69B12"/>
			<stop  offset="0.5197" style="stop-color:#C6A849"/>
			<stop  offset="0.8004" style="stop-color:#C69B12"/>
			<stop  offset="1" style="stop-color:#785E0B"/>
		</linearGradient>
		<path style="fill:url(#SVGID_00000105415699180191099760000013427653235943875715_);" d="M539.8,1346c0,0,63.3-18.6,74-9.9
			s32,58.2,32,58.2s-58-6.5-79.7,22.8c0,0-14.5-27.4-22-50.9C541.7,1358.7,540,1351.6,539.8,1346z"/>
		
			<linearGradient id="SVGID_00000071545024543866871760000009335306808923955876_" gradientUnits="userSpaceOnUse" x1="507.45" y1="151.93" x2="555.1025" y2="151.93" gradientTransform="matrix(1 0 0 -1 0 1538)">
			<stop  offset="1.000000e-02" style="stop-color:#705029"/>
			<stop  offset="1" style="stop-color:#54320C"/>
		</linearGradient>
		<path style="fill:url(#SVGID_00000071545024543866871760000009335306808923955876_);" d="M511.7,1389.4l33.1-21.8
			c0,0,10.4,27.1,10.2,26.7s-47.6,10.2-47.6,10.2L511.7,1389.4z"/>
		<g class="st6">
			<path class="st9" d="M561.4,1354c0,0,39.3-11.5,45.9-6.1s19.9,36.1,19.9,36.1s-36-4-49.4,14.2c0,0-9-17-13.6-31.6
				C562.7,1362.5,561.8,1358.3,561.4,1354z"/>
		</g>
		
			<linearGradient id="SVGID_00000016069093525433964260000008810321796986774934_" gradientUnits="userSpaceOnUse" x1="555.43" y1="1367.2924" x2="621.18" y2="1367.2924">
			<stop  offset="2.192982e-03" style="stop-color:#785E0B"/>
			<stop  offset="0.2412" style="stop-color:#C69B12"/>
			<stop  offset="0.5197" style="stop-color:#C6A849"/>
			<stop  offset="0.8004" style="stop-color:#C69B12"/>
			<stop  offset="1" style="stop-color:#785E0B"/>
		</linearGradient>
		<path style="fill:url(#SVGID_00000016069093525433964260000008810321796986774934_);" d="M555.4,1349c0,0,39.3-11.5,45.9-6.1
			s19.9,36.1,19.9,36.1s-36-4-49.4,14.2c0,0-9-17-13.6-31.6C556.7,1357.5,555.8,1353.3,555.4,1349z"/>
	</g>
</g>
</svg>
