<?xml version="1.0" encoding="utf-8"?>
<!-- Generator: Adobe Illustrator 25.4.1, SVG Export Plug-In . SVG Version: 6.00 Build 0)  -->
<svg version="1.1" id="Layer_1" xmlns="http://www.w3.org/2000/svg" xmlns:xlink="http://www.w3.org/1999/xlink" x="0px" y="0px"
	 viewBox="0 0 837.3 1537" style="enable-background:new 0 0 837.3 1537;" xml:space="preserve">
<style type="text/css">
	.st0{opacity:0.32;fill-rule:evenodd;clip-rule:evenodd;fill:#4C4C4C;}
	.st1{fill:none;}
	.st2{fill-rule:evenodd;clip-rule:evenodd;fill:#606060;}
	.st3{fill:#001C54;}
	.st4{fill-rule:evenodd;clip-rule:evenodd;fill:#111111;}
	.st5{fill-rule:evenodd;clip-rule:evenodd;fill:url(#SVGID_1_);}
	.st6{fill-rule:evenodd;clip-rule:evenodd;fill:url(#SVGID_00000005986756229169794130000014133121298593954438_);}
	.st7{fill:url(#SVGID_00000157297108864964916280000005984787677148051097_);}
	.st8{fill:#AFAFAF;}
	.st9{fill:#231F20;}
	.st10{fill:url(#SVGID_00000142861209869845657670000017214739353412929665_);}
	.st11{fill:none;stroke:#606060;stroke-width:2;stroke-miterlimit:10;}
	.st12{fill:#7C7C7C;}
	.st13{fill:#FFFFFF;}
	.st14{fill:none;stroke:#231F20;stroke-width:3;stroke-linecap:round;stroke-miterlimit:10;}
	.st15{fill:#606060;}
</style>
<path class="st0" d="M419.7,214.4c0.1-0.2,3.9-4.2,4-4.4c8.8-11.1,35-8.8,51.5-0.3c6.3,3.3,17.1,13.6,18.7,22.9
	c1.6-3-0.1-10.6,3.2-12.5c8.2-4.9,17.5,1.4,21.7,10c1.1,2.3-0.4-96.5-68.4-98.7c-90.1-2.9-94.5,51.4-94.9,76.2
	c-0.1,3.4,1.8,6.5,3.2,6.3c3.5-10.1,8.4-11.7,20.6-12.7c18.3-0.9,24.4,10.3,24.8,12.2C408.6,209.3,418.6,213.8,419.7,214.4z"/>
<g id="Layer_2_00000020392858374638828100000011839871822634206637_">
	<g id="base">
		<rect class="st1" width="837.3" height="1537"/>
	</g>
	<g id="hair_03">
		<path class="st2" d="M440.3,198.3c-29.5,2.8-22.1,70.7-22.1,70.7l-25.9,0.4c-0.3-0.2-2.5-1.4-2-2c2.5-2.7,14.7-8.9,15.8-22.2
			c1.2-13.7,1.1-27.4-0.3-41.1c-0.2-1.4-1.9-4-4.3-5.5L440.3,198.3z"/>
		<path class="st3" d="M608,287c4.9,0.7,10,0.4,14.8-0.8c4.4-1.1,8.7-2.7,12.8-4.8c7.7-4,14.7-9,21-14.9l-1.1-1.7
			c-7.8,3-15.6,5.9-23.3,7.5s-15.3,2.1-21.2,0s-10-6.3-13.3-12.1s-5.5-13.1-7.2-20.5s-3-15.3-4.3-23.2c-0.6-4-1.1-8-1.7-12
			l-1.6-12.1c-1-8.1-1.9-16.3-2.8-24.6s-1.9-16.5-3.2-24.8s-3.1-16.6-4.9-24.8s-3.9-16.5-6.3-24.7c-1.2-4.1-2.7-8.2-4.4-12.1
			c-1.7-4.1-3.9-8-6.6-11.6c-2.9-3.9-6.6-7-11-9l-1.7-0.7l-1.8-0.6c-1-0.3-2.1-0.7-3.1-1l-3.2-1c-1.1-0.3-2.2-0.6-3.3-0.9
			c-4.6-1.1-9.3-1.7-14-1.6c-5.1,0.1-10.1,1.2-14.7,3.3c-2.4,1.1-4.7,2.4-6.8,3.9c-2.1,1.6-4,3.3-5.7,5.3c-0.8,0.9-1.5,1.8-2.2,2.7
			c-3,1.8-5.7,3.9-8,6.5c-1.7,1.8-3.3,3.8-4.6,6c-1.3,2.1-2.4,4.4-3.2,6.8c-1.6,4.6-2.3,9.4-2,14.3c0.3,4.5,1.3,9,3,13.2
			c0.8,2,1.8,4,2.9,5.8c0.4,0.6,0.7,1.1,1.1,1.7c0,4.1,0.5,8.1,1.3,12.1l2,0.1c0.6-1.3,1.1-2.6,1.7-4l0,0l2-0.2
			c0.6-2.9,1.1-5.8,1.7-8.7c1.2-2.9,2.4-5.8,3.7-8.6c2.8-6.6,6.2-13,10.2-19c0.9-1.3,1.8-2.6,2.9-3.8c1-1.2,2-2.3,3.1-3.4
			c2-1.9,4.3-3.5,6.7-4.8c0.6-0.3,1.2-0.6,1.8-0.8c0.6-0.3,1.2-0.5,1.9-0.7c1.4-0.4,2.7-0.8,4.1-1c1.6-0.2,3.1-0.3,4.7-0.3
			c1.7,0,3.4,0.2,5.1,0.5c1.8,0.3,3.5,0.7,5.3,1.2c0.9,0.2,1.8,0.6,2.6,0.9c0.5,0.2,0.8,0.3,1.2,0.5s0.7,0.3,1.1,0.5
			c1.4,0.8,2.7,1.8,3.8,2.9c1.2,1.2,2.2,2.6,3,4.1c1.7,3.2,2.8,6.7,3.4,10.2c0.6,3.7,0.9,7.5,0.8,11.2c-0.2,7.7-1.1,15.3-2.7,22.8
			c-0.8,3.8-1.6,7.6-2.5,11.4l-2.7,11.4c-3.6,15.2-6.2,30.7-8.5,46.5s-3.2,32.2-0.8,48.9c1.2,8.5,3.4,16.8,6.6,24.8
			c3.3,8.2,8.2,15.7,14.3,22.1c6.1,6.2,13.5,11,21.7,14c7.7,2.9,15.9,4.3,24.2,4.2l0.4-2c-7.1-2.8-13.8-6.5-20-10.8
			c-5.8-4.1-10.7-9.2-14.6-15.1c-7.6-11.4-10.5-25.2-11.7-39.6s-0.7-29.4,0-44.7c0.2-3.2,0.4-6.5,0.6-9.8c0,3.7,0.1,7.4,0.3,11.1
			c0.2,4.1,0.4,8.1,0.8,12.2c0.7,8.2,1.9,16.4,3.6,24.5c0.9,4.1,2,8.2,3.2,12.3c1.3,4.1,2.8,8.2,4.5,12.1c1.8,4,3.9,7.9,6.3,11.6
			c2.5,3.8,5.3,7.3,8.5,10.5c3.2,3.2,6.9,6,10.9,8.2c3.9,2.2,8.1,3.8,12.5,4.7c2.1,0.5,4.3,0.8,6.4,1c2.1,0.2,4.2,0.2,6.4,0.2
			c2.1,0,4.2-0.2,6.2-0.5s4.1-0.6,6.1-1.1l-0.1-2c-7.9-1.1-15.5-3-21.9-6.3c-6.2-3.2-11.6-7.9-15.6-13.6c-0.7-1-1.4-2.1-2-3.2
			c0.8,0.7,1.7,1.3,2.5,1.9C597.7,284.2,602.7,286.2,608,287z M545.7,70.4c1.5,1,2.9,2.2,4.1,3.6c1.9,2.2,3.6,4.7,4.8,7.3
			c-0.8-1.2-1.6-2.4-2.5-3.6c-2.7-3.5-6-6.5-9.8-8.8l-0.8-0.5C543.1,69,544.4,69.6,545.7,70.4z M544.1,78.3
			c-0.5-0.4-0.9-0.8-1.4-1.1l-1.4-1c-0.9-0.6-1.7-1.2-2.6-1.8s-1.8-1.2-2.7-1.7c1.2,0.4,2.3,0.9,3.3,1.5c3.1,1.8,5.8,4.2,7.8,7.1
			l0,0.1C546.4,80.3,545.3,79.3,544.1,78.3L544.1,78.3z"/>
		<path class="st2" d="M435.5,368.6l1.3-86.9c0,0,31.2-0.7,50.2-14.5c9.5-17.3,3.3-39.6,4.8-47.8c4.1,8.3,7.1,28.5-2,47.8
			c-14.6,31.2-48.9,103.4-48.9,103.4L435.5,368.6z"/>
		<path class="st4" d="M361.3,257c0.8-1.4,1.8-2.6,3-3.8c1.8-12-2.6-25.8-2.6-25.8c-2.3-4.7-3.7-9.8-4.1-15
			c-0.3-8,1.5-11.3,3.9-16.8c0.2-0.4,0.4-0.9,0.6-1.5l-6.9,8l-1.2,76.1l4.1,3.4C358.3,274,359.5,259.6,361.3,257z"/>
		
			<linearGradient id="SVGID_1_" gradientUnits="userSpaceOnUse" x1="354.1668" y1="1291.052" x2="529.774" y2="1291.052" gradientTransform="matrix(1 0 0 -1 0 1538)">
			<stop  offset="0" style="stop-color:#A1A1A1"/>
			<stop  offset="1" style="stop-color:#A1A1A1"/>
		</linearGradient>
		<path class="st5" d="M390.5,267.6c-1.5-1.1,12.4-8,13.8-24.2c1.2-13.7,0.9-19.1-0.5-32.8c-0.2-1.4-5.1-13.5-24.8-12
			c-12.8,1.4-17.8,3.3-21.2,13.9c-1.5,0.3-3.5-2.9-3.6-6.5c-0.4-26,2.3-82.9,96.7-82.9c71.3,0,78.8,70.7,78.8,70.7
			s0,109.4-18.2,135.7s-70.4,41.3-70.4,41.3l1.3-86c0,0,40-7.1,46.7-18.2c6.7-11.1,8-53.9-9.6-62.2s-45.1-9.8-53.9,2.1
			c-13,17.6-9.2,60.7-9.2,60.7L390.5,267.6z"/>
		
			<linearGradient id="SVGID_00000143606309145610062110000004706630101879211934_" gradientUnits="userSpaceOnUse" x1="351.1926" y1="1254.115" x2="372.07" y2="1254.115" gradientTransform="matrix(1 0 0 -1 0 1538)">
			<stop  offset="0" style="stop-color:#A1A1A1"/>
			<stop  offset="1" style="stop-color:#A1A1A1"/>
		</linearGradient>
		<path style="fill-rule:evenodd;clip-rule:evenodd;fill:url(#SVGID_00000143606309145610062110000004706630101879211934_);" d="
			M372.1,365.5v-80.8c0,0-15.8-4.3-16.9-12.3s0-70.2,0-70.2S338.9,321.8,372.1,365.5z"/>
		
			<linearGradient id="SVGID_00000182509624729559145300000002217108403049780920_" gradientUnits="userSpaceOnUse" x1="305.3379" y1="1382.4121" x2="338.3284" y2="1382.4121" gradientTransform="matrix(0.9384 0.3456 0.3456 -0.9384 -299.8303 1312.4609)">
			<stop  offset="0" style="stop-color:#A1A1A1"/>
			<stop  offset="1" style="stop-color:#A1A1A1"/>
		</linearGradient>
		<path style="fill:url(#SVGID_00000182509624729559145300000002217108403049780920_);" d="M464.4,127.5c-3.4-5.8,4.6-16.9,17-9.8
			c15.4,2,18.4,19,8,19.1S467.8,133.2,464.4,127.5z"/>
		<path class="st8" d="M484.2,138.4c0,0,35.9,12.9,37.2,52.9C512.2,171.6,499.6,153.7,484.2,138.4L484.2,138.4z"/>
		<polygon class="st9" points="507.7,210 493.7,233.6 493.7,267.8 506,281.4 511,281.4 512.7,210 		"/>
		
			<linearGradient id="SVGID_00000007406675197109020280000009382447344835853697_" gradientUnits="userSpaceOnUse" x1="498.7" y1="1292.295" x2="523.86" y2="1292.295" gradientTransform="matrix(1 0 0 -1 0 1538)">
			<stop  offset="0" style="stop-color:#A1A1A1"/>
			<stop  offset="1" style="stop-color:#A1A1A1"/>
		</linearGradient>
		<polygon style="fill:url(#SVGID_00000007406675197109020280000009382447344835853697_);" points="512.7,210 498.7,233.6 
			498.7,267.8 511,281.4 523.1,259.1 523.9,226.7 		"/>
		<polygon class="st11" points="512.2,221.5 502.8,237.5 502.8,260.6 511.1,269.9 519.3,254.8 519.8,232.8 		"/>
		<polygon class="st12" points="515.1,232.8 511.1,232.8 505.6,242 505.6,253.8 510.8,259.6 514.8,259.6 517.6,250.4 516.5,250.3 
			512.4,256.2 509.6,253.1 509.6,242.6 513.2,236.5 516.6,240.4 517.8,240.4 		"/>
		<polygon class="st13" points="519.8,239.8 515.1,232.8 509.6,242 509.6,253.8 514.8,259.6 519.6,250.9 517.6,250.4 514.4,256.2 
			511.6,253.1 511.6,242.6 515.2,236.5 517.8,240.4 		"/>
		<line class="st14" x1="453.2" y1="301.3" x2="452" y2="349.4"/>
		<polygon class="st9" points="366.7,340.2 364.7,337.5 364.7,288.6 366.9,289.4 		"/>
		<line class="st14" x1="464.2" y1="298.9" x2="463" y2="342.6"/>
		<line class="st14" x1="474.8" y1="297" x2="473.6" y2="336.7"/>
		<polygon class="st15" points="372.1,284.7 375.9,283.6 374.6,365.2 372.1,365.6 		"/>
		<path class="st15" d="M375.9,283.6c0,0-11.6-1.9-18.4-6.6c4.1,5.7,14.5,7.8,14.5,7.8L375.9,283.6z"/>
	</g>
</g>
</svg>
