<svg xmlns="http://www.w3.org/2000/svg" xmlns:xlink="http://www.w3.org/1999/xlink" viewBox="0 0 837.33 1537"><defs><style>.cls-1{fill:none;}.cls-10,.cls-2,.cls-3,.cls-4,.cls-5,.cls-6,.cls-7,.cls-8,.cls-9{fill-rule:evenodd;}.cls-2{fill:url(#linear-gradient);}.cls-3{fill:#898989;opacity:0.58;}.cls-4{fill:url(#linear-gradient-2);}.cls-11,.cls-5{fill:#565656;}.cls-6{fill:#a1a1a1;}.cls-7{fill:url(#linear-gradient-3);}.cls-8{fill:#afafaf;}.cls-9{fill:url(#linear-gradient-4);}.cls-10{fill:url(#linear-gradient-5);}</style><linearGradient id="linear-gradient" x1="588.68" y1="1471.24" x2="588.68" y2="1171.38" gradientUnits="userSpaceOnUse"><stop offset="0" stop-color="#a1a1a1"/><stop offset="1" stop-color="#a1a1a1"/></linearGradient><linearGradient id="linear-gradient-2" x1="225.4" y1="1449.34" x2="225.4" y2="1171.03" xlink:href="#linear-gradient"/><linearGradient id="linear-gradient-3" x1="501.04" y1="1339.28" x2="605.88" y2="1339.28" xlink:href="#linear-gradient"/><linearGradient id="linear-gradient-4" x1="496.15" y1="1310.73" x2="608.03" y2="1310.73" xlink:href="#linear-gradient"/><linearGradient id="linear-gradient-5" x1="490.05" y1="1280.3" x2="610.88" y2="1280.3" xlink:href="#linear-gradient"/></defs><g id="Layer_2" data-name="Layer 2"><g id="base"><rect class="cls-1" width="837.33" height="1537"/></g><g id="feet_03"><path class="cls-2" d="M682,1459.26c-37.38,15-71.16,15.71-110.91,3.33-10.71-3.34-15.48-6.62-27.78-12.5-3-1.47-6.27-3.18-9.55-5-12-6.81-24.15-15.09-24.15-15.09-1-5.29-2-7.69-2.5-10.48a41.87,41.87,0,0,1-.34-8.92,241.12,241.12,0,0,1,4.41-34.88s-18.84-143.68-15.51-141c5,4,35.81,5.71,52.58-5.41,4.5-12.9,5.93-35.13,5.51-57.91,12,13.09,29.55,32.94,29.55,32.94l26.84-32.94c2.45,7.94-2.78,147.45-6.25,164.25l-10,48.6c.19.63,21.83,4.32,34.74,11.08,10.44,5.48,21.94,16.12,21.94,16.12,14.32,11.21,20.44,19.36,20.44,19.36C673.12,1432.27,682,1459.26,682,1459.26Z"/><path class="cls-3" d="M496.24,1250.47l1.65,7.66,85.23,14.79L608,1259.63s1.35-11.87,1.3-10.57-22.68,15-22.68,15Z"/><path class="cls-4" d="M310.37,1388.52a202.19,202.19,0,0,1,1.08,22,56,56,0,0,1-6.28,25.13s-54.81.83-80.73,4c-1.71.2-3.33.39-4.7.64-22.39,3.67-41.05,7.93-57,8.86s-50.51-1.22-70.4-21.75a54.94,54.94,0,0,1,3.24-11.31c2.25-5.64,27.58-14.54,33.41-19.1,0,0,9.94-1.09,34.24-14.17,4.11-2.2,34.59-10.29,38.65-12.15,6.86-3.13,14.76-10.16,19.38-15.25-.77,0-4.75-1-4.75-1s6.27-6.3,7-7.31c16.18-23.34,24.61-143.08,24.61-143.08s19.62-17.43,34.32-33.06c11.8,16.42-3.41,58.25,17.94,63.07,0,0,42.11,8.45,58.06,3.06l-49.27,122.63S307.92,1365.88,310.37,1388.52Z"/><path class="cls-5" d="M132,1396.38s18.51-.87,26.79,16.5c0,0-3.93-15.35-22.1-17.85Z"/><path class="cls-5" d="M139.14,1394s20-1,29,18.88a28.78,28.78,0,0,0-23.91-20.41Z"/><path class="cls-5" d="M146.91,1390.49s22.72-1.26,32.87,23.82c0,0-4.82-22.16-27.11-25.76Z"/><path class="cls-5" d="M155.65,1386.44s24.73-1.44,35.79,27.24c0,0-5.25-25.34-29.52-29.45Z"/><path class="cls-5" d="M165.07,1381.71s27.31-1.78,39.52,33.65c0,0-5.79-31.3-32.6-36.39Z"/><path class="cls-5" d="M177.58,1378.29s30-2,43.38,37.07c0,0-6.36-34.48-35.78-40.09Z"/><path class="cls-5" d="M190.79,1374.39s32.81-2.19,47.47,41.59c0,0-7-38.68-39.15-45Z"/><path class="cls-5" d="M210.83,1365.46s82.78,23.09,99.38,56.2c0,0-13.19-47.26-88.92-66.23Z"/><path class="cls-5" d="M608.24,1388.55s-70.66,7.43-101.09,30.93c0,0,9-23.17,86.15-35Z"/><path class="cls-3" d="M230.11,1331.4l-3,8.68s89.33,1.26,89.74.47,5.59-12.46,5.59-12.46Z"/><path class="cls-6" d="M318.15,1337.43H225.4s6.92-10,7.85-27.25L333.31,1308Z"/><path class="cls-3" d="M233.19,1313.14l-1.67,9s94-2.45,94.37-3.25,6.85-14.1,6.85-14.1Z"/><path class="cls-6" d="M331.07,1314.47l-106.55,6s6.19-16,7.28-33.21l117-2.16Z"/><path class="cls-3" d="M231.38,1290.52l-1.95,9s109.74-2.46,110.22-3.25,8-14.1,8-14.1Z"/><path class="cls-3" d="M243.7,1252.38l-.88,7.25s107.8-3.52,108.28-4.32,2.44-6.25,2.44-6.25Z"/><path class="cls-6" d="M345.81,1289.62l-121.29,7.76s9.91-20.45,11.12-42.27l129.83-2.73Z"/><path class="cls-3" d="M510.66,1351.83l78.14,20.58,9.45-9.14a125.76,125.76,0,0,0,3-20.25l-17.23,5.26-74.22-4.23Z"/><path class="cls-7" d="M507.65,1348.6l80.91,18.4,11.59-13.2a373.79,373.79,0,0,0,5.73-38.3l-18.09,13.68L501,1311.55Z"/><polygon class="cls-8" points="588.59 1330.65 588.59 1361.62 587 1330.52 588.59 1330.65"/><polygon class="cls-3" points="506.42 1323.29 587.91 1344.24 604.43 1333.56 605.8 1317.85 584.74 1319.74 505.55 1315.5 506.42 1323.29"/><path class="cls-9" d="M503.2,1320.05l86.34,18.41,15.38-10.4s.8-23.15,3.11-45.06l-19.3,17.64L496.15,1283Z"/><polygon class="cls-8" points="589.58 1302.11 589.58 1333.07 587.88 1301.98 589.58 1302.11"/><path class="cls-3" d="M500.87,1292.85l87.81,20.59,17.39-10.69s-.05-6.19.43-15.66l-23.15,2.21-83.41-4.23Z"/><path class="cls-10" d="M497.48,1289.62,588.41,1308,606,1296.56s2.43-22.09,4.86-44l-23.33,17.63-97.5-17.63Z"/><polygon class="cls-8" points="588.44 1271.68 588.44 1302.64 586.65 1271.55 588.44 1271.68"/><path class="cls-11" d="M648.28,1439.82a28.09,28.09,0,0,1,21.94-10.06c-.36-.43-.84-1-1.43-1.66A25.66,25.66,0,0,0,648.28,1439.82Z"/><path class="cls-11" d="M639.21,1437.39a31,31,0,0,1,27.35-11.7c-.6-.63-1.26-1.3-2-2C647,1423.18,639.21,1437.39,639.21,1437.39Z"/><path class="cls-11" d="M627.59,1435.75c11.82-15.66,26.42-16.23,33.57-15.36-.91-.85-1.89-1.73-2.94-2.65C637.3,1416.94,627.59,1435.75,627.59,1435.75Z"/><path class="cls-11" d="M616.5,1432.11c13.55-18.58,30.13-18.88,37.61-17.86-1.11-.92-2.26-1.85-3.5-2.82l-.27-.25C627.41,1410.46,616.5,1432.11,616.5,1432.11Z"/><path class="cls-11" d="M603.36,1430.32c15.62-23.12,34-24.14,42.33-23.16-1.32-1.09-2.86-2.33-4.52-3.61C616,1403.81,603.36,1430.32,603.36,1430.32Z"/><path class="cls-11" d="M587.55,1426.08c20.5-30.42,45.25-26.17,50.5-24.84-2.28-1.64-4.7-3.26-7.11-4.67C602.12,1395.56,587.55,1426.08,587.55,1426.08Z"/><path class="cls-11" d="M570.68,1422.19c22.2-33.48,48.64-29.79,55.13-28.26a107,107,0,0,0-13.41-4.83C584.8,1392.28,570.68,1422.19,570.68,1422.19Z"/></g></g></svg>