<svg xmlns="http://www.w3.org/2000/svg" xmlns:xlink="http://www.w3.org/1999/xlink" viewBox="0 0 837.33 1537"><defs><style>.cls-1,.cls-8{fill:none;}.cls-2,.cls-3{fill:#141414;}.cls-3,.cls-4,.cls-5,.cls-8,.cls-9{fill-rule:evenodd;}.cls-4{fill:#3d3f3f;}.cls-5{fill:#454c4c;}.cls-6{fill:url(#linear-gradient);}.cls-7{fill:url(#linear-gradient-2);}.cls-8{stroke:#000;stroke-miterlimit:10;stroke-width:4px;}.cls-9{fill:#050505;opacity:0.41;}.cls-10{fill:url(#linear-gradient-3);}.cls-11{fill:url(#linear-gradient-4);}</style><linearGradient id="linear-gradient" x1="478.17" y1="390.94" x2="524.71" y2="390.94" gradientUnits="userSpaceOnUse"><stop offset="0" stop-color="#1a8080"/><stop offset="0.89" stop-color="#24b2b2"/><stop offset="1" stop-color="#24b2b2"/></linearGradient><linearGradient id="linear-gradient-2" x1="394.29" y1="393.28" x2="376.56" y2="393.28" xlink:href="#linear-gradient"/><linearGradient id="linear-gradient-3" x1="529.23" y1="558.71" x2="573.69" y2="558.71" xlink:href="#linear-gradient"/><linearGradient id="linear-gradient-4" x1="287.76" y1="518.58" x2="320.97" y2="518.58" xlink:href="#linear-gradient"/></defs><g id="Layer_2" data-name="Layer 2"><g id="base"><rect class="cls-1" width="837.33" height="1537"/></g><g id="chest_07"><path class="cls-2" d="M549.64,767.05a38.74,38.74,0,0,1-30.2-.38c-16-7.11-9.49-29.32-9.49-29.32S546.42,757.52,549.64,767.05Z"/><path class="cls-3" d="M511.73,340.56s-5.67-3.64-9.28-2l2.4,18.64,7.67-6.32Z"/><path class="cls-3" d="M402.59,368.2l-19.7-2.64s4.44,15.5,9,16.63,5.93-1,5.93-1Z"/><polygon class="cls-4" points="600.28 417.52 601 424.55 590.73 418.92 600.28 417.52"/><polygon class="cls-4" points="572.62 609.7 575.22 618.9 570.33 623.19 567.78 615.55 572.62 609.7"/><path class="cls-5" d="M457.88,384.58s43.25-3.56,53.85-44c0,0,10.7,18.3,9.85,30.12,4.47,8.09,11.22,9.31,15.21,12.11,9.63,6.74,54.81,32.8,63.49,34.73,0,0-40.47,4.81-49.14,44.32s-13.49,132,24.08,157.06l-26,147.8s-18.75-25-81.95-24.47c4.57-23.06-5.3-47.29-5.6-80.42-.35-38.06,5.55-76.43,2-115.15-4.23-45.53-16-63.08-10.46-122.47C454.91,406.07,457.88,384.58,457.88,384.58Z"/><path class="cls-6" d="M524.71,375c-9.35,18.22-26.62,29.32-45.41,36.21,17.11-8.33,35-22.49,42.28-40.51Z"/><path class="cls-5" d="M382.89,365.56c3.19,3,5.79,13.51,14.08,17.41,8.45,4,10.44,5,17.4,6.49-1.18,24.65-8.8,28.78-20.33,58.41-7,18.08-15.85,48.86-19.15,71.57-3.22,22.12,0,91.29-13.1,113.39s-1,113.39-1,113.39-24.88,1-37.38,4.79c0,0-7-54.24-10-78.35s-24.11-96.42-26.12-108.48,24.11-92.41,19.09-118.52-2-32.15-2-32.15l75.33-24.1Z"/><path class="cls-7" d="M379.12,389.44s.49-.66.88-.37a103.13,103.13,0,0,0,13.67,8.49,102.05,102.05,0,0,1-17.11-7.19C378,389.77,379.12,389.44,379.12,389.44Z"/><path class="cls-8" d="M474.31,742.23c4.57-23.06-5.3-47.29-5.6-80.42-.35-38.06,5.55-76.43,2-115.15-4.23-45.53-16-63.08-10.46-122.47,1.71-18.12,4.68-39.61,4.68-39.61"/><path class="cls-9" d="M570.43,642.59s-24.84-27.89-60-118c0,0,41.63,126.45,56.47,140.62C569.34,653.08,570.43,642.59,570.43,642.59Z"/><path class="cls-9" d="M504.17,607.89s7.39,70.29,45.47,159.16c0,0-52.33-134.17-57.81-162.49C480.85,503.7,504.17,607.89,504.17,607.89Z"/><path class="cls-9" d="M326.1,583.45s12.7-69.53,1.19-165.53c0,0,12.42,143.49,9.71,172.2C319.13,690,326.1,583.45,326.1,583.45Z"/><path class="cls-8" d="M407.37,389.46c-1.18,24.65-8.8,28.78-20.33,58.41-7,18.08-15.85,48.86-19.15,71.57-3.22,22.12,0,91.29-13.1,113.39s-1,113.39-1,113.39"/><path class="cls-10" d="M572.66,634.62c-.51-.34-3.61-3.47-4-3.76l-1-.84c-.67-.57-1.32-1.16-1.94-1.75-1.26-1.19-2.44-2.43-3.57-3.71a76.76,76.76,0,0,1-6.18-8A107.12,107.12,0,0,1,546.41,599a166.64,166.64,0,0,1-11-37.94,262.24,262.24,0,0,1-3.62-39.1,384.16,384.16,0,0,1,1.3-39.14,383,383,0,0,0,.2,39.08,258.63,258.63,0,0,0,5.07,38.59A163.28,163.28,0,0,0,550.5,597.1a102.63,102.63,0,0,0,9.73,16.41,71.54,71.54,0,0,0,6,7.25c1.08,1.12,2.19,2.21,3.35,3.22.57.51,1.16,1,1.74,1.46l.89.66a14.26,14.26,0,0,0,1.45.62Z"/><path class="cls-11" d="M287.76,567.52c3.92-8.32,5.69-14.77,8.92-23.54s6.19-17.71,8.83-26.72,5.1-18.09,7.16-27.27c1.11-4.57,2-9.19,3-13.8.5-2.3.87-4.63,1.29-6.94l1.24-7-.87,7c-.29,2.34-.55,4.69-.93,7-.7,4.66-1.36,9.34-2.22,14-1.58,9.3-3.57,18.54-5.73,27.74s-4.7,18.32-7.47,27.38-7.46,20.53-11.1,29.47Z"/></g></g></svg>