<svg xmlns="http://www.w3.org/2000/svg" xmlns:xlink="http://www.w3.org/1999/xlink" viewBox="0 0 837.97 1536.05"><defs><style>.cls-1{fill:none;}.cls-2{fill:#3a3a3a;}.cls-10,.cls-11,.cls-12,.cls-13,.cls-14,.cls-15,.cls-16,.cls-17,.cls-2,.cls-4,.cls-5,.cls-6,.cls-7,.cls-8,.cls-9{fill-rule:evenodd;}.cls-3,.cls-4,.cls-5{fill:#1c1c1c;}.cls-4{opacity:0.25;}.cls-6{fill:url(#linear-gradient);}.cls-7{fill:url(#linear-gradient-2);}.cls-8{fill:url(#linear-gradient-3);}.cls-9{fill:url(#linear-gradient-4);}.cls-10{fill:url(#linear-gradient-5);}.cls-11{fill:url(#linear-gradient-6);}.cls-12{fill:#849191;}.cls-13{fill:#c6c2c2;}.cls-13,.cls-18{opacity:0.61;}.cls-14{fill:#94a0a1;}.cls-15{opacity:0.71;fill:url(#linear-gradient-7);}.cls-16{fill:url(#linear-gradient-8);}.cls-17{fill:url(#linear-gradient-9);}.cls-19{fill:#f8fbff;}</style><linearGradient id="linear-gradient" x1="410.45" y1="725.95" x2="410.03" y2="752.33" gradientTransform="matrix(1, -0.04, 0.04, 1, -26.15, 16.94)" gradientUnits="userSpaceOnUse"><stop offset="0" stop-color="#8fa0a1"/><stop offset="1" stop-color="#94a0a1"/></linearGradient><linearGradient id="linear-gradient-2" x1="411.86" y1="688.34" x2="411.32" y2="721.94" xlink:href="#linear-gradient"/><linearGradient id="linear-gradient-3" x1="413.74" y1="645.34" x2="413.05" y2="688.66" xlink:href="#linear-gradient"/><linearGradient id="linear-gradient-4" x1="412.56" y1="586.47" x2="411.69" y2="640.23" gradientTransform="matrix(1, 0, 0, 1, 0, 0)" xlink:href="#linear-gradient"/><linearGradient id="linear-gradient-5" x1="487.73" y1="407.91" x2="395.79" y2="594.03" gradientTransform="matrix(1, 0, 0, 1, 0, 0)" xlink:href="#linear-gradient"/><linearGradient id="linear-gradient-6" x1="350.16" y1="431.04" x2="572.19" y2="440.39" gradientTransform="matrix(1, 0, 0, 1, 0, 0)" xlink:href="#linear-gradient"/><linearGradient id="linear-gradient-7" x1="477.82" y1="372.65" x2="338.38" y2="427.27" gradientUnits="userSpaceOnUse"><stop offset="0" stop-color="#3a3a3a"/><stop offset="1" stop-color="#a1a1a1"/></linearGradient><linearGradient id="linear-gradient-8" x1="486.86" y1="671.57" x2="550.42" y2="671.57" gradientTransform="matrix(1, 0, 0, 1, 0, 0)" xlink:href="#linear-gradient"/><linearGradient id="linear-gradient-9" x1="409.92" y1="671.57" x2="438.98" y2="671.57" gradientTransform="matrix(-1, 0, 0, 1, 749.14, 0)" xlink:href="#linear-gradient"/></defs><g id="Layer_2" data-name="Layer 2"><g id="base"><rect class="cls-1" x="0.32" width="837.33" height="1536.05"/></g><g id="chest_08"><path class="cls-2" d="M655.72,474.86c-6.12,19-44.68,75.93-80.83,127.37-15.89,22.6-26.32,53.6-45.09,75.39-24.2,28.1-19.43,67.31-19.43,67.31s-20,22.68-79.5,26.3-98.47-17.14-98.47-17.14c-3.19-9.41-12.3-52.83-12.3-52.83l-3.91-31.48-4.09-6.51-7.57-74.47-13.18-5.53c-6.71-28.76-1.81-82.64-1.81-82.64-7.35-31.85-31.21-49-31.21-49,19-22.68,42.23-28.81,73.48-39.83,19.94-7.05,38.85-18.17,49.87-25.28L384,385c3.38-2.21,11.24-3.43,11.24-3.43s-7.22,9.3-5.36,18.27,14.11,33.85,56.19,23,57.76-57.31,57.76-57.31,8.82,5.14,13,8.72c13.13,11.41,38.36,28.8,69.07,43.7C626.33,437.53,655.72,474.86,655.72,474.86Z"/><path class="cls-3" d="M463.2,643l22.7-17.43,2.84-2.17,1.42-1.09.71-.55.35-.27.43-.29a42.81,42.81,0,0,1,21.24-6.77,34.75,34.75,0,0,1,15,2.88A41.64,41.64,0,0,1,540.47,626a64,64,0,0,1,9.34,11.8c2.66,4.22,2.22,5,2.22,5l-4.09,7.63a50.32,50.32,0,0,0-4.3-9,57.2,57.2,0,0,0-7.71-11,35.8,35.8,0,0,0-10.35-8.09,29.54,29.54,0,0,0-12.68-3.21,36.8,36.8,0,0,0-13.27,2.19,37.66,37.66,0,0,0-6.2,2.8l-6,3.75Z"/><path class="cls-3" d="M535.79,670.05a20.15,20.15,0,0,0-6.95-4.64,34.76,34.76,0,0,0-15-2.88,42.82,42.82,0,0,0-21.23,6.77l-.43.29-1.06.82-1.42,1.09-2.84,2.18-22.7,17.42,24.23-15.2,6-3.75a37.66,37.66,0,0,1,6.2-2.8,36.78,36.78,0,0,1,13.26-2.19,29.83,29.83,0,0,1,12.69,3.21,20.31,20.31,0,0,1,5.77,4.09Z"/><path class="cls-3" d="M516.83,699.39a11,11,0,0,0-3-.15,42.9,42.9,0,0,0-14.62,3.29A41.34,41.34,0,0,0,492.6,706l-.43.29-.35.27-.71.55-1.42,1.09-2.84,2.17-22.7,17.43,24.23-15.2,6-3.75a37.66,37.66,0,0,1,6.2-2.8,33,33,0,0,1,13.26-2.19l1.27.08Z"/><path class="cls-3" d="M340.08,625.57l-2.83-2.17-1.42-1.09-1.07-.82-.43-.29a40.92,40.92,0,0,0-6.61-3.48c-4.58-1.93-17.67-3.33-17.67-3.33l.65,5.66s11.36-.32,15.65,1.2a37.29,37.29,0,0,1,6.2,2.8l6,3.75L362.78,643Z"/><path class="cls-3" d="M339.13,673.68l-2.83-2.18-1.42-1.09-.71-.55-.36-.27-.43-.29a42.82,42.82,0,0,0-21.23-6.77c-.44,0-.6.05-1,.05.15.25,1,4.58,1,4.58a36.75,36.75,0,0,1,13.26,2.19,37.29,37.29,0,0,1,6.2,2.8l6,3.75,24.23,15.2Z"/><path class="cls-3" d="M339.13,710.38l-2.83-2.17-1.42-1.09-.71-.55-.36-.27-.43-.29a40.92,40.92,0,0,0-6.61-3.48,35.05,35.05,0,0,0-7.67-2.47,29.64,29.64,0,0,1,1,4.63,23.16,23.16,0,0,1,5.26,1.37,37.29,37.29,0,0,1,6.2,2.8l6,3.75,24.23,15.2Z"/><polygon class="cls-4" points="390.79 751.32 396.3 758.14 426.97 757.49 435.55 749.01 390.79 751.32"/><polygon class="cls-5" points="377.09 737.91 387.26 721.02 433.45 720.33 388.85 724.06 377.09 737.91"/><polygon class="cls-6" points="396.59 757.14 377.09 737.91 387.95 722.15 433.45 720.33 449.45 737.14 427.14 756.41 396.59 757.14"/><polygon class="cls-4" points="384.62 720.64 391.63 729.33 430.7 728.51 441.63 717.7 384.62 720.64"/><polygon class="cls-5" points="367.16 703.56 380.12 682.04 438.95 681.16 382.15 685.92 367.16 703.56"/><polygon class="cls-7" points="392.01 728.06 367.16 703.56 381.01 683.48 438.95 681.16 459.34 702.59 430.93 727.13 392.01 728.06"/><polygon class="cls-4" points="376.6 686.95 385.65 698.16 436.01 697.1 450.1 683.16 376.6 686.95"/><polygon class="cls-5" points="354.11 664.95 370.8 637.21 446.64 636.07 373.42 642.2 354.11 664.95"/><polygon class="cls-8" points="386.13 696.53 354.11 664.95 371.95 639.06 446.64 636.07 472.92 663.69 436.29 695.32 386.13 696.53"/><polygon class="cls-4" points="365.28 636.41 375.94 650.76 438.45 651.94 456.61 635.36 365.28 636.41"/><polygon class="cls-5" points="338.48 608 360.56 574.43 454.66 576.79 363.55 580.76 338.48 608"/><polygon class="cls-9" points="376.63 648.76 338.48 608 361.89 576.79 454.66 576.79 485.88 612.34 438.89 649.75 376.63 648.76"/><path class="cls-5" d="M305,640.84l7.15-3.15s-3.64-37.44-3.76-54.05c-.08-12,6-26.15,20.55-23.61s24.17,6.05,45,26.4c0,0-19.15-28.79-49.68-30.73s-22.66,64.78-22.66,64.78Z"/><path class="cls-5" d="M558.73,637.31l-8.16-.61S561,558,545.22,547.11s-31.69-10.7-52.89-1.33c0,0,44.92-27.93,57.25-10.67s16.77,72,16.28,81.87S558.73,637.31,558.73,637.31Z"/><path class="cls-10" d="M658.77,474.9c-6.12,19-44.68,75.93-80.83,127.36-8,11.31-13.59,22.73-19.21,35,24.16-172.91-83.47-85.76-157.8-23.86-33.29-36.13-112.11-117.22-96.31,25.91L294.4,583.31c-6.71-28.76-1.81-82.65-1.81-82.65-7.35-31.84-31.21-49-31.21-49,19-22.69,37.5-33.62,68.76-44.65,19.94-7,43.57-13.36,54.59-20.46l2.35-1.57c3.38-2.2,11.24-3.43,11.24-3.43s-7.22,9.31-5.36,18.28,14.11,33.85,56.19,23,57.76-57.32,57.76-57.32,8.81,5.15,13,8.72c13.13,11.42,43.8,20.93,74.51,35.82C634.82,429.69,658.77,474.9,658.77,474.9Z"/><polygon class="cls-11" points="316.13 377.43 386.83 523.07 603 360.67 502.22 346.95 365.14 356.5 316.13 377.43"/><polygon class="cls-12" points="371.26 583.41 317.43 421.9 394.73 608.25 371.26 583.41"/><path class="cls-12" d="M575,370.85l-33.8-3.2a589,589,0,0,1-55.05,46.19C455.37,436.47,397.82,450,397.82,450s-29.15-18.67-35.4-31.58c-9-18.6-14.2-42.25-14.2-42.25l16.69-9.53L328.58,380l59.7,108.14Z"/><polygon class="cls-13" points="388.59 488.12 397.65 453.03 397.06 482.45 388.59 488.12"/><polygon class="cls-14" points="403.17 627.44 319.25 428.33 316.13 377.43 385.01 507.02 603 360.67 601 418.67 403.17 627.44"/><path class="cls-15" d="M348.22,376.15l16.69-9.53,93.26-5.08,47.69-.44,35.95,5.79c-11.95,13.11-28.48,27.67-49,42.45-35.33,25.37-70.65,35.48-94.4,40.74-8.26-5-26.73-18-34.2-30.17C356.2,407,349.35,384.53,348.22,376.15Z"/><polyline class="cls-12" points="385.01 507.02 603 360.67 601 418.67 403.17 627.44"/><path class="cls-2" d="M499.36,296.42s1.06,56,12,83.89c0,0-39.22,53-84.43,50.21s-35.1-39.08-35.1-39.08,12.55-17.35,14.69-44.91S499.36,296.42,499.36,296.42Z"/><path class="cls-5" d="M521.65,616.72s-2.51-1.24-4-2c-16,13.38-34.79,30.77-34.79,30.77l13.38,22.08-13.38,20.74,8.7,13.38-6,17.39,4,2L501,700.89Z"/><path class="cls-16" d="M550.42,658.19s-19.4-16.05-28.77-41.47c-16,13.38-34.79,30.77-34.79,30.77l13.38,22.08-13.38,20.74,8.7,13.38-6,17.39,28.77,5.35Z"/><path class="cls-5" d="M323.32,616.72l1.83-2c7.34,13.38,15.9,30.77,15.9,30.77l-6.12,22.08,6.12,20.74-4,13.38,2.75,17.39-1.83,2-5.23-20.19Z"/><path class="cls-17" d="M310.16,658.19s8.88-16.05,13.16-41.47c7.34,13.38,15.9,30.77,15.9,30.77l-6.11,22.08,6.11,20.74-4,13.38L338,721.08l-13.15,5.35Z"/><g class="cls-18"><path class="cls-19" d="M421.19,568.42c.2-.07.33-.09,0,0Z"/><path class="cls-19" d="M420.7,566.41c-.24.26-.82.07-1,.57.33.22.44.86,1.1,1,.95-.22.21-1,.53-1.66l-.83-.3a.68.68,0,0,0-.25.54Z"/><path class="cls-19" d="M429.94,580.09c.11.33.22.63.31.86l.19-.85.42.17c.21-.8-.51-2.48-1-3.56Z"/><path class="cls-19" d="M433.67,579.35l0-.53a1.88,1.88,0,0,1-.3.52A.88.88,0,0,1,433.67,579.35Z"/><path class="cls-19" d="M420.73,569.25c.22-.59-.42-.37-.76-.67l0,.49c-.25-.06-.1-.4-.34-.3,0,.23-.21.51-.29.82l.85.31s0,0,.05,0l0,0,9.51,3.49,0,1c.35.29.15.39.09.83a.84.84,0,0,1,0,.3,2.51,2.51,0,0,1,0-.3.11.11,0,0,0-.07-.09l0,.76a3.21,3.21,0,0,1,1.2,1.27c.82-.7-.77-2.31.16-2.9l-.53,0c.08-.28,1-.71.69-.84.44.14,1.26.7,1.27,1l-.32-1.7c0,.2.93,1,1,1.23.31-.24-.52-1.48-.84-1.46a6.92,6.92,0,0,0,1,0l0-.63a.77.77,0,0,0-.25-.1,1,1,0,0,1,.23-.48l0-.7-10.53-3.85a1.8,1.8,0,0,1-.32.39l-.08-.07-.38.76c-.1-.4.06.28-.18.39a.84.84,0,0,1-.81.56Zm-.31.51c.17.07-.3-.34-.14-.35C420.58,568.73,420.69,570.23,420.42,569.76Z"/><path class="cls-19" d="M433.67,579.37h-.36l-.07.07a.08.08,0,0,1,0-.07c-.23,0-.4.09-.43.41-1.37,0-.65,2.46-2.34,2.29.21,0,.42-.14.31-.34a2.34,2.34,0,0,1-.79.51l.05,1.72-1.37,1.44.1.11c-.6.31-1,1.68-1.88,1.78l-6.25,6.62-1-.48-.39.36c.29-.76-.54-.48-1-.86l0,.63c-.31-.08-.12-.52-.43-.38,0,.42-.59,1-.36,1.6a.92.92,0,0,0,.47.09s0,0,0,0h0a1.41,1.41,0,0,1,.32-.08.9.9,0,0,0,.3-.21l-.2.24c0,.07-.13.18,0,0,0,0,0,0-.1,0a.89.89,0,0,1-.32.08l0,0a1.35,1.35,0,0,0,.08.24l.18-.1c-.07.21-.13.19-.18.1-.46.28-.16.31,0,.48-1.06-.22-.87.45-1.94,0,.57.18.44.39.22.62l.61.3a.9.9,0,0,0-.23-.19c.16,0,.31,0,.46-.16l-.19.37,4.3,2.13L433.84,585Zm-14.79,15.09c.21.09-.4-.44-.19-.46C419.08,593.13,419.22,595.06,418.88,594.46Z"/><path class="cls-19" d="M412.54,572.56c0,.05,0,0,0,0l0,0S412.54,572.57,412.54,572.56Z"/><path class="cls-19" d="M412.4,572.67l.13-.11C412.44,572.56,412.28,572.47,412.4,572.67Z"/><polygon class="cls-19" points="412.58 572.51 412.57 572.51 412.57 572.52 412.58 572.51"/><path class="cls-19" d="M412.59,572.78l-.21-.07c.07.13.06.2,0,.25Z"/><path class="cls-19" d="M412.17,573.18l.22-.21C412.28,573.09,412,573,412.17,573.18Z"/><path class="cls-19" d="M425.45,582.74l-.07-2.34a4.65,4.65,0,0,0-1-.65c-.33-.4.74,0,.95-.08h0l-.09-3-7.46-2.73-5.15,5,.68,6.48,6.82,3.73.16-.18c-.18-.1-.1-.3-.11-.5s.31-.24.42,0l-.23.44.8-.95a3,3,0,0,0-.75-1.47c-.08.54-.25,1.6-.9,1.13.08-.53.48-1.19.15-1.58,1,.33-.39.76.56.89.2-.23.08-.53.07-.74.13.41.64.26.86.35.7-.69,1.39-.8,2.2-1.48-.09,0-.11,0,0,0h0l.17.08.39-.46a2.42,2.42,0,0,0-.79-1.56c.41-.45.73-.16.93-.7-1.16,0,.21,0-.35-.71.3-.44.43.18.75.15a1.29,1.29,0,0,0-.22-.66.65.65,0,0,0-.44,0c.2-.14.34-.1.44,0C424.83,581.27,425,582.22,425.45,582.74Zm-7.36-6.62a1,1,0,0,0,.18.16c0-.29.21.13,0,0v.08C417.73,576.14,418,576.38,418.09,576.12Zm-.43-.82c-.16,0,0,.24,0,.41h-.41C417.27,575.37,417.31,575.2,417.66,575.3Zm-1.48,1.2-.1-.06h.9Zm.9-.52c-.35.26-.21.08-.18,0l-.2,0c.19-.1.21,0,.2,0l.42,0C417.1,576,416.93,576.12,417.08,576Zm.11.66c.41,0,.28-.21.22-.45C418,576.5,417.75,577,417.19,576.64Zm.52,2.27-.07-.31c.12-.19.23.28.38.25Zm.88,8.14c.5-.57.22.29.33.49C418.4,587.8,418.7,587.25,418.59,587.05Zm.48-7.9,0-.17c-.18-.46-1.18-.19-.94-.89.17.38.93.48,1.4.73Zm1,.39h-.41l.55-.1Zm2.59.79c-.06.09.11-.37.37-.28C423,580.09,422.75,580.45,422.65,580.33Z"/><path class="cls-19" d="M415.51,594.33l.65.47c.72-.27.69-1.11.77-1.74-.52.15.07-.74-.56-.9l-.2.34c-.32-.08-.23-.51-.25-.82h0l-3.25-1.55a1.26,1.26,0,0,1-.41.09.26.26,0,0,0-.06.16c-.1-.11-.05-.14.06-.16s.15-.13.22-.18l-3.37-1.62-.36-3.45a.61.61,0,0,1-.44-.16.84.84,0,0,1,.36-.64l-.14-1.3h0v-.11l-.79-.78-.08.09c-.24,1.28-1.09,3.21-1.8,3.21-.05-.65-.48-.84-.86-.73l.67,6.42,9.1,4.52c.1-.12.23-.14.45,0l0,.15.59.29c0-.31,0-.65.05-.91l-.74,0c-.5-1,1.07-.51,1-1C416.17,594.34,415.68,594.49,415.51,594.33ZM406.9,586c-.11,0-.14-.11-.26-.09-.2-.37.15-.44.44-.21Zm6.93,8.46.31-.13.23.5Zm.6-.68-.21,0,.52-.26Zm1.19-.36a1.31,1.31,0,0,1-.24.38.52.52,0,0,1,.24-.38c0-.1,0-.19-.05-.26l.51-.26C416.22,593.05,415.87,593.22,415.62,593.44Zm.39.33a.41.41,0,0,1,.13.25A.66.66,0,0,0,416,593.77Z"/><path class="cls-19" d="M407.76,582a.87.87,0,0,1,.68-.26l-.2-1.93,0-.07h0l-.26-2.48,4-3.81a.37.37,0,0,1-.39-.06c.1-.51.51-.42.86-.68a1.57,1.57,0,0,1-.56-.43l-.15-.06h.07l-.58-.51-.05.05c-.18.76-.76,1.93-1.24,1.93,0-.56-.61-.54-.87-.25,0-.15.2-.19.26-.29l-.5-.07c.34-.63,1.16-.29,1.28-.8.07.31-.2.53.32.68.47-.09.08-.75.1-1,.44.05.54-.07.65-.2l0-.08,0,0a.64.64,0,0,1,.55-.17,1.41,1.41,0,0,0,.11.75l.73.27v0a1.58,1.58,0,0,1-.09-.36c.09-.07.1.2.09.36a1,1,0,0,0,.1.21l.4-.38h0l3.77-3.63,1,.36.06-.06a.18.18,0,0,0,0-.2l.39-.2c.12.09-.16.22-.35.4a.43.43,0,0,0,0,.07l.95.35a6.37,6.37,0,0,0,.1-.71c-.4.11.06-.58-.43-.7l-.16.26c-.24-.06-.18-.39-.19-.64.85-.29,1.67-1.44,2.24-1.65l-4.28-1.56-6.36,6.1c.13,0,.24,0,.33-.25-.15.76.16.17,0,.78a.61.61,0,0,0-.56-.27l-.49.46c.31,0,.6.06.22.44l0,0c-.22-.09-.45-.14-.32-.39l-4.79,4.59.38,3.6c.36-.6,1.18,1.33,1.55.07-.22,1.27.25.29,0,1.3-.27-.49-.86-.51-1.44-.46l.09.79c.36.06.58.19.11.71a.13.13,0,0,0,.06.05l-.1,0,.17,1.67c.51-.18,1.07-.13,1.18-.69.12.53-.3.88.49,1.14.7-.12.1-1.24.13-1.66.66.1.8-.11,1-.32l0-.14Zm2.93-8-.12.18c-.08,0-.1-.06-.18-.05C410.26,573.82,410.5,573.78,410.69,573.91Zm.87-2.8-.34.31-.33,0Zm-.75-.43-.26.29-.05-.24Zm-1.32,1.16a.46.46,0,0,0-.2-.13C409.44,571.75,409.65,571.69,409.49,571.84Zm-1,.1-.23.44-.13-.22Zm-3.44,7.11c0-.2,0-.4-.27-.55l.56.22C405.23,578.61,405.18,578.89,405.09,579.05Zm.14,3.17a.86.86,0,0,0-.3-.23C405.15,582.06,405.47,582,405.23,582.22Zm2.51-2,0,.57-.09-.15Zm-1,3.32c0-.06-.38-.32-.24-.41C406.44,583.06,406.88,583.29,406.76,583.54Zm0-2.76-.09-.39.47-.09Zm.52.73,1-.46-.49.5Z"/></g></g></g></svg>