<svg xmlns="http://www.w3.org/2000/svg" viewBox="0 0 837.33 1537"><defs><style>.cls-1,.cls-5{fill:none;}.cls-2{fill:#182633;}.cls-10,.cls-2,.cls-3,.cls-4,.cls-5,.cls-7,.cls-8,.cls-9{fill-rule:evenodd;}.cls-3{fill:#0b1d2d;}.cls-4,.cls-6{fill:#292f3a;}.cls-5{stroke:#74cbe2;stroke-miterlimit:10;stroke-width:3px;}.cls-7{fill:#050505;opacity:0.41;}.cls-11,.cls-8,.cls-9{fill:#74cbe2;}.cls-9{opacity:0.66;}.cls-10{fill:#1c5663;opacity:0.68;}</style></defs><g id="Layer_2" data-name="Layer 2"><g id="base"><rect class="cls-1" width="837.33" height="1537"/></g><g id="L_arm_05"><path class="cls-2" d="M630,930.51s-6.74-15-5.21-25.72c0,0,8.58-5.06,23.58-4.37S681.43,917,681.43,917v17.46Z"/><path class="cls-2" d="M620.19,855.8s-5.1,29.6-10.41,43.88c0,0,11.29,3.66,24.9-5.3s8.22-33.68,8.22-33.68S628.56,853.15,620.19,855.8Z"/><path class="cls-3" d="M717.17,682.43s12.33,50.19-46.94,38.22c-10.52-2.12-32.44-18.57-42-33.23,0,0-9.4-17.17-9.35-22.64-23.9-13-34.27-60.49-25.6-79.28-1.44-3.93-17.34-11.9-19.7-14.76-24.76-30.1-11.16-71.85-3.46-81.55,12.11-15.28,24.23-33.18,45-36.17,27.16-3.89,36.6,16,43.56,21.87s22.9,47.55,24.15,76.94,28.85,87.28,29,88.07C713.29,645.38,717.17,682.43,717.17,682.43Z"/><path class="cls-4" d="M681.43,799.48c-19.2.4-22.83,13.63-23.25,14.7,0,0-19,4.9-26.94,11s-11.07,30.66-11.07,30.66l22.73,4.85s5.14-3,11.26,1.23c0,0-5.34,34-10.68,47.81a44.3,44.3,0,0,1-3.72,7,144.76,144.76,0,0,1-9.8,13.72s1.28,3.09,5.83,6.76,16.56,2.16,16.56,2.16l6.47-3.68s-1,2.16,3.92,4,22,0,22,0a37.07,37.07,0,0,0,10.14.83c6.42-.24,9.16-2.35,16.8-2.35s10.73-.63,13.77-2.45c.78-.44,1.71-3.28,2.5-8.23,2.4-15.38,3-50.75-10.29-96.11C717.36,826.77,715.64,798.77,681.43,799.48Z"/><path class="cls-3" d="M641.87,760.3c9.5,20.77,19.69,45.26,16.31,53.88l-.77.21a7.29,7.29,0,0,1,.83,3.83c-.11,3.24-.86,32.13,30,33.1,13.54.42,25.64-11.3,29.43-19.94-4.6-62.8,6-109.83,1.13-140.74a59.28,59.28,0,0,0-4.31-15.19s-15.83-20.21-39.76-17.67c-13.44,1.42-39.76,5.53-46.61,29.62,0,0-4.9,29.4,0,42.87C630.06,735.51,635.79,747.17,641.87,760.3Z"/><path class="cls-5" d="M644,597.16s23.93,31.45,25.64,48.59S673.05,677,673.05,677"/><path class="cls-5" d="M681.43,591.51s9.46,32.78,16.39,42.63-.48,48.33-.48,48.33"/><path class="cls-6" d="M626.63,699.86a127,127,0,0,0-.45,19.52c.1-6.16.26-12.32.61-18.46C626.74,700.57,626.68,700.22,626.63,699.86Z"/><path class="cls-6" d="M718.83,690.64a59.28,59.28,0,0,0-4.31-15.19s-15.83-20.21-39.76-17.67a106.45,106.45,0,0,0-13.93,2.28c1.33,3.11-34.64,17.05-16.87,42.36.13.93,12.67,20.85,11.79,30.92-.06,5.35-.16,10.7-.41,16a15.16,15.16,0,0,1-11.84,14.5c9,19.93,17.87,42.17,14.68,50.3l-.77.21a7.29,7.29,0,0,1,.83,3.83c-.11,3.24-.86,32.13,30,33.1,13.54.42,25.64-11.3,29.43-19.94C713.1,768.58,723.68,721.55,718.83,690.64Z"/><path class="cls-7" d="M663.32,760.75c7.75,16.94,16.06,36.91,13.3,43.94l-.62.17a6,6,0,0,1,.67,3.12c-.09,2.64-.7,26.2,24.48,27,11,.34,20.91-9.21,24-16.25-3.76-51.21,4.87-89.55.92-114.75a48.05,48.05,0,0,0-3.52-12.38s-12.9-16.48-32.41-14.41c-11,1.16-32.42,4.51-38,24.15,0,0,5.32,20.08,9.32,31.07C663,736.66,658.37,750.05,663.32,760.75Z"/><path class="cls-4" d="M667.32,758.75c7.75,16.94,16.06,36.91,13.3,43.94l-.62.17a6,6,0,0,1,.67,3.12c-.09,2.64-.7,26.2,24.48,27,11,.34,20.91-9.21,24-16.25-3.76-51.21,4.87-89.55.92-114.75a48.05,48.05,0,0,0-3.52-12.38s-12.9-16.48-32.41-14.41c-11,1.16-32.42,4.51-38,24.15,0,0,5.32,20.08,9.32,31.07C667,734.66,662.37,748.05,667.32,758.75Z"/><path class="cls-7" d="M658.82,935.71s8.52-10.72,11.28-22.66c0,0-.92,15-7.35,26.65A4.52,4.52,0,0,1,658.82,935.71Z"/><path class="cls-7" d="M684.79,939.7s5-4.91,6.84-17c0,0,.82,7-1.93,17.66C689.7,940.41,687.7,941.4,684.79,939.7Z"/><path class="cls-7" d="M706.86,938.49s3.19-1.59,5.8-9a18.1,18.1,0,0,1-.92,8.67Z"/><path class="cls-7" d="M614.39,448.13c-16.33,7.93-23.35,33.17-22.45,39.31a2,2,0,0,1,.12.33c.7,4,4.72,59.35,10.94,81s64.39,39,64.39,39,43.3-11.43,42.46-18.07c-1.74-14.23,1.17-33.87-7.51-58-9.67-26.91-21.93-45.83-36.27-70.79C654.82,441.43,634.52,438.36,614.39,448.13Z"/><path class="cls-4" d="M618.65,444.83c-16.34,7.93-23.36,33.17-22.46,39.31a1.7,1.7,0,0,1,.12.33c.7,4,4.73,59.35,10.94,81s64.39,39,64.39,39S715,593,714.11,586.38c-1.75-14.22,1.16-33.86-7.52-58-9.67-26.91-21.93-45.83-36.27-70.8C659.07,438.13,638.78,435.05,618.65,444.83Z"/><path class="cls-8" d="M685,568.85s-39.32-11.8-43.51-26.37-6.92-52-7.39-54.7a1.06,1.06,0,0,0-.08-.23c-.61-4.15,4.13-21.2,15.17-26.56a40.21,40.21,0,0,1,4.85-2,37.85,37.85,0,0,0-7.73,2.81c-11,5.35-15.79,22.41-15.18,26.56a.91.91,0,0,1,.08.23c.48,2.72,3.2,40.1,7.4,54.7s43.51,26.37,43.51,26.37,2.15-.57,5.27-1.49C685.94,568.61,685,568.85,685,568.85Z"/><path class="cls-9" d="M649.22,461c-11,5.36-15.78,22.41-15.17,26.56a1.06,1.06,0,0,1,.08.23c.47,2.72,3.19,40.1,7.39,54.7S685,568.85,685,568.85s29.26-7.73,28.69-12.21c-1.18-9.62.79-22.88-5.08-39.21-6.53-18.18-14.82-31-24.51-47.83C676.53,456.46,662.82,454.39,649.22,461Z"/><path class="cls-8" d="M680.44,750.2c5.12,11.19,10.61,24.38,8.78,29l-.41.11a3.9,3.9,0,0,1,.45,2.06c-.06,1.75-.47,17.31,16.17,17.83,7.29.22,13.81-6.09,15.85-10.74-2.48-33.82,3.22-59.15.61-75.79a31.87,31.87,0,0,0-2.33-8.18S711,693.62,698.15,695c-7.23.77-21.41,3-25.1,16,0,0,3.52,13.27,6.16,20.52C680.24,734.29,677.17,743.13,680.44,750.2Z"/><path class="cls-10" d="M721.89,712.69a31.87,31.87,0,0,0-2.33-8.18S711,693.62,698.15,695l-.81.09c3.84.64,14.5,2.88,16.78,8.29,2.79,6.63,7.83,21.75,5.17,32.36s.54,49.51-1,51.27c-1.41,1.56-3.4,8.89-6.91,11a20.31,20.31,0,0,0,9.95-9.54C718.8,754.66,724.5,729.33,721.89,712.69Z"/><polygon class="cls-11" points="668.61 912.87 677.86 851.33 671.59 913.24 668.61 912.87"/><polygon class="cls-11" points="690.13 922.7 693.63 863.32 693.13 922.8 690.13 922.7"/><polygon class="cls-11" points="711.16 929.61 706.86 856.06 714.15 929.37 711.16 929.61"/></g></g></svg>