<svg xmlns="http://www.w3.org/2000/svg" viewBox="0 0 837.33 1537"><defs><style>.cls-1,.cls-6{fill:none;}.cls-2{fill:#0b1d2d;}.cls-2,.cls-4,.cls-5{fill-rule:evenodd;}.cls-3,.cls-4{fill:#292f3a;}.cls-5{fill:#050505;opacity:0.41;}.cls-6{stroke:#74cbe2;stroke-miterlimit:10;stroke-width:3px;}</style></defs><g id="Layer_2" data-name="Layer 2"><g id="base"><rect class="cls-1" width="837.33" height="1537"/></g><g id="R_arm_05"><path class="cls-2" d="M236.26,617.61S213.17,636.45,208,649.8c-2,5.2-5.42,17.74-9.53,31.61-6.58,21.87-15.1,47-23.33,51.24,0,0-10.1,26.45,1.68,37.62,17.54,16.63,37.5,6.89,41.76,1.77,33.68-40.42,68.8-68.67,83.69-92.12A59.18,59.18,0,0,0,309,665.67S322.83,602,236.26,617.61Z"/><path class="cls-3" d="M254.74,723.71c-3.47-4.38-6.66-8.93-9.89-13.48-.61-.87-1.24-1.74-1.86-2.6-.32-.44-.66-.89-.86-1.14a53.36,53.36,0,0,0-3.93-4.43c-5.84-5.76-16.84-10.5-25.14-13.48-5.05-1.81-10.16-3.44-15.28-5.05-6.14,20.2-13.84,42.47-21.41,48.28-.76.48-1.21.8-1.28.84s-17.51-8.88-27.48-9.55-28.56,15.71-28.56,15.71v0c-.49.39-23.5,18.91-36.78,26.06,0,0,6.07,10.2,22.21,12.46s28.41-19.87,28.41-19.87l0-.07,0,.06,7.65,8.36c-13.49,5.89-20.6,8.15-35.72,17.28-1.45.88-2.86,1.75-4.28,2.63h0l-.18.12q-2.7,1.68-5.31,3.37h0l-.21.14q-5.34,3.45-10.3,6.92l0,.16c-4.53,13.66,11,21.32,11,21.32h0l7.27,1.51s-1.09.51-.81,2.47a4.71,4.71,0,0,0,1.14,3.11h0c2.37,4.46,15.44,13.76,16.48,14.5l.07.06h0c1,3.06,3,3.72,3.2,3.77,1,1,2.3,2.24,3.86,3.54,3.8,3.09,6.71,4,10.41,6.43l3.26,2.5-.23.17,3.79,2.81c1,.84,2,1.52,2.82,2.09l7.78,5.77c7.54-5.53,10-8.25,18-17.42a5.16,5.16,0,0,0,.77-4.11c9.92-12.37,21.7-31.32,35.1-60.11,5.71-7.53,4.43-6.2,10.1-12.82,13.66-16.4,27.57-30.79,40.26-43.68Q256.66,726.14,254.74,723.71Z"/><path class="cls-4" d="M288.29,428c17.6,4.47,29.56,27.78,29.91,34a1.2,1.2,0,0,0,0,.35c.12,4.09,7.32,59.08,5.59,81.5S268.54,595,268.54,595s-44.72-2.48-45.24-9.15c-1.15-14.29-8-32.93-4.32-58.35,4.05-28.31,12.25-49.3,21.27-76.65C247.35,429.54,266.61,422.44,288.29,428Z"/><path class="cls-2" d="M317.08,644.54a234.51,234.51,0,0,0-8.7,23.8s-11.7,29.08-48.64,16.62-27.16-56.34-27.16-56.34l7.74-19.4c0-.05,10-19,7.61-28.88-4.9-20.8-8.45-46.31-7.61-58.5s8.92-27.5,11-33.47c-1.06-29.38,10.09-36.69,10.09-36.69,70.9-59,93.8,51.17,93.8,51.17S355.18,559.77,317.08,644.54Z"/><path class="cls-5" d="M119.64,839.42s20.19-11.84,29.52-19.67c0,0-15.14,17.21-26.3,23.44C122.86,843.19,120.71,842.62,119.64,839.42Z"/><path class="cls-5" d="M137,853.08s10.21-4.3,22-15.94c0,0-13.89,16.7-18.09,18.92Z"/><path class="cls-4" d="M103.09,824.85s27.85-15.21,38.52-26.55c1.77-1.88,11.37,5.86,11.37,5.86,2,2.32,5.38,7.42,3,9.32-7.92,6.32-22.2,24-35.54,26.64"/><path class="cls-4" d="M123.58,842.87s16.24-11.75,26.91-23.09c1.76-1.87,11.37,5.87,11.37,5.87a6.8,6.8,0,0,1-.11,8.5c-8.06,9.16-16.23,13.86-23.78,19.39"/><path class="cls-4" d="M140.14,855.83a178,178,0,0,0,22.67-20c1.76-1.88,7.91,2.83,7.91,2.83,2,2.32,3.86,8.08,1.84,10.37-8.06,9.17-10.49,11.89-18,17.42"/><path class="cls-5" d="M102.77,819.27s19.06-9.57,29-16.72c0,0-16.2,17.83-28.7,22.31A4.52,4.52,0,0,1,102.77,819.27Z"/><path class="cls-5" d="M100.56,785.74s1.15,5,14.73,2.15c0,0-4.1,5.16-17.69,6C97.6,793.93,92.47,790.93,100.56,785.74Z"/><path class="cls-4" d="M95.07,789.23S109.6,793,120.52,785a4.86,4.86,0,0,1,6.62.67l5.71,7.59c2,2.32,2.83,7.19.15,8.65-8.79,4.8-18.52,12.56-30.23,17.4l-7.29-1.5s-15.62-7.72-10.92-21.48"/><path class="cls-6" d="M213.43,722.5s52.94-72.17,70.16-104.75c0,0-34.2,1.36-41.32-12.62"/><circle class="cls-6" cx="205.64" cy="732.69" r="12.27"/></g></g></svg>