<svg xmlns="http://www.w3.org/2000/svg" viewBox="0 0 837.33 1537"><defs><style>.cls-1{fill:none;}.cls-2{fill:#333;}.cls-3{fill:#b2b2b2;}.cls-4{fill:#565656;}.cls-5{fill:#212121;}.cls-6{fill:#848484;}.cls-7{fill:#1d292d;fill-rule:evenodd;}</style></defs><g id="Layer_2" data-name="Layer 2"><g id="base"><rect class="cls-1" width="837.33" height="1537"/></g><g id="Legs_03"><path class="cls-1" d="M513.42,745c-7.23,3-21.55,4.75-39.07,5.75h40.76Z"/><path class="cls-1" d="M304.83,1356.48l.59-.3c1.76-.83,6.85-14.58,11.54-28H266.17C290,1342.79,304.83,1356.48,304.83,1356.48Z"/><path class="cls-1" d="M586,1328.17H516.91l3.47,33.21s33.46-27,50.31-31.4a37.18,37.18,0,0,1,15.08-.69C585.84,1328.92,585.91,1328.54,586,1328.17Z"/><polygon class="cls-1" points="541.7 893.64 541.7 893.64 541.7 893.64 541.7 893.64 541.7 893.64 541.7 893.64"/><path class="cls-1" d="M367.84,750.72c-20.1-.67-34-1.4-34-1.4s-.14.5-.42,1.4h34.38Z"/><path class="cls-2" d="M400,752.17H442.3v-.43c-14.14.17-28.79.06-42.59-.19v.54A1.92,1.92,0,0,0,400,752.17Z"/><path class="cls-2" d="M466.14,1035.18l4.56,17.31v-17.31Z"/><path class="cls-2" d="M512.74,1085.64h.56V1075.5h14.25v-10.1h14.09v-10.07H484.9v10a.36.36,0,0,1-.14.1.31.31,0,0,1-.17,0H474.14c.52,2,1,3.62,1.32,4.91,1.73,6.34,5.28,15.22,9.48,24.79v-9.49Z"/><path class="cls-2" d="M570.1,984.59H555.9V1025H541.78v10.06h28.36v-10h5c-.61-9.94-1.38-20.17-2.4-30.36l-2.59-.05Z"/><path class="cls-2" d="M541.7,893.64H550c-2.9-10.37-5.7-21.07-8.33-31.62v31.62Z"/><path class="cls-2" d="M541.7,964.38H527.5v10.11h42.6v10.09h1.5c-.4-3.4-.83-6.79-1.29-10.15h-.15v-1.1c-.91-6.5-1.95-12.88-3.14-19.07H541.7Z"/><path class="cls-2" d="M513.09,934.06s.11.06.14.1a.19.19,0,0,1,.07.13v9.88h28.4V924h13.89a.48.48,0,0,0,.17-.05l.07,0v-10H541.7V893.64H513.3v30.17a.85.85,0,0,1-.14.1.48.48,0,0,1-.17.05H499.1v10.1h14Z"/><path class="cls-2" d="M470.73,883.52h14.13c.29-9,.17-29-.18-30.3h-14v10.11H442.3v30.25h28.43Z"/><path class="cls-2" d="M455.53,994.75l1,3.67v-3.67Z"/><path class="cls-2" d="M470.47,1004.75H458.15c1.81,6.91,3.6,13.72,5.31,20.21h7.18C470.91,1020.07,470.81,1006,470.47,1004.75Z"/><path class="cls-2" d="M314.51,954.27v10.11h28.4V934.12H328.7v10H314.51v10.1Z"/><path class="cls-2" d="M271.91,1267.7v10h28.4v-20.22h-28.4v-10.1H252.36c-1.3,7.07-2.66,13.62-4.24,20.18C257.49,1267.41,270.42,1267.49,271.91,1267.7Z"/><path class="cls-2" d="M271.85,1186.66v-10.11H264q-.88,5.25-1.69,10.11Z"/><path class="cls-2" d="M271.91,1297.86v-20.21H257.67v10.12H243.51v10.09h28.4Z"/><path class="cls-2" d="M357.11,1085.64v9.59q1.23-4.7,2.65-9.59h-2.65Z"/><path class="cls-2" d="M285.51,1196.8h.6v-10.1h-14.2v10.1h13.6Z"/><path class="cls-2" d="M598.64,1277.68c1.3-2.71,2.7-5.32,4.2-7.88.7-6.87,1.27-14.5,1.53-22.47H598.5V1217H584.6a.34.34,0,0,1-.17,0l-.21-.16v-9.9h-14v-10.1h30.27c-1.82-9.94-4.13-20.24-6.56-30.34H570.14v10.1H555.9v30.35H541.7V1217h14.2c0,6.79,0,13.5.05,20.25-4.76,0-9.48,0-14.26,0v10.12H527.55v10.12h28.39v10.12h14.22v10C573.75,1277.71,587.68,1277.73,598.64,1277.68Zm-28.59-30.41H556v-10h14.09Z"/><path class="cls-2" d="M555.9,1317.84a.25.25,0,0,0,.06.13s.09.07.07,0h14v-10H555.9Z"/><path class="cls-2" d="M286.11,924h-6.26q-1.17,5-2.28,10.08h8.54Z"/><path class="cls-3" d="M328.71,964.38v10.1h14.12v20.18H328.75V984.59H300.31v10.09H286.16v10.12H271.91v10.11H285.8a.31.31,0,0,1,.17.05.36.36,0,0,1,.14.1v10h14.21v-20.15h14.22v10.08h14.22v10c5.25.19,26.68.12,28.35-.09V964.38h-28.4Z"/><path class="cls-3" d="M541.7,964.38V944.17H513.3v-9.88a.19.19,0,0,0-.07-.13s-.09-.06-.14-.1h-14V954.3h14.22v10.08H541.7Z"/><path class="cls-3" d="M442.25,762.34v0h-14.2v10.1H414v10h28.25Z"/><path class="cls-3" d="M385.51,964.38V944.17h-13.9a.48.48,0,0,0-.17.05.69.69,0,0,0-.13.11v20h14.2Z"/><path class="cls-3" d="M342.91,1065.77v9.77h19.92q1.57-5,3.28-10.11h-23.2Z"/><path class="cls-3" d="M499.1,833v-9.88A.19.19,0,0,0,499,823a.67.67,0,0,0-.14-.09h-14V833Z"/><path class="cls-3" d="M541.7,944.17h14.2V934.06H541.7v10.11Z"/><path class="cls-3" d="M484.76,1065.38a.36.36,0,0,0,.14-.1v-10H471.45c1,3.91,1.94,7.32,2.69,10.1h10.45A.31.31,0,0,0,484.76,1065.38Z"/><path class="cls-3" d="M286.11,1247.33v10.1h14.2v10.11h14.2v10.11h14.1v-20.26h-14.1v-9.84a.17.17,0,0,0-.07-.12.71.71,0,0,0-.14-.1H286.11Z"/><path class="cls-3" d="M527.5,1146.28H508.58c1.07,2.55,1.67,4.28,1.61,4.89s-.4,2.47-.91,5.21H527.5Z"/><path class="cls-3" d="M271.91,1287.75v10.11h-28.4v10.05c7,.21,40.84.12,42.6-.1v-20.06h-14.2Z"/><path class="cls-3" d="M286.11,924h14.16v-9.7l-.57-.41H282.26q-1.23,5-2.41,10.11h6.26Z"/><path class="cls-2" d="M314.51,1277.65h-14.2v10.1h-14.2v10.11h14.26V1308H323.9c2.34-6.83,4.71-14,6.84-20.24H314.51Z"/><path class="cls-4" d="M342.91,772.38H356.8a.37.37,0,0,1,.17,0,.61.61,0,0,1,.14.1v10h28.3V772.35h-14.1V750.84l-3.47-.12H342.91Z"/><path class="cls-2" d="M286.11,1024.32v-9.26a.36.36,0,0,0-.14-.1.31.31,0,0,0-.17-.05H271.91V1004.8h-7.34c-1.14,8-1.9,14.58-2.21,19,0,.27-.05.68-.08,1.21h23.83Z"/><path class="cls-2" d="M271.91,975.18v-.69H269.5q-.93,5.19-1.76,10.1h4.17Z"/><path class="cls-2" d="M314.72,1126.07s-.1-.06-.14-.1-.07-.08-.07-.13V1116h28.4v-20.21h-14a1.21,1.21,0,0,1-.14-.1.21.21,0,0,1-.07-.12v-9.89H300.33v-10.07H271.91v-10.14h-12c-.16,3.87-.24,6.84-.18,8.16.5,9.24,1.66,20.89,3,32.29H272V1116h14.21v10.07H300a.53.53,0,0,1,.18,0c.05,0,.09.07.21.14v20H314.2a.47.47,0,0,1,.17,0,.76.76,0,0,1,.14.11v10h14.2v-10.1H356.8a.53.53,0,0,0,.17,0l.14-.1v-2c-2.95-8.89-5.55-15.51-5.55-15.51,0-.83,0-1.69.08-2.56H314.72Zm-28.64-30.37h-14s0,0-.07,0a.19.19,0,0,1-.06-.13c0-3.26,0-6.52,0-9.83h14.17Z"/><path class="cls-4" d="M399.7,954.5a.25.25,0,0,0-.06-.13,1.21,1.21,0,0,1-.14-.1h-14v10.11h-28.4V994.7h14.21V984.58H394.8c.66-2.1,1.26-4.09,1.79-5.93,1.37-4.86,2.52-9.63,3.48-14.27h-.36C399.71,961,399.71,957.76,399.7,954.5Z"/><path class="cls-4" d="M584.29,1131c0,1.68,0,3.36,0,5.13h2q-1.05-4.2-2-8.15C584.3,1129,584.29,1130,584.29,1131Z"/><path class="cls-4" d="M570.1,1096.44v-.69H555.9v9.88s0,.09-.07.13l-.15.09h-14v20.22h42.12c-1.86-7.68-3.38-14.47-4.26-19.92a3.06,3.06,0,0,1,0-.32H570.1Z"/><path class="cls-4" d="M527.47,1095.72v-10.08H513.3v10.15H499.15v20.12h28.36v-10.06H541.7v-10.13Z"/><path class="cls-4" d="M285.52,1156.38H271.91v10.11h42.6v-10.11h-29Z"/><path class="cls-4" d="M413.9,853.44a.2.2,0,0,0-.06-.12.78.78,0,0,0-.15-.1h-14v20.16c6.07.19,26.69.12,28.39-.1v-9.95H413.91C413.91,860,413.91,856.7,413.9,853.44Z"/><path class="cls-4" d="M456.5,822.91H428.1V833h28.4Z"/><path class="cls-4" d="M513.3,1196.47v-9.77h14.2v-10.15h14.14v-10.06H507.38c-1.58,8.46-3.57,19.4-5.28,30.31h11.2Z"/><path class="cls-5" d="M541.7,893.64h0v20.21h14.13v10l-.07,0a.48.48,0,0,1-.17.05H541.7v10.1h14.2v10.11h9c-1.5-6.54-3.19-12.78-5.13-18.59,0-.19-.14-.39-.19-.59-3.24-9.65-6.45-20.31-9.54-31.35Z"/><path class="cls-5" d="M371.32,994.7H357.11v30.16c-1.67.21-23.1.28-28.35.09v-10H314.54v-10.08H300.32V1025h-38c-.4,6-1.82,27.93-2.34,40.42h12v-10.07h28.35v10.07h14.25v-30.29h14.13V1045a1.26,1.26,0,0,0,.21.15.34.34,0,0,0,.17,0h13.89v20.21h23.2c2.24-6.71,4.61-13.5,7-20.21h-1.61c-.29-1.2-.4-36.52-.12-40.38h14.08V994.73h5.94c1.26-3.62,2.39-7,3.39-10.15H371.32ZM272,1045.18v-10h14l.07.06a.22.22,0,0,1,.06.13v9.83Z"/><path class="cls-5" d="M484.9,1045.38l.14-.11a.48.48,0,0,1,.17,0H499.1v10.11h42.54v10.07H527.55v10.1H513.3v10.14h14.17v10.08H541.7v10.13h14l.15-.09s.07-.08.07-.13v-9.88h22.57c-1.15-16.07-1.61-42.18-3.38-70.69h-5v10H541.78V1025H555.9V984.59H527.5V964.38H513.32V954.3H499.1V934.06H470.73c-.06-1.65,0-3.31,0-5V924h13.95l.19-.15a.22.22,0,0,0,.06-.13v-9.88h28.4V893.64h28.4V862c-11.15-44.71-19.26-86.44-19.26-86.44l-3.09-10.43-4.24-14.43H474.35l-3.65.2v11.35H442.3v-10.1H400a1.92,1.92,0,0,1-.31-.08v-.54c-10.12-.18-19.76-.44-28.4-.71v21.51h14.1v10.13h-14.1v20.18H343V782.48h14.11v-10a.61.61,0,0,0-.14-.1.37.37,0,0,0-.17,0H342.91V750.72h-9.45c-.73,2.45-2.4,8-4.75,15.63v.9c0,1.68,0,3.35,0,5.08h-1.84c-6.45,20.84-16.47,52.52-26.35,80.87h13.91v20.2c-2.24.07-4.58,0-6.91,0s-4.72,0-7.14,0v20.14h42.49v-10h14.22V873.49h28.22c.29,1.13.39,16.13.12,20.11H357.15v10.12H328.73v10.13H314.51v30.32H328.7v-10h14.21v30.26h28.4v-20a.69.69,0,0,1,.13-.11.48.48,0,0,1,.17-.05h13.9v10.1h14a1.21,1.21,0,0,0,.14.1.25.25,0,0,1,.06.13c0,3.26,0,6.53,0,9.88h.36c8.89-42.9,1.51-75.29,1.51-75.29l28.92,7.73s4.05,17.08,6.55,27.16h5.19v10l-.07,0a.53.53,0,0,1-.18,0h-2.35c.81,3.09,1.7,6.51,2.66,10.19v0h28.32v30.29h-20.4l5.31,20.26h1v3.67c.56,2.11,1.11,4.23,1.66,6.33h12.32c.34,1.27.44,15.32.17,20.21h-7.18c.92,3.51,1.82,6.93,2.68,10.22h4.56v17.31c.26,1,.51,1.92.75,2.84H484.9ZM399.67,934H385.51V924h14.16Zm56.9-151.51h14.06v10s0,0-.07,0a.34.34,0,0,1-.17.05H456.57ZM414,772.42h14.05v-10.1h14.2v20.13H414Zm28.3,121.16V863.33H428.1v9.95c-1.7.22-22.32.29-28.39.1V843.14h14.15V833H428.1v-10.1h28.4V802.85c1.7-.22,22.05-.3,28.4-.1v20.16h14a.67.67,0,0,1,.14.09.19.19,0,0,1,.07.13V833H470.7v20.21h14c.35,1.3.47,21.28.18,30.3H470.73v10.06Z"/><path class="cls-5" d="M286.11,1156.38h28.4v-10a.76.76,0,0,0-.14-.11.47.47,0,0,0-.17,0H300.38v-20c-.12-.07-.16-.11-.21-.14a.53.53,0,0,0-.18,0H286.17V1116H272v-10.12h-9.21c1.3,11.18,2.75,22.11,3.89,30.28h19.47Z"/><path class="cls-5" d="M357,1146.23a.53.53,0,0,1-.17,0H328.71v10.1h14c.34,1.21.45,12.55.19,20.15H300.31v-10h-28.4v-10.11h-4.43c-1.27,7.2-2.42,13.9-3.47,20.17h7.84v10.11h-9.53c-1.9,11.54-3.48,21.52-4.89,30.4h14.48V1186.7h14.2v10.1h28.36V1217h14.24v10.15h-28.4v20.21h14a.71.71,0,0,1,.14.1.17.17,0,0,1,.07.12v9.84h14.1v20.26h-14.1v10.1h16.23c2.24-6.56,4.21-12,5.59-14.86,0,0,7.94-9.49,10.29-16.1q3.76-10.55,6.68-19.63H328.77v-10h27.65c6.74-22.54,9.28-37.63,9-47-.22-9.63-4.57-24.7-8.34-36.07v2Z"/><path class="cls-5" d="M300.37,1297.86H286.11v10c-1.76.22-35.6.31-42.6.1v-20.14h14.16v-10.12h14.24v-10c-1.49-.21-14.42-.29-23.79-.19l-.6,2.46c-2.16,8.62-3.53,13.47-3.53,13.47l-3.67,30.62a284.52,284.52,0,0,1,25.85,14.11H317c2.5-7.16,4.89-14.24,6.6-19.21l.34-1H300.37Z"/><path class="cls-5" d="M513.23,1136.07a.17.17,0,0,0,.07-.12v-9.88h28.4v-20.22H527.51v10.06H499.15v-20.12H513.3v-10.15H484.94v9.49c6.22,14.16,13.86,29.83,19.09,41h9.06A.5.5,0,0,0,513.23,1136.07Z"/><path class="cls-5" d="M271.91,1237.38a.69.69,0,0,0-.13-.11.53.53,0,0,0-.18,0H257.78v-10.06h-2c-1.19,7.37-2.3,14-3.45,20.17h19.55Z"/><path class="cls-5" d="M570.18,1206.9h14v9.9l.21.16a.34.34,0,0,0,.17,0h13.9v10.11h5.73q-.08-1.65-.18-3.3a237.22,237.22,0,0,0-3.6-27H570.18Z"/><path class="cls-5" d="M586.45,1325.49c-.23-13.35,4.28-26.37,8.53-38.85a84.32,84.32,0,0,1,3.66-9c-11,0-24.89,0-28.48-.09v-10H555.94v-10.12H527.55v-10.12h14.14v-10.12c4.78,0,9.5,0,14.26,0-.05-6.75-.05-13.46-.05-20.25H541.7v10a.64.64,0,0,1-.13.1.35.35,0,0,1-.17.06H513.33v10.1H498.58c.87,10.71,4,26.18,7.39,40.47h7.23v28.52c1.38,5.1,2.28,8.24,2.28,8.24l1.43,13.72H586c.13-.6.31-1.19.49-1.78C586.47,1326.09,586.46,1325.79,586.45,1325.49ZM570.06,1318H556s0,0-.07,0a.25.25,0,0,1-.06-.13V1308h14.16Z"/><path class="cls-5" d="M272.38,1277.65h-.47v10.1h28.4v-10.1H272.38Z"/><path class="cls-5" d="M314.51,1267.54h-14.2v10.11h14.2v-10.11Z"/><path class="cls-5" d="M328.75,984.59v10.07h14.08V974.48H328.71v-10.1h-14.2V954.27h-14.2v30.32h28.44Z"/><path class="cls-5" d="M272.61,1004.8h13.55V994.68h14.15V984.59h-14.2v-9.88a.19.19,0,0,0-.07-.13.67.67,0,0,0-.14-.09h-14V994.7h-5.82c-.56,3.57-1.07,6.95-1.52,10.1h8Z"/><path class="cls-5" d="M342.91,1065.77v-.34h-28.4v20.21h14.2v9.89a.21.21,0,0,0,.07.12,1.21,1.21,0,0,0,.14.1h14v-10.11h16.85c1-3.31,2-6.69,3.07-10.1H342.91Z"/><path class="cls-5" d="M271.92,1095.52a.19.19,0,0,0,.06.13s.09.07.07,0h14v-10H271.91C271.91,1089,271.91,1092.26,271.92,1095.52Z"/><path class="cls-5" d="M314.51,1125.84c0,.05,0,.09.07.13s.1.06.14.1h14V1116h-14.2Z"/><path class="cls-5" d="M456.5,863.33V853.22H442.61a.55.55,0,0,0-.17,0l-.14.1v10h14.2Z"/><path class="cls-5" d="M541.64,1176.55H527.5v20.25H513.3v10.11h42.6v-30.35h14.24v-10.1h23.75c-2.53-10.55-5.19-20.86-7.57-30.29h-2c0-1.77,0-3.45,0-5.13,0-1,0-2,0-3-.16-.65-.32-1.31-.47-2H541.7v10.1H527.81a.48.48,0,0,0-.17,0,.85.85,0,0,0-.14.1v20.06H509.28c-.5,2.63-1.15,6.09-1.9,10.11h34.26Z"/><path class="cls-5" d="M286.11,1248v-.69h-14.2v10.1h14.2V1248Z"/><path class="cls-5" d="M556,1237.27h0v10h14.09v-10H556Z"/><path class="cls-6" d="M442.3,762.27h28.4V750.92c-8.9.44-18.52.7-28.4.82v10.53Z"/><path class="cls-6" d="M285.9,974.49a.67.67,0,0,1,.14.09.19.19,0,0,1,.07.13v9.88h14.2V954.27h14.2V913.85h14.22V903.72h28.42V893.6h28.28c.27-4,.17-19-.12-20.11H357.09v10.07H342.87v10H300.38V873.43c2.42,0,4.78,0,7.14,0s4.67,0,6.91,0V853.2H300.52c-1.29,3.72-2.59,7.38-3.87,10.95-5.08,14.23-10,31.61-14.39,49.7H299.7l.57.41V924H286.11V934h-8.54c-.66,3-1.31,6-1.93,8.93-2.29,10.89-4.35,21.57-6.14,31.52h16.4Z"/><path class="cls-6" d="M272.51,1156.38h13.6v-20.22H266.64c1.15,8.3,2,13.76,2,13.76q-.58,3.3-1.14,6.46h5Z"/><path class="cls-6" d="M442.44,853.27a.55.55,0,0,1,.17,0H456.5v10.11h14.2V833h14.2V802.75c-6.35-.2-26.7-.12-28.4.1V833H413.86v10.13H399.71v10.08h14a.78.78,0,0,1,.15.1.2.2,0,0,1,.06.12c0,3.26,0,6.53,0,9.89H442.3v-10Z"/><path class="cls-6" d="M570.1,1096.44v9.39h9.41c-.41-2.64-.75-6-1-10.08H570.1Z"/><path class="cls-6" d="M385.47,1004.84H371.39c-.28,3.86-.17,39.18.12,40.38h1.61c6.55-18.33,13.31-36.12,18.29-50.49h-5.94Z"/><path class="cls-6" d="M470.62,944.2H442.3v0c2.33,8.87,5.05,19.27,7.92,30.24h20.4Z"/><path class="cls-6" d="M271.91,1075.57h28.42v10.07h14.18v-20.21H300.26v-10.07H271.91v20.21Z"/><path class="cls-6" d="M342.45,1065.43h.46v-20.21H329a.34.34,0,0,1-.17,0,1.26,1.26,0,0,1-.21-.15v-9.88H314.51v30.29h27.94Z"/><path class="cls-6" d="M328.71,767.25v-.9c-.57,1.87-1.19,3.87-1.84,6h1.84C328.71,770.6,328.72,768.93,328.71,767.25Z"/><path class="cls-6" d="M357.74,782.48H343v20.18h28.31V782.48H357.74Z"/><path class="cls-6" d="M499.1,924H513a.48.48,0,0,0,.17-.05.85.85,0,0,0,.14-.1v-10H484.9v9.88a.22.22,0,0,1-.06.13l-.19.15H470.7v5.08c0,1.66,0,3.32,0,5H499.1V924Z"/><path class="cls-6" d="M570.1,984.59V974.5H527.5v10.1h42.6Z"/><path class="cls-6" d="M555.26,944.17H541.7v10.1H567q-1-5.14-2.13-10.1h-9.63Z"/><path class="cls-6" d="M470.56,792.54c.06,0,.1-.07.07,0v-10H456.57v10.08h13.82A.34.34,0,0,0,470.56,792.54Z"/><path class="cls-6" d="M385.51,929.08V934h14.16V924H385.51Z"/><path class="cls-6" d="M442.17,934l.07,0V924h-5.19c.48,1.95.9,3.63,1.22,4.88.43,1.61.88,3.35,1.37,5.2H442A.53.53,0,0,0,442.17,934Z"/><path class="cls-6" d="M485.21,1045.22a.48.48,0,0,0-.17,0l-.14.11v9.95h14.2v-10.11Z"/><path class="cls-6" d="M286.05,1035.22l-.07-.06H272v10h14.16v-9.83A.22.22,0,0,0,286.05,1035.22Z"/><path class="cls-3" d="M513.33,1227.12H541.4a.35.35,0,0,0,.17-.06.64.64,0,0,0,.13-.1v-20H513.3V1196.8H502.1c-2.09,13.33-3.77,26.59-3.77,35.2,0,1.57.09,3.32.25,5.22h14.75Z"/><path class="cls-6" d="M257.78,1237.22H271.6a.53.53,0,0,1,.18,0,.69.69,0,0,1,.13.11v9.95h28.4v-20.21h28.4V1217H314.47V1196.8H271.91v20.26H257.43c-.56,3.53-1.1,6.89-1.62,10.1h2Z"/><path class="cls-3" d="M342.91,1085.64V1116h-14.2v10.11h22.93c.4-8.66,2.44-19.25,5.47-30.84v-9.59Z"/><path class="cls-6" d="M314.51,1166.49h-14.2v10h42.56c.26-7.6.15-18.94-.19-20.15H314.51v10.11Z"/><path class="cls-6" d="M527.5,1145.85v-9.53a.85.85,0,0,1,.14-.1.48.48,0,0,1,.17,0H541.7v-10.1H513.3V1136a.17.17,0,0,1-.07.12.5.5,0,0,1-.14.1H504c1.89,4,3.47,7.51,4.55,10.11H527.5Z"/><path class="cls-6" d="M328.77,1227.16h0v10H353.3q1.69-5.22,3.12-10H328.77Z"/><path class="cls-6" d="M604.23,1227.12H598.5v20.21h5.87C604.58,1240.74,604.57,1233.92,604.23,1227.12Z"/><path class="cls-6" d="M506,1277.69c2.63,11.19,5.37,21.64,7.23,28.52v-28.52Z"/><path class="cls-6" d="M271.91,985v-.44h-4.17c-.59,3.51-1.15,6.88-1.65,10.11h5.82Z"/><path class="cls-6" d="M570.1,984.59v10.06l2.59.05c-.33-3.38-.7-6.75-1.09-10.11h-1.5Z"/><path class="cls-6" d="M570.16,974.44h.15l-.15-1.1v1.1Z"/><path class="cls-6" d="M527.5,1196.8v-10.1H513.3v10.1h14.2Z"/><path class="cls-7" d="M333.88,749.32A760.81,760.81,0,0,1,513.42,745l5.93,20.18a465.16,465.16,0,0,1-190.82,1.77Q331.22,758.12,333.88,749.32Z"/></g></g></svg>