<svg xmlns="http://www.w3.org/2000/svg" viewBox="0 0 837.33 1537"><defs><style>.cls-1,.cls-8,.cls-9{fill:none;}.cls-10,.cls-2,.cls-3{fill:#050505;}.cls-2,.cls-3{opacity:0.41;}.cls-3,.cls-5,.cls-6,.cls-7,.cls-9{fill-rule:evenodd;}.cls-4,.cls-5{fill:#292f3a;}.cls-6,.cls-7{fill:#74cbe2;}.cls-7{opacity:0.66;}.cls-8,.cls-9{stroke:#74cbe2;stroke-miterlimit:10;stroke-width:3px;}</style></defs><g id="Layer_2" data-name="Layer 2"><g id="base"><rect class="cls-1" width="837.33" height="1537"/></g><g id="feet_06"><path class="cls-2" d="M334.9,1280.35s-11.68-9.88-11.93-13.46-.49-38.22-2.34-43-16.89-82.48-18.86-85.69-13.14-27-37.39-18.94c0,0,29.5,20.92,30.42,22.27s18.93,92.71,18.93,92.71,2.59,34.69,2.71,35.53,14,17.92,14,17.92Z"/><path class="cls-3" d="M504.58,1271.66s-9.86-30.51-9.58-33.82,8.81-77.13,11.29-87.32,22.35-32.2,38.32-32.16Z"/><path class="cls-4" d="M318,1264.09c3.16-15.22-.15-26.48-1.54-40C304,1183.14,304,1150.85,297,1136.14c-10.72-22.23-32.58-16.9-32.58-16.9-13.72,67.8-9.91,122.9-16.86,150.73-2.16,8.62-3.53,13.47-3.53,13.47l-8.59,55.28-4,25.55c9.42,65.44,58.23,30.4,70.79-6.24,2.83-4.43,26.12-67.28,26.17-67.38.53-1.1,2.2-2.83,3.42-5.5C325.58,1279.61,316.49,1271.41,318,1264.09Z"/><path class="cls-5" d="M542.61,1119.24c-17.89,3.11-31.61,25.43-32.44,31.58a1.5,1.5,0,0,1,0,.35c-.44,4.07-11.86,58.35-11.86,80.83s17.15,82.45,17.15,82.45l5.35,51.75s-.54,32.62,23.23,32.8c32.85.24,36.6-52.1,36.6-52.1s13.55-58.62,14.58-65.24c2.25-14.15,10.47-32.22,8.81-57.84-1.86-28.53-8.41-50.1-15.3-78.06C583.31,1124,564.66,1115.41,542.61,1119.24Z"/><path class="cls-5" d="M303.93,1410c.86,14.08-11.41,25.63-11.41,25.63s-42.16.86-68.08,4c-1.71.2-3.33.39-4.7.64-22.39,3.67-41.05,7.93-57,8.86s-50.51-1.22-70.4-21.75a54.94,54.94,0,0,1,3.24-11.31,37.3,37.3,0,0,1,11.57-16l31.12,3.18s16.65-6.55,26.46-11.84c4.12-2.2,18.3-10.83,22.33-12.74,26.36-12.5,44.34-14.43,44.34-14.43S241,1346,267.33,1349c23.56,2.73,27,27.94,27,27.94S303.23,1398.53,303.93,1410Z"/><path class="cls-5" d="M677.42,1454.86c-20.21,8.1-37.62,18.5-60,17.69-19-.7-38.21-16.68-44.83-19.14,0,0-35.48-6.5-38.76-8.36-12-6.81-16.56-10.13-19.47-13.11s-6.47-14-5.88-18.19c1.26-8.94,13.58-36.47,13.58-36.47s7.86-14.55,25.24-17.55c24-4.14,29.46,12.12,29.46,12.12s10.36,9.89,21.55,14.41c10.72,4.34,39.54,29.38,50.32,35.4,0,0,29,14.23,29,14.23C678.26,1438.83,677.42,1454.86,677.42,1454.86Z"/><path class="cls-3" d="M547.61,1121.24c-17.89,3.11-31.61,25.43-32.44,31.58a1.5,1.5,0,0,1,0,.35c-.44,4.07-11.86,58.35-11.86,80.83s51.11,55.3,51.11,55.3,44.77,1,45.8-5.64c2.25-14.15,10.47-32.22,8.81-57.84-1.86-28.53-8.41-50.1-15.3-78.06C588.31,1126,569.66,1117.41,547.61,1121.24Z"/><path class="cls-5" d="M552.61,1119.24c-17.89,3.11-31.61,25.43-32.44,31.58a1.5,1.5,0,0,1,0,.35c-.44,4.07-11.86,58.35-11.86,80.83s51.11,55.3,51.11,55.3,44.77,1,45.8-5.64c2.25-14.15,10.47-32.22,8.81-57.84-1.86-28.53-8.41-50.1-15.3-78.06C593.31,1124,574.66,1115.41,552.61,1119.24Z"/><path class="cls-3" d="M270.12,1130.53c11.24,2.92,19.87,23.88,20.39,29.66,0,.13,0,.25,0,.33.28,3.82,7.45,54.8,7.45,75.91s-32.11,51.94-32.11,51.94-28.13.92-28.78-5.3c-1.41-13.29-6.58-30.26-5.53-54.32,1.17-26.8,5.28-47,9.61-73.31C244.55,1135,256.27,1126.94,270.12,1130.53Z"/><path class="cls-5" d="M267,1128.66c11.24,2.91,19.87,23.87,20.39,29.65a2.13,2.13,0,0,0,0,.33c.28,3.82,7.45,54.8,7.45,75.92s-32.11,51.93-32.11,51.93-28.13.92-28.78-5.29c-1.42-13.3-6.58-30.27-5.54-54.33,1.17-26.8,5.29-47,9.62-73.31C241.41,1133.1,253.13,1125.06,267,1128.66Z"/><path class="cls-6" d="M582.14,1256.78s-34.53-22.21-34.53-37.37,7.71-51.87,8-54.61a1,1,0,0,0,0-.24c.55-4.16,9.83-19.24,21.92-21.34a39.63,39.63,0,0,1,5.21-.56,38,38,0,0,0-8.21.56c-12.09,2.1-21.37,17.18-21.92,21.34a1,1,0,0,1,0,.24c-.3,2.74-8,39.42-8,54.61s34.53,37.37,34.53,37.37,2.23,0,5.48,0Z"/><path class="cls-7" d="M577.53,1143.22c-12.09,2.1-21.36,17.18-21.92,21.34a1,1,0,0,1,0,.24c-.3,2.74-8,39.42-8,54.61s34.53,37.37,34.53,37.37,30.25.66,31-3.81c1.52-9.57,7.08-21.77,5.95-39.09-1.26-19.28-5.69-33.85-10.34-52.74C605,1146.42,592.42,1140.63,577.53,1143.22Z"/><path class="cls-6" d="M237.27,1256.65s18-21.08,19-36.21-.33-52-.3-54.75c0-.06,0-.15,0-.24,0-4.17-3.46-19.5-9.11-22a9.38,9.38,0,0,0-2.46-.72c1.26,0,3.57-.68,4.9-.1,5.65,2.47,9.11,17.8,9.11,22a2.32,2.32,0,0,0,0,.24c0,2.75,1.28,39.58.29,54.75s-19,36.21-19,36.21a9.53,9.53,0,0,1-3.62.77Z"/><path class="cls-7" d="M246.84,1143.48c5.65,2.47,9.11,17.8,9.11,22,0,.09,0,.18,0,.24,0,2.75,1.28,39.59.3,54.75s-19,36.21-19,36.21-14.53-.28-14.58-4.76c-.1-9.6-2-22-.31-39.19,1.85-19.2,4.91-33.61,8.37-52.31C233.46,1145.81,239.87,1140.43,246.84,1143.48Z"/><line class="cls-8" x1="598.06" y1="1256.81" x2="596.45" y2="1285.25"/><path class="cls-9" d="M544.61,1387.13c2.7,5.23,2.15,10.52-4.16,13.77s-13.29,4.14-16.87.41c-4.07-4.25.23-12.11,6.53-15.36S541.91,1381.9,544.61,1387.13Z"/><path class="cls-9" d="M540.45,1400.9l48.47,25.29s7.78-15.25,20.35-17.32,27.81,4.87,27.81,4.87"/><path class="cls-9" d="M584.62,1288.42l-15.54,86a26.67,26.67,0,0,0-28.63,9.18"/><path class="cls-10" d="M543.65,1309.26a60,60,0,0,1-10.09,2.33,80.7,80.7,0,0,1-10.29.68c-1.72,0-3.43,0-5.13-.16-1.19-.07-2.26-.25-3.42-.38.28,1,.5,1.72.71,2.46.13,1,.24,1.79.38,2.82,0,.18,0,.34,0,.51.81,0,1.61-.09,2.42-.16,1.82-.14,3.62-.35,5.41-.61a82.15,82.15,0,0,0,10.58-2.23,61.07,61.07,0,0,0,10.05-3.88,42.91,42.91,0,0,0,8.81-6A42.27,42.27,0,0,1,543.65,1309.26Z"/><path class="cls-10" d="M540.57,1324.86a50.82,50.82,0,0,1-9.43,2.35,64.7,64.7,0,0,1-9.62.72c-1.6,0-3.2,0-4.79-.16a48,48,0,0,1,.66,5.2c1.51-.14,3-.33,4.49-.55a70.34,70.34,0,0,0,10-2.29,52.57,52.57,0,0,0,9.35-3.9,43.32,43.32,0,0,0,8.18-5.76A42,42,0,0,1,540.57,1324.86Z"/><path class="cls-10" d="M535.82,1340.4a51.52,51.52,0,0,1-9.42,2.35,66,66,0,0,1-7.92.68c.14,1.46.32,2.61.43,4.22a70.47,70.47,0,0,0,8.17-2,53.36,53.36,0,0,0,9.35-3.91,42.13,42.13,0,0,0,8.18-5.76A42.26,42.26,0,0,1,535.82,1340.4Z"/><path class="cls-10" d="M291.29,1305.64a59.82,59.82,0,0,0,9.3,4.57,77.75,77.75,0,0,0,9.86,3c1.67.39,3.35.74,5,1,1.18.2,2.26.27,3.42.41-.51.93-.88,1.56-1.25,2.23l-1,2.67c0,.16-.06.33-.09.5-.77-.23-1.54-.46-2.32-.71q-2.6-.82-5.12-1.82a82.5,82.5,0,0,1-9.8-4.59,62.29,62.29,0,0,1-8.9-6.06,43.77,43.77,0,0,1-7.22-7.82A42.48,42.48,0,0,0,291.29,1305.64Z"/><path class="cls-10" d="M290.74,1321.53a50.38,50.38,0,0,0,8.64,4.44,65.37,65.37,0,0,0,9.2,2.89c1.56.37,3.13.69,4.71.94a47.89,47.89,0,0,0-1.84,4.91c-1.43-.48-2.84-1-4.24-1.56a69.37,69.37,0,0,1-9.16-4.49,53.18,53.18,0,0,1-8.22-5.93,43.13,43.13,0,0,1-6.65-7.47A41.79,41.79,0,0,0,290.74,1321.53Z"/><path class="cls-10" d="M291.82,1337.74a50.38,50.38,0,0,0,8.64,4.44,65.89,65.89,0,0,0,7.55,2.47c-.47,1.39-.91,2.46-1.38,4a68.33,68.33,0,0,1-7.5-3.78,52.58,52.58,0,0,1-8.22-5.94,42.77,42.77,0,0,1-6.65-7.47A42.54,42.54,0,0,0,291.82,1337.74Z"/><line class="cls-8" x1="231.43" y1="1255.32" x2="237.28" y2="1284.18"/><path class="cls-8" d="M244.48,1289.35l-10.13,75.23s17.93,5.74,19.71,19"/><ellipse class="cls-8" cx="256.59" cy="1394.89" rx="13.73" ry="11.53"/><path class="cls-8" d="M242.87,1399l-64.36,9.87s-5.08-17.43-13.75-17.43"/></g></g></svg>