<svg xmlns="http://www.w3.org/2000/svg" xmlns:xlink="http://www.w3.org/1999/xlink" viewBox="0 0 837.33 1537"><defs><style>.cls-1,.cls-11{fill:none;}.cls-12,.cls-2,.cls-8{fill:#454c4c;}.cls-10,.cls-2,.cls-3,.cls-4,.cls-6,.cls-7{fill-rule:evenodd;}.cls-3{fill:#050505;opacity:0.41;}.cls-4{fill:url(#linear-gradient);}.cls-5{fill:#1b8080;}.cls-6{fill:url(#linear-gradient-2);}.cls-7{fill:url(#linear-gradient-3);}.cls-8{opacity:0.28;}.cls-9{fill:#d8d8d8;}.cls-10{fill:url(#linear-gradient-4);}.cls-11{stroke:#d8d8d8;stroke-miterlimit:10;stroke-width:6px;}</style><linearGradient id="linear-gradient" x1="423.94" y1="775.95" x2="423.94" y2="741.61" gradientUnits="userSpaceOnUse"><stop offset="0" stop-color="#1a8080"/><stop offset="0.89" stop-color="#24b2b2"/><stop offset="1" stop-color="#24b2b2"/></linearGradient><linearGradient id="linear-gradient-2" x1="259.87" y1="980.76" x2="398.83" y2="980.76" xlink:href="#linear-gradient"/><linearGradient id="linear-gradient-3" x1="409.6" y1="892.27" x2="543.67" y2="892.27" gradientTransform="matrix(0.8, -0.93, 0.76, 0.65, -566.78, 771.62)" xlink:href="#linear-gradient"/><linearGradient id="linear-gradient-4" x1="256.6" y1="1028.25" x2="381.95" y2="1028.25" xlink:href="#linear-gradient"/></defs><g id="Layer_2" data-name="Layer 2"><g id="base"><rect class="cls-1" width="837.33" height="1537"/></g><g id="Legs_07"><path class="cls-2" d="M604.05,1223.82c-.07-1-.16-2.07-.24-3.1.34-11.11-1.5-19.86-2.61-30.34-.84-7.83-3.53-14.76-6.67-21.66-1.78-7.13-3.68-14.46-5.61-22.28h0l-.15-.58,0-.09h0q-.81-3.2-1.6-6.28a22.42,22.42,0,0,0-.72-7.46,66.8,66.8,0,0,0-2.8-6.7c-1.77-7.36-3.22-13.89-4.07-19.16-.89-5.53-1.43-14.55-1.93-25.86,3.59-21.2,7-45.53,5.09-65.06-1.08-11.08-7.27-25.89-12.26-39.66-2.44-18.06-5.84-35.36-10.7-50,0-.19-.14-.39-.19-.59-.31-.92-.62-1.87-.94-2.82-1.26-6.77-2.42-13.71-3.27-21.45-2.86-26.05-12-49.86-21.82-70l-11.1-55.13-3.09-10.43L513.42,745c-29.78,12.24-179.54,4.35-179.54,4.35s-3.2,10.75-8.18,26.77c-10.6,22.82-23.57,43.1-47.2,90.78-8.14,16.45-14.24,65.59-16.32,85-1.87,17.38,1.39,35,.24,52.4-1.6,24.12-11.6,48.14-6.66,71.81a109.6,109.6,0,0,0,5.65,17.56c1.79,17.64,4.44,37,6,47.8-1.72,3.75-3.84,7.34-5.33,11.19-4.81,12.42-2.66,26.29-3.65,39.57-1.26,16.9-7.64,32.93-11.44,49.45-2.68,11.65-3.93,24.24-1.34,35.73-1,3.92-1.63,6-1.63,6l-12.56,80.83c9.42,65.44,58.23,30.4,70.79-6.24,2.83-4.43,26.12-67.28,26.17-67.38l.7-1.48A233.89,233.89,0,0,0,356,1237.5c3.34-9,6.14-18.4,6.16-28,0-1.61-.09-3.23-.22-4.83,3-10.88,3.68-17.4,3.49-24.45-.12-5.3-1.49-12.25-3.33-19.32,3.57-14.52,8.32-29.88,3.36-41.65-.72-1.72-4.17-31.12-1-46.63.39-1.93.81-3.85,1.24-5.77,8.66-25.73,19.28-52.27,25.76-71.64,2.74-5.71,5.27-11.52,6.35-17.74,1.46-8.38,7.64-19.51,10.81-27.41a262.64,262.64,0,0,0,10-29c2.29,11.32,7.11,26.34,16.18,47,3.41,7.8,4.43,8.86,6.15,17.2s16.68,8,14.95,16.2c-12.94,61.57,15.55,53.21,21.4,77.84,3.66,15.4,1.14,44.89.47,46.64-7.15,18.62,9.63,45.24,8.39,64.34-.57,8.61-2.52,17.14-2.23,25.76.32,9.61,3.43,18.9,7.05,27.8a232.37,232.37,0,0,0,13.57,27.84c4.9,21.79,10.9,42.79,10.9,42.79l5.35,51.75s-.54,32.62,23.23,32.8c32.85.24,36.6-52.1,36.6-52.1s13.55-58.62,14.58-65.24C597.49,1267.51,605.71,1249.44,604.05,1223.82Z"/><path class="cls-3" d="M267.38,1141.46s35-4.39,35-106.79c0,0,12,98.66-17.36,118s-23,0-23,0Z"/><path class="cls-3" d="M475.46,1070.34s30.8,69.28,26.21,87.15l-22.61-46S481.92,1085.3,475.46,1070.34Z"/><path class="cls-3" d="M431,958.93s51.77,72.18,131,139c0,0-112.37-125.27-142.07-171.58C425.89,947.21,431,958.93,431,958.93Z"/><path class="cls-3" d="M535.79,835.4s3.41,146-5.89,164.68c0,0,21.59-124.32,14.7-143.65C541.39,847.42,535.79,835.4,535.79,835.4Z"/><path class="cls-4" d="M333.88,749.32A760.81,760.81,0,0,1,513.42,745l5.93,20.18a465.16,465.16,0,0,1-190.82,1.77Q331.22,758.12,333.88,749.32Z"/><path class="cls-5" d="M400.17,981.51c-1.06-.4-10.59-3.87-16.51-3.87a11.94,11.94,0,0,0-2.43.23H381c-2.24,0-8.36-1.3-24.86-7.47l-1-.36c-4.52-1.68-19.69-4.22-32.22-4.22-8.11,0-16-4-20.64-6.32a29.86,29.86,0,0,0-4.43-2c-3.49-1-27.22-2.67-34.41-3.14l-2.92-.19-.33,2.16-3.35,22.42-.35,2.33,3.15.14c8.77.39,23,1.23,26.21,1.91,2.84.6,8.28,2.92,12.26,4.62,2.13.91,4,1.7,5.34,2.2,3.68,1.37,19.1,3.46,41.13,6.19,11.63,1.44,43.38,10.74,43.7,10.83ZM286.72,981l-.56-.11.56.11c.22,0,.45.1.69.16C287.17,981.11,286.94,981.05,286.72,981Zm18.13,7-.61-.23.61.23a7.89,7.89,0,0,0,1,.3A7.89,7.89,0,0,1,304.85,988Zm40.27,6-2.39-.3,2.39.3.89.12Zm38.5-14.09h0Z"/><path class="cls-5" d="M543.89,850.24c-.4.31-9.76,7.64-12.9,12.9-1.17,2-6.76,6.93-26.82,19.59l-1,.65c-4.77,3-18.65,15.43-28.06,26.37-6.94,8.06-16.52,12.91-22.24,15.81a41.65,41.65,0,0,0-4.68,2.58c-3.51,2.51-22.64,20.93-23.46,21.71l-1,1,.56,1.28,10.31,23.63,1.23,2.82,2.08-2.27c.16-.18,16.6-18.11,20.93-21.68,2.94-2.41,8.9-5.86,13.7-8.63,2.36-1.37,4.4-2.55,5.83-3.45,4-2.51,20.08-17.65,36.91-33.63,10.6-10.06,37.27-33.82,37.54-34.06Z"/><path class="cls-6" d="M263.22,956.6s30.21,2,33.57,3,14.1,8.46,26.18,8.46,26.85,2.5,30.88,4,23.5,9,28.2,8,16.78,3.49,16.78,3.49l-9.4,21.42s-32.22-9.46-44.31-11-36.25-4.48-40.27-6-13.43-6-18.13-7-26.85-2-26.85-2Z"/><path class="cls-7" d="M426.09,951.3s19.81-19.08,23.23-21.53,17.65-7.53,27.27-18.72,23.28-23.23,27.62-26,25.51-15.9,28.49-20.9S544.57,852,544.57,852l7.64,21.49s-27.58,23.71-38.33,33.92-32.27,30.64-36.61,33.39-15.23,8.53-19.73,12.23-21.14,21.87-21.14,21.87Z"/><path class="cls-5" d="M382.8,1023.69c-15.84-.92-58.61-3.57-63-4.49-5.44-1.14-56.11-13.78-56.62-13.9l-2.69-.68.08,2.2c.12,3.08.07,11.68-1.52,14.4a66.61,66.61,0,0,0-4.39,10.55l-.49,1.53,2,.36c.58.11,57.8,10.46,65.54,12.25,8,1.84,47.9,5.22,49.6,5.36Z"/><path class="cls-8" d="M334.7,960.62l-18.48-2.37a6,6,0,0,0-6.78,5.24l-3.88,30.17a6,6,0,0,0,5.24,6.78l18.48,2.38h0a6.81,6.81,0,0,0,.78,0,6.08,6.08,0,0,0,6-5.29l3.88-30.17A6.08,6.08,0,0,0,334.7,960.62Zm-4.59,36.19s0,.05-.07.06l-18.53-2.45,1.67-12.79,9.89.21-.19-5L314,975.68l1.49-11.48L334,966.64Z"/><path class="cls-9" d="M335.7,959.62l-18.48-2.37a6,6,0,0,0-6.78,5.24l-3.88,30.17a6,6,0,0,0,5.24,6.78l18.48,2.38h0a6.81,6.81,0,0,0,.78,0,6.08,6.08,0,0,0,6-5.29l3.88-30.17A6.08,6.08,0,0,0,335.7,959.62Zm-4.59,36.19s0,.05-.07.06l-18.53-2.45,1.67-12.79,8.89,1.21.81-6L315,974.68l1.49-11.48L335,965.64Z"/><path class="cls-10" d="M382,1025.18s-57.13-3.31-62.67-4.48-56.71-13.92-56.71-13.92.43,11.44-1.7,15.09a66.75,66.75,0,0,0-4.27,10.28s57.77,10.44,65.66,12.27,49.24,5.3,49.24,5.3Z"/><rect class="cls-11" x="303.06" y="1013.49" width="24.75" height="36.54" rx="3.06" transform="translate(251.27 -45.23) rotate(13.59)"/><line class="cls-11" x1="302.23" y1="1027.82" x2="315.24" y2="1031.07"/><path class="cls-9" d="M418.62,738.72l-18.63.39a6.06,6.06,0,0,0-5.93,6.19l.63,30.41a6.06,6.06,0,0,0,6.19,5.93l18.63-.39h.29a6,6,0,0,0,3.95-1.85,6,6,0,0,0,1.69-4.32l-.63-30.41A6.08,6.08,0,0,0,418.62,738.72Zm.82,36.47s-.05,0-.06.06l-18.69.33-.24-12.9,9-.12-.08-6-9,.12-.22-11.57,18.69-.33Z"/><path class="cls-9" d="M516.79,865.34l-15.16,10.83a6,6,0,0,0-1.41,8.45l17.68,24.76a6.07,6.07,0,0,0,8.45,1.41L541.52,900l.23-.18a6,6,0,0,0,1.17-8.27l-17.67-24.76A6.08,6.08,0,0,0,516.79,865.34ZM538,895s0,.06,0,.08l-15.25,10.82-7.48-10.52,7.34-5.15-3.45-4.91-7.37,5.17-6.7-9.43,15.24-10.81Z"/><path class="cls-8" d="M280.58,991l4.19.37,1.91-28.61c.05-.81.14-1.62.26-2.43l1.34-8.78-4.19-.37-2.6,23.11q-.36,3.21-.49,6.45Z"/><path class="cls-12" d="M277.22,990.83l6.55.58,1.57-28.64a18.3,18.3,0,0,1,.29-2.43l1.65-8.75-6.54-.58-2.92,23.08a58.09,58.09,0,0,0-.45,6.46Z"/><path class="cls-8" d="M359.54,1006.45l4.1.9,5.54-28.13c.16-.8.35-1.6.57-2.38l2.45-8.54-4.11-.9L362.57,990q-.76,3.15-1.31,6.34Z"/><path class="cls-12" d="M356.23,1005.82l6.42,1.41,5.2-28.21a19.12,19.12,0,0,1,.6-2.37l2.75-8.48-6.42-1.41L359,989.29a57.35,57.35,0,0,0-1.27,6.34Z"/><path class="cls-8" d="M460.17,916.46,455.6,916l-2.94,34c-.09,1-.21,1.93-.37,2.89l-1.72,10.43,4.56.49,3.54-27.46q.49-3.83.73-7.67Z"/><path class="cls-12" d="M463.84,916.75,456.7,916l-2.58,34a23.59,23.59,0,0,1-.39,2.89l-2.07,10.4,7.14.76,3.88-27.43a75.6,75.6,0,0,0,.69-7.67Z"/><path class="cls-8" d="M532.23,854.3l-3.68,2,12,20.41c.34.58.65,1.18.93,1.79l3,6.68,3.68-2-8.77-17.06q-1.21-2.39-2.64-4.64Z"/><path class="cls-12" d="M535.14,852.61l-5.75,3.17L541.64,876a12.2,12.2,0,0,1,.9,1.81l2.77,6.83,5.75-3.18-8.49-17.21a39.36,39.36,0,0,0-2.68-4.62Z"/><path class="cls-8" d="M352.81,1056.92l4.18.44,2.4-28.57c.07-.82.18-1.63.31-2.43l1.49-8.76-4.18-.44-3,23.06q-.42,3.21-.6,6.44Z"/><path class="cls-12" d="M349.45,1056.65l6.54.69,2.06-28.61a18.06,18.06,0,0,1,.34-2.42l1.8-8.73-6.53-.69-3.32,23a58.09,58.09,0,0,0-.56,6.44Z"/><path class="cls-8" d="M267.58,1043.42l4.18.44,2.41-28.57c.06-.81.17-1.62.3-2.43l1.49-8.76-4.18-.44-3,23.06q-.42,3.21-.6,6.44Z"/><path class="cls-12" d="M264.22,1043.15l6.54.7,2.06-28.61a18,18,0,0,1,.34-2.43l1.8-8.72-6.53-.69-3.32,23a60.56,60.56,0,0,0-.56,6.45Z"/><path class="cls-9" d="M323.63,1019.89h.1a8.71,8.71,0,0,1,1.28.11l.7-2.79-5.82-1.46-.84,3.35a7.48,7.48,0,0,1,2.68.51A7.63,7.63,0,0,1,323.63,1019.89Z"/><path class="cls-9" d="M312.79,1044.12l-1,4,5.82,1.45,1.05-4.28C318.28,1045.16,313.27,1044.18,312.79,1044.12Z"/><path class="cls-9" d="M330.54,966.13l.22-2.78-6-.52-.26,3C325.51,965.81,330.13,966.13,330.54,966.13Z"/><path class="cls-9" d="M322.2,993.27l-.28,2.79,6,.51.26-2.51C327.75,994,322.68,993.26,322.2,993.27Z"/><path class="cls-9" d="M518.64,873.33l-1.87-2.52-4.84,3.55,1.8,2.45C514.45,876.12,518.33,873.6,518.64,873.33Z"/><path class="cls-9" d="M528.66,896.53l3,4.73,4.84-3.55-3.3-5.39C532.85,892.55,529,896.2,528.66,896.53Z"/></g></g></svg>