<svg xmlns="http://www.w3.org/2000/svg" viewBox="0 0 837.33 1537"><defs><style>.cls-1{fill:none;}.cls-2{fill:#052d66;fill-rule:evenodd;}.cls-3{fill:#575757;}.cls-4{fill:#756e78;}.cls-5{fill:#454545;}</style></defs><g id="Layer_2" data-name="Layer 2"><g id="base"><rect class="cls-1" width="837.33" height="1537"/></g><g id="chest_03"><path class="cls-2" d="M658.77,474.9c-6.12,19-44.68,75.93-80.83,127.36-15.89,22.61-26.32,53.61-45.09,75.4-24.2,28.1-19.43,67.31-19.43,67.31s-20,22.68-79.51,26.3-98.46-17.14-98.46-17.14c-3.19-9.41-12.31-52.84-12.31-52.84l-3.9-31.47-4.1-6.51-7.56-74.47-13.18-5.53c-6.71-28.76-1.81-82.65-1.81-82.65-7.35-31.84-31.21-49-31.21-49,19-22.69,42.23-28.81,73.48-39.83,19.94-7.06,38.85-18.18,49.87-25.28l2.35-1.57c3.38-2.2,11.24-3.43,11.24-3.43s-7.22,9.31-5.36,18.28,14.11,33.85,56.19,23,57.76-57.32,57.76-57.32,8.81,5.15,13,8.72C533,385.69,558.25,403.08,589,418,629.38,437.57,658.77,474.9,658.77,474.9Z"/><path class="cls-3" d="M555.18,613.43c.42-3.2,12.39-32,10.41-34.4-3.77-4.66.48-40.31-3.38-44.9-13.21-15.76-18.46-33.65-16-54.21,3.57-29.39,9.28-49.44,12.45-78.88.2-1.92,0-1.78-2.34-4.17-8.29-8.54-25-21.39-36.43-27.42-1.9-1-2.87.42-3.07,2.5-.43,4.6-5.42,23.1-6.5,27.56-8.44,35-63.32,56.05-93.63,48.32-22.31-5.69-22.06-27.71-25.89-50.51-1.37-8.15,1.72-9.35,2.83-17.39.33-2.43-.58-4.56-2.82-3.51-12.29,5.78-31.13,14.24-39.59,23.68-1.86,2.07-3.42.65-3.6,3.12-.33,4.61-8.58,42.45-10.65,59.31-1.78,14.46-16,41.72-25.74,52.59-18.33,20.52-2.36,78.3-3.65,90.23-.92,8.61,17.4,110.64,16.6,114-1,4.06.86,4.7,4.35,5.07,88.07,9.4,180.81-3.2,183.25-2.76s3.59-.15,3.54-2.72c0-.39-.25-14.36,20.78-59.49C556.59,615.59,554.85,615.9,555.18,613.43Z"/><path class="cls-4" d="M521.4,703.87c-5.39-1-5.49-1.11-8.28-1.43-1.61-.18-2-1.06-1.71-2.6,1.92-9.8,3.83-19.59,5.65-29.4.36-2,1.43-1.94,3-1.64,11.14,2.21,7.54,1.49,18.68,3.67C532.82,681.44,525.65,694,521.4,703.87Z"/><path class="cls-4" d="M315.3,628.23c-2.09.28-4.18.51-6.25.87-.4.07-.59-.69-.82-2.74q-1.56-14.13-3.19-28.27c-.23-2.06-.21-2.83.19-2.85,2.11-.11,4.19-.34,6.29-.54Z"/><path class="cls-4" d="M325.7,704.93c-2.08.28-4.18.51-6.25.88-.4.07-.59-.69-.81-2.74q-1.58-14.15-3.19-28.27c-.24-2.06-.21-2.83.19-2.85,2.1-.11,4.19-.35,6.28-.54Z"/><path class="cls-4" d="M558.75,639.36c-11.11-2.38-8-2-19.12-4.35-1.92-.39-2.4-1.19-2-3.09q3.17-14.07,6.12-28.18c.4-1.9,1.21-2.42,3.1-2,11.08,2.51,17.89,4,29,6.43C570.12,618.16,562.38,629.11,558.75,639.36Z"/><path class="cls-4" d="M358,619.83c5.55,2.1,11.06,4.49,16.58,6.82a3.26,3.26,0,0,0,2.7.05c5.49-2.45,11-5,16.51-7.26,1.33-.56,1.87-1.36,1.83-3.75-.13-7.36-.16-14.74-.1-22.1,0-2.36-.47-3-1.84-2.9-5.94.18-11.88.19-17.82.26s-11.87.23-17.81.17c-1.48,0-2,.67-1.92,3.16.13,7.24.14,14.49.11,21.73C356.23,618.2,356.53,619.27,358,619.83Z"/><path class="cls-4" d="M395.68,628.1c0-4.48,0-4.49-2.75-3.29-4.77,2.09-9.55,4.14-14.31,6.31a5.81,5.81,0,0,1-4.94.13c-5.15-2.18-10.33-4.2-15.47-6.45-1.4-.61-2-.34-1.88,2.25.11,2.36.09,4.74.13,7.11.06,18.72.16,37.44.14,56.15,0,2.88.87,2.86,2.12,2.84,8.6-.15,17.2-.2,25.79-.37,2.43,0,4.87.31,7.29-.36.44.11.89.2,1.34.32,2.3.66,2.92-.82,2.87-4.65C395.79,668.09,395.77,648.09,395.68,628.1Z"/><path class="cls-4" d="M403.1,619.83c5.55,2.1,11.06,4.49,16.58,6.82a3.24,3.24,0,0,0,2.69.05c5.5-2.45,11-5,16.51-7.26,1.34-.56,1.88-1.36,1.84-3.75-.13-7.36-.16-14.74-.11-22.1,0-2.36-.46-3-1.84-2.9-5.93.18-11.87.19-17.81.26s-11.88.23-17.82.17c-1.48,0-2,.67-1.91,3.16.13,7.24.14,14.49.11,21.73C401.33,618.2,401.63,619.27,403.1,619.83Z"/><path class="cls-4" d="M440.77,628.1c0-4.48,0-4.49-2.74-3.29-4.77,2.09-9.55,4.14-14.31,6.31a5.84,5.84,0,0,1-5,.13c-5.15-2.18-10.32-4.2-15.46-6.45-1.4-.61-2-.34-1.89,2.25.12,2.36.1,4.74.13,7.11.07,18.72.16,37.44.15,56.15,0,2.88.87,2.86,2.12,2.84,8.6-.15,17.19-.2,25.79-.37,2.43,0,4.86.31,7.28-.36.45.11.9.2,1.35.32,2.3.66,2.91-.82,2.87-4.65C440.89,668.09,440.87,648.09,440.77,628.1Z"/><path class="cls-4" d="M447.89,619.83c5.55,2.1,11.06,4.49,16.58,6.82a3.24,3.24,0,0,0,2.69.05c5.5-2.45,11-5,16.52-7.26,1.33-.56,1.87-1.36,1.83-3.75-.13-7.36-.16-14.74-.11-22.1,0-2.36-.46-3-1.83-2.9-5.94.18-11.88.19-17.82.26s-11.88.23-17.81.17c-1.48,0-2,.68-1.92,3.16.13,7.24.14,14.49.11,21.73C446.12,618.2,446.42,619.27,447.89,619.83Z"/><path class="cls-4" d="M485.56,628.1c0-4.48,0-4.49-2.74-3.29-4.77,2.09-9.55,4.14-14.31,6.31a5.81,5.81,0,0,1-4.94.13c-5.15-2.18-10.33-4.2-15.47-6.45-1.4-.61-2-.34-1.88,2.25.11,2.36.09,4.74.13,7.11.06,18.72.16,37.44.14,56.15,0,2.88.87,2.86,2.12,2.84,8.6-.15,17.2-.2,25.79-.37,2.43,0,4.87.31,7.28-.36.45.11.9.2,1.35.32,2.3.66,2.91-.82,2.87-4.65C485.68,668.09,485.66,648.09,485.56,628.1Z"/><path class="cls-5" d="M426.06,547.68H363.48c-5.2,0-7.1-1.5-7.07-5.51,0-3.84,2.35-5.78,7.09-5.78q62.76,0,125.54,0a8.51,8.51,0,0,1,3.66.52c3,1.36,3.84,3.77,3.32,6.77-.49,2.82-2.53,3.91-5.13,4-3.87.1-7.74,0-11.61,0Z"/><path class="cls-5" d="M426.06,512.46H363.48c-5.2,0-7.1-1.5-7.07-5.51,0-3.84,2.35-5.78,7.09-5.79q62.76,0,125.54,0a8.51,8.51,0,0,1,3.66.52c3,1.36,3.84,3.77,3.32,6.77-.49,2.82-2.53,3.91-5.13,4-3.87.1-7.74,0-11.61,0Z"/></g></g></svg>