<?xml version="1.0" encoding="utf-8"?>
<!-- Generator: Adobe Illustrator 25.4.1, SVG Export Plug-In . SVG Version: 6.00 Build 0)  -->
<svg version="1.1" id="Layer_1" xmlns="http://www.w3.org/2000/svg" xmlns:xlink="http://www.w3.org/1999/xlink" x="0px" y="0px"
	 viewBox="0 0 838 1536.1" style="enable-background:new 0 0 838 1536.1;" xml:space="preserve">
<style type="text/css">
	.st0{fill:none;}
	.st1{fill-rule:evenodd;clip-rule:evenodd;fill:#3A3A3A;}
	.st2{fill-rule:evenodd;clip-rule:evenodd;fill:#001C54;}
	.st3{fill-rule:evenodd;clip-rule:evenodd;fill:url(#SVGID_1_);}
	.st4{fill-rule:evenodd;clip-rule:evenodd;fill:url(#SVGID_00000042718952363368823870000016214367870257556633_);}
	.st5{fill-rule:evenodd;clip-rule:evenodd;fill:url(#SVGID_00000104697906379626633200000010729172798768422041_);}
	.st6{fill:none;stroke:#FFFFFF;stroke-width:10;stroke-miterlimit:10;}
	.st7{fill-rule:evenodd;clip-rule:evenodd;fill:url(#SVGID_00000067216158642004744880000016930205238646807458_);}
	.st8{opacity:0.58;fill-rule:evenodd;clip-rule:evenodd;fill:#898989;enable-background:new    ;}
	.st9{fill-rule:evenodd;clip-rule:evenodd;fill:url(#SVGID_00000173147863876330259220000000581545669235694998_);}
	.st10{fill-rule:evenodd;clip-rule:evenodd;fill:url(#SVGID_00000100346490988053195960000005894376301042179209_);}
	.st11{fill-rule:evenodd;clip-rule:evenodd;fill:url(#SVGID_00000171710600531099104920000008690123225194739860_);}
	.st12{fill-rule:evenodd;clip-rule:evenodd;fill:url(#SVGID_00000171683305639856338450000009152438857221276336_);}
	.st13{fill-rule:evenodd;clip-rule:evenodd;fill:#606060;}
	.st14{fill-rule:evenodd;clip-rule:evenodd;fill:url(#SVGID_00000075841097730809847840000014491043739125058712_);}
	.st15{fill-rule:evenodd;clip-rule:evenodd;fill:url(#SVGID_00000172398513068974945750000002043205500540439964_);}
</style>
<g id="Layer_2_00000049196853485893312160000011286908532517721250_">
	<g id="base">
		<rect x="0.3" class="st0" width="837.3" height="1536.1"/>
	</g>
	<g id="Legs_04">
		<path class="st1" d="M508.9,1158.4c4.1,7,18.5,31.6,49.3,22.8s29.8-32.5,30.8-34.8c-4.1-16-7.8-30.4-9.4-40.3
			c-4.1-25.3-0.8-123.3-19.8-180.6c0-0.2-0.1-0.4-0.2-0.6c-7.7-23-15.5-51.7-21.5-77.8c-9.7-42-44.9-29.6-66-23.9
			c-21.9,5.9-32.6,27.7-37.1,38c-5.9,13.4-4.5,28-4.5,28s5.9,32,7.9,39.7c8.7,33.3,32.2,123.3,37.2,141.5
			c6.1,22.4,35.1,76.7,34.7,80.8C510.1,1152,509.6,1154.6,508.9,1158.4z"/>
		<path class="st1" d="M351.6,1128.6c0.1-7.1-25.7-11.8-48.7-8c-25.8,4.3-34.3,29.3-34.3,29.3c-13.7,67.8-14.1,92.2-21.1,120
			c-2.2,8.6-3.5,13.5-3.5,13.5l-12.6,80.8c9.4,65.4,58.2,30.4,70.8-6.2c2.8-4.4,26.1-67.3,26.2-67.4c2.9-6,18.2-40.2,20.6-46.8
			c14.2-39.6,16.8-50.8,16.5-63.7C365.1,1163.1,351.6,1128.6,351.6,1128.6z"/>
		<path class="st1" d="M404.8,863.7c-1.6-26.8-1.9-26.8-6.3-38.5c-9.2-24.8-47.6-34.7-65.4-26.9c-22.4,9.9-25.1,34.1-36.5,65.8
			c-7.8,21.8-15.1,51-21,78.8c-7.3,34.8-12.4,67.5-13.3,80.8c-0.3,4.3-2.9,43.8-2.6,49.8c1.5,27.5,8.9,76.3,8.9,76.3
			c1.3,10,8.6,30.2,19.3,36.4s31.2,4.5,37.5,4c14.1-1.3,25.8-17,29.7-28.4s-3.6-33.3-3.6-33.3c0.3-37.3,33.6-110,43.2-144
			c14.1-49.8,6.8-95.5,6.8-95.5S405.3,871.6,404.8,863.7z"/>
		<path class="st1" d="M542.6,1119.2c-17.9,3.1-31.6,25.4-32.4,31.6c0,0.1,0,0.2,0,0.3c-0.4,4.1-11.9,58.3-11.9,80.8
			s17.2,82.4,17.2,82.4l5.3,51.8c0,0-0.5,32.6,23.2,32.8c32.8,0.2,36.6-52.1,36.6-52.1s13.5-58.6,14.6-65.2
			c2.2-14.2,10.5-32.2,8.8-57.8c-1.9-28.5-8.4-50.1-15.3-78.1C583.3,1124,564.7,1115.4,542.6,1119.2z"/>
		<path class="st1" d="M430.7,890.7l0.3-0.1c12.6-4.8,26-6.2,39.2-8.5c0,0,89.7,10.8,64.8-44.5l-12.5-61.9l-3.1-10.4l-5.9-20.2
			c-29.8,12.2-179.5,4.3-179.5,4.3s-4.1,13.9-10.3,33.7c-4,12.2-9.5,28.9-14.3,45.3c-5.3,18-0.7,25.9,10,38.6s37.2,4.6,48.9,14.9
			c9.9,8.7,33.5,7.4,33.5,7.4l28.8,0.1C430.4,889.2,430.5,889.7,430.7,890.7z"/>
		<polygon class="st2" points="346.9,794.3 346.9,962.7 405.3,1044.3 473.6,964.5 473.6,794.3 		"/>
		
			<linearGradient id="SVGID_1_" gradientUnits="userSpaceOnUse" x1="262.89" y1="412.8641" x2="354.98" y2="412.8641" gradientTransform="matrix(1 0 0 -1 0 1538)">
			<stop  offset="1.000000e-02" style="stop-color:#231F20"/>
			<stop  offset="1" style="stop-color:#1A191A"/>
		</linearGradient>
		<path class="st3" d="M262.9,1118.8c0,0,32.9-8,35.6-6.2s49.6,8.7,52.4,3s4.1,22.3,4.1,22.3s-35.2-0.9-39.2-3.1s-32.6-5.8-40-1.3
			s-12.9,4.4-12.9,4.4L262.9,1118.8z"/>
		
			<linearGradient id="SVGID_00000109002730458899091500000008832451397254341041_" gradientUnits="userSpaceOnUse" x1="493.2876" y1="416.171" x2="550.44" y2="416.171" gradientTransform="matrix(1 0 0 -1 0 1538)">
			<stop  offset="1.000000e-02" style="stop-color:#231F20"/>
			<stop  offset="1" style="stop-color:#1A191A"/>
		</linearGradient>
		<path style="fill-rule:evenodd;clip-rule:evenodd;fill:url(#SVGID_00000109002730458899091500000008832451397254341041_);" d="
			M493.7,1112.6c2.7,1.8,49.8-0.7,52.6-6.4s4.1,22.3,4.1,22.3s-41.6,11.6-45.6,9.4S491.1,1110.8,493.7,1112.6z"/>
		
			<linearGradient id="SVGID_00000108274359017050302890000010199123000723671715_" gradientUnits="userSpaceOnUse" x1="244.31" y1="631.665" x2="339.19" y2="631.665" gradientTransform="matrix(1 0 0 -1 0 1538)">
			<stop  offset="0" style="stop-color:#A1A1A1"/>
			<stop  offset="1" style="stop-color:#A1A1A1"/>
		</linearGradient>
		<path style="fill-rule:evenodd;clip-rule:evenodd;fill:url(#SVGID_00000108274359017050302890000010199123000723671715_);" d="
			M310.1,787c0,0-35.5,71.1-42.3,139.6s-7.3,62.5-23.5,99.1c14.4-4.9,53.8-31.6,81.4-27.7c-15.6-82-0.7-129.9,13.5-163
			C330.6,835,310.1,787,310.1,787z"/>
		<polygon class="st6" points="360.5,794.3 360.5,953.4 406.4,1017.5 460.1,954.8 460.1,794.3 		"/>
		
			<linearGradient id="SVGID_00000061463675762323002120000018204601032406797963_" gradientUnits="userSpaceOnUse" x1="320" y1="736.005" x2="524.5" y2="736.005" gradientTransform="matrix(1 0 0 -1 0 1538)">
			<stop  offset="0" style="stop-color:#A1A1A1"/>
			<stop  offset="1" style="stop-color:#A1A1A1"/>
		</linearGradient>
		<path style="fill-rule:evenodd;clip-rule:evenodd;fill:url(#SVGID_00000061463675762323002120000018204601032406797963_);" d="
			M320,785.8c15.6,4.6,30.6,11.3,44.4,20c22.2,14,38.9,35.8,38.9,35.8s30.4-25.8,62-33.1c27.3-6.3,59.2-26.3,59.2-26.3
			s-3.7-5.7-3.7-19.8c0,0-67,11.9-110.5,10.9c-28.4-0.8-56.8-3.1-85-6.8L320,785.8z"/>
		<path class="st8" d="M325.5,762.3c0,0,16.6,10.3,39.3,24.7c22.2,14,38.5,39.6,38.5,39.6s30.4-25.8,62-33.1
			c27.3-6.3,59.2-26.3,59.2-26.3s-9.3-14.7-9.3-28.8c0,0-61,3.5-104.5,2.5s-77.6,0-77.6,0L325.5,762.3z"/>
		
			<linearGradient id="SVGID_00000176023326859305617630000006323889367904306052_" gradientUnits="userSpaceOnUse" x1="479.86" y1="614.1909" x2="591.006" y2="614.1909" gradientTransform="matrix(1 0 0 -1 0 1538)">
			<stop  offset="0" style="stop-color:#A1A1A1"/>
			<stop  offset="1" style="stop-color:#A1A1A1"/>
		</linearGradient>
		<path style="fill-rule:evenodd;clip-rule:evenodd;fill:url(#SVGID_00000176023326859305617630000006323889367904306052_);" d="
			M521.8,799.2c0,0-34.8,32.4-41.9,48.4c23.8,32.8,26.6,130,18.4,147.3c32.9,5.4,47.3,43.4,72.1,53.7c0,0,12.5-11.2,13.1-18.7
			c0.6-8.5,2.5-19.8,7.6-28.2c-2.8-10.8-5.4-79.4-6.5-87.7c-3.4-25-25.4-88.8-25.4-88.8L521.8,799.2z"/>
		
			<linearGradient id="SVGID_00000173133821146801390730000000262728512459626930_" gradientUnits="userSpaceOnUse" x1="320.5" y1="757.505" x2="525.01" y2="757.505" gradientTransform="matrix(1 0 0 -1 0 1538)">
			<stop  offset="0" style="stop-color:#A1A1A1"/>
			<stop  offset="1" style="stop-color:#A1A1A1"/>
		</linearGradient>
		<path style="fill-rule:evenodd;clip-rule:evenodd;fill:url(#SVGID_00000173133821146801390730000000262728512459626930_);" d="
			M320.5,764.3c15.6,4.6,30.6,11.3,44.3,20c22.2,14,38.9,35.8,38.9,35.8s30.4-25.8,62-33.1c27.3-6.3,59.2-26.3,59.2-26.3
			s-3.7-5.7-3.7-19.8c0,0-67,7.5-110.5,6.5s-85-2.4-85-2.4L320.5,764.3z"/>
		<path class="st8" d="M301.9,807.7c0,0-24.9,54-29.8,113.2s-5.2,48.4-16.8,80c10.3-4.2,38.6-21.7,58.4-18.3
			c-11.2-70.9-0.5-116.5,9.7-145.1C317.2,837.5,301.9,807.7,301.9,807.7z"/>
		
			<linearGradient id="SVGID_00000028284784423163394600000000217326310490964412_" gradientUnits="userSpaceOnUse" x1="238.37" y1="637.58" x2="320.35" y2="637.58" gradientTransform="matrix(1 0 0 -1 0 1538)">
			<stop  offset="0" style="stop-color:#A1A1A1"/>
			<stop  offset="1" style="stop-color:#A1A1A1"/>
		</linearGradient>
		<path style="fill-rule:evenodd;clip-rule:evenodd;fill:url(#SVGID_00000028284784423163394600000000217326310490964412_);" d="
			M295.2,797.3c0,0-30.7,61.4-36.5,120.6s-6.3,54-20.3,85.6c12.4-4.2,46.5-27.3,70.3-23.9c-13.5-70.9-0.6-112.2,11.7-140.8
			C312.9,838.8,295.2,797.3,295.2,797.3z"/>
		<path class="st8" d="M533.2,813.2c0,0-30.2,26.5-36.1,41c19.3,29.7,21.7,120.8,15,136.4c26.7,4.9,39.9,40.1,58.6,45.3
			c0,0,1.6-24.2,5.3-38.2c-2.3-9.8-2.5-68.5-3.4-76c-2.8-22.6-23.2-83.9-23.2-83.9L533.2,813.2z"/>
		
			<linearGradient id="SVGID_00000176750603932129784190000014758409262755317907_" gradientUnits="userSpaceOnUse" x1="501.41" y1="614.8299" x2="591.53" y2="614.8299" gradientTransform="matrix(1 0 0 -1 0 1538)">
			<stop  offset="0" style="stop-color:#A1A1A1"/>
			<stop  offset="1" style="stop-color:#A1A1A1"/>
		</linearGradient>
		<path style="fill-rule:evenodd;clip-rule:evenodd;fill:url(#SVGID_00000176750603932129784190000014758409262755317907_);" d="
			M539.4,810.4c0,0-31.5,29.3-38,43.8c21.6,29.7,24.2,117.9,16.7,133.6c29.8,4.8,30.2,38.8,52.6,48c0,0,12.2-24,20.8-38.2
			c-2.5-9.8-2.8-68.5-3.8-76c-3.1-22.6-29.9-94.2-29.9-94.2L539.4,810.4z"/>
	</g>
	<path class="st13" d="M578.3,1048.6l-2,0.6c0,0,0.9,24.1-13,29.9l16.8-2.2L578.3,1048.6z"/>
	<path class="st13" d="M288.4,1027.5l3.9-2.2c0,0-2.7,69.5-3.2,72.3l7.3,57l-4.6,4c0,0-19.9-80.1-18.9-81.4
		C274,1075.8,288.4,1027.5,288.4,1027.5z"/>
	<polygon class="st13" points="529.3,1158.5 525.1,1155.8 524.5,1101.4 509.7,1036.7 514.9,1038.4 540.6,1100.6 	"/>
	
		<linearGradient id="SVGID_00000063608512996126124510000010778683891788041915_" gradientUnits="userSpaceOnUse" x1="514.8574" y1="439.5576" x2="588.3207" y2="439.5576" gradientTransform="matrix(1 0 0 -1 0 1538)">
		<stop  offset="0" style="stop-color:#A1A1A1"/>
		<stop  offset="1" style="stop-color:#A1A1A1"/>
	</linearGradient>
	<path style="fill-rule:evenodd;clip-rule:evenodd;fill:url(#SVGID_00000063608512996126124510000010778683891788041915_);" d="
		M563.2,1079.1c-1,6.5-48.4-40.6-48.4-40.6l14.7,63.1c0,0,1.8,54.2-0.2,57c3.6,0.7,22-29.3,30.3-24.8c19.3,10.4,26.4,0.6,26.8-5.4
		c3.3-21.5,3.3-61.4-8.1-79.6C578,1068.4,567.6,1080.3,563.2,1079.1z"/>
	
		<linearGradient id="SVGID_00000166634218208826021440000006522236687239100551_" gradientUnits="userSpaceOnUse" x1="247.5152" y1="446.2896" x2="297.5224" y2="446.2896" gradientTransform="matrix(0.9964 8.472845e-02 8.472845e-02 -0.9964 -36.8845 1513.1227)">
		<stop  offset="0" style="stop-color:#A1A1A1"/>
		<stop  offset="1" style="stop-color:#A1A1A1"/>
	</linearGradient>
	<path style="fill-rule:evenodd;clip-rule:evenodd;fill:url(#SVGID_00000166634218208826021440000006522236687239100551_);" d="
		M246.5,1111.5c0.9,28.6,13.3,26.5,13.3,26.5l16-5.3l16.1,25.9l-7.4-59.7c0,0,4.6-54.5,4-71.4c-14.9,21.4-20.5,31.7-28.2,38.3
		c0,0-8.4,5.2-10.4,14.9C247.1,1092.8,246.2,1099.1,246.5,1111.5z"/>
</g>
</svg>
