<svg xmlns="http://www.w3.org/2000/svg" xmlns:xlink="http://www.w3.org/1999/xlink" viewBox="0 0 837.33 1537"><defs><style>.cls-1{fill:none;}.cls-2,.cls-3,.cls-4{fill-rule:evenodd;}.cls-2{fill:url(#linear-gradient);}.cls-3{fill:#415056;}.cls-4{fill:#1d292d;}</style><linearGradient id="linear-gradient" x1="323.14" y1="581.14" x2="576.6" y2="581.14" gradientUnits="userSpaceOnUse"><stop offset="0.01" stop-color="#705029"/><stop offset="1" stop-color="#54320c"/></linearGradient></defs><g id="Layer_2" data-name="Layer 2"><g id="base"><rect class="cls-1" width="837.33" height="1537"/></g><g id="chest_03"><path class="cls-2" d="M323.14,701.29a512.88,512.88,0,0,1,34.94-42.39c11.5-12.53,26.53-25,38.51-37.47,19.9-20.64,35-39.72,37.59-43,4.24-5.43,41.12-58.33,72.21-98.11A224.75,224.75,0,0,1,550.63,438a119.09,119.09,0,0,1,13.85,10.41,68.47,68.47,0,0,1,12.12,13.86S547,474.18,528.44,498c-30.8,39.46-77,85.69-80.72,90.87a293.39,293.39,0,0,1-37,45.76c-10.71,10.82-28.1,22.26-38.7,33.74a411.84,411.84,0,0,0-43.51,56s-4.71-1-3.73-5.83S323.14,701.29,323.14,701.29Z"/><path class="cls-3" d="M543,386.88c-1,9.4-5.28,18.9-11.93,25.17S515.5,421.53,507,424.32c13.28,6.27,19.65,9.47,39.28,21.39,2.7,1.65,24.05,18.85,29.61,26.69,4.44,6.25,10.57,14.74,13.19,22.05A171.37,171.37,0,0,1,636.64,455c4-2.25,10.48-1.54,9.45-2.23a224.27,224.27,0,0,0-45.66-39.54A213.78,213.78,0,0,0,543,386.88Z"/><path class="cls-3" d="M560.21,394.3S574.6,378.38,579.14,382s-2.53,22.92-2.53,22.92Z"/><path class="cls-3" d="M590,410.17s14.4-15.92,18.93-12.28-2.53,22.92-2.53,22.92Z"/><path class="cls-3" d="M616.47,433s14.4-15.92,18.93-12.28-2.52,22.92-2.52,22.92Z"/><path class="cls-4" d="M542,415.24a9.91,9.91,0,0,0-2.52,6.47,7.66,7.66,0,0,1,1.52-2.53,7,7,0,0,1,10.25-.19,8,8,0,0,1,.2,10.9,7.34,7.34,0,0,1-2.32,1.72,8.79,8.79,0,0,0,6-2.93,10.12,10.12,0,0,0-.25-13.68A8.72,8.72,0,0,0,542,415.24Z"/><path class="cls-4" d="M570.07,433.73a10,10,0,0,0-2.52,6.48,7.71,7.71,0,0,1,1.52-2.54,7,7,0,0,1,10.25-.18,8.07,8.07,0,0,1,.2,10.9,7.27,7.27,0,0,1-2.32,1.71,8.84,8.84,0,0,0,6-2.92,10.12,10.12,0,0,0-.25-13.68A8.72,8.72,0,0,0,570.07,433.73Z"/><path class="cls-4" d="M591.58,456.57a9.92,9.92,0,0,0-2.53,6.48,7.74,7.74,0,0,1,1.53-2.54,6.94,6.94,0,0,1,10.24-.18,8,8,0,0,1,.2,10.89,7,7,0,0,1-2.32,1.72,8.8,8.8,0,0,0,6-2.92,10.11,10.11,0,0,0-.25-13.68A8.71,8.71,0,0,0,591.58,456.57Z"/></g></g></svg>