<?xml version="1.0" encoding="utf-8"?>
<!-- Generator: Adobe Illustrator 25.4.1, SVG Export Plug-In . SVG Version: 6.00 Build 0)  -->
<svg version="1.1" id="Layer_1" xmlns="http://www.w3.org/2000/svg" xmlns:xlink="http://www.w3.org/1999/xlink" x="0px" y="0px"
	 viewBox="0 0 837.3 1537" style="enable-background:new 0 0 837.3 1537;" xml:space="preserve">
<style type="text/css">
	.st0{fill:none;}
	.st1{fill-rule:evenodd;clip-rule:evenodd;fill:#3F3F3F;}
	.st2{opacity:0.41;fill-rule:evenodd;clip-rule:evenodd;fill:#050505;enable-background:new    ;}
	.st3{fill-rule:evenodd;clip-rule:evenodd;fill:url(#SVGID_1_);}
	.st4{fill-rule:evenodd;clip-rule:evenodd;fill:#575757;}
	.st5{fill:#575757;}
	.st6{fill:url(#SVGID_00000182503589775597462670000007381302771017733516_);}
	.st7{fill:url(#SVGID_00000055669411387765401850000014675750643322307501_);}
	.st8{fill:#74CBE2;}
	.st9{fill:#246B7C;}
	.st10{fill:url(#SVGID_00000144305798106681442350000013758408534224840326_);}
	.st11{opacity:0.56;fill:#03252D;enable-background:new    ;}
	.st12{fill:url(#SVGID_00000133491365335258417510000012148722099920399772_);}
	.st13{fill:url(#SVGID_00000098909064092614940190000017084744835897567374_);}
	.st14{fill:url(#SVGID_00000112613973464410673080000003856219101126163347_);}
	.st15{fill:url(#SVGID_00000088119170962106414450000016734202079076081586_);}
	.st16{fill:url(#SVGID_00000075134025603450372520000010867467425868381608_);}
	.st17{fill:url(#SVGID_00000028315723438580846240000004800124199454087562_);}
	.st18{fill:url(#SVGID_00000081622346473625307220000013121755841431772842_);}
	.st19{fill:url(#SVGID_00000049211953985953856860000008763718140634458496_);}
	.st20{fill:url(#SVGID_00000018199995733222889610000013890164290287461018_);}
	.st21{fill:url(#SVGID_00000057142535759117754680000002683617700050164365_);}
	.st22{fill:url(#SVGID_00000122691996855147664020000013507786897166697115_);}
</style>
<g id="Layer_2_00000088833414558390655090000008249151169730534819_">
	<g id="base">
		<rect class="st0" width="837.3" height="1537"/>
	</g>
	<g id="Legs_05">
		<path class="st1" d="M604,1223.8c-0.1-1-0.2-2.1-0.2-3.1c0.3-11.1-1.5-19.9-2.6-30.3c-0.8-7.8-3.5-14.8-6.7-21.7
			c-1.8-7.1-3.7-14.5-5.6-22.3l0,0l-0.2-0.6v-0.1l0,0c-0.5-2.1-1.1-4.2-1.6-6.3c0.2-2.5-0.1-5-0.7-7.5c-0.8-2.3-1.7-4.5-2.8-6.7
			c-1.8-7.4-3.2-13.9-4.1-19.2c-0.9-5.5-1.4-14.6-1.9-25.9c3.6-21.2,7-45.5,5.1-65.1c-1.1-11.1-7.3-25.9-12.3-39.7
			c-2.4-18.1-5.8-35.4-10.7-50c0-0.2-0.1-0.4-0.2-0.6c-0.3-0.9-0.6-1.9-0.9-2.8c-1.3-6.8-2.4-13.7-3.3-21.5c-2.9-26-12-49.9-21.8-70
			l-11.1-55.1l-3.1-10.4l-6-20.2c-29.8,12.2-179.5,4.3-179.5,4.3s-3.2,10.8-8.2,26.8c-10.6,22.8-23.6,43.1-47.2,90.8
			c-8.1,16.5-14.2,65.6-16.3,85c-1.9,17.4,1.4,35,0.2,52.4c-1.6,24.1-11.6,48.1-6.7,71.8c1.4,6,3.3,11.9,5.6,17.6
			c1.8,17.6,4.4,37,6,47.8c-1.7,3.8-3.8,7.3-5.3,11.2c-4.8,12.4-2.7,26.3-3.6,39.6c-1.3,16.9-7.6,32.9-11.4,49.4
			c-2.7,11.7-3.9,24.2-1.3,35.7c-1,3.9-1.6,6-1.6,6l-12.6,80.8c9.4,65.4,58.2,30.4,70.8-6.2c2.8-4.4,26.1-67.3,26.2-67.4l0.7-1.5
			c11.1-16,20.1-33.4,26.9-51.6c3.3-9,6.1-18.4,6.2-28c0-1.6-0.1-3.2-0.2-4.8c3-10.9,3.7-17.4,3.5-24.4c-0.1-5.3-1.5-12.2-3.3-19.3
			c3.6-14.5,8.3-29.9,3.4-41.7c-0.7-1.7-4.2-31.1-1-46.6c0.4-1.9,0.8-3.8,1.2-5.8c8.7-25.7,19.3-52.3,25.8-71.6
			c2.7-5.7,5.3-11.5,6.4-17.7c1.5-8.4,7.6-19.5,10.8-27.4c3.9-9.5,7.2-19.1,10-29c2.3,11.3,7.1,26.3,16.2,47
			c3.4,7.8,4.4,8.9,6.1,17.2s16.7,8,15,16.2c-12.9,61.6,15.5,53.2,21.4,77.8c3.7,15.4,1.1,44.9,0.5,46.6
			c-7.1,18.6,9.6,45.2,8.4,64.3c-0.6,8.6-2.5,17.1-2.2,25.8c0.3,9.6,3.4,18.9,7,27.8c3.9,9.6,8.4,18.9,13.6,27.8
			c4.9,21.8,10.9,42.8,10.9,42.8l5.3,51.8c0,0-0.5,32.6,23.2,32.8c32.8,0.2,36.6-52.1,36.6-52.1s13.5-58.6,14.6-65.2
			C597.5,1267.5,605.7,1249.4,604,1223.8z"/>
		<path class="st2" d="M267.4,1141.5c0,0,35-4.4,35-106.8c0,0,12,98.7-17.4,118s-23,0-23,0L267.4,1141.5z"/>
		<path class="st2" d="M475.5,1070.3c0,0,30.8,69.3,26.2,87.2l-22.6-46C479.1,1111.5,481.9,1085.3,475.5,1070.3z"/>
		<path class="st2" d="M431,958.9c0,0,51.8,72.2,131,139c0,0-112.4-125.3-142.1-171.6C425.9,947.2,431,958.9,431,958.9z"/>
		<path class="st2" d="M535.8,835.4c0,0,3.4,146-5.9,164.7c0,0,21.6-124.3,14.7-143.6C541.4,847.4,535.8,835.4,535.8,835.4z"/>
		
			<linearGradient id="SVGID_1_" gradientUnits="userSpaceOnUse" x1="423.94" y1="762.0245" x2="423.94" y2="796.3763" gradientTransform="matrix(1 0 0 -1 0 1538)">
			<stop  offset="0" style="stop-color:#2A2CB4"/>
			<stop  offset="1" style="stop-color:#0C2C64"/>
		</linearGradient>
		<path class="st3" d="M333.9,749.3c59.5-8.5,119.7-10,179.5-4.3l5.9,20.2c-62.8,13.8-127.8,14.4-190.8,1.8
			C330.3,761.1,332.1,755.2,333.9,749.3z"/>
		<polygon class="st4" points="368.7,773.1 373.2,744.7 413.2,742.2 443,741.6 443,776.1 408.9,775.8 		"/>
		<path class="st5" d="M377.5,771.2c-0.2,1.7-0.4,3.4-0.6,5.1l0.5-3.3c-1.7,12.3-4.8,24.4-5.9,36.8c-0.5,5.4-0.4,10.8,0.3,16.1
			c0.5,3.9,1.2,7.8,2.1,11.7c0.7,2.9,1.6,5.7,2.5,8.6c1.6,5.3,2.7,10.6,3.5,16.1l-0.4-3.3c0.3,2.6,0.6,5.2,0.8,7.8
			c0.2,2,0.3,3.9,0.2,5.9c-0.1,2-0.4,3.9-0.7,5.9l0.5-3.3c-1,7-2,14-2.7,21c-0.8,6.1-1.1,12.2-0.9,18.3c0.1,4.3,1.1,8.6,3,12.5
			c1.7,2.8,4.3,4.9,7.5,5.7c3.3,0.9,6.7,0.4,9.6-1.3c2.8-1.7,4.9-4.3,5.7-7.5c0.8-3.3,0.3-6.7-1.3-9.6l-0.2-0.5l1.3,3
			c-0.4-1.1-0.7-2.2-0.8-3.4l0.4,3.3c-0.5-4.9-0.4-9.8,0.1-14.6c0.5-5.6,1.2-11.2,1.9-16.8l-0.5,3.3c0.5-4,1.1-8,1.6-12
			c0.3-2,0.4-4,0.4-6c-0.3-10.5-2-20.8-4.9-30.9c-1.8-5.6-3.2-11.4-4.1-17.2l0.4,3.3c-0.8-6.7-0.8-13.5,0.2-20.1l-0.5,3.3
			c0.7-5.3,1.8-10.6,2.8-15.8c1.4-7.3,2.5-14.7,3.3-22c0.3-3-1.6-6.8-3.7-8.8c-4.9-4.9-12.8-4.9-17.7,0l-2,2.5
			c-1.1,1.9-1.7,4.1-1.7,6.3V771.2z"/>
		<path class="st5" d="M412.5,764.5c0.8,11.3,9.9,52.8,11.1,64c1.1,10.1,2,20.2,2.4,30.3c0.4,8.7,0.7,17.4,1.2,26.2
			c0.6,11.5,1.4,23,2.8,34.4c0.6,4.8,1.2,9.5,2.2,14.2c0.6,2.8,1.1,5.7,2,8.5c0.7,2.3,1.7,4.5,3,6.6c0.2,0.4,0.5,0.8,0.8,1.2
			c1.9,2.6,4.7,4.4,7.9,5.1c3.3,0.6,6.7-0.1,9.5-2c2.7-1.9,4.5-4.7,5.1-7.9c0.5-3.2,0.1-6.9-2-9.5c-0.3-0.4-0.6-0.9-0.9-1.4l1.5,2.9
			c-1.2-2.6-2-5.3-2.5-8.1l0.7,3.3c-1.7-8.9-2.9-17.8-3.5-26.8c-0.9-10-1.5-20-2-30.1c-0.3-6.7-0.6-13.5-0.9-20.2
			c-0.4-9.6-1.3-19.2-2.3-28.7c-1-9.1-10-48.4-10.7-57.5c-0.1-2.1-0.3-4.3-0.4-6.4c-0.5-6.9-6.6-12-13.4-11.5c0,0,0,0,0,0
			c-6.8,0.9-5.9,16.7-5.4,23.7L412.5,764.5z"/>
		
			<linearGradient id="SVGID_00000131364085276476359290000004492013417631049096_" gradientUnits="userSpaceOnUse" x1="389.28" y1="601.79" x2="389.28" y2="628.71" gradientTransform="matrix(1 0 0 -1 0 1538)">
			<stop  offset="0" style="stop-color:#2A2CB4"/>
			<stop  offset="1" style="stop-color:#0C2C64"/>
		</linearGradient>
		<polygon style="fill:url(#SVGID_00000131364085276476359290000004492013417631049096_);" points="397,909.3 381.5,909.3 
			373.7,922.8 381.5,936.2 397,936.2 404.8,922.8 		"/>
		
			<linearGradient id="SVGID_00000037670423355380609980000018154506767394032534_" gradientUnits="userSpaceOnUse" x1="448.345" y1="578.55" x2="448.345" y2="607.86" gradientTransform="matrix(1 0 0 -1 0 1538)">
			<stop  offset="0" style="stop-color:#2A2CB4"/>
			<stop  offset="1" style="stop-color:#0C2C64"/>
		</linearGradient>
		<polygon style="fill:url(#SVGID_00000037670423355380609980000018154506767394032534_);" points="453.5,930.1 438.2,933 
			433.1,947.7 443.2,959.5 458.5,956.6 463.6,941.9 		"/>
		<polygon class="st8" points="400.1,754 400.1,763.5 408.5,768.2 416.9,763.5 416.9,754 408.5,749.2 		"/>
		<path class="st8" d="M384.7,912c3.3-0.3,6.6-0.4,9.9-0.5l0.4,0.2c1,1.6,2,3.2,2.9,4.8c0.9,1.6,1.8,3.3,2.5,5
			c-1.2-1.5-2.3-3-3.3-4.5s-2-3.2-2.9-4.8l0.4,0.2C391.3,912.4,388,912.3,384.7,912z"/>
		<path class="st8" d="M454.8,954.3c-3.2,0.9-6.4,1.6-9.7,2.3l-0.4-0.2c-1.3-1.3-2.5-2.7-3.7-4.2s-2.4-2.9-3.4-4.5
			c1.4,1.2,2.8,2.5,4.1,3.9s2.5,2.7,3.8,4.1l-0.4-0.2C448.2,955.2,451.5,954.7,454.8,954.3z"/>
		<polygon class="st9" points="409.6,749.9 408.5,749.2 400.1,754 400.1,763.5 401.9,764.5 401.9,754.5 		"/>
		<polygon class="st5" points="404.3,756.4 404.3,761.1 408.5,763.5 412.7,761.1 412.7,756.4 408.5,754 		"/>
		
			<linearGradient id="SVGID_00000008856283252893079500000011419935131277670292_" gradientUnits="userSpaceOnUse" x1="546.9145" y1="542.8533" x2="546.9145" y2="619.0324" gradientTransform="matrix(0.9991 -4.152690e-02 -4.152690e-02 -0.9991 33.2847 1542.7358)">
			<stop  offset="0" style="stop-color:#2A2CB4"/>
			<stop  offset="1" style="stop-color:#0C2C64"/>
		</linearGradient>
		<path style="fill:url(#SVGID_00000008856283252893079500000011419935131277670292_);" d="M528.3,915l12,33c0,0,23.5,0,43.1,28.5
			L562,901.2C562,901.2,548.4,901.1,528.3,915z"/>
		<path class="st11" d="M510.3,889.3l12,44.5c0,0,25.8-16.8,45.2-13.2l-2.4-8.4C565.1,912.3,530.4,875.4,510.3,889.3z"/>
		
			<linearGradient id="SVGID_00000070824929390983108570000002890453810455665308_" gradientUnits="userSpaceOnUse" x1="532.6219" y1="595.0157" x2="532.6219" y2="644.4929" gradientTransform="matrix(0.9991 -4.152690e-02 -4.152690e-02 -0.9991 33.2847 1542.7358)">
			<stop  offset="0" style="stop-color:#2A2CB4"/>
			<stop  offset="1" style="stop-color:#0C2C64"/>
		</linearGradient>
		<path style="fill:url(#SVGID_00000070824929390983108570000002890453810455665308_);" d="M510.3,889.3l12.7,37.5
			c0,0,26.6-17.8,46-14.1l-9.7-36.8C559.4,875.9,530.4,875.4,510.3,889.3z"/>
		<path class="st11" d="M484.2,861.4l20.8,57c0,0,33.1-25.4,58.9-22.9l-2.1-10.8C561.7,884.7,508.9,840.9,484.2,861.4z"/>
		
			<linearGradient id="SVGID_00000039134368112498173000000003257462716865465779_" gradientUnits="userSpaceOnUse" x1="517.631" y1="586.9575" x2="517.631" y2="652.0188" gradientTransform="matrix(0.99 -0.13 -0.13 -0.99 91.8 1551.98)">
			<stop  offset="0" style="stop-color:#2A2CB4"/>
			<stop  offset="1" style="stop-color:#0C2C64"/>
		</linearGradient>
		<path style="fill:url(#SVGID_00000039134368112498173000000003257462716865465779_);" d="M484.2,861.4l21,47.7
			c0,0,32.8-26.3,58.6-23.8l-16.9-47.1C546.9,838.2,508.9,840.9,484.2,861.4z"/>
		<path class="st11" d="M477.9,824.3l19.4,53.2c0,0,33.2-24.6,57.3-22.3l-2.3-8.6C552.3,846.7,501,805.2,477.9,824.3z"/>
		
			<linearGradient id="SVGID_00000099624942128666043610000000836421962875272840_" gradientUnits="userSpaceOnUse" x1="513.7612" y1="627.8075" x2="513.7612" y2="688.6135" gradientTransform="matrix(0.99 -0.13 -0.13 -0.99 91.8 1551.98)">
			<stop  offset="0" style="stop-color:#2A2CB4"/>
			<stop  offset="1" style="stop-color:#0C2C64"/>
		</linearGradient>
		<path style="fill:url(#SVGID_00000099624942128666043610000000836421962875272840_);" d="M477.9,824.3l19.6,44.6
			c0,0,30.7-24.6,54.9-22.2l-15.8-44.1C536.5,802.6,501,805.2,477.9,824.3z"/>
		<path class="st11" d="M476.4,793.7l17.7,42.1c0,0,25.2-23,45.3-23l-2.6-6.9C536.8,805.9,493.8,776,476.4,793.7z"/>
		
			<linearGradient id="SVGID_00000078032432420861051040000010394524813306466749_" gradientUnits="userSpaceOnUse" x1="503.0266" y1="636.748" x2="503.0266" y2="686.9648" gradientTransform="matrix(0.974 -0.2265 -0.2265 -0.974 167.9203 1558.7307)">
			<stop  offset="0" style="stop-color:#2A2CB4"/>
			<stop  offset="1" style="stop-color:#0C2C64"/>
		</linearGradient>
		<path style="fill:url(#SVGID_00000078032432420861051040000010394524813306466749_);" d="M476.4,793.7l19.8,35
			c0,0,23.2-22.7,43.2-22.8L522.8,771C522.8,771,493.8,776,476.4,793.7z"/>
		<path class="st11" d="M480.8,766.8l10.8,34.3c0,0,23-13.4,39.1-11.4l-3.7-8.2C527.1,781.5,496.8,754.9,480.8,766.8z"/>
		
			<linearGradient id="SVGID_00000075861181665242312390000010785060786634520488_" gradientUnits="userSpaceOnUse" x1="506.5055" y1="714.036" x2="506.5055" y2="752.8607" gradientTransform="matrix(1 -9.000000e-02 -9.000000e-02 -1 65.53 1559.62)">
			<stop  offset="0" style="stop-color:#2A2CB4"/>
			<stop  offset="1" style="stop-color:#0C2C64"/>
		</linearGradient>
		<path style="fill:url(#SVGID_00000075861181665242312390000010785060786634520488_);" d="M480.8,766.8l12,28.8
			c0,0,21.2-15.1,37.3-13.2l-9.5-28.4C520.7,754,496.8,754.9,480.8,766.8z"/>
		
			<linearGradient id="SVGID_00000096019001960708331540000003981376774145405590_" gradientUnits="userSpaceOnUse" x1="-214.0655" y1="567.1298" x2="-214.0655" y2="642.55" gradientTransform="matrix(-1 -2.000000e-02 2.000000e-02 -1 48.06 1537.45)">
			<stop  offset="0" style="stop-color:#2A2CB4"/>
			<stop  offset="1" style="stop-color:#0C2C64"/>
		</linearGradient>
		<path style="fill:url(#SVGID_00000096019001960708331540000003981376774145405590_);" d="M297,911.1l-9.3,32.9
			c0,0-20.4,0-36.4,28.4l16-75.1C267.2,897.3,279,897.2,297,911.1z"/>
		<path class="st11" d="M311.7,887.7l-8.8,44.4c0,0-23-16.8-39.8-13.2l1.8-8.4C264.9,910.5,293.7,873.8,311.7,887.7z"/>
		
			<linearGradient id="SVGID_00000132807838114635264100000004595107237917045129_" gradientUnits="userSpaceOnUse" x1="-231.4895" y1="631.8047" x2="-231.4895" y2="681.8947" gradientTransform="matrix(-1 -7.000000e-02 7.000000e-02 -1 10.33 1541.22)">
			<stop  offset="0" style="stop-color:#2A2CB4"/>
			<stop  offset="1" style="stop-color:#0C2C64"/>
		</linearGradient>
		<path style="fill:url(#SVGID_00000132807838114635264100000004595107237917045129_);" d="M313.5,889l-11.3,37
			c0,0-23-18.8-39.9-15.9l8.7-36.4C271,873.8,296.1,874.4,313.5,889z"/>
		<path class="st11" d="M340.2,861.5l-22.9,54.4c0,0-26.3-28.8-48.8-29.1l2.8-10.5C271.3,876.2,320.7,838.4,340.2,861.5z"/>
		
			<linearGradient id="SVGID_00000163754689476845593120000014381240970949611138_" gradientUnits="userSpaceOnUse" x1="-220.7822" y1="721.6585" x2="-220.7822" y2="787.7285" gradientTransform="matrix(-0.97 -0.23 0.23 -0.97 -82.49 1548.5601)">
			<stop  offset="0" style="stop-color:#2A2CB4"/>
			<stop  offset="1" style="stop-color:#0C2C64"/>
		</linearGradient>
		<path style="fill:url(#SVGID_00000163754689476845593120000014381240970949611138_);" d="M340.2,861.5L318,906.6
			c0,0-26-29.7-48.5-30l18.7-45C288.2,831.6,320.7,838.4,340.2,861.5z"/>
		<path class="st11" d="M353.9,833.5l-29.4,45.8c0,0-19.4-33.4-39.8-38.4l4.6-7.5C289.3,833.4,341,808.3,353.9,833.5z"/>
		
			<linearGradient id="SVGID_00000083082916501344689970000003325037309796370107_" gradientUnits="userSpaceOnUse" x1="-197.7228" y1="835.788" x2="-197.7228" y2="897.5128" gradientTransform="matrix(-0.89 -0.45 0.45 -0.89 -244.17 1511.77)">
			<stop  offset="0" style="stop-color:#2A2CB4"/>
			<stop  offset="1" style="stop-color:#0C2C64"/>
		</linearGradient>
		<path style="fill:url(#SVGID_00000083082916501344689970000003325037309796370107_);" d="M353.9,833.5l-29.9,36.3
			c0,0-17.4-32.6-37.8-37.6l26.6-37C312.9,795.2,341,808.3,353.9,833.5z"/>
		<path class="st11" d="M356.8,795.2l-15.2,41.5c0,0-22-23.7-39.4-24.3l2.2-6.8C304.4,805.6,341.6,777.1,356.8,795.2z"/>
		
			<linearGradient id="SVGID_00000008846854465267431820000006127006228749170876_" gradientUnits="userSpaceOnUse" x1="-223.4876" y1="813.2867" x2="-223.4876" y2="864.3281" gradientTransform="matrix(-0.97 -0.24 0.24 -0.97 -88.51 1559.9601)">
			<stop  offset="0" style="stop-color:#2A2CB4"/>
			<stop  offset="1" style="stop-color:#0C2C64"/>
		</linearGradient>
		<path style="fill:url(#SVGID_00000008846854465267431820000006127006228749170876_);" d="M356.8,795.2l-17.1,34.3
			c0,0-20.2-23.3-37.6-24l14.3-34.3C316.5,771.2,341.6,777.1,356.8,795.2z"/>
		<path class="st11" d="M357,778l-19.1,29.5c0,0-13.3-18.2-27.1-21l2.7-7.9C313.5,778.6,347.4,762.1,357,778z"/>
		
			<linearGradient id="SVGID_00000146476923747779660720000004941589396853815978_" gradientUnits="userSpaceOnUse" x1="-201.0771" y1="885.538" x2="-201.0771" y2="925.0079" gradientTransform="matrix(-0.91 -0.4 0.4 -0.91 -209.2101 1518.4501)">
			<stop  offset="0" style="stop-color:#2A2CB4"/>
			<stop  offset="1" style="stop-color:#0C2C64"/>
		</linearGradient>
		<path style="fill:url(#SVGID_00000146476923747779660720000004941589396853815978_);" d="M357,778l-18.4,24
			c0,0-12.9-20.6-26.6-23.4l16.2-24.3C328.2,754.3,347.4,762.1,357,778z"/>
	</g>
</g>
</svg>
