<svg xmlns="http://www.w3.org/2000/svg" xmlns:xlink="http://www.w3.org/1999/xlink" viewBox="0 0 837.33 1537"><defs><style>.cls-1{fill:none;}.cls-2{fill:url(#linear-gradient);}.cls-3{fill:#ba5808;}.cls-4{fill:url(#linear-gradient-2);}.cls-5{fill:#231f20;}</style><linearGradient id="linear-gradient" x1="449.59" y1="212.36" x2="768.19" y2="212.36" gradientTransform="translate(25.22 -147.54) rotate(13.11)" gradientUnits="userSpaceOnUse"><stop offset="0.02" stop-color="#494848"/><stop offset="0.73" stop-color="#0f0e0f"/><stop offset="0.8" stop-color="#141314"/><stop offset="0.88" stop-color="#232223"/><stop offset="0.96" stop-color="#3c3b3c"/><stop offset="1" stop-color="#494848"/></linearGradient><linearGradient id="linear-gradient-2" x1="368.42" y1="260.82" x2="368.42" y2="59.06" gradientTransform="matrix(1, 0, 0, 1, 0, 0)" xlink:href="#linear-gradient"/></defs><g id="Layer_2" data-name="Layer 2"><g id="base"><rect class="cls-1" width="837.33" height="1537"/></g><g id="hair_08"><path class="cls-2" d="M440.32,94.33s-17-8.08,8.18-53.4c0,0-4.7,20.26,1,31.4,0,0-12.25-24.66,24.21-55-16,25.88-13.8,45-12.2,47.87,0,0-23.49-41,73.77-57.15,0,0-2.85,1.41-9.8,8.58,0,0,68-11.57,100.22,42.47,0,0,86.5,25.52,88.53,118.9S700.9,293.08,700.9,293.08s15.37,55.5-32.29,103.17c0,0,16.42-56.25,12-75.84,0,0,1.85,23.14-21.8,53.65,0,0,8.12-25.51,3.08-39.36,0,0,7.47,27.34-19,61,0,0-15.92-100.83-95.11-148.73-30.64-18.54-16.76-94.39-22-104.62a46.81,46.81,0,0,0-12.38-15.49Z"/><path class="cls-3" d="M433.05,105.86s-1.33-12.69,16.57-13.62,57.06,3,64.86,38.58l-1.05,4.58Z"/><path class="cls-4" d="M520,205.46l3-50.46-7.77-16.74c-11.92-21.17-33.84-25.95-33.84-25.95S463.28,105,448.93,106A135.44,135.44,0,0,0,422,110.52c-13.4-15.84-47.69-49.18-100.4-51.46,0,0,58.56,28.21,54.38,47.59.3-1.84,3.41-28.95-72.53-20.72-78.6,8.53-90.57,72.47-90.57,72.47,43.67-52,84.84-59,114.54-41.46,0,0-83.12-46.79-116.39,112,0,0,42.29-44.39,48.68-38.71,0,0-21.29,8.45-18.15,22.77,0,0,40.18-28.19,52.9-22.52,0,0-7.64,13.46-5.42,36,0,0,28.12-54.69,62.86-60.23.05.9.11,1.81.18,2.74-10.3,3-22.37,10.88-25.05,31.12,0,0,13.23-13.67,25.75-20.46.36,6.94.33,13.79-1.28,19.49-2.19,7.75-4.75,9.09-5.49,14.93,20.33-16.48,22-30.9,22-30.9l3.82,17.41s6.32-17.51,8.2-20.24,3.73-15.17,3.73-15.17c1.74-.93,4.41-2,6.08,1.48,5.25-2.1,4.2-5.27,6.59-5.85,2,7.86,5.9,19.89,11.41,25.18-.88-5.53-3.4-17.58-5.28-26.38l.82-.12c4.81,13.59,15.57,35.82,34.45,35.25-6.69-10.12-13.83-28-13.83-28l19.45,13.24,29.48,2.87c1,2.64,2,5.26,2.87,7.74l5.63,20.65,4.39,3a41.22,41.22,0,0,1,1.92,5.21l-3.23-1.67a109.23,109.23,0,0,1,1.67,24.3c-.69,12.69-1.67,28.21-1.67,28.21h4.46s9.65-19.35,22.39-24.68c0,0,6.81-17.59,8.67-24.94V214s4.9,5.53,5.68,10.63C525.67,224.67,527.24,215.8,520,205.46Z"/><path class="cls-5" d="M481.58,171.17c-2.87-36.89-33.4-46.47-59.47-21.45l1.59,1.46q-2.32,1.53-4.52,3.27a5.08,5.08,0,0,0-.92,7l5.7,5.22c45.28-46.08,48.19,55.4,45.83,81.26,4.09-22.09,7-44.35,5.19-67,3.33,20.16,3.54,41,2.6,61.42C481.38,218.88,484.12,195,481.58,171.17Z"/></g></g></svg>