<svg xmlns="http://www.w3.org/2000/svg" xmlns:xlink="http://www.w3.org/1999/xlink" viewBox="0 0 837.33 1537"><defs><style>.cls-1{fill:none;}.cls-2{fill:#333;}.cls-2,.cls-3,.cls-4,.cls-5{fill-rule:evenodd;}.cls-3{fill:#050505;opacity:0.41;}.cls-4{fill:url(#linear-gradient);}.cls-5,.cls-6{fill:#575757;}.cls-7{fill:url(#linear-gradient-2);}.cls-8{fill:url(#linear-gradient-3);}.cls-9{fill:#74cbe2;}.cls-10{fill:#246b7c;}.cls-11{fill:url(#linear-gradient-4);}.cls-12{fill:#03252d;opacity:0.56;}.cls-13{fill:url(#linear-gradient-5);}.cls-14{fill:url(#linear-gradient-6);}.cls-15{fill:url(#linear-gradient-7);}.cls-16{fill:url(#linear-gradient-8);}.cls-17{fill:url(#linear-gradient-9);}.cls-18{fill:url(#linear-gradient-10);}.cls-19{fill:url(#linear-gradient-11);}.cls-20{fill:url(#linear-gradient-12);}.cls-21{fill:url(#linear-gradient-13);}.cls-22{fill:url(#linear-gradient-14);}.cls-23{fill:url(#linear-gradient-15);}</style><linearGradient id="linear-gradient" x1="423.94" y1="775.95" x2="423.94" y2="741.61" gradientUnits="userSpaceOnUse"><stop offset="0" stop-color="#2a2cb4"/><stop offset="1" stop-color="#0c2c64"/></linearGradient><linearGradient id="linear-gradient-2" x1="389.28" y1="936.21" x2="389.28" y2="909.29" xlink:href="#linear-gradient"/><linearGradient id="linear-gradient-3" x1="448.35" y1="959.45" x2="448.35" y2="930.14" xlink:href="#linear-gradient"/><linearGradient id="linear-gradient-4" x1="546.43" y1="981.44" x2="546.43" y2="905.23" gradientTransform="translate(-29.51 19.75) rotate(-2.38)" xlink:href="#linear-gradient"/><linearGradient id="linear-gradient-5" x1="532.14" y1="929.25" x2="532.14" y2="879.78" gradientTransform="translate(-29.51 19.75) rotate(-2.38)" xlink:href="#linear-gradient"/><linearGradient id="linear-gradient-6" x1="518.67" y1="907.88" x2="518.67" y2="842.82" gradientTransform="matrix(0.99, -0.13, 0.13, 0.99, -102.37, 72.07)" xlink:href="#linear-gradient"/><linearGradient id="linear-gradient-7" x1="514.71" y1="867.03" x2="514.71" y2="806.21" gradientTransform="matrix(0.99, -0.13, 0.13, 0.99, -102.37, 72.07)" xlink:href="#linear-gradient"/><linearGradient id="linear-gradient-8" x1="507.32" y1="826.01" x2="507.32" y2="775.82" gradientTransform="translate(-167.53 134.94) rotate(-13.09)" xlink:href="#linear-gradient"/><linearGradient id="linear-gradient-9" x1="505.57" y1="794.35" x2="505.57" y2="755.5" gradientTransform="matrix(1, -0.09, 0.09, 1, -71.18, 51.32)" xlink:href="#linear-gradient"/><linearGradient id="linear-gradient-10" x1="442.45" y1="977.46" x2="442.45" y2="901.97" gradientTransform="matrix(-1, -0.02, -0.02, 1, 738.44, 6.05)" xlink:href="#linear-gradient"/><linearGradient id="linear-gradient-11" x1="429.91" y1="929.09" x2="429.91" y2="879" gradientTransform="matrix(-1, -0.07, -0.07, 1, 776.66, 26.32)" xlink:href="#linear-gradient"/><linearGradient id="linear-gradient-12" x1="424.81" y1="892.26" x2="424.81" y2="826.19" gradientTransform="matrix(-0.97, -0.23, -0.23, 0.97, 916.98, 132.03)" xlink:href="#linear-gradient"/><linearGradient id="linear-gradient-13" x1="421.85" y1="849.52" x2="421.85" y2="787.76" gradientTransform="matrix(-0.89, -0.45, -0.45, 0.89, 1063.08, 289.36)" xlink:href="#linear-gradient"/><linearGradient id="linear-gradient-14" x1="422.49" y1="803.49" x2="422.49" y2="752.49" gradientTransform="matrix(-0.97, -0.24, -0.24, 0.97, 926.15, 146.73)" xlink:href="#linear-gradient"/><linearGradient id="linear-gradient-15" x1="421.2" y1="784.55" x2="421.2" y2="745.08" gradientTransform="matrix(-0.91, -0.4, -0.4, 0.91, 1028.69, 249.16)" xlink:href="#linear-gradient"/></defs><g id="Layer_2" data-name="Layer 2"><g id="base"><rect class="cls-1" width="837.33" height="1537"/></g><g id="Legs_05"><path class="cls-2" d="M604.05,1223.82c-.07-1-.16-2.07-.24-3.1.34-11.11-1.5-19.86-2.61-30.34-.84-7.83-3.53-14.76-6.67-21.66-1.78-7.13-3.68-14.46-5.61-22.28h0l-.15-.58,0-.09h0q-.81-3.2-1.6-6.28a22.42,22.42,0,0,0-.72-7.46,66.8,66.8,0,0,0-2.8-6.7c-1.77-7.36-3.22-13.89-4.07-19.16-.89-5.53-1.43-14.55-1.93-25.86,3.59-21.2,7-45.53,5.09-65.06-1.08-11.08-7.27-25.89-12.26-39.66-2.44-18.06-5.84-35.36-10.7-50,0-.19-.14-.39-.19-.59-.31-.92-.62-1.87-.94-2.82-1.26-6.77-2.42-13.71-3.27-21.45-2.86-26.05-12-49.86-21.82-70l-11.1-55.13-3.09-10.43L513.42,745c-29.78,12.24-179.54,4.35-179.54,4.35s-3.2,10.75-8.18,26.77c-10.6,22.82-23.57,43.1-47.2,90.78-8.14,16.45-14.24,65.59-16.32,85-1.87,17.38,1.39,35,.24,52.4-1.6,24.12-11.6,48.14-6.66,71.81a109.6,109.6,0,0,0,5.65,17.56c1.79,17.64,4.44,37,6,47.8-1.72,3.75-3.84,7.34-5.33,11.19-4.81,12.42-2.66,26.29-3.65,39.57-1.26,16.9-7.64,32.93-11.44,49.45-2.68,11.65-3.93,24.24-1.34,35.73-1,3.92-1.63,6-1.63,6l-12.56,80.83c9.42,65.44,58.23,30.4,70.79-6.24,2.83-4.43,26.12-67.28,26.17-67.38l.7-1.48A233.89,233.89,0,0,0,356,1237.5c3.34-9,6.14-18.4,6.16-28,0-1.61-.09-3.23-.22-4.83,3-10.88,3.68-17.4,3.49-24.45-.12-5.3-1.49-12.25-3.33-19.32,3.57-14.52,8.32-29.88,3.36-41.65-.72-1.72-4.17-31.12-1-46.63.39-1.93.81-3.85,1.24-5.77,8.66-25.73,19.28-52.27,25.76-71.64,2.74-5.71,5.27-11.52,6.35-17.74,1.46-8.38,7.64-19.51,10.81-27.41a262.64,262.64,0,0,0,10-29c2.29,11.32,7.11,26.34,16.18,47,3.41,7.8,4.43,8.86,6.15,17.2s16.68,8,14.95,16.2c-12.94,61.57,15.55,53.21,21.4,77.84,3.66,15.4,1.14,44.89.47,46.64-7.15,18.62,9.63,45.24,8.39,64.34-.57,8.61-2.52,17.14-2.23,25.76.32,9.61,3.43,18.9,7.05,27.8a232.37,232.37,0,0,0,13.57,27.84c4.9,21.79,10.9,42.79,10.9,42.79l5.35,51.75s-.54,32.62,23.23,32.8c32.85.24,36.6-52.1,36.6-52.1s13.55-58.62,14.58-65.24C597.49,1267.51,605.71,1249.44,604.05,1223.82Z"/><path class="cls-3" d="M267.38,1141.46s35-4.39,35-106.79c0,0,12,98.66-17.36,118s-23,0-23,0Z"/><path class="cls-3" d="M475.46,1070.34s30.8,69.28,26.21,87.15l-22.61-46S481.92,1085.3,475.46,1070.34Z"/><path class="cls-3" d="M431,958.93s51.77,72.18,131,139c0,0-112.37-125.27-142.07-171.58C425.89,947.21,431,958.93,431,958.93Z"/><path class="cls-3" d="M535.79,835.4s3.41,146-5.89,164.68c0,0,21.59-124.32,14.7-143.65C541.39,847.42,535.79,835.4,535.79,835.4Z"/><path class="cls-4" d="M333.88,749.32A760.81,760.81,0,0,1,513.42,745l5.93,20.18a465.16,465.16,0,0,1-190.82,1.77Q331.22,758.12,333.88,749.32Z"/><polygon class="cls-5" points="368.7 773.14 373.22 744.72 413.22 742.15 443 741.61 443 776.09 408.86 775.82 368.7 773.14"/><path class="cls-6" d="M377.48,771.24c-.18,1.7-.39,3.39-.61,5.08l.45-3.32c-1.66,12.32-4.77,24.42-5.92,36.81a72.51,72.51,0,0,0,.28,16.13,107.4,107.4,0,0,0,2.06,11.71c.71,2.89,1.62,5.71,2.47,8.56a105.22,105.22,0,0,1,3.49,16.08l-.44-3.32c.34,2.61.59,5.23.77,7.85a53.21,53.21,0,0,1,.25,5.91c-.08,2-.41,3.93-.67,5.88l.45-3.33c-.95,7-2,14-2.72,21a108.4,108.4,0,0,0-.9,18.27A29.94,29.94,0,0,0,379.39,927a12.63,12.63,0,0,0,7.47,5.74,12.76,12.76,0,0,0,9.63-1.26,12.57,12.57,0,0,0,5.74-7.47,13.68,13.68,0,0,0-1.26-9.63l-.21-.46,1.26,3a13.83,13.83,0,0,1-.82-3.4l.44,3.32a71.35,71.35,0,0,1,.14-14.61c.46-5.61,1.16-11.2,1.91-16.79l-.45,3.33c.54-4,1.11-8,1.62-12a34.21,34.21,0,0,0,.38-6,126.59,126.59,0,0,0-4.85-30.87,115.64,115.64,0,0,1-4.15-17.21l.44,3.32a75.8,75.8,0,0,1,.18-20.13l-.45,3.32c.72-5.31,1.8-10.57,2.78-15.84,1.36-7.31,2.49-14.66,3.29-22,.32-3-1.63-6.8-3.66-8.84a12.51,12.51,0,0,0-17.68,0l-1.95,2.53a12.38,12.38,0,0,0-1.71,6.31Z"/><path class="cls-6" d="M412.47,764.54c.76,11.27,9.91,52.76,11.13,64,1.1,10.06,2,20.2,2.39,30.32.37,8.72.72,17.44,1.21,26.15.64,11.48,1.42,23,2.78,34.38.56,4.76,1.21,9.51,2.19,14.2.59,2.82,1.15,5.69,2,8.45a33.21,33.21,0,0,0,2.95,6.59,8.37,8.37,0,0,0,.8,1.23,13.35,13.35,0,0,0,7.91,5.13,12.78,12.78,0,0,0,9.5-2,12.61,12.61,0,0,0,5.13-7.9c.46-3.19.08-6.91-2-9.5a8.05,8.05,0,0,1-.88-1.38l1.5,2.87a33,33,0,0,1-2.53-8.08l.71,3.28a215.85,215.85,0,0,1-3.54-26.82c-.88-10-1.48-20-2-30.09-.33-6.74-.57-13.48-.89-20.21-.44-9.57-1.27-19.17-2.32-28.69-1-9.06-10-48.38-10.68-57.47-.15-2.14-.29-4.27-.44-6.41a12.49,12.49,0,0,0-13.46-11.46c-6.8.86-5.86,16.71-5.39,23.71Z"/><polygon class="cls-7" points="397.05 909.29 381.51 909.29 373.74 922.75 381.51 936.21 397.05 936.21 404.82 922.75 397.05 909.29"/><polygon class="cls-8" points="453.51 930.14 438.24 932.99 433.07 947.65 443.18 959.45 458.45 956.6 463.62 941.94 453.51 930.14"/><polygon class="cls-9" points="400.15 753.99 400.15 763.47 408.52 768.21 416.89 763.47 416.89 753.99 408.52 749.25 400.15 753.99"/><path class="cls-9" d="M384.7,912c3.31-.29,6.63-.42,9.94-.47l.4.22c1,1.57,2,3.16,2.89,4.79a55.9,55.9,0,0,1,2.55,5c-1.18-1.46-2.27-3-3.3-4.54s-2-3.15-2.94-4.76l.4.22C391.33,912.42,388,912.29,384.7,912Z"/><path class="cls-9" d="M454.82,954.35c-3.21.88-6.44,1.62-9.68,2.28l-.44-.15c-1.27-1.35-2.53-2.73-3.73-4.17s-2.35-2.9-3.42-4.45c1.44,1.22,2.78,2.52,4.08,3.86s2.55,2.73,3.77,4.14l-.44-.15C448.23,955.15,451.51,954.68,454.82,954.35Z"/><polygon class="cls-10" points="409.62 749.87 408.52 749.25 400.15 753.99 400.15 763.47 401.88 764.45 401.88 754.47 409.62 749.87"/><polygon class="cls-6" points="404.32 756.36 404.32 761.11 408.52 763.48 412.72 761.11 412.72 756.36 408.52 753.98 404.32 756.36"/><path class="cls-11" d="M528.33,915l12,33s23.46,0,43.06,28.55L562,901.2S548.41,901.09,528.33,915Z"/><path class="cls-12" d="M510.33,889.32l12,44.53s25.81-16.81,45.2-13.18l-2.39-8.4S530.41,875.43,510.33,889.32Z"/><path class="cls-13" d="M510.33,889.32l12.73,37.53s26.63-17.76,46-14.13l-9.7-36.83S530.41,875.43,510.33,889.32Z"/><path class="cls-12" d="M484.16,861.39l20.76,57S538,893,563.8,895.49l-2.1-10.78S508.88,840.9,484.16,861.39Z"/><path class="cls-14" d="M484.16,861.39l21,47.71S538,882.79,563.8,885.34L546.89,838.2S508.88,840.9,484.16,861.39Z"/><path class="cls-12" d="M477.89,824.3l19.41,53.24s33.21-24.64,57.34-22.26l-2.31-8.59S501,805.15,477.89,824.3Z"/><path class="cls-15" d="M477.89,824.3l19.59,44.59s30.72-24.58,54.85-22.2l-15.8-44.07S501,805.15,477.89,824.3Z"/><path class="cls-12" d="M476.41,793.67l17.71,42.12s25.24-23,45.26-23l-2.61-6.87S493.8,776,476.41,793.67Z"/><path class="cls-16" d="M476.41,793.67l19.76,35s23.19-22.72,43.21-22.76L522.77,771S493.8,776,476.41,793.67Z"/><path class="cls-12" d="M480.84,766.75l10.83,34.3s23-13.4,39.14-11.43l-3.67-8.15S496.8,754.94,480.84,766.75Z"/><path class="cls-17" d="M480.84,766.75l12,28.85s21.19-15.14,37.29-13.18L520.66,754S496.8,754.94,480.84,766.75Z"/><path class="cls-18" d="M297,911.11,287.69,944s-20.41,0-36.44,28.4l16-75.13S279,897.22,297,911.11Z"/><path class="cls-12" d="M311.7,887.68l-8.83,44.38s-23-16.79-39.78-13.2l1.78-8.38S293.74,873.8,311.7,887.68Z"/><path class="cls-19" d="M313.48,889,302.14,926s-23-18.75-39.88-15.88l8.7-36.37S296.13,874.37,313.48,889Z"/><path class="cls-12" d="M340.22,861.46l-22.91,54.37S291,887,268.51,886.7l2.76-10.49S320.69,838.41,340.22,861.46Z"/><path class="cls-20" d="M340.22,861.46,318,906.6s-26.05-29.71-48.55-30l18.73-45S320.69,838.41,340.22,861.46Z"/><path class="cls-12" d="M353.92,833.47l-29.37,45.78s-19.41-33.39-39.84-38.43l4.56-7.45S341,808.33,353.92,833.47Z"/><path class="cls-21" d="M353.92,833.47l-29.87,36.35s-17.39-32.59-37.82-37.63l26.62-37S341,808.33,353.92,833.47Z"/><path class="cls-12" d="M356.84,795.17l-15.25,41.51s-22-23.66-39.42-24.29l2.24-6.77S341.65,777.06,356.84,795.17Z"/><path class="cls-22" d="M356.84,795.17l-17.06,34.35s-20.24-23.35-37.64-24l14.32-34.31S341.65,777.06,356.84,795.17Z"/><path class="cls-12" d="M357,778l-19.12,29.5s-13.3-18.23-27.08-21.05l2.66-7.89S347.41,762.06,357,778Z"/><path class="cls-23" d="M357,778l-18.44,24s-12.85-20.58-26.63-23.4l16.25-24.33S347.41,762.06,357,778Z"/></g></g></svg>