<svg xmlns="http://www.w3.org/2000/svg" xmlns:xlink="http://www.w3.org/1999/xlink" viewBox="0 0 837.33 1537"><defs><style>.cls-1{fill:none;}.cls-2,.cls-3,.cls-4,.cls-5{fill-rule:evenodd;}.cls-2{fill:url(#Áåçûìÿííûé_ãðàäèåíò_23);}.cls-3{fill:#b85652;}.cls-4{fill:#b57c47;}.cls-5{fill:url(#Áåçûìÿííûé_ãðàäèåíò_23-2);}</style><linearGradient id="Áåçûìÿííûé_ãðàäèåíò_23" x1="284.75" y1="452.99" x2="278.32" y2="507.21" gradientTransform="matrix(-0.93, 0.37, -0.16, -0.42, 727, 404.16)" gradientUnits="userSpaceOnUse"><stop offset="0" stop-color="#ce595b"/><stop offset="1" stop-color="#d67261"/></linearGradient><linearGradient id="Áåçûìÿííûé_ãðàäèåíò_23-2" x1="269.51" y1="558.6" x2="269.51" y2="543.22" gradientTransform="matrix(1.28, 0.52, -0.5, 1.23, 317.52, -528.04)" xlink:href="#Áåçûìÿííûé_ãðàäèåíò_23"/></defs><g id="Layer_2" data-name="Layer 2"><g id="base"><rect class="cls-1" width="837.33" height="1537"/></g><g id="nose_lion"><path class="cls-2" d="M390.25,322.93a92.91,92.91,0,0,0-5.54-20.11c-2.57-6.37,3.28-4.35,2.9-1S390.25,322.93,390.25,322.93Z"/><path class="cls-3" d="M390.28,298.38s9-6.31,15.49-3.1A43,43,0,0,1,390.28,298.38Z"/><path class="cls-4" d="M386,257.47s-2.7,3-7.22,8.69c-.72,2.39-12.68,20-13.57,24.76l16.39,6.8s-12.18-5.79-13.23-7.7c1.78-5.81,9.4-14.13,12.59-22.69C383.52,263.14,384.66,259.38,386,257.47Z"/><path class="cls-5" d="M365.4,290.24s10.89-1.94,19.83-2.48,13.58-.09,24.45,2.37c0,0,.64,7.43-14.34,5.63-4.78,3.18-7.86,9.56-19,0C376.33,295.76,363.89,297.79,365.4,290.24Z"/></g></g></svg>