<svg xmlns="http://www.w3.org/2000/svg" xmlns:xlink="http://www.w3.org/1999/xlink" viewBox="0 0 837.33 1537"><defs><style>.cls-1{fill:none;}.cls-2,.cls-3,.cls-4{fill-rule:evenodd;}.cls-2{fill:url(#Áåçûìÿííûé_ãðàäèåíò_23);}.cls-3{fill:#b57c47;}.cls-4{fill:url(#Áåçûìÿííûé_ãðàäèåíò_23-2);}</style><linearGradient id="Áåçûìÿííûé_ãðàäèåíò_23" x1="394.58" y1="333.3" x2="407.2" y2="302.34" gradientUnits="userSpaceOnUse"><stop offset="0" stop-color="#ce595b"/><stop offset="1" stop-color="#d67261"/></linearGradient><linearGradient id="Áåçûìÿííûé_ãðàäèåíò_23-2" x1="386.44" y1="332.43" x2="399.11" y2="332.43" xlink:href="#Áåçûìÿííûé_ãðàäèåíò_23"/></defs><g id="Layer_2" data-name="Layer 2"><g id="base"><rect class="cls-1" width="837.33" height="1537"/></g><g id="mouth_lion"><path class="cls-2" d="M374,321.77s4.79,3.13,15.16,2.22c4.34-.39,10.55-.2,16.55-.06,8.35.19,21.06-11.09,23.1-12.77l-.77,2.11s-16.14,14.21-24.55,14.92c-7.9.66-18.93,1.78-25.9-1.91l-2.66-2.85Z"/><path class="cls-3" d="M460.18,315.25A198.16,198.16,0,0,0,450,293.7c-7.55-13-22.68-13.64-25.27-14.2l2.14-.7s15.59-.18,24.31,12.4c4.52,6.52,8.92,10.68,10.34,18.44l-.58,3.85Z"/><path class="cls-4" d="M386.44,331a20.6,20.6,0,0,0,12.67.64s-1.18.82-5.52,2.09C390.44,334.64,386.44,331,386.44,331Z"/><path class="cls-3" d="M355.53,282.82a58.75,58.75,0,0,1,9.39-2l-2.14-.7a31.7,31.7,0,0,0-7.46,1.08C355.38,281.76,355.45,282.28,355.53,282.82Z"/></g></g></svg>