<?xml version="1.0" encoding="utf-8"?>
<!-- Generator: Adobe Illustrator 26.0.0, SVG Export Plug-In . SVG Version: 6.00 Build 0)  -->
<svg version="1.1" id="Layer_1" xmlns="http://www.w3.org/2000/svg" xmlns:xlink="http://www.w3.org/1999/xlink" x="0px" y="0px"
	 viewBox="0 0 837.3 1537" style="enable-background:new 0 0 837.3 1537;" xml:space="preserve">
<style type="text/css">
	.st0{fill:none;}
	.st1{fill:url(#SVGID_1_);}
	.st2{fill:#D69C54;}
	.st3{fill:#4F2219;}
	.st4{opacity:0.45;fill:#4F2219;enable-background:new    ;}
</style>
<g id="Layer_2_00000174582575490152113650000018309157687104890542_">
	<g id="base">
		<rect class="st0" width="837.3" height="1537"/>
	</g>
	<g id="hair_lion">
		
			<linearGradient id="SVGID_1_" gradientUnits="userSpaceOnUse" x1="540.6248" y1="1112.9901" x2="312.856" y2="1350.1987" gradientTransform="matrix(1 0 0 -1 0 1538)">
			<stop  offset="1.000000e-02" style="stop-color:#7E3A1F"/>
			<stop  offset="0.87" style="stop-color:#723527"/>
		</linearGradient>
		<path class="st1" d="M592,308.6c-4.8-19.5-10.9-38.4-20.7-55.3c-2.3-7.8-7.3-13.5-10.8-20.4c-0.2-0.9-2.9-2.2,0-2.8
			c2.2-0.4,4.6,0.2,7.3-0.3c-7.3-6-13.4-13.3-19-21.2c-1.4-1.9-2.7-3.6-2.5-6.3l-2.5-2.8c-1.5-0.3-1.1-1.6-1.1-2.8
			c-2.1,0.2-4,0.3-3.8-3.5c0-2.6-0.2-5.3-0.5-7.9l-0.5-1.3c-2.4-2.3-4.2-5.2-5.1-8.4l-0.1-0.4c-0.1-0.2-0.3-0.5-0.4-0.7l-0.2-0.2
			c-0.7-0.6-1.3-1.2-2-1.9c-0.4,0.8-0.9,1.5-1.4,2.3c0,0-6.7,10.7-16.5,17.9c-1.5-4.3-10.9-4.8-11.8-10.4
			c-2.1-12.5-12.3-19.5-24.4-23.1c2.6-3.6,5.6-6.8,8.7-7.9c0,0,4.4-4.4,11.6-8.4c-8.4-2.2-16.9-3-25.7,1.4c-0.7,0.4-1.6,0.1-3.2,0.1
			c7-7.5,15.1-6.7,23.1-7.8c-4.4-4.2-9.6-4.9-14.9-5.5c-5.9-0.7-10.9-3.6-15.6-7.8c-4.3-3.9-9.1-7.1-13.6-10.6l-1.7-0.3
			c-5.7-1.4-11.4-1.9-16.8,1.3c-3.2,1.9-5.5-0.8-8.2-1.7l-13,11.8c-2.1,6.4-11,19-12,21.4c1.4-5.9,5.7-10.8,8-16.4
			c-7.7,0-14,2-18.3,8.2c9.8,6.3,15.6,14.4,15.6,14.4c1.6,1,3,2.4,4.1,4c-0.8-0.1-1.6-0.1-2.4-0.1c-8.1,0-5.3,3.9-12.8,7.5
			c-5.5,2.7-21.6,4.3-25.9,8.5c-1.8,1.8-3.5,3.8-5,5.8c-2.1-3.4-3.9-6.9-5.5-10.6c-1.2-2.8-2-5.5-2.4-8.1c-0.4-1.7-0.4-3.6-2.3-4
			l-1.2,1.1l-4.1,5l-0.1,0.1c-0.6,0.5-1.2,1.1-1.8,1.6l-10.3,13.4v-0.1c-0.5,0.5-0.9,1-1.4,1.5c-2.2,7.6-7.4,12.7-11.5,18.7l-2,2.7
			c0.5,2.9-1.4,4.7-2.4,6.8c-2.8,6-6.4,11.5-8,18.3l1.7,1.1c3-0.7,5.3-4.2,9.3-3.1c-19.1,28.8-36.5,57.8-33.1,97.7
			c3.5-4.5,4.4-9.3,7.5-12.2c1.6-1.5,3.4-2.7,5.3-1.8s0.5,3.1,0.9,4.8c0.8,4.3,0.2,8.5-0.2,12.8c-2,23.9,4.6,44.8,14.6,65.3
			c2.6-4.2,0.6-9.1,3.3-12.7c5.5,18.4,12.8,35.3,19.4,52.5c5.4,14.5,12.1,28.5,20.1,41.8c1.4,2.2,3.7,4,5.3,6.2c0.4,0,0.8,0,1.1,0
			c20.6,1.1,35.2,23.8,42.6,45c0.8,1.5,1.5,3.1,2.1,4.7c5.9-10.8,13.9-20.3,22.8-29c3.4-4.7,7.6-8.8,12.4-12.2
			c1.9-1.3,2.5,0.3,3.7,1l1,0.6c0.2-0.5,0.5-1,0.8-1.4l4.2-5.6c0.5-0.5,1.1-1.1,1.6-1.5c-0.1,0.1-0.3,0.1-0.4,0.1
			c-0.2,0-0.4-0.2-0.5-0.3l1.3-1.1c0.1,0.3,0.1,0.6,0,0.9c0.4-0.4,0.9-0.7,1.3-1c-0.4,0.1-0.8,0.1-1.2,0c1.2-1.5,3-2.4,5-2.4
			l-0.3,0.2c1.4-0.7,2.9-1.3,4.5-1.7l6.6-0.6c0.9,0,1.7,0.1,2.5,0.2c2.8-4.9,6.1-9.6,9.9-13.7c4.5-4.6,10.6-7.3,17.1-7.5
			c2.9-1.8,5.4-2,7.6,1.3c1.8,0.7,3.4,1.7,4.8,3c2.9-13.5,11-23,19.6-32c12.8-13.4,26.2-26,33-45.5c3.7-10.3,6.1-21.1,7-32
			c1.1,6.7,0.1,13.4-0.3,20.1c5.5-9.7,9.2-20.1,12.1-31c1.4-5.3,2.5-10.8,4.3-16c0.5-1.6,1.4-6.6,4.6-2.4
			C595,315.1,592.7,311.3,592,308.6z M457.7,473l1.2-1.3C459,472.8,458.3,472.8,457.7,473z M506.1,284.5L506.1,284.5
			c-0.6,5.2-2.1,10.2-3.1,15.4c-0.8,1.8-0.8,4.6-2.8,5c-2.9,0.5-1.9,2.2-2,3.7L496,314l-1.5,0.1c0.3-4.3-0.2-8.7-4.6-10.5
			c-5-2.1-10.2-1.6-14.6,2.3c-1.3-0.1-2,0.5-1.7,1.8c-0.1,0.3-0.2,0.5-0.3,0.8l-3.8,0.1l0.3,2c-5.2,6.5-9,13.6-10.3,21.9
			c-0.1,1.4-0.3,2.8-0.7,4.2c-0.3,1,1.4,4.8-2.4,2.1c-0.9-0.6-1,0.8-1.1,1.5c-0.6,2.9-1.1,5.9-1.9,8.8c-0.2,0.9,0.5,4.4-2.5,1.3
			c-0.9-0.9-1.3,0.8-1.6,1.5c-5.5,10.4-14,16.2-25.8,16.6c-4.1,0.1-29.6,2.8-40.8-10.6c-2.4-2.9-17.1-33.3-17.5-30.6
			c-4.7-5.9-6.2-13-10.7-18.2c-4.6-9.3-8-19.1-10.2-29.2c-0.8-3.4-0.5-6.6,1.3-9.2c0-0.1,0-0.1,0-0.1c1-1.4,2.1-2.6,3.3-3.8
			l-0.1-0.2c2-2,3.7-4.2,5.6-6.4c3-3.8,6.5-8.4,6.5-9c-0.3-1.8-0.6-3.7-1.1-5.4c-0.2-0.6-0.4-1.2-0.4-1.8l-0.3-1.2l0.3-42
			c0-0.6-0.1-1.1,0.1-1.4c2.4-2.9,2.2-9,5.7-9.2c4.1-0.2,8.5,2.7,12.6,4.6c5.7,2.8,11.5,5.2,17.4,7.4c1.2,1.1,3,1.2,4.4,0.4
			c4.4-2.8,9.7-4.4,12.9-8.9c1.1-3.1,4.3-3,6.7-4.1c5.8-2.9,11.2-6.7,17.3-8.9c4.7-1.7,9.1-1.8,13.6,0.7c7.1,4,14.6,42.3,20.1,48.3
			c7.7,8.4,15.7,16.6,25.1,23C506.8,260.6,507.4,272.3,506.1,284.5z"/>
		<path class="st2" d="M468,307.8l1.4,0.5l-1.1-1.1L468,307.8z"/>
		<path class="st3" d="M468.2,307.3l-0.3,0.6l1.4,0.5L468.2,307.3z"/>
		<path class="st4" d="M504.5,292.8c-0.5,2.3-1.1,4.6-1.6,7c-0.8,1.8-0.8,4.6-2.8,5c-2.9,0.5-1.9,2.2-2,3.7l-2.2,5.5h-1.5
			c0.3-4.3-0.2-8.7-4.6-10.5c-5-2-10.2-1.6-14.6,2.3c-1.3-0.1-2,0.5-1.7,1.8c-0.1,0.3-0.2,0.5-0.3,0.8l-3.8,0.1l0.3,2
			c-5.1,6.5-9,13.6-10.3,22c-0.1,1.4-0.3,2.8-0.7,4.2c-0.3,1,1.4,4.8-2.4,2.1c-0.9-0.6-1,0.8-1.1,1.5c-0.6,2.9-1.1,5.9-1.9,8.8
			c-0.2,0.9,0.5,4.5-2.5,1.3c-0.9-0.9-1.3,0.9-1.6,1.5c-5.5,10.4-14,16.2-25.8,16.6c-4.1,0.1-28.3,4.6-40.8-10.5
			c-2.4-2.9-17.1-33.3-17.5-30.6c-4.7-5.9-6.2-13-10.7-18.2c-4.6-9.3-8-19.1-10.2-29.2c-0.3-1.2-0.4-2.5-0.4-3.8
			c-10.3,13.5-21.6,37.7-13.3,55c2.2-3.5,0.5-7.6,2.8-10.7c4.6,15.4,13.1,19.6,18.6,34.1c4.5,12.2,10.2,23.9,16.9,35
			c1.1,1.9,3.1,3.4,4.4,5.2h1c17.2,0.9,27.1,29.8,33.3,47.6c0.7,1.3,1.3,2.6,1.8,4c5.1-9,11.5-17.2,19-24.3c2.8-3.9,1.8-13,5.8-16
			c1.6-1.1,2.1,0.2,3.1,0.8l0.9,0.5c0.2-0.4,0.4-0.8,0.6-1.2l3.5-4.7c0.5-0.5,0.9-0.9,1.4-1.3l-0.3,0.1c-0.1,0-0.3-0.2-0.5-0.2
			l1.1-0.9c0.1,0.2,0.1,0.5,0,0.8c0.4-0.3,0.7-0.6,1.1-0.9c-0.3,0.1-0.7,0.1-1,0c1-1.3,2.6-2,4.2-2l-0.2,0.2
			c1.2-0.6,2.5-1.1,3.8-1.4l5.5-0.5c0.7,0,1.4,0.1,2.1,0.2c2.3-4.1,5.1-8,8.3-11.5c3.5-3.8,7.8-23.2,13-23.3
			c2.4-1.5,4.5-1.7,6.4,1.1c1.5,0.6,2.8,1.5,4,2.5c2.4-11.3,11.3-12.5,18.4-20C520.3,333.1,510,314.8,504.5,292.8z M448.8,396.6
			c0.4-0.4,0.7-0.7,1-1.1C449.9,396.5,449.3,396.5,448.8,396.6z"/>
	</g>
</g>
</svg>
