<?xml version="1.0" encoding="utf-8"?>
<!-- Generator: Adobe Illustrator 26.0.0, SVG Export Plug-In . SVG Version: 6.00 Build 0)  -->
<svg version="1.1" id="Layer_1" xmlns="http://www.w3.org/2000/svg" xmlns:xlink="http://www.w3.org/1999/xlink" x="0px" y="0px"
	 viewBox="0 0 837.3 1537" style="enable-background:new 0 0 837.3 1537;" xml:space="preserve">
<style type="text/css">
	.st0{fill:none;}
	.st1{opacity:0.21;fill-rule:evenodd;clip-rule:evenodd;fill:url(#SVGID_1_);enable-background:new    ;}
	.st2{fill-rule:evenodd;clip-rule:evenodd;fill:url(#SVGID_00000047020042918018646230000004922219328167329213_);}
	.st3{fill:url(#SVGID_00000178186354438028106640000017989755166699305653_);}
	.st4{fill-rule:evenodd;clip-rule:evenodd;fill:url(#SVGID_00000059301679655840029310000016064650401920463540_);}
	.st5{fill-rule:evenodd;clip-rule:evenodd;fill:url(#SVGID_00000075842446357825160080000015374951357020441236_);}
	.st6{opacity:0.57;fill-rule:evenodd;clip-rule:evenodd;fill:#B57C47;enable-background:new    ;}
</style>
<g>
	<g id="Layer_2_00000104695353164745729980000011875888179604073089_">
		<g id="base">
			<rect class="st0" width="837.3" height="1537"/>
		</g>
		<g id="head">
			
				<linearGradient id="SVGID_1_" gradientUnits="userSpaceOnUse" x1="449.54" y1="1149.6044" x2="449.54" y2="1244.9299" gradientTransform="matrix(1 0 0 -1 0 1538)">
				<stop  offset="1.000000e-02" style="stop-color:#D195AB"/>
				<stop  offset="0.99" style="stop-color:#985E40"/>
			</linearGradient>
			<path class="st1" d="M399.9,376.9c0,0,11.8,21.6,50.7,5.5s48.6-70.8,48.6-70.8l-0.6-14.1l-4-4.5l-90.4,70.7L399.9,376.9z"/>
			
				<linearGradient id="SVGID_00000112610768252813647160000003238770856305539214_" gradientUnits="userSpaceOnUse" x1="434.5407" y1="1172.5096" x2="434.5407" y2="1395.6644" gradientTransform="matrix(1 0 0 -1 0 1538)">
				<stop  offset="0" style="stop-color:#E2A352"/>
				<stop  offset="1" style="stop-color:#E0A251"/>
			</linearGradient>
			<path style="fill-rule:evenodd;clip-rule:evenodd;fill:url(#SVGID_00000112610768252813647160000003238770856305539214_);" d="
				M494.3,308.3c-9.8,20.2-31.6,43.8-49.1,51.7l-1.6,0.6h0c-17.8,7-39.8,4.9-43.5,2.8s-4.6-7.4-19.6-26.6s-28.4-51.7-24.8-65.2
				c1.3-5.1,3.4-10.1,6.2-14.5c0.8-1.4,1.8-2.6,3-3.8c1.8-12-2.6-25.8-2.6-25.8s-6.3-6.4-6.6-14.4s4-12,6.4-17.5s4.3-19.1,6.8-23.2
				c13.5-22.1,60-32.8,82.5-29.6c36.1,5.1,61,37.9,62.3,54.6C516.4,232.4,504.5,287.6,494.3,308.3z"/>
			
				<linearGradient id="SVGID_00000018955741939153971740000003996583332311568308_" gradientUnits="userSpaceOnUse" x1="343.7864" y1="1263.6821" x2="506.5915" y2="1263.6821" gradientTransform="matrix(1 0 0 -1 0 1538)">
				<stop  offset="0" style="stop-color:#E2A352"/>
				<stop  offset="1" style="stop-color:#E0A251"/>
			</linearGradient>
			<path style="fill:url(#SVGID_00000018955741939153971740000003996583332311568308_);" d="M495.2,252.7
				c-9.4-6.5-17.4-14.6-25.1-23c-5.5-6-13-44.4-20.1-48.3c-4.5-2.5-8.9-2.5-13.6-0.7c-6.1,2.2-11.5,6-17.3,8.9
				c-2.4,1.1-5.5,1-6.7,4.1c-3.2,4.5-8.4,6.2-12.9,8.9c-1.4,0.9-3.2,0.7-4.4-0.4c-5.9-2.1-11.7-4.6-17.4-7.4
				c-4.1-2-8.5-4.8-12.6-4.6c-3.5,0.2-3.3,6.2-5.7,9.2c-0.2,0.3-0.1,0.8-0.1,1.4l-0.3,42l0.3,1.2c0,0.6,0.2,1.2,0.4,1.8
				c0.5,1.8,0.8,3.6,1.1,5.4c0,0.6-3.5,5.2-6.5,9c-1.9,2.1-3.6,4.4-5.6,6.4l0.1,0.2c-1.2,1.2-2.3,2.5-3.3,3.8c0,0,0,0.1,0,0.1
				c-1.9,2.7-2.1,5.8-1.4,9.2c2.2,10.1,5.6,19.9,10.2,29.2c4.5,5.2,6,12.3,10.7,18.2c0.4-2.7,15.2,27.7,17.5,30.6
				c12.4,15.2,36.7,10.7,40.8,10.5c11.9-0.4,20.3-6.2,25.8-16.6c0.4-0.7,0.7-2.5,1.6-1.5c2.9,3.1,2.2-0.4,2.5-1.3
				c0.8-2.9,1.2-5.9,1.9-8.8c0.1-0.7,0.3-2.1,1.1-1.5c3.8,2.7,2.1-1.1,2.4-2.1c0.4-1.4,0.6-2.8,0.7-4.2c1.2-8.4,5.1-15.4,10.3-22
				l-0.3-2l3.8-0.1c0-0.3,0.1-0.6,0.3-0.8c-0.2-1.4,0.5-1.9,1.7-1.8c4.4-3.9,9.6-4.3,14.6-2.3c4.4,1.8,4.8,6.2,4.6,10.5l1.5,0
				l2.2-5.5c0.1-1.5-0.9-3.2,2-3.7c2-0.4,2.1-3.2,2.8-5c1.1-5.1,2.6-10.2,3.1-15.3C507.4,272.3,506.8,260.6,495.2,252.7z
				 M468.2,307.3l1.1,1.1l-1.4-0.5L468.2,307.3z"/>
		</g>
	</g>
</g>
<linearGradient id="SVGID_00000034052044433164126190000007677039307994000824_" gradientUnits="userSpaceOnUse" x1="323.6915" y1="1326.6055" x2="238.2115" y2="1284.6055" gradientTransform="matrix(0.8825 0.4702 0.4702 -0.8825 -365.7784 1184.0823)">
	<stop  offset="0" style="stop-color:#E2A352"/>
	<stop  offset="1" style="stop-color:#E0A251"/>
</linearGradient>
<path style="fill-rule:evenodd;clip-rule:evenodd;fill:url(#SVGID_00000034052044433164126190000007677039307994000824_);" d="
	M531.6,138.5c-25.3-8.3-46.9,12.9-46.9,12.9c-3.1,1.1-6.1,4.3-8.7,7.9c12.1,3.6,22.3,10.6,24.4,23.1c0.9,5.6,10.3,6.1,11.8,10.4
	c9.8-7.2,16.5-17.9,16.5-17.9C539.9,158,531.6,138.5,531.6,138.5z"/>
<linearGradient id="SVGID_00000139996935725460503810000007901115364328375984_" gradientUnits="userSpaceOnUse" x1="328.1706" y1="1348.6188" x2="242.7006" y2="1306.6188" gradientTransform="matrix(-0.95 0.3 -0.3 -0.95 1056.17 1333.01)">
	<stop  offset="0" style="stop-color:#E2A352"/>
	<stop  offset="1" style="stop-color:#E0A251"/>
</linearGradient>
<path style="fill-rule:evenodd;clip-rule:evenodd;fill:url(#SVGID_00000139996935725460503810000007901115364328375984_);" d="
	M358,177.1c1.5-2.1,3.2-4,5-5.8c4.2-4.2,20.3-5.8,25.9-8.5c7.5-3.6,4.7-7.5,12.8-7.5c0.8,0,1.6,0,2.4,0.1c-1.1-1.6-2.5-3-4.1-4
	c0,0-17.5-24.8-43.8-21.1c0,0-11.7,17.8-3.6,36.3C354.1,170.2,355.9,173.8,358,177.1z"/>
<path class="st6" d="M398.5,155.6c-8.3-8-24.9-21-41.5-18.6c0,0-7.9,20.6,3.9,36.7c0.7-0.8,1.4-1.6,2.2-2.3
	c4.2-4.2,20.3-5.8,25.9-8.5C395.1,159.9,394.2,156.6,398.5,155.6z"/>
<path class="st6" d="M520.4,177.7c9.5-14.1,3.1-33.2,3.1-33.2c-21.3-7-40.1,13.5-40.1,13.5c-1.4,0.6-2.7,1.4-3.8,2.5
	c10.5,3.8,18.9,10.6,20.8,21.9c0.7,4.2,6.2,5.5,9.5,7.7C513.9,186.4,517.4,182.2,520.4,177.7z"/>
</svg>
