<?xml version="1.0" encoding="utf-8"?>
<!-- Generator: Adobe Illustrator 26.0.0, SVG Export Plug-In . SVG Version: 6.00 Build 0)  -->
<svg version="1.1" id="Layer_1" xmlns="http://www.w3.org/2000/svg" xmlns:xlink="http://www.w3.org/1999/xlink" x="0px" y="0px"
	 viewBox="0 0 2160 2160" style="enable-background:new 0 0 2160 2160;" xml:space="preserve">
<style type="text/css">
	.st0{fill:#A7573E;}
	.st1{fill:#BDBDBD;}
	.st2{opacity:0.7;fill:#A7573E;}
	.st3{fill:#DCDCDC;}
	.st4{fill:#616262;}
	.st5{fill:#959494;}
	.st6{opacity:0.7;fill:#DCDCDC;}
</style>
<g>
	<rect x="170.6" y="1173.8" class="st0" width="1815.3" height="196.7"/>
	<rect x="170.6" y="1370.5" class="st0" width="1815.3" height="196.7"/>
	<rect x="170.6" y="395.8" class="st0" width="1815.3" height="196.7"/>
	<rect x="170.6" y="592.5" class="st0" width="1815.3" height="196.7"/>
	<rect x="170.6" y="1567.2" class="st0" width="1815.3" height="196.7"/>
	<path class="st1" d="M2073.6,1173.8H82.8c-2.2,0-3.9-1.8-3.9-3.9V985.4c0-2.2,1.8-3.9,3.9-3.9h1990.8c2.2,0,3.9,1.8,3.9,3.9v184.4
		C2077.6,1172,2075.8,1173.8,2073.6,1173.8z"/>
	<path class="st1" d="M2073.6,981.5H82.8c-2.2,0-3.9-1.8-3.9-3.9V793.2c0-2.2,1.8-3.9,3.9-3.9h1990.8c2.2,0,3.9,1.8,3.9,3.9v184.4
		C2077.6,979.8,2075.8,981.5,2073.6,981.5z"/>
	<path class="st1" d="M2077.1,395.8H86.3c-2.2,0-3.9-1.8-3.9-3.9V207.5c0-2.2,1.8-3.9,3.9-3.9h1990.8c2.2,0,3.9,1.8,3.9,3.9v184.4
		C2081,394.1,2079.2,395.8,2077.1,395.8z"/>
	<path class="st1" d="M2073.6,1956.2H82.8c-2.2,0-3.9-1.8-3.9-3.9v-184.4c0-2.2,1.8-3.9,3.9-3.9h1990.8c2.2,0,3.9,1.8,3.9,3.9v184.4
		C2077.6,1954.5,2075.8,1956.2,2073.6,1956.2z"/>
	<rect x="170.6" y="395.8" class="st2" width="1815.3" height="35.7"/>
	<path class="st1" d="M85.4,239.3H2078c-7-20.7-26.4-35.7-49.5-35.7H134.9C111.8,203.6,92.4,218.6,85.4,239.3z"/>
	<path class="st1" d="M2078,360.1H85.4c7,20.7,26.4,35.7,49.5,35.7h1893.6C2051.6,395.8,2071,380.8,2078,360.1z"/>
	<path class="st1" d="M81.9,825h1992.6c-7-20.7-26.4-35.7-49.5-35.7H131.5C108.4,789.2,89,804.2,81.9,825z"/>
	<path class="st1" d="M2074.6,945.8H81.9c7,20.7,26.4,35.7,49.5,35.7H2025C2048.1,981.5,2067.5,966.5,2074.6,945.8z"/>
	<path class="st1" d="M81.9,1017.2h1992.6c-7-20.7-26.4-35.7-49.5-35.7H131.5C108.4,981.5,89,996.5,81.9,1017.2z"/>
	<path class="st1" d="M2074.6,1138H81.9c7,20.7,26.4,35.7,49.5,35.7H2025C2048.1,1173.8,2067.5,1158.8,2074.6,1138z"/>
	<path class="st1" d="M81.9,1799.7h1992.6c-7-20.7-26.4-35.7-49.5-35.7H131.5C108.4,1764,89,1779,81.9,1799.7z"/>
	<path class="st1" d="M2074.6,1920.5H81.9c7,20.7,26.4,35.7,49.5,35.7H2025C2048.1,1956.2,2067.5,1941.2,2074.6,1920.5z"/>
	<rect x="170.6" y="1173.8" class="st2" width="1815.3" height="35.7"/>
	<rect x="170.6" y="556.8" class="st2" width="1815.3" height="35.7"/>
	<rect x="170.6" y="1370.5" class="st2" width="1815.3" height="35.7"/>
	<rect x="170.6" y="1531.5" class="st2" width="1815.3" height="35.7"/>
	<rect x="170.6" y="1334.8" class="st2" width="1815.3" height="35.7"/>
	<rect x="170.6" y="1567.2" class="st2" width="1815.3" height="35.7"/>
	<rect x="170.6" y="1728.2" class="st2" width="1815.3" height="35.7"/>
	<rect x="170.6" y="592.5" class="st2" width="1815.3" height="35.7"/>
	<rect x="170.6" y="753.5" class="st2" width="1815.3" height="35.7"/>
	<g>
		<rect x="815" y="867.2" class="st3" width="526.5" height="70.4"/>
		<polygon class="st3" points="1078.2,937.6 815,937.6 815,1268.8 1078.2,1382.2 1341.5,1268.8 1341.5,937.6 		"/>
		<polygon class="st3" points="815,1242.2 815,1268.8 1078.2,1382.2 1341.5,1268.8 1341.5,1242.2 1078.2,1355.5 		"/>
		<path class="st4" d="M1142,1078c0-35.2-28.5-63.8-63.8-63.8c-35.2,0-63.8,28.6-63.8,63.8c0,20.2,9.4,38.1,24,49.8v65.8l39.7,37.4
			l39.7-37.4v-65.8C1132.6,1116.1,1142,1098.2,1142,1078z"/>
		<rect x="815" y="937.6" class="st5" width="526.5" height="8.4"/>
		<rect x="958.9" y="867.2" class="st5" width="6.1" height="78.8"/>
		<rect x="1191.4" y="867.2" class="st5" width="6.1" height="78.8"/>
		<rect x="815" y="867.2" class="st6" width="526.5" height="15.1"/>
		<rect x="815" y="946" class="st6" width="526.5" height="15.1"/>
		<rect x="815" y="922.5" class="st6" width="526.5" height="15.1"/>
	</g>
</g>
</svg>
